<?xml version="1.0" encoding="UTF-8" standalone="no"?>
<!DOCTYPE svg PUBLIC "-//W3C//DTD SVG 1.1//EN"
 "http://www.w3.org/Graphics/SVG/1.1/DTD/svg11.dtd">
<!-- Generated by graphviz version 2.43.0 (0)
 -->
<!-- Title: DiffusionOps.H Pages: 1 -->
<!--zoomable 252 -->
<svg id="main" version="1.1" xmlns="http://www.w3.org/2000/svg" xmlns:xlink="http://www.w3.org/1999/xlink" xml:space="preserve" onload="init(evt)">
<style type="text/css"><![CDATA[
.edge:hover path { stroke: red; }
.edge:hover polygon { stroke: red; fill: red; }
]]></style>
<script type="text/javascript"><![CDATA[
var edges = document.getElementsByTagName('g');
if (edges && edges.length) {
  for (var i=0;i<edges.length;i++) {
    if (edges[i].id.substr(0,4)=='edge') {
      edges[i].setAttribute('class','edge');
    }
  }
}
]]></script>
        <defs>
                <circle id="rim" cx="0" cy="0" r="7"/>
                <circle id="rim2" cx="0" cy="0" r="3.5"/>
                <g id="zoomPlus">
                        <use xlink:href="#rim" fill="#404040">
                                <set attributeName="fill" to="#808080" begin="zoomplus.mouseover" end="zoomplus.mouseout"/>
                        </use>
                        <path d="M-4,0h8M0,-4v8" fill="none" stroke="white" stroke-width="1.5" pointer-events="none"/>
                </g>
                <g id="zoomMin">
                        <use xlink:href="#rim" fill="#404040">
                                <set attributeName="fill" to="#808080" begin="zoomminus.mouseover" end="zoomminus.mouseout"/>
                        </use>
                        <path d="M-4,0h8" fill="none" stroke="white" stroke-width="1.5" pointer-events="none"/>
                </g>
                <g id="dirArrow">
                        <path fill="none" stroke="white" stroke-width="1.5" d="M0,-3.0v7 M-2.5,-0.5L0,-3.0L2.5,-0.5"/>
                </g>
               <g id="resetDef">
                       <use xlink:href="#rim2" fill="#404040">
                               <set attributeName="fill" to="#808080" begin="reset.mouseover" end="reset.mouseout"/>
                       </use>
               </g>
        </defs>

<script type="text/javascript">
var viewWidth = 1937;
var viewHeight = 252;
var sectionId = 'dynsection-1';
</script>
<script xlink:href="svgpan.js"/>
<svg id="graph" class="graph">
<g id="viewport">
<title>DiffusionOps.H</title>
<polygon fill="white" stroke="transparent" points="-4,4 -4,-248 1933,-248 1933,4 -4,4"/>
<!-- Node1 -->
<g id="node1" class="node">
<title>Node1</title>
<g id="a_node1"><a xlink:title=" ">
<polygon fill="#bfbfbf" stroke="black" points="102,-224.5 102,-243.5 191,-243.5 191,-224.5 102,-224.5"/>
<text text-anchor="middle" x="146.5" y="-231.5" font-family="Helvetica,sans-Serif" font-size="10.00">DiffusionOps.H</text>
</a>
</g>
</g>
<!-- Node2 -->
<g id="node2" class="node">
<title>Node2</title>
<g id="a_node2"><a xlink:href="_diffusion_ops_8cpp.html" target="_top" xlink:title=" ">
<polygon fill="white" stroke="black" points="0,-168.5 0,-187.5 99,-187.5 99,-168.5 0,-168.5"/>
<text text-anchor="middle" x="49.5" y="-175.5" font-family="Helvetica,sans-Serif" font-size="10.00">DiffusionOps.cpp</text>
</a>
</g>
</g>
<!-- Node1&#45;&gt;Node2 -->
<g id="edge1" class="edge">
<title>Node1&#45;&gt;Node2</title>
<path fill="none" stroke="midnightblue" d="M122.16,-219.45C104.26,-209.48 80.45,-196.23 65.05,-187.65"/>
<polygon fill="midnightblue" stroke="midnightblue" points="120.48,-222.52 130.92,-224.32 123.88,-216.4 120.48,-222.52"/>
</g>
<!-- Node3 -->
<g id="node3" class="node">
<title>Node3</title>
<g id="a_node3"><a xlink:href="icns__diffusion_8_h.html" target="_top" xlink:title=" ">
<polygon fill="white" stroke="black" points="18.5,-56.5 18.5,-75.5 112.5,-75.5 112.5,-56.5 18.5,-56.5"/>
<text text-anchor="middle" x="65.5" y="-63.5" font-family="Helvetica,sans-Serif" font-size="10.00">icns_diffusion.H</text>
</a>
</g>
</g>
<!-- Node1&#45;&gt;Node3 -->
<g id="edge2" class="edge">
<title>Node1&#45;&gt;Node3</title>
<path fill="none" stroke="midnightblue" d="M137.65,-214.86C120.27,-179.25 82.31,-101.45 69.68,-75.57"/>
<polygon fill="midnightblue" stroke="midnightblue" points="134.61,-216.62 142.15,-224.08 140.91,-213.55 134.61,-216.62"/>
</g>
<!-- Node5 -->
<g id="node5" class="node">
<title>Node5</title>
<g id="a_node5"><a xlink:href="icns__ops_8_h.html" target="_top" xlink:title=" ">
<polygon fill="white" stroke="black" points="131,-56.5 131,-75.5 200,-75.5 200,-56.5 131,-56.5"/>
<text text-anchor="middle" x="165.5" y="-63.5" font-family="Helvetica,sans-Serif" font-size="10.00">icns_ops.H</text>
</a>
</g>
</g>
<!-- Node1&#45;&gt;Node5 -->
<g id="edge4" class="edge">
<title>Node1&#45;&gt;Node5</title>
<path fill="none" stroke="midnightblue" d="M148.68,-213.93C152.8,-177.92 161.58,-101.23 164.52,-75.57"/>
<polygon fill="midnightblue" stroke="midnightblue" points="145.18,-213.74 147.52,-224.08 152.14,-214.54 145.18,-213.74"/>
</g>
<!-- Node6 -->
<g id="node6" class="node">
<title>Node6</title>
<g id="a_node6"><a xlink:href="_p_d_e_8_h.html" target="_top" xlink:title=" ">
<polygon fill="white" stroke="black" points="873,-168.5 873,-187.5 920,-187.5 920,-168.5 873,-168.5"/>
<text text-anchor="middle" x="896.5" y="-175.5" font-family="Helvetica,sans-Serif" font-size="10.00">PDE.H</text>
</a>
</g>
</g>
<!-- Node1&#45;&gt;Node6 -->
<g id="edge6" class="edge">
<title>Node1&#45;&gt;Node6</title>
<path fill="none" stroke="midnightblue" d="M201.58,-229.03C352.61,-218.16 769,-188.18 872.82,-180.71"/>
<polygon fill="midnightblue" stroke="midnightblue" points="200.89,-225.57 191.17,-229.78 201.4,-232.56 200.89,-225.57"/>
</g>
<!-- Node4 -->
<g id="node4" class="node">
<title>Node4</title>
<g id="a_node4"><a xlink:href="icns_8cpp.html" target="_top" xlink:title=" ">
<polygon fill="white" stroke="black" points="200.5,-0.5 200.5,-19.5 256.5,-19.5 256.5,-0.5 200.5,-0.5"/>
<text text-anchor="middle" x="228.5" y="-7.5" font-family="Helvetica,sans-Serif" font-size="10.00">icns.cpp</text>
</a>
</g>
</g>
<!-- Node3&#45;&gt;Node4 -->
<g id="edge3" class="edge">
<title>Node3&#45;&gt;Node4</title>
<path fill="none" stroke="midnightblue" d="M101.2,-53.17C131.9,-43 175.42,-28.59 202.79,-19.52"/>
<polygon fill="midnightblue" stroke="midnightblue" points="99.72,-49.98 91.33,-56.44 101.92,-56.62 99.72,-49.98"/>
</g>
<!-- Node5&#45;&gt;Node4 -->
<g id="edge5" class="edge">
<title>Node5&#45;&gt;Node4</title>
<path fill="none" stroke="midnightblue" d="M183.54,-49.54C194.77,-39.91 208.82,-27.87 218.19,-19.83"/>
<polygon fill="midnightblue" stroke="midnightblue" points="180.94,-47.16 175.62,-56.32 185.49,-52.47 180.94,-47.16"/>
</g>
<!-- Node7 -->
<g id="node7" class="node">
<title>Node7</title>
<g id="a_node7"><a xlink:href="density_8_h.html" target="_top" xlink:title=" ">
<polygon fill="white" stroke="black" points="654.5,-112.5 654.5,-131.5 716.5,-131.5 716.5,-112.5 654.5,-112.5"/>
<text text-anchor="middle" x="685.5" y="-119.5" font-family="Helvetica,sans-Serif" font-size="10.00">density.H</text>
</a>
</g>
</g>
<!-- Node6&#45;&gt;Node7 -->
<g id="edge7" class="edge">
<title>Node6&#45;&gt;Node7</title>
<path fill="none" stroke="midnightblue" d="M862.84,-168.39C822.61,-158.09 755.84,-141 716.72,-130.99"/>
<polygon fill="midnightblue" stroke="midnightblue" points="862.15,-171.82 872.71,-170.91 863.89,-165.04 862.15,-171.82"/>
</g>
<!-- Node10 -->
<g id="node10" class="node">
<title>Node10</title>
<g id="a_node10"><a xlink:href="icns_8_h.html" target="_top" xlink:title=" ">
<polygon fill="white" stroke="black" points="271,-112.5 271,-131.5 318,-131.5 318,-112.5 271,-112.5"/>
<text text-anchor="middle" x="294.5" y="-119.5" font-family="Helvetica,sans-Serif" font-size="10.00">icns.H</text>
</a>
</g>
</g>
<!-- Node6&#45;&gt;Node10 -->
<g id="edge11" class="edge">
<title>Node6&#45;&gt;Node10</title>
<path fill="none" stroke="midnightblue" d="M862.79,-173.98C753.65,-164.19 411.64,-133.51 318.26,-125.13"/>
<polygon fill="midnightblue" stroke="midnightblue" points="862.63,-177.48 872.9,-174.88 863.25,-170.5 862.63,-177.48"/>
</g>
<!-- Node15 -->
<g id="node15" class="node">
<title>Node15</title>
<g id="a_node15"><a xlink:href="levelset_8_h.html" target="_top" xlink:title=" ">
<polygon fill="white" stroke="black" points="796.5,-112.5 796.5,-131.5 862.5,-131.5 862.5,-112.5 796.5,-112.5"/>
<text text-anchor="middle" x="829.5" y="-119.5" font-family="Helvetica,sans-Serif" font-size="10.00">levelset.H</text>
</a>
</g>
</g>
<!-- Node6&#45;&gt;Node15 -->
<g id="edge21" class="edge">
<title>Node6&#45;&gt;Node15</title>
<path fill="none" stroke="midnightblue" d="M877.67,-161.82C865.66,-152.15 850.53,-139.95 840.46,-131.83"/>
<polygon fill="midnightblue" stroke="midnightblue" points="875.75,-164.77 885.74,-168.32 880.15,-159.32 875.75,-164.77"/>
</g>
<!-- Node18 -->
<g id="node18" class="node">
<title>Node18</title>
<g id="a_node18"><a xlink:href="_s_d_r_8_h.html" target="_top" xlink:title=" ">
<polygon fill="white" stroke="black" points="970,-112.5 970,-131.5 1017,-131.5 1017,-112.5 970,-112.5"/>
<text text-anchor="middle" x="993.5" y="-119.5" font-family="Helvetica,sans-Serif" font-size="10.00">SDR.H</text>
</a>
</g>
</g>
<!-- Node6&#45;&gt;Node18 -->
<g id="edge25" class="edge">
<title>Node6&#45;&gt;Node18</title>
<path fill="none" stroke="midnightblue" d="M920.84,-163.45C938.74,-153.48 962.55,-140.23 977.95,-131.65"/>
<polygon fill="midnightblue" stroke="midnightblue" points="919.12,-160.4 912.08,-168.32 922.52,-166.52 919.12,-160.4"/>
</g>
<!-- Node24 -->
<g id="node24" class="node">
<title>Node24</title>
<g id="a_node24"><a xlink:href="temperature_8_h.html" target="_top" xlink:title=" ">
<polygon fill="white" stroke="black" points="1399.5,-112.5 1399.5,-131.5 1487.5,-131.5 1487.5,-112.5 1399.5,-112.5"/>
<text text-anchor="middle" x="1443.5" y="-119.5" font-family="Helvetica,sans-Serif" font-size="10.00">temperature.H</text>
</a>
</g>
</g>
<!-- Node6&#45;&gt;Node24 -->
<g id="edge34" class="edge">
<title>Node6&#45;&gt;Node24</title>
<path fill="none" stroke="midnightblue" d="M930.15,-173.68C1024.78,-164.34 1293.2,-137.84 1399.43,-127.35"/>
<polygon fill="midnightblue" stroke="midnightblue" points="929.61,-170.21 920,-174.68 930.3,-177.18 929.61,-170.21"/>
</g>
<!-- Node26 -->
<g id="node26" class="node">
<title>Node26</title>
<g id="a_node26"><a xlink:href="_t_k_e_8_h.html" target="_top" xlink:title=" ">
<polygon fill="white" stroke="black" points="1223.5,-112.5 1223.5,-131.5 1269.5,-131.5 1269.5,-112.5 1223.5,-112.5"/>
<text text-anchor="middle" x="1246.5" y="-119.5" font-family="Helvetica,sans-Serif" font-size="10.00">TKE.H</text>
</a>
</g>
</g>
<!-- Node6&#45;&gt;Node26 -->
<g id="edge36" class="edge">
<title>Node6&#45;&gt;Node26</title>
<path fill="none" stroke="midnightblue" d="M930.12,-171.81C1000.66,-160.93 1162.56,-135.95 1223.09,-126.61"/>
<polygon fill="midnightblue" stroke="midnightblue" points="929.36,-168.39 920.01,-173.37 930.42,-175.31 929.36,-168.39"/>
</g>
<!-- Node30 -->
<g id="node30" class="node">
<title>Node30</title>
<g id="a_node30"><a xlink:href="vof_8_h.html" target="_top" xlink:title=" ">
<polygon fill="white" stroke="black" points="1687.5,-112.5 1687.5,-131.5 1729.5,-131.5 1729.5,-112.5 1687.5,-112.5"/>
<text text-anchor="middle" x="1708.5" y="-119.5" font-family="Helvetica,sans-Serif" font-size="10.00">vof.H</text>
</a>
</g>
</g>
<!-- Node6&#45;&gt;Node30 -->
<g id="edge44" class="edge">
<title>Node6&#45;&gt;Node30</title>
<path fill="none" stroke="midnightblue" d="M930.68,-174.73C1067.94,-165.6 1576.98,-131.75 1687.31,-124.41"/>
<polygon fill="midnightblue" stroke="midnightblue" points="930.11,-171.26 920.36,-175.41 930.57,-178.24 930.11,-171.26"/>
</g>
<!-- Node8 -->
<g id="node8" class="node">
<title>Node8</title>
<g id="a_node8"><a xlink:href="density_8cpp.html" target="_top" xlink:title=" ">
<polygon fill="white" stroke="black" points="604,-0.5 604,-19.5 675,-19.5 675,-0.5 604,-0.5"/>
<text text-anchor="middle" x="639.5" y="-7.5" font-family="Helvetica,sans-Serif" font-size="10.00">density.cpp</text>
</a>
</g>
</g>
<!-- Node7&#45;&gt;Node8 -->
<g id="edge8" class="edge">
<title>Node7&#45;&gt;Node8</title>
<path fill="none" stroke="midnightblue" d="M661.13,-106.73C650.55,-99.09 639.28,-88.64 633.5,-76 625.02,-57.45 631.43,-32.85 635.99,-19.88"/>
<polygon fill="midnightblue" stroke="midnightblue" points="659.46,-109.82 669.72,-112.47 663.35,-104 659.46,-109.82"/>
</g>
<!-- Node9 -->
<g id="node9" class="node">
<title>Node9</title>
<g id="a_node9"><a xlink:href="density__ops_8_h.html" target="_top" xlink:title=" ">
<polygon fill="white" stroke="black" points="642.5,-56.5 642.5,-75.5 728.5,-75.5 728.5,-56.5 642.5,-56.5"/>
<text text-anchor="middle" x="685.5" y="-63.5" font-family="Helvetica,sans-Serif" font-size="10.00">density_ops.H</text>
</a>
</g>
</g>
<!-- Node7&#45;&gt;Node9 -->
<g id="edge9" class="edge">
<title>Node7&#45;&gt;Node9</title>
<path fill="none" stroke="midnightblue" d="M685.5,-101.8C685.5,-92.91 685.5,-82.78 685.5,-75.75"/>
<polygon fill="midnightblue" stroke="midnightblue" points="682,-102.08 685.5,-112.08 689,-102.08 682,-102.08"/>
</g>
<!-- Node9&#45;&gt;Node8 -->
<g id="edge10" class="edge">
<title>Node9&#45;&gt;Node8</title>
<path fill="none" stroke="midnightblue" d="M671.39,-48.43C663.32,-38.97 653.54,-27.48 646.95,-19.75"/>
<polygon fill="midnightblue" stroke="midnightblue" points="668.75,-50.74 677.9,-56.08 674.08,-46.2 668.75,-50.74"/>
</g>
<!-- Node10&#45;&gt;Node3 -->
<g id="edge18" class="edge">
<title>Node10&#45;&gt;Node3</title>
<path fill="none" stroke="midnightblue" d="M261,-113.1C218.51,-103.08 145.51,-85.87 101.75,-75.55"/>
<polygon fill="midnightblue" stroke="midnightblue" points="260.32,-116.54 270.86,-115.42 261.93,-109.72 260.32,-116.54"/>
</g>
<!-- Node10&#45;&gt;Node4 -->
<g id="edge12" class="edge">
<title>Node10&#45;&gt;Node4</title>
<path fill="none" stroke="midnightblue" d="M274.55,-106.03C265.14,-98.04 254.48,-87.5 247.5,-76 236.39,-57.71 231.48,-32.57 229.56,-19.57"/>
<polygon fill="midnightblue" stroke="midnightblue" points="272.39,-108.78 282.36,-112.34 276.79,-103.33 272.39,-108.78"/>
</g>
<!-- Node10&#45;&gt;Node5 -->
<g id="edge19" class="edge">
<title>Node10&#45;&gt;Node5</title>
<path fill="none" stroke="midnightblue" d="M264.65,-108.5C240.46,-98.38 207.04,-84.39 185.84,-75.52"/>
<polygon fill="midnightblue" stroke="midnightblue" points="263.48,-111.81 274.06,-112.44 266.19,-105.35 263.48,-111.81"/>
</g>
<!-- Node11 -->
<g id="node11" class="node">
<title>Node11</title>
<g id="a_node11"><a xlink:href="icns__advection_8_h.html" target="_top" xlink:title=" ">
<polygon fill="white" stroke="black" points="350.5,-56.5 350.5,-75.5 450.5,-75.5 450.5,-56.5 350.5,-56.5"/>
<text text-anchor="middle" x="400.5" y="-63.5" font-family="Helvetica,sans-Serif" font-size="10.00">icns_advection.H</text>
</a>
</g>
</g>
<!-- Node10&#45;&gt;Node11 -->
<g id="edge13" class="edge">
<title>Node10&#45;&gt;Node11</title>
<path fill="none" stroke="midnightblue" d="M320.56,-107.73C340.18,-97.73 366.53,-84.31 383.51,-75.65"/>
<polygon fill="midnightblue" stroke="midnightblue" points="318.85,-104.67 311.53,-112.32 322.03,-110.9 318.85,-104.67"/>
</g>
<!-- Node13 -->
<g id="node13" class="node">
<title>Node13</title>
<g id="a_node13"><a xlink:href="icns__bcop_8_h.html" target="_top" xlink:title=" ">
<polygon fill="white" stroke="black" points="257,-56.5 257,-75.5 332,-75.5 332,-56.5 257,-56.5"/>
<text text-anchor="middle" x="294.5" y="-63.5" font-family="Helvetica,sans-Serif" font-size="10.00">icns_bcop.H</text>
</a>
</g>
</g>
<!-- Node10&#45;&gt;Node13 -->
<g id="edge16" class="edge">
<title>Node10&#45;&gt;Node13</title>
<path fill="none" stroke="midnightblue" d="M294.5,-101.8C294.5,-92.91 294.5,-82.78 294.5,-75.75"/>
<polygon fill="midnightblue" stroke="midnightblue" points="291,-102.08 294.5,-112.08 298,-102.08 291,-102.08"/>
</g>
<!-- Node14 -->
<g id="node14" class="node">
<title>Node14</title>
<g id="a_node14"><a xlink:href="_power_law_profile_8cpp.html" target="_top" xlink:title=" ">
<polygon fill="white" stroke="black" points="469,-56.5 469,-75.5 586,-75.5 586,-56.5 469,-56.5"/>
<text text-anchor="middle" x="527.5" y="-63.5" font-family="Helvetica,sans-Serif" font-size="10.00">PowerLawProfile.cpp</text>
</a>
</g>
</g>
<!-- Node10&#45;&gt;Node14 -->
<g id="edge20" class="edge">
<title>Node10&#45;&gt;Node14</title>
<path fill="none" stroke="midnightblue" d="M328.11,-113.21C371.22,-103.22 445.75,-85.95 490.46,-75.59"/>
<polygon fill="midnightblue" stroke="midnightblue" points="327.08,-109.86 318.12,-115.53 328.66,-116.68 327.08,-109.86"/>
</g>
<!-- Node11&#45;&gt;Node4 -->
<g id="edge14" class="edge">
<title>Node11&#45;&gt;Node4</title>
<path fill="none" stroke="midnightblue" d="M363.67,-53.44C331.24,-43.26 284.76,-28.66 255.63,-19.52"/>
<polygon fill="midnightblue" stroke="midnightblue" points="362.66,-56.79 373.25,-56.44 364.75,-50.11 362.66,-56.79"/>
</g>
<!-- Node12 -->
<g id="node12" class="node">
<title>Node12</title>
<g id="a_node12"><a xlink:href="icns__advection_8cpp.html" target="_top" xlink:title=" ">
<polygon fill="white" stroke="black" points="345.5,-0.5 345.5,-19.5 455.5,-19.5 455.5,-0.5 345.5,-0.5"/>
<text text-anchor="middle" x="400.5" y="-7.5" font-family="Helvetica,sans-Serif" font-size="10.00">icns_advection.cpp</text>
</a>
</g>
</g>
<!-- Node11&#45;&gt;Node12 -->
<g id="edge15" class="edge">
<title>Node11&#45;&gt;Node12</title>
<path fill="none" stroke="midnightblue" d="M400.5,-45.8C400.5,-36.91 400.5,-26.78 400.5,-19.75"/>
<polygon fill="midnightblue" stroke="midnightblue" points="397,-46.08 400.5,-56.08 404,-46.08 397,-46.08"/>
</g>
<!-- Node13&#45;&gt;Node4 -->
<g id="edge17" class="edge">
<title>Node13&#45;&gt;Node4</title>
<path fill="none" stroke="midnightblue" d="M275.95,-49.82C264.12,-40.15 249.21,-27.95 239.3,-19.83"/>
<polygon fill="midnightblue" stroke="midnightblue" points="273.94,-52.7 283.9,-56.32 278.37,-47.28 273.94,-52.7"/>
</g>
<!-- Node16 -->
<g id="node16" class="node">
<title>Node16</title>
<g id="a_node16"><a xlink:href="levelset_8cpp.html" target="_top" xlink:title=" ">
<polygon fill="white" stroke="black" points="748.5,-0.5 748.5,-19.5 824.5,-19.5 824.5,-0.5 748.5,-0.5"/>
<text text-anchor="middle" x="786.5" y="-7.5" font-family="Helvetica,sans-Serif" font-size="10.00">levelset.cpp</text>
</a>
</g>
</g>
<!-- Node15&#45;&gt;Node16 -->
<g id="edge22" class="edge">
<title>Node15&#45;&gt;Node16</title>
<path fill="none" stroke="midnightblue" d="M804.32,-107C793.31,-99.4 781.54,-88.91 775.5,-76 766.76,-57.34 775.75,-32.79 781.86,-19.85"/>
<polygon fill="midnightblue" stroke="midnightblue" points="802.56,-110.03 812.87,-112.46 806.33,-104.13 802.56,-110.03"/>
</g>
<!-- Node17 -->
<g id="node17" class="node">
<title>Node17</title>
<g id="a_node17"><a xlink:href="levelset__ops_8_h.html" target="_top" xlink:title=" ">
<polygon fill="white" stroke="black" points="785,-56.5 785,-75.5 874,-75.5 874,-56.5 785,-56.5"/>
<text text-anchor="middle" x="829.5" y="-63.5" font-family="Helvetica,sans-Serif" font-size="10.00">levelset_ops.H</text>
</a>
</g>
</g>
<!-- Node15&#45;&gt;Node17 -->
<g id="edge23" class="edge">
<title>Node15&#45;&gt;Node17</title>
<path fill="none" stroke="midnightblue" d="M829.5,-101.8C829.5,-92.91 829.5,-82.78 829.5,-75.75"/>
<polygon fill="midnightblue" stroke="midnightblue" points="826,-102.08 829.5,-112.08 833,-102.08 826,-102.08"/>
</g>
<!-- Node17&#45;&gt;Node16 -->
<g id="edge24" class="edge">
<title>Node17&#45;&gt;Node16</title>
<path fill="none" stroke="midnightblue" d="M816.08,-48.14C808.59,-38.74 799.56,-27.4 793.47,-19.75"/>
<polygon fill="midnightblue" stroke="midnightblue" points="813.43,-50.44 822.4,-56.08 818.91,-46.08 813.43,-50.44"/>
</g>
<!-- Node19 -->
<g id="node19" class="node">
<title>Node19</title>
<g id="a_node19"><a xlink:href="_s_d_r_8cpp.html" target="_top" xlink:title=" ">
<polygon fill="white" stroke="black" points="904,-0.5 904,-19.5 961,-19.5 961,-0.5 904,-0.5"/>
<text text-anchor="middle" x="932.5" y="-7.5" font-family="Helvetica,sans-Serif" font-size="10.00">SDR.cpp</text>
</a>
</g>
</g>
<!-- Node18&#45;&gt;Node19 -->
<g id="edge26" class="edge">
<title>Node18&#45;&gt;Node19</title>
<path fill="none" stroke="midnightblue" d="M960.38,-109C945.7,-101.84 929.88,-91.12 921.5,-76 911.4,-57.78 921.22,-32.61 927.74,-19.59"/>
<polygon fill="midnightblue" stroke="midnightblue" points="959.22,-112.32 969.77,-113.21 962.08,-105.93 959.22,-112.32"/>
</g>
<!-- Node20 -->
<g id="node20" class="node">
<title>Node20</title>
<g id="a_node20"><a xlink:href="sdr__ops_8_h.html" target="_top" xlink:title=" ">
<polygon fill="white" stroke="black" points="931,-56.5 931,-75.5 996,-75.5 996,-56.5 931,-56.5"/>
<text text-anchor="middle" x="963.5" y="-63.5" font-family="Helvetica,sans-Serif" font-size="10.00">sdr_ops.H</text>
</a>
</g>
</g>
<!-- Node18&#45;&gt;Node20 -->
<g id="edge27" class="edge">
<title>Node18&#45;&gt;Node20</title>
<path fill="none" stroke="midnightblue" d="M983.65,-103.27C978.53,-94.05 972.48,-83.17 968.36,-75.75"/>
<polygon fill="midnightblue" stroke="midnightblue" points="980.63,-105.04 988.55,-112.08 986.75,-101.64 980.63,-105.04"/>
</g>
<!-- Node21 -->
<g id="node21" class="node">
<title>Node21</title>
<g id="a_node21"><a xlink:href="_k_omega_s_s_t_8cpp.html" target="_top" xlink:title=" ">
<polygon fill="white" stroke="black" points="1039,-0.5 1039,-19.5 1134,-19.5 1134,-0.5 1039,-0.5"/>
<text text-anchor="middle" x="1086.5" y="-7.5" font-family="Helvetica,sans-Serif" font-size="10.00">KOmegaSST.cpp</text>
</a>
</g>
</g>
<!-- Node18&#45;&gt;Node21 -->
<g id="edge29" class="edge">
<title>Node18&#45;&gt;Node21</title>
<path fill="none" stroke="midnightblue" d="M1005.71,-104.12C1015.56,-90.76 1029.94,-71.8 1043.5,-56 1054.76,-42.88 1068.74,-28.58 1077.64,-19.7"/>
<polygon fill="midnightblue" stroke="midnightblue" points="1002.77,-102.22 999.69,-112.36 1008.42,-106.35 1002.77,-102.22"/>
</g>
<!-- Node22 -->
<g id="node22" class="node">
<title>Node22</title>
<g id="a_node22"><a xlink:href="_k_omega_s_s_t_i_8_h.html" target="_top" xlink:title=" ">
<polygon fill="white" stroke="black" points="1053,-56.5 1053,-75.5 1142,-75.5 1142,-56.5 1053,-56.5"/>
<text text-anchor="middle" x="1097.5" y="-63.5" font-family="Helvetica,sans-Serif" font-size="10.00">KOmegaSSTI.H</text>
</a>
</g>
</g>
<!-- Node18&#45;&gt;Node22 -->
<g id="edge30" class="edge">
<title>Node18&#45;&gt;Node22</title>
<path fill="none" stroke="midnightblue" d="M1019.33,-107.59C1038.56,-97.61 1064.24,-84.27 1080.83,-75.65"/>
<polygon fill="midnightblue" stroke="midnightblue" points="1017.47,-104.61 1010.21,-112.32 1020.7,-110.82 1017.47,-104.61"/>
</g>
<!-- Node23 -->
<g id="node23" class="node">
<title>Node23</title>
<g id="a_node23"><a xlink:href="_k_omega_s_s_t_i_d_d_e_s_8cpp.html" target="_top" xlink:title=" ">
<polygon fill="white" stroke="black" points="1152.5,-0.5 1152.5,-19.5 1278.5,-19.5 1278.5,-0.5 1152.5,-0.5"/>
<text text-anchor="middle" x="1215.5" y="-7.5" font-family="Helvetica,sans-Serif" font-size="10.00">KOmegaSSTIDDES.cpp</text>
</a>
</g>
</g>
<!-- Node18&#45;&gt;Node23 -->
<g id="edge33" class="edge">
<title>Node18&#45;&gt;Node23</title>
<path fill="none" stroke="midnightblue" d="M1027.14,-116.4C1060.33,-110.74 1111.59,-98.92 1150.5,-76 1176.08,-60.94 1198.8,-33.45 1209.32,-19.54"/>
<polygon fill="midnightblue" stroke="midnightblue" points="1026.36,-112.98 1017.04,-118.02 1027.47,-119.89 1026.36,-112.98"/>
</g>
<!-- Node20&#45;&gt;Node19 -->
<g id="edge28" class="edge">
<title>Node20&#45;&gt;Node19</title>
<path fill="none" stroke="midnightblue" d="M953.32,-47.27C948.03,-38.05 941.78,-27.17 937.52,-19.75"/>
<polygon fill="midnightblue" stroke="midnightblue" points="950.37,-49.15 958.38,-56.08 956.44,-45.67 950.37,-49.15"/>
</g>
<!-- Node22&#45;&gt;Node21 -->
<g id="edge31" class="edge">
<title>Node22&#45;&gt;Node21</title>
<path fill="none" stroke="midnightblue" d="M1093.65,-46.1C1091.82,-37.14 1089.73,-26.86 1088.28,-19.75"/>
<polygon fill="midnightblue" stroke="midnightblue" points="1090.26,-46.98 1095.68,-56.08 1097.12,-45.59 1090.26,-46.98"/>
</g>
<!-- Node22&#45;&gt;Node23 -->
<g id="edge32" class="edge">
<title>Node22&#45;&gt;Node23</title>
<path fill="none" stroke="midnightblue" d="M1125.4,-52.23C1147.47,-42.13 1177.68,-28.31 1196.89,-19.52"/>
<polygon fill="midnightblue" stroke="midnightblue" points="1123.83,-49.1 1116.2,-56.44 1126.75,-55.46 1123.83,-49.1"/>
</g>
<!-- Node25 -->
<g id="node25" class="node">
<title>Node25</title>
<g id="a_node25"><a xlink:href="temperature_8cpp.html" target="_top" xlink:title=" ">
<polygon fill="white" stroke="black" points="1506.5,-56.5 1506.5,-75.5 1604.5,-75.5 1604.5,-56.5 1506.5,-56.5"/>
<text text-anchor="middle" x="1555.5" y="-63.5" font-family="Helvetica,sans-Serif" font-size="10.00">temperature.cpp</text>
</a>
</g>
</g>
<!-- Node24&#45;&gt;Node25 -->
<g id="edge35" class="edge">
<title>Node24&#45;&gt;Node25</title>
<path fill="none" stroke="midnightblue" d="M1470.75,-107.86C1491.52,-97.85 1519.52,-84.35 1537.55,-75.65"/>
<polygon fill="midnightblue" stroke="midnightblue" points="1468.98,-104.83 1461.49,-112.32 1472.02,-111.13 1468.98,-104.83"/>
</g>
<!-- Node26&#45;&gt;Node21 -->
<g id="edge41" class="edge">
<title>Node26&#45;&gt;Node21</title>
<path fill="none" stroke="midnightblue" d="M1225.29,-106.42C1191.45,-83.15 1126.28,-38.35 1099,-19.59"/>
<polygon fill="midnightblue" stroke="midnightblue" points="1223.72,-109.59 1233.95,-112.37 1227.69,-103.82 1223.72,-109.59"/>
</g>
<!-- Node26&#45;&gt;Node22 -->
<g id="edge42" class="edge">
<title>Node26&#45;&gt;Node22</title>
<path fill="none" stroke="midnightblue" d="M1213.47,-109.03C1185.48,-98.89 1146.02,-84.59 1121.11,-75.56"/>
<polygon fill="midnightblue" stroke="midnightblue" points="1212.62,-112.45 1223.22,-112.56 1215.01,-105.86 1212.62,-112.45"/>
</g>
<!-- Node26&#45;&gt;Node23 -->
<g id="edge43" class="edge">
<title>Node26&#45;&gt;Node23</title>
<path fill="none" stroke="midnightblue" d="M1241.34,-102.67C1234.56,-78.62 1222.94,-37.39 1217.92,-19.59"/>
<polygon fill="midnightblue" stroke="midnightblue" points="1237.99,-103.69 1244.07,-112.37 1244.72,-101.79 1237.99,-103.69"/>
</g>
<!-- Node27 -->
<g id="node27" class="node">
<title>Node27</title>
<g id="a_node27"><a xlink:href="_t_k_e_8cpp.html" target="_top" xlink:title=" ">
<polygon fill="white" stroke="black" points="1303.5,-0.5 1303.5,-19.5 1359.5,-19.5 1359.5,-0.5 1303.5,-0.5"/>
<text text-anchor="middle" x="1331.5" y="-7.5" font-family="Helvetica,sans-Serif" font-size="10.00">TKE.cpp</text>
</a>
</g>
</g>
<!-- Node26&#45;&gt;Node27 -->
<g id="edge37" class="edge">
<title>Node26&#45;&gt;Node27</title>
<path fill="none" stroke="midnightblue" d="M1259.43,-104.27C1277.8,-80.49 1310.8,-37.79 1324.86,-19.59"/>
<polygon fill="midnightblue" stroke="midnightblue" points="1256.51,-102.32 1253.17,-112.37 1262.05,-106.6 1256.51,-102.32"/>
</g>
<!-- Node28 -->
<g id="node28" class="node">
<title>Node28</title>
<g id="a_node28"><a xlink:href="tke__ops_8_h.html" target="_top" xlink:title=" ">
<polygon fill="white" stroke="black" points="1313,-56.5 1313,-75.5 1378,-75.5 1378,-56.5 1313,-56.5"/>
<text text-anchor="middle" x="1345.5" y="-63.5" font-family="Helvetica,sans-Serif" font-size="10.00">tke_ops.H</text>
</a>
</g>
</g>
<!-- Node26&#45;&gt;Node28 -->
<g id="edge38" class="edge">
<title>Node26&#45;&gt;Node28</title>
<path fill="none" stroke="midnightblue" d="M1271.34,-107.45C1289.61,-97.48 1313.92,-84.23 1329.63,-75.65"/>
<polygon fill="midnightblue" stroke="midnightblue" points="1269.51,-104.46 1262.41,-112.32 1272.86,-110.61 1269.51,-104.46"/>
</g>
<!-- Node29 -->
<g id="node29" class="node">
<title>Node29</title>
<g id="a_node29"><a xlink:href="_one_eq_ksgs_8cpp.html" target="_top" xlink:title=" ">
<polygon fill="white" stroke="black" points="1396.5,-56.5 1396.5,-75.5 1488.5,-75.5 1488.5,-56.5 1396.5,-56.5"/>
<text text-anchor="middle" x="1442.5" y="-63.5" font-family="Helvetica,sans-Serif" font-size="10.00">OneEqKsgs.cpp</text>
</a>
</g>
</g>
<!-- Node26&#45;&gt;Node29 -->
<g id="edge40" class="edge">
<title>Node26&#45;&gt;Node29</title>
<path fill="none" stroke="midnightblue" d="M1279.52,-111.9C1316.37,-101.75 1375.55,-85.45 1411.54,-75.53"/>
<polygon fill="midnightblue" stroke="midnightblue" points="1278.46,-108.56 1269.75,-114.59 1280.32,-115.31 1278.46,-108.56"/>
</g>
<!-- Node28&#45;&gt;Node27 -->
<g id="edge39" class="edge">
<title>Node28&#45;&gt;Node27</title>
<path fill="none" stroke="midnightblue" d="M1340.68,-46.4C1338.33,-37.36 1335.63,-26.94 1333.77,-19.75"/>
<polygon fill="midnightblue" stroke="midnightblue" points="1337.29,-47.28 1343.19,-56.08 1344.07,-45.52 1337.29,-47.28"/>
</g>
<!-- Node31 -->
<g id="node31" class="node">
<title>Node31</title>
<g id="a_node31"><a xlink:href="vof_8cpp.html" target="_top" xlink:title=" ">
<polygon fill="white" stroke="black" points="1733.5,-0.5 1733.5,-19.5 1785.5,-19.5 1785.5,-0.5 1733.5,-0.5"/>
<text text-anchor="middle" x="1759.5" y="-7.5" font-family="Helvetica,sans-Serif" font-size="10.00">vof.cpp</text>
</a>
</g>
</g>
<!-- Node30&#45;&gt;Node31 -->
<g id="edge45" class="edge">
<title>Node30&#45;&gt;Node31</title>
<path fill="none" stroke="midnightblue" d="M1682.18,-107.26C1661.7,-94.67 1638.74,-75.15 1651.5,-56 1669.64,-28.79 1707.68,-18.01 1733.41,-13.75"/>
<polygon fill="midnightblue" stroke="midnightblue" points="1680.58,-110.37 1690.99,-112.36 1684.09,-104.32 1680.58,-110.37"/>
</g>
<!-- Node32 -->
<g id="node32" class="node">
<title>Node32</title>
<g id="a_node32"><a xlink:href="vof__advection_8_h.html" target="_top" xlink:title=" ">
<polygon fill="white" stroke="black" points="1660.5,-56.5 1660.5,-75.5 1756.5,-75.5 1756.5,-56.5 1660.5,-56.5"/>
<text text-anchor="middle" x="1708.5" y="-63.5" font-family="Helvetica,sans-Serif" font-size="10.00">vof_advection.H</text>
</a>
</g>
</g>
<!-- Node30&#45;&gt;Node32 -->
<g id="edge46" class="edge">
<title>Node30&#45;&gt;Node32</title>
<path fill="none" stroke="midnightblue" d="M1708.5,-101.8C1708.5,-92.91 1708.5,-82.78 1708.5,-75.75"/>
<polygon fill="midnightblue" stroke="midnightblue" points="1705,-102.08 1708.5,-112.08 1712,-102.08 1705,-102.08"/>
</g>
<!-- Node33 -->
<g id="node33" class="node">
<title>Node33</title>
<g id="a_node33"><a xlink:href="vof__bcop_8_h.html" target="_top" xlink:title=" ">
<polygon fill="white" stroke="black" points="1775,-56.5 1775,-75.5 1846,-75.5 1846,-56.5 1775,-56.5"/>
<text text-anchor="middle" x="1810.5" y="-63.5" font-family="Helvetica,sans-Serif" font-size="10.00">vof_bcop.H</text>
</a>
</g>
</g>
<!-- Node30&#45;&gt;Node33 -->
<g id="edge48" class="edge">
<title>Node30&#45;&gt;Node33</title>
<path fill="none" stroke="midnightblue" d="M1733.83,-107.59C1752.69,-97.61 1777.88,-84.27 1794.15,-75.65"/>
<polygon fill="midnightblue" stroke="midnightblue" points="1732.09,-104.55 1724.89,-112.32 1735.36,-110.74 1732.09,-104.55"/>
</g>
<!-- Node34 -->
<g id="node34" class="node">
<title>Node34</title>
<g id="a_node34"><a xlink:href="vof__ops_8_h.html" target="_top" xlink:title=" ">
<polygon fill="white" stroke="black" points="1864,-56.5 1864,-75.5 1929,-75.5 1929,-56.5 1864,-56.5"/>
<text text-anchor="middle" x="1896.5" y="-63.5" font-family="Helvetica,sans-Serif" font-size="10.00">vof_ops.H</text>
</a>
</g>
</g>
<!-- Node30&#45;&gt;Node34 -->
<g id="edge50" class="edge">
<title>Node30&#45;&gt;Node34</title>
<path fill="none" stroke="midnightblue" d="M1739.46,-112.11C1774.73,-101.98 1831.97,-85.53 1866.74,-75.55"/>
<polygon fill="midnightblue" stroke="midnightblue" points="1738.35,-108.79 1729.7,-114.91 1740.28,-115.51 1738.35,-108.79"/>
</g>
<!-- Node32&#45;&gt;Node31 -->
<g id="edge47" class="edge">
<title>Node32&#45;&gt;Node31</title>
<path fill="none" stroke="midnightblue" d="M1723.88,-48.72C1732.87,-39.2 1743.86,-27.56 1751.24,-19.75"/>
<polygon fill="midnightblue" stroke="midnightblue" points="1721.24,-46.41 1716.92,-56.08 1726.33,-51.22 1721.24,-46.41"/>
</g>
<!-- Node33&#45;&gt;Node31 -->
<g id="edge49" class="edge">
<title>Node33&#45;&gt;Node31</title>
<path fill="none" stroke="midnightblue" d="M1795.12,-48.72C1786.13,-39.2 1775.14,-27.56 1767.76,-19.75"/>
<polygon fill="midnightblue" stroke="midnightblue" points="1792.67,-51.22 1802.08,-56.08 1797.76,-46.41 1792.67,-51.22"/>
</g>
<!-- Node34&#45;&gt;Node31 -->
<g id="edge51" class="edge">
<title>Node34&#45;&gt;Node31</title>
<path fill="none" stroke="midnightblue" d="M1865.48,-52.77C1839.74,-42.63 1803.81,-28.47 1781.11,-19.52"/>
<polygon fill="midnightblue" stroke="midnightblue" points="1864.21,-56.03 1874.79,-56.44 1866.77,-49.52 1864.21,-56.03"/>
</g>
</g>
</svg>
        <g id="navigator" transform="translate(0 0)" fill="#404254">
                <rect fill="#f2f5e9" fill-opacity="0.5" stroke="#606060" stroke-width=".5" x="0" y="0" width="60" height="60"/>
                <use id="zoomplus" xlink:href="#zoomPlus" x="17" y="9" onmousedown="handleZoom(evt,'in')"/>
                <use id="zoomminus" xlink:href="#zoomMin" x="42" y="9" onmousedown="handleZoom(evt,'out')"/>
                <use id="reset" xlink:href="#resetDef" x="30" y="36" onmousedown="handleReset()"/>
                <g id="arrowUp" xlink:href="#dirArrow" transform="translate(30 24)" onmousedown="handlePan(0,-1)">
                  <use xlink:href="#rim" fill="#404040">
                        <set attributeName="fill" to="#808080" begin="arrowUp.mouseover" end="arrowUp.mouseout"/>
                  </use>
                  <path fill="none" stroke="white" stroke-width="1.5" d="M0,-3.0v7 M-2.5,-0.5L0,-3.0L2.5,-0.5"/>
                </g>
                <g id="arrowRight" xlink:href="#dirArrow" transform="rotate(90) translate(36 -43)" onmousedown="handlePan(1,0)">
                  <use xlink:href="#rim" fill="#404040">
                        <set attributeName="fill" to="#808080" begin="arrowRight.mouseover" end="arrowRight.mouseout"/>
                  </use>
                  <path fill="none" stroke="white" stroke-width="1.5" d="M0,-3.0v7 M-2.5,-0.5L0,-3.0L2.5,-0.5"/>
                </g>
                <g id="arrowDown" xlink:href="#dirArrow" transform="rotate(180) translate(-30 -48)" onmousedown="handlePan(0,1)">
                  <use xlink:href="#rim" fill="#404040">
                        <set attributeName="fill" to="#808080" begin="arrowDown.mouseover" end="arrowDown.mouseout"/>
                  </use>
                  <path fill="none" stroke="white" stroke-width="1.5" d="M0,-3.0v7 M-2.5,-0.5L0,-3.0L2.5,-0.5"/>
                </g>
                <g id="arrowLeft" xlink:href="#dirArrow" transform="rotate(270) translate(-36 17)" onmousedown="handlePan(-1,0)">
                  <use xlink:href="#rim" fill="#404040">
                        <set attributeName="fill" to="#808080" begin="arrowLeft.mouseover" end="arrowLeft.mouseout"/>
                  </use>
                  <path fill="none" stroke="white" stroke-width="1.5" d="M0,-3.0v7 M-2.5,-0.5L0,-3.0L2.5,-0.5"/>
                </g>
        </g>
        <svg viewBox="0 0 15 15" width="100%" height="30px" preserveAspectRatio="xMaxYMin meet">
         <g id="arrow_out" transform="scale(0.3 0.3)">
          <a xlink:href="_diffusion_ops_8_h__dep__incl_org.svg" target="_base">
           <rect id="button" ry="5" rx="5" y="6" x="6" height="38" width="38"
                fill="#f2f5e9" fill-opacity="0.5" stroke="#606060" stroke-width="1.0"/>
           <path id="arrow"
             d="M 11.500037,31.436501 C 11.940474,20.09759 22.043105,11.32322 32.158766,21.979434 L 37.068811,17.246167 C 37.068811,17.246167 37.088388,32 37.088388,32 L 22.160133,31.978069 C 22.160133,31.978069 26.997745,27.140456 26.997745,27.140456 C 18.528582,18.264221 13.291696,25.230495 11.500037,31.436501 z"
             style="fill:#404040;"/>
          </a>
         </g>
        </svg>
</svg>
