<?xml version="1.0" encoding="UTF-8" standalone="no"?>
<!DOCTYPE svg PUBLIC "-//W3C//DTD SVG 1.1//EN"
 "http://www.w3.org/Graphics/SVG/1.1/DTD/svg11.dtd">
<!-- Generated by graphviz version 2.43.0 (0)
 -->
<!-- Title: Field.H Pages: 1 -->
<!--zoomable 196 -->
<svg id="main" version="1.1" xmlns="http://www.w3.org/2000/svg" xmlns:xlink="http://www.w3.org/1999/xlink" xml:space="preserve" onload="init(evt)">
<style type="text/css"><![CDATA[
.edge:hover path { stroke: red; }
.edge:hover polygon { stroke: red; fill: red; }
]]></style>
<script type="text/javascript"><![CDATA[
var edges = document.getElementsByTagName('g');
if (edges && edges.length) {
  for (var i=0;i<edges.length;i++) {
    if (edges[i].id.substr(0,4)=='edge') {
      edges[i].setAttribute('class','edge');
    }
  }
}
]]></script>
        <defs>
                <circle id="rim" cx="0" cy="0" r="7"/>
                <circle id="rim2" cx="0" cy="0" r="3.5"/>
                <g id="zoomPlus">
                        <use xlink:href="#rim" fill="#404040">
                                <set attributeName="fill" to="#808080" begin="zoomplus.mouseover" end="zoomplus.mouseout"/>
                        </use>
                        <path d="M-4,0h8M0,-4v8" fill="none" stroke="white" stroke-width="1.5" pointer-events="none"/>
                </g>
                <g id="zoomMin">
                        <use xlink:href="#rim" fill="#404040">
                                <set attributeName="fill" to="#808080" begin="zoomminus.mouseover" end="zoomminus.mouseout"/>
                        </use>
                        <path d="M-4,0h8" fill="none" stroke="white" stroke-width="1.5" pointer-events="none"/>
                </g>
                <g id="dirArrow">
                        <path fill="none" stroke="white" stroke-width="1.5" d="M0,-3.0v7 M-2.5,-0.5L0,-3.0L2.5,-0.5"/>
                </g>
               <g id="resetDef">
                       <use xlink:href="#rim2" fill="#404040">
                               <set attributeName="fill" to="#808080" begin="reset.mouseover" end="reset.mouseout"/>
                       </use>
               </g>
        </defs>

<script type="text/javascript">
var viewWidth = 4680;
var viewHeight = 196;
var sectionId = 'dynsection-1';
</script>
<script xlink:href="svgpan.js"/>
<svg id="graph" class="graph">
<g id="viewport">
<title>Field.H</title>
<polygon fill="white" stroke="transparent" points="-4,4 -4,-192 4675.61,-192 4675.61,4 -4,4"/>
<!-- Node1 -->
<g id="node1" class="node">
<title>Node1</title>
<g id="a_node1"><a xlink:title=" ">
<polygon fill="#bfbfbf" stroke="black" points="2080.11,-168.5 2080.11,-187.5 2130.11,-187.5 2130.11,-168.5 2080.11,-168.5"/>
<text text-anchor="middle" x="2105.11" y="-175.5" font-family="Helvetica,sans-Serif" font-size="10.00">Field.H</text>
</a>
</g>
</g>
<!-- Node2 -->
<g id="node2" class="node">
<title>Node2</title>
<g id="a_node2"><a xlink:href="_b_c_interface_8_h.html" target="_top" xlink:title=" ">
<polygon fill="white" stroke="black" points="326.11,-112.5 326.11,-131.5 410.11,-131.5 410.11,-112.5 326.11,-112.5"/>
<text text-anchor="middle" x="368.11" y="-119.5" font-family="Helvetica,sans-Serif" font-size="10.00">BCInterface.H</text>
</a>
</g>
</g>
<!-- Node1&#45;&gt;Node2 -->
<g id="edge1" class="edge">
<title>Node1&#45;&gt;Node2</title>
<path fill="none" stroke="midnightblue" d="M2069.56,-176.15C1901.55,-172.11 1170.33,-154.07 571.11,-132 515.58,-129.95 451.54,-127.02 410.48,-125.06"/>
<polygon fill="midnightblue" stroke="midnightblue" points="2069.72,-179.66 2079.8,-176.4 2069.89,-172.66 2069.72,-179.66"/>
</g>
<!-- Node4 -->
<g id="node4" class="node">
<title>Node4</title>
<g id="a_node4"><a xlink:href="_field_8cpp.html" target="_top" xlink:title=" ">
<polygon fill="white" stroke="black" points="121.11,-0.5 121.11,-19.5 181.11,-19.5 181.11,-0.5 121.11,-0.5"/>
<text text-anchor="middle" x="151.11" y="-7.5" font-family="Helvetica,sans-Serif" font-size="10.00">Field.cpp</text>
</a>
</g>
</g>
<!-- Node1&#45;&gt;Node4 -->
<g id="edge6" class="edge">
<title>Node1&#45;&gt;Node4</title>
<path fill="none" stroke="midnightblue" d="M2070.05,-176.83C1809.11,-175.48 177.02,-165.73 79.11,-132 39.77,-118.45 22.75,-113.19 4.11,-76 -19.47,-28.98 71.37,-15.96 120.92,-12.37"/>
<polygon fill="midnightblue" stroke="midnightblue" points="2070.08,-180.33 2080.1,-176.88 2070.12,-173.33 2070.08,-180.33"/>
</g>
<!-- Node19 -->
<g id="node7" class="node">
<title>Node19</title>
<g id="a_node7"><a xlink:href="field__ops_8_h.html" target="_top" xlink:title=" ">
<polygon fill="white" stroke="red" points="965.61,-112.5 965.61,-131.5 1036.61,-131.5 1036.61,-112.5 965.61,-112.5"/>
<text text-anchor="middle" x="1001.11" y="-119.5" font-family="Helvetica,sans-Serif" font-size="10.00">field_ops.H</text>
</a>
</g>
</g>
<!-- Node1&#45;&gt;Node19 -->
<g id="edge7" class="edge">
<title>Node1&#45;&gt;Node19</title>
<path fill="none" stroke="midnightblue" d="M2069.89,-177.48C1935.98,-178.87 1445.89,-180.18 1046.11,-132 1043.1,-131.64 1039.99,-131.18 1036.89,-130.68"/>
<polygon fill="midnightblue" stroke="midnightblue" points="2070.01,-180.98 2079.97,-177.36 2069.93,-173.98 2070.01,-180.98"/>
</g>
<!-- Node45 -->
<g id="node11" class="node">
<title>Node45</title>
<g id="a_node11"><a xlink:href="_field_b_c_ops_8_h.html" target="_top" xlink:title=" ">
<polygon fill="white" stroke="red" points="109.61,-112.5 109.61,-131.5 192.61,-131.5 192.61,-112.5 109.61,-112.5"/>
<text text-anchor="middle" x="151.11" y="-119.5" font-family="Helvetica,sans-Serif" font-size="10.00">FieldBCOps.H</text>
</a>
</g>
</g>
<!-- Node1&#45;&gt;Node45 -->
<g id="edge12" class="edge">
<title>Node1&#45;&gt;Node45</title>
<path fill="none" stroke="midnightblue" d="M2069.73,-176.49C1886.08,-173.77 1022.87,-160.01 317.11,-132 274.71,-130.32 226.27,-127.6 192.7,-125.59"/>
<polygon fill="midnightblue" stroke="midnightblue" points="2069.84,-179.99 2079.89,-176.64 2069.94,-172.99 2069.84,-179.99"/>
</g>
<!-- Node49 -->
<g id="node12" class="node">
<title>Node49</title>
<g id="a_node12"><a xlink:href="_field_fill_patch_ops_8_h.html" target="_top" xlink:title=" ">
<polygon fill="white" stroke="red" points="13.11,-56.5 13.11,-75.5 123.11,-75.5 123.11,-56.5 13.11,-56.5"/>
<text text-anchor="middle" x="68.11" y="-63.5" font-family="Helvetica,sans-Serif" font-size="10.00">FieldFillPatchOps.H</text>
</a>
</g>
</g>
<!-- Node1&#45;&gt;Node49 -->
<g id="edge16" class="edge">
<title>Node1&#45;&gt;Node49</title>
<path fill="none" stroke="midnightblue" d="M2069.79,-176.71C1805.31,-174.51 143.33,-159.58 100.11,-132 80.17,-119.28 72.26,-90.19 69.46,-75.63"/>
<polygon fill="midnightblue" stroke="midnightblue" points="2069.95,-180.22 2079.98,-176.8 2070.01,-173.22 2069.95,-180.22"/>
</g>
<!-- Node93 -->
<g id="node13" class="node">
<title>Node93</title>
<g id="a_node13"><a xlink:href="_field_repo_8_h.html" target="_top" xlink:title=" ">
<polygon fill="white" stroke="red" points="719.61,-112.5 719.61,-131.5 794.61,-131.5 794.61,-112.5 719.61,-112.5"/>
<text text-anchor="middle" x="757.11" y="-119.5" font-family="Helvetica,sans-Serif" font-size="10.00">FieldRepo.H</text>
</a>
</g>
</g>
<!-- Node1&#45;&gt;Node93 -->
<g id="edge17" class="edge">
<title>Node1&#45;&gt;Node93</title>
<path fill="none" stroke="midnightblue" d="M2069.89,-176.43C1889.1,-173.4 1063.8,-158.34 809.11,-132 804.46,-131.52 799.6,-130.87 794.8,-130.15"/>
<polygon fill="midnightblue" stroke="midnightblue" points="2069.86,-179.93 2079.92,-176.6 2069.98,-172.93 2069.86,-179.93"/>
</g>
<!-- Node236 -->
<g id="node14" class="node">
<title>Node236</title>
<g id="a_node14"><a xlink:href="_view_field_8cpp.html" target="_top" xlink:title=" ">
<polygon fill="white" stroke="black" points="508.11,-56.5 508.11,-75.5 592.11,-75.5 592.11,-56.5 508.11,-56.5"/>
<text text-anchor="middle" x="550.11" y="-63.5" font-family="Helvetica,sans-Serif" font-size="10.00">ViewField.cpp</text>
</a>
</g>
</g>
<!-- Node1&#45;&gt;Node236 -->
<g id="edge27" class="edge">
<title>Node1&#45;&gt;Node236</title>
<path fill="none" stroke="midnightblue" d="M2069.68,-176.78C1863.27,-175.35 820.3,-166.49 682.11,-132 635.26,-120.31 585.64,-90.45 562.87,-75.62"/>
<polygon fill="midnightblue" stroke="midnightblue" points="2069.92,-180.28 2079.94,-176.85 2069.97,-173.28 2069.92,-180.28"/>
</g>
<!-- Node275 -->
<g id="node15" class="node">
<title>Node275</title>
<g id="a_node15"><a xlink:href="_linear_profile_8cpp.html" target="_top" xlink:title=" ">
<polygon fill="white" stroke="black" points="610.11,-56.5 610.11,-75.5 708.11,-75.5 708.11,-56.5 610.11,-56.5"/>
<text text-anchor="middle" x="659.11" y="-63.5" font-family="Helvetica,sans-Serif" font-size="10.00">LinearProfile.cpp</text>
</a>
</g>
</g>
<!-- Node1&#45;&gt;Node275 -->
<g id="edge47" class="edge">
<title>Node1&#45;&gt;Node275</title>
<path fill="none" stroke="midnightblue" d="M2069.87,-176.7C1859.14,-174.83 772.55,-163.63 710.11,-132 686.05,-119.81 669.82,-90.47 662.9,-75.74"/>
<polygon fill="midnightblue" stroke="midnightblue" points="2070.03,-180.2 2080.06,-176.79 2070.09,-173.21 2070.03,-180.2"/>
</g>
<!-- Node61 -->
<g id="node16" class="node">
<title>Node61</title>
<g id="a_node16"><a xlink:href="_power_law_profile_8cpp.html" target="_top" xlink:title=" ">
<polygon fill="white" stroke="black" points="764.61,-56.5 764.61,-75.5 881.61,-75.5 881.61,-56.5 764.61,-56.5"/>
<text text-anchor="middle" x="823.11" y="-63.5" font-family="Helvetica,sans-Serif" font-size="10.00">PowerLawProfile.cpp</text>
</a>
</g>
</g>
<!-- Node1&#45;&gt;Node61 -->
<g id="edge48" class="edge">
<title>Node1&#45;&gt;Node61</title>
<path fill="none" stroke="midnightblue" d="M2069.72,-176.76C1884.99,-175.37 1035.64,-167.11 924.11,-132 886.51,-120.17 849.38,-90.38 832.51,-75.59"/>
<polygon fill="midnightblue" stroke="midnightblue" points="2069.93,-180.26 2079.95,-176.84 2069.98,-173.26 2069.93,-180.26"/>
</g>
<!-- Node276 -->
<g id="node17" class="node">
<title>Node276</title>
<g id="a_node17"><a xlink:href="_u_d_f_8cpp.html" target="_top" xlink:title=" ">
<polygon fill="white" stroke="black" points="900.11,-56.5 900.11,-75.5 956.11,-75.5 956.11,-56.5 900.11,-56.5"/>
<text text-anchor="middle" x="928.11" y="-63.5" font-family="Helvetica,sans-Serif" font-size="10.00">UDF.cpp</text>
</a>
</g>
</g>
<!-- Node1&#45;&gt;Node276 -->
<g id="edge49" class="edge">
<title>Node1&#45;&gt;Node276</title>
<path fill="none" stroke="midnightblue" d="M2069.89,-176.88C1879.74,-176.07 982.63,-170.24 939.11,-132 923.11,-117.95 924.55,-90 926.54,-75.77"/>
<polygon fill="midnightblue" stroke="midnightblue" points="2069.89,-180.38 2079.9,-176.92 2069.92,-173.38 2069.89,-180.38"/>
</g>
<!-- Node159 -->
<g id="node18" class="node">
<title>Node159</title>
<g id="a_node18"><a xlink:href="_re_averaging_8cpp.html" target="_top" xlink:title=" ">
<polygon fill="white" stroke="black" points="974.11,-56.5 974.11,-75.5 1072.11,-75.5 1072.11,-56.5 974.11,-56.5"/>
<text text-anchor="middle" x="1023.11" y="-63.5" font-family="Helvetica,sans-Serif" font-size="10.00">ReAveraging.cpp</text>
</a>
</g>
</g>
<!-- Node1&#45;&gt;Node159 -->
<g id="edge51" class="edge">
<title>Node1&#45;&gt;Node159</title>
<path fill="none" stroke="midnightblue" d="M2069.76,-176.99C1879.88,-176.75 987.94,-173.41 948.11,-132 927.08,-110.14 970.42,-87.62 999.55,-75.67"/>
<polygon fill="midnightblue" stroke="midnightblue" points="2070.01,-180.49 2080.02,-177 2070.02,-173.49 2070.01,-180.49"/>
</g>
<!-- Node160 -->
<g id="node19" class="node">
<title>Node160</title>
<g id="a_node19"><a xlink:href="_reynolds_stress_8cpp.html" target="_top" xlink:title=" ">
<polygon fill="white" stroke="black" points="1090.11,-56.5 1090.11,-75.5 1202.11,-75.5 1202.11,-56.5 1090.11,-56.5"/>
<text text-anchor="middle" x="1146.11" y="-63.5" font-family="Helvetica,sans-Serif" font-size="10.00">ReynoldsStress.cpp</text>
</a>
</g>
</g>
<!-- Node1&#45;&gt;Node160 -->
<g id="edge52" class="edge">
<title>Node1&#45;&gt;Node160</title>
<path fill="none" stroke="midnightblue" d="M2069.7,-176.98C1880.49,-176.68 995.64,-173.11 956.11,-132 949.94,-125.59 950.59,-118.97 956.11,-112 964.88,-100.9 1043.06,-85.13 1096.36,-75.51"/>
<polygon fill="midnightblue" stroke="midnightblue" points="2069.92,-180.48 2079.92,-176.99 2069.93,-173.48 2069.92,-180.48"/>
</g>
<!-- Node282 -->
<g id="node20" class="node">
<title>Node282</title>
<g id="a_node20"><a xlink:href="_mesh_map_8_h.html" target="_top" xlink:title=" ">
<polygon fill="white" stroke="red" points="1055.11,-112.5 1055.11,-131.5 1129.11,-131.5 1129.11,-112.5 1055.11,-112.5"/>
<text text-anchor="middle" x="1092.11" y="-119.5" font-family="Helvetica,sans-Serif" font-size="10.00">MeshMap.H</text>
</a>
</g>
</g>
<!-- Node1&#45;&gt;Node282 -->
<g id="edge26" class="edge">
<title>Node1&#45;&gt;Node282</title>
<path fill="none" stroke="midnightblue" d="M2069.7,-177.22C1942.94,-177.62 1500.07,-175.59 1138.11,-132 1135.2,-131.65 1132.2,-131.22 1129.19,-130.74"/>
<polygon fill="midnightblue" stroke="midnightblue" points="2069.98,-180.72 2079.97,-177.18 2069.95,-173.72 2069.98,-180.72"/>
</g>
<!-- Node287 -->
<g id="node21" class="node">
<title>Node287</title>
<g id="a_node21"><a xlink:href="_boussinesq_bubble_8_h.html" target="_top" xlink:title=" ">
<polygon fill="white" stroke="red" points="1147.11,-112.5 1147.11,-131.5 1263.11,-131.5 1263.11,-112.5 1147.11,-112.5"/>
<text text-anchor="middle" x="1205.11" y="-119.5" font-family="Helvetica,sans-Serif" font-size="10.00">BoussinesqBubble.H</text>
</a>
</g>
</g>
<!-- Node1&#45;&gt;Node287 -->
<g id="edge28" class="edge">
<title>Node1&#45;&gt;Node287</title>
<path fill="none" stroke="midnightblue" d="M2069.83,-176.1C1954.84,-172.95 1580.43,-160.99 1272.11,-132 1269.18,-131.73 1266.19,-131.42 1263.18,-131.09"/>
<polygon fill="midnightblue" stroke="midnightblue" points="2069.74,-179.6 2079.83,-176.37 2069.93,-172.6 2069.74,-179.6"/>
</g>
<!-- Node135 -->
<g id="node22" class="node">
<title>Node135</title>
<g id="a_node22"><a xlink:href="_channel_flow_8_h.html" target="_top" xlink:title=" ">
<polygon fill="white" stroke="red" points="1281.61,-112.5 1281.61,-131.5 1370.61,-131.5 1370.61,-112.5 1281.61,-112.5"/>
<text text-anchor="middle" x="1326.11" y="-119.5" font-family="Helvetica,sans-Serif" font-size="10.00">ChannelFlow.H</text>
</a>
</g>
</g>
<!-- Node1&#45;&gt;Node135 -->
<g id="edge29" class="edge">
<title>Node1&#45;&gt;Node135</title>
<path fill="none" stroke="midnightblue" d="M2069.87,-176.14C1964.64,-173.3 1643.5,-162.56 1379.11,-132 1376.42,-131.69 1373.66,-131.33 1370.88,-130.95"/>
<polygon fill="midnightblue" stroke="midnightblue" points="2069.85,-179.64 2079.94,-176.41 2070.04,-172.65 2069.85,-179.64"/>
</g>
<!-- Node137 -->
<g id="node23" class="node">
<title>Node137</title>
<g id="a_node23"><a xlink:href="_convecting_taylor_vortex_8_h.html" target="_top" xlink:title=" ">
<polygon fill="white" stroke="red" points="1388.61,-112.5 1388.61,-131.5 1531.61,-131.5 1531.61,-112.5 1388.61,-112.5"/>
<text text-anchor="middle" x="1460.11" y="-119.5" font-family="Helvetica,sans-Serif" font-size="10.00">ConvectingTaylorVortex.H</text>
</a>
</g>
</g>
<!-- Node1&#45;&gt;Node137 -->
<g id="edge30" class="edge">
<title>Node1&#45;&gt;Node137</title>
<path fill="none" stroke="midnightblue" d="M2069.95,-174.6C1981.1,-168.45 1740.35,-151.23 1540.11,-132 1537.32,-131.73 1534.49,-131.45 1531.62,-131.16"/>
<polygon fill="midnightblue" stroke="midnightblue" points="2069.8,-178.1 2080.02,-175.29 2070.28,-171.11 2069.8,-178.1"/>
</g>
<!-- Node139 -->
<g id="node24" class="node">
<title>Node139</title>
<g id="a_node24"><a xlink:href="_ekman_spiral_8_h.html" target="_top" xlink:title=" ">
<polygon fill="white" stroke="red" points="1549.61,-112.5 1549.61,-131.5 1638.61,-131.5 1638.61,-112.5 1549.61,-112.5"/>
<text text-anchor="middle" x="1594.11" y="-119.5" font-family="Helvetica,sans-Serif" font-size="10.00">EkmanSpiral.H</text>
</a>
</g>
</g>
<!-- Node1&#45;&gt;Node139 -->
<g id="edge31" class="edge">
<title>Node1&#45;&gt;Node139</title>
<path fill="none" stroke="midnightblue" d="M2069.86,-174.39C1992.93,-168.5 1804.23,-153.03 1647.11,-132 1644.42,-131.64 1641.67,-131.25 1638.89,-130.83"/>
<polygon fill="midnightblue" stroke="midnightblue" points="2069.73,-177.89 2079.96,-175.15 2070.26,-170.91 2069.73,-177.89"/>
</g>
<!-- Node288 -->
<g id="node25" class="node">
<title>Node288</title>
<g id="a_node25"><a xlink:href="_free_stream_8_h.html" target="_top" xlink:title=" ">
<polygon fill="white" stroke="red" points="1656.61,-112.5 1656.61,-131.5 1739.61,-131.5 1739.61,-112.5 1656.61,-112.5"/>
<text text-anchor="middle" x="1698.11" y="-119.5" font-family="Helvetica,sans-Serif" font-size="10.00">FreeStream.H</text>
</a>
</g>
</g>
<!-- Node1&#45;&gt;Node288 -->
<g id="edge32" class="edge">
<title>Node1&#45;&gt;Node288</title>
<path fill="none" stroke="midnightblue" d="M2069.96,-173.19C2005.84,-166.11 1865.68,-149.98 1748.11,-132 1745.4,-131.59 1742.62,-131.14 1739.82,-130.68"/>
<polygon fill="midnightblue" stroke="midnightblue" points="2069.62,-176.68 2079.94,-174.29 2070.38,-169.72 2069.62,-176.68"/>
</g>
<!-- Node142 -->
<g id="node26" class="node">
<title>Node142</title>
<g id="a_node26"><a xlink:href="_hybrid_r_a_n_s_l_e_s_a_b_l_8_h.html" target="_top" xlink:title=" ">
<polygon fill="white" stroke="red" points="1757.61,-112.5 1757.61,-131.5 1880.61,-131.5 1880.61,-112.5 1757.61,-112.5"/>
<text text-anchor="middle" x="1819.11" y="-119.5" font-family="Helvetica,sans-Serif" font-size="10.00">HybridRANSLESABL.H</text>
</a>
</g>
</g>
<!-- Node1&#45;&gt;Node142 -->
<g id="edge33" class="edge">
<title>Node1&#45;&gt;Node142</title>
<path fill="none" stroke="midnightblue" d="M2069.94,-170.36C2018.12,-160.58 1921.26,-142.29 1864.26,-131.53"/>
<polygon fill="midnightblue" stroke="midnightblue" points="2069.5,-173.84 2079.98,-172.26 2070.8,-166.96 2069.5,-173.84"/>
</g>
<!-- Node144 -->
<g id="node27" class="node">
<title>Node144</title>
<g id="a_node27"><a xlink:href="_m_m_s_8_h.html" target="_top" xlink:title=" ">
<polygon fill="white" stroke="red" points="1898.61,-112.5 1898.61,-131.5 1949.61,-131.5 1949.61,-112.5 1898.61,-112.5"/>
<text text-anchor="middle" x="1924.11" y="-119.5" font-family="Helvetica,sans-Serif" font-size="10.00">MMS.H</text>
</a>
</g>
</g>
<!-- Node1&#45;&gt;Node144 -->
<g id="edge34" class="edge">
<title>Node1&#45;&gt;Node144</title>
<path fill="none" stroke="midnightblue" d="M2070.06,-166.54C2034.75,-156.01 1981.11,-140.01 1949.64,-130.62"/>
<polygon fill="midnightblue" stroke="midnightblue" points="2069.36,-169.99 2079.94,-169.49 2071.36,-163.28 2069.36,-169.99"/>
</g>
<!-- Node289 -->
<g id="node28" class="node">
<title>Node289</title>
<g id="a_node28"><a xlink:href="_dam_break_8_h.html" target="_top" xlink:title=" ">
<polygon fill="white" stroke="red" points="1967.61,-112.5 1967.61,-131.5 2046.61,-131.5 2046.61,-112.5 1967.61,-112.5"/>
<text text-anchor="middle" x="2007.11" y="-119.5" font-family="Helvetica,sans-Serif" font-size="10.00">DamBreak.H</text>
</a>
</g>
</g>
<!-- Node1&#45;&gt;Node289 -->
<g id="edge35" class="edge">
<title>Node1&#45;&gt;Node289</title>
<path fill="none" stroke="midnightblue" d="M2080.52,-163.45C2062.43,-153.48 2038.37,-140.23 2022.81,-131.65"/>
<polygon fill="midnightblue" stroke="midnightblue" points="2078.91,-166.56 2089.36,-168.32 2082.29,-160.43 2078.91,-166.56"/>
</g>
<!-- Node290 -->
<g id="node29" class="node">
<title>Node290</title>
<g id="a_node29"><a xlink:href="_multi_phase_8_h.html" target="_top" xlink:title=" ">
<polygon fill="white" stroke="red" points="2064.61,-112.5 2064.61,-131.5 2145.61,-131.5 2145.61,-112.5 2064.61,-112.5"/>
<text text-anchor="middle" x="2105.11" y="-119.5" font-family="Helvetica,sans-Serif" font-size="10.00">MultiPhase.H</text>
</a>
</g>
</g>
<!-- Node1&#45;&gt;Node290 -->
<g id="edge36" class="edge">
<title>Node1&#45;&gt;Node290</title>
<path fill="none" stroke="midnightblue" d="M2105.11,-157.8C2105.11,-148.91 2105.11,-138.78 2105.11,-131.75"/>
<polygon fill="midnightblue" stroke="midnightblue" points="2101.61,-158.08 2105.11,-168.08 2108.61,-158.08 2101.61,-158.08"/>
</g>
<!-- Node291 -->
<g id="node30" class="node">
<title>Node291</title>
<g id="a_node30"><a xlink:href="_rain_drop_8_h.html" target="_top" xlink:title=" ">
<polygon fill="white" stroke="red" points="2164.11,-112.5 2164.11,-131.5 2236.11,-131.5 2236.11,-112.5 2164.11,-112.5"/>
<text text-anchor="middle" x="2200.11" y="-119.5" font-family="Helvetica,sans-Serif" font-size="10.00">RainDrop.H</text>
</a>
</g>
</g>
<!-- Node1&#45;&gt;Node291 -->
<g id="edge37" class="edge">
<title>Node1&#45;&gt;Node291</title>
<path fill="none" stroke="midnightblue" d="M2129.42,-163.18C2146.9,-153.24 2169.94,-140.15 2184.88,-131.65"/>
<polygon fill="midnightblue" stroke="midnightblue" points="2127.33,-160.34 2120.37,-168.32 2130.79,-166.43 2127.33,-160.34"/>
</g>
<!-- Node292 -->
<g id="node31" class="node">
<title>Node292</title>
<g id="a_node31"><a xlink:href="_sloshing_tank_8_h.html" target="_top" xlink:title=" ">
<polygon fill="white" stroke="red" points="2254.61,-112.5 2254.61,-131.5 2345.61,-131.5 2345.61,-112.5 2254.61,-112.5"/>
<text text-anchor="middle" x="2300.11" y="-119.5" font-family="Helvetica,sans-Serif" font-size="10.00">SloshingTank.H</text>
</a>
</g>
</g>
<!-- Node1&#45;&gt;Node292 -->
<g id="edge38" class="edge">
<title>Node1&#45;&gt;Node292</title>
<path fill="none" stroke="midnightblue" d="M2139.99,-167.34C2176.78,-157.15 2234.18,-141.26 2269.33,-131.52"/>
<polygon fill="midnightblue" stroke="midnightblue" points="2138.9,-164.01 2130.2,-170.05 2140.77,-170.76 2138.9,-164.01"/>
</g>
<!-- Node293 -->
<g id="node32" class="node">
<title>Node293</title>
<g id="a_node32"><a xlink:href="_vortex_patch_8_h.html" target="_top" xlink:title=" ">
<polygon fill="white" stroke="red" points="2363.61,-112.5 2363.61,-131.5 2448.61,-131.5 2448.61,-112.5 2363.61,-112.5"/>
<text text-anchor="middle" x="2406.11" y="-119.5" font-family="Helvetica,sans-Serif" font-size="10.00">VortexPatch.H</text>
</a>
</g>
</g>
<!-- Node1&#45;&gt;Node293 -->
<g id="edge39" class="edge">
<title>Node1&#45;&gt;Node293</title>
<path fill="none" stroke="midnightblue" d="M2140.31,-170.68C2195.84,-160.72 2303.59,-141.39 2363.44,-130.65"/>
<polygon fill="midnightblue" stroke="midnightblue" points="2139.48,-167.28 2130.25,-172.49 2140.71,-174.17 2139.48,-167.28"/>
</g>
<!-- Node294 -->
<g id="node33" class="node">
<title>Node294</title>
<g id="a_node33"><a xlink:href="_vortex_patch_scalar_vel_8_h.html" target="_top" xlink:title=" ">
<polygon fill="white" stroke="red" points="2467.11,-112.5 2467.11,-131.5 2597.11,-131.5 2597.11,-112.5 2467.11,-112.5"/>
<text text-anchor="middle" x="2532.11" y="-119.5" font-family="Helvetica,sans-Serif" font-size="10.00">VortexPatchScalarVel.H</text>
</a>
</g>
</g>
<!-- Node1&#45;&gt;Node294 -->
<g id="edge40" class="edge">
<title>Node1&#45;&gt;Node294</title>
<path fill="none" stroke="midnightblue" d="M2140.52,-172.52C2212.26,-163.45 2375.66,-142.78 2467.09,-131.22"/>
<polygon fill="midnightblue" stroke="midnightblue" points="2139.7,-169.1 2130.22,-173.82 2140.58,-176.04 2139.7,-169.1"/>
</g>
<!-- Node295 -->
<g id="node34" class="node">
<title>Node295</title>
<g id="a_node34"><a xlink:href="_zalesak_disk_8_h.html" target="_top" xlink:title=" ">
<polygon fill="white" stroke="red" points="2615.11,-112.5 2615.11,-131.5 2703.11,-131.5 2703.11,-112.5 2615.11,-112.5"/>
<text text-anchor="middle" x="2659.11" y="-119.5" font-family="Helvetica,sans-Serif" font-size="10.00">ZalesakDisk.H</text>
</a>
</g>
</g>
<!-- Node1&#45;&gt;Node295 -->
<g id="edge41" class="edge">
<title>Node1&#45;&gt;Node295</title>
<path fill="none" stroke="midnightblue" d="M2140.22,-174.8C2222.08,-169.46 2431.87,-154.58 2606.11,-132 2608.97,-131.63 2611.93,-131.21 2614.9,-130.77"/>
<polygon fill="midnightblue" stroke="midnightblue" points="2139.96,-171.31 2130.2,-175.45 2140.41,-178.29 2139.96,-171.31"/>
</g>
<!-- Node296 -->
<g id="node35" class="node">
<title>Node296</title>
<g id="a_node35"><a xlink:href="_zalesak_disk_scalar_vel_8_h.html" target="_top" xlink:title=" ">
<polygon fill="white" stroke="red" points="2721.61,-112.5 2721.61,-131.5 2854.61,-131.5 2854.61,-112.5 2721.61,-112.5"/>
<text text-anchor="middle" x="2788.11" y="-119.5" font-family="Helvetica,sans-Serif" font-size="10.00">ZalesakDiskScalarVel.H</text>
</a>
</g>
</g>
<!-- Node1&#45;&gt;Node296 -->
<g id="edge42" class="edge">
<title>Node1&#45;&gt;Node296</title>
<path fill="none" stroke="midnightblue" d="M2140.32,-174.93C2233.66,-169.33 2495.11,-152.88 2712.11,-132 2715.15,-131.71 2718.26,-131.39 2721.4,-131.07"/>
<polygon fill="midnightblue" stroke="midnightblue" points="2140.06,-171.44 2130.29,-175.53 2140.48,-178.43 2140.06,-171.44"/>
</g>
<!-- Node297 -->
<g id="node36" class="node">
<title>Node297</title>
<g id="a_node36"><a xlink:href="_rayleigh_taylor_8_h.html" target="_top" xlink:title=" ">
<polygon fill="white" stroke="red" points="2873.11,-112.5 2873.11,-131.5 2971.11,-131.5 2971.11,-112.5 2873.11,-112.5"/>
<text text-anchor="middle" x="2922.11" y="-119.5" font-family="Helvetica,sans-Serif" font-size="10.00">RayleighTaylor.H</text>
</a>
</g>
</g>
<!-- Node1&#45;&gt;Node297 -->
<g id="edge43" class="edge">
<title>Node1&#45;&gt;Node297</title>
<path fill="none" stroke="midnightblue" d="M2140.41,-176.06C2248.69,-172.93 2585.57,-161.34 2863.11,-132 2866.3,-131.66 2869.59,-131.27 2872.89,-130.85"/>
<polygon fill="midnightblue" stroke="midnightblue" points="2140.26,-172.56 2130.37,-176.34 2140.46,-179.56 2140.26,-172.56"/>
</g>
<!-- Node298 -->
<g id="node37" class="node">
<title>Node298</title>
<g id="a_node37"><a xlink:href="_scalar_advection_8_h.html" target="_top" xlink:title=" ">
<polygon fill="white" stroke="red" points="2989.11,-112.5 2989.11,-131.5 3095.11,-131.5 3095.11,-112.5 2989.11,-112.5"/>
<text text-anchor="middle" x="3042.11" y="-119.5" font-family="Helvetica,sans-Serif" font-size="10.00">ScalarAdvection.H</text>
</a>
</g>
</g>
<!-- Node1&#45;&gt;Node298 -->
<g id="edge44" class="edge">
<title>Node1&#45;&gt;Node298</title>
<path fill="none" stroke="midnightblue" d="M2140.54,-176.36C2259.44,-173.95 2654.94,-163.89 2980.11,-132 2983.03,-131.71 2986.02,-131.39 2989.05,-131.03"/>
<polygon fill="midnightblue" stroke="midnightblue" points="2140.16,-172.86 2130.23,-176.56 2140.29,-179.86 2140.16,-172.86"/>
</g>
<!-- Node153 -->
<g id="node38" class="node">
<title>Node153</title>
<g id="a_node38"><a xlink:href="_synthetic_turbulence_8_h.html" target="_top" xlink:title=" ">
<polygon fill="white" stroke="red" points="3113.61,-112.5 3113.61,-131.5 3238.61,-131.5 3238.61,-112.5 3113.61,-112.5"/>
<text text-anchor="middle" x="3176.11" y="-119.5" font-family="Helvetica,sans-Serif" font-size="10.00">SyntheticTurbulence.H</text>
</a>
</g>
</g>
<!-- Node1&#45;&gt;Node153 -->
<g id="edge45" class="edge">
<title>Node1&#45;&gt;Node153</title>
<path fill="none" stroke="midnightblue" d="M2140.33,-176.42C2269.27,-174.1 2727.62,-163.96 3104.11,-132 3107.12,-131.74 3110.2,-131.46 3113.31,-131.15"/>
<polygon fill="midnightblue" stroke="midnightblue" points="2140.18,-172.93 2130.25,-176.6 2140.31,-179.93 2140.18,-172.93"/>
</g>
<!-- Node299 -->
<g id="node39" class="node">
<title>Node299</title>
<g id="a_node39"><a xlink:href="_taylor_green_vortex_8_h.html" target="_top" xlink:title=" ">
<polygon fill="white" stroke="red" points="3256.61,-112.5 3256.61,-131.5 3373.61,-131.5 3373.61,-112.5 3256.61,-112.5"/>
<text text-anchor="middle" x="3315.11" y="-119.5" font-family="Helvetica,sans-Serif" font-size="10.00">TaylorGreenVortex.H</text>
</a>
</g>
</g>
<!-- Node1&#45;&gt;Node299 -->
<g id="edge46" class="edge">
<title>Node1&#45;&gt;Node299</title>
<path fill="none" stroke="midnightblue" d="M2140.67,-176.79C2281.3,-175.72 2812.14,-169.27 3247.11,-132 3250.19,-131.74 3253.35,-131.43 3256.54,-131.1"/>
<polygon fill="midnightblue" stroke="midnightblue" points="2140.45,-173.29 2130.48,-176.87 2140.5,-180.29 2140.45,-173.29"/>
</g>
<!-- Node300 -->
<g id="node40" class="node">
<title>Node300</title>
<g id="a_node40"><a xlink:href="_vortex_ring_8_h.html" target="_top" xlink:title=" ">
<polygon fill="white" stroke="red" points="3392.11,-112.5 3392.11,-131.5 3472.11,-131.5 3472.11,-112.5 3392.11,-112.5"/>
<text text-anchor="middle" x="3432.11" y="-119.5" font-family="Helvetica,sans-Serif" font-size="10.00">VortexRing.H</text>
</a>
</g>
</g>
<!-- Node1&#45;&gt;Node300 -->
<g id="edge50" class="edge">
<title>Node1&#45;&gt;Node300</title>
<path fill="none" stroke="midnightblue" d="M2140.36,-176.44C2319.65,-173.49 3131.49,-158.83 3382.11,-132 3385.35,-131.65 3388.7,-131.22 3392.06,-130.73"/>
<polygon fill="midnightblue" stroke="midnightblue" points="2140.12,-172.94 2130.18,-176.61 2140.23,-179.94 2140.12,-172.94"/>
</g>
<!-- Node166 -->
<g id="node41" class="node">
<title>Node166</title>
<g id="a_node41"><a xlink:href="_field_plane_averaging_8_h.html" target="_top" xlink:title=" ">
<polygon fill="white" stroke="red" points="3528.11,-112.5 3528.11,-131.5 3654.11,-131.5 3654.11,-112.5 3528.11,-112.5"/>
<text text-anchor="middle" x="3591.11" y="-119.5" font-family="Helvetica,sans-Serif" font-size="10.00">FieldPlaneAveraging.H</text>
</a>
</g>
</g>
<!-- Node1&#45;&gt;Node166 -->
<g id="edge53" class="edge">
<title>Node1&#45;&gt;Node166</title>
<path fill="none" stroke="midnightblue" d="M2140.33,-176.97C2299.52,-176.6 2967.74,-172.58 3514.11,-132 3518.53,-131.67 3523.1,-131.28 3527.7,-130.84"/>
<polygon fill="midnightblue" stroke="midnightblue" points="2140.16,-173.47 2130.17,-176.99 2140.17,-180.47 2140.16,-173.47"/>
</g>
<!-- Node170 -->
<g id="node42" class="node">
<title>Node170</title>
<g id="a_node42"><a xlink:href="_second_moment_averaging_8_h.html" target="_top" xlink:title=" ">
<polygon fill="white" stroke="red" points="3428.11,-56.5 3428.11,-75.5 3580.11,-75.5 3580.11,-56.5 3428.11,-56.5"/>
<text text-anchor="middle" x="3504.11" y="-63.5" font-family="Helvetica,sans-Serif" font-size="10.00">SecondMomentAveraging.H</text>
</a>
</g>
</g>
<!-- Node1&#45;&gt;Node170 -->
<g id="edge58" class="edge">
<title>Node1&#45;&gt;Node170</title>
<path fill="none" stroke="midnightblue" d="M2140.36,-176.96C2350,-176.6 3425.41,-172.75 3481.11,-132 3499.27,-118.71 3503.16,-89.89 3503.94,-75.51"/>
<polygon fill="midnightblue" stroke="midnightblue" points="2140.21,-173.46 2130.22,-176.98 2140.23,-180.46 2140.21,-173.46"/>
</g>
<!-- Node172 -->
<g id="node43" class="node">
<title>Node172</title>
<g id="a_node43"><a xlink:href="_third_moment_averaging_8_h.html" target="_top" xlink:title=" ">
<polygon fill="white" stroke="red" points="3606.61,-56.5 3606.61,-75.5 3747.61,-75.5 3747.61,-56.5 3606.61,-56.5"/>
<text text-anchor="middle" x="3677.11" y="-63.5" font-family="Helvetica,sans-Serif" font-size="10.00">ThirdMomentAveraging.H</text>
</a>
</g>
</g>
<!-- Node1&#45;&gt;Node172 -->
<g id="edge59" class="edge">
<title>Node1&#45;&gt;Node172</title>
<path fill="none" stroke="midnightblue" d="M2140.72,-177.2C2367.52,-178.35 3602.66,-182.27 3663.11,-132 3679.61,-118.27 3679.52,-90.18 3678.24,-75.84"/>
<polygon fill="midnightblue" stroke="midnightblue" points="2140.42,-173.7 2130.4,-177.15 2140.38,-180.7 2140.42,-173.7"/>
</g>
<!-- Node174 -->
<g id="node44" class="node">
<title>Node174</title>
<g id="a_node44"><a xlink:href="_field_plane_averaging_fine_8_h.html" target="_top" xlink:title=" ">
<polygon fill="white" stroke="red" points="3710.11,-112.5 3710.11,-131.5 3856.11,-131.5 3856.11,-112.5 3710.11,-112.5"/>
<text text-anchor="middle" x="3783.11" y="-119.5" font-family="Helvetica,sans-Serif" font-size="10.00">FieldPlaneAveragingFine.H</text>
</a>
</g>
</g>
<!-- Node1&#45;&gt;Node174 -->
<g id="edge56" class="edge">
<title>Node1&#45;&gt;Node174</title>
<path fill="none" stroke="midnightblue" d="M2140.63,-176.98C2312.39,-176.67 3073.89,-172.93 3696.11,-132 3700.65,-131.7 3705.33,-131.35 3710.04,-130.96"/>
<polygon fill="midnightblue" stroke="midnightblue" points="2140.4,-173.48 2130.4,-176.99 2140.41,-180.48 2140.4,-173.48"/>
</g>
<!-- Node301 -->
<g id="node45" class="node">
<title>Node301</title>
<g id="a_node45"><a xlink:href="_sampling_container_8cpp.html" target="_top" xlink:title=" ">
<polygon fill="white" stroke="black" points="3874.61,-112.5 3874.61,-131.5 4003.61,-131.5 4003.61,-112.5 3874.61,-112.5"/>
<text text-anchor="middle" x="3939.11" y="-119.5" font-family="Helvetica,sans-Serif" font-size="10.00">SamplingContainer.cpp</text>
</a>
</g>
</g>
<!-- Node1&#45;&gt;Node301 -->
<g id="edge57" class="edge">
<title>Node1&#45;&gt;Node301</title>
<path fill="none" stroke="midnightblue" d="M2140.43,-176.56C2357.42,-173.77 3512.12,-157.92 3865.11,-132 3868.2,-131.77 3871.37,-131.51 3874.57,-131.22"/>
<polygon fill="midnightblue" stroke="midnightblue" points="2140.21,-173.06 2130.25,-176.69 2140.29,-180.06 2140.21,-173.06"/>
</g>
<!-- Node200 -->
<g id="node46" class="node">
<title>Node200</title>
<g id="a_node46"><a xlink:href="_a_b_l_boundary_plane_8_h.html" target="_top" xlink:title=" ">
<polygon fill="white" stroke="red" points="4021.61,-112.5 4021.61,-131.5 4140.61,-131.5 4140.61,-112.5 4021.61,-112.5"/>
<text text-anchor="middle" x="4081.11" y="-119.5" font-family="Helvetica,sans-Serif" font-size="10.00">ABLBoundaryPlane.H</text>
</a>
</g>
</g>
<!-- Node1&#45;&gt;Node200 -->
<g id="edge60" class="edge">
<title>Node1&#45;&gt;Node200</title>
<path fill="none" stroke="midnightblue" d="M2140.15,-176.69C2366.85,-174.62 3628.78,-161.88 4013.11,-132 4015.84,-131.79 4018.63,-131.54 4021.44,-131.27"/>
<polygon fill="midnightblue" stroke="midnightblue" points="2140.11,-173.19 2130.14,-176.78 2140.17,-180.19 2140.11,-173.19"/>
</g>
<!-- Node302 -->
<g id="node47" class="node">
<title>Node302</title>
<g id="a_node47"><a xlink:href="_a_b_l_field_init_8_h.html" target="_top" xlink:title=" ">
<polygon fill="white" stroke="red" points="4158.61,-112.5 4158.61,-131.5 4243.61,-131.5 4243.61,-112.5 4158.61,-112.5"/>
<text text-anchor="middle" x="4201.11" y="-119.5" font-family="Helvetica,sans-Serif" font-size="10.00">ABLFieldInit.H</text>
</a>
</g>
</g>
<!-- Node1&#45;&gt;Node302 -->
<g id="edge61" class="edge">
<title>Node1&#45;&gt;Node302</title>
<path fill="none" stroke="midnightblue" d="M2140.42,-176.96C2377.27,-176.59 3737.66,-172.69 4150.11,-132 4152.88,-131.73 4155.73,-131.39 4158.6,-131"/>
<polygon fill="midnightblue" stroke="midnightblue" points="2140.3,-173.46 2130.31,-176.98 2140.31,-180.46 2140.3,-173.46"/>
</g>
<!-- Node304 -->
<g id="node48" class="node">
<title>Node304</title>
<g id="a_node48"><a xlink:href="_a_b_l_field_init_file_8_h.html" target="_top" xlink:title=" ">
<polygon fill="white" stroke="red" points="4262.11,-112.5 4262.11,-131.5 4364.11,-131.5 4364.11,-112.5 4262.11,-112.5"/>
<text text-anchor="middle" x="4313.11" y="-119.5" font-family="Helvetica,sans-Serif" font-size="10.00">ABLFieldInitFile.H</text>
</a>
</g>
</g>
<!-- Node1&#45;&gt;Node304 -->
<g id="edge62" class="edge">
<title>Node1&#45;&gt;Node304</title>
<path fill="none" stroke="midnightblue" d="M2140.27,-176.88C2383.43,-175.96 3818.23,-169.02 4253.11,-132 4256.04,-131.75 4259.06,-131.45 4262.09,-131.11"/>
<polygon fill="midnightblue" stroke="midnightblue" points="2140.21,-173.38 2130.22,-176.92 2140.24,-180.38 2140.21,-173.38"/>
</g>
<!-- Node201 -->
<g id="node49" class="node">
<title>Node201</title>
<g id="a_node49"><a xlink:href="_a_b_l_modulated_power_law_8_h.html" target="_top" xlink:title=" ">
<polygon fill="white" stroke="red" points="4382.11,-112.5 4382.11,-131.5 4528.11,-131.5 4528.11,-112.5 4382.11,-112.5"/>
<text text-anchor="middle" x="4455.11" y="-119.5" font-family="Helvetica,sans-Serif" font-size="10.00">ABLModulatedPowerLaw.H</text>
</a>
</g>
</g>
<!-- Node1&#45;&gt;Node201 -->
<g id="edge63" class="edge">
<title>Node1&#45;&gt;Node201</title>
<path fill="none" stroke="midnightblue" d="M2140.24,-176.73C2390.98,-174.78 3912.05,-161.82 4373.11,-132 4375.96,-131.82 4378.88,-131.6 4381.82,-131.37"/>
<polygon fill="midnightblue" stroke="midnightblue" points="2140.2,-173.24 2130.23,-176.81 2140.26,-180.23 2140.2,-173.24"/>
</g>
<!-- Node306 -->
<g id="node50" class="node">
<title>Node306</title>
<g id="a_node50"><a xlink:href="_actuator_container_8cpp.html" target="_top" xlink:title=" ">
<polygon fill="white" stroke="black" points="4546.61,-112.5 4546.61,-131.5 4671.61,-131.5 4671.61,-112.5 4546.61,-112.5"/>
<text text-anchor="middle" x="4609.11" y="-119.5" font-family="Helvetica,sans-Serif" font-size="10.00">ActuatorContainer.cpp</text>
</a>
</g>
</g>
<!-- Node1&#45;&gt;Node306 -->
<g id="edge64" class="edge">
<title>Node1&#45;&gt;Node306</title>
<path fill="none" stroke="midnightblue" d="M2140.31,-176.86C2401.49,-175.76 4041.41,-167.47 4537.11,-132 4540.12,-131.78 4543.2,-131.53 4546.32,-131.25"/>
<polygon fill="midnightblue" stroke="midnightblue" points="2140.23,-173.36 2130.25,-176.9 2140.26,-180.36 2140.23,-173.36"/>
</g>
<!-- Node3 -->
<g id="node3" class="node">
<title>Node3</title>
<g id="a_node3"><a xlink:href="_b_c_interface_8cpp.html" target="_top" xlink:title=" ">
<polygon fill="white" stroke="black" points="396.11,-56.5 396.11,-75.5 490.11,-75.5 490.11,-56.5 396.11,-56.5"/>
<text text-anchor="middle" x="443.11" y="-63.5" font-family="Helvetica,sans-Serif" font-size="10.00">BCInterface.cpp</text>
</a>
</g>
</g>
<!-- Node2&#45;&gt;Node3 -->
<g id="edge2" class="edge">
<title>Node2&#45;&gt;Node3</title>
<path fill="none" stroke="midnightblue" d="M388.41,-106.38C401.97,-96.62 419.35,-84.11 430.84,-75.83"/>
<polygon fill="midnightblue" stroke="midnightblue" points="386.23,-103.64 380.16,-112.32 390.32,-109.32 386.23,-103.64"/>
</g>
<!-- Node2&#45;&gt;Node4 -->
<g id="edge3" class="edge">
<title>Node2&#45;&gt;Node4</title>
<path fill="none" stroke="midnightblue" d="M367.22,-102.04C365.52,-87.43 360.8,-67.79 348.11,-56 324.13,-33.74 230.54,-20.03 181.48,-14.23"/>
<polygon fill="midnightblue" stroke="midnightblue" points="363.77,-102.74 368.05,-112.43 370.75,-102.19 363.77,-102.74"/>
</g>
<!-- Node5 -->
<g id="node5" class="node">
<title>Node5</title>
<g id="a_node5"><a xlink:href="_b_c_ops_8_h.html" target="_top" xlink:title=" ">
<polygon fill="white" stroke="red" points="280.61,-56.5 280.61,-75.5 339.61,-75.5 339.61,-56.5 280.61,-56.5"/>
<text text-anchor="middle" x="310.11" y="-63.5" font-family="Helvetica,sans-Serif" font-size="10.00">BCOps.H</text>
</a>
</g>
</g>
<!-- Node2&#45;&gt;Node5 -->
<g id="edge4" class="edge">
<title>Node2&#45;&gt;Node5</title>
<path fill="none" stroke="midnightblue" d="M351.19,-105.25C340.9,-95.67 328.14,-83.79 319.59,-75.83"/>
<polygon fill="midnightblue" stroke="midnightblue" points="349.08,-108.07 358.79,-112.32 353.85,-102.95 349.08,-108.07"/>
</g>
<!-- Node18 -->
<g id="node6" class="node">
<title>Node18</title>
<g id="a_node6"><a xlink:href="vof__bciface_8_h.html" target="_top" xlink:title=" ">
<polygon fill="white" stroke="red" points="179.61,-56.5 179.61,-75.5 262.61,-75.5 262.61,-56.5 179.61,-56.5"/>
<text text-anchor="middle" x="221.11" y="-63.5" font-family="Helvetica,sans-Serif" font-size="10.00">vof_bciface.H</text>
</a>
</g>
</g>
<!-- Node2&#45;&gt;Node18 -->
<g id="edge5" class="edge">
<title>Node2&#45;&gt;Node18</title>
<path fill="none" stroke="midnightblue" d="M335.18,-108.91C307.55,-98.75 268.76,-84.51 244.29,-75.52"/>
<polygon fill="midnightblue" stroke="midnightblue" points="334.22,-112.28 344.81,-112.44 336.63,-105.71 334.22,-112.28"/>
</g>
<!-- Node20 -->
<g id="node8" class="node">
<title>Node20</title>
<g id="a_node8"><a xlink:href="_s_d_r_8_h.html" target="_top" xlink:title=" ">
<polygon fill="white" stroke="red" points="1220.61,-56.5 1220.61,-75.5 1267.61,-75.5 1267.61,-56.5 1220.61,-56.5"/>
<text text-anchor="middle" x="1244.11" y="-63.5" font-family="Helvetica,sans-Serif" font-size="10.00">SDR.H</text>
</a>
</g>
</g>
<!-- Node19&#45;&gt;Node20 -->
<g id="edge8" class="edge">
<title>Node19&#45;&gt;Node20</title>
<path fill="none" stroke="midnightblue" d="M1047.01,-111.47C1099.02,-100.62 1180.54,-83.44 1211.11,-76 1214.11,-75.27 1217.25,-74.47 1220.35,-73.65"/>
<polygon fill="midnightblue" stroke="midnightblue" points="1046.1,-108.09 1037.02,-113.55 1047.52,-114.94 1046.1,-108.09"/>
</g>
<!-- Node21 -->
<g id="node9" class="node">
<title>Node21</title>
<g id="a_node9"><a xlink:href="sdr__ops_8_h.html" target="_top" xlink:title=" ">
<polygon fill="white" stroke="red" points="1237.61,-0.5 1237.61,-19.5 1302.61,-19.5 1302.61,-0.5 1237.61,-0.5"/>
<text text-anchor="middle" x="1270.11" y="-7.5" font-family="Helvetica,sans-Serif" font-size="10.00">sdr_ops.H</text>
</a>
</g>
</g>
<!-- Node19&#45;&gt;Node21 -->
<g id="edge10" class="edge">
<title>Node19&#45;&gt;Node21</title>
<path fill="none" stroke="midnightblue" d="M1047.13,-112.17C1112.06,-104.09 1244.25,-113.23 1276.11,-76 1289.66,-60.16 1280.63,-33.51 1274.48,-19.77"/>
<polygon fill="midnightblue" stroke="midnightblue" points="1046.31,-108.75 1036.94,-113.69 1047.35,-115.68 1046.31,-108.75"/>
</g>
<!-- Node25 -->
<g id="node10" class="node">
<title>Node25</title>
<g id="a_node10"><a xlink:href="_t_k_e_8_h.html" target="_top" xlink:title=" ">
<polygon fill="white" stroke="red" points="1324.11,-56.5 1324.11,-75.5 1370.11,-75.5 1370.11,-56.5 1324.11,-56.5"/>
<text text-anchor="middle" x="1347.11" y="-63.5" font-family="Helvetica,sans-Serif" font-size="10.00">TKE.H</text>
</a>
</g>
</g>
<!-- Node19&#45;&gt;Node25 -->
<g id="edge11" class="edge">
<title>Node19&#45;&gt;Node25</title>
<path fill="none" stroke="midnightblue" d="M1047.05,-111.94C1164.64,-92.67 1196.93,-97.42 1310.11,-76 1314.65,-75.14 1319.48,-74.08 1324.09,-72.99"/>
<polygon fill="midnightblue" stroke="midnightblue" points="1046.22,-108.53 1036.93,-113.63 1047.37,-115.44 1046.22,-108.53"/>
</g>
<!-- Node20&#45;&gt;Node21 -->
<g id="edge9" class="edge">
<title>Node20&#45;&gt;Node21</title>
<path fill="none" stroke="midnightblue" d="M1252.78,-46.98C1257.19,-37.82 1262.36,-27.09 1265.89,-19.75"/>
<polygon fill="midnightblue" stroke="midnightblue" points="1249.58,-45.55 1248.4,-56.08 1255.89,-48.59 1249.58,-45.55"/>
</g>
<!-- Node45&#45;&gt;Node4 -->
<g id="edge13" class="edge">
<title>Node45&#45;&gt;Node4</title>
<path fill="none" stroke="midnightblue" d="M151.11,-102.35C151.11,-78.25 151.11,-37.31 151.11,-19.59"/>
<polygon fill="midnightblue" stroke="midnightblue" points="147.61,-102.37 151.11,-112.37 154.61,-102.37 147.61,-102.37"/>
</g>
<!-- Node45&#45;&gt;Node49 -->
<g id="edge14" class="edge">
<title>Node45&#45;&gt;Node49</title>
<path fill="none" stroke="midnightblue" d="M129.01,-106.62C113.84,-96.76 94.22,-83.99 81.41,-75.65"/>
<polygon fill="midnightblue" stroke="midnightblue" points="127.48,-109.8 137.77,-112.32 131.3,-103.94 127.48,-109.8"/>
</g>
<!-- Node49&#45;&gt;Node4 -->
<g id="edge15" class="edge">
<title>Node49&#45;&gt;Node4</title>
<path fill="none" stroke="midnightblue" d="M90.2,-50.62C105.37,-40.76 124.99,-27.99 137.8,-19.65"/>
<polygon fill="midnightblue" stroke="midnightblue" points="87.91,-47.94 81.44,-56.32 91.73,-53.8 87.91,-47.94"/>
</g>
<!-- Node93&#45;&gt;Node3 -->
<g id="edge18" class="edge">
<title>Node93&#45;&gt;Node3</title>
<path fill="none" stroke="midnightblue" d="M709.68,-112.84C650.33,-102.64 549.34,-85.27 490.17,-75.09"/>
<polygon fill="midnightblue" stroke="midnightblue" points="709.09,-116.29 719.54,-114.54 710.28,-109.4 709.09,-116.29"/>
</g>
<!-- Node93&#45;&gt;Node4 -->
<g id="edge19" class="edge">
<title>Node93&#45;&gt;Node4</title>
<path fill="none" stroke="midnightblue" d="M751.26,-102.97C745.27,-87.66 734.37,-66.57 717.11,-56 671.23,-27.92 292.19,-15.01 181.41,-11.82"/>
<polygon fill="midnightblue" stroke="midnightblue" points="747.98,-104.19 754.64,-112.43 754.57,-101.84 747.98,-104.19"/>
</g>
<!-- Node93&#45;&gt;Node236 -->
<g id="edge20" class="edge">
<title>Node93&#45;&gt;Node236</title>
<path fill="none" stroke="midnightblue" d="M714.28,-109.83C675.2,-99.63 618.27,-84.78 582.75,-75.52"/>
<polygon fill="midnightblue" stroke="midnightblue" points="713.75,-113.31 724.31,-112.44 715.51,-106.53 713.75,-113.31"/>
</g>
<!-- Node93&#45;&gt;Node275 -->
<g id="edge21" class="edge">
<title>Node93&#45;&gt;Node275</title>
<path fill="none" stroke="midnightblue" d="M732.52,-107.45C714.43,-97.48 690.37,-84.23 674.81,-75.65"/>
<polygon fill="midnightblue" stroke="midnightblue" points="730.91,-110.56 741.36,-112.32 734.29,-104.43 730.91,-110.56"/>
</g>
<!-- Node93&#45;&gt;Node61 -->
<g id="edge22" class="edge">
<title>Node93&#45;&gt;Node61</title>
<path fill="none" stroke="midnightblue" d="M775.66,-105.82C787.48,-96.15 802.39,-83.95 812.31,-75.83"/>
<polygon fill="midnightblue" stroke="midnightblue" points="773.23,-103.28 767.71,-112.32 777.67,-108.7 773.23,-103.28"/>
</g>
<!-- Node93&#45;&gt;Node276 -->
<g id="edge23" class="edge">
<title>Node93&#45;&gt;Node276</title>
<path fill="none" stroke="midnightblue" d="M794.14,-109.3C826.36,-99.13 872.29,-84.62 901.14,-75.52"/>
<polygon fill="midnightblue" stroke="midnightblue" points="792.68,-106.09 784.2,-112.44 794.79,-112.77 792.68,-106.09"/>
</g>
<!-- Node93&#45;&gt;Node159 -->
<g id="edge24" class="edge">
<title>Node93&#45;&gt;Node159</title>
<path fill="none" stroke="midnightblue" d="M804.59,-111.36C854.69,-101.19 932.92,-85.31 980.92,-75.56"/>
<polygon fill="midnightblue" stroke="midnightblue" points="803.76,-107.96 794.65,-113.38 805.15,-114.82 803.76,-107.96"/>
</g>
<!-- Node93&#45;&gt;Node160 -->
<g id="edge25" class="edge">
<title>Node93&#45;&gt;Node160</title>
<path fill="none" stroke="midnightblue" d="M804.92,-114.36C877.05,-104.35 1013.39,-85.42 1090.08,-74.78"/>
<polygon fill="midnightblue" stroke="midnightblue" points="804.18,-110.93 794.76,-115.77 805.14,-117.86 804.18,-110.93"/>
</g>
<!-- Node166&#45;&gt;Node170 -->
<g id="edge54" class="edge">
<title>Node166&#45;&gt;Node170</title>
<path fill="none" stroke="midnightblue" d="M3568.39,-106.9C3552.44,-97 3531.61,-84.07 3518.05,-75.65"/>
<polygon fill="midnightblue" stroke="midnightblue" points="3566.79,-110.02 3577.13,-112.32 3570.48,-104.08 3566.79,-110.02"/>
</g>
<!-- Node166&#45;&gt;Node172 -->
<g id="edge55" class="edge">
<title>Node166&#45;&gt;Node172</title>
<path fill="none" stroke="midnightblue" d="M3613.56,-106.9C3629.33,-97 3649.92,-84.07 3663.32,-75.65"/>
<polygon fill="midnightblue" stroke="midnightblue" points="3611.53,-104.04 3604.92,-112.32 3615.25,-109.97 3611.53,-104.04"/>
</g>
</g>
</svg>
        <g id="navigator" transform="translate(0 0)" fill="#404254">
                <rect fill="#f2f5e9" fill-opacity="0.5" stroke="#606060" stroke-width=".5" x="0" y="0" width="60" height="60"/>
                <use id="zoomplus" xlink:href="#zoomPlus" x="17" y="9" onmousedown="handleZoom(evt,'in')"/>
                <use id="zoomminus" xlink:href="#zoomMin" x="42" y="9" onmousedown="handleZoom(evt,'out')"/>
                <use id="reset" xlink:href="#resetDef" x="30" y="36" onmousedown="handleReset()"/>
                <g id="arrowUp" xlink:href="#dirArrow" transform="translate(30 24)" onmousedown="handlePan(0,-1)">
                  <use xlink:href="#rim" fill="#404040">
                        <set attributeName="fill" to="#808080" begin="arrowUp.mouseover" end="arrowUp.mouseout"/>
                  </use>
                  <path fill="none" stroke="white" stroke-width="1.5" d="M0,-3.0v7 M-2.5,-0.5L0,-3.0L2.5,-0.5"/>
                </g>
                <g id="arrowRight" xlink:href="#dirArrow" transform="rotate(90) translate(36 -43)" onmousedown="handlePan(1,0)">
                  <use xlink:href="#rim" fill="#404040">
                        <set attributeName="fill" to="#808080" begin="arrowRight.mouseover" end="arrowRight.mouseout"/>
                  </use>
                  <path fill="none" stroke="white" stroke-width="1.5" d="M0,-3.0v7 M-2.5,-0.5L0,-3.0L2.5,-0.5"/>
                </g>
                <g id="arrowDown" xlink:href="#dirArrow" transform="rotate(180) translate(-30 -48)" onmousedown="handlePan(0,1)">
                  <use xlink:href="#rim" fill="#404040">
                        <set attributeName="fill" to="#808080" begin="arrowDown.mouseover" end="arrowDown.mouseout"/>
                  </use>
                  <path fill="none" stroke="white" stroke-width="1.5" d="M0,-3.0v7 M-2.5,-0.5L0,-3.0L2.5,-0.5"/>
                </g>
                <g id="arrowLeft" xlink:href="#dirArrow" transform="rotate(270) translate(-36 17)" onmousedown="handlePan(-1,0)">
                  <use xlink:href="#rim" fill="#404040">
                        <set attributeName="fill" to="#808080" begin="arrowLeft.mouseover" end="arrowLeft.mouseout"/>
                  </use>
                  <path fill="none" stroke="white" stroke-width="1.5" d="M0,-3.0v7 M-2.5,-0.5L0,-3.0L2.5,-0.5"/>
                </g>
        </g>
        <svg viewBox="0 0 15 15" width="100%" height="30px" preserveAspectRatio="xMaxYMin meet">
         <g id="arrow_out" transform="scale(0.3 0.3)">
          <a xlink:href="_field_8_h__dep__incl_org.svg" target="_base">
           <rect id="button" ry="5" rx="5" y="6" x="6" height="38" width="38"
                fill="#f2f5e9" fill-opacity="0.5" stroke="#606060" stroke-width="1.0"/>
           <path id="arrow"
             d="M 11.500037,31.436501 C 11.940474,20.09759 22.043105,11.32322 32.158766,21.979434 L 37.068811,17.246167 C 37.068811,17.246167 37.088388,32 37.088388,32 L 22.160133,31.978069 C 22.160133,31.978069 26.997745,27.140456 26.997745,27.140456 C 18.528582,18.264221 13.291696,25.230495 11.500037,31.436501 z"
             style="fill:#404040;"/>
          </a>
         </g>
        </svg>
</svg>
