<?xml version="1.0" encoding="UTF-8" standalone="no"?>
<!DOCTYPE svg PUBLIC "-//W3C//DTD SVG 1.1//EN"
 "http://www.w3.org/Graphics/SVG/1.1/DTD/svg11.dtd">
<!-- Generated by graphviz version 2.43.0 (0)
 -->
<!-- Title: IntField.H Pages: 1 -->
<svg width="3844pt" height="196pt"
 viewBox="0.00 0.00 3843.50 196.00" xmlns="http://www.w3.org/2000/svg" xmlns:xlink="http://www.w3.org/1999/xlink">
<g id="graph0" class="graph" transform="scale(1 1) rotate(0) translate(4 192)">
<title>IntField.H</title>
<polygon fill="white" stroke="transparent" points="-4,4 -4,-192 3839.5,-192 3839.5,4 -4,4"/>
<!-- Node1 -->
<g id="node1" class="node">
<title>Node1</title>
<g id="a_node1"><a xlink:title=" ">
<polygon fill="#bfbfbf" stroke="black" points="866,-168.5 866,-187.5 929,-187.5 929,-168.5 866,-168.5"/>
<text text-anchor="middle" x="897.5" y="-175.5" font-family="Helvetica,sans-Serif" font-size="10.00">IntField.H</text>
</a>
</g>
</g>
<!-- Node2 -->
<g id="node2" class="node">
<title>Node2</title>
<g id="a_node2"><a xlink:href="_field_repo_8_h.html" target="_top" xlink:title=" ">
<polygon fill="white" stroke="red" points="1721,-112.5 1721,-131.5 1796,-131.5 1796,-112.5 1721,-112.5"/>
<text text-anchor="middle" x="1758.5" y="-119.5" font-family="Helvetica,sans-Serif" font-size="10.00">FieldRepo.H</text>
</a>
</g>
</g>
<!-- Node1&#45;&gt;Node2 -->
<g id="edge1" class="edge">
<title>Node1&#45;&gt;Node2</title>
<path fill="none" stroke="midnightblue" d="M939.15,-174.39C1086.27,-165.16 1580.22,-134.18 1720.85,-125.36"/>
<polygon fill="midnightblue" stroke="midnightblue" points="938.93,-170.89 929.16,-175.01 939.36,-177.88 938.93,-170.89"/>
</g>
<!-- Node227 -->
<g id="node19" class="node">
<title>Node227</title>
<g id="a_node19"><a xlink:href="_int_field_8cpp.html" target="_top" xlink:title=" ">
<polygon fill="white" stroke="black" points="0,-56.5 0,-75.5 73,-75.5 73,-56.5 0,-56.5"/>
<text text-anchor="middle" x="36.5" y="-63.5" font-family="Helvetica,sans-Serif" font-size="10.00">IntField.cpp</text>
</a>
</g>
</g>
<!-- Node1&#45;&gt;Node227 -->
<g id="edge70" class="edge">
<title>Node1&#45;&gt;Node227</title>
<path fill="none" stroke="midnightblue" d="M855.56,-172.53C735.56,-159.57 380.65,-120.11 87.5,-76 82.88,-75.3 78.03,-74.52 73.23,-73.71"/>
<polygon fill="midnightblue" stroke="midnightblue" points="855.45,-176.04 865.77,-173.63 856.2,-169.08 855.45,-176.04"/>
</g>
<!-- Node3 -->
<g id="node3" class="node">
<title>Node3</title>
<g id="a_node3"><a xlink:href="_b_c_interface_8cpp.html" target="_top" xlink:title=" ">
<polygon fill="white" stroke="black" points="1788.5,-0.5 1788.5,-19.5 1882.5,-19.5 1882.5,-0.5 1788.5,-0.5"/>
<text text-anchor="middle" x="1835.5" y="-7.5" font-family="Helvetica,sans-Serif" font-size="10.00">BCInterface.cpp</text>
</a>
</g>
</g>
<!-- Node2&#45;&gt;Node3 -->
<g id="edge2" class="edge">
<title>Node2&#45;&gt;Node3</title>
<path fill="none" stroke="midnightblue" d="M1806.07,-120.09C1839.22,-116.66 1881.33,-106.1 1903.5,-76 1920.35,-53.12 1882.88,-31.32 1857.15,-19.69"/>
<polygon fill="midnightblue" stroke="midnightblue" points="1805.76,-116.6 1796.1,-120.94 1806.36,-123.58 1805.76,-116.6"/>
</g>
<!-- Node4 -->
<g id="node4" class="node">
<title>Node4</title>
<g id="a_node4"><a xlink:href="_fixed_gradient_b_c_8_h.html" target="_top" xlink:title=" ">
<polygon fill="white" stroke="red" points="1786.5,-56.5 1786.5,-75.5 1894.5,-75.5 1894.5,-56.5 1786.5,-56.5"/>
<text text-anchor="middle" x="1840.5" y="-63.5" font-family="Helvetica,sans-Serif" font-size="10.00">FixedGradientBC.H</text>
</a>
</g>
</g>
<!-- Node2&#45;&gt;Node4 -->
<g id="edge3" class="edge">
<title>Node2&#45;&gt;Node4</title>
<path fill="none" stroke="midnightblue" d="M1780.33,-106.62C1795.31,-96.76 1814.7,-83.99 1827.36,-75.65"/>
<polygon fill="midnightblue" stroke="midnightblue" points="1778.1,-103.9 1771.67,-112.32 1781.95,-109.75 1778.1,-103.9"/>
</g>
<!-- Node6 -->
<g id="node5" class="node">
<title>Node6</title>
<g id="a_node5"><a xlink:href="velocity__bcs_8_h.html" target="_top" xlink:title=" ">
<polygon fill="white" stroke="red" points="3705.5,-56.5 3705.5,-75.5 3793.5,-75.5 3793.5,-56.5 3705.5,-56.5"/>
<text text-anchor="middle" x="3749.5" y="-63.5" font-family="Helvetica,sans-Serif" font-size="10.00">velocity_bcs.H</text>
</a>
</g>
</g>
<!-- Node2&#45;&gt;Node6 -->
<g id="edge5" class="edge">
<title>Node2&#45;&gt;Node6</title>
<path fill="none" stroke="midnightblue" d="M1806.28,-120.74C2065.85,-119.17 3308.94,-109.99 3691.5,-76 3695.97,-75.6 3700.61,-75.08 3705.24,-74.48"/>
<polygon fill="midnightblue" stroke="midnightblue" points="1806.03,-117.24 1796.06,-120.8 1806.08,-124.24 1806.03,-117.24"/>
</g>
<!-- Node9 -->
<g id="node6" class="node">
<title>Node9</title>
<g id="a_node6"><a xlink:href="_c_f_d_sim_8_h.html" target="_top" xlink:title=" ">
<polygon fill="white" stroke="red" points="547.5,-56.5 547.5,-75.5 613.5,-75.5 613.5,-56.5 547.5,-56.5"/>
<text text-anchor="middle" x="580.5" y="-63.5" font-family="Helvetica,sans-Serif" font-size="10.00">CFDSim.H</text>
</a>
</g>
</g>
<!-- Node2&#45;&gt;Node9 -->
<g id="edge6" class="edge">
<title>Node2&#45;&gt;Node9</title>
<path fill="none" stroke="midnightblue" d="M1710.66,-120.05C1523.72,-116.19 842.33,-100.7 627.5,-76 622.96,-75.48 618.2,-74.76 613.53,-73.97"/>
<polygon fill="midnightblue" stroke="midnightblue" points="1710.66,-123.55 1720.73,-120.26 1710.8,-116.55 1710.66,-123.55"/>
</g>
<!-- Node53 -->
<g id="node7" class="node">
<title>Node53</title>
<g id="a_node7"><a xlink:href="_p_d_e_base_8cpp.html" target="_top" xlink:title=" ">
<polygon fill="white" stroke="black" points="321.5,-0.5 321.5,-19.5 401.5,-19.5 401.5,-0.5 321.5,-0.5"/>
<text text-anchor="middle" x="361.5" y="-7.5" font-family="Helvetica,sans-Serif" font-size="10.00">PDEBase.cpp</text>
</a>
</g>
</g>
<!-- Node2&#45;&gt;Node53 -->
<g id="edge40" class="edge">
<title>Node2&#45;&gt;Node53</title>
<path fill="none" stroke="midnightblue" d="M1710.68,-121.33C1487.31,-122.62 552.55,-125.01 432.5,-76 403.41,-64.12 378.76,-34.64 367.71,-19.81"/>
<polygon fill="midnightblue" stroke="midnightblue" points="1710.79,-124.83 1720.77,-121.27 1710.75,-117.83 1710.79,-124.83"/>
</g>
<!-- Node69 -->
<g id="node8" class="node">
<title>Node69</title>
<g id="a_node8"><a xlink:href="_i_b_8cpp.html" target="_top" xlink:title=" ">
<polygon fill="white" stroke="black" points="491,-0.5 491,-19.5 538,-19.5 538,-0.5 491,-0.5"/>
<text text-anchor="middle" x="514.5" y="-7.5" font-family="Helvetica,sans-Serif" font-size="10.00">IB.cpp</text>
</a>
</g>
</g>
<!-- Node2&#45;&gt;Node69 -->
<g id="edge49" class="edge">
<title>Node2&#45;&gt;Node69</title>
<path fill="none" stroke="midnightblue" d="M1710.76,-120.72C1491.15,-119.22 586.73,-110.95 538.5,-76 520.19,-62.73 515.83,-33.9 514.8,-19.51"/>
<polygon fill="midnightblue" stroke="midnightblue" points="1710.96,-124.22 1720.99,-120.78 1711.01,-117.22 1710.96,-124.22"/>
</g>
<!-- Node80 -->
<g id="node9" class="node">
<title>Node80</title>
<g id="a_node9"><a xlink:href="incflo_8_h.html" target="_top" xlink:title=" ">
<polygon fill="white" stroke="red" points="420,-0.5 420,-19.5 473,-19.5 473,-0.5 420,-0.5"/>
<text text-anchor="middle" x="446.5" y="-7.5" font-family="Helvetica,sans-Serif" font-size="10.00">incflo.H</text>
</a>
</g>
</g>
<!-- Node2&#45;&gt;Node80 -->
<g id="edge52" class="edge">
<title>Node2&#45;&gt;Node80</title>
<path fill="none" stroke="midnightblue" d="M1710.9,-121.2C1480.39,-121.94 489.34,-122.4 444.5,-76 429.91,-60.9 437.58,-33.43 442.86,-19.53"/>
<polygon fill="midnightblue" stroke="midnightblue" points="1710.99,-124.7 1720.98,-121.17 1710.97,-117.7 1710.99,-124.7"/>
</g>
<!-- Node92 -->
<g id="node10" class="node">
<title>Node92</title>
<g id="a_node10"><a xlink:href="_ocean_waves_8cpp.html" target="_top" xlink:title=" ">
<polygon fill="white" stroke="black" points="197.5,-0.5 197.5,-19.5 297.5,-19.5 297.5,-0.5 197.5,-0.5"/>
<text text-anchor="middle" x="247.5" y="-7.5" font-family="Helvetica,sans-Serif" font-size="10.00">OceanWaves.cpp</text>
</a>
</g>
</g>
<!-- Node2&#45;&gt;Node92 -->
<g id="edge53" class="edge">
<title>Node2&#45;&gt;Node92</title>
<path fill="none" stroke="midnightblue" d="M1710.47,-121.13C1461.28,-121.58 324.89,-121.15 266.5,-76 249.2,-62.62 247.01,-34.37 247.1,-19.92"/>
<polygon fill="midnightblue" stroke="midnightblue" points="1710.66,-124.62 1720.65,-121.11 1710.65,-117.62 1710.66,-124.62"/>
</g>
<!-- Node101 -->
<g id="node11" class="node">
<title>Node101</title>
<g id="a_node11"><a xlink:href="_tioga_interface_8cpp.html" target="_top" xlink:title=" ">
<polygon fill="white" stroke="black" points="556,-0.5 556,-19.5 663,-19.5 663,-0.5 556,-0.5"/>
<text text-anchor="middle" x="609.5" y="-7.5" font-family="Helvetica,sans-Serif" font-size="10.00">TiogaInterface.cpp</text>
</a>
</g>
</g>
<!-- Node2&#45;&gt;Node101 -->
<g id="edge58" class="edge">
<title>Node2&#45;&gt;Node101</title>
<path fill="none" stroke="midnightblue" d="M1710.53,-120.75C1515.22,-119.51 785.66,-112.43 689.5,-76 658.04,-64.08 629.64,-34.61 616.78,-19.8"/>
<polygon fill="midnightblue" stroke="midnightblue" points="1710.74,-124.25 1720.76,-120.82 1710.79,-117.25 1710.74,-124.25"/>
</g>
<!-- Node128 -->
<g id="node12" class="node">
<title>Node128</title>
<g id="a_node12"><a xlink:href="_vortex_ring_8cpp.html" target="_top" xlink:title=" ">
<polygon fill="white" stroke="black" points="681.5,-0.5 681.5,-19.5 771.5,-19.5 771.5,-0.5 681.5,-0.5"/>
<text text-anchor="middle" x="726.5" y="-7.5" font-family="Helvetica,sans-Serif" font-size="10.00">VortexRing.cpp</text>
</a>
</g>
</g>
<!-- Node2&#45;&gt;Node128 -->
<g id="edge64" class="edge">
<title>Node2&#45;&gt;Node128</title>
<path fill="none" stroke="midnightblue" d="M1710.67,-120.79C1508.64,-119.67 733.95,-112.99 698.5,-76 682.86,-59.68 704.17,-33.24 717.39,-19.66"/>
<polygon fill="midnightblue" stroke="midnightblue" points="1710.94,-124.29 1720.95,-120.84 1710.97,-117.29 1710.94,-124.29"/>
</g>
<!-- Node139 -->
<g id="node13" class="node">
<title>Node139</title>
<g id="a_node13"><a xlink:href="_re_averaging_8cpp.html" target="_top" xlink:title=" ">
<polygon fill="white" stroke="black" points="981.5,-0.5 981.5,-19.5 1079.5,-19.5 1079.5,-0.5 981.5,-0.5"/>
<text text-anchor="middle" x="1030.5" y="-7.5" font-family="Helvetica,sans-Serif" font-size="10.00">ReAveraging.cpp</text>
</a>
</g>
</g>
<!-- Node2&#45;&gt;Node139 -->
<g id="edge67" class="edge">
<title>Node2&#45;&gt;Node139</title>
<path fill="none" stroke="midnightblue" d="M1748.75,-103.65C1739,-88.15 1722.45,-66.35 1701.5,-56 1646.19,-28.67 1224.76,-15.79 1079.52,-12.13"/>
<polygon fill="midnightblue" stroke="midnightblue" points="1745.8,-105.53 1753.93,-112.32 1751.81,-101.94 1745.8,-105.53"/>
</g>
<!-- Node140 -->
<g id="node14" class="node">
<title>Node140</title>
<g id="a_node14"><a xlink:href="_reynolds_stress_8cpp.html" target="_top" xlink:title=" ">
<polygon fill="white" stroke="black" points="1471.5,-0.5 1471.5,-19.5 1583.5,-19.5 1583.5,-0.5 1471.5,-0.5"/>
<text text-anchor="middle" x="1527.5" y="-7.5" font-family="Helvetica,sans-Serif" font-size="10.00">ReynoldsStress.cpp</text>
</a>
</g>
</g>
<!-- Node2&#45;&gt;Node140 -->
<g id="edge68" class="edge">
<title>Node2&#45;&gt;Node140</title>
<path fill="none" stroke="midnightblue" d="M1756.48,-102.36C1753.88,-87.64 1747.96,-67.7 1734.5,-56 1712.3,-36.7 1636.99,-23.95 1583.63,-17.1"/>
<polygon fill="midnightblue" stroke="midnightblue" points="1753.03,-102.96 1757.89,-112.37 1759.96,-101.98 1753.03,-102.96"/>
</g>
<!-- Node218 -->
<g id="node15" class="node">
<title>Node218</title>
<g id="a_node15"><a xlink:href="_godunov_8_h.html" target="_top" xlink:title=" ">
<polygon fill="white" stroke="red" points="707.5,-56.5 707.5,-75.5 777.5,-75.5 777.5,-56.5 707.5,-56.5"/>
<text text-anchor="middle" x="742.5" y="-63.5" font-family="Helvetica,sans-Serif" font-size="10.00">Godunov.H</text>
</a>
</g>
</g>
<!-- Node2&#45;&gt;Node218 -->
<g id="edge15" class="edge">
<title>Node2&#45;&gt;Node218</title>
<path fill="none" stroke="midnightblue" d="M1710.71,-121.41C1569.05,-122.06 1139.34,-119.98 786.5,-76 783.71,-75.65 780.84,-75.23 777.96,-74.75"/>
<polygon fill="midnightblue" stroke="midnightblue" points="1710.81,-124.91 1720.79,-121.36 1710.77,-117.91 1710.81,-124.91"/>
</g>
<!-- Node223 -->
<g id="node16" class="node">
<title>Node223</title>
<g id="a_node16"><a xlink:href="_m_o_l_8_h.html" target="_top" xlink:title=" ">
<polygon fill="white" stroke="red" points="796,-56.5 796,-75.5 845,-75.5 845,-56.5 796,-56.5"/>
<text text-anchor="middle" x="820.5" y="-63.5" font-family="Helvetica,sans-Serif" font-size="10.00">MOL.H</text>
</a>
</g>
</g>
<!-- Node2&#45;&gt;Node223 -->
<g id="edge16" class="edge">
<title>Node2&#45;&gt;Node223</title>
<path fill="none" stroke="midnightblue" d="M1710.66,-119.94C1548.72,-116.14 1021.92,-102.03 854.5,-76 851.48,-75.53 848.35,-74.9 845.26,-74.19"/>
<polygon fill="midnightblue" stroke="midnightblue" points="1710.71,-123.44 1720.79,-120.17 1710.88,-116.44 1710.71,-123.44"/>
</g>
<!-- Node225 -->
<g id="node17" class="node">
<title>Node225</title>
<g id="a_node17"><a xlink:href="_field_8cpp.html" target="_top" xlink:title=" ">
<polygon fill="white" stroke="black" points="863.5,-56.5 863.5,-75.5 923.5,-75.5 923.5,-56.5 863.5,-56.5"/>
<text text-anchor="middle" x="893.5" y="-63.5" font-family="Helvetica,sans-Serif" font-size="10.00">Field.cpp</text>
</a>
</g>
</g>
<!-- Node2&#45;&gt;Node225 -->
<g id="edge17" class="edge">
<title>Node2&#45;&gt;Node225</title>
<path fill="none" stroke="midnightblue" d="M1710.63,-121.27C1583.32,-121.35 1226.06,-117.55 932.5,-76 929.61,-75.59 926.62,-75.07 923.64,-74.5"/>
<polygon fill="midnightblue" stroke="midnightblue" points="1710.82,-124.77 1720.82,-121.25 1710.81,-117.77 1710.82,-124.77"/>
</g>
<!-- Node226 -->
<g id="node18" class="node">
<title>Node226</title>
<g id="a_node18"><a xlink:href="_field_repo_8cpp.html" target="_top" xlink:title=" ">
<polygon fill="white" stroke="black" points="942,-56.5 942,-75.5 1027,-75.5 1027,-56.5 942,-56.5"/>
<text text-anchor="middle" x="984.5" y="-63.5" font-family="Helvetica,sans-Serif" font-size="10.00">FieldRepo.cpp</text>
</a>
</g>
</g>
<!-- Node2&#45;&gt;Node226 -->
<g id="edge18" class="edge">
<title>Node2&#45;&gt;Node226</title>
<path fill="none" stroke="midnightblue" d="M1710.4,-119.88C1594.11,-116.75 1288.6,-106.11 1035.5,-76 1032.73,-75.67 1029.89,-75.29 1027.02,-74.87"/>
<polygon fill="midnightblue" stroke="midnightblue" points="1710.64,-123.38 1720.73,-120.15 1710.83,-116.39 1710.64,-123.38"/>
</g>
<!-- Node2&#45;&gt;Node227 -->
<g id="edge19" class="edge">
<title>Node2&#45;&gt;Node227</title>
<path fill="none" stroke="midnightblue" d="M1710.87,-120.67C1473.31,-118.87 414.86,-109.11 87.5,-76 82.85,-75.53 77.98,-74.88 73.18,-74.14"/>
<polygon fill="midnightblue" stroke="midnightblue" points="1710.89,-124.17 1720.92,-120.74 1710.95,-117.17 1710.89,-124.17"/>
</g>
<!-- Node228 -->
<g id="node20" class="node">
<title>Node228</title>
<g id="a_node20"><a xlink:href="_int_scratch_field_8cpp.html" target="_top" xlink:title=" ">
<polygon fill="white" stroke="black" points="1045,-56.5 1045,-75.5 1154,-75.5 1154,-56.5 1045,-56.5"/>
<text text-anchor="middle" x="1099.5" y="-63.5" font-family="Helvetica,sans-Serif" font-size="10.00">IntScratchField.cpp</text>
</a>
</g>
</g>
<!-- Node2&#45;&gt;Node228 -->
<g id="edge20" class="edge">
<title>Node2&#45;&gt;Node228</title>
<path fill="none" stroke="midnightblue" d="M1710.63,-118.43C1609.44,-112.75 1366.43,-97.92 1163.5,-76 1160.49,-75.67 1157.4,-75.32 1154.28,-74.94"/>
<polygon fill="midnightblue" stroke="midnightblue" points="1710.65,-121.93 1720.83,-118.99 1711.04,-114.94 1710.65,-121.93"/>
</g>
<!-- Node229 -->
<g id="node21" class="node">
<title>Node229</title>
<g id="a_node21"><a xlink:href="_scratch_field_8cpp.html" target="_top" xlink:title=" ">
<polygon fill="white" stroke="black" points="1172.5,-56.5 1172.5,-75.5 1268.5,-75.5 1268.5,-56.5 1172.5,-56.5"/>
<text text-anchor="middle" x="1220.5" y="-63.5" font-family="Helvetica,sans-Serif" font-size="10.00">ScratchField.cpp</text>
</a>
</g>
</g>
<!-- Node2&#45;&gt;Node229 -->
<g id="edge21" class="edge">
<title>Node2&#45;&gt;Node229</title>
<path fill="none" stroke="midnightblue" d="M1710.96,-117.56C1624.51,-111.07 1435.83,-95.89 1277.5,-76 1274.62,-75.64 1271.66,-75.24 1268.67,-74.83"/>
<polygon fill="midnightblue" stroke="midnightblue" points="1710.76,-121.05 1720.99,-118.3 1711.28,-114.07 1710.76,-121.05"/>
</g>
<!-- Node230 -->
<g id="node22" class="node">
<title>Node230</title>
<g id="a_node22"><a xlink:href="_view_field_8cpp.html" target="_top" xlink:title=" ">
<polygon fill="white" stroke="black" points="1286.5,-56.5 1286.5,-75.5 1370.5,-75.5 1370.5,-56.5 1286.5,-56.5"/>
<text text-anchor="middle" x="1328.5" y="-63.5" font-family="Helvetica,sans-Serif" font-size="10.00">ViewField.cpp</text>
</a>
</g>
</g>
<!-- Node2&#45;&gt;Node230 -->
<g id="edge22" class="edge">
<title>Node2&#45;&gt;Node230</title>
<path fill="none" stroke="midnightblue" d="M1710.63,-116.19C1638.63,-108.76 1498.21,-93.51 1379.5,-76 1376.65,-75.58 1373.72,-75.12 1370.77,-74.65"/>
<polygon fill="midnightblue" stroke="midnightblue" points="1710.45,-119.69 1720.75,-117.23 1711.16,-112.73 1710.45,-119.69"/>
</g>
<!-- Node231 -->
<g id="node23" class="node">
<title>Node231</title>
<g id="a_node23"><a xlink:href="field__algebra_8cpp.html" target="_top" xlink:title=" ">
<polygon fill="white" stroke="black" points="1388.5,-56.5 1388.5,-75.5 1488.5,-75.5 1488.5,-56.5 1388.5,-56.5"/>
<text text-anchor="middle" x="1438.5" y="-63.5" font-family="Helvetica,sans-Serif" font-size="10.00">field_algebra.cpp</text>
</a>
</g>
</g>
<!-- Node2&#45;&gt;Node231 -->
<g id="edge23" class="edge">
<title>Node2&#45;&gt;Node231</title>
<path fill="none" stroke="midnightblue" d="M1710.94,-112.97C1651.27,-102.91 1549.43,-85.72 1488.6,-75.45"/>
<polygon fill="midnightblue" stroke="midnightblue" points="1710.41,-116.43 1720.85,-114.65 1711.57,-109.53 1710.41,-116.43"/>
</g>
<!-- Node232 -->
<g id="node24" class="node">
<title>Node232</title>
<g id="a_node24"><a xlink:href="diffusion_8_h.html" target="_top" xlink:title=" ">
<polygon fill="white" stroke="red" points="1507,-56.5 1507,-75.5 1576,-75.5 1576,-56.5 1507,-56.5"/>
<text text-anchor="middle" x="1541.5" y="-63.5" font-family="Helvetica,sans-Serif" font-size="10.00">diffusion.H</text>
</a>
</g>
</g>
<!-- Node2&#45;&gt;Node232 -->
<g id="edge24" class="edge">
<title>Node2&#45;&gt;Node232</title>
<path fill="none" stroke="midnightblue" d="M1714.39,-110.02C1673.4,-99.82 1613.2,-84.84 1575.72,-75.52"/>
<polygon fill="midnightblue" stroke="midnightblue" points="1713.57,-113.43 1724.12,-112.44 1715.26,-106.63 1713.57,-113.43"/>
</g>
<!-- Node233 -->
<g id="node25" class="node">
<title>Node233</title>
<g id="a_node25"><a xlink:href="_density_source_8_h.html" target="_top" xlink:title=" ">
<polygon fill="white" stroke="red" points="1594.5,-56.5 1594.5,-75.5 1692.5,-75.5 1692.5,-56.5 1594.5,-56.5"/>
<text text-anchor="middle" x="1643.5" y="-63.5" font-family="Helvetica,sans-Serif" font-size="10.00">DensitySource.H</text>
</a>
</g>
</g>
<!-- Node2&#45;&gt;Node233 -->
<g id="edge25" class="edge">
<title>Node2&#45;&gt;Node233</title>
<path fill="none" stroke="midnightblue" d="M1731.02,-108.1C1709.53,-98.01 1680.28,-84.27 1661.64,-75.52"/>
<polygon fill="midnightblue" stroke="midnightblue" points="1729.74,-111.36 1740.28,-112.44 1732.71,-105.02 1729.74,-111.36"/>
</g>
<!-- Node234 -->
<g id="node26" class="node">
<title>Node234</title>
<g id="a_node26"><a xlink:href="_momentum_source_8_h.html" target="_top" xlink:title=" ">
<polygon fill="white" stroke="red" points="2064.5,-56.5 2064.5,-75.5 2180.5,-75.5 2180.5,-56.5 2064.5,-56.5"/>
<text text-anchor="middle" x="2122.5" y="-63.5" font-family="Helvetica,sans-Serif" font-size="10.00">MomentumSource.H</text>
</a>
</g>
</g>
<!-- Node2&#45;&gt;Node234 -->
<g id="edge26" class="edge">
<title>Node2&#45;&gt;Node234</title>
<path fill="none" stroke="midnightblue" d="M1806.29,-113.91C1872.88,-104.03 1993.41,-86.15 2064.88,-75.55"/>
<polygon fill="midnightblue" stroke="midnightblue" points="1805.46,-110.49 1796.08,-115.42 1806.49,-117.42 1805.46,-110.49"/>
</g>
<!-- Node148 -->
<g id="node27" class="node">
<title>Node148</title>
<g id="a_node27"><a xlink:href="_a_b_l_mean_boussinesq_8_h.html" target="_top" xlink:title=" ">
<polygon fill="white" stroke="red" points="1900.5,-0.5 1900.5,-19.5 2028.5,-19.5 2028.5,-0.5 1900.5,-0.5"/>
<text text-anchor="middle" x="1964.5" y="-7.5" font-family="Helvetica,sans-Serif" font-size="10.00">ABLMeanBoussinesq.H</text>
</a>
</g>
</g>
<!-- Node2&#45;&gt;Node148 -->
<g id="edge34" class="edge">
<title>Node2&#45;&gt;Node148</title>
<path fill="none" stroke="midnightblue" d="M1806.37,-116.55C1840.79,-111.37 1886.89,-100.17 1920.5,-76 1941.08,-61.2 1954.98,-33.6 1961.05,-19.6"/>
<polygon fill="midnightblue" stroke="midnightblue" points="1805.51,-113.14 1796.08,-117.98 1806.47,-120.07 1805.51,-113.14"/>
</g>
<!-- Node238 -->
<g id="node28" class="node">
<title>Node238</title>
<g id="a_node28"><a xlink:href="_boussinesq_buoyancy_8_h.html" target="_top" xlink:title=" ">
<polygon fill="white" stroke="red" points="2047,-0.5 2047,-19.5 2176,-19.5 2176,-0.5 2047,-0.5"/>
<text text-anchor="middle" x="2111.5" y="-7.5" font-family="Helvetica,sans-Serif" font-size="10.00">BoussinesqBuoyancy.H</text>
</a>
</g>
</g>
<!-- Node2&#45;&gt;Node238 -->
<g id="edge35" class="edge">
<title>Node2&#45;&gt;Node238</title>
<path fill="none" stroke="midnightblue" d="M1806.54,-111.23C1844.39,-103.09 1898.29,-90.51 1944.5,-76 1998.97,-58.9 2061.16,-32.92 2092.01,-19.57"/>
<polygon fill="midnightblue" stroke="midnightblue" points="1805.36,-107.9 1796.31,-113.41 1806.82,-114.75 1805.36,-107.9"/>
</g>
<!-- Node239 -->
<g id="node29" class="node">
<title>Node239</title>
<g id="a_node29"><a xlink:href="_coriolis_forcing_8_h.html" target="_top" xlink:title=" ">
<polygon fill="white" stroke="red" points="2194,-0.5 2194,-19.5 2293,-19.5 2293,-0.5 2194,-0.5"/>
<text text-anchor="middle" x="2243.5" y="-7.5" font-family="Helvetica,sans-Serif" font-size="10.00">CoriolisForcing.H</text>
</a>
</g>
</g>
<!-- Node2&#45;&gt;Node239 -->
<g id="edge36" class="edge">
<title>Node2&#45;&gt;Node239</title>
<path fill="none" stroke="midnightblue" d="M1806.29,-112.82C1852.61,-104.6 1924.72,-91.02 1986.5,-76 2017.53,-68.46 2024.63,-64.16 2055.5,-56 2107.25,-42.31 2167.49,-28.21 2205.56,-19.53"/>
<polygon fill="midnightblue" stroke="midnightblue" points="1805.48,-109.41 1796.24,-114.59 1806.7,-116.3 1805.48,-109.41"/>
</g>
<!-- Node240 -->
<g id="node30" class="node">
<title>Node240</title>
<g id="a_node30"><a xlink:href="_density_buoyancy_8_h.html" target="_top" xlink:title=" ">
<polygon fill="white" stroke="red" points="2879,-0.5 2879,-19.5 2990,-19.5 2990,-0.5 2879,-0.5"/>
<text text-anchor="middle" x="2934.5" y="-7.5" font-family="Helvetica,sans-Serif" font-size="10.00">DensityBuoyancy.H</text>
</a>
</g>
</g>
<!-- Node2&#45;&gt;Node240 -->
<g id="edge37" class="edge">
<title>Node2&#45;&gt;Node240</title>
<path fill="none" stroke="midnightblue" d="M1806.37,-120.76C2094.6,-119.19 3587.85,-109.45 3620.5,-76 3626.71,-69.64 3626.58,-62.49 3620.5,-56 3599.05,-33.09 3149.58,-17.45 2990.06,-12.6"/>
<polygon fill="midnightblue" stroke="midnightblue" points="1806.22,-117.26 1796.24,-120.81 1806.26,-124.26 1806.22,-117.26"/>
</g>
<!-- Node242 -->
<g id="node31" class="node">
<title>Node242</title>
<g id="a_node31"><a xlink:href="_gravity_forcing_8_h.html" target="_top" xlink:title=" ">
<polygon fill="white" stroke="red" points="3292.5,-0.5 3292.5,-19.5 3390.5,-19.5 3390.5,-0.5 3292.5,-0.5"/>
<text text-anchor="middle" x="3341.5" y="-7.5" font-family="Helvetica,sans-Serif" font-size="10.00">GravityForcing.H</text>
</a>
</g>
</g>
<!-- Node2&#45;&gt;Node242 -->
<g id="edge38" class="edge">
<title>Node2&#45;&gt;Node242</title>
<path fill="none" stroke="midnightblue" d="M1806.34,-120.77C2096.06,-119.26 3604.53,-109.77 3637.5,-76 3643.71,-69.64 3643.29,-62.74 3637.5,-56 3606.25,-19.63 3466.3,-12.31 3390.56,-11.06"/>
<polygon fill="midnightblue" stroke="midnightblue" points="1806.14,-117.27 1796.16,-120.82 1806.18,-124.27 1806.14,-117.27"/>
</g>
<!-- Node149 -->
<g id="node32" class="node">
<title>Node149</title>
<g id="a_node32"><a xlink:href="_hurricane_forcing_8_h.html" target="_top" xlink:title=" ">
<polygon fill="white" stroke="red" points="3550.5,-0.5 3550.5,-19.5 3660.5,-19.5 3660.5,-0.5 3550.5,-0.5"/>
<text text-anchor="middle" x="3605.5" y="-7.5" font-family="Helvetica,sans-Serif" font-size="10.00">HurricaneForcing.H</text>
</a>
</g>
</g>
<!-- Node2&#45;&gt;Node149 -->
<g id="edge39" class="edge">
<title>Node2&#45;&gt;Node149</title>
<path fill="none" stroke="midnightblue" d="M1806.61,-120.86C2111.78,-119.88 3766.45,-112.85 3802.5,-76 3847.52,-29.98 3733.62,-16.54 3660.79,-12.61"/>
<polygon fill="midnightblue" stroke="midnightblue" points="1806.32,-117.36 1796.33,-120.89 1806.34,-124.36 1806.32,-117.36"/>
</g>
<!-- Node244 -->
<g id="node33" class="node">
<title>Node244</title>
<g id="a_node33"><a xlink:href="_m_m_s_forcing_8_h.html" target="_top" xlink:title=" ">
<polygon fill="white" stroke="red" points="3749.5,-0.5 3749.5,-19.5 3835.5,-19.5 3835.5,-0.5 3749.5,-0.5"/>
<text text-anchor="middle" x="3792.5" y="-7.5" font-family="Helvetica,sans-Serif" font-size="10.00">MMSForcing.H</text>
</a>
</g>
</g>
<!-- Node2&#45;&gt;Node244 -->
<g id="edge59" class="edge">
<title>Node2&#45;&gt;Node244</title>
<path fill="none" stroke="midnightblue" d="M1806.57,-120.87C2113.28,-119.95 3785.09,-113.21 3821.5,-76 3837.4,-59.75 3815.46,-33.28 3801.86,-19.68"/>
<polygon fill="midnightblue" stroke="midnightblue" points="1806.23,-117.37 1796.24,-120.9 1806.25,-124.37 1806.23,-117.37"/>
</g>
<!-- Node245 -->
<g id="node34" class="node">
<title>Node245</title>
<g id="a_node34"><a xlink:href="_p_d_e_helpers_8_h.html" target="_top" xlink:title=" ">
<polygon fill="white" stroke="red" points="275.5,-56.5 275.5,-75.5 359.5,-75.5 359.5,-56.5 275.5,-56.5"/>
<text text-anchor="middle" x="317.5" y="-63.5" font-family="Helvetica,sans-Serif" font-size="10.00">PDEHelpers.H</text>
</a>
</g>
</g>
<!-- Node2&#45;&gt;Node245 -->
<g id="edge41" class="edge">
<title>Node2&#45;&gt;Node245</title>
<path fill="none" stroke="midnightblue" d="M1710.78,-120.26C1498.82,-116.87 641.38,-101.77 373.5,-76 368.99,-75.57 364.29,-75 359.62,-74.36"/>
<polygon fill="midnightblue" stroke="midnightblue" points="1710.9,-123.77 1720.95,-120.43 1711.01,-116.77 1710.9,-123.77"/>
</g>
<!-- Node246 -->
<g id="node35" class="node">
<title>Node246</title>
<g id="a_node35"><a xlink:href="_s_d_r_source_8_h.html" target="_top" xlink:title=" ">
<polygon fill="white" stroke="red" points="2198.5,-56.5 2198.5,-75.5 2278.5,-75.5 2278.5,-56.5 2198.5,-56.5"/>
<text text-anchor="middle" x="2238.5" y="-63.5" font-family="Helvetica,sans-Serif" font-size="10.00">SDRSource.H</text>
</a>
</g>
</g>
<!-- Node2&#45;&gt;Node246 -->
<g id="edge43" class="edge">
<title>Node2&#45;&gt;Node246</title>
<path fill="none" stroke="midnightblue" d="M1806.3,-117.23C1885.98,-110.67 2050.89,-95.94 2189.5,-76 2192.41,-75.58 2195.41,-75.12 2198.43,-74.62"/>
<polygon fill="midnightblue" stroke="midnightblue" points="1805.78,-113.76 1796.09,-118.06 1806.35,-120.74 1805.78,-113.76"/>
</g>
<!-- Node248 -->
<g id="node36" class="node">
<title>Node248</title>
<g id="a_node36"><a xlink:href="_source_term_8_h.html" target="_top" xlink:title=" ">
<polygon fill="white" stroke="red" points="2296.5,-56.5 2296.5,-75.5 2380.5,-75.5 2380.5,-56.5 2296.5,-56.5"/>
<text text-anchor="middle" x="2338.5" y="-63.5" font-family="Helvetica,sans-Serif" font-size="10.00">SourceTerm.H</text>
</a>
</g>
</g>
<!-- Node2&#45;&gt;Node248 -->
<g id="edge44" class="edge">
<title>Node2&#45;&gt;Node248</title>
<path fill="none" stroke="midnightblue" d="M1806.36,-118.37C1899.35,-112.95 2110.83,-99.06 2287.5,-76 2290.35,-75.63 2293.29,-75.21 2296.24,-74.76"/>
<polygon fill="midnightblue" stroke="midnightblue" points="1805.93,-114.89 1796.15,-118.96 1806.33,-121.88 1805.93,-114.89"/>
</g>
<!-- Node249 -->
<g id="node37" class="node">
<title>Node249</title>
<g id="a_node37"><a xlink:href="_temperature_source_8_h.html" target="_top" xlink:title=" ">
<polygon fill="white" stroke="red" points="2398.5,-56.5 2398.5,-75.5 2520.5,-75.5 2520.5,-56.5 2398.5,-56.5"/>
<text text-anchor="middle" x="2459.5" y="-63.5" font-family="Helvetica,sans-Serif" font-size="10.00">TemperatureSource.H</text>
</a>
</g>
</g>
<!-- Node2&#45;&gt;Node249 -->
<g id="edge45" class="edge">
<title>Node2&#45;&gt;Node249</title>
<path fill="none" stroke="midnightblue" d="M1806.27,-118.52C1911.69,-112.84 2172.16,-97.7 2389.5,-76 2392.43,-75.71 2395.42,-75.39 2398.44,-75.06"/>
<polygon fill="midnightblue" stroke="midnightblue" points="1806.06,-115.03 1796.26,-119.06 1806.43,-122.02 1806.06,-115.03"/>
</g>
<!-- Node250 -->
<g id="node38" class="node">
<title>Node250</title>
<g id="a_node38"><a xlink:href="_t_k_e_source_8_h.html" target="_top" xlink:title=" ">
<polygon fill="white" stroke="red" points="2539,-56.5 2539,-75.5 2618,-75.5 2618,-56.5 2539,-56.5"/>
<text text-anchor="middle" x="2578.5" y="-63.5" font-family="Helvetica,sans-Serif" font-size="10.00">TKESource.H</text>
</a>
</g>
</g>
<!-- Node2&#45;&gt;Node250 -->
<g id="edge46" class="edge">
<title>Node2&#45;&gt;Node250</title>
<path fill="none" stroke="midnightblue" d="M1806.43,-120.26C1927.85,-117.92 2257.22,-108.82 2529.5,-76 2532.59,-75.63 2535.78,-75.18 2538.98,-74.69"/>
<polygon fill="midnightblue" stroke="midnightblue" points="1806.29,-116.76 1796.35,-120.44 1806.42,-123.76 1806.29,-116.76"/>
</g>
<!-- Node254 -->
<g id="node39" class="node">
<title>Node254</title>
<g id="a_node39"><a xlink:href="_split_advection_8_h.html" target="_top" xlink:title=" ">
<polygon fill="white" stroke="red" points="2635.5,-56.5 2635.5,-75.5 2733.5,-75.5 2733.5,-56.5 2635.5,-56.5"/>
<text text-anchor="middle" x="2684.5" y="-63.5" font-family="Helvetica,sans-Serif" font-size="10.00">SplitAdvection.H</text>
</a>
</g>
</g>
<!-- Node2&#45;&gt;Node254 -->
<g id="edge47" class="edge">
<title>Node2&#45;&gt;Node254</title>
<path fill="none" stroke="midnightblue" d="M1806.38,-120.23C1937.76,-117.76 2314.85,-108.17 2626.5,-76 2629.44,-75.7 2632.46,-75.35 2635.5,-74.96"/>
<polygon fill="midnightblue" stroke="midnightblue" points="1806.19,-116.74 1796.25,-120.42 1806.32,-123.73 1806.19,-116.74"/>
</g>
<!-- Node256 -->
<g id="node40" class="node">
<title>Node256</title>
<g id="a_node40"><a xlink:href="fvm__utils_8_h.html" target="_top" xlink:title=" ">
<polygon fill="white" stroke="red" points="2752,-56.5 2752,-75.5 2825,-75.5 2825,-56.5 2752,-56.5"/>
<text text-anchor="middle" x="2788.5" y="-63.5" font-family="Helvetica,sans-Serif" font-size="10.00">fvm_utils.H</text>
</a>
</g>
</g>
<!-- Node2&#45;&gt;Node256 -->
<g id="edge48" class="edge">
<title>Node2&#45;&gt;Node256</title>
<path fill="none" stroke="midnightblue" d="M1806.37,-121.31C1949.21,-121.68 2384.7,-118.95 2742.5,-76 2745.57,-75.63 2748.74,-75.17 2751.92,-74.66"/>
<polygon fill="midnightblue" stroke="midnightblue" points="1806.21,-117.8 1796.2,-121.27 1806.19,-124.8 1806.21,-117.8"/>
</g>
<!-- Node267 -->
<g id="node41" class="node">
<title>Node267</title>
<g id="a_node41"><a xlink:href="_i_b_8_h.html" target="_top" xlink:title=" ">
<polygon fill="white" stroke="red" points="454,-56.5 454,-75.5 491,-75.5 491,-56.5 454,-56.5"/>
<text text-anchor="middle" x="472.5" y="-63.5" font-family="Helvetica,sans-Serif" font-size="10.00">IB.H</text>
</a>
</g>
</g>
<!-- Node2&#45;&gt;Node267 -->
<g id="edge50" class="edge">
<title>Node2&#45;&gt;Node267</title>
<path fill="none" stroke="midnightblue" d="M1710.78,-120.75C1511.41,-119.5 744.4,-112.37 505.5,-76 500.8,-75.29 495.82,-74.14 491.19,-72.9"/>
<polygon fill="midnightblue" stroke="midnightblue" points="1710.91,-124.26 1720.93,-120.82 1710.95,-117.26 1710.91,-124.26"/>
</g>
<!-- Node268 -->
<g id="node42" class="node">
<title>Node268</title>
<g id="a_node42"><a xlink:href="_ocean_waves_8_h.html" target="_top" xlink:title=" ">
<polygon fill="white" stroke="red" points="129.5,-56.5 129.5,-75.5 219.5,-75.5 219.5,-56.5 129.5,-56.5"/>
<text text-anchor="middle" x="174.5" y="-63.5" font-family="Helvetica,sans-Serif" font-size="10.00">OceanWaves.H</text>
</a>
</g>
</g>
<!-- Node2&#45;&gt;Node268 -->
<g id="edge54" class="edge">
<title>Node2&#45;&gt;Node268</title>
<path fill="none" stroke="midnightblue" d="M1710.78,-120.38C1485.93,-117.32 530.66,-102.95 233.5,-76 228.96,-75.59 224.24,-75.05 219.53,-74.45"/>
<polygon fill="midnightblue" stroke="midnightblue" points="1710.89,-123.88 1720.93,-120.51 1710.98,-116.88 1710.89,-123.88"/>
</g>
<!-- Node58 -->
<g id="node43" class="node">
<title>Node58</title>
<g id="a_node43"><a xlink:href="hos__waves__ops_8_h.html" target="_top" xlink:title=" ">
<polygon fill="white" stroke="red" points="62.5,-0.5 62.5,-19.5 166.5,-19.5 166.5,-0.5 62.5,-0.5"/>
<text text-anchor="middle" x="114.5" y="-7.5" font-family="Helvetica,sans-Serif" font-size="10.00">hos_waves_ops.H</text>
</a>
</g>
</g>
<!-- Node2&#45;&gt;Node58 -->
<g id="edge57" class="edge">
<title>Node2&#45;&gt;Node58</title>
<path fill="none" stroke="midnightblue" d="M1710.64,-120.55C1443.75,-117.95 150.28,-103.91 120.5,-76 105.12,-61.58 108.92,-33.8 112.15,-19.69"/>
<polygon fill="midnightblue" stroke="midnightblue" points="1710.75,-124.05 1720.78,-120.65 1710.81,-117.05 1710.75,-124.05"/>
</g>
<!-- Node269 -->
<g id="node44" class="node">
<title>Node269</title>
<g id="a_node44"><a xlink:href="hydrostatic__ops_8_h.html" target="_top" xlink:title=" ">
<polygon fill="white" stroke="red" points="2843.5,-56.5 2843.5,-75.5 2947.5,-75.5 2947.5,-56.5 2843.5,-56.5"/>
<text text-anchor="middle" x="2895.5" y="-63.5" font-family="Helvetica,sans-Serif" font-size="10.00">hydrostatic_ops.H</text>
</a>
</g>
</g>
<!-- Node2&#45;&gt;Node269 -->
<g id="edge60" class="edge">
<title>Node2&#45;&gt;Node269</title>
<path fill="none" stroke="midnightblue" d="M1806.52,-120.74C1957.82,-119.54 2438,-112.89 2833.5,-76 2836.75,-75.7 2840.09,-75.34 2843.45,-74.95"/>
<polygon fill="midnightblue" stroke="midnightblue" points="1806.18,-117.24 1796.2,-120.82 1806.23,-124.24 1806.18,-117.24"/>
</g>
<!-- Node270 -->
<g id="node45" class="node">
<title>Node270</title>
<g id="a_node45"><a xlink:href="_linear_profile_8cpp.html" target="_top" xlink:title=" ">
<polygon fill="white" stroke="black" points="2965.5,-56.5 2965.5,-75.5 3063.5,-75.5 3063.5,-56.5 2965.5,-56.5"/>
<text text-anchor="middle" x="3014.5" y="-63.5" font-family="Helvetica,sans-Serif" font-size="10.00">LinearProfile.cpp</text>
</a>
</g>
</g>
<!-- Node2&#45;&gt;Node270 -->
<g id="edge61" class="edge">
<title>Node2&#45;&gt;Node270</title>
<path fill="none" stroke="midnightblue" d="M1806.23,-121.2C1968.06,-121.45 2510.75,-118.81 2956.5,-76 2959.34,-75.73 2962.25,-75.41 2965.19,-75.05"/>
<polygon fill="midnightblue" stroke="midnightblue" points="1806.13,-117.7 1796.12,-121.18 1806.11,-124.7 1806.13,-117.7"/>
</g>
<!-- Node32 -->
<g id="node46" class="node">
<title>Node32</title>
<g id="a_node46"><a xlink:href="_power_law_profile_8cpp.html" target="_top" xlink:title=" ">
<polygon fill="white" stroke="black" points="3082,-56.5 3082,-75.5 3199,-75.5 3199,-56.5 3082,-56.5"/>
<text text-anchor="middle" x="3140.5" y="-63.5" font-family="Helvetica,sans-Serif" font-size="10.00">PowerLawProfile.cpp</text>
</a>
</g>
</g>
<!-- Node2&#45;&gt;Node32 -->
<g id="edge62" class="edge">
<title>Node2&#45;&gt;Node32</title>
<path fill="none" stroke="midnightblue" d="M1806.43,-121.04C1978.2,-120.83 2578.98,-117.01 3072.5,-76 3075.59,-75.74 3078.75,-75.45 3081.93,-75.12"/>
<polygon fill="midnightblue" stroke="midnightblue" points="1806.21,-117.54 1796.21,-121.05 1806.21,-124.54 1806.21,-117.54"/>
</g>
<!-- Node271 -->
<g id="node47" class="node">
<title>Node271</title>
<g id="a_node47"><a xlink:href="_u_d_f_8cpp.html" target="_top" xlink:title=" ">
<polygon fill="white" stroke="black" points="3217.5,-56.5 3217.5,-75.5 3273.5,-75.5 3273.5,-56.5 3217.5,-56.5"/>
<text text-anchor="middle" x="3245.5" y="-63.5" font-family="Helvetica,sans-Serif" font-size="10.00">UDF.cpp</text>
</a>
</g>
</g>
<!-- Node2&#45;&gt;Node271 -->
<g id="edge63" class="edge">
<title>Node2&#45;&gt;Node271</title>
<path fill="none" stroke="midnightblue" d="M1806.34,-120.81C2024.64,-119.74 2927.5,-113.12 3207.5,-76 3210.73,-75.57 3214.08,-74.99 3217.4,-74.32"/>
<polygon fill="midnightblue" stroke="midnightblue" points="1806.16,-117.31 1796.18,-120.86 1806.19,-124.31 1806.16,-117.31"/>
</g>
<!-- Node272 -->
<g id="node48" class="node">
<title>Node272</title>
<g id="a_node48"><a xlink:href="_transport_model_8_h.html" target="_top" xlink:title=" ">
<polygon fill="white" stroke="red" points="3291.5,-56.5 3291.5,-75.5 3393.5,-75.5 3393.5,-56.5 3291.5,-56.5"/>
<text text-anchor="middle" x="3342.5" y="-63.5" font-family="Helvetica,sans-Serif" font-size="10.00">TransportModel.H</text>
</a>
</g>
</g>
<!-- Node2&#45;&gt;Node272 -->
<g id="edge65" class="edge">
<title>Node2&#45;&gt;Node272</title>
<path fill="none" stroke="midnightblue" d="M1806.18,-120.36C2030.88,-117.23 2985.5,-102.56 3282.5,-76 3285.44,-75.74 3288.45,-75.42 3291.49,-75.08"/>
<polygon fill="midnightblue" stroke="midnightblue" points="1805.99,-116.86 1796.04,-120.5 1806.09,-123.86 1805.99,-116.86"/>
</g>
<!-- Node134 -->
<g id="node49" class="node">
<title>Node134</title>
<g id="a_node49"><a xlink:href="_smagorinsky_8_h.html" target="_top" xlink:title=" ">
<polygon fill="white" stroke="red" points="3412,-56.5 3412,-75.5 3501,-75.5 3501,-56.5 3412,-56.5"/>
<text text-anchor="middle" x="3456.5" y="-63.5" font-family="Helvetica,sans-Serif" font-size="10.00">Smagorinsky.H</text>
</a>
</g>
</g>
<!-- Node2&#45;&gt;Node134 -->
<g id="edge66" class="edge">
<title>Node2&#45;&gt;Node134</title>
<path fill="none" stroke="midnightblue" d="M1806.47,-120.58C2042.34,-118.38 3080.79,-107.06 3402.5,-76 3405.53,-75.71 3408.64,-75.35 3411.77,-74.94"/>
<polygon fill="midnightblue" stroke="midnightblue" points="1806.13,-117.08 1796.16,-120.68 1806.2,-124.08 1806.13,-117.08"/>
</g>
<!-- Node198 -->
<g id="node50" class="node">
<title>Node198</title>
<g id="a_node50"><a xlink:href="_act_src_line_op_8_h.html" target="_top" xlink:title=" ">
<polygon fill="white" stroke="red" points="3519.5,-56.5 3519.5,-75.5 3611.5,-75.5 3611.5,-56.5 3519.5,-56.5"/>
<text text-anchor="middle" x="3565.5" y="-63.5" font-family="Helvetica,sans-Serif" font-size="10.00">ActSrcLineOp.H</text>
</a>
</g>
</g>
<!-- Node2&#45;&gt;Node198 -->
<g id="edge69" class="edge">
<title>Node2&#45;&gt;Node198</title>
<path fill="none" stroke="midnightblue" d="M1806.39,-120.64C2051.26,-118.64 3165.27,-107.94 3509.5,-76 3512.74,-75.7 3516.07,-75.33 3519.42,-74.91"/>
<polygon fill="midnightblue" stroke="midnightblue" points="1806.02,-117.14 1796.05,-120.72 1806.08,-124.14 1806.02,-117.14"/>
</g>
<!-- Node4&#45;&gt;Node3 -->
<g id="edge4" class="edge">
<title>Node4&#45;&gt;Node3</title>
<path fill="none" stroke="midnightblue" d="M1838.75,-46.1C1837.92,-37.14 1836.97,-26.86 1836.31,-19.75"/>
<polygon fill="midnightblue" stroke="midnightblue" points="1835.27,-46.45 1839.67,-56.08 1842.24,-45.8 1835.27,-46.45"/>
</g>
<!-- Node9&#45;&gt;Node53 -->
<g id="edge7" class="edge">
<title>Node9&#45;&gt;Node53</title>
<path fill="none" stroke="midnightblue" d="M537.45,-54.39C496.11,-44.19 434.44,-28.98 396.16,-19.55"/>
<polygon fill="midnightblue" stroke="midnightblue" points="536.69,-57.8 547.24,-56.8 538.37,-51.01 536.69,-57.8"/>
</g>
<!-- Node9&#45;&gt;Node69 -->
<g id="edge8" class="edge">
<title>Node9&#45;&gt;Node69</title>
<path fill="none" stroke="midnightblue" d="M561.95,-49.82C550.12,-40.15 535.21,-27.95 525.3,-19.83"/>
<polygon fill="midnightblue" stroke="midnightblue" points="559.94,-52.7 569.9,-56.32 564.37,-47.28 559.94,-52.7"/>
</g>
<!-- Node9&#45;&gt;Node80 -->
<g id="edge9" class="edge">
<title>Node9&#45;&gt;Node80</title>
<path fill="none" stroke="midnightblue" d="M549.82,-52.64C524.68,-42.5 489.75,-28.43 467.63,-19.52"/>
<polygon fill="midnightblue" stroke="midnightblue" points="548.68,-55.95 559.27,-56.44 551.3,-49.46 548.68,-55.95"/>
</g>
<!-- Node9&#45;&gt;Node92 -->
<g id="edge10" class="edge">
<title>Node9&#45;&gt;Node92</title>
<path fill="none" stroke="midnightblue" d="M537.19,-57.98C475.59,-47.99 362.93,-29.72 297.74,-19.15"/>
<polygon fill="midnightblue" stroke="midnightblue" points="536.92,-61.48 547.35,-59.62 538.04,-54.57 536.92,-61.48"/>
</g>
<!-- Node9&#45;&gt;Node101 -->
<g id="edge11" class="edge">
<title>Node9&#45;&gt;Node101</title>
<path fill="none" stroke="midnightblue" d="M590.18,-46.98C595.1,-37.82 600.86,-27.09 604.8,-19.75"/>
<polygon fill="midnightblue" stroke="midnightblue" points="586.94,-45.62 585.29,-56.08 593.1,-48.93 586.94,-45.62"/>
</g>
<!-- Node9&#45;&gt;Node128 -->
<g id="edge12" class="edge">
<title>Node9&#45;&gt;Node128</title>
<path fill="none" stroke="midnightblue" d="M613.2,-52.91C640.65,-42.75 679.17,-28.51 703.47,-19.52"/>
<polygon fill="midnightblue" stroke="midnightblue" points="611.8,-49.69 603.63,-56.44 614.23,-56.26 611.8,-49.69"/>
</g>
<!-- Node9&#45;&gt;Node139 -->
<g id="edge13" class="edge">
<title>Node9&#45;&gt;Node139</title>
<path fill="none" stroke="midnightblue" d="M623.56,-59.83C707.56,-49.75 892.81,-27.52 981.41,-16.89"/>
<polygon fill="midnightblue" stroke="midnightblue" points="623.1,-56.36 613.59,-61.03 623.94,-63.31 623.1,-56.36"/>
</g>
<!-- Node9&#45;&gt;Node140 -->
<g id="edge14" class="edge">
<title>Node9&#45;&gt;Node140</title>
<path fill="none" stroke="midnightblue" d="M623.72,-61.48C646.04,-59.71 673.72,-57.62 698.5,-56 989.04,-37.04 1337.22,-19.98 1471.18,-13.63"/>
<polygon fill="midnightblue" stroke="midnightblue" points="623.24,-58 613.55,-62.28 623.79,-64.98 623.24,-58"/>
</g>
<!-- Node234&#45;&gt;Node148 -->
<g id="edge27" class="edge">
<title>Node234&#45;&gt;Node148</title>
<path fill="none" stroke="midnightblue" d="M2087.89,-53.17C2058.14,-43 2015.95,-28.59 1989.42,-19.52"/>
<polygon fill="midnightblue" stroke="midnightblue" points="2086.87,-56.52 2097.46,-56.44 2089.13,-49.9 2086.87,-56.52"/>
</g>
<!-- Node234&#45;&gt;Node238 -->
<g id="edge28" class="edge">
<title>Node234&#45;&gt;Node238</title>
<path fill="none" stroke="midnightblue" d="M2118.65,-46.1C2116.82,-37.14 2114.73,-26.86 2113.28,-19.75"/>
<polygon fill="midnightblue" stroke="midnightblue" points="2115.26,-46.98 2120.68,-56.08 2122.12,-45.59 2115.26,-46.98"/>
</g>
<!-- Node234&#45;&gt;Node239 -->
<g id="edge29" class="edge">
<title>Node234&#45;&gt;Node239</title>
<path fill="none" stroke="midnightblue" d="M2150.81,-52.37C2173.47,-42.26 2204.63,-28.35 2224.42,-19.52"/>
<polygon fill="midnightblue" stroke="midnightblue" points="2149.38,-49.17 2141.67,-56.44 2152.23,-55.56 2149.38,-49.17"/>
</g>
<!-- Node234&#45;&gt;Node240 -->
<g id="edge30" class="edge">
<title>Node234&#45;&gt;Node240</title>
<path fill="none" stroke="midnightblue" d="M2190.72,-55.95C2454.27,-30.68 2756.31,-17.6 2878.78,-12.97"/>
<polygon fill="midnightblue" stroke="midnightblue" points="2190.19,-52.49 2180.57,-56.93 2190.86,-59.46 2190.19,-52.49"/>
</g>
<!-- Node234&#45;&gt;Node242 -->
<g id="edge31" class="edge">
<title>Node234&#45;&gt;Node242</title>
<path fill="none" stroke="midnightblue" d="M2190.54,-56.02C2428.23,-36.49 3103.89,-17.38 3292.25,-12.3"/>
<polygon fill="midnightblue" stroke="midnightblue" points="2190.24,-52.53 2180.57,-56.86 2190.83,-59.5 2190.24,-52.53"/>
</g>
<!-- Node234&#45;&gt;Node149 -->
<g id="edge32" class="edge">
<title>Node234&#45;&gt;Node149</title>
<path fill="none" stroke="midnightblue" d="M2190.9,-55.98C2727.47,-12.48 2865.26,-39.62 3399.5,-20 3450.66,-18.12 3508.94,-15.53 3550.42,-13.61"/>
<polygon fill="midnightblue" stroke="midnightblue" points="2190.25,-52.52 2180.56,-56.83 2190.82,-59.5 2190.25,-52.52"/>
</g>
<!-- Node234&#45;&gt;Node244 -->
<g id="edge33" class="edge">
<title>Node234&#45;&gt;Node244</title>
<path fill="none" stroke="midnightblue" d="M2190.75,-56C2847.15,-4.61 3015.68,-51.85 3669.5,-20 3696.02,-18.71 3725.71,-16.56 3749.27,-14.68"/>
<polygon fill="midnightblue" stroke="midnightblue" points="2190.26,-52.53 2180.56,-56.81 2190.81,-59.51 2190.26,-52.53"/>
</g>
<!-- Node245&#45;&gt;Node53 -->
<g id="edge42" class="edge">
<title>Node245&#45;&gt;Node53</title>
<path fill="none" stroke="midnightblue" d="M331.23,-48.14C338.9,-38.74 348.13,-27.4 354.37,-19.75"/>
<polygon fill="midnightblue" stroke="midnightblue" points="328.37,-46.12 324.77,-56.08 333.8,-50.54 328.37,-46.12"/>
</g>
<!-- Node267&#45;&gt;Node69 -->
<g id="edge51" class="edge">
<title>Node267&#45;&gt;Node69</title>
<path fill="none" stroke="midnightblue" d="M485.61,-48.14C492.93,-38.74 501.74,-27.4 507.69,-19.75"/>
<polygon fill="midnightblue" stroke="midnightblue" points="482.81,-46.04 479.44,-56.08 488.34,-50.34 482.81,-46.04"/>
</g>
<!-- Node268&#45;&gt;Node92 -->
<g id="edge55" class="edge">
<title>Node268&#45;&gt;Node92</title>
<path fill="none" stroke="midnightblue" d="M194.64,-50.1C207.78,-40.38 224.48,-28.03 235.56,-19.83"/>
<polygon fill="midnightblue" stroke="midnightblue" points="192.19,-47.56 186.23,-56.32 196.35,-53.19 192.19,-47.56"/>
</g>
<!-- Node268&#45;&gt;Node58 -->
<g id="edge56" class="edge">
<title>Node268&#45;&gt;Node58</title>
<path fill="none" stroke="midnightblue" d="M157.32,-49.54C146.62,-39.91 133.24,-27.87 124.32,-19.83"/>
<polygon fill="midnightblue" stroke="midnightblue" points="155.09,-52.24 164.86,-56.32 159.77,-47.03 155.09,-52.24"/>
</g>
</g>
</svg>
