<?xml version="1.0" encoding="UTF-8" standalone="no"?>
<!DOCTYPE svg PUBLIC "-//W3C//DTD SVG 1.1//EN"
 "http://www.w3.org/Graphics/SVG/1.1/DTD/svg11.dtd">
<!-- Generated by graphviz version 2.43.0 (0)
 -->
<!-- Title: MLMGOptions.H Pages: 1 -->
<svg width="1957pt" height="319pt"
 viewBox="0.00 0.00 1956.50 319.00" xmlns="http://www.w3.org/2000/svg" xmlns:xlink="http://www.w3.org/1999/xlink">
<g id="graph0" class="graph" transform="scale(1 1) rotate(0) translate(4 315)">
<title>MLMGOptions.H</title>
<polygon fill="white" stroke="transparent" points="-4,4 -4,-315 1952.5,-315 1952.5,4 -4,4"/>
<!-- Node1 -->
<g id="node1" class="node">
<title>Node1</title>
<g id="a_node1"><a xlink:title=" ">
<polygon fill="#bfbfbf" stroke="black" points="428.5,-291.5 428.5,-310.5 523.5,-310.5 523.5,-291.5 428.5,-291.5"/>
<text text-anchor="middle" x="476" y="-298.5" font-family="Helvetica,sans-Serif" font-size="10.00">MLMGOptions.H</text>
</a>
</g>
</g>
<!-- Node2 -->
<g id="node2" class="node">
<title>Node2</title>
<g id="a_node2"><a xlink:href="_m_l_m_g_options_8cpp.html" target="_top" xlink:title=" ">
<polygon fill="white" stroke="black" points="175.5,-230 175.5,-249 280.5,-249 280.5,-230 175.5,-230"/>
<text text-anchor="middle" x="228" y="-237" font-family="Helvetica,sans-Serif" font-size="10.00">MLMGOptions.cpp</text>
</a>
</g>
</g>
<!-- Node1&#45;&gt;Node2 -->
<g id="edge1" class="edge">
<title>Node1&#45;&gt;Node2</title>
<path fill="none" stroke="midnightblue" d="M430.63,-289.11C382.49,-277.57 307.45,-259.56 263.47,-249.01"/>
<polygon fill="midnightblue" stroke="midnightblue" points="429.93,-292.55 440.47,-291.48 431.56,-285.74 429.93,-292.55"/>
</g>
<!-- Node3 -->
<g id="node3" class="node">
<title>Node3</title>
<g id="a_node3"><a xlink:href="_diffusion_ops_8_h.html" target="_top" xlink:title=" ">
<polygon fill="white" stroke="black" points="298.5,-230 298.5,-249 387.5,-249 387.5,-230 298.5,-230"/>
<text text-anchor="middle" x="343" y="-237" font-family="Helvetica,sans-Serif" font-size="10.00">DiffusionOps.H</text>
</a>
</g>
</g>
<!-- Node1&#45;&gt;Node3 -->
<g id="edge2" class="edge">
<title>Node1&#45;&gt;Node3</title>
<path fill="none" stroke="midnightblue" d="M447.67,-287.33C421.85,-275.78 384.42,-259.03 362.02,-249.01"/>
<polygon fill="midnightblue" stroke="midnightblue" points="446.39,-290.59 456.94,-291.48 449.25,-284.2 446.39,-290.59"/>
</g>
<!-- Node14 -->
<g id="node14" class="node">
<title>Node14</title>
<g id="a_node14"><a xlink:href="icns__advection_8cpp.html" target="_top" xlink:title=" ">
<polygon fill="white" stroke="black" points="398,-0.5 398,-19.5 508,-19.5 508,-0.5 398,-0.5"/>
<text text-anchor="middle" x="453" y="-7.5" font-family="Helvetica,sans-Serif" font-size="10.00">icns_advection.cpp</text>
</a>
</g>
</g>
<!-- Node1&#45;&gt;Node14 -->
<g id="edge54" class="edge">
<title>Node1&#45;&gt;Node14</title>
<path fill="none" stroke="midnightblue" d="M504.24,-286.98C539.71,-268.45 596,-230.87 596,-179 596,-179 596,-179 596,-121 596,-90.77 596.81,-77.92 576,-56 557.92,-36.95 531.12,-25.93 507.14,-19.57"/>
<polygon fill="midnightblue" stroke="midnightblue" points="502.64,-283.87 495.28,-291.49 505.79,-290.12 502.64,-283.87"/>
</g>
<!-- Node37 -->
<g id="node37" class="node">
<title>Node37</title>
<g id="a_node37"><a xlink:href="incflo__apply__nodal__projection_8cpp.html" target="_top" xlink:title=" ">
<polygon fill="white" stroke="black" points="624.5,-224.5 624.5,-254.5 731.5,-254.5 731.5,-224.5 624.5,-224.5"/>
<text text-anchor="start" x="632.5" y="-242.5" font-family="Helvetica,sans-Serif" font-size="10.00">incflo_apply_nodal</text>
<text text-anchor="middle" x="678" y="-231.5" font-family="Helvetica,sans-Serif" font-size="10.00">_projection.cpp</text>
</a>
</g>
</g>
<!-- Node1&#45;&gt;Node37 -->
<g id="edge55" class="edge">
<title>Node1&#45;&gt;Node37</title>
<path fill="none" stroke="midnightblue" d="M514.67,-288.61C547.62,-278.9 595.11,-264.92 630.39,-254.52"/>
<polygon fill="midnightblue" stroke="midnightblue" points="513.55,-285.29 504.94,-291.48 515.52,-292.01 513.55,-285.29"/>
</g>
<!-- Node4 -->
<g id="node4" class="node">
<title>Node4</title>
<g id="a_node4"><a xlink:href="_diffusion_ops_8cpp.html" target="_top" xlink:title=" ">
<polygon fill="white" stroke="black" points="111.5,-168.5 111.5,-187.5 210.5,-187.5 210.5,-168.5 111.5,-168.5"/>
<text text-anchor="middle" x="161" y="-175.5" font-family="Helvetica,sans-Serif" font-size="10.00">DiffusionOps.cpp</text>
</a>
</g>
</g>
<!-- Node3&#45;&gt;Node4 -->
<g id="edge3" class="edge">
<title>Node3&#45;&gt;Node4</title>
<path fill="none" stroke="midnightblue" d="M307,-226.73C271.63,-215.17 218.5,-197.8 187.03,-187.51"/>
<polygon fill="midnightblue" stroke="midnightblue" points="306.33,-230.19 316.92,-229.98 308.51,-223.54 306.33,-230.19"/>
</g>
<!-- Node5 -->
<g id="node5" class="node">
<title>Node5</title>
<g id="a_node5"><a xlink:href="icns__diffusion_8_h.html" target="_top" xlink:title=" ">
<polygon fill="white" stroke="black" points="0,-56.5 0,-75.5 94,-75.5 94,-56.5 0,-56.5"/>
<text text-anchor="middle" x="47" y="-63.5" font-family="Helvetica,sans-Serif" font-size="10.00">icns_diffusion.H</text>
</a>
</g>
</g>
<!-- Node3&#45;&gt;Node5 -->
<g id="edge4" class="edge">
<title>Node3&#45;&gt;Node5</title>
<path fill="none" stroke="midnightblue" d="M319.42,-224.84C260.78,-190.86 109.63,-103.29 61.77,-75.56"/>
<polygon fill="midnightblue" stroke="midnightblue" points="317.91,-228.01 328.32,-230 321.42,-221.95 317.91,-228.01"/>
</g>
<!-- Node7 -->
<g id="node7" class="node">
<title>Node7</title>
<g id="a_node7"><a xlink:href="icns__ops_8_h.html" target="_top" xlink:title=" ">
<polygon fill="white" stroke="black" points="112.5,-56.5 112.5,-75.5 181.5,-75.5 181.5,-56.5 112.5,-56.5"/>
<text text-anchor="middle" x="147" y="-63.5" font-family="Helvetica,sans-Serif" font-size="10.00">icns_ops.H</text>
</a>
</g>
</g>
<!-- Node3&#45;&gt;Node7 -->
<g id="edge6" class="edge">
<title>Node3&#45;&gt;Node7</title>
<path fill="none" stroke="midnightblue" d="M334.52,-220.9C320.81,-194.07 291.38,-142.84 253,-112 231.18,-94.47 201.53,-82.65 179.13,-75.55"/>
<polygon fill="midnightblue" stroke="midnightblue" points="331.41,-222.49 338.99,-229.89 337.67,-219.38 331.41,-222.49"/>
</g>
<!-- Node8 -->
<g id="node8" class="node">
<title>Node8</title>
<g id="a_node8"><a xlink:href="_p_d_e_8_h.html" target="_top" xlink:title=" ">
<polygon fill="white" stroke="black" points="892.5,-168.5 892.5,-187.5 939.5,-187.5 939.5,-168.5 892.5,-168.5"/>
<text text-anchor="middle" x="916" y="-175.5" font-family="Helvetica,sans-Serif" font-size="10.00">PDE.H</text>
</a>
</g>
</g>
<!-- Node3&#45;&gt;Node8 -->
<g id="edge8" class="edge">
<title>Node3&#45;&gt;Node8</title>
<path fill="none" stroke="midnightblue" d="M398.19,-232.77C520.09,-220.11 808.17,-190.2 892.45,-181.45"/>
<polygon fill="midnightblue" stroke="midnightblue" points="397.55,-229.32 387.96,-233.83 398.27,-236.28 397.55,-229.32"/>
</g>
<!-- Node6 -->
<g id="node6" class="node">
<title>Node6</title>
<g id="a_node6"><a xlink:href="icns_8cpp.html" target="_top" xlink:title=" ">
<polygon fill="white" stroke="black" points="182,-0.5 182,-19.5 238,-19.5 238,-0.5 182,-0.5"/>
<text text-anchor="middle" x="210" y="-7.5" font-family="Helvetica,sans-Serif" font-size="10.00">icns.cpp</text>
</a>
</g>
</g>
<!-- Node5&#45;&gt;Node6 -->
<g id="edge5" class="edge">
<title>Node5&#45;&gt;Node6</title>
<path fill="none" stroke="midnightblue" d="M82.7,-53.17C113.4,-43 156.92,-28.59 184.29,-19.52"/>
<polygon fill="midnightblue" stroke="midnightblue" points="81.22,-49.98 72.83,-56.44 83.42,-56.62 81.22,-49.98"/>
</g>
<!-- Node7&#45;&gt;Node6 -->
<g id="edge7" class="edge">
<title>Node7&#45;&gt;Node6</title>
<path fill="none" stroke="midnightblue" d="M165.04,-49.54C176.27,-39.91 190.32,-27.87 199.69,-19.83"/>
<polygon fill="midnightblue" stroke="midnightblue" points="162.44,-47.16 157.12,-56.32 166.99,-52.47 162.44,-47.16"/>
</g>
<!-- Node9 -->
<g id="node9" class="node">
<title>Node9</title>
<g id="a_node9"><a xlink:href="density_8_h.html" target="_top" xlink:title=" ">
<polygon fill="white" stroke="black" points="674,-112.5 674,-131.5 736,-131.5 736,-112.5 674,-112.5"/>
<text text-anchor="middle" x="705" y="-119.5" font-family="Helvetica,sans-Serif" font-size="10.00">density.H</text>
</a>
</g>
</g>
<!-- Node8&#45;&gt;Node9 -->
<g id="edge9" class="edge">
<title>Node8&#45;&gt;Node9</title>
<path fill="none" stroke="midnightblue" d="M882.34,-168.39C842.11,-158.09 775.34,-141 736.22,-130.99"/>
<polygon fill="midnightblue" stroke="midnightblue" points="881.65,-171.82 892.21,-170.91 883.39,-165.04 881.65,-171.82"/>
</g>
<!-- Node12 -->
<g id="node12" class="node">
<title>Node12</title>
<g id="a_node12"><a xlink:href="icns_8_h.html" target="_top" xlink:title=" ">
<polygon fill="white" stroke="black" points="305.5,-112.5 305.5,-131.5 352.5,-131.5 352.5,-112.5 305.5,-112.5"/>
<text text-anchor="middle" x="329" y="-119.5" font-family="Helvetica,sans-Serif" font-size="10.00">icns.H</text>
</a>
</g>
</g>
<!-- Node8&#45;&gt;Node12 -->
<g id="edge13" class="edge">
<title>Node8&#45;&gt;Node12</title>
<path fill="none" stroke="midnightblue" d="M882,-173.87C774.59,-163.99 444.22,-133.6 352.71,-125.18"/>
<polygon fill="midnightblue" stroke="midnightblue" points="881.98,-177.39 892.26,-174.82 882.62,-170.41 881.98,-177.39"/>
</g>
<!-- Node17 -->
<g id="node17" class="node">
<title>Node17</title>
<g id="a_node17"><a xlink:href="levelset_8_h.html" target="_top" xlink:title=" ">
<polygon fill="white" stroke="black" points="816,-112.5 816,-131.5 882,-131.5 882,-112.5 816,-112.5"/>
<text text-anchor="middle" x="849" y="-119.5" font-family="Helvetica,sans-Serif" font-size="10.00">levelset.H</text>
</a>
</g>
</g>
<!-- Node8&#45;&gt;Node17 -->
<g id="edge23" class="edge">
<title>Node8&#45;&gt;Node17</title>
<path fill="none" stroke="midnightblue" d="M897.17,-161.82C885.16,-152.15 870.03,-139.95 859.96,-131.83"/>
<polygon fill="midnightblue" stroke="midnightblue" points="895.25,-164.77 905.24,-168.32 899.65,-159.32 895.25,-164.77"/>
</g>
<!-- Node20 -->
<g id="node20" class="node">
<title>Node20</title>
<g id="a_node20"><a xlink:href="_s_d_r_8_h.html" target="_top" xlink:title=" ">
<polygon fill="white" stroke="black" points="989.5,-112.5 989.5,-131.5 1036.5,-131.5 1036.5,-112.5 989.5,-112.5"/>
<text text-anchor="middle" x="1013" y="-119.5" font-family="Helvetica,sans-Serif" font-size="10.00">SDR.H</text>
</a>
</g>
</g>
<!-- Node8&#45;&gt;Node20 -->
<g id="edge27" class="edge">
<title>Node8&#45;&gt;Node20</title>
<path fill="none" stroke="midnightblue" d="M940.34,-163.45C958.24,-153.48 982.05,-140.23 997.45,-131.65"/>
<polygon fill="midnightblue" stroke="midnightblue" points="938.62,-160.4 931.58,-168.32 942.02,-166.52 938.62,-160.4"/>
</g>
<!-- Node26 -->
<g id="node26" class="node">
<title>Node26</title>
<g id="a_node26"><a xlink:href="temperature_8_h.html" target="_top" xlink:title=" ">
<polygon fill="white" stroke="black" points="1419,-112.5 1419,-131.5 1507,-131.5 1507,-112.5 1419,-112.5"/>
<text text-anchor="middle" x="1463" y="-119.5" font-family="Helvetica,sans-Serif" font-size="10.00">temperature.H</text>
</a>
</g>
</g>
<!-- Node8&#45;&gt;Node26 -->
<g id="edge36" class="edge">
<title>Node8&#45;&gt;Node26</title>
<path fill="none" stroke="midnightblue" d="M949.65,-173.68C1044.28,-164.34 1312.7,-137.84 1418.93,-127.35"/>
<polygon fill="midnightblue" stroke="midnightblue" points="949.11,-170.21 939.5,-174.68 949.8,-177.18 949.11,-170.21"/>
</g>
<!-- Node28 -->
<g id="node28" class="node">
<title>Node28</title>
<g id="a_node28"><a xlink:href="_t_k_e_8_h.html" target="_top" xlink:title=" ">
<polygon fill="white" stroke="black" points="1243,-112.5 1243,-131.5 1289,-131.5 1289,-112.5 1243,-112.5"/>
<text text-anchor="middle" x="1266" y="-119.5" font-family="Helvetica,sans-Serif" font-size="10.00">TKE.H</text>
</a>
</g>
</g>
<!-- Node8&#45;&gt;Node28 -->
<g id="edge38" class="edge">
<title>Node8&#45;&gt;Node28</title>
<path fill="none" stroke="midnightblue" d="M949.62,-171.81C1020.16,-160.93 1182.06,-135.95 1242.59,-126.61"/>
<polygon fill="midnightblue" stroke="midnightblue" points="948.86,-168.39 939.51,-173.37 949.92,-175.31 948.86,-168.39"/>
</g>
<!-- Node32 -->
<g id="node32" class="node">
<title>Node32</title>
<g id="a_node32"><a xlink:href="vof_8_h.html" target="_top" xlink:title=" ">
<polygon fill="white" stroke="black" points="1707,-112.5 1707,-131.5 1749,-131.5 1749,-112.5 1707,-112.5"/>
<text text-anchor="middle" x="1728" y="-119.5" font-family="Helvetica,sans-Serif" font-size="10.00">vof.H</text>
</a>
</g>
</g>
<!-- Node8&#45;&gt;Node32 -->
<g id="edge46" class="edge">
<title>Node8&#45;&gt;Node32</title>
<path fill="none" stroke="midnightblue" d="M950.18,-174.73C1087.44,-165.6 1596.48,-131.75 1706.81,-124.41"/>
<polygon fill="midnightblue" stroke="midnightblue" points="949.61,-171.26 939.86,-175.41 950.07,-178.24 949.61,-171.26"/>
</g>
<!-- Node10 -->
<g id="node10" class="node">
<title>Node10</title>
<g id="a_node10"><a xlink:href="density_8cpp.html" target="_top" xlink:title=" ">
<polygon fill="white" stroke="black" points="623.5,-0.5 623.5,-19.5 694.5,-19.5 694.5,-0.5 623.5,-0.5"/>
<text text-anchor="middle" x="659" y="-7.5" font-family="Helvetica,sans-Serif" font-size="10.00">density.cpp</text>
</a>
</g>
</g>
<!-- Node9&#45;&gt;Node10 -->
<g id="edge10" class="edge">
<title>Node9&#45;&gt;Node10</title>
<path fill="none" stroke="midnightblue" d="M680.63,-106.73C670.05,-99.09 658.78,-88.64 653,-76 644.52,-57.45 650.93,-32.85 655.49,-19.88"/>
<polygon fill="midnightblue" stroke="midnightblue" points="678.96,-109.82 689.22,-112.47 682.85,-104 678.96,-109.82"/>
</g>
<!-- Node11 -->
<g id="node11" class="node">
<title>Node11</title>
<g id="a_node11"><a xlink:href="density__ops_8_h.html" target="_top" xlink:title=" ">
<polygon fill="white" stroke="black" points="662,-56.5 662,-75.5 748,-75.5 748,-56.5 662,-56.5"/>
<text text-anchor="middle" x="705" y="-63.5" font-family="Helvetica,sans-Serif" font-size="10.00">density_ops.H</text>
</a>
</g>
</g>
<!-- Node9&#45;&gt;Node11 -->
<g id="edge11" class="edge">
<title>Node9&#45;&gt;Node11</title>
<path fill="none" stroke="midnightblue" d="M705,-101.8C705,-92.91 705,-82.78 705,-75.75"/>
<polygon fill="midnightblue" stroke="midnightblue" points="701.5,-102.08 705,-112.08 708.5,-102.08 701.5,-102.08"/>
</g>
<!-- Node11&#45;&gt;Node10 -->
<g id="edge12" class="edge">
<title>Node11&#45;&gt;Node10</title>
<path fill="none" stroke="midnightblue" d="M690.89,-48.43C682.82,-38.97 673.04,-27.48 666.45,-19.75"/>
<polygon fill="midnightblue" stroke="midnightblue" points="688.25,-50.74 697.4,-56.08 693.58,-46.2 688.25,-50.74"/>
</g>
<!-- Node12&#45;&gt;Node5 -->
<g id="edge20" class="edge">
<title>Node12&#45;&gt;Node5</title>
<path fill="none" stroke="midnightblue" d="M295.31,-114.55C244.47,-104.81 148.05,-86.35 91.49,-75.52"/>
<polygon fill="midnightblue" stroke="midnightblue" points="294.96,-118.05 305.44,-116.49 296.28,-111.17 294.96,-118.05"/>
</g>
<!-- Node12&#45;&gt;Node6 -->
<g id="edge14" class="edge">
<title>Node12&#45;&gt;Node6</title>
<path fill="none" stroke="midnightblue" d="M295.72,-109.46C270.36,-100.06 238.27,-86.65 229,-76 214.8,-59.68 211.2,-33.24 210.29,-19.66"/>
<polygon fill="midnightblue" stroke="midnightblue" points="294.8,-112.85 305.4,-112.98 297.19,-106.27 294.8,-112.85"/>
</g>
<!-- Node12&#45;&gt;Node7 -->
<g id="edge21" class="edge">
<title>Node12&#45;&gt;Node7</title>
<path fill="none" stroke="midnightblue" d="M295.19,-110.97C260.88,-100.79 208.33,-85.2 175.9,-75.58"/>
<polygon fill="midnightblue" stroke="midnightblue" points="294.62,-114.45 305.21,-113.94 296.62,-107.74 294.62,-114.45"/>
</g>
<!-- Node13 -->
<g id="node13" class="node">
<title>Node13</title>
<g id="a_node13"><a xlink:href="icns__advection_8_h.html" target="_top" xlink:title=" ">
<polygon fill="white" stroke="black" points="332,-56.5 332,-75.5 432,-75.5 432,-56.5 332,-56.5"/>
<text text-anchor="middle" x="382" y="-63.5" font-family="Helvetica,sans-Serif" font-size="10.00">icns_advection.H</text>
</a>
</g>
</g>
<!-- Node12&#45;&gt;Node13 -->
<g id="edge15" class="edge">
<title>Node12&#45;&gt;Node13</title>
<path fill="none" stroke="midnightblue" d="M344.98,-104.72C354.32,-95.2 365.75,-83.56 373.41,-75.75"/>
<polygon fill="midnightblue" stroke="midnightblue" points="342.26,-102.49 337.75,-112.08 347.25,-107.4 342.26,-102.49"/>
</g>
<!-- Node15 -->
<g id="node15" class="node">
<title>Node15</title>
<g id="a_node15"><a xlink:href="icns__bcop_8_h.html" target="_top" xlink:title=" ">
<polygon fill="white" stroke="black" points="238.5,-56.5 238.5,-75.5 313.5,-75.5 313.5,-56.5 238.5,-56.5"/>
<text text-anchor="middle" x="276" y="-63.5" font-family="Helvetica,sans-Serif" font-size="10.00">icns_bcop.H</text>
</a>
</g>
</g>
<!-- Node12&#45;&gt;Node15 -->
<g id="edge18" class="edge">
<title>Node12&#45;&gt;Node15</title>
<path fill="none" stroke="midnightblue" d="M313.02,-104.72C303.68,-95.2 292.25,-83.56 284.59,-75.75"/>
<polygon fill="midnightblue" stroke="midnightblue" points="310.75,-107.4 320.25,-112.08 315.74,-102.49 310.75,-107.4"/>
</g>
<!-- Node16 -->
<g id="node16" class="node">
<title>Node16</title>
<g id="a_node16"><a xlink:href="_power_law_profile_8cpp.html" target="_top" xlink:title=" ">
<polygon fill="white" stroke="black" points="450.5,-56.5 450.5,-75.5 567.5,-75.5 567.5,-56.5 450.5,-56.5"/>
<text text-anchor="middle" x="509" y="-63.5" font-family="Helvetica,sans-Serif" font-size="10.00">PowerLawProfile.cpp</text>
</a>
</g>
</g>
<!-- Node12&#45;&gt;Node16 -->
<g id="edge22" class="edge">
<title>Node12&#45;&gt;Node16</title>
<path fill="none" stroke="midnightblue" d="M362.44,-110.97C396.37,-100.79 448.34,-85.2 480.41,-75.58"/>
<polygon fill="midnightblue" stroke="midnightblue" points="361.1,-107.71 352.53,-113.94 363.12,-114.42 361.1,-107.71"/>
</g>
<!-- Node13&#45;&gt;Node6 -->
<g id="edge16" class="edge">
<title>Node13&#45;&gt;Node6</title>
<path fill="none" stroke="midnightblue" d="M345.17,-53.44C312.74,-43.26 266.26,-28.66 237.13,-19.52"/>
<polygon fill="midnightblue" stroke="midnightblue" points="344.16,-56.79 354.75,-56.44 346.25,-50.11 344.16,-56.79"/>
</g>
<!-- Node13&#45;&gt;Node14 -->
<g id="edge17" class="edge">
<title>Node13&#45;&gt;Node14</title>
<path fill="none" stroke="midnightblue" d="M401.59,-50.1C414.37,-40.38 430.61,-28.03 441.39,-19.83"/>
<polygon fill="midnightblue" stroke="midnightblue" points="399.25,-47.48 393.41,-56.32 403.49,-53.06 399.25,-47.48"/>
</g>
<!-- Node15&#45;&gt;Node6 -->
<g id="edge19" class="edge">
<title>Node15&#45;&gt;Node6</title>
<path fill="none" stroke="midnightblue" d="M257.45,-49.82C245.62,-40.15 230.71,-27.95 220.8,-19.83"/>
<polygon fill="midnightblue" stroke="midnightblue" points="255.44,-52.7 265.4,-56.32 259.87,-47.28 255.44,-52.7"/>
</g>
<!-- Node18 -->
<g id="node18" class="node">
<title>Node18</title>
<g id="a_node18"><a xlink:href="levelset_8cpp.html" target="_top" xlink:title=" ">
<polygon fill="white" stroke="black" points="768,-0.5 768,-19.5 844,-19.5 844,-0.5 768,-0.5"/>
<text text-anchor="middle" x="806" y="-7.5" font-family="Helvetica,sans-Serif" font-size="10.00">levelset.cpp</text>
</a>
</g>
</g>
<!-- Node17&#45;&gt;Node18 -->
<g id="edge24" class="edge">
<title>Node17&#45;&gt;Node18</title>
<path fill="none" stroke="midnightblue" d="M823.82,-107C812.81,-99.4 801.04,-88.91 795,-76 786.26,-57.34 795.25,-32.79 801.36,-19.85"/>
<polygon fill="midnightblue" stroke="midnightblue" points="822.06,-110.03 832.37,-112.46 825.83,-104.13 822.06,-110.03"/>
</g>
<!-- Node19 -->
<g id="node19" class="node">
<title>Node19</title>
<g id="a_node19"><a xlink:href="levelset__ops_8_h.html" target="_top" xlink:title=" ">
<polygon fill="white" stroke="black" points="804.5,-56.5 804.5,-75.5 893.5,-75.5 893.5,-56.5 804.5,-56.5"/>
<text text-anchor="middle" x="849" y="-63.5" font-family="Helvetica,sans-Serif" font-size="10.00">levelset_ops.H</text>
</a>
</g>
</g>
<!-- Node17&#45;&gt;Node19 -->
<g id="edge25" class="edge">
<title>Node17&#45;&gt;Node19</title>
<path fill="none" stroke="midnightblue" d="M849,-101.8C849,-92.91 849,-82.78 849,-75.75"/>
<polygon fill="midnightblue" stroke="midnightblue" points="845.5,-102.08 849,-112.08 852.5,-102.08 845.5,-102.08"/>
</g>
<!-- Node19&#45;&gt;Node18 -->
<g id="edge26" class="edge">
<title>Node19&#45;&gt;Node18</title>
<path fill="none" stroke="midnightblue" d="M835.58,-48.14C828.09,-38.74 819.06,-27.4 812.97,-19.75"/>
<polygon fill="midnightblue" stroke="midnightblue" points="832.93,-50.44 841.9,-56.08 838.41,-46.08 832.93,-50.44"/>
</g>
<!-- Node21 -->
<g id="node21" class="node">
<title>Node21</title>
<g id="a_node21"><a xlink:href="_s_d_r_8cpp.html" target="_top" xlink:title=" ">
<polygon fill="white" stroke="black" points="923.5,-0.5 923.5,-19.5 980.5,-19.5 980.5,-0.5 923.5,-0.5"/>
<text text-anchor="middle" x="952" y="-7.5" font-family="Helvetica,sans-Serif" font-size="10.00">SDR.cpp</text>
</a>
</g>
</g>
<!-- Node20&#45;&gt;Node21 -->
<g id="edge28" class="edge">
<title>Node20&#45;&gt;Node21</title>
<path fill="none" stroke="midnightblue" d="M979.88,-109C965.2,-101.84 949.38,-91.12 941,-76 930.9,-57.78 940.72,-32.61 947.24,-19.59"/>
<polygon fill="midnightblue" stroke="midnightblue" points="978.72,-112.32 989.27,-113.21 981.58,-105.93 978.72,-112.32"/>
</g>
<!-- Node22 -->
<g id="node22" class="node">
<title>Node22</title>
<g id="a_node22"><a xlink:href="sdr__ops_8_h.html" target="_top" xlink:title=" ">
<polygon fill="white" stroke="black" points="950.5,-56.5 950.5,-75.5 1015.5,-75.5 1015.5,-56.5 950.5,-56.5"/>
<text text-anchor="middle" x="983" y="-63.5" font-family="Helvetica,sans-Serif" font-size="10.00">sdr_ops.H</text>
</a>
</g>
</g>
<!-- Node20&#45;&gt;Node22 -->
<g id="edge29" class="edge">
<title>Node20&#45;&gt;Node22</title>
<path fill="none" stroke="midnightblue" d="M1003.15,-103.27C998.03,-94.05 991.98,-83.17 987.86,-75.75"/>
<polygon fill="midnightblue" stroke="midnightblue" points="1000.13,-105.04 1008.05,-112.08 1006.25,-101.64 1000.13,-105.04"/>
</g>
<!-- Node23 -->
<g id="node23" class="node">
<title>Node23</title>
<g id="a_node23"><a xlink:href="_k_omega_s_s_t_8cpp.html" target="_top" xlink:title=" ">
<polygon fill="white" stroke="black" points="1058.5,-0.5 1058.5,-19.5 1153.5,-19.5 1153.5,-0.5 1058.5,-0.5"/>
<text text-anchor="middle" x="1106" y="-7.5" font-family="Helvetica,sans-Serif" font-size="10.00">KOmegaSST.cpp</text>
</a>
</g>
</g>
<!-- Node20&#45;&gt;Node23 -->
<g id="edge31" class="edge">
<title>Node20&#45;&gt;Node23</title>
<path fill="none" stroke="midnightblue" d="M1025.21,-104.12C1035.06,-90.76 1049.44,-71.8 1063,-56 1074.26,-42.88 1088.24,-28.58 1097.14,-19.7"/>
<polygon fill="midnightblue" stroke="midnightblue" points="1022.27,-102.22 1019.19,-112.36 1027.92,-106.35 1022.27,-102.22"/>
</g>
<!-- Node24 -->
<g id="node24" class="node">
<title>Node24</title>
<g id="a_node24"><a xlink:href="_k_omega_s_s_t_i_8_h.html" target="_top" xlink:title=" ">
<polygon fill="white" stroke="black" points="1072.5,-56.5 1072.5,-75.5 1161.5,-75.5 1161.5,-56.5 1072.5,-56.5"/>
<text text-anchor="middle" x="1117" y="-63.5" font-family="Helvetica,sans-Serif" font-size="10.00">KOmegaSSTI.H</text>
</a>
</g>
</g>
<!-- Node20&#45;&gt;Node24 -->
<g id="edge32" class="edge">
<title>Node20&#45;&gt;Node24</title>
<path fill="none" stroke="midnightblue" d="M1038.83,-107.59C1058.06,-97.61 1083.74,-84.27 1100.33,-75.65"/>
<polygon fill="midnightblue" stroke="midnightblue" points="1036.97,-104.61 1029.71,-112.32 1040.2,-110.82 1036.97,-104.61"/>
</g>
<!-- Node25 -->
<g id="node25" class="node">
<title>Node25</title>
<g id="a_node25"><a xlink:href="_k_omega_s_s_t_i_d_d_e_s_8cpp.html" target="_top" xlink:title=" ">
<polygon fill="white" stroke="black" points="1172,-0.5 1172,-19.5 1298,-19.5 1298,-0.5 1172,-0.5"/>
<text text-anchor="middle" x="1235" y="-7.5" font-family="Helvetica,sans-Serif" font-size="10.00">KOmegaSSTIDDES.cpp</text>
</a>
</g>
</g>
<!-- Node20&#45;&gt;Node25 -->
<g id="edge35" class="edge">
<title>Node20&#45;&gt;Node25</title>
<path fill="none" stroke="midnightblue" d="M1046.64,-116.4C1079.83,-110.74 1131.09,-98.92 1170,-76 1195.58,-60.94 1218.3,-33.45 1228.82,-19.54"/>
<polygon fill="midnightblue" stroke="midnightblue" points="1045.86,-112.98 1036.54,-118.02 1046.97,-119.89 1045.86,-112.98"/>
</g>
<!-- Node22&#45;&gt;Node21 -->
<g id="edge30" class="edge">
<title>Node22&#45;&gt;Node21</title>
<path fill="none" stroke="midnightblue" d="M972.82,-47.27C967.53,-38.05 961.28,-27.17 957.02,-19.75"/>
<polygon fill="midnightblue" stroke="midnightblue" points="969.87,-49.15 977.88,-56.08 975.94,-45.67 969.87,-49.15"/>
</g>
<!-- Node24&#45;&gt;Node23 -->
<g id="edge33" class="edge">
<title>Node24&#45;&gt;Node23</title>
<path fill="none" stroke="midnightblue" d="M1113.15,-46.1C1111.32,-37.14 1109.23,-26.86 1107.78,-19.75"/>
<polygon fill="midnightblue" stroke="midnightblue" points="1109.76,-46.98 1115.18,-56.08 1116.62,-45.59 1109.76,-46.98"/>
</g>
<!-- Node24&#45;&gt;Node25 -->
<g id="edge34" class="edge">
<title>Node24&#45;&gt;Node25</title>
<path fill="none" stroke="midnightblue" d="M1144.9,-52.23C1166.97,-42.13 1197.18,-28.31 1216.39,-19.52"/>
<polygon fill="midnightblue" stroke="midnightblue" points="1143.33,-49.1 1135.7,-56.44 1146.25,-55.46 1143.33,-49.1"/>
</g>
<!-- Node27 -->
<g id="node27" class="node">
<title>Node27</title>
<g id="a_node27"><a xlink:href="temperature_8cpp.html" target="_top" xlink:title=" ">
<polygon fill="white" stroke="black" points="1526,-56.5 1526,-75.5 1624,-75.5 1624,-56.5 1526,-56.5"/>
<text text-anchor="middle" x="1575" y="-63.5" font-family="Helvetica,sans-Serif" font-size="10.00">temperature.cpp</text>
</a>
</g>
</g>
<!-- Node26&#45;&gt;Node27 -->
<g id="edge37" class="edge">
<title>Node26&#45;&gt;Node27</title>
<path fill="none" stroke="midnightblue" d="M1490.25,-107.86C1511.02,-97.85 1539.02,-84.35 1557.05,-75.65"/>
<polygon fill="midnightblue" stroke="midnightblue" points="1488.48,-104.83 1480.99,-112.32 1491.52,-111.13 1488.48,-104.83"/>
</g>
<!-- Node28&#45;&gt;Node23 -->
<g id="edge43" class="edge">
<title>Node28&#45;&gt;Node23</title>
<path fill="none" stroke="midnightblue" d="M1244.79,-106.42C1210.95,-83.15 1145.78,-38.35 1118.5,-19.59"/>
<polygon fill="midnightblue" stroke="midnightblue" points="1243.22,-109.59 1253.45,-112.37 1247.19,-103.82 1243.22,-109.59"/>
</g>
<!-- Node28&#45;&gt;Node24 -->
<g id="edge44" class="edge">
<title>Node28&#45;&gt;Node24</title>
<path fill="none" stroke="midnightblue" d="M1232.97,-109.03C1204.98,-98.89 1165.52,-84.59 1140.61,-75.56"/>
<polygon fill="midnightblue" stroke="midnightblue" points="1232.12,-112.45 1242.72,-112.56 1234.51,-105.86 1232.12,-112.45"/>
</g>
<!-- Node28&#45;&gt;Node25 -->
<g id="edge45" class="edge">
<title>Node28&#45;&gt;Node25</title>
<path fill="none" stroke="midnightblue" d="M1260.84,-102.67C1254.06,-78.62 1242.44,-37.39 1237.42,-19.59"/>
<polygon fill="midnightblue" stroke="midnightblue" points="1257.49,-103.69 1263.57,-112.37 1264.22,-101.79 1257.49,-103.69"/>
</g>
<!-- Node29 -->
<g id="node29" class="node">
<title>Node29</title>
<g id="a_node29"><a xlink:href="_t_k_e_8cpp.html" target="_top" xlink:title=" ">
<polygon fill="white" stroke="black" points="1323,-0.5 1323,-19.5 1379,-19.5 1379,-0.5 1323,-0.5"/>
<text text-anchor="middle" x="1351" y="-7.5" font-family="Helvetica,sans-Serif" font-size="10.00">TKE.cpp</text>
</a>
</g>
</g>
<!-- Node28&#45;&gt;Node29 -->
<g id="edge39" class="edge">
<title>Node28&#45;&gt;Node29</title>
<path fill="none" stroke="midnightblue" d="M1278.93,-104.27C1297.3,-80.49 1330.3,-37.79 1344.36,-19.59"/>
<polygon fill="midnightblue" stroke="midnightblue" points="1276.01,-102.32 1272.67,-112.37 1281.55,-106.6 1276.01,-102.32"/>
</g>
<!-- Node30 -->
<g id="node30" class="node">
<title>Node30</title>
<g id="a_node30"><a xlink:href="tke__ops_8_h.html" target="_top" xlink:title=" ">
<polygon fill="white" stroke="black" points="1332.5,-56.5 1332.5,-75.5 1397.5,-75.5 1397.5,-56.5 1332.5,-56.5"/>
<text text-anchor="middle" x="1365" y="-63.5" font-family="Helvetica,sans-Serif" font-size="10.00">tke_ops.H</text>
</a>
</g>
</g>
<!-- Node28&#45;&gt;Node30 -->
<g id="edge40" class="edge">
<title>Node28&#45;&gt;Node30</title>
<path fill="none" stroke="midnightblue" d="M1290.84,-107.45C1309.11,-97.48 1333.42,-84.23 1349.13,-75.65"/>
<polygon fill="midnightblue" stroke="midnightblue" points="1289.01,-104.46 1281.91,-112.32 1292.36,-110.61 1289.01,-104.46"/>
</g>
<!-- Node31 -->
<g id="node31" class="node">
<title>Node31</title>
<g id="a_node31"><a xlink:href="_one_eq_ksgs_8cpp.html" target="_top" xlink:title=" ">
<polygon fill="white" stroke="black" points="1416,-56.5 1416,-75.5 1508,-75.5 1508,-56.5 1416,-56.5"/>
<text text-anchor="middle" x="1462" y="-63.5" font-family="Helvetica,sans-Serif" font-size="10.00">OneEqKsgs.cpp</text>
</a>
</g>
</g>
<!-- Node28&#45;&gt;Node31 -->
<g id="edge42" class="edge">
<title>Node28&#45;&gt;Node31</title>
<path fill="none" stroke="midnightblue" d="M1299.02,-111.9C1335.87,-101.75 1395.05,-85.45 1431.04,-75.53"/>
<polygon fill="midnightblue" stroke="midnightblue" points="1297.96,-108.56 1289.25,-114.59 1299.82,-115.31 1297.96,-108.56"/>
</g>
<!-- Node30&#45;&gt;Node29 -->
<g id="edge41" class="edge">
<title>Node30&#45;&gt;Node29</title>
<path fill="none" stroke="midnightblue" d="M1360.18,-46.4C1357.83,-37.36 1355.13,-26.94 1353.27,-19.75"/>
<polygon fill="midnightblue" stroke="midnightblue" points="1356.79,-47.28 1362.69,-56.08 1363.57,-45.52 1356.79,-47.28"/>
</g>
<!-- Node33 -->
<g id="node33" class="node">
<title>Node33</title>
<g id="a_node33"><a xlink:href="vof_8cpp.html" target="_top" xlink:title=" ">
<polygon fill="white" stroke="black" points="1753,-0.5 1753,-19.5 1805,-19.5 1805,-0.5 1753,-0.5"/>
<text text-anchor="middle" x="1779" y="-7.5" font-family="Helvetica,sans-Serif" font-size="10.00">vof.cpp</text>
</a>
</g>
</g>
<!-- Node32&#45;&gt;Node33 -->
<g id="edge47" class="edge">
<title>Node32&#45;&gt;Node33</title>
<path fill="none" stroke="midnightblue" d="M1701.68,-107.26C1681.2,-94.67 1658.24,-75.15 1671,-56 1689.14,-28.79 1727.18,-18.01 1752.91,-13.75"/>
<polygon fill="midnightblue" stroke="midnightblue" points="1700.08,-110.37 1710.49,-112.36 1703.59,-104.32 1700.08,-110.37"/>
</g>
<!-- Node34 -->
<g id="node34" class="node">
<title>Node34</title>
<g id="a_node34"><a xlink:href="vof__advection_8_h.html" target="_top" xlink:title=" ">
<polygon fill="white" stroke="black" points="1680,-56.5 1680,-75.5 1776,-75.5 1776,-56.5 1680,-56.5"/>
<text text-anchor="middle" x="1728" y="-63.5" font-family="Helvetica,sans-Serif" font-size="10.00">vof_advection.H</text>
</a>
</g>
</g>
<!-- Node32&#45;&gt;Node34 -->
<g id="edge48" class="edge">
<title>Node32&#45;&gt;Node34</title>
<path fill="none" stroke="midnightblue" d="M1728,-101.8C1728,-92.91 1728,-82.78 1728,-75.75"/>
<polygon fill="midnightblue" stroke="midnightblue" points="1724.5,-102.08 1728,-112.08 1731.5,-102.08 1724.5,-102.08"/>
</g>
<!-- Node35 -->
<g id="node35" class="node">
<title>Node35</title>
<g id="a_node35"><a xlink:href="vof__bcop_8_h.html" target="_top" xlink:title=" ">
<polygon fill="white" stroke="black" points="1794.5,-56.5 1794.5,-75.5 1865.5,-75.5 1865.5,-56.5 1794.5,-56.5"/>
<text text-anchor="middle" x="1830" y="-63.5" font-family="Helvetica,sans-Serif" font-size="10.00">vof_bcop.H</text>
</a>
</g>
</g>
<!-- Node32&#45;&gt;Node35 -->
<g id="edge50" class="edge">
<title>Node32&#45;&gt;Node35</title>
<path fill="none" stroke="midnightblue" d="M1753.33,-107.59C1772.19,-97.61 1797.38,-84.27 1813.65,-75.65"/>
<polygon fill="midnightblue" stroke="midnightblue" points="1751.59,-104.55 1744.39,-112.32 1754.86,-110.74 1751.59,-104.55"/>
</g>
<!-- Node36 -->
<g id="node36" class="node">
<title>Node36</title>
<g id="a_node36"><a xlink:href="vof__ops_8_h.html" target="_top" xlink:title=" ">
<polygon fill="white" stroke="black" points="1883.5,-56.5 1883.5,-75.5 1948.5,-75.5 1948.5,-56.5 1883.5,-56.5"/>
<text text-anchor="middle" x="1916" y="-63.5" font-family="Helvetica,sans-Serif" font-size="10.00">vof_ops.H</text>
</a>
</g>
</g>
<!-- Node32&#45;&gt;Node36 -->
<g id="edge52" class="edge">
<title>Node32&#45;&gt;Node36</title>
<path fill="none" stroke="midnightblue" d="M1758.96,-112.11C1794.23,-101.98 1851.47,-85.53 1886.24,-75.55"/>
<polygon fill="midnightblue" stroke="midnightblue" points="1757.85,-108.79 1749.2,-114.91 1759.78,-115.51 1757.85,-108.79"/>
</g>
<!-- Node34&#45;&gt;Node33 -->
<g id="edge49" class="edge">
<title>Node34&#45;&gt;Node33</title>
<path fill="none" stroke="midnightblue" d="M1743.38,-48.72C1752.37,-39.2 1763.36,-27.56 1770.74,-19.75"/>
<polygon fill="midnightblue" stroke="midnightblue" points="1740.74,-46.41 1736.42,-56.08 1745.83,-51.22 1740.74,-46.41"/>
</g>
<!-- Node35&#45;&gt;Node33 -->
<g id="edge51" class="edge">
<title>Node35&#45;&gt;Node33</title>
<path fill="none" stroke="midnightblue" d="M1814.62,-48.72C1805.63,-39.2 1794.64,-27.56 1787.26,-19.75"/>
<polygon fill="midnightblue" stroke="midnightblue" points="1812.17,-51.22 1821.58,-56.08 1817.26,-46.41 1812.17,-51.22"/>
</g>
<!-- Node36&#45;&gt;Node33 -->
<g id="edge53" class="edge">
<title>Node36&#45;&gt;Node33</title>
<path fill="none" stroke="midnightblue" d="M1884.98,-52.77C1859.24,-42.63 1823.31,-28.47 1800.61,-19.52"/>
<polygon fill="midnightblue" stroke="midnightblue" points="1883.71,-56.03 1894.29,-56.44 1886.27,-49.52 1883.71,-56.03"/>
</g>
</g>
</svg>
