<?xml version="1.0" encoding="UTF-8" standalone="no"?>
<!DOCTYPE svg PUBLIC "-//W3C//DTD SVG 1.1//EN"
 "http://www.w3.org/Graphics/SVG/1.1/DTD/svg11.dtd">
<!-- Generated by graphviz version 2.43.0 (0)
 -->
<!-- Title: MeshMap.H Pages: 1 -->
<!--zoomable 196 -->
<svg id="main" version="1.1" xmlns="http://www.w3.org/2000/svg" xmlns:xlink="http://www.w3.org/1999/xlink" xml:space="preserve" onload="init(evt)">
<style type="text/css"><![CDATA[
.edge:hover path { stroke: red; }
.edge:hover polygon { stroke: red; fill: red; }
]]></style>
<script type="text/javascript"><![CDATA[
var edges = document.getElementsByTagName('g');
if (edges && edges.length) {
  for (var i=0;i<edges.length;i++) {
    if (edges[i].id.substr(0,4)=='edge') {
      edges[i].setAttribute('class','edge');
    }
  }
}
]]></script>
        <defs>
                <circle id="rim" cx="0" cy="0" r="7"/>
                <circle id="rim2" cx="0" cy="0" r="3.5"/>
                <g id="zoomPlus">
                        <use xlink:href="#rim" fill="#404040">
                                <set attributeName="fill" to="#808080" begin="zoomplus.mouseover" end="zoomplus.mouseout"/>
                        </use>
                        <path d="M-4,0h8M0,-4v8" fill="none" stroke="white" stroke-width="1.5" pointer-events="none"/>
                </g>
                <g id="zoomMin">
                        <use xlink:href="#rim" fill="#404040">
                                <set attributeName="fill" to="#808080" begin="zoomminus.mouseover" end="zoomminus.mouseout"/>
                        </use>
                        <path d="M-4,0h8" fill="none" stroke="white" stroke-width="1.5" pointer-events="none"/>
                </g>
                <g id="dirArrow">
                        <path fill="none" stroke="white" stroke-width="1.5" d="M0,-3.0v7 M-2.5,-0.5L0,-3.0L2.5,-0.5"/>
                </g>
               <g id="resetDef">
                       <use xlink:href="#rim2" fill="#404040">
                               <set attributeName="fill" to="#808080" begin="reset.mouseover" end="reset.mouseout"/>
                       </use>
               </g>
        </defs>

<script type="text/javascript">
var viewWidth = 4838;
var viewHeight = 196;
var sectionId = 'dynsection-1';
</script>
<script xlink:href="svgpan.js"/>
<svg id="graph" class="graph">
<g id="viewport">
<title>MeshMap.H</title>
<polygon fill="white" stroke="transparent" points="-4,4 -4,-192 4834,-192 4834,4 -4,4"/>
<!-- Node1 -->
<g id="node1" class="node">
<title>Node1</title>
<g id="a_node1"><a xlink:title=" ">
<polygon fill="#bfbfbf" stroke="black" points="2423,-168.5 2423,-187.5 2497,-187.5 2497,-168.5 2423,-168.5"/>
<text text-anchor="middle" x="2460" y="-175.5" font-family="Helvetica,sans-Serif" font-size="10.00">MeshMap.H</text>
</a>
</g>
</g>
<!-- Node2 -->
<g id="node2" class="node">
<title>Node2</title>
<g id="a_node2"><a xlink:href="_c_f_d_sim_8_h.html" target="_top" xlink:title=" ">
<polygon fill="white" stroke="red" points="2374,-112.5 2374,-131.5 2440,-131.5 2440,-112.5 2374,-112.5"/>
<text text-anchor="middle" x="2407" y="-119.5" font-family="Helvetica,sans-Serif" font-size="10.00">CFDSim.H</text>
</a>
</g>
</g>
<!-- Node1&#45;&gt;Node2 -->
<g id="edge1" class="edge">
<title>Node1&#45;&gt;Node2</title>
<path fill="none" stroke="midnightblue" d="M2444.02,-160.72C2434.68,-151.2 2423.25,-139.56 2415.59,-131.75"/>
<polygon fill="midnightblue" stroke="midnightblue" points="2441.75,-163.4 2451.25,-168.08 2446.74,-158.49 2441.75,-163.4"/>
</g>
<!-- Node4 -->
<g id="node4" class="node">
<title>Node4</title>
<g id="a_node4"><a xlink:href="_mesh_map_8cpp.html" target="_top" xlink:title=" ">
<polygon fill="white" stroke="black" points="0,-56.5 0,-75.5 84,-75.5 84,-56.5 0,-56.5"/>
<text text-anchor="middle" x="42" y="-63.5" font-family="Helvetica,sans-Serif" font-size="10.00">MeshMap.cpp</text>
</a>
</g>
</g>
<!-- Node1&#45;&gt;Node4 -->
<g id="edge55" class="edge">
<title>Node1&#45;&gt;Node4</title>
<path fill="none" stroke="midnightblue" d="M2412.69,-177.3C2168.12,-178.36 1022.68,-177.42 93,-76 90.14,-75.69 87.2,-75.31 84.24,-74.9"/>
<polygon fill="midnightblue" stroke="midnightblue" points="2413.01,-180.8 2423,-177.25 2412.98,-173.8 2413.01,-180.8"/>
</g>
<!-- Node213 -->
<g id="node49" class="node">
<title>Node213</title>
<g id="a_node49"><a xlink:href="_channel_flow_map_8_h.html" target="_top" xlink:title=" ">
<polygon fill="white" stroke="red" points="2458.5,-112.5 2458.5,-131.5 2569.5,-131.5 2569.5,-112.5 2458.5,-112.5"/>
<text text-anchor="middle" x="2514" y="-119.5" font-family="Helvetica,sans-Serif" font-size="10.00">ChannelFlowMap.H</text>
</a>
</g>
</g>
<!-- Node1&#45;&gt;Node213 -->
<g id="edge56" class="edge">
<title>Node1&#45;&gt;Node213</title>
<path fill="none" stroke="midnightblue" d="M2476,-161C2485.57,-151.43 2497.36,-139.64 2505.25,-131.75"/>
<polygon fill="midnightblue" stroke="midnightblue" points="2473.51,-158.54 2468.92,-168.08 2478.46,-163.49 2473.51,-158.54"/>
</g>
<!-- Node215 -->
<g id="node50" class="node">
<title>Node215</title>
<g id="a_node50"><a xlink:href="_constant_map_8_h.html" target="_top" xlink:title=" ">
<polygon fill="white" stroke="red" points="2588,-112.5 2588,-131.5 2680,-131.5 2680,-112.5 2588,-112.5"/>
<text text-anchor="middle" x="2634" y="-119.5" font-family="Helvetica,sans-Serif" font-size="10.00">ConstantMap.H</text>
</a>
</g>
</g>
<!-- Node1&#45;&gt;Node215 -->
<g id="edge57" class="edge">
<title>Node1&#45;&gt;Node215</title>
<path fill="none" stroke="midnightblue" d="M2497.26,-165.44C2530.07,-155.26 2577.08,-140.66 2606.56,-131.52"/>
<polygon fill="midnightblue" stroke="midnightblue" points="2496.08,-162.14 2487.57,-168.44 2498.16,-168.82 2496.08,-162.14"/>
</g>
<!-- Node3 -->
<g id="node3" class="node">
<title>Node3</title>
<g id="a_node3"><a xlink:href="_c_f_d_sim_8cpp.html" target="_top" xlink:title=" ">
<polygon fill="white" stroke="black" points="102,-56.5 102,-75.5 178,-75.5 178,-56.5 102,-56.5"/>
<text text-anchor="middle" x="140" y="-63.5" font-family="Helvetica,sans-Serif" font-size="10.00">CFDSim.cpp</text>
</a>
</g>
</g>
<!-- Node2&#45;&gt;Node3 -->
<g id="edge2" class="edge">
<title>Node2&#45;&gt;Node3</title>
<path fill="none" stroke="midnightblue" d="M2363.71,-120.56C2073.11,-117.57 410.79,-99.52 187,-76 184.11,-75.7 181.13,-75.31 178.14,-74.86"/>
<polygon fill="midnightblue" stroke="midnightblue" points="2363.82,-124.06 2373.86,-120.67 2363.89,-117.06 2363.82,-124.06"/>
</g>
<!-- Node2&#45;&gt;Node4 -->
<g id="edge3" class="edge">
<title>Node2&#45;&gt;Node4</title>
<path fill="none" stroke="midnightblue" d="M2363.32,-120.56C2064.5,-117.49 326.81,-98.77 93,-76 90.14,-75.72 87.19,-75.37 84.23,-74.97"/>
<polygon fill="midnightblue" stroke="midnightblue" points="2363.7,-124.06 2373.73,-120.67 2363.77,-117.06 2363.7,-124.06"/>
</g>
<!-- Node5 -->
<g id="node5" class="node">
<title>Node5</title>
<g id="a_node5"><a xlink:href="_a_b_l_forcing_8cpp.html" target="_top" xlink:title=" ">
<polygon fill="white" stroke="black" points="196.5,-56.5 196.5,-75.5 287.5,-75.5 287.5,-56.5 196.5,-56.5"/>
<text text-anchor="middle" x="242" y="-63.5" font-family="Helvetica,sans-Serif" font-size="10.00">ABLForcing.cpp</text>
</a>
</g>
</g>
<!-- Node2&#45;&gt;Node5 -->
<g id="edge4" class="edge">
<title>Node2&#45;&gt;Node5</title>
<path fill="none" stroke="midnightblue" d="M2363.63,-120.91C2100.83,-120.23 718.95,-114.83 297,-76 293.92,-75.72 290.75,-75.36 287.56,-74.96"/>
<polygon fill="midnightblue" stroke="midnightblue" points="2363.9,-124.41 2373.9,-120.93 2363.91,-117.41 2363.9,-124.41"/>
</g>
<!-- Node6 -->
<g id="node6" class="node">
<title>Node6</title>
<g id="a_node6"><a xlink:href="_a_b_l_mean_boussinesq_8cpp.html" target="_top" xlink:title=" ">
<polygon fill="white" stroke="black" points="306,-56.5 306,-75.5 444,-75.5 444,-56.5 306,-56.5"/>
<text text-anchor="middle" x="375" y="-63.5" font-family="Helvetica,sans-Serif" font-size="10.00">ABLMeanBoussinesq.cpp</text>
</a>
</g>
</g>
<!-- Node2&#45;&gt;Node6 -->
<g id="edge5" class="edge">
<title>Node2&#45;&gt;Node6</title>
<path fill="none" stroke="midnightblue" d="M2363.72,-120.55C2112.82,-117.83 842.83,-102.92 453,-76 450.14,-75.8 447.23,-75.58 444.29,-75.33"/>
<polygon fill="midnightblue" stroke="midnightblue" points="2363.85,-124.05 2373.89,-120.65 2363.93,-117.05 2363.85,-124.05"/>
</g>
<!-- Node7 -->
<g id="node7" class="node">
<title>Node7</title>
<g id="a_node7"><a xlink:href="_actuator_forcing_8cpp.html" target="_top" xlink:title=" ">
<polygon fill="white" stroke="black" points="462.5,-56.5 462.5,-75.5 575.5,-75.5 575.5,-56.5 462.5,-56.5"/>
<text text-anchor="middle" x="519" y="-63.5" font-family="Helvetica,sans-Serif" font-size="10.00">ActuatorForcing.cpp</text>
</a>
</g>
</g>
<!-- Node2&#45;&gt;Node7 -->
<g id="edge6" class="edge">
<title>Node2&#45;&gt;Node7</title>
<path fill="none" stroke="midnightblue" d="M2363.6,-120.58C2122.61,-118.16 946.67,-105.04 585,-76 582,-75.76 578.93,-75.47 575.84,-75.16"/>
<polygon fill="midnightblue" stroke="midnightblue" points="2363.69,-124.08 2373.73,-120.68 2363.76,-117.08 2363.69,-124.08"/>
</g>
<!-- Node8 -->
<g id="node8" class="node">
<title>Node8</title>
<g id="a_node8"><a xlink:href="_body_force_8cpp.html" target="_top" xlink:title=" ">
<polygon fill="white" stroke="black" points="594,-56.5 594,-75.5 682,-75.5 682,-56.5 594,-56.5"/>
<text text-anchor="middle" x="638" y="-63.5" font-family="Helvetica,sans-Serif" font-size="10.00">BodyForce.cpp</text>
</a>
</g>
</g>
<!-- Node2&#45;&gt;Node8 -->
<g id="edge7" class="edge">
<title>Node2&#45;&gt;Node8</title>
<path fill="none" stroke="midnightblue" d="M2363.92,-120.7C2132.01,-118.96 1030.04,-109.06 691,-76 688.12,-75.72 685.16,-75.37 682.18,-74.99"/>
<polygon fill="midnightblue" stroke="midnightblue" points="2363.97,-124.2 2373.99,-120.77 2364.02,-117.2 2363.97,-124.2"/>
</g>
<!-- Node9 -->
<g id="node9" class="node">
<title>Node9</title>
<g id="a_node9"><a xlink:href="_boussinesq_buoyancy_8cpp.html" target="_top" xlink:title=" ">
<polygon fill="white" stroke="black" points="700.5,-56.5 700.5,-75.5 839.5,-75.5 839.5,-56.5 700.5,-56.5"/>
<text text-anchor="middle" x="770" y="-63.5" font-family="Helvetica,sans-Serif" font-size="10.00">BoussinesqBuoyancy.cpp</text>
</a>
</g>
</g>
<!-- Node2&#45;&gt;Node9 -->
<g id="edge8" class="edge">
<title>Node2&#45;&gt;Node9</title>
<path fill="none" stroke="midnightblue" d="M2363.69,-121.11C2180.07,-121.31 1447.74,-119.18 848,-76 845.28,-75.8 842.51,-75.58 839.71,-75.34"/>
<polygon fill="midnightblue" stroke="midnightblue" points="2363.77,-124.61 2373.76,-121.1 2363.76,-117.61 2363.77,-124.61"/>
</g>
<!-- Node10 -->
<g id="node10" class="node">
<title>Node10</title>
<g id="a_node10"><a xlink:href="_coriolis_forcing_8cpp.html" target="_top" xlink:title=" ">
<polygon fill="white" stroke="black" points="857.5,-56.5 857.5,-75.5 966.5,-75.5 966.5,-56.5 857.5,-56.5"/>
<text text-anchor="middle" x="912" y="-63.5" font-family="Helvetica,sans-Serif" font-size="10.00">CoriolisForcing.cpp</text>
</a>
</g>
</g>
<!-- Node2&#45;&gt;Node10 -->
<g id="edge9" class="edge">
<title>Node2&#45;&gt;Node10</title>
<path fill="none" stroke="midnightblue" d="M2363.83,-121.38C2189.64,-122.55 1521.69,-123.49 975,-76 972.25,-75.76 969.43,-75.48 966.59,-75.18"/>
<polygon fill="midnightblue" stroke="midnightblue" points="2363.9,-124.88 2373.88,-121.31 2363.85,-117.88 2363.9,-124.88"/>
</g>
<!-- Node11 -->
<g id="node11" class="node">
<title>Node11</title>
<g id="a_node11"><a xlink:href="_density_buoyancy_8cpp.html" target="_top" xlink:title=" ">
<polygon fill="white" stroke="black" points="984.5,-56.5 984.5,-75.5 1105.5,-75.5 1105.5,-56.5 984.5,-56.5"/>
<text text-anchor="middle" x="1045" y="-63.5" font-family="Helvetica,sans-Serif" font-size="10.00">DensityBuoyancy.cpp</text>
</a>
</g>
</g>
<!-- Node2&#45;&gt;Node11 -->
<g id="edge10" class="edge">
<title>Node2&#45;&gt;Node11</title>
<path fill="none" stroke="midnightblue" d="M2363.83,-120.98C2200.32,-120.6 1603.57,-116.36 1114,-76 1111.23,-75.77 1108.4,-75.51 1105.55,-75.23"/>
<polygon fill="midnightblue" stroke="midnightblue" points="2363.96,-124.48 2373.96,-121 2363.97,-117.48 2363.96,-124.48"/>
</g>
<!-- Node12 -->
<g id="node12" class="node">
<title>Node12</title>
<g id="a_node12"><a xlink:href="_geostrophic_forcing_8cpp.html" target="_top" xlink:title=" ">
<polygon fill="white" stroke="black" points="1123.5,-56.5 1123.5,-75.5 1254.5,-75.5 1254.5,-56.5 1123.5,-56.5"/>
<text text-anchor="middle" x="1189" y="-63.5" font-family="Helvetica,sans-Serif" font-size="10.00">GeostrophicForcing.cpp</text>
</a>
</g>
</g>
<!-- Node2&#45;&gt;Node12 -->
<g id="edge11" class="edge">
<title>Node2&#45;&gt;Node12</title>
<path fill="none" stroke="midnightblue" d="M2363.46,-120.54C2211.65,-118.67 1691.73,-110.03 1264,-76 1260.99,-75.76 1257.92,-75.49 1254.82,-75.2"/>
<polygon fill="midnightblue" stroke="midnightblue" points="2363.71,-124.04 2373.75,-120.66 2363.79,-117.04 2363.71,-124.04"/>
</g>
<!-- Node13 -->
<g id="node13" class="node">
<title>Node13</title>
<g id="a_node13"><a xlink:href="_gravity_forcing_8cpp.html" target="_top" xlink:title=" ">
<polygon fill="white" stroke="black" points="1273,-56.5 1273,-75.5 1381,-75.5 1381,-56.5 1273,-56.5"/>
<text text-anchor="middle" x="1327" y="-63.5" font-family="Helvetica,sans-Serif" font-size="10.00">GravityForcing.cpp</text>
</a>
</g>
</g>
<!-- Node2&#45;&gt;Node13 -->
<g id="edge12" class="edge">
<title>Node2&#45;&gt;Node13</title>
<path fill="none" stroke="midnightblue" d="M2363.64,-120.59C2222.88,-118.95 1766.02,-111.09 1390,-76 1387.14,-75.73 1384.21,-75.43 1381.26,-75.09"/>
<polygon fill="midnightblue" stroke="midnightblue" points="2363.96,-124.1 2374,-120.71 2364.03,-117.1 2363.96,-124.1"/>
</g>
<!-- Node14 -->
<g id="node14" class="node">
<title>Node14</title>
<g id="a_node14"><a xlink:href="_hurricane_forcing_8cpp.html" target="_top" xlink:title=" ">
<polygon fill="white" stroke="black" points="1399.5,-56.5 1399.5,-75.5 1518.5,-75.5 1518.5,-56.5 1399.5,-56.5"/>
<text text-anchor="middle" x="1459" y="-63.5" font-family="Helvetica,sans-Serif" font-size="10.00">HurricaneForcing.cpp</text>
</a>
</g>
</g>
<!-- Node2&#45;&gt;Node14 -->
<g id="edge13" class="edge">
<title>Node2&#45;&gt;Node14</title>
<path fill="none" stroke="midnightblue" d="M2363.63,-119.99C2235.58,-116.73 1848.09,-105.02 1528,-76 1524.99,-75.73 1521.91,-75.42 1518.81,-75.09"/>
<polygon fill="midnightblue" stroke="midnightblue" points="2363.72,-123.49 2373.81,-120.24 2363.9,-116.49 2363.72,-123.49"/>
</g>
<!-- Node15 -->
<g id="node15" class="node">
<title>Node15</title>
<g id="a_node15"><a xlink:href="_synth_turb_forcing_8cpp.html" target="_top" xlink:title=" ">
<polygon fill="white" stroke="black" points="1537,-56.5 1537,-75.5 1657,-75.5 1657,-56.5 1537,-56.5"/>
<text text-anchor="middle" x="1597" y="-63.5" font-family="Helvetica,sans-Serif" font-size="10.00">SynthTurbForcing.cpp</text>
</a>
</g>
</g>
<!-- Node2&#45;&gt;Node15 -->
<g id="edge14" class="edge">
<title>Node2&#45;&gt;Node15</title>
<path fill="none" stroke="midnightblue" d="M2363.9,-119.27C2250.37,-114.51 1933.71,-99.98 1671,-76 1666.49,-75.59 1661.83,-75.12 1657.14,-74.62"/>
<polygon fill="midnightblue" stroke="midnightblue" points="2363.8,-122.77 2373.94,-119.69 2364.09,-115.77 2363.8,-122.77"/>
</g>
<!-- Node16 -->
<g id="node16" class="node">
<title>Node16</title>
<g id="a_node16"><a xlink:href="_p_d_e_8_h.html" target="_top" xlink:title=" ">
<polygon fill="white" stroke="red" points="1741.5,-0.5 1741.5,-19.5 1788.5,-19.5 1788.5,-0.5 1741.5,-0.5"/>
<text text-anchor="middle" x="1765" y="-7.5" font-family="Helvetica,sans-Serif" font-size="10.00">PDE.H</text>
</a>
</g>
</g>
<!-- Node2&#45;&gt;Node16 -->
<g id="edge15" class="edge">
<title>Node2&#45;&gt;Node16</title>
<path fill="none" stroke="midnightblue" d="M2363.68,-119.84C2214.02,-115.64 1726.65,-100.14 1704,-76 1685.05,-55.8 1722.42,-32.07 1746.62,-19.62"/>
<polygon fill="midnightblue" stroke="midnightblue" points="2363.77,-123.35 2373.86,-120.13 2363.96,-116.35 2363.77,-123.35"/>
</g>
<!-- Node48 -->
<g id="node17" class="node">
<title>Node48</title>
<g id="a_node17"><a xlink:href="_p_d_e_base_8cpp.html" target="_top" xlink:title=" ">
<polygon fill="white" stroke="black" points="1713,-56.5 1713,-75.5 1793,-75.5 1793,-56.5 1713,-56.5"/>
<text text-anchor="middle" x="1753" y="-63.5" font-family="Helvetica,sans-Serif" font-size="10.00">PDEBase.cpp</text>
</a>
</g>
</g>
<!-- Node2&#45;&gt;Node48 -->
<g id="edge16" class="edge">
<title>Node2&#45;&gt;Node48</title>
<path fill="none" stroke="midnightblue" d="M2363.48,-119.37C2263.79,-115.28 2011.39,-102.94 1802,-76 1799.08,-75.62 1796.08,-75.19 1793.06,-74.72"/>
<polygon fill="midnightblue" stroke="midnightblue" points="2363.62,-122.88 2373.75,-119.78 2363.9,-115.88 2363.62,-122.88"/>
</g>
<!-- Node49 -->
<g id="node18" class="node">
<title>Node49</title>
<g id="a_node18"><a xlink:href="_p_d_e_ops_8_h.html" target="_top" xlink:title=" ">
<polygon fill="white" stroke="red" points="1811.5,-56.5 1811.5,-75.5 1876.5,-75.5 1876.5,-56.5 1811.5,-56.5"/>
<text text-anchor="middle" x="1844" y="-63.5" font-family="Helvetica,sans-Serif" font-size="10.00">PDEOps.H</text>
</a>
</g>
</g>
<!-- Node2&#45;&gt;Node49 -->
<g id="edge17" class="edge">
<title>Node2&#45;&gt;Node49</title>
<path fill="none" stroke="midnightblue" d="M2363.87,-119.1C2274.39,-114.76 2062.19,-102.38 1886,-76 1883.05,-75.56 1880,-75.03 1876.94,-74.47"/>
<polygon fill="midnightblue" stroke="midnightblue" points="2363.76,-122.6 2373.92,-119.58 2364.09,-115.61 2363.76,-122.6"/>
</g>
<!-- Node59 -->
<g id="node19" class="node">
<title>Node59</title>
<g id="a_node19"><a xlink:href="_s_d_r_src_8cpp.html" target="_top" xlink:title=" ">
<polygon fill="white" stroke="black" points="1895,-56.5 1895,-75.5 1967,-75.5 1967,-56.5 1895,-56.5"/>
<text text-anchor="middle" x="1931" y="-63.5" font-family="Helvetica,sans-Serif" font-size="10.00">SDRSrc.cpp</text>
</a>
</g>
</g>
<!-- Node2&#45;&gt;Node59 -->
<g id="edge19" class="edge">
<title>Node2&#45;&gt;Node59</title>
<path fill="none" stroke="midnightblue" d="M2363.5,-117.81C2285.54,-111.79 2117.01,-97.41 1976,-76 1973.16,-75.57 1970.24,-75.08 1967.3,-74.56"/>
<polygon fill="midnightblue" stroke="midnightblue" points="2363.64,-121.33 2373.88,-118.6 2364.18,-114.35 2363.64,-121.33"/>
</g>
<!-- Node60 -->
<g id="node20" class="node">
<title>Node60</title>
<g id="a_node20"><a xlink:href="_ksgs_m84_src_8cpp.html" target="_top" xlink:title=" ">
<polygon fill="white" stroke="black" points="1985,-56.5 1985,-75.5 2081,-75.5 2081,-56.5 1985,-56.5"/>
<text text-anchor="middle" x="2033" y="-63.5" font-family="Helvetica,sans-Serif" font-size="10.00">KsgsM84Src.cpp</text>
</a>
</g>
</g>
<!-- Node2&#45;&gt;Node60 -->
<g id="edge20" class="edge">
<title>Node2&#45;&gt;Node60</title>
<path fill="none" stroke="midnightblue" d="M2363.61,-115.06C2302.52,-106.64 2187.7,-90.65 2090,-76 2087.13,-75.57 2084.17,-75.12 2081.19,-74.66"/>
<polygon fill="midnightblue" stroke="midnightblue" points="2363.27,-118.55 2373.66,-116.44 2364.23,-111.61 2363.27,-118.55"/>
</g>
<!-- Node61 -->
<g id="node21" class="node">
<title>Node61</title>
<g id="a_node21"><a xlink:href="_kw_s_s_t_src_8cpp.html" target="_top" xlink:title=" ">
<polygon fill="white" stroke="black" points="2099.5,-56.5 2099.5,-75.5 2184.5,-75.5 2184.5,-56.5 2099.5,-56.5"/>
<text text-anchor="middle" x="2142" y="-63.5" font-family="Helvetica,sans-Serif" font-size="10.00">KwSSTSrc.cpp</text>
</a>
</g>
</g>
<!-- Node2&#45;&gt;Node61 -->
<g id="edge21" class="edge">
<title>Node2&#45;&gt;Node61</title>
<path fill="none" stroke="midnightblue" d="M2364.17,-112.27C2314.45,-102.14 2233,-85.54 2183.75,-75.51"/>
<polygon fill="midnightblue" stroke="midnightblue" points="2363.48,-115.7 2373.97,-114.27 2364.87,-108.84 2363.48,-115.7"/>
</g>
<!-- Node62 -->
<g id="node22" class="node">
<title>Node62</title>
<g id="a_node22"><a xlink:href="helics_8_h.html" target="_top" xlink:title=" ">
<polygon fill="white" stroke="red" points="2203,-56.5 2203,-75.5 2259,-75.5 2259,-56.5 2203,-56.5"/>
<text text-anchor="middle" x="2231" y="-63.5" font-family="Helvetica,sans-Serif" font-size="10.00">helics.H</text>
</a>
</g>
</g>
<!-- Node2&#45;&gt;Node62 -->
<g id="edge22" class="edge">
<title>Node2&#45;&gt;Node62</title>
<path fill="none" stroke="midnightblue" d="M2364.11,-109.57C2329.25,-99.38 2281.6,-84.7 2253.68,-75.52"/>
<polygon fill="midnightblue" stroke="midnightblue" points="2363.44,-113.02 2374.02,-112.44 2365.39,-106.3 2363.44,-113.02"/>
</g>
<!-- Node64 -->
<g id="node23" class="node">
<title>Node64</title>
<g id="a_node23"><a xlink:href="_i_b_8cpp.html" target="_top" xlink:title=" ">
<polygon fill="white" stroke="black" points="2277.5,-56.5 2277.5,-75.5 2324.5,-75.5 2324.5,-56.5 2277.5,-56.5"/>
<text text-anchor="middle" x="2301" y="-63.5" font-family="Helvetica,sans-Serif" font-size="10.00">IB.cpp</text>
</a>
</g>
</g>
<!-- Node2&#45;&gt;Node64 -->
<g id="edge24" class="edge">
<title>Node2&#45;&gt;Node64</title>
<path fill="none" stroke="midnightblue" d="M2380.94,-107.73C2361.32,-97.73 2334.97,-84.31 2317.99,-75.65"/>
<polygon fill="midnightblue" stroke="midnightblue" points="2379.47,-110.9 2389.97,-112.32 2382.65,-104.67 2379.47,-110.9"/>
</g>
<!-- Node65 -->
<g id="node24" class="node">
<title>Node65</title>
<g id="a_node24"><a xlink:href="_i_b_ops_8_h.html" target="_top" xlink:title=" ">
<polygon fill="white" stroke="red" points="2343,-56.5 2343,-75.5 2399,-75.5 2399,-56.5 2343,-56.5"/>
<text text-anchor="middle" x="2371" y="-63.5" font-family="Helvetica,sans-Serif" font-size="10.00">IBOps.H</text>
</a>
</g>
</g>
<!-- Node2&#45;&gt;Node65 -->
<g id="edge25" class="edge">
<title>Node2&#45;&gt;Node65</title>
<path fill="none" stroke="midnightblue" d="M2395.38,-103.57C2389.18,-94.27 2381.83,-83.25 2376.83,-75.75"/>
<polygon fill="midnightblue" stroke="midnightblue" points="2392.6,-105.7 2401.06,-112.08 2398.42,-101.82 2392.6,-105.7"/>
</g>
<!-- Node75 -->
<g id="node25" class="node">
<title>Node75</title>
<g id="a_node25"><a xlink:href="incflo_8_h.html" target="_top" xlink:title=" ">
<polygon fill="white" stroke="red" points="2417.5,-56.5 2417.5,-75.5 2470.5,-75.5 2470.5,-56.5 2417.5,-56.5"/>
<text text-anchor="middle" x="2444" y="-63.5" font-family="Helvetica,sans-Serif" font-size="10.00">incflo.H</text>
</a>
</g>
</g>
<!-- Node2&#45;&gt;Node75 -->
<g id="edge26" class="edge">
<title>Node2&#45;&gt;Node75</title>
<path fill="none" stroke="midnightblue" d="M2418.95,-103.57C2425.31,-94.27 2432.87,-83.25 2438,-75.75"/>
<polygon fill="midnightblue" stroke="midnightblue" points="2415.87,-101.86 2413.11,-112.08 2421.65,-105.81 2415.87,-101.86"/>
</g>
<!-- Node87 -->
<g id="node26" class="node">
<title>Node87</title>
<g id="a_node26"><a xlink:href="_ocean_waves_8cpp.html" target="_top" xlink:title=" ">
<polygon fill="white" stroke="black" points="2489,-56.5 2489,-75.5 2589,-75.5 2589,-56.5 2489,-56.5"/>
<text text-anchor="middle" x="2539" y="-63.5" font-family="Helvetica,sans-Serif" font-size="10.00">OceanWaves.cpp</text>
</a>
</g>
</g>
<!-- Node2&#45;&gt;Node87 -->
<g id="edge27" class="edge">
<title>Node2&#45;&gt;Node87</title>
<path fill="none" stroke="midnightblue" d="M2437.22,-108.64C2461.99,-98.5 2496.4,-84.43 2518.18,-75.52"/>
<polygon fill="midnightblue" stroke="midnightblue" points="2435.85,-105.42 2427.92,-112.44 2438.5,-111.9 2435.85,-105.42"/>
</g>
<!-- Node88 -->
<g id="node27" class="node">
<title>Node88</title>
<g id="a_node27"><a xlink:href="_ocean_waves_ops_8_h.html" target="_top" xlink:title=" ">
<polygon fill="white" stroke="red" points="2607.5,-56.5 2607.5,-75.5 2716.5,-75.5 2716.5,-56.5 2607.5,-56.5"/>
<text text-anchor="middle" x="2662" y="-63.5" font-family="Helvetica,sans-Serif" font-size="10.00">OceanWavesOps.H</text>
</a>
</g>
</g>
<!-- Node2&#45;&gt;Node88 -->
<g id="edge28" class="edge">
<title>Node2&#45;&gt;Node88</title>
<path fill="none" stroke="midnightblue" d="M2450.13,-111.76C2515.81,-97.8 2580.8,-84.09 2621.56,-75.51"/>
<polygon fill="midnightblue" stroke="midnightblue" points="2449.07,-108.41 2440.01,-113.92 2450.52,-115.26 2449.07,-108.41"/>
</g>
<!-- Node96 -->
<g id="node28" class="node">
<title>Node96</title>
<g id="a_node28"><a xlink:href="_tioga_interface_8cpp.html" target="_top" xlink:title=" ">
<polygon fill="white" stroke="black" points="2734.5,-56.5 2734.5,-75.5 2841.5,-75.5 2841.5,-56.5 2734.5,-56.5"/>
<text text-anchor="middle" x="2788" y="-63.5" font-family="Helvetica,sans-Serif" font-size="10.00">TiogaInterface.cpp</text>
</a>
</g>
</g>
<!-- Node2&#45;&gt;Node96 -->
<g id="edge29" class="edge">
<title>Node2&#45;&gt;Node96</title>
<path fill="none" stroke="midnightblue" d="M2450.54,-111.85C2572.64,-91.1 2605.66,-92.31 2725,-76 2728.07,-75.58 2731.21,-75.15 2734.39,-74.7"/>
<polygon fill="midnightblue" stroke="midnightblue" points="2449.69,-108.44 2440.42,-113.58 2450.87,-115.34 2449.69,-108.44"/>
</g>
<!-- Node97 -->
<g id="node29" class="node">
<title>Node97</title>
<g id="a_node29"><a xlink:href="_boussinesq_bubble_8cpp.html" target="_top" xlink:title=" ">
<polygon fill="white" stroke="black" points="2860,-56.5 2860,-75.5 2986,-75.5 2986,-56.5 2860,-56.5"/>
<text text-anchor="middle" x="2923" y="-63.5" font-family="Helvetica,sans-Serif" font-size="10.00">BoussinesqBubble.cpp</text>
</a>
</g>
</g>
<!-- Node2&#45;&gt;Node97 -->
<g id="edge30" class="edge">
<title>Node2&#45;&gt;Node97</title>
<path fill="none" stroke="midnightblue" d="M2450.32,-111.96C2627.63,-85.55 2675.28,-94.61 2850,-76 2853.17,-75.66 2856.43,-75.3 2859.71,-74.93"/>
<polygon fill="midnightblue" stroke="midnightblue" points="2449.77,-108.51 2440.4,-113.46 2450.81,-115.43 2449.77,-108.51"/>
</g>
<!-- Node98 -->
<g id="node30" class="node">
<title>Node98</title>
<g id="a_node30"><a xlink:href="_channel_flow_8cpp.html" target="_top" xlink:title=" ">
<polygon fill="white" stroke="black" points="2965.5,-0.5 2965.5,-19.5 3064.5,-19.5 3064.5,-0.5 2965.5,-0.5"/>
<text text-anchor="middle" x="3015" y="-7.5" font-family="Helvetica,sans-Serif" font-size="10.00">ChannelFlow.cpp</text>
</a>
</g>
</g>
<!-- Node2&#45;&gt;Node98 -->
<g id="edge31" class="edge">
<title>Node2&#45;&gt;Node98</title>
<path fill="none" stroke="midnightblue" d="M2450.39,-112.3C2543.67,-104.34 2949.22,-112.2 2995,-76 3012.23,-62.38 3014.98,-34.24 3015.2,-19.87"/>
<polygon fill="midnightblue" stroke="midnightblue" points="2449.96,-108.83 2440.39,-113.39 2450.71,-115.79 2449.96,-108.83"/>
</g>
<!-- Node99 -->
<g id="node31" class="node">
<title>Node99</title>
<g id="a_node31"><a xlink:href="_channel_flow_8_h.html" target="_top" xlink:title=" ">
<polygon fill="white" stroke="black" points="3042.5,-56.5 3042.5,-75.5 3131.5,-75.5 3131.5,-56.5 3042.5,-56.5"/>
<text text-anchor="middle" x="3087" y="-63.5" font-family="Helvetica,sans-Serif" font-size="10.00">ChannelFlow.H</text>
</a>
</g>
</g>
<!-- Node2&#45;&gt;Node99 -->
<g id="edge32" class="edge">
<title>Node2&#45;&gt;Node99</title>
<path fill="none" stroke="midnightblue" d="M2450.35,-112.02C2706.17,-77.56 2774.89,-103.12 3028,-76 3032.64,-75.5 3037.47,-74.9 3042.28,-74.25"/>
<polygon fill="midnightblue" stroke="midnightblue" points="2449.83,-108.56 2440.39,-113.38 2450.77,-115.49 2449.83,-108.56"/>
</g>
<!-- Node100 -->
<g id="node32" class="node">
<title>Node100</title>
<g id="a_node32"><a xlink:href="_convecting_taylor_vortex_8cpp.html" target="_top" xlink:title=" ">
<polygon fill="white" stroke="black" points="3112,-0.5 3112,-19.5 3264,-19.5 3264,-0.5 3112,-0.5"/>
<text text-anchor="middle" x="3188" y="-7.5" font-family="Helvetica,sans-Serif" font-size="10.00">ConvectingTaylorVortex.cpp</text>
</a>
</g>
</g>
<!-- Node2&#45;&gt;Node100 -->
<g id="edge34" class="edge">
<title>Node2&#45;&gt;Node100</title>
<path fill="none" stroke="midnightblue" d="M2450.33,-112.28C2561.02,-102.56 3074.54,-111.2 3140,-76 3163.23,-63.51 3178.23,-34.31 3184.56,-19.68"/>
<polygon fill="midnightblue" stroke="midnightblue" points="2449.96,-108.8 2440.39,-113.34 2450.7,-115.76 2449.96,-108.8"/>
</g>
<!-- Node101 -->
<g id="node33" class="node">
<title>Node101</title>
<g id="a_node33"><a xlink:href="_convecting_taylor_vortex_8_h.html" target="_top" xlink:title=" ">
<polygon fill="white" stroke="red" points="3188.5,-56.5 3188.5,-75.5 3331.5,-75.5 3331.5,-56.5 3188.5,-56.5"/>
<text text-anchor="middle" x="3260" y="-63.5" font-family="Helvetica,sans-Serif" font-size="10.00">ConvectingTaylorVortex.H</text>
</a>
</g>
</g>
<!-- Node2&#45;&gt;Node101 -->
<g id="edge35" class="edge">
<title>Node2&#45;&gt;Node101</title>
<path fill="none" stroke="midnightblue" d="M2450.41,-112.03C2770.62,-70.69 2855.63,-100.54 3174,-76 3178.64,-75.64 3183.42,-75.24 3188.23,-74.81"/>
<polygon fill="midnightblue" stroke="midnightblue" points="2449.85,-108.57 2440.39,-113.34 2450.75,-115.51 2449.85,-108.57"/>
</g>
<!-- Node102 -->
<g id="node34" class="node">
<title>Node102</title>
<g id="a_node34"><a xlink:href="_ekman_spiral_8cpp.html" target="_top" xlink:title=" ">
<polygon fill="white" stroke="black" points="3347,-0.5 3347,-19.5 3445,-19.5 3445,-0.5 3347,-0.5"/>
<text text-anchor="middle" x="3396" y="-7.5" font-family="Helvetica,sans-Serif" font-size="10.00">EkmanSpiral.cpp</text>
</a>
</g>
</g>
<!-- Node2&#45;&gt;Node102 -->
<g id="edge37" class="edge">
<title>Node2&#45;&gt;Node102</title>
<path fill="none" stroke="midnightblue" d="M2450.47,-112.26C2585.31,-100.6 3253.22,-117.92 3340,-76 3365.22,-63.82 3383.6,-34.47 3391.58,-19.74"/>
<polygon fill="midnightblue" stroke="midnightblue" points="2449.96,-108.79 2440.38,-113.31 2450.69,-115.75 2449.96,-108.79"/>
</g>
<!-- Node103 -->
<g id="node35" class="node">
<title>Node103</title>
<g id="a_node35"><a xlink:href="_ekman_spiral_8_h.html" target="_top" xlink:title=" ">
<polygon fill="white" stroke="black" points="3388.5,-56.5 3388.5,-75.5 3477.5,-75.5 3477.5,-56.5 3388.5,-56.5"/>
<text text-anchor="middle" x="3433" y="-63.5" font-family="Helvetica,sans-Serif" font-size="10.00">EkmanSpiral.H</text>
</a>
</g>
</g>
<!-- Node2&#45;&gt;Node103 -->
<g id="edge38" class="edge">
<title>Node2&#45;&gt;Node103</title>
<path fill="none" stroke="midnightblue" d="M2450.4,-112.05C2858.96,-61.58 2967.74,-114.77 3374,-76 3378.64,-75.56 3383.47,-74.99 3388.29,-74.36"/>
<polygon fill="midnightblue" stroke="midnightblue" points="2449.87,-108.59 2440.38,-113.3 2450.74,-115.54 2449.87,-108.59"/>
</g>
<!-- Node104 -->
<g id="node36" class="node">
<title>Node104</title>
<g id="a_node36"><a xlink:href="_free_stream_8cpp.html" target="_top" xlink:title=" ">
<polygon fill="white" stroke="black" points="3495.5,-56.5 3495.5,-75.5 3588.5,-75.5 3588.5,-56.5 3495.5,-56.5"/>
<text text-anchor="middle" x="3542" y="-63.5" font-family="Helvetica,sans-Serif" font-size="10.00">FreeStream.cpp</text>
</a>
</g>
</g>
<!-- Node2&#45;&gt;Node104 -->
<g id="edge40" class="edge">
<title>Node2&#45;&gt;Node104</title>
<path fill="none" stroke="midnightblue" d="M2450.57,-112.04C2908.47,-56.42 3030.36,-120.35 3486,-76 3489.04,-75.7 3492.16,-75.35 3495.31,-74.95"/>
<polygon fill="midnightblue" stroke="midnightblue" points="2449.88,-108.6 2440.38,-113.29 2450.73,-115.55 2449.88,-108.6"/>
</g>
<!-- Node105 -->
<g id="node37" class="node">
<title>Node105</title>
<g id="a_node37"><a xlink:href="_hybrid_r_a_n_s_l_e_s_a_b_l_8cpp.html" target="_top" xlink:title=" ">
<polygon fill="white" stroke="black" points="3582.5,-0.5 3582.5,-19.5 3715.5,-19.5 3715.5,-0.5 3582.5,-0.5"/>
<text text-anchor="middle" x="3649" y="-7.5" font-family="Helvetica,sans-Serif" font-size="10.00">HybridRANSLESABL.cpp</text>
</a>
</g>
</g>
<!-- Node2&#45;&gt;Node105 -->
<g id="edge41" class="edge">
<title>Node2&#45;&gt;Node105</title>
<path fill="none" stroke="midnightblue" d="M2450.65,-112.23C2616.03,-98.16 3485.42,-131.8 3597,-76 3621.3,-63.85 3637.95,-34.49 3645.09,-19.75"/>
<polygon fill="midnightblue" stroke="midnightblue" points="2449.97,-108.78 2440.38,-113.28 2450.68,-115.75 2449.97,-108.78"/>
</g>
<!-- Node106 -->
<g id="node38" class="node">
<title>Node106</title>
<g id="a_node38"><a xlink:href="_hybrid_r_a_n_s_l_e_s_a_b_l_8_h.html" target="_top" xlink:title=" ">
<polygon fill="white" stroke="black" points="3645.5,-56.5 3645.5,-75.5 3768.5,-75.5 3768.5,-56.5 3645.5,-56.5"/>
<text text-anchor="middle" x="3707" y="-63.5" font-family="Helvetica,sans-Serif" font-size="10.00">HybridRANSLESABL.H</text>
</a>
</g>
</g>
<!-- Node2&#45;&gt;Node106 -->
<g id="edge42" class="edge">
<title>Node2&#45;&gt;Node106</title>
<path fill="none" stroke="midnightblue" d="M2450.43,-112.06C2972.49,-49.52 3110.19,-114.69 3631,-76 3635.64,-75.66 3640.43,-75.24 3645.24,-74.77"/>
<polygon fill="midnightblue" stroke="midnightblue" points="2449.89,-108.6 2440.38,-113.28 2450.73,-115.55 2449.89,-108.6"/>
</g>
<!-- Node107 -->
<g id="node39" class="node">
<title>Node107</title>
<g id="a_node39"><a xlink:href="_m_m_s_8cpp.html" target="_top" xlink:title=" ">
<polygon fill="white" stroke="black" points="3793.5,-0.5 3793.5,-19.5 3854.5,-19.5 3854.5,-0.5 3793.5,-0.5"/>
<text text-anchor="middle" x="3824" y="-7.5" font-family="Helvetica,sans-Serif" font-size="10.00">MMS.cpp</text>
</a>
</g>
</g>
<!-- Node2&#45;&gt;Node107 -->
<g id="edge44" class="edge">
<title>Node2&#45;&gt;Node107</title>
<path fill="none" stroke="midnightblue" d="M2450.37,-112.43C2591.01,-103.62 3713.65,-109.46 3777,-76 3800.15,-63.77 3814.65,-34.45 3820.71,-19.73"/>
<polygon fill="midnightblue" stroke="midnightblue" points="2450.05,-108.94 2440.38,-113.27 2450.64,-115.92 2450.05,-108.94"/>
</g>
<!-- Node108 -->
<g id="node40" class="node">
<title>Node108</title>
<g id="a_node40"><a xlink:href="_m_m_s_8_h.html" target="_top" xlink:title=" ">
<polygon fill="white" stroke="black" points="3825.5,-56.5 3825.5,-75.5 3876.5,-75.5 3876.5,-56.5 3825.5,-56.5"/>
<text text-anchor="middle" x="3851" y="-63.5" font-family="Helvetica,sans-Serif" font-size="10.00">MMS.H</text>
</a>
</g>
</g>
<!-- Node2&#45;&gt;Node108 -->
<g id="edge45" class="edge">
<title>Node2&#45;&gt;Node108</title>
<path fill="none" stroke="midnightblue" d="M2450.61,-112.05C3052.09,-41.49 3213.47,-150.4 3811,-76 3815.66,-75.42 3820.58,-74.54 3825.31,-73.55"/>
<polygon fill="midnightblue" stroke="midnightblue" points="2449.9,-108.61 2440.38,-113.27 2450.72,-115.57 2449.9,-108.61"/>
</g>
<!-- Node109 -->
<g id="node41" class="node">
<title>Node109</title>
<g id="a_node41"><a xlink:href="_m_m_s_forcing_8cpp.html" target="_top" xlink:title=" ">
<polygon fill="white" stroke="black" points="3895,-56.5 3895,-75.5 3991,-75.5 3991,-56.5 3895,-56.5"/>
<text text-anchor="middle" x="3943" y="-63.5" font-family="Helvetica,sans-Serif" font-size="10.00">MMSForcing.cpp</text>
</a>
</g>
</g>
<!-- Node2&#45;&gt;Node109 -->
<g id="edge47" class="edge">
<title>Node2&#45;&gt;Node109</title>
<path fill="none" stroke="midnightblue" d="M2450.7,-112.04C3085.22,-37.78 3253.18,-133.63 3886,-76 3888.89,-75.74 3891.86,-75.42 3894.85,-75.06"/>
<polygon fill="midnightblue" stroke="midnightblue" points="2449.9,-108.61 2440.38,-113.26 2450.72,-115.57 2449.9,-108.61"/>
</g>
<!-- Node110 -->
<g id="node42" class="node">
<title>Node110</title>
<g id="a_node42"><a xlink:href="_breaking_waves_8cpp.html" target="_top" xlink:title=" ">
<polygon fill="white" stroke="black" points="4009.5,-56.5 4009.5,-75.5 4122.5,-75.5 4122.5,-56.5 4009.5,-56.5"/>
<text text-anchor="middle" x="4066" y="-63.5" font-family="Helvetica,sans-Serif" font-size="10.00">BreakingWaves.cpp</text>
</a>
</g>
</g>
<!-- Node2&#45;&gt;Node110 -->
<g id="edge48" class="edge">
<title>Node2&#45;&gt;Node110</title>
<path fill="none" stroke="midnightblue" d="M2450.5,-112.07C3135.55,-32.37 3316.01,-130.4 4000,-76 4003,-75.76 4006.07,-75.48 4009.16,-75.16"/>
<polygon fill="midnightblue" stroke="midnightblue" points="2449.9,-108.62 2440.38,-113.26 2450.72,-115.57 2449.9,-108.62"/>
</g>
<!-- Node111 -->
<g id="node43" class="node">
<title>Node111</title>
<g id="a_node43"><a xlink:href="_dam_break_8cpp.html" target="_top" xlink:title=" ">
<polygon fill="white" stroke="black" points="4140.5,-56.5 4140.5,-75.5 4229.5,-75.5 4229.5,-56.5 4140.5,-56.5"/>
<text text-anchor="middle" x="4185" y="-63.5" font-family="Helvetica,sans-Serif" font-size="10.00">DamBreak.cpp</text>
</a>
</g>
</g>
<!-- Node2&#45;&gt;Node111 -->
<g id="edge49" class="edge">
<title>Node2&#45;&gt;Node111</title>
<path fill="none" stroke="midnightblue" d="M2450.53,-112.07C3193.9,-26.32 3390.55,-146.5 4132,-76 4134.69,-75.74 4137.46,-75.43 4140.24,-75.08"/>
<polygon fill="midnightblue" stroke="midnightblue" points="2449.9,-108.62 2440.38,-113.25 2450.71,-115.57 2449.9,-108.62"/>
</g>
<!-- Node55 -->
<g id="node44" class="node">
<title>Node55</title>
<g id="a_node44"><a xlink:href="_multi_phase_8cpp.html" target="_top" xlink:title=" ">
<polygon fill="white" stroke="black" points="4247.5,-56.5 4247.5,-75.5 4338.5,-75.5 4338.5,-56.5 4247.5,-56.5"/>
<text text-anchor="middle" x="4293" y="-63.5" font-family="Helvetica,sans-Serif" font-size="10.00">MultiPhase.cpp</text>
</a>
</g>
</g>
<!-- Node2&#45;&gt;Node55 -->
<g id="edge50" class="edge">
<title>Node2&#45;&gt;Node55</title>
<path fill="none" stroke="midnightblue" d="M2450.58,-112.07C3241.19,-21.32 3450.08,-149.29 4239,-76 4241.74,-75.75 4244.56,-75.43 4247.4,-75.08"/>
<polygon fill="midnightblue" stroke="midnightblue" points="2449.91,-108.62 2440.37,-113.25 2450.71,-115.58 2449.91,-108.62"/>
</g>
<!-- Node112 -->
<g id="node45" class="node">
<title>Node112</title>
<g id="a_node45"><a xlink:href="_rain_drop_8cpp.html" target="_top" xlink:title=" ">
<polygon fill="white" stroke="black" points="4357,-56.5 4357,-75.5 4439,-75.5 4439,-56.5 4357,-56.5"/>
<text text-anchor="middle" x="4398" y="-63.5" font-family="Helvetica,sans-Serif" font-size="10.00">RainDrop.cpp</text>
</a>
</g>
</g>
<!-- Node2&#45;&gt;Node112 -->
<g id="edge51" class="edge">
<title>Node2&#45;&gt;Node112</title>
<path fill="none" stroke="midnightblue" d="M2450.58,-112.07C3289.36,-16.27 3511.33,-158.7 4348,-76 4350.9,-75.71 4353.88,-75.35 4356.87,-74.94"/>
<polygon fill="midnightblue" stroke="midnightblue" points="2449.91,-108.62 2440.37,-113.24 2450.71,-115.58 2449.91,-108.62"/>
</g>
<!-- Node113 -->
<g id="node46" class="node">
<title>Node113</title>
<g id="a_node46"><a xlink:href="_sloshing_tank_8cpp.html" target="_top" xlink:title=" ">
<polygon fill="white" stroke="black" points="4457.5,-56.5 4457.5,-75.5 4558.5,-75.5 4558.5,-56.5 4457.5,-56.5"/>
<text text-anchor="middle" x="4508" y="-63.5" font-family="Helvetica,sans-Serif" font-size="10.00">SloshingTank.cpp</text>
</a>
</g>
</g>
<!-- Node2&#45;&gt;Node113 -->
<g id="edge52" class="edge">
<title>Node2&#45;&gt;Node113</title>
<path fill="none" stroke="midnightblue" d="M2450.37,-112.11C2906.68,-61.97 4008.49,-112.76 4448,-76 4451.04,-75.75 4454.17,-75.43 4457.32,-75.08"/>
<polygon fill="midnightblue" stroke="midnightblue" points="2449.92,-108.64 2440.37,-113.24 2450.7,-115.6 2449.92,-108.64"/>
</g>
<!-- Node114 -->
<g id="node47" class="node">
<title>Node114</title>
<g id="a_node47"><a xlink:href="_vortex_patch_8cpp.html" target="_top" xlink:title=" ">
<polygon fill="white" stroke="black" points="4576.5,-56.5 4576.5,-75.5 4671.5,-75.5 4671.5,-56.5 4576.5,-56.5"/>
<text text-anchor="middle" x="4624" y="-63.5" font-family="Helvetica,sans-Serif" font-size="10.00">VortexPatch.cpp</text>
</a>
</g>
</g>
<!-- Node2&#45;&gt;Node114 -->
<g id="edge53" class="edge">
<title>Node2&#45;&gt;Node114</title>
<path fill="none" stroke="midnightblue" d="M2450.6,-112.09C2933.6,-59.24 4102.19,-117.18 4568,-76 4570.75,-75.76 4573.56,-75.46 4576.4,-75.12"/>
<polygon fill="midnightblue" stroke="midnightblue" points="2449.92,-108.64 2440.37,-113.24 2450.7,-115.6 2449.92,-108.64"/>
</g>
<!-- Node115 -->
<g id="node48" class="node">
<title>Node115</title>
<g id="a_node48"><a xlink:href="_vortex_patch_scalar_vel_8cpp.html" target="_top" xlink:title=" ">
<polygon fill="white" stroke="black" points="4690,-56.5 4690,-75.5 4830,-75.5 4830,-56.5 4690,-56.5"/>
<text text-anchor="middle" x="4760" y="-63.5" font-family="Helvetica,sans-Serif" font-size="10.00">VortexPatchScalarVel.cpp</text>
</a>
</g>
</g>
<!-- Node2&#45;&gt;Node115 -->
<g id="edge54" class="edge">
<title>Node2&#45;&gt;Node115</title>
<path fill="none" stroke="midnightblue" d="M2450.39,-112.11C2958.24,-56.45 4189.24,-107.9 4681,-76 4683.89,-75.81 4686.84,-75.59 4689.82,-75.35"/>
<polygon fill="midnightblue" stroke="midnightblue" points="2449.92,-108.64 2440.37,-113.23 2450.7,-115.6 2449.92,-108.64"/>
</g>
<!-- Node49&#45;&gt;Node16 -->
<g id="edge18" class="edge">
<title>Node49&#45;&gt;Node16</title>
<path fill="none" stroke="midnightblue" d="M1822.97,-50.62C1808.53,-40.76 1789.86,-27.99 1777.66,-19.65"/>
<polygon fill="midnightblue" stroke="midnightblue" points="1821.08,-53.57 1831.31,-56.32 1825.03,-47.79 1821.08,-53.57"/>
</g>
<!-- Node62&#45;&gt;Node2 -->
<g id="edge23" class="edge">
<title>Node62&#45;&gt;Node2</title>
<path fill="none" stroke="midnightblue" d="M2268.91,-76.98C2304.03,-87.17 2354.91,-102.81 2384.2,-112.44"/>
<polygon fill="midnightblue" stroke="midnightblue" points="2269.59,-73.53 2259.01,-74.14 2267.66,-80.26 2269.59,-73.53"/>
</g>
<!-- Node99&#45;&gt;Node98 -->
<g id="edge33" class="edge">
<title>Node99&#45;&gt;Node98</title>
<path fill="none" stroke="midnightblue" d="M3067.13,-50.1C3054.18,-40.38 3037.7,-28.03 3026.78,-19.83"/>
<polygon fill="midnightblue" stroke="midnightblue" points="3065.33,-53.12 3075.43,-56.32 3069.53,-47.52 3065.33,-53.12"/>
</g>
<!-- Node101&#45;&gt;Node100 -->
<g id="edge36" class="edge">
<title>Node101&#45;&gt;Node100</title>
<path fill="none" stroke="midnightblue" d="M3240.13,-50.1C3227.18,-40.38 3210.7,-28.03 3199.78,-19.83"/>
<polygon fill="midnightblue" stroke="midnightblue" points="3238.33,-53.12 3248.43,-56.32 3242.53,-47.52 3238.33,-53.12"/>
</g>
<!-- Node103&#45;&gt;Node102 -->
<g id="edge39" class="edge">
<title>Node103&#45;&gt;Node102</title>
<path fill="none" stroke="midnightblue" d="M3421.05,-47.57C3414.69,-38.27 3407.13,-27.25 3402,-19.75"/>
<polygon fill="midnightblue" stroke="midnightblue" points="3418.35,-49.81 3426.89,-56.08 3424.13,-45.86 3418.35,-49.81"/>
</g>
<!-- Node106&#45;&gt;Node105 -->
<g id="edge43" class="edge">
<title>Node106&#45;&gt;Node105</title>
<path fill="none" stroke="midnightblue" d="M3690.09,-49.25C3679.8,-39.67 3667.03,-27.79 3658.49,-19.83"/>
<polygon fill="midnightblue" stroke="midnightblue" points="3687.98,-52.07 3697.68,-56.32 3692.75,-46.95 3687.98,-52.07"/>
</g>
<!-- Node108&#45;&gt;Node107 -->
<g id="edge46" class="edge">
<title>Node108&#45;&gt;Node107</title>
<path fill="none" stroke="midnightblue" d="M3841.99,-46.98C3837.41,-37.82 3832.05,-27.09 3828.38,-19.75"/>
<polygon fill="midnightblue" stroke="midnightblue" points="3838.94,-48.7 3846.54,-56.08 3845.2,-45.57 3838.94,-48.7"/>
</g>
</g>
</svg>
        <g id="navigator" transform="translate(0 0)" fill="#404254">
                <rect fill="#f2f5e9" fill-opacity="0.5" stroke="#606060" stroke-width=".5" x="0" y="0" width="60" height="60"/>
                <use id="zoomplus" xlink:href="#zoomPlus" x="17" y="9" onmousedown="handleZoom(evt,'in')"/>
                <use id="zoomminus" xlink:href="#zoomMin" x="42" y="9" onmousedown="handleZoom(evt,'out')"/>
                <use id="reset" xlink:href="#resetDef" x="30" y="36" onmousedown="handleReset()"/>
                <g id="arrowUp" xlink:href="#dirArrow" transform="translate(30 24)" onmousedown="handlePan(0,-1)">
                  <use xlink:href="#rim" fill="#404040">
                        <set attributeName="fill" to="#808080" begin="arrowUp.mouseover" end="arrowUp.mouseout"/>
                  </use>
                  <path fill="none" stroke="white" stroke-width="1.5" d="M0,-3.0v7 M-2.5,-0.5L0,-3.0L2.5,-0.5"/>
                </g>
                <g id="arrowRight" xlink:href="#dirArrow" transform="rotate(90) translate(36 -43)" onmousedown="handlePan(1,0)">
                  <use xlink:href="#rim" fill="#404040">
                        <set attributeName="fill" to="#808080" begin="arrowRight.mouseover" end="arrowRight.mouseout"/>
                  </use>
                  <path fill="none" stroke="white" stroke-width="1.5" d="M0,-3.0v7 M-2.5,-0.5L0,-3.0L2.5,-0.5"/>
                </g>
                <g id="arrowDown" xlink:href="#dirArrow" transform="rotate(180) translate(-30 -48)" onmousedown="handlePan(0,1)">
                  <use xlink:href="#rim" fill="#404040">
                        <set attributeName="fill" to="#808080" begin="arrowDown.mouseover" end="arrowDown.mouseout"/>
                  </use>
                  <path fill="none" stroke="white" stroke-width="1.5" d="M0,-3.0v7 M-2.5,-0.5L0,-3.0L2.5,-0.5"/>
                </g>
                <g id="arrowLeft" xlink:href="#dirArrow" transform="rotate(270) translate(-36 17)" onmousedown="handlePan(-1,0)">
                  <use xlink:href="#rim" fill="#404040">
                        <set attributeName="fill" to="#808080" begin="arrowLeft.mouseover" end="arrowLeft.mouseout"/>
                  </use>
                  <path fill="none" stroke="white" stroke-width="1.5" d="M0,-3.0v7 M-2.5,-0.5L0,-3.0L2.5,-0.5"/>
                </g>
        </g>
        <svg viewBox="0 0 15 15" width="100%" height="30px" preserveAspectRatio="xMaxYMin meet">
         <g id="arrow_out" transform="scale(0.3 0.3)">
          <a xlink:href="_mesh_map_8_h__dep__incl_org.svg" target="_base">
           <rect id="button" ry="5" rx="5" y="6" x="6" height="38" width="38"
                fill="#f2f5e9" fill-opacity="0.5" stroke="#606060" stroke-width="1.0"/>
           <path id="arrow"
             d="M 11.500037,31.436501 C 11.940474,20.09759 22.043105,11.32322 32.158766,21.979434 L 37.068811,17.246167 C 37.068811,17.246167 37.088388,32 37.088388,32 L 22.160133,31.978069 C 22.160133,31.978069 26.997745,27.140456 26.997745,27.140456 C 18.528582,18.264221 13.291696,25.230495 11.500037,31.436501 z"
             style="fill:#404040;"/>
          </a>
         </g>
        </svg>
</svg>
