<?xml version="1.0" encoding="UTF-8" standalone="no"?>
<!DOCTYPE svg PUBLIC "-//W3C//DTD SVG 1.1//EN"
 "http://www.w3.org/Graphics/SVG/1.1/DTD/svg11.dtd">
<!-- Generated by graphviz version 2.43.0 (0)
 -->
<!-- Title: MomentumSource.H Pages: 1 -->
<svg width="2316pt" height="196pt"
 viewBox="0.00 0.00 2315.99 196.00" xmlns="http://www.w3.org/2000/svg" xmlns:xlink="http://www.w3.org/1999/xlink">
<g id="graph0" class="graph" transform="scale(1 1) rotate(0) translate(4 192)">
<title>MomentumSource.H</title>
<polygon fill="white" stroke="transparent" points="-4,4 -4,-192 2311.99,-192 2311.99,4 -4,4"/>
<!-- Node1 -->
<g id="node1" class="node">
<title>Node1</title>
<g id="a_node1"><a xlink:title=" ">
<polygon fill="#bfbfbf" stroke="black" points="1386.99,-168.5 1386.99,-187.5 1502.99,-187.5 1502.99,-168.5 1386.99,-168.5"/>
<text text-anchor="middle" x="1444.99" y="-175.5" font-family="Helvetica,sans-Serif" font-size="10.00">MomentumSource.H</text>
</a>
</g>
</g>
<!-- Node2 -->
<g id="node2" class="node">
<title>Node2</title>
<g id="a_node2"><a xlink:href="icns_8_h.html" target="_top" xlink:title=" ">
<polygon fill="white" stroke="black" points="220.49,-112.5 220.49,-131.5 267.49,-131.5 267.49,-112.5 220.49,-112.5"/>
<text text-anchor="middle" x="243.99" y="-119.5" font-family="Helvetica,sans-Serif" font-size="10.00">icns.H</text>
</a>
</g>
</g>
<!-- Node1&#45;&gt;Node2 -->
<g id="edge1" class="edge">
<title>Node1&#45;&gt;Node2</title>
<path fill="none" stroke="midnightblue" d="M1376.43,-173.92C1146.62,-163.58 410.06,-130.47 267.88,-124.07"/>
<polygon fill="midnightblue" stroke="midnightblue" points="1376.51,-177.42 1386.66,-174.38 1376.83,-170.43 1376.51,-177.42"/>
</g>
<!-- Node10 -->
<g id="node10" class="node">
<title>Node10</title>
<g id="a_node10"><a xlink:href="_a_b_l_forcing_8_h.html" target="_top" xlink:title=" ">
<polygon fill="white" stroke="black" points="710.49,-112.5 710.49,-131.5 791.49,-131.5 791.49,-112.5 710.49,-112.5"/>
<text text-anchor="middle" x="750.99" y="-119.5" font-family="Helvetica,sans-Serif" font-size="10.00">ABLForcing.H</text>
</a>
</g>
</g>
<!-- Node1&#45;&gt;Node10 -->
<g id="edge13" class="edge">
<title>Node1&#45;&gt;Node10</title>
<path fill="none" stroke="midnightblue" d="M1376.82,-172.52C1264.75,-165.03 1034.58,-149.07 839.99,-132 824.21,-130.62 806.88,-128.91 791.73,-127.35"/>
<polygon fill="midnightblue" stroke="midnightblue" points="1376.76,-176.03 1386.97,-173.2 1377.22,-169.04 1376.76,-176.03"/>
</g>
<!-- Node14 -->
<g id="node14" class="node">
<title>Node14</title>
<g id="a_node14"><a xlink:href="_a_b_l_mean_boussinesq_8_h.html" target="_top" xlink:title=" ">
<polygon fill="white" stroke="black" points="848.99,-112.5 848.99,-131.5 976.99,-131.5 976.99,-112.5 848.99,-112.5"/>
<text text-anchor="middle" x="912.99" y="-119.5" font-family="Helvetica,sans-Serif" font-size="10.00">ABLMeanBoussinesq.H</text>
</a>
</g>
</g>
<!-- Node1&#45;&gt;Node14 -->
<g id="edge17" class="edge">
<title>Node1&#45;&gt;Node14</title>
<path fill="none" stroke="midnightblue" d="M1376.73,-170.33C1288.71,-161.7 1130.9,-146.07 995.99,-132 989.94,-131.37 983.63,-130.7 977.33,-130.03"/>
<polygon fill="midnightblue" stroke="midnightblue" points="1376.56,-173.83 1386.85,-171.33 1377.24,-166.87 1376.56,-173.83"/>
</g>
<!-- Node16 -->
<g id="node16" class="node">
<title>Node16</title>
<g id="a_node16"><a xlink:href="_actuator_forcing_8_h.html" target="_top" xlink:title=" ">
<polygon fill="white" stroke="black" points="1146.99,-112.5 1146.99,-131.5 1250.99,-131.5 1250.99,-112.5 1146.99,-112.5"/>
<text text-anchor="middle" x="1198.99" y="-119.5" font-family="Helvetica,sans-Serif" font-size="10.00">ActuatorForcing.H</text>
</a>
</g>
</g>
<!-- Node1&#45;&gt;Node16 -->
<g id="edge20" class="edge">
<title>Node1&#45;&gt;Node16</title>
<path fill="none" stroke="midnightblue" d="M1396.16,-166.28C1349.68,-156.08 1280.63,-140.92 1237.79,-131.52"/>
<polygon fill="midnightblue" stroke="midnightblue" points="1395.49,-169.72 1406.01,-168.44 1396.99,-162.88 1395.49,-169.72"/>
</g>
<!-- Node18 -->
<g id="node18" class="node">
<title>Node18</title>
<g id="a_node18"><a xlink:href="_body_force_8_h.html" target="_top" xlink:title=" ">
<polygon fill="white" stroke="black" points="1278.99,-112.5 1278.99,-131.5 1356.99,-131.5 1356.99,-112.5 1278.99,-112.5"/>
<text text-anchor="middle" x="1317.99" y="-119.5" font-family="Helvetica,sans-Serif" font-size="10.00">BodyForce.H</text>
</a>
</g>
</g>
<!-- Node1&#45;&gt;Node18 -->
<g id="edge22" class="edge">
<title>Node1&#45;&gt;Node18</title>
<path fill="none" stroke="midnightblue" d="M1415.6,-164.5C1391.79,-154.38 1358.89,-140.39 1338.02,-131.52"/>
<polygon fill="midnightblue" stroke="midnightblue" points="1414.3,-167.75 1424.87,-168.44 1417.03,-161.31 1414.3,-167.75"/>
</g>
<!-- Node20 -->
<g id="node20" class="node">
<title>Node20</title>
<g id="a_node20"><a xlink:href="_boussinesq_buoyancy_8_h.html" target="_top" xlink:title=" ">
<polygon fill="white" stroke="black" points="1380.49,-112.5 1380.49,-131.5 1509.49,-131.5 1509.49,-112.5 1380.49,-112.5"/>
<text text-anchor="middle" x="1444.99" y="-119.5" font-family="Helvetica,sans-Serif" font-size="10.00">BoussinesqBuoyancy.H</text>
</a>
</g>
</g>
<!-- Node1&#45;&gt;Node20 -->
<g id="edge24" class="edge">
<title>Node1&#45;&gt;Node20</title>
<path fill="none" stroke="midnightblue" d="M1444.99,-157.8C1444.99,-148.91 1444.99,-138.78 1444.99,-131.75"/>
<polygon fill="midnightblue" stroke="midnightblue" points="1441.49,-158.08 1444.99,-168.08 1448.49,-158.08 1441.49,-158.08"/>
</g>
<!-- Node22 -->
<g id="node22" class="node">
<title>Node22</title>
<g id="a_node22"><a xlink:href="_coriolis_forcing_8_h.html" target="_top" xlink:title=" ">
<polygon fill="white" stroke="black" points="1532.49,-112.5 1532.49,-131.5 1631.49,-131.5 1631.49,-112.5 1532.49,-112.5"/>
<text text-anchor="middle" x="1581.99" y="-119.5" font-family="Helvetica,sans-Serif" font-size="10.00">CoriolisForcing.H</text>
</a>
</g>
</g>
<!-- Node1&#45;&gt;Node22 -->
<g id="edge26" class="edge">
<title>Node1&#45;&gt;Node22</title>
<path fill="none" stroke="midnightblue" d="M1476.01,-164.77C1501.75,-154.63 1537.68,-140.47 1560.38,-131.52"/>
<polygon fill="midnightblue" stroke="midnightblue" points="1474.72,-161.52 1466.7,-168.44 1477.29,-168.03 1474.72,-161.52"/>
</g>
<!-- Node24 -->
<g id="node24" class="node">
<title>Node24</title>
<g id="a_node24"><a xlink:href="_density_buoyancy_8_h.html" target="_top" xlink:title=" ">
<polygon fill="white" stroke="black" points="1656.49,-112.5 1656.49,-131.5 1767.49,-131.5 1767.49,-112.5 1656.49,-112.5"/>
<text text-anchor="middle" x="1711.99" y="-119.5" font-family="Helvetica,sans-Serif" font-size="10.00">DensityBuoyancy.H</text>
</a>
</g>
</g>
<!-- Node1&#45;&gt;Node24 -->
<g id="edge28" class="edge">
<title>Node1&#45;&gt;Node24</title>
<path fill="none" stroke="midnightblue" d="M1497.36,-166.41C1547.82,-156.2 1623.19,-140.96 1669.88,-131.52"/>
<polygon fill="midnightblue" stroke="midnightblue" points="1496.41,-163.03 1487.3,-168.44 1497.79,-169.89 1496.41,-163.03"/>
</g>
<!-- Node26 -->
<g id="node26" class="node">
<title>Node26</title>
<g id="a_node26"><a xlink:href="_geostrophic_forcing_8_h.html" target="_top" xlink:title=" ">
<polygon fill="white" stroke="black" points="1794.49,-112.5 1794.49,-131.5 1915.49,-131.5 1915.49,-112.5 1794.49,-112.5"/>
<text text-anchor="middle" x="1854.99" y="-119.5" font-family="Helvetica,sans-Serif" font-size="10.00">GeostrophicForcing.H</text>
</a>
</g>
</g>
<!-- Node1&#45;&gt;Node26 -->
<g id="edge30" class="edge">
<title>Node1&#45;&gt;Node26</title>
<path fill="none" stroke="midnightblue" d="M1513.56,-167.97C1591.99,-157.64 1719.2,-140.88 1794.21,-131.01"/>
<polygon fill="midnightblue" stroke="midnightblue" points="1512.76,-164.54 1503.3,-169.32 1513.67,-171.48 1512.76,-164.54"/>
</g>
<!-- Node28 -->
<g id="node28" class="node">
<title>Node28</title>
<g id="a_node28"><a xlink:href="_gravity_forcing_8_h.html" target="_top" xlink:title=" ">
<polygon fill="white" stroke="black" points="1942.99,-112.5 1942.99,-131.5 2040.99,-131.5 2040.99,-112.5 1942.99,-112.5"/>
<text text-anchor="middle" x="1991.99" y="-119.5" font-family="Helvetica,sans-Serif" font-size="10.00">GravityForcing.H</text>
</a>
</g>
</g>
<!-- Node1&#45;&gt;Node28 -->
<g id="edge32" class="edge">
<title>Node1&#45;&gt;Node28</title>
<path fill="none" stroke="midnightblue" d="M1513.44,-171.39C1606.48,-163.58 1778,-148.51 1923.99,-132 1930.14,-131.3 1936.6,-130.52 1942.99,-129.71"/>
<polygon fill="midnightblue" stroke="midnightblue" points="1512.99,-167.92 1503.32,-172.24 1513.57,-174.89 1512.99,-167.92"/>
</g>
<!-- Node30 -->
<g id="node30" class="node">
<title>Node30</title>
<g id="a_node30"><a xlink:href="_hurricane_forcing_8_h.html" target="_top" xlink:title=" ">
<polygon fill="white" stroke="black" points="1004.99,-112.5 1004.99,-131.5 1114.99,-131.5 1114.99,-112.5 1004.99,-112.5"/>
<text text-anchor="middle" x="1059.99" y="-119.5" font-family="Helvetica,sans-Serif" font-size="10.00">HurricaneForcing.H</text>
</a>
</g>
</g>
<!-- Node1&#45;&gt;Node30 -->
<g id="edge34" class="edge">
<title>Node1&#45;&gt;Node30</title>
<path fill="none" stroke="midnightblue" d="M1376.71,-167.42C1302.09,-156.96 1184.03,-140.4 1115.08,-130.73"/>
<polygon fill="midnightblue" stroke="midnightblue" points="1376.55,-170.93 1386.94,-168.86 1377.52,-164 1376.55,-170.93"/>
</g>
<!-- Node32 -->
<g id="node32" class="node">
<title>Node32</title>
<g id="a_node32"><a xlink:href="_synth_turb_forcing_8_h.html" target="_top" xlink:title=" ">
<polygon fill="white" stroke="black" points="2068.99,-112.5 2068.99,-131.5 2178.99,-131.5 2178.99,-112.5 2068.99,-112.5"/>
<text text-anchor="middle" x="2123.99" y="-119.5" font-family="Helvetica,sans-Serif" font-size="10.00">SynthTurbForcing.H</text>
</a>
</g>
</g>
<!-- Node1&#45;&gt;Node32 -->
<g id="edge37" class="edge">
<title>Node1&#45;&gt;Node32</title>
<path fill="none" stroke="midnightblue" d="M1513.2,-172.97C1625.33,-166.11 1855.59,-151.04 2049.99,-132 2056.05,-131.41 2062.37,-130.73 2068.66,-130.02"/>
<polygon fill="midnightblue" stroke="midnightblue" points="1512.82,-169.49 1503.05,-173.59 1513.24,-176.47 1512.82,-169.49"/>
</g>
<!-- Node34 -->
<g id="node34" class="node">
<title>Node34</title>
<g id="a_node34"><a xlink:href="_m_m_s_forcing_8_h.html" target="_top" xlink:title=" ">
<polygon fill="white" stroke="black" points="2206.99,-112.5 2206.99,-131.5 2292.99,-131.5 2292.99,-112.5 2206.99,-112.5"/>
<text text-anchor="middle" x="2249.99" y="-119.5" font-family="Helvetica,sans-Serif" font-size="10.00">MMSForcing.H</text>
</a>
</g>
</g>
<!-- Node1&#45;&gt;Node34 -->
<g id="edge39" class="edge">
<title>Node1&#45;&gt;Node34</title>
<path fill="none" stroke="midnightblue" d="M1513.71,-174.76C1645,-170.06 1940.48,-157.41 2187.99,-132 2194.05,-131.38 2200.43,-130.6 2206.69,-129.76"/>
<polygon fill="midnightblue" stroke="midnightblue" points="1513.27,-171.27 1503.4,-175.13 1513.52,-178.27 1513.27,-171.27"/>
</g>
<!-- Node3 -->
<g id="node3" class="node">
<title>Node3</title>
<g id="a_node3"><a xlink:href="icns_8cpp.html" target="_top" xlink:title=" ">
<polygon fill="white" stroke="black" points="115.99,-0.5 115.99,-19.5 171.99,-19.5 171.99,-0.5 115.99,-0.5"/>
<text text-anchor="middle" x="143.99" y="-7.5" font-family="Helvetica,sans-Serif" font-size="10.00">icns.cpp</text>
</a>
</g>
</g>
<!-- Node2&#45;&gt;Node3 -->
<g id="edge2" class="edge">
<title>Node2&#45;&gt;Node3</title>
<path fill="none" stroke="midnightblue" d="M210.07,-119.69C150.83,-116.61 32.39,-106.67 6.99,-76 -25.08,-37.27 66.97,-20.15 115.78,-13.95"/>
<polygon fill="midnightblue" stroke="midnightblue" points="210.25,-123.2 220.41,-120.19 210.59,-116.21 210.25,-123.2"/>
</g>
<!-- Node4 -->
<g id="node4" class="node">
<title>Node4</title>
<g id="a_node4"><a xlink:href="icns__advection_8_h.html" target="_top" xlink:title=" ">
<polygon fill="white" stroke="black" points="308.99,-56.5 308.99,-75.5 408.99,-75.5 408.99,-56.5 308.99,-56.5"/>
<text text-anchor="middle" x="358.99" y="-63.5" font-family="Helvetica,sans-Serif" font-size="10.00">icns_advection.H</text>
</a>
</g>
</g>
<!-- Node2&#45;&gt;Node4 -->
<g id="edge3" class="edge">
<title>Node2&#45;&gt;Node4</title>
<path fill="none" stroke="midnightblue" d="M271.47,-108.1C292.96,-98.01 322.21,-84.27 340.85,-75.52"/>
<polygon fill="midnightblue" stroke="midnightblue" points="269.78,-105.02 262.21,-112.44 272.75,-111.36 269.78,-105.02"/>
</g>
<!-- Node6 -->
<g id="node6" class="node">
<title>Node6</title>
<g id="a_node6"><a xlink:href="icns__bcop_8_h.html" target="_top" xlink:title=" ">
<polygon fill="white" stroke="black" points="16.49,-56.5 16.49,-75.5 91.49,-75.5 91.49,-56.5 16.49,-56.5"/>
<text text-anchor="middle" x="53.99" y="-63.5" font-family="Helvetica,sans-Serif" font-size="10.00">icns_bcop.H</text>
</a>
</g>
</g>
<!-- Node2&#45;&gt;Node6 -->
<g id="edge6" class="edge">
<title>Node2&#45;&gt;Node6</title>
<path fill="none" stroke="midnightblue" d="M210.33,-111.43C174.48,-101.25 118.28,-85.27 83.92,-75.51"/>
<polygon fill="midnightblue" stroke="midnightblue" points="209.74,-114.9 220.31,-114.27 211.65,-108.17 209.74,-114.9"/>
</g>
<!-- Node7 -->
<g id="node7" class="node">
<title>Node7</title>
<g id="a_node7"><a xlink:href="icns__diffusion_8_h.html" target="_top" xlink:title=" ">
<polygon fill="white" stroke="black" points="196.99,-56.5 196.99,-75.5 290.99,-75.5 290.99,-56.5 196.99,-56.5"/>
<text text-anchor="middle" x="243.99" y="-63.5" font-family="Helvetica,sans-Serif" font-size="10.00">icns_diffusion.H</text>
</a>
</g>
</g>
<!-- Node2&#45;&gt;Node7 -->
<g id="edge8" class="edge">
<title>Node2&#45;&gt;Node7</title>
<path fill="none" stroke="midnightblue" d="M243.99,-101.8C243.99,-92.91 243.99,-82.78 243.99,-75.75"/>
<polygon fill="midnightblue" stroke="midnightblue" points="240.49,-102.08 243.99,-112.08 247.49,-102.08 240.49,-102.08"/>
</g>
<!-- Node8 -->
<g id="node8" class="node">
<title>Node8</title>
<g id="a_node8"><a xlink:href="icns__ops_8_h.html" target="_top" xlink:title=" ">
<polygon fill="white" stroke="black" points="109.49,-56.5 109.49,-75.5 178.49,-75.5 178.49,-56.5 109.49,-56.5"/>
<text text-anchor="middle" x="143.99" y="-63.5" font-family="Helvetica,sans-Serif" font-size="10.00">icns_ops.H</text>
</a>
</g>
</g>
<!-- Node2&#45;&gt;Node8 -->
<g id="edge10" class="edge">
<title>Node2&#45;&gt;Node8</title>
<path fill="none" stroke="midnightblue" d="M218.9,-107.45C200.44,-97.48 175.89,-84.23 160.02,-75.65"/>
<polygon fill="midnightblue" stroke="midnightblue" points="217.46,-110.65 227.92,-112.32 220.79,-104.49 217.46,-110.65"/>
</g>
<!-- Node9 -->
<g id="node9" class="node">
<title>Node9</title>
<g id="a_node9"><a xlink:href="_power_law_profile_8cpp.html" target="_top" xlink:title=" ">
<polygon fill="white" stroke="black" points="427.49,-56.5 427.49,-75.5 544.49,-75.5 544.49,-56.5 427.49,-56.5"/>
<text text-anchor="middle" x="485.99" y="-63.5" font-family="Helvetica,sans-Serif" font-size="10.00">PowerLawProfile.cpp</text>
</a>
</g>
</g>
<!-- Node2&#45;&gt;Node9 -->
<g id="edge12" class="edge">
<title>Node2&#45;&gt;Node9</title>
<path fill="none" stroke="midnightblue" d="M277.4,-113.55C321.96,-103.6 400.67,-86.04 447.61,-75.56"/>
<polygon fill="midnightblue" stroke="midnightblue" points="276.63,-110.13 267.64,-115.72 278.16,-116.96 276.63,-110.13"/>
</g>
<!-- Node4&#45;&gt;Node3 -->
<g id="edge4" class="edge">
<title>Node4&#45;&gt;Node3</title>
<path fill="none" stroke="midnightblue" d="M315.06,-53.97C272.25,-43.21 208.45,-27.19 172.08,-18.05"/>
<polygon fill="midnightblue" stroke="midnightblue" points="314.37,-57.4 324.92,-56.44 316.08,-50.61 314.37,-57.4"/>
</g>
<!-- Node5 -->
<g id="node5" class="node">
<title>Node5</title>
<g id="a_node5"><a xlink:href="icns__advection_8cpp.html" target="_top" xlink:title=" ">
<polygon fill="white" stroke="black" points="303.99,-0.5 303.99,-19.5 413.99,-19.5 413.99,-0.5 303.99,-0.5"/>
<text text-anchor="middle" x="358.99" y="-7.5" font-family="Helvetica,sans-Serif" font-size="10.00">icns_advection.cpp</text>
</a>
</g>
</g>
<!-- Node4&#45;&gt;Node5 -->
<g id="edge5" class="edge">
<title>Node4&#45;&gt;Node5</title>
<path fill="none" stroke="midnightblue" d="M358.99,-45.8C358.99,-36.91 358.99,-26.78 358.99,-19.75"/>
<polygon fill="midnightblue" stroke="midnightblue" points="355.49,-46.08 358.99,-56.08 362.49,-46.08 355.49,-46.08"/>
</g>
<!-- Node6&#45;&gt;Node3 -->
<g id="edge7" class="edge">
<title>Node6&#45;&gt;Node3</title>
<path fill="none" stroke="midnightblue" d="M77.03,-51.18C93.59,-41.24 115.41,-28.15 129.57,-19.65"/>
<polygon fill="midnightblue" stroke="midnightblue" points="75.23,-48.18 68.45,-56.32 78.83,-54.18 75.23,-48.18"/>
</g>
<!-- Node7&#45;&gt;Node3 -->
<g id="edge9" class="edge">
<title>Node7&#45;&gt;Node3</title>
<path fill="none" stroke="midnightblue" d="M218.9,-51.45C200.44,-41.48 175.89,-28.23 160.02,-19.65"/>
<polygon fill="midnightblue" stroke="midnightblue" points="217.46,-54.65 227.92,-56.32 220.79,-48.49 217.46,-54.65"/>
</g>
<!-- Node8&#45;&gt;Node3 -->
<g id="edge11" class="edge">
<title>Node8&#45;&gt;Node3</title>
<path fill="none" stroke="midnightblue" d="M143.99,-45.8C143.99,-36.91 143.99,-26.78 143.99,-19.75"/>
<polygon fill="midnightblue" stroke="midnightblue" points="140.49,-46.08 143.99,-56.08 147.49,-46.08 140.49,-46.08"/>
</g>
<!-- Node11 -->
<g id="node11" class="node">
<title>Node11</title>
<g id="a_node11"><a xlink:href="_a_b_l_forcing_8cpp.html" target="_top" xlink:title=" ">
<polygon fill="white" stroke="black" points="562.49,-56.5 562.49,-75.5 653.49,-75.5 653.49,-56.5 562.49,-56.5"/>
<text text-anchor="middle" x="607.99" y="-63.5" font-family="Helvetica,sans-Serif" font-size="10.00">ABLForcing.cpp</text>
</a>
</g>
</g>
<!-- Node10&#45;&gt;Node11 -->
<g id="edge14" class="edge">
<title>Node10&#45;&gt;Node11</title>
<path fill="none" stroke="midnightblue" d="M718.96,-108.91C692.08,-98.75 654.35,-84.51 630.54,-75.52"/>
<polygon fill="midnightblue" stroke="midnightblue" points="717.74,-112.19 728.33,-112.44 720.21,-105.64 717.74,-112.19"/>
</g>
<!-- Node12 -->
<g id="node12" class="node">
<title>Node12</title>
<g id="a_node12"><a xlink:href="_a_b_l_8cpp.html" target="_top" xlink:title=" ">
<polygon fill="white" stroke="black" points="769.99,-56.5 769.99,-75.5 825.99,-75.5 825.99,-56.5 769.99,-56.5"/>
<text text-anchor="middle" x="797.99" y="-63.5" font-family="Helvetica,sans-Serif" font-size="10.00">ABL.cpp</text>
</a>
</g>
</g>
<!-- Node10&#45;&gt;Node12 -->
<g id="edge15" class="edge">
<title>Node10&#45;&gt;Node12</title>
<path fill="none" stroke="midnightblue" d="M765.41,-104.43C773.65,-94.97 783.65,-83.48 790.37,-75.75"/>
<polygon fill="midnightblue" stroke="midnightblue" points="762.68,-102.24 758.75,-112.08 767.96,-106.84 762.68,-102.24"/>
</g>
<!-- Node13 -->
<g id="node13" class="node">
<title>Node13</title>
<g id="a_node13"><a xlink:href="_a_b_l_stats_8cpp.html" target="_top" xlink:title=" ">
<polygon fill="white" stroke="black" points="671.99,-56.5 671.99,-75.5 751.99,-75.5 751.99,-56.5 671.99,-56.5"/>
<text text-anchor="middle" x="711.99" y="-63.5" font-family="Helvetica,sans-Serif" font-size="10.00">ABLStats.cpp</text>
</a>
</g>
</g>
<!-- Node10&#45;&gt;Node13 -->
<g id="edge16" class="edge">
<title>Node10&#45;&gt;Node13</title>
<path fill="none" stroke="midnightblue" d="M738.61,-103.86C731.86,-94.5 723.78,-83.33 718.31,-75.75"/>
<polygon fill="midnightblue" stroke="midnightblue" points="735.86,-106.03 744.55,-112.08 741.53,-101.93 735.86,-106.03"/>
</g>
<!-- Node14&#45;&gt;Node12 -->
<g id="edge19" class="edge">
<title>Node14&#45;&gt;Node12</title>
<path fill="none" stroke="midnightblue" d="M885.51,-108.1C864.03,-98.01 834.77,-84.27 816.13,-75.52"/>
<polygon fill="midnightblue" stroke="midnightblue" points="884.23,-111.36 894.77,-112.44 887.21,-105.02 884.23,-111.36"/>
</g>
<!-- Node15 -->
<g id="node15" class="node">
<title>Node15</title>
<g id="a_node15"><a xlink:href="_a_b_l_mean_boussinesq_8cpp.html" target="_top" xlink:title=" ">
<polygon fill="white" stroke="black" points="843.99,-56.5 843.99,-75.5 981.99,-75.5 981.99,-56.5 843.99,-56.5"/>
<text text-anchor="middle" x="912.99" y="-63.5" font-family="Helvetica,sans-Serif" font-size="10.00">ABLMeanBoussinesq.cpp</text>
</a>
</g>
</g>
<!-- Node14&#45;&gt;Node15 -->
<g id="edge18" class="edge">
<title>Node14&#45;&gt;Node15</title>
<path fill="none" stroke="midnightblue" d="M912.99,-101.8C912.99,-92.91 912.99,-82.78 912.99,-75.75"/>
<polygon fill="midnightblue" stroke="midnightblue" points="909.49,-102.08 912.99,-112.08 916.49,-102.08 909.49,-102.08"/>
</g>
<!-- Node17 -->
<g id="node17" class="node">
<title>Node17</title>
<g id="a_node17"><a xlink:href="_actuator_forcing_8cpp.html" target="_top" xlink:title=" ">
<polygon fill="white" stroke="black" points="1137.49,-56.5 1137.49,-75.5 1250.49,-75.5 1250.49,-56.5 1137.49,-56.5"/>
<text text-anchor="middle" x="1193.99" y="-63.5" font-family="Helvetica,sans-Serif" font-size="10.00">ActuatorForcing.cpp</text>
</a>
</g>
</g>
<!-- Node16&#45;&gt;Node17 -->
<g id="edge21" class="edge">
<title>Node16&#45;&gt;Node17</title>
<path fill="none" stroke="midnightblue" d="M1197.24,-102.1C1196.41,-93.14 1195.46,-82.86 1194.8,-75.75"/>
<polygon fill="midnightblue" stroke="midnightblue" points="1193.76,-102.45 1198.17,-112.08 1200.73,-101.8 1193.76,-102.45"/>
</g>
<!-- Node19 -->
<g id="node19" class="node">
<title>Node19</title>
<g id="a_node19"><a xlink:href="_body_force_8cpp.html" target="_top" xlink:title=" ">
<polygon fill="white" stroke="black" points="1268.99,-56.5 1268.99,-75.5 1356.99,-75.5 1356.99,-56.5 1268.99,-56.5"/>
<text text-anchor="middle" x="1312.99" y="-63.5" font-family="Helvetica,sans-Serif" font-size="10.00">BodyForce.cpp</text>
</a>
</g>
</g>
<!-- Node18&#45;&gt;Node19 -->
<g id="edge23" class="edge">
<title>Node18&#45;&gt;Node19</title>
<path fill="none" stroke="midnightblue" d="M1316.24,-102.1C1315.41,-93.14 1314.46,-82.86 1313.8,-75.75"/>
<polygon fill="midnightblue" stroke="midnightblue" points="1312.76,-102.45 1317.17,-112.08 1319.73,-101.8 1312.76,-102.45"/>
</g>
<!-- Node21 -->
<g id="node21" class="node">
<title>Node21</title>
<g id="a_node21"><a xlink:href="_boussinesq_buoyancy_8cpp.html" target="_top" xlink:title=" ">
<polygon fill="white" stroke="black" points="1375.49,-56.5 1375.49,-75.5 1514.49,-75.5 1514.49,-56.5 1375.49,-56.5"/>
<text text-anchor="middle" x="1444.99" y="-63.5" font-family="Helvetica,sans-Serif" font-size="10.00">BoussinesqBuoyancy.cpp</text>
</a>
</g>
</g>
<!-- Node20&#45;&gt;Node21 -->
<g id="edge25" class="edge">
<title>Node20&#45;&gt;Node21</title>
<path fill="none" stroke="midnightblue" d="M1444.99,-101.8C1444.99,-92.91 1444.99,-82.78 1444.99,-75.75"/>
<polygon fill="midnightblue" stroke="midnightblue" points="1441.49,-102.08 1444.99,-112.08 1448.49,-102.08 1441.49,-102.08"/>
</g>
<!-- Node23 -->
<g id="node23" class="node">
<title>Node23</title>
<g id="a_node23"><a xlink:href="_coriolis_forcing_8cpp.html" target="_top" xlink:title=" ">
<polygon fill="white" stroke="black" points="1532.49,-56.5 1532.49,-75.5 1641.49,-75.5 1641.49,-56.5 1532.49,-56.5"/>
<text text-anchor="middle" x="1586.99" y="-63.5" font-family="Helvetica,sans-Serif" font-size="10.00">CoriolisForcing.cpp</text>
</a>
</g>
</g>
<!-- Node22&#45;&gt;Node23 -->
<g id="edge27" class="edge">
<title>Node22&#45;&gt;Node23</title>
<path fill="none" stroke="midnightblue" d="M1583.74,-102.1C1584.57,-93.14 1585.52,-82.86 1586.18,-75.75"/>
<polygon fill="midnightblue" stroke="midnightblue" points="1580.25,-101.8 1582.82,-112.08 1587.22,-102.45 1580.25,-101.8"/>
</g>
<!-- Node25 -->
<g id="node25" class="node">
<title>Node25</title>
<g id="a_node25"><a xlink:href="_density_buoyancy_8cpp.html" target="_top" xlink:title=" ">
<polygon fill="white" stroke="black" points="1659.49,-56.5 1659.49,-75.5 1780.49,-75.5 1780.49,-56.5 1659.49,-56.5"/>
<text text-anchor="middle" x="1719.99" y="-63.5" font-family="Helvetica,sans-Serif" font-size="10.00">DensityBuoyancy.cpp</text>
</a>
</g>
</g>
<!-- Node24&#45;&gt;Node25 -->
<g id="edge29" class="edge">
<title>Node24&#45;&gt;Node25</title>
<path fill="none" stroke="midnightblue" d="M1714.79,-102.1C1716.12,-93.14 1717.64,-82.86 1718.69,-75.75"/>
<polygon fill="midnightblue" stroke="midnightblue" points="1711.32,-101.68 1713.31,-112.08 1718.24,-102.7 1711.32,-101.68"/>
</g>
<!-- Node27 -->
<g id="node27" class="node">
<title>Node27</title>
<g id="a_node27"><a xlink:href="_geostrophic_forcing_8cpp.html" target="_top" xlink:title=" ">
<polygon fill="white" stroke="black" points="1798.49,-56.5 1798.49,-75.5 1929.49,-75.5 1929.49,-56.5 1798.49,-56.5"/>
<text text-anchor="middle" x="1863.99" y="-63.5" font-family="Helvetica,sans-Serif" font-size="10.00">GeostrophicForcing.cpp</text>
</a>
</g>
</g>
<!-- Node26&#45;&gt;Node27 -->
<g id="edge31" class="edge">
<title>Node26&#45;&gt;Node27</title>
<path fill="none" stroke="midnightblue" d="M1858.14,-102.1C1859.64,-93.14 1861.35,-82.86 1862.53,-75.75"/>
<polygon fill="midnightblue" stroke="midnightblue" points="1854.67,-101.64 1856.48,-112.08 1861.57,-102.79 1854.67,-101.64"/>
</g>
<!-- Node29 -->
<g id="node29" class="node">
<title>Node29</title>
<g id="a_node29"><a xlink:href="_gravity_forcing_8cpp.html" target="_top" xlink:title=" ">
<polygon fill="white" stroke="black" points="1947.99,-56.5 1947.99,-75.5 2055.99,-75.5 2055.99,-56.5 1947.99,-56.5"/>
<text text-anchor="middle" x="2001.99" y="-63.5" font-family="Helvetica,sans-Serif" font-size="10.00">GravityForcing.cpp</text>
</a>
</g>
</g>
<!-- Node28&#45;&gt;Node29 -->
<g id="edge33" class="edge">
<title>Node28&#45;&gt;Node29</title>
<path fill="none" stroke="midnightblue" d="M1995.49,-102.1C1997.15,-93.14 1999.05,-82.86 2000.37,-75.75"/>
<polygon fill="midnightblue" stroke="midnightblue" points="1992.02,-101.61 1993.64,-112.08 1998.91,-102.89 1992.02,-101.61"/>
</g>
<!-- Node30&#45;&gt;Node12 -->
<g id="edge36" class="edge">
<title>Node30&#45;&gt;Node12</title>
<path fill="none" stroke="midnightblue" d="M1004.64,-110.59C959.02,-101.85 892.66,-88.78 834.99,-76 832.15,-75.37 829.19,-74.69 826.25,-74"/>
<polygon fill="midnightblue" stroke="midnightblue" points="1004.15,-114.06 1014.63,-112.5 1005.46,-107.18 1004.15,-114.06"/>
</g>
<!-- Node31 -->
<g id="node31" class="node">
<title>Node31</title>
<g id="a_node31"><a xlink:href="_hurricane_forcing_8cpp.html" target="_top" xlink:title=" ">
<polygon fill="white" stroke="black" points="1000.49,-56.5 1000.49,-75.5 1119.49,-75.5 1119.49,-56.5 1000.49,-56.5"/>
<text text-anchor="middle" x="1059.99" y="-63.5" font-family="Helvetica,sans-Serif" font-size="10.00">HurricaneForcing.cpp</text>
</a>
</g>
</g>
<!-- Node30&#45;&gt;Node31 -->
<g id="edge35" class="edge">
<title>Node30&#45;&gt;Node31</title>
<path fill="none" stroke="midnightblue" d="M1059.99,-101.8C1059.99,-92.91 1059.99,-82.78 1059.99,-75.75"/>
<polygon fill="midnightblue" stroke="midnightblue" points="1056.49,-102.08 1059.99,-112.08 1063.49,-102.08 1056.49,-102.08"/>
</g>
<!-- Node33 -->
<g id="node33" class="node">
<title>Node33</title>
<g id="a_node33"><a xlink:href="_synth_turb_forcing_8cpp.html" target="_top" xlink:title=" ">
<polygon fill="white" stroke="black" points="2073.99,-56.5 2073.99,-75.5 2193.99,-75.5 2193.99,-56.5 2073.99,-56.5"/>
<text text-anchor="middle" x="2133.99" y="-63.5" font-family="Helvetica,sans-Serif" font-size="10.00">SynthTurbForcing.cpp</text>
</a>
</g>
</g>
<!-- Node32&#45;&gt;Node33 -->
<g id="edge38" class="edge">
<title>Node32&#45;&gt;Node33</title>
<path fill="none" stroke="midnightblue" d="M2127.49,-102.1C2129.15,-93.14 2131.05,-82.86 2132.37,-75.75"/>
<polygon fill="midnightblue" stroke="midnightblue" points="2124.02,-101.61 2125.64,-112.08 2130.91,-102.89 2124.02,-101.61"/>
</g>
<!-- Node35 -->
<g id="node35" class="node">
<title>Node35</title>
<g id="a_node35"><a xlink:href="_m_m_s_forcing_8cpp.html" target="_top" xlink:title=" ">
<polygon fill="white" stroke="black" points="2211.99,-56.5 2211.99,-75.5 2307.99,-75.5 2307.99,-56.5 2211.99,-56.5"/>
<text text-anchor="middle" x="2259.99" y="-63.5" font-family="Helvetica,sans-Serif" font-size="10.00">MMSForcing.cpp</text>
</a>
</g>
</g>
<!-- Node34&#45;&gt;Node35 -->
<g id="edge40" class="edge">
<title>Node34&#45;&gt;Node35</title>
<path fill="none" stroke="midnightblue" d="M2253.49,-102.1C2255.15,-93.14 2257.05,-82.86 2258.37,-75.75"/>
<polygon fill="midnightblue" stroke="midnightblue" points="2250.02,-101.61 2251.64,-112.08 2256.91,-102.89 2250.02,-101.61"/>
</g>
</g>
</svg>
