<?xml version="1.0" encoding="UTF-8" standalone="no"?>
<!DOCTYPE svg PUBLIC "-//W3C//DTD SVG 1.1//EN"
 "http://www.w3.org/Graphics/SVG/1.1/DTD/svg11.dtd">
<!-- Generated by graphviz version 2.43.0 (0)
 -->
<!-- Title: PDEOps.H Pages: 1 -->
<svg width="1955pt" height="364pt"
 viewBox="0.00 0.00 1954.50 364.00" xmlns="http://www.w3.org/2000/svg" xmlns:xlink="http://www.w3.org/1999/xlink">
<g id="graph0" class="graph" transform="scale(1 1) rotate(0) translate(4 360)">
<title>PDEOps.H</title>
<polygon fill="white" stroke="transparent" points="-4,4 -4,-360 1950.5,-360 1950.5,4 -4,4"/>
<!-- Node1 -->
<g id="node1" class="node">
<title>Node1</title>
<g id="a_node1"><a xlink:title=" ">
<polygon fill="#bfbfbf" stroke="black" points="1306,-336.5 1306,-355.5 1371,-355.5 1371,-336.5 1306,-336.5"/>
<text text-anchor="middle" x="1338.5" y="-343.5" font-family="Helvetica,sans-Serif" font-size="10.00">PDEOps.H</text>
</a>
</g>
</g>
<!-- Node2 -->
<g id="node2" class="node">
<title>Node2</title>
<g id="a_node2"><a xlink:href="_adv_op___godunov_8_h.html" target="_top" xlink:title=" ">
<polygon fill="white" stroke="black" points="1368,-112.5 1368,-131.5 1475,-131.5 1475,-112.5 1368,-112.5"/>
<text text-anchor="middle" x="1421.5" y="-119.5" font-family="Helvetica,sans-Serif" font-size="10.00">AdvOp_Godunov.H</text>
</a>
</g>
</g>
<!-- Node1&#45;&gt;Node2 -->
<g id="edge1" class="edge">
<title>Node1&#45;&gt;Node2</title>
<path fill="none" stroke="midnightblue" d="M1349.44,-327.57C1366.51,-299.41 1399.13,-241.64 1414.5,-188 1420.13,-168.36 1421.3,-144.2 1421.5,-131.59"/>
<polygon fill="midnightblue" stroke="midnightblue" points="1346.36,-325.88 1344.1,-336.24 1352.32,-329.55 1346.36,-325.88"/>
</g>
<!-- Node7 -->
<g id="node7" class="node">
<title>Node7</title>
<g id="a_node7"><a xlink:href="icns__ops_8_h.html" target="_top" xlink:title=" ">
<polygon fill="white" stroke="black" points="1765,-56.5 1765,-75.5 1834,-75.5 1834,-56.5 1765,-56.5"/>
<text text-anchor="middle" x="1799.5" y="-63.5" font-family="Helvetica,sans-Serif" font-size="10.00">icns_ops.H</text>
</a>
</g>
</g>
<!-- Node1&#45;&gt;Node7 -->
<g id="edge86" class="edge">
<title>Node1&#45;&gt;Node7</title>
<path fill="none" stroke="midnightblue" d="M1381.36,-345.11C1444.7,-343.94 1566.1,-336.56 1661.5,-300 1703.05,-284.07 1717.95,-279.71 1744.5,-244 1785.39,-188.99 1796.31,-102.99 1798.83,-75.65"/>
<polygon fill="midnightblue" stroke="midnightblue" points="1381.28,-341.61 1371.33,-345.25 1381.38,-348.61 1381.28,-341.61"/>
</g>
<!-- Node13 -->
<g id="node13" class="node">
<title>Node13</title>
<g id="a_node13"><a xlink:href="_adv_op___m_o_l_8_h.html" target="_top" xlink:title=" ">
<polygon fill="white" stroke="black" points="1117.5,-112.5 1117.5,-131.5 1203.5,-131.5 1203.5,-112.5 1117.5,-112.5"/>
<text text-anchor="middle" x="1160.5" y="-119.5" font-family="Helvetica,sans-Serif" font-size="10.00">AdvOp_MOL.H</text>
</a>
</g>
</g>
<!-- Node1&#45;&gt;Node13 -->
<g id="edge13" class="edge">
<title>Node1&#45;&gt;Node13</title>
<path fill="none" stroke="midnightblue" d="M1325.09,-328.28C1289.67,-284.1 1194.45,-165.34 1167.62,-131.88"/>
<polygon fill="midnightblue" stroke="midnightblue" points="1322.54,-330.68 1331.52,-336.3 1328,-326.31 1322.54,-330.68"/>
</g>
<!-- Node14 -->
<g id="node14" class="node">
<title>Node14</title>
<g id="a_node14"><a xlink:href="_b_c_ops_8_h.html" target="_top" xlink:title=" ">
<polygon fill="white" stroke="black" points="898,-112.5 898,-131.5 957,-131.5 957,-112.5 898,-112.5"/>
<text text-anchor="middle" x="927.5" y="-119.5" font-family="Helvetica,sans-Serif" font-size="10.00">BCOps.H</text>
</a>
</g>
</g>
<!-- Node1&#45;&gt;Node14 -->
<g id="edge22" class="edge">
<title>Node1&#45;&gt;Node14</title>
<path fill="none" stroke="midnightblue" d="M1295.39,-341.77C1228.33,-336.11 1102.73,-322.78 1064.5,-300 992.73,-257.23 944.88,-161.46 931.39,-131.87"/>
<polygon fill="midnightblue" stroke="midnightblue" points="1295.38,-345.28 1305.63,-342.61 1295.95,-338.3 1295.38,-345.28"/>
</g>
<!-- Node20 -->
<g id="node20" class="node">
<title>Node20</title>
<g id="a_node20"><a xlink:href="_comp_r_h_s_ops_8_h.html" target="_top" xlink:title=" ">
<polygon fill="white" stroke="black" points="1082,-280.5 1082,-299.5 1177,-299.5 1177,-280.5 1082,-280.5"/>
<text text-anchor="middle" x="1129.5" y="-287.5" font-family="Helvetica,sans-Serif" font-size="10.00">CompRHSOps.H</text>
</a>
</g>
</g>
<!-- Node1&#45;&gt;Node20 -->
<g id="edge36" class="edge">
<title>Node1&#45;&gt;Node20</title>
<path fill="none" stroke="midnightblue" d="M1295.99,-334.02C1256.57,-323.83 1198.71,-308.88 1162.62,-299.56"/>
<polygon fill="midnightblue" stroke="midnightblue" points="1295.29,-337.45 1305.84,-336.56 1297.04,-330.67 1295.29,-337.45"/>
</g>
<!-- Node21 -->
<g id="node21" class="node">
<title>Node21</title>
<g id="a_node21"><a xlink:href="_p_d_e_8_h.html" target="_top" xlink:title=" ">
<polygon fill="white" stroke="black" points="1086,-224.5 1086,-243.5 1133,-243.5 1133,-224.5 1086,-224.5"/>
<text text-anchor="middle" x="1109.5" y="-231.5" font-family="Helvetica,sans-Serif" font-size="10.00">PDE.H</text>
</a>
</g>
</g>
<!-- Node1&#45;&gt;Node21 -->
<g id="edge87" class="edge">
<title>Node1&#45;&gt;Node21</title>
<path fill="none" stroke="midnightblue" d="M1295.55,-344.19C1227.71,-341.91 1100.55,-333.19 1072.5,-300 1057.25,-281.95 1082.38,-256.71 1098.19,-243.63"/>
<polygon fill="midnightblue" stroke="midnightblue" points="1295.8,-347.7 1305.9,-344.51 1296.01,-340.71 1295.8,-347.7"/>
</g>
<!-- Node25 -->
<g id="node25" class="node">
<title>Node25</title>
<g id="a_node25"><a xlink:href="icns__diffusion_8_h.html" target="_top" xlink:title=" ">
<polygon fill="white" stroke="black" points="1852.5,-56.5 1852.5,-75.5 1946.5,-75.5 1946.5,-56.5 1852.5,-56.5"/>
<text text-anchor="middle" x="1899.5" y="-63.5" font-family="Helvetica,sans-Serif" font-size="10.00">icns_diffusion.H</text>
</a>
</g>
</g>
<!-- Node1&#45;&gt;Node25 -->
<g id="edge85" class="edge">
<title>Node1&#45;&gt;Node25</title>
<path fill="none" stroke="midnightblue" d="M1381.59,-345.52C1511.18,-345.92 1888.5,-338.24 1888.5,-235 1888.5,-235 1888.5,-235 1888.5,-177 1888.5,-139 1895.08,-93.98 1898.06,-75.53"/>
<polygon fill="midnightblue" stroke="midnightblue" points="1381.28,-342.01 1371.26,-345.46 1381.24,-349.01 1381.28,-342.01"/>
</g>
<!-- Node41 -->
<g id="node41" class="node">
<title>Node41</title>
<g id="a_node41"><a xlink:href="_diffusion_ops_8_h.html" target="_top" xlink:title=" ">
<polygon fill="white" stroke="black" points="1563,-280.5 1563,-299.5 1652,-299.5 1652,-280.5 1563,-280.5"/>
<text text-anchor="middle" x="1607.5" y="-287.5" font-family="Helvetica,sans-Serif" font-size="10.00">DiffusionOps.H</text>
</a>
</g>
</g>
<!-- Node1&#45;&gt;Node41 -->
<g id="edge80" class="edge">
<title>Node1&#45;&gt;Node41</title>
<path fill="none" stroke="midnightblue" d="M1381.12,-336.44C1431.41,-326.35 1514.53,-309.66 1564.84,-299.56"/>
<polygon fill="midnightblue" stroke="midnightblue" points="1380.33,-333.03 1371.22,-338.43 1381.71,-339.9 1380.33,-333.03"/>
</g>
<!-- Node3 -->
<g id="node3" class="node">
<title>Node3</title>
<g id="a_node3"><a xlink:href="density_8cpp.html" target="_top" xlink:title=" ">
<polygon fill="white" stroke="black" points="1003,-56.5 1003,-75.5 1074,-75.5 1074,-56.5 1003,-56.5"/>
<text text-anchor="middle" x="1038.5" y="-63.5" font-family="Helvetica,sans-Serif" font-size="10.00">density.cpp</text>
</a>
</g>
</g>
<!-- Node2&#45;&gt;Node3 -->
<g id="edge2" class="edge">
<title>Node2&#45;&gt;Node3</title>
<path fill="none" stroke="midnightblue" d="M1357.73,-112.01C1276.46,-100.55 1138.77,-81.14 1074.08,-72.02"/>
<polygon fill="midnightblue" stroke="midnightblue" points="1357.45,-115.5 1367.84,-113.43 1358.43,-108.57 1357.45,-115.5"/>
</g>
<!-- Node4 -->
<g id="node4" class="node">
<title>Node4</title>
<g id="a_node4"><a xlink:href="icns__advection_8_h.html" target="_top" xlink:title=" ">
<polygon fill="white" stroke="black" points="1472.5,-56.5 1472.5,-75.5 1572.5,-75.5 1572.5,-56.5 1472.5,-56.5"/>
<text text-anchor="middle" x="1522.5" y="-63.5" font-family="Helvetica,sans-Serif" font-size="10.00">icns_advection.H</text>
</a>
</g>
</g>
<!-- Node2&#45;&gt;Node4 -->
<g id="edge3" class="edge">
<title>Node2&#45;&gt;Node4</title>
<path fill="none" stroke="midnightblue" d="M1446.58,-107.59C1465.26,-97.61 1490.2,-84.27 1506.31,-75.65"/>
<polygon fill="midnightblue" stroke="midnightblue" points="1444.9,-104.52 1437.73,-112.32 1448.2,-110.7 1444.9,-104.52"/>
</g>
<!-- Node2&#45;&gt;Node7 -->
<g id="edge6" class="edge">
<title>Node2&#45;&gt;Node7</title>
<path fill="none" stroke="midnightblue" d="M1485.27,-111.89C1565.77,-100.39 1701.36,-81.02 1764.81,-71.96"/>
<polygon fill="midnightblue" stroke="midnightblue" points="1484.66,-108.44 1475.26,-113.32 1485.65,-115.37 1484.66,-108.44"/>
</g>
<!-- Node8 -->
<g id="node8" class="node">
<title>Node8</title>
<g id="a_node8"><a xlink:href="levelset_8cpp.html" target="_top" xlink:title=" ">
<polygon fill="white" stroke="black" points="1130.5,-56.5 1130.5,-75.5 1206.5,-75.5 1206.5,-56.5 1130.5,-56.5"/>
<text text-anchor="middle" x="1168.5" y="-63.5" font-family="Helvetica,sans-Serif" font-size="10.00">levelset.cpp</text>
</a>
</g>
</g>
<!-- Node2&#45;&gt;Node8 -->
<g id="edge8" class="edge">
<title>Node2&#45;&gt;Node8</title>
<path fill="none" stroke="midnightblue" d="M1371.46,-110.32C1323.05,-99.99 1250.72,-84.55 1206.74,-75.16"/>
<polygon fill="midnightblue" stroke="midnightblue" points="1370.9,-113.78 1381.41,-112.44 1372.36,-106.93 1370.9,-113.78"/>
</g>
<!-- Node9 -->
<g id="node9" class="node">
<title>Node9</title>
<g id="a_node9"><a xlink:href="_s_d_r_8cpp.html" target="_top" xlink:title=" ">
<polygon fill="white" stroke="black" points="583,-56.5 583,-75.5 640,-75.5 640,-56.5 583,-56.5"/>
<text text-anchor="middle" x="611.5" y="-63.5" font-family="Helvetica,sans-Serif" font-size="10.00">SDR.cpp</text>
</a>
</g>
</g>
<!-- Node2&#45;&gt;Node9 -->
<g id="edge9" class="edge">
<title>Node2&#45;&gt;Node9</title>
<path fill="none" stroke="midnightblue" d="M1357.61,-114.96C1345.3,-113.9 1332.5,-112.86 1320.5,-112 1022.61,-90.74 945.1,-118.58 649.5,-76 646.41,-75.56 643.21,-74.98 640.03,-74.33"/>
<polygon fill="midnightblue" stroke="midnightblue" points="1357.53,-118.47 1367.8,-115.86 1358.15,-111.5 1357.53,-118.47"/>
</g>
<!-- Node10 -->
<g id="node10" class="node">
<title>Node10</title>
<g id="a_node10"><a xlink:href="temperature_8cpp.html" target="_top" xlink:title=" ">
<polygon fill="white" stroke="black" points="1224.5,-56.5 1224.5,-75.5 1322.5,-75.5 1322.5,-56.5 1224.5,-56.5"/>
<text text-anchor="middle" x="1273.5" y="-63.5" font-family="Helvetica,sans-Serif" font-size="10.00">temperature.cpp</text>
</a>
</g>
</g>
<!-- Node2&#45;&gt;Node10 -->
<g id="edge10" class="edge">
<title>Node2&#45;&gt;Node10</title>
<path fill="none" stroke="midnightblue" d="M1388.35,-108.91C1360.53,-98.75 1321.48,-84.51 1296.84,-75.52"/>
<polygon fill="midnightblue" stroke="midnightblue" points="1387.46,-112.3 1398.05,-112.44 1389.85,-105.73 1387.46,-112.3"/>
</g>
<!-- Node11 -->
<g id="node11" class="node">
<title>Node11</title>
<g id="a_node11"><a xlink:href="_t_k_e_8cpp.html" target="_top" xlink:title=" ">
<polygon fill="white" stroke="black" points="658.5,-56.5 658.5,-75.5 714.5,-75.5 714.5,-56.5 658.5,-56.5"/>
<text text-anchor="middle" x="686.5" y="-63.5" font-family="Helvetica,sans-Serif" font-size="10.00">TKE.cpp</text>
</a>
</g>
</g>
<!-- Node2&#45;&gt;Node11 -->
<g id="edge11" class="edge">
<title>Node2&#45;&gt;Node11</title>
<path fill="none" stroke="midnightblue" d="M1357.6,-115.07C1345.29,-113.99 1332.5,-112.92 1320.5,-112 1072.27,-92.95 1009.41,-98.84 761.5,-76 745.96,-74.57 728.66,-72.52 714.6,-70.74"/>
<polygon fill="midnightblue" stroke="midnightblue" points="1357.52,-118.57 1367.79,-115.97 1358.14,-111.6 1357.52,-118.57"/>
</g>
<!-- Node12 -->
<g id="node12" class="node">
<title>Node12</title>
<g id="a_node12"><a xlink:href="vof_8cpp.html" target="_top" xlink:title=" ">
<polygon fill="white" stroke="black" points="245.5,-0.5 245.5,-19.5 297.5,-19.5 297.5,-0.5 245.5,-0.5"/>
<text text-anchor="middle" x="271.5" y="-7.5" font-family="Helvetica,sans-Serif" font-size="10.00">vof.cpp</text>
</a>
</g>
</g>
<!-- Node2&#45;&gt;Node12 -->
<g id="edge12" class="edge">
<title>Node2&#45;&gt;Node12</title>
<path fill="none" stroke="midnightblue" d="M1405.8,-105.16C1389.05,-89.42 1360.92,-66.21 1331.5,-56 1231.22,-21.21 452.18,-12.59 297.97,-11.21"/>
<polygon fill="midnightblue" stroke="midnightblue" points="1403.45,-107.75 1413.07,-112.19 1408.32,-102.72 1403.45,-107.75"/>
</g>
<!-- Node5 -->
<g id="node5" class="node">
<title>Node5</title>
<g id="a_node5"><a xlink:href="icns_8cpp.html" target="_top" xlink:title=" ">
<polygon fill="white" stroke="black" points="1708.5,-0.5 1708.5,-19.5 1764.5,-19.5 1764.5,-0.5 1708.5,-0.5"/>
<text text-anchor="middle" x="1736.5" y="-7.5" font-family="Helvetica,sans-Serif" font-size="10.00">icns.cpp</text>
</a>
</g>
</g>
<!-- Node4&#45;&gt;Node5 -->
<g id="edge4" class="edge">
<title>Node4&#45;&gt;Node5</title>
<path fill="none" stroke="midnightblue" d="M1566.2,-53.97C1608.68,-43.25 1671.95,-27.29 1708.22,-18.14"/>
<polygon fill="midnightblue" stroke="midnightblue" points="1565.25,-50.6 1556.41,-56.44 1566.96,-57.39 1565.25,-50.6"/>
</g>
<!-- Node6 -->
<g id="node6" class="node">
<title>Node6</title>
<g id="a_node6"><a xlink:href="icns__advection_8cpp.html" target="_top" xlink:title=" ">
<polygon fill="white" stroke="black" points="1467.5,-0.5 1467.5,-19.5 1577.5,-19.5 1577.5,-0.5 1467.5,-0.5"/>
<text text-anchor="middle" x="1522.5" y="-7.5" font-family="Helvetica,sans-Serif" font-size="10.00">icns_advection.cpp</text>
</a>
</g>
</g>
<!-- Node4&#45;&gt;Node6 -->
<g id="edge5" class="edge">
<title>Node4&#45;&gt;Node6</title>
<path fill="none" stroke="midnightblue" d="M1522.5,-45.8C1522.5,-36.91 1522.5,-26.78 1522.5,-19.75"/>
<polygon fill="midnightblue" stroke="midnightblue" points="1519,-46.08 1522.5,-56.08 1526,-46.08 1519,-46.08"/>
</g>
<!-- Node7&#45;&gt;Node5 -->
<g id="edge7" class="edge">
<title>Node7&#45;&gt;Node5</title>
<path fill="none" stroke="midnightblue" d="M1781.46,-49.54C1770.23,-39.91 1756.18,-27.87 1746.81,-19.83"/>
<polygon fill="midnightblue" stroke="midnightblue" points="1779.51,-52.47 1789.38,-56.32 1784.06,-47.16 1779.51,-52.47"/>
</g>
<!-- Node13&#45;&gt;Node3 -->
<g id="edge14" class="edge">
<title>Node13&#45;&gt;Node3</title>
<path fill="none" stroke="midnightblue" d="M1131.96,-108.37C1109.11,-98.26 1077.69,-84.35 1057.74,-75.52"/>
<polygon fill="midnightblue" stroke="midnightblue" points="1130.61,-111.6 1141.17,-112.44 1133.44,-105.2 1130.61,-111.6"/>
</g>
<!-- Node13&#45;&gt;Node4 -->
<g id="edge15" class="edge">
<title>Node13&#45;&gt;Node4</title>
<path fill="none" stroke="midnightblue" d="M1213.2,-112.05C1213.3,-112.03 1213.4,-112.02 1213.5,-112 1324.4,-94.6 1352.46,-92.46 1463.5,-76 1466.37,-75.57 1469.32,-75.13 1472.29,-74.69"/>
<polygon fill="midnightblue" stroke="midnightblue" points="1212.9,-108.55 1203.58,-113.59 1214.01,-115.46 1212.9,-108.55"/>
</g>
<!-- Node13&#45;&gt;Node7 -->
<g id="edge16" class="edge">
<title>Node13&#45;&gt;Node7</title>
<path fill="none" stroke="midnightblue" d="M1213.2,-112.04C1213.3,-112.02 1213.4,-112.01 1213.5,-112 1436.46,-85.17 1493.84,-96.25 1717.5,-76 1733.05,-74.59 1750.22,-72.75 1764.82,-71.1"/>
<polygon fill="midnightblue" stroke="midnightblue" points="1212.99,-108.53 1203.55,-113.33 1213.92,-115.47 1212.99,-108.53"/>
</g>
<!-- Node13&#45;&gt;Node8 -->
<g id="edge17" class="edge">
<title>Node13&#45;&gt;Node8</title>
<path fill="none" stroke="midnightblue" d="M1163.3,-102.1C1164.63,-93.14 1166.15,-82.86 1167.2,-75.75"/>
<polygon fill="midnightblue" stroke="midnightblue" points="1159.82,-101.68 1161.82,-112.08 1166.75,-102.7 1159.82,-101.68"/>
</g>
<!-- Node13&#45;&gt;Node9 -->
<g id="edge18" class="edge">
<title>Node13&#45;&gt;Node9</title>
<path fill="none" stroke="midnightblue" d="M1107.48,-115.57C1095.33,-114.36 1082.47,-113.11 1070.5,-112 883.51,-94.66 834.93,-105.72 649.5,-76 646.42,-75.51 643.22,-74.9 640.04,-74.24"/>
<polygon fill="midnightblue" stroke="midnightblue" points="1107.18,-119.06 1117.48,-116.57 1107.88,-112.09 1107.18,-119.06"/>
</g>
<!-- Node13&#45;&gt;Node10 -->
<g id="edge19" class="edge">
<title>Node13&#45;&gt;Node10</title>
<path fill="none" stroke="midnightblue" d="M1187.5,-108.1C1208.61,-98.01 1237.36,-84.27 1255.68,-75.52"/>
<polygon fill="midnightblue" stroke="midnightblue" points="1185.92,-104.97 1178.41,-112.44 1188.94,-111.29 1185.92,-104.97"/>
</g>
<!-- Node13&#45;&gt;Node11 -->
<g id="edge20" class="edge">
<title>Node13&#45;&gt;Node11</title>
<path fill="none" stroke="midnightblue" d="M1107.05,-115.09C1030.48,-106.61 885.17,-90.39 761.5,-76 746,-74.2 728.7,-72.12 714.63,-70.42"/>
<polygon fill="midnightblue" stroke="midnightblue" points="1107.06,-118.62 1117.39,-116.24 1107.83,-111.66 1107.06,-118.62"/>
</g>
<!-- Node13&#45;&gt;Node12 -->
<g id="edge21" class="edge">
<title>Node13&#45;&gt;Node12</title>
<path fill="none" stroke="midnightblue" d="M1146.52,-104.39C1132.24,-88.75 1108.52,-66.24 1082.5,-56 1008.12,-26.71 429.24,-14 297.93,-11.48"/>
<polygon fill="midnightblue" stroke="midnightblue" points="1144.21,-107.05 1153.44,-112.25 1149.46,-102.43 1144.21,-107.05"/>
</g>
<!-- Node14&#45;&gt;Node3 -->
<g id="edge23" class="edge">
<title>Node14&#45;&gt;Node3</title>
<path fill="none" stroke="midnightblue" d="M954.51,-107.86C975.09,-97.85 1002.84,-84.35 1020.71,-75.65"/>
<polygon fill="midnightblue" stroke="midnightblue" points="952.8,-104.8 945.33,-112.32 955.86,-111.1 952.8,-104.8"/>
</g>
<!-- Node14&#45;&gt;Node8 -->
<g id="edge26" class="edge">
<title>Node14&#45;&gt;Node8</title>
<path fill="none" stroke="midnightblue" d="M967.38,-111.81C1030.08,-97.61 1091.55,-83.98 1130.13,-75.46"/>
<polygon fill="midnightblue" stroke="midnightblue" points="966.28,-108.47 957.31,-114.1 967.83,-115.3 966.28,-108.47"/>
</g>
<!-- Node14&#45;&gt;Node9 -->
<g id="edge27" class="edge">
<title>Node14&#45;&gt;Node9</title>
<path fill="none" stroke="midnightblue" d="M887.87,-112.02C781.27,-92.15 751.88,-95.8 649.5,-76 646.44,-75.41 643.25,-74.74 640.08,-74.04"/>
<polygon fill="midnightblue" stroke="midnightblue" points="887.26,-115.47 897.74,-113.88 888.56,-108.59 887.26,-115.47"/>
</g>
<!-- Node14&#45;&gt;Node10 -->
<g id="edge28" class="edge">
<title>Node14&#45;&gt;Node10</title>
<path fill="none" stroke="midnightblue" d="M967.17,-112.01C1078.09,-91.46 1108.05,-92.1 1215.5,-76 1218.42,-75.56 1221.43,-75.11 1224.46,-74.65"/>
<polygon fill="midnightblue" stroke="midnightblue" points="966.44,-108.59 957.26,-113.86 967.73,-115.47 966.44,-108.59"/>
</g>
<!-- Node14&#45;&gt;Node11 -->
<g id="edge29" class="edge">
<title>Node14&#45;&gt;Node11</title>
<path fill="none" stroke="midnightblue" d="M887.67,-111.83C819.73,-96.44 751.83,-81.4 714.62,-73.19"/>
<polygon fill="midnightblue" stroke="midnightblue" points="887.17,-115.3 897.69,-114.1 888.72,-108.47 887.17,-115.3"/>
</g>
<!-- Node14&#45;&gt;Node12 -->
<g id="edge30" class="edge">
<title>Node14&#45;&gt;Node12</title>
<path fill="none" stroke="midnightblue" d="M888.1,-111.38C846.69,-101.08 784.41,-85.01 761.5,-76 743.74,-69.02 741.78,-61.49 723.5,-56 642.78,-31.75 381.74,-16.62 297.78,-12.29"/>
<polygon fill="midnightblue" stroke="midnightblue" points="887.34,-114.8 897.89,-113.81 889.02,-108 887.34,-114.8"/>
</g>
<!-- Node15 -->
<g id="node15" class="node">
<title>Node15</title>
<g id="a_node15"><a xlink:href="icns__bcop_8_h.html" target="_top" xlink:title=" ">
<polygon fill="white" stroke="black" points="1379,-56.5 1379,-75.5 1454,-75.5 1454,-56.5 1379,-56.5"/>
<text text-anchor="middle" x="1416.5" y="-63.5" font-family="Helvetica,sans-Serif" font-size="10.00">icns_bcop.H</text>
</a>
</g>
</g>
<!-- Node14&#45;&gt;Node15 -->
<g id="edge24" class="edge">
<title>Node14&#45;&gt;Node15</title>
<path fill="none" stroke="midnightblue" d="M967.54,-112.04C1129.13,-85.89 1172.66,-92.24 1331.5,-76 1347,-74.41 1364.09,-72.62 1378.85,-71.05"/>
<polygon fill="midnightblue" stroke="midnightblue" points="966.54,-108.66 957.23,-113.72 967.67,-115.56 966.54,-108.66"/>
</g>
<!-- Node16 -->
<g id="node16" class="node">
<title>Node16</title>
<g id="a_node16"><a xlink:href="vof__bcop_8_h.html" target="_top" xlink:title=" ">
<polygon fill="white" stroke="black" points="236,-56.5 236,-75.5 307,-75.5 307,-56.5 236,-56.5"/>
<text text-anchor="middle" x="271.5" y="-63.5" font-family="Helvetica,sans-Serif" font-size="10.00">vof_bcop.H</text>
</a>
</g>
</g>
<!-- Node14&#45;&gt;Node16 -->
<g id="edge31" class="edge">
<title>Node14&#45;&gt;Node16</title>
<path fill="none" stroke="midnightblue" d="M887.53,-112.13C634.19,-76.08 565.11,-109.21 315.5,-76 312.87,-75.65 310.17,-75.23 307.45,-74.78"/>
<polygon fill="midnightblue" stroke="midnightblue" points="887.39,-115.65 897.78,-113.61 888.39,-108.72 887.39,-115.65"/>
</g>
<!-- Node17 -->
<g id="node17" class="node">
<title>Node17</title>
<g id="a_node17"><a xlink:href="hos__waves__ops_8_h.html" target="_top" xlink:title=" ">
<polygon fill="white" stroke="black" points="880.5,-56.5 880.5,-75.5 984.5,-75.5 984.5,-56.5 880.5,-56.5"/>
<text text-anchor="middle" x="932.5" y="-63.5" font-family="Helvetica,sans-Serif" font-size="10.00">hos_waves_ops.H</text>
</a>
</g>
</g>
<!-- Node14&#45;&gt;Node17 -->
<g id="edge33" class="edge">
<title>Node14&#45;&gt;Node17</title>
<path fill="none" stroke="midnightblue" d="M929.25,-102.1C930.08,-93.14 931.03,-82.86 931.69,-75.75"/>
<polygon fill="midnightblue" stroke="midnightblue" points="925.76,-101.8 928.33,-112.08 932.73,-102.45 925.76,-101.8"/>
</g>
<!-- Node19 -->
<g id="node19" class="node">
<title>Node19</title>
<g id="a_node19"><a xlink:href="_multi_phase_8cpp.html" target="_top" xlink:title=" ">
<polygon fill="white" stroke="black" points="771,-56.5 771,-75.5 862,-75.5 862,-56.5 771,-56.5"/>
<text text-anchor="middle" x="816.5" y="-63.5" font-family="Helvetica,sans-Serif" font-size="10.00">MultiPhase.cpp</text>
</a>
</g>
</g>
<!-- Node14&#45;&gt;Node19 -->
<g id="edge35" class="edge">
<title>Node14&#45;&gt;Node19</title>
<path fill="none" stroke="midnightblue" d="M900.49,-107.86C879.91,-97.85 852.16,-84.35 834.29,-75.65"/>
<polygon fill="midnightblue" stroke="midnightblue" points="899.14,-111.1 909.67,-112.32 902.2,-104.8 899.14,-111.1"/>
</g>
<!-- Node15&#45;&gt;Node5 -->
<g id="edge25" class="edge">
<title>Node15&#45;&gt;Node5</title>
<path fill="none" stroke="midnightblue" d="M1464.31,-55.89C1559.82,-38.98 1660.22,-22.96 1708.16,-15.42"/>
<polygon fill="midnightblue" stroke="midnightblue" points="1463.43,-52.5 1454.19,-57.69 1464.65,-59.39 1463.43,-52.5"/>
</g>
<!-- Node16&#45;&gt;Node12 -->
<g id="edge32" class="edge">
<title>Node16&#45;&gt;Node12</title>
<path fill="none" stroke="midnightblue" d="M271.5,-45.8C271.5,-36.91 271.5,-26.78 271.5,-19.75"/>
<polygon fill="midnightblue" stroke="midnightblue" points="268,-46.08 271.5,-56.08 275,-46.08 268,-46.08"/>
</g>
<!-- Node18 -->
<g id="node18" class="node">
<title>Node18</title>
<g id="a_node18"><a xlink:href="_h_o_s_waves_8cpp.html" target="_top" xlink:title=" ">
<polygon fill="white" stroke="black" points="887.5,-0.5 887.5,-19.5 977.5,-19.5 977.5,-0.5 887.5,-0.5"/>
<text text-anchor="middle" x="932.5" y="-7.5" font-family="Helvetica,sans-Serif" font-size="10.00">HOSWaves.cpp</text>
</a>
</g>
</g>
<!-- Node17&#45;&gt;Node18 -->
<g id="edge34" class="edge">
<title>Node17&#45;&gt;Node18</title>
<path fill="none" stroke="midnightblue" d="M932.5,-45.8C932.5,-36.91 932.5,-26.78 932.5,-19.75"/>
<polygon fill="midnightblue" stroke="midnightblue" points="929,-46.08 932.5,-56.08 936,-46.08 929,-46.08"/>
</g>
<!-- Node20&#45;&gt;Node21 -->
<g id="edge37" class="edge">
<title>Node20&#45;&gt;Node21</title>
<path fill="none" stroke="midnightblue" d="M1122.72,-270.69C1119.35,-261.59 1115.43,-251.01 1112.74,-243.75"/>
<polygon fill="midnightblue" stroke="midnightblue" points="1119.44,-271.92 1126.2,-280.08 1126.01,-269.49 1119.44,-271.92"/>
</g>
<!-- Node22 -->
<g id="node22" class="node">
<title>Node22</title>
<g id="a_node22"><a xlink:href="density_8_h.html" target="_top" xlink:title=" ">
<polygon fill="white" stroke="black" points="1058.5,-168.5 1058.5,-187.5 1120.5,-187.5 1120.5,-168.5 1058.5,-168.5"/>
<text text-anchor="middle" x="1089.5" y="-175.5" font-family="Helvetica,sans-Serif" font-size="10.00">density.H</text>
</a>
</g>
</g>
<!-- Node21&#45;&gt;Node22 -->
<g id="edge38" class="edge">
<title>Node21&#45;&gt;Node22</title>
<path fill="none" stroke="midnightblue" d="M1102.72,-214.69C1099.35,-205.59 1095.43,-195.01 1092.74,-187.75"/>
<polygon fill="midnightblue" stroke="midnightblue" points="1099.44,-215.92 1106.2,-224.08 1106.01,-213.49 1099.44,-215.92"/>
</g>
<!-- Node24 -->
<g id="node24" class="node">
<title>Node24</title>
<g id="a_node24"><a xlink:href="icns_8_h.html" target="_top" xlink:title=" ">
<polygon fill="white" stroke="black" points="1532,-112.5 1532,-131.5 1579,-131.5 1579,-112.5 1532,-112.5"/>
<text text-anchor="middle" x="1555.5" y="-119.5" font-family="Helvetica,sans-Serif" font-size="10.00">icns.H</text>
</a>
</g>
</g>
<!-- Node21&#45;&gt;Node24 -->
<g id="edge42" class="edge">
<title>Node21&#45;&gt;Node24</title>
<path fill="none" stroke="midnightblue" d="M1143.59,-231.14C1200.7,-227.34 1318.83,-216.47 1414.5,-188 1462.55,-173.7 1515.21,-145.87 1540.42,-131.71"/>
<polygon fill="midnightblue" stroke="midnightblue" points="1143.1,-227.67 1133.34,-231.8 1143.54,-234.66 1143.1,-227.67"/>
</g>
<!-- Node27 -->
<g id="node27" class="node">
<title>Node27</title>
<g id="a_node27"><a xlink:href="levelset_8_h.html" target="_top" xlink:title=" ">
<polygon fill="white" stroke="black" points="1233.5,-168.5 1233.5,-187.5 1299.5,-187.5 1299.5,-168.5 1233.5,-168.5"/>
<text text-anchor="middle" x="1266.5" y="-175.5" font-family="Helvetica,sans-Serif" font-size="10.00">levelset.H</text>
</a>
</g>
</g>
<!-- Node21&#45;&gt;Node27 -->
<g id="edge50" class="edge">
<title>Node21&#45;&gt;Node27</title>
<path fill="none" stroke="midnightblue" d="M1142.48,-221.66C1172.03,-211.49 1214.73,-196.8 1241.54,-187.59"/>
<polygon fill="midnightblue" stroke="midnightblue" points="1141.32,-218.35 1133,-224.92 1143.6,-224.97 1141.32,-218.35"/>
</g>
<!-- Node29 -->
<g id="node29" class="node">
<title>Node29</title>
<g id="a_node29"><a xlink:href="_s_d_r_8_h.html" target="_top" xlink:title=" ">
<polygon fill="white" stroke="black" points="468,-168.5 468,-187.5 515,-187.5 515,-168.5 468,-168.5"/>
<text text-anchor="middle" x="491.5" y="-175.5" font-family="Helvetica,sans-Serif" font-size="10.00">SDR.H</text>
</a>
</g>
</g>
<!-- Node21&#45;&gt;Node29 -->
<g id="edge54" class="edge">
<title>Node21&#45;&gt;Node29</title>
<path fill="none" stroke="midnightblue" d="M1075.64,-230.04C964.18,-220.3 610.45,-189.39 515.28,-181.08"/>
<polygon fill="midnightblue" stroke="midnightblue" points="1075.39,-233.53 1085.65,-230.92 1075.99,-226.56 1075.39,-233.53"/>
</g>
<!-- Node34 -->
<g id="node34" class="node">
<title>Node34</title>
<g id="a_node34"><a xlink:href="temperature_8_h.html" target="_top" xlink:title=" ">
<polygon fill="white" stroke="black" points="1317.5,-168.5 1317.5,-187.5 1405.5,-187.5 1405.5,-168.5 1317.5,-168.5"/>
<text text-anchor="middle" x="1361.5" y="-175.5" font-family="Helvetica,sans-Serif" font-size="10.00">temperature.H</text>
</a>
</g>
</g>
<!-- Node21&#45;&gt;Node34 -->
<g id="edge63" class="edge">
<title>Node21&#45;&gt;Node34</title>
<path fill="none" stroke="midnightblue" d="M1143.03,-225.82C1189.22,-215.92 1272.32,-198.11 1321.64,-187.54"/>
<polygon fill="midnightblue" stroke="midnightblue" points="1142.25,-222.4 1133.21,-227.92 1143.72,-229.25 1142.25,-222.4"/>
</g>
<!-- Node35 -->
<g id="node35" class="node">
<title>Node35</title>
<g id="a_node35"><a xlink:href="_t_k_e_8_h.html" target="_top" xlink:title=" ">
<polygon fill="white" stroke="black" points="653.5,-168.5 653.5,-187.5 699.5,-187.5 699.5,-168.5 653.5,-168.5"/>
<text text-anchor="middle" x="676.5" y="-175.5" font-family="Helvetica,sans-Serif" font-size="10.00">TKE.H</text>
</a>
</g>
</g>
<!-- Node21&#45;&gt;Node35 -->
<g id="edge65" class="edge">
<title>Node21&#45;&gt;Node35</title>
<path fill="none" stroke="midnightblue" d="M1075.82,-228.8C991.22,-218.25 771.41,-190.84 699.58,-181.88"/>
<polygon fill="midnightblue" stroke="midnightblue" points="1075.56,-232.29 1085.91,-230.06 1076.42,-225.35 1075.56,-232.29"/>
</g>
<!-- Node38 -->
<g id="node38" class="node">
<title>Node38</title>
<g id="a_node38"><a xlink:href="vof_8_h.html" target="_top" xlink:title=" ">
<polygon fill="white" stroke="black" points="148.5,-112.5 148.5,-131.5 190.5,-131.5 190.5,-112.5 148.5,-112.5"/>
<text text-anchor="middle" x="169.5" y="-119.5" font-family="Helvetica,sans-Serif" font-size="10.00">vof.H</text>
</a>
</g>
</g>
<!-- Node21&#45;&gt;Node38 -->
<g id="edge73" class="edge">
<title>Node21&#45;&gt;Node38</title>
<path fill="none" stroke="midnightblue" d="M1075.64,-232.47C978.87,-230.58 692.97,-222.27 458.5,-188 356.98,-173.16 238.18,-141.98 190.68,-128.93"/>
<polygon fill="midnightblue" stroke="midnightblue" points="1075.65,-235.97 1085.71,-232.66 1075.78,-228.98 1075.65,-235.97"/>
</g>
<!-- Node22&#45;&gt;Node3 -->
<g id="edge39" class="edge">
<title>Node22&#45;&gt;Node3</title>
<path fill="none" stroke="midnightblue" d="M1085.79,-158.36C1082.73,-145.02 1077.71,-126.88 1070.5,-112 1063.89,-98.37 1053.25,-84.42 1046.07,-75.74"/>
<polygon fill="midnightblue" stroke="midnightblue" points="1082.4,-159.2 1087.91,-168.25 1089.24,-157.74 1082.4,-159.2"/>
</g>
<!-- Node23 -->
<g id="node23" class="node">
<title>Node23</title>
<g id="a_node23"><a xlink:href="density__ops_8_h.html" target="_top" xlink:title=" ">
<polygon fill="white" stroke="black" points="975.5,-112.5 975.5,-131.5 1061.5,-131.5 1061.5,-112.5 975.5,-112.5"/>
<text text-anchor="middle" x="1018.5" y="-119.5" font-family="Helvetica,sans-Serif" font-size="10.00">density_ops.H</text>
</a>
</g>
</g>
<!-- Node22&#45;&gt;Node23 -->
<g id="edge40" class="edge">
<title>Node22&#45;&gt;Node23</title>
<path fill="none" stroke="midnightblue" d="M1069.91,-162.1C1057.13,-152.38 1040.89,-140.03 1030.11,-131.83"/>
<polygon fill="midnightblue" stroke="midnightblue" points="1068.01,-165.06 1078.09,-168.32 1072.25,-159.48 1068.01,-165.06"/>
</g>
<!-- Node23&#45;&gt;Node3 -->
<g id="edge41" class="edge">
<title>Node23&#45;&gt;Node3</title>
<path fill="none" stroke="midnightblue" d="M1025.28,-102.69C1028.65,-93.59 1032.57,-83.01 1035.26,-75.75"/>
<polygon fill="midnightblue" stroke="midnightblue" points="1021.99,-101.49 1021.8,-112.08 1028.56,-103.92 1021.99,-101.49"/>
</g>
<!-- Node24&#45;&gt;Node4 -->
<g id="edge44" class="edge">
<title>Node24&#45;&gt;Node4</title>
<path fill="none" stroke="midnightblue" d="M1544.67,-103.27C1539.03,-94.05 1532.38,-83.17 1527.85,-75.75"/>
<polygon fill="midnightblue" stroke="midnightblue" points="1541.85,-105.38 1550.05,-112.08 1547.82,-101.73 1541.85,-105.38"/>
</g>
<!-- Node24&#45;&gt;Node5 -->
<g id="edge43" class="edge">
<title>Node24&#45;&gt;Node5</title>
<path fill="none" stroke="midnightblue" d="M1589.06,-112.56C1635.13,-100.86 1712.84,-80.6 1717.5,-76 1732.9,-60.81 1735.98,-33.87 1736.49,-19.93"/>
<polygon fill="midnightblue" stroke="midnightblue" points="1588.03,-109.22 1579.19,-115.06 1589.75,-116 1588.03,-109.22"/>
</g>
<!-- Node24&#45;&gt;Node7 -->
<g id="edge48" class="edge">
<title>Node24&#45;&gt;Node7</title>
<path fill="none" stroke="midnightblue" d="M1589.09,-113.01C1590.58,-112.67 1592.05,-112.33 1593.5,-112 1653.64,-98.31 1723.86,-83.15 1764.83,-74.38"/>
<polygon fill="midnightblue" stroke="midnightblue" points="1588.14,-109.64 1579.2,-115.32 1589.74,-116.45 1588.14,-109.64"/>
</g>
<!-- Node24&#45;&gt;Node15 -->
<g id="edge45" class="edge">
<title>Node24&#45;&gt;Node15</title>
<path fill="none" stroke="midnightblue" d="M1524.02,-108.77C1497.91,-98.63 1461.46,-84.47 1438.42,-75.52"/>
<polygon fill="midnightblue" stroke="midnightblue" points="1522.89,-112.08 1533.48,-112.44 1525.42,-105.56 1522.89,-112.08"/>
</g>
<!-- Node24&#45;&gt;Node25 -->
<g id="edge46" class="edge">
<title>Node24&#45;&gt;Node25</title>
<path fill="none" stroke="midnightblue" d="M1589.01,-115.81C1642.73,-107.49 1751.42,-90.59 1843.5,-76 1846.42,-75.54 1849.42,-75.06 1852.45,-74.58"/>
<polygon fill="midnightblue" stroke="midnightblue" points="1588.37,-112.37 1579.02,-117.36 1589.44,-119.29 1588.37,-112.37"/>
</g>
<!-- Node26 -->
<g id="node26" class="node">
<title>Node26</title>
<g id="a_node26"><a xlink:href="_power_law_profile_8cpp.html" target="_top" xlink:title=" ">
<polygon fill="white" stroke="black" points="1591,-56.5 1591,-75.5 1708,-75.5 1708,-56.5 1591,-56.5"/>
<text text-anchor="middle" x="1649.5" y="-63.5" font-family="Helvetica,sans-Serif" font-size="10.00">PowerLawProfile.cpp</text>
</a>
</g>
</g>
<!-- Node24&#45;&gt;Node26 -->
<g id="edge49" class="edge">
<title>Node24&#45;&gt;Node26</title>
<path fill="none" stroke="midnightblue" d="M1579.56,-107.18C1596.86,-97.24 1619.65,-84.15 1634.43,-75.65"/>
<polygon fill="midnightblue" stroke="midnightblue" points="1577.53,-104.31 1570.6,-112.32 1581.02,-110.38 1577.53,-104.31"/>
</g>
<!-- Node25&#45;&gt;Node5 -->
<g id="edge47" class="edge">
<title>Node25&#45;&gt;Node5</title>
<path fill="none" stroke="midnightblue" d="M1863.8,-53.17C1833.1,-43 1789.58,-28.59 1762.21,-19.52"/>
<polygon fill="midnightblue" stroke="midnightblue" points="1863.08,-56.62 1873.67,-56.44 1865.28,-49.98 1863.08,-56.62"/>
</g>
<!-- Node27&#45;&gt;Node8 -->
<g id="edge51" class="edge">
<title>Node27&#45;&gt;Node8</title>
<path fill="none" stroke="midnightblue" d="M1291.42,-163.15C1311.42,-150.22 1334.11,-130.23 1320.5,-112 1313.48,-102.6 1248.39,-85.76 1205.69,-75.56"/>
<polygon fill="midnightblue" stroke="midnightblue" points="1289.54,-160.2 1282.84,-168.4 1293.19,-166.17 1289.54,-160.2"/>
</g>
<!-- Node28 -->
<g id="node28" class="node">
<title>Node28</title>
<g id="a_node28"><a xlink:href="levelset__ops_8_h.html" target="_top" xlink:title=" ">
<polygon fill="white" stroke="black" points="1222,-112.5 1222,-131.5 1311,-131.5 1311,-112.5 1222,-112.5"/>
<text text-anchor="middle" x="1266.5" y="-119.5" font-family="Helvetica,sans-Serif" font-size="10.00">levelset_ops.H</text>
</a>
</g>
</g>
<!-- Node27&#45;&gt;Node28 -->
<g id="edge52" class="edge">
<title>Node27&#45;&gt;Node28</title>
<path fill="none" stroke="midnightblue" d="M1266.5,-157.8C1266.5,-148.91 1266.5,-138.78 1266.5,-131.75"/>
<polygon fill="midnightblue" stroke="midnightblue" points="1263,-158.08 1266.5,-168.08 1270,-158.08 1263,-158.08"/>
</g>
<!-- Node28&#45;&gt;Node8 -->
<g id="edge53" class="edge">
<title>Node28&#45;&gt;Node8</title>
<path fill="none" stroke="midnightblue" d="M1241.91,-107.45C1223.82,-97.48 1199.77,-84.23 1184.21,-75.65"/>
<polygon fill="midnightblue" stroke="midnightblue" points="1240.31,-110.56 1250.75,-112.32 1243.69,-104.43 1240.31,-110.56"/>
</g>
<!-- Node29&#45;&gt;Node9 -->
<g id="edge55" class="edge">
<title>Node29&#45;&gt;Node9</title>
<path fill="none" stroke="midnightblue" d="M524.75,-166.24C543.06,-158.95 565.11,-147.75 580.5,-132 596.58,-115.55 605.56,-89.17 609.34,-75.63"/>
<polygon fill="midnightblue" stroke="midnightblue" points="523.43,-163 515.3,-169.8 525.9,-169.55 523.43,-163"/>
</g>
<!-- Node30 -->
<g id="node30" class="node">
<title>Node30</title>
<g id="a_node30"><a xlink:href="sdr__ops_8_h.html" target="_top" xlink:title=" ">
<polygon fill="white" stroke="black" points="507,-112.5 507,-131.5 572,-131.5 572,-112.5 507,-112.5"/>
<text text-anchor="middle" x="539.5" y="-119.5" font-family="Helvetica,sans-Serif" font-size="10.00">sdr_ops.H</text>
</a>
</g>
</g>
<!-- Node29&#45;&gt;Node30 -->
<g id="edge56" class="edge">
<title>Node29&#45;&gt;Node30</title>
<path fill="none" stroke="midnightblue" d="M506.23,-160.43C514.64,-150.97 524.85,-139.48 531.72,-131.75"/>
<polygon fill="midnightblue" stroke="midnightblue" points="503.45,-158.28 499.43,-168.08 508.69,-162.93 503.45,-158.28"/>
</g>
<!-- Node31 -->
<g id="node31" class="node">
<title>Node31</title>
<g id="a_node31"><a xlink:href="_k_omega_s_s_t_8cpp.html" target="_top" xlink:title=" ">
<polygon fill="white" stroke="black" points="325,-56.5 325,-75.5 420,-75.5 420,-56.5 325,-56.5"/>
<text text-anchor="middle" x="372.5" y="-63.5" font-family="Helvetica,sans-Serif" font-size="10.00">KOmegaSST.cpp</text>
</a>
</g>
</g>
<!-- Node29&#45;&gt;Node31 -->
<g id="edge58" class="edge">
<title>Node29&#45;&gt;Node31</title>
<path fill="none" stroke="midnightblue" d="M457.82,-172.05C433.09,-166.58 400.76,-155.24 382.5,-132 369.52,-115.48 370.03,-89.13 371.35,-75.61"/>
<polygon fill="midnightblue" stroke="midnightblue" points="457.39,-175.54 467.88,-174.05 458.76,-168.67 457.39,-175.54"/>
</g>
<!-- Node32 -->
<g id="node32" class="node">
<title>Node32</title>
<g id="a_node32"><a xlink:href="_k_omega_s_s_t_i_8_h.html" target="_top" xlink:title=" ">
<polygon fill="white" stroke="black" points="400,-112.5 400,-131.5 489,-131.5 489,-112.5 400,-112.5"/>
<text text-anchor="middle" x="444.5" y="-119.5" font-family="Helvetica,sans-Serif" font-size="10.00">KOmegaSSTI.H</text>
</a>
</g>
</g>
<!-- Node29&#45;&gt;Node32 -->
<g id="edge59" class="edge">
<title>Node29&#45;&gt;Node32</title>
<path fill="none" stroke="midnightblue" d="M477.08,-160.43C468.84,-150.97 458.85,-139.48 452.12,-131.75"/>
<polygon fill="midnightblue" stroke="midnightblue" points="474.53,-162.84 483.74,-168.08 479.81,-158.24 474.53,-162.84"/>
</g>
<!-- Node33 -->
<g id="node33" class="node">
<title>Node33</title>
<g id="a_node33"><a xlink:href="_k_omega_s_s_t_i_d_d_e_s_8cpp.html" target="_top" xlink:title=" ">
<polygon fill="white" stroke="black" points="438.5,-56.5 438.5,-75.5 564.5,-75.5 564.5,-56.5 438.5,-56.5"/>
<text text-anchor="middle" x="501.5" y="-63.5" font-family="Helvetica,sans-Serif" font-size="10.00">KOmegaSSTIDDES.cpp</text>
</a>
</g>
</g>
<!-- Node29&#45;&gt;Node33 -->
<g id="edge62" class="edge">
<title>Node29&#45;&gt;Node33</title>
<path fill="none" stroke="midnightblue" d="M457.97,-169.8C421.47,-160.32 370.75,-141.32 390.5,-112 403.4,-92.86 425.98,-81.85 447.42,-75.53"/>
<polygon fill="midnightblue" stroke="midnightblue" points="457.28,-173.23 467.82,-172.23 458.95,-166.44 457.28,-173.23"/>
</g>
<!-- Node30&#45;&gt;Node9 -->
<g id="edge57" class="edge">
<title>Node30&#45;&gt;Node9</title>
<path fill="none" stroke="midnightblue" d="M559.37,-106.1C572.32,-96.38 588.8,-84.03 599.72,-75.83"/>
<polygon fill="midnightblue" stroke="midnightblue" points="556.97,-103.52 551.07,-112.32 561.17,-109.12 556.97,-103.52"/>
</g>
<!-- Node32&#45;&gt;Node31 -->
<g id="edge60" class="edge">
<title>Node32&#45;&gt;Node31</title>
<path fill="none" stroke="midnightblue" d="M424.63,-106.1C411.68,-96.38 395.2,-84.03 384.28,-75.83"/>
<polygon fill="midnightblue" stroke="midnightblue" points="422.83,-109.12 432.93,-112.32 427.03,-103.52 422.83,-109.12"/>
</g>
<!-- Node32&#45;&gt;Node33 -->
<g id="edge61" class="edge">
<title>Node32&#45;&gt;Node33</title>
<path fill="none" stroke="midnightblue" d="M461.12,-105.25C471.23,-95.67 483.78,-83.79 492.18,-75.83"/>
<polygon fill="midnightblue" stroke="midnightblue" points="458.51,-102.91 453.66,-112.32 463.32,-107.99 458.51,-102.91"/>
</g>
<!-- Node34&#45;&gt;Node10 -->
<g id="edge64" class="edge">
<title>Node34&#45;&gt;Node10</title>
<path fill="none" stroke="midnightblue" d="M1415.66,-168.04C1458.63,-158.56 1507.9,-140.91 1484.5,-112 1474.32,-99.43 1381.8,-83.33 1322.7,-74.19"/>
<polygon fill="midnightblue" stroke="midnightblue" points="1414.84,-164.63 1405.77,-170.1 1416.27,-171.48 1414.84,-164.63"/>
</g>
<!-- Node35&#45;&gt;Node11 -->
<g id="edge66" class="edge">
<title>Node35&#45;&gt;Node11</title>
<path fill="none" stroke="midnightblue" d="M678.2,-158.35C680.39,-134.25 684.11,-93.31 685.72,-75.59"/>
<polygon fill="midnightblue" stroke="midnightblue" points="674.7,-158.09 677.28,-168.37 681.68,-158.73 674.7,-158.09"/>
</g>
<!-- Node35&#45;&gt;Node31 -->
<g id="edge70" class="edge">
<title>Node35&#45;&gt;Node31</title>
<path fill="none" stroke="midnightblue" d="M643.29,-176.16C576.12,-173.79 427.35,-164.87 390.5,-132 374.25,-117.5 372.11,-89.76 372.16,-75.67"/>
<polygon fill="midnightblue" stroke="midnightblue" points="643.24,-179.66 653.34,-176.49 643.46,-172.67 643.24,-179.66"/>
</g>
<!-- Node35&#45;&gt;Node32 -->
<g id="edge71" class="edge">
<title>Node35&#45;&gt;Node32</title>
<path fill="none" stroke="midnightblue" d="M643.47,-169.31C600.53,-159.32 525.77,-141.92 481.13,-131.53"/>
<polygon fill="midnightblue" stroke="midnightblue" points="642.87,-172.77 653.41,-171.62 644.46,-165.95 642.87,-172.77"/>
</g>
<!-- Node35&#45;&gt;Node33 -->
<g id="edge72" class="edge">
<title>Node35&#45;&gt;Node33</title>
<path fill="none" stroke="midnightblue" d="M656.3,-162.65C637.07,-149.16 607.21,-128.61 580.5,-112 559.06,-98.66 533.56,-84.42 517.45,-75.61"/>
<polygon fill="midnightblue" stroke="midnightblue" points="654.38,-165.59 664.57,-168.49 658.42,-159.86 654.38,-165.59"/>
</g>
<!-- Node36 -->
<g id="node36" class="node">
<title>Node36</title>
<g id="a_node36"><a xlink:href="tke__ops_8_h.html" target="_top" xlink:title=" ">
<polygon fill="white" stroke="black" points="815,-112.5 815,-131.5 880,-131.5 880,-112.5 815,-112.5"/>
<text text-anchor="middle" x="847.5" y="-119.5" font-family="Helvetica,sans-Serif" font-size="10.00">tke_ops.H</text>
</a>
</g>
</g>
<!-- Node35&#45;&gt;Node36 -->
<g id="edge67" class="edge">
<title>Node35&#45;&gt;Node36</title>
<path fill="none" stroke="midnightblue" d="M709.41,-166.61C741.64,-156.43 790.18,-141.1 820.3,-131.59"/>
<polygon fill="midnightblue" stroke="midnightblue" points="708.04,-163.37 699.56,-169.72 710.15,-170.04 708.04,-163.37"/>
</g>
<!-- Node37 -->
<g id="node37" class="node">
<title>Node37</title>
<g id="a_node37"><a xlink:href="_one_eq_ksgs_8cpp.html" target="_top" xlink:title=" ">
<polygon fill="white" stroke="black" points="704.5,-112.5 704.5,-131.5 796.5,-131.5 796.5,-112.5 704.5,-112.5"/>
<text text-anchor="middle" x="750.5" y="-119.5" font-family="Helvetica,sans-Serif" font-size="10.00">OneEqKsgs.cpp</text>
</a>
</g>
</g>
<!-- Node35&#45;&gt;Node37 -->
<g id="edge69" class="edge">
<title>Node35&#45;&gt;Node37</title>
<path fill="none" stroke="midnightblue" d="M696.53,-162.38C709.91,-152.62 727.06,-140.11 738.39,-131.83"/>
<polygon fill="midnightblue" stroke="midnightblue" points="694.4,-159.6 688.39,-168.32 698.53,-165.26 694.4,-159.6"/>
</g>
<!-- Node36&#45;&gt;Node11 -->
<g id="edge68" class="edge">
<title>Node36&#45;&gt;Node11</title>
<path fill="none" stroke="midnightblue" d="M812.24,-109.17C781.92,-99 738.93,-84.59 711.89,-75.52"/>
<polygon fill="midnightblue" stroke="midnightblue" points="811.4,-112.58 821.99,-112.44 813.62,-105.95 811.4,-112.58"/>
</g>
<!-- Node38&#45;&gt;Node12 -->
<g id="edge74" class="edge">
<title>Node38&#45;&gt;Node12</title>
<path fill="none" stroke="midnightblue" d="M143.28,-107.26C122.28,-94.44 98.48,-74.54 112.5,-56 128.51,-34.83 204.41,-20.76 245.29,-14.58"/>
<polygon fill="midnightblue" stroke="midnightblue" points="141.58,-110.32 151.99,-112.3 145.09,-104.27 141.58,-110.32"/>
</g>
<!-- Node38&#45;&gt;Node16 -->
<g id="edge77" class="edge">
<title>Node38&#45;&gt;Node16</title>
<path fill="none" stroke="midnightblue" d="M194.83,-107.59C213.69,-97.61 238.88,-84.27 255.15,-75.65"/>
<polygon fill="midnightblue" stroke="midnightblue" points="193.09,-104.55 185.89,-112.32 196.36,-110.74 193.09,-104.55"/>
</g>
<!-- Node39 -->
<g id="node39" class="node">
<title>Node39</title>
<g id="a_node39"><a xlink:href="vof__advection_8_h.html" target="_top" xlink:title=" ">
<polygon fill="white" stroke="black" points="121.5,-56.5 121.5,-75.5 217.5,-75.5 217.5,-56.5 121.5,-56.5"/>
<text text-anchor="middle" x="169.5" y="-63.5" font-family="Helvetica,sans-Serif" font-size="10.00">vof_advection.H</text>
</a>
</g>
</g>
<!-- Node38&#45;&gt;Node39 -->
<g id="edge75" class="edge">
<title>Node38&#45;&gt;Node39</title>
<path fill="none" stroke="midnightblue" d="M169.5,-101.8C169.5,-92.91 169.5,-82.78 169.5,-75.75"/>
<polygon fill="midnightblue" stroke="midnightblue" points="166,-102.08 169.5,-112.08 173,-102.08 166,-102.08"/>
</g>
<!-- Node40 -->
<g id="node40" class="node">
<title>Node40</title>
<g id="a_node40"><a xlink:href="vof__ops_8_h.html" target="_top" xlink:title=" ">
<polygon fill="white" stroke="black" points="0,-56.5 0,-75.5 65,-75.5 65,-56.5 0,-56.5"/>
<text text-anchor="middle" x="32.5" y="-63.5" font-family="Helvetica,sans-Serif" font-size="10.00">vof_ops.H</text>
</a>
</g>
</g>
<!-- Node38&#45;&gt;Node40 -->
<g id="edge78" class="edge">
<title>Node38&#45;&gt;Node40</title>
<path fill="none" stroke="midnightblue" d="M138.77,-108.89C113.09,-98.77 77.11,-84.59 54.31,-75.6"/>
<polygon fill="midnightblue" stroke="midnightblue" points="137.81,-112.27 148.39,-112.68 140.37,-105.76 137.81,-112.27"/>
</g>
<!-- Node39&#45;&gt;Node12 -->
<g id="edge76" class="edge">
<title>Node39&#45;&gt;Node12</title>
<path fill="none" stroke="midnightblue" d="M194.83,-51.59C213.69,-41.61 238.88,-28.27 255.15,-19.65"/>
<polygon fill="midnightblue" stroke="midnightblue" points="193.09,-48.55 185.89,-56.32 196.36,-54.74 193.09,-48.55"/>
</g>
<!-- Node40&#45;&gt;Node12 -->
<g id="edge79" class="edge">
<title>Node40&#45;&gt;Node12</title>
<path fill="none" stroke="midnightblue" d="M75.29,-55.33C124.71,-44.17 204.45,-26.15 245.4,-16.9"/>
<polygon fill="midnightblue" stroke="midnightblue" points="74.21,-51.99 65.23,-57.6 75.76,-58.81 74.21,-51.99"/>
</g>
<!-- Node41&#45;&gt;Node7 -->
<g id="edge83" class="edge">
<title>Node41&#45;&gt;Node7</title>
<path fill="none" stroke="midnightblue" d="M1610.52,-270.29C1613.34,-256.66 1618.52,-238.18 1627.5,-224 1671.21,-155.01 1753.03,-97.14 1785.6,-75.8"/>
<polygon fill="midnightblue" stroke="midnightblue" points="1607.02,-269.93 1608.66,-280.4 1613.91,-271.19 1607.02,-269.93"/>
</g>
<!-- Node41&#45;&gt;Node21 -->
<g id="edge84" class="edge">
<title>Node41&#45;&gt;Node21</title>
<path fill="none" stroke="midnightblue" d="M1552.83,-283.07C1444.9,-271.37 1208.36,-245.72 1133.03,-237.55"/>
<polygon fill="midnightblue" stroke="midnightblue" points="1552.55,-286.56 1562.87,-284.16 1553.3,-279.6 1552.55,-286.56"/>
</g>
<!-- Node41&#45;&gt;Node25 -->
<g id="edge82" class="edge">
<title>Node41&#45;&gt;Node25</title>
<path fill="none" stroke="midnightblue" d="M1661.99,-278.22C1688.4,-271.28 1719.69,-260.41 1744.5,-244 1817.4,-195.77 1876.73,-104.49 1894.24,-75.83"/>
<polygon fill="midnightblue" stroke="midnightblue" points="1660.97,-274.87 1652.12,-280.69 1662.68,-281.66 1660.97,-274.87"/>
</g>
<!-- Node42 -->
<g id="node42" class="node">
<title>Node42</title>
<g id="a_node42"><a xlink:href="_diffusion_ops_8cpp.html" target="_top" xlink:title=" ">
<polygon fill="white" stroke="black" points="1636,-224.5 1636,-243.5 1735,-243.5 1735,-224.5 1636,-224.5"/>
<text text-anchor="middle" x="1685.5" y="-231.5" font-family="Helvetica,sans-Serif" font-size="10.00">DiffusionOps.cpp</text>
</a>
</g>
</g>
<!-- Node41&#45;&gt;Node42 -->
<g id="edge81" class="edge">
<title>Node41&#45;&gt;Node42</title>
<path fill="none" stroke="midnightblue" d="M1628.27,-274.62C1642.52,-264.76 1660.96,-251.99 1673,-243.65"/>
<polygon fill="midnightblue" stroke="midnightblue" points="1626.26,-271.75 1620.03,-280.32 1630.25,-277.51 1626.26,-271.75"/>
</g>
</g>
</svg>
