<?xml version="1.0" encoding="UTF-8" standalone="no"?>
<!DOCTYPE svg PUBLIC "-//W3C//DTD SVG 1.1//EN"
 "http://www.w3.org/Graphics/SVG/1.1/DTD/svg11.dtd">
<!-- Generated by graphviz version 2.43.0 (0)
 -->
<!-- Title: PDEBase.H Pages: 1 -->
<!--zoomable 196 -->
<svg id="main" version="1.1" xmlns="http://www.w3.org/2000/svg" xmlns:xlink="http://www.w3.org/1999/xlink" xml:space="preserve" onload="init(evt)">
<style type="text/css"><![CDATA[
.edge:hover path { stroke: red; }
.edge:hover polygon { stroke: red; fill: red; }
]]></style>
<script type="text/javascript"><![CDATA[
var edges = document.getElementsByTagName('g');
if (edges && edges.length) {
  for (var i=0;i<edges.length;i++) {
    if (edges[i].id.substr(0,4)=='edge') {
      edges[i].setAttribute('class','edge');
    }
  }
}
]]></script>
        <defs>
                <circle id="rim" cx="0" cy="0" r="7"/>
                <circle id="rim2" cx="0" cy="0" r="3.5"/>
                <g id="zoomPlus">
                        <use xlink:href="#rim" fill="#404040">
                                <set attributeName="fill" to="#808080" begin="zoomplus.mouseover" end="zoomplus.mouseout"/>
                        </use>
                        <path d="M-4,0h8M0,-4v8" fill="none" stroke="white" stroke-width="1.5" pointer-events="none"/>
                </g>
                <g id="zoomMin">
                        <use xlink:href="#rim" fill="#404040">
                                <set attributeName="fill" to="#808080" begin="zoomminus.mouseover" end="zoomminus.mouseout"/>
                        </use>
                        <path d="M-4,0h8" fill="none" stroke="white" stroke-width="1.5" pointer-events="none"/>
                </g>
                <g id="dirArrow">
                        <path fill="none" stroke="white" stroke-width="1.5" d="M0,-3.0v7 M-2.5,-0.5L0,-3.0L2.5,-0.5"/>
                </g>
               <g id="resetDef">
                       <use xlink:href="#rim2" fill="#404040">
                               <set attributeName="fill" to="#808080" begin="reset.mouseover" end="reset.mouseout"/>
                       </use>
               </g>
        </defs>

<script type="text/javascript">
var viewWidth = 4780;
var viewHeight = 196;
var sectionId = 'dynsection-1';
</script>
<script xlink:href="svgpan.js"/>
<svg id="graph" class="graph">
<g id="viewport">
<title>PDEBase.H</title>
<polygon fill="white" stroke="transparent" points="-4,4 -4,-192 4775.78,-192 4775.78,4 -4,4"/>
<!-- Node1 -->
<g id="node1" class="node">
<title>Node1</title>
<g id="a_node1"><a xlink:title=" ">
<polygon fill="#bfbfbf" stroke="black" points="4364.28,-168.5 4364.28,-187.5 4435.28,-187.5 4435.28,-168.5 4364.28,-168.5"/>
<text text-anchor="middle" x="4399.78" y="-175.5" font-family="Helvetica,sans-Serif" font-size="10.00">PDEBase.H</text>
</a>
</g>
</g>
<!-- Node2 -->
<g id="node2" class="node">
<title>Node2</title>
<g id="a_node2"><a xlink:href="_c_f_d_sim_8_h.html" target="_top" xlink:title=" ">
<polygon fill="white" stroke="red" points="2158.78,-112.5 2158.78,-131.5 2224.78,-131.5 2224.78,-112.5 2158.78,-112.5"/>
<text text-anchor="middle" x="2191.78" y="-119.5" font-family="Helvetica,sans-Serif" font-size="10.00">CFDSim.H</text>
</a>
</g>
</g>
<!-- Node1&#45;&gt;Node2 -->
<g id="edge1" class="edge">
<title>Node1&#45;&gt;Node2</title>
<path fill="none" stroke="midnightblue" d="M4354.02,-175.88C4063.09,-168.77 2475.68,-129.94 2225.1,-123.81"/>
<polygon fill="midnightblue" stroke="midnightblue" points="4354.12,-179.38 4364.21,-176.13 4354.29,-172.39 4354.12,-179.38"/>
</g>
<!-- Node16 -->
<g id="node16" class="node">
<title>Node16</title>
<g id="a_node16"><a xlink:href="_p_d_e_8_h.html" target="_top" xlink:title=" ">
<polygon fill="white" stroke="red" points="124.28,-0.5 124.28,-19.5 171.28,-19.5 171.28,-0.5 124.28,-0.5"/>
<text text-anchor="middle" x="147.78" y="-7.5" font-family="Helvetica,sans-Serif" font-size="10.00">PDE.H</text>
</a>
</g>
</g>
<!-- Node1&#45;&gt;Node16 -->
<g id="edge53" class="edge">
<title>Node1&#45;&gt;Node16</title>
<path fill="none" stroke="midnightblue" d="M4354.07,-176.95C3978.9,-176.47 1401.76,-171.72 625.78,-132 488.07,-124.95 100.79,-177.81 7.78,-76 -28,-36.83 75.32,-19.37 123.97,-13.47"/>
<polygon fill="midnightblue" stroke="midnightblue" points="4354.27,-180.45 4364.27,-176.96 4354.28,-173.45 4354.27,-180.45"/>
</g>
<!-- Node48 -->
<g id="node17" class="node">
<title>Node48</title>
<g id="a_node17"><a xlink:href="_p_d_e_base_8cpp.html" target="_top" xlink:title=" ">
<polygon fill="white" stroke="black" points="16.78,-56.5 16.78,-75.5 96.78,-75.5 96.78,-56.5 16.78,-56.5"/>
<text text-anchor="middle" x="56.78" y="-63.5" font-family="Helvetica,sans-Serif" font-size="10.00">PDEBase.cpp</text>
</a>
</g>
</g>
<!-- Node1&#45;&gt;Node48 -->
<g id="edge54" class="edge">
<title>Node1&#45;&gt;Node48</title>
<path fill="none" stroke="midnightblue" d="M4354.15,-176.95C3950.86,-176.34 989.75,-168.73 105.78,-76 102.86,-75.69 99.85,-75.31 96.82,-74.87"/>
<polygon fill="midnightblue" stroke="midnightblue" points="4354.27,-180.45 4364.27,-176.96 4354.28,-173.45 4354.27,-180.45"/>
</g>
<!-- Node77 -->
<g id="node26" class="node">
<title>Node77</title>
<g id="a_node26"><a xlink:href="incflo_8cpp.html" target="_top" xlink:title=" ">
<polygon fill="white" stroke="black" points="4197.28,-0.5 4197.28,-19.5 4260.28,-19.5 4260.28,-0.5 4197.28,-0.5"/>
<text text-anchor="middle" x="4228.78" y="-7.5" font-family="Helvetica,sans-Serif" font-size="10.00">incflo.cpp</text>
</a>
</g>
</g>
<!-- Node1&#45;&gt;Node77 -->
<g id="edge55" class="edge">
<title>Node1&#45;&gt;Node77</title>
<path fill="none" stroke="midnightblue" d="M4395.88,-158.19C4389.27,-128.01 4375.19,-70.65 4360.78,-56 4334.04,-28.81 4290.24,-18.04 4260.49,-13.78"/>
<polygon fill="midnightblue" stroke="midnightblue" points="4392.52,-159.23 4398.03,-168.28 4399.37,-157.77 4392.52,-159.23"/>
</g>
<!-- Node78 -->
<g id="node27" class="node">
<title>Node78</title>
<g id="a_node27"><a xlink:href="incflo__advance_8cpp.html" target="_top" xlink:title=" ">
<polygon fill="white" stroke="black" points="4334.78,-0.5 4334.78,-19.5 4444.78,-19.5 4444.78,-0.5 4334.78,-0.5"/>
<text text-anchor="middle" x="4389.78" y="-7.5" font-family="Helvetica,sans-Serif" font-size="10.00">incflo_advance.cpp</text>
</a>
</g>
</g>
<!-- Node1&#45;&gt;Node78 -->
<g id="edge56" class="edge">
<title>Node1&#45;&gt;Node78</title>
<path fill="none" stroke="midnightblue" d="M4399.41,-158.42C4398.85,-134.65 4397.54,-92.21 4394.78,-56 4393.82,-43.3 4392.07,-28.66 4390.92,-19.61"/>
<polygon fill="midnightblue" stroke="midnightblue" points="4395.92,-158.56 4399.63,-168.48 4402.91,-158.41 4395.92,-158.56"/>
</g>
<!-- Node96 -->
<g id="node30" class="node">
<title>Node96</title>
<g id="a_node30"><a xlink:href="_tioga_interface_8cpp.html" target="_top" xlink:title=" ">
<polygon fill="white" stroke="black" points="4245.28,-56.5 4245.28,-75.5 4352.28,-75.5 4352.28,-56.5 4245.28,-56.5"/>
<text text-anchor="middle" x="4298.78" y="-63.5" font-family="Helvetica,sans-Serif" font-size="10.00">TiogaInterface.cpp</text>
</a>
</g>
</g>
<!-- Node1&#45;&gt;Node96 -->
<g id="edge57" class="edge">
<title>Node1&#45;&gt;Node96</title>
<path fill="none" stroke="midnightblue" d="M4385,-160.9C4363.28,-137.25 4323.53,-93.95 4306.67,-75.59"/>
<polygon fill="midnightblue" stroke="midnightblue" points="4382.52,-163.37 4391.86,-168.37 4387.67,-158.64 4382.52,-163.37"/>
</g>
<!-- Node42 -->
<g id="node47" class="node">
<title>Node42</title>
<g id="a_node47"><a xlink:href="_one_eq_ksgs_8cpp.html" target="_top" xlink:title=" ">
<polygon fill="white" stroke="black" points="4446.78,-112.5 4446.78,-131.5 4538.78,-131.5 4538.78,-112.5 4446.78,-112.5"/>
<text text-anchor="middle" x="4492.78" y="-119.5" font-family="Helvetica,sans-Serif" font-size="10.00">OneEqKsgs.cpp</text>
</a>
</g>
</g>
<!-- Node1&#45;&gt;Node42 -->
<g id="edge58" class="edge">
<title>Node1&#45;&gt;Node42</title>
<path fill="none" stroke="midnightblue" d="M4423.59,-163.18C4440.7,-153.24 4463.25,-140.15 4477.88,-131.65"/>
<polygon fill="midnightblue" stroke="midnightblue" points="4421.61,-160.28 4414.72,-168.32 4425.13,-166.33 4421.61,-160.28"/>
</g>
<!-- Node34 -->
<g id="node48" class="node">
<title>Node34</title>
<g id="a_node48"><a xlink:href="_k_omega_s_s_t_8cpp.html" target="_top" xlink:title=" ">
<polygon fill="white" stroke="black" points="4524.28,-56.5 4524.28,-75.5 4619.28,-75.5 4619.28,-56.5 4524.28,-56.5"/>
<text text-anchor="middle" x="4571.78" y="-63.5" font-family="Helvetica,sans-Serif" font-size="10.00">KOmegaSST.cpp</text>
</a>
</g>
</g>
<!-- Node1&#45;&gt;Node34 -->
<g id="edge59" class="edge">
<title>Node1&#45;&gt;Node34</title>
<path fill="none" stroke="midnightblue" d="M4445.41,-173.71C4477.74,-169.1 4520.1,-158.1 4547.78,-132 4563.88,-116.81 4569.24,-89.88 4570.98,-75.93"/>
<polygon fill="midnightblue" stroke="midnightblue" points="4444.78,-170.26 4435.3,-174.99 4445.66,-177.21 4444.78,-170.26"/>
</g>
<!-- Node35 -->
<g id="node49" class="node">
<title>Node35</title>
<g id="a_node49"><a xlink:href="_k_omega_s_s_t_i_8_h.html" target="_top" xlink:title=" ">
<polygon fill="white" stroke="black" points="4595.28,-112.5 4595.28,-131.5 4684.28,-131.5 4684.28,-112.5 4595.28,-112.5"/>
<text text-anchor="middle" x="4639.78" y="-119.5" font-family="Helvetica,sans-Serif" font-size="10.00">KOmegaSSTI.H</text>
</a>
</g>
</g>
<!-- Node1&#45;&gt;Node35 -->
<g id="edge60" class="edge">
<title>Node1&#45;&gt;Node35</title>
<path fill="none" stroke="midnightblue" d="M4445.32,-166.75C4490.67,-156.55 4559.49,-141.07 4601.93,-131.52"/>
<polygon fill="midnightblue" stroke="midnightblue" points="4444.44,-163.36 4435.45,-168.97 4445.98,-170.19 4444.44,-163.36"/>
</g>
<!-- Node36 -->
<g id="node50" class="node">
<title>Node36</title>
<g id="a_node50"><a xlink:href="_k_omega_s_s_t_i_d_d_e_s_8cpp.html" target="_top" xlink:title=" ">
<polygon fill="white" stroke="black" points="4645.78,-56.5 4645.78,-75.5 4771.78,-75.5 4771.78,-56.5 4645.78,-56.5"/>
<text text-anchor="middle" x="4708.78" y="-63.5" font-family="Helvetica,sans-Serif" font-size="10.00">KOmegaSSTIDDES.cpp</text>
</a>
</g>
</g>
<!-- Node1&#45;&gt;Node36 -->
<g id="edge63" class="edge">
<title>Node1&#45;&gt;Node36</title>
<path fill="none" stroke="midnightblue" d="M4445.77,-175.99C4519.01,-173.41 4657.49,-164.28 4692.78,-132 4708.73,-117.41 4709.95,-89.71 4709.42,-75.65"/>
<polygon fill="midnightblue" stroke="midnightblue" points="4445.34,-172.5 4435.46,-176.32 4445.56,-179.5 4445.34,-172.5"/>
</g>
<!-- Node3 -->
<g id="node3" class="node">
<title>Node3</title>
<g id="a_node3"><a xlink:href="_c_f_d_sim_8cpp.html" target="_top" xlink:title=" ">
<polygon fill="white" stroke="black" points="1575.78,-56.5 1575.78,-75.5 1651.78,-75.5 1651.78,-56.5 1575.78,-56.5"/>
<text text-anchor="middle" x="1613.78" y="-63.5" font-family="Helvetica,sans-Serif" font-size="10.00">CFDSim.cpp</text>
</a>
</g>
</g>
<!-- Node2&#45;&gt;Node3 -->
<g id="edge2" class="edge">
<title>Node2&#45;&gt;Node3</title>
<path fill="none" stroke="midnightblue" d="M2148.65,-118.57C2058.65,-113.23 1844.37,-99.05 1665.78,-76 1661.33,-75.43 1656.68,-74.74 1652.06,-74.01"/>
<polygon fill="midnightblue" stroke="midnightblue" points="2148.56,-122.07 2158.75,-119.16 2148.97,-115.08 2148.56,-122.07"/>
</g>
<!-- Node4 -->
<g id="node4" class="node">
<title>Node4</title>
<g id="a_node4"><a xlink:href="_mesh_map_8cpp.html" target="_top" xlink:title=" ">
<polygon fill="white" stroke="black" points="2097.78,-56.5 2097.78,-75.5 2181.78,-75.5 2181.78,-56.5 2097.78,-56.5"/>
<text text-anchor="middle" x="2139.78" y="-63.5" font-family="Helvetica,sans-Serif" font-size="10.00">MeshMap.cpp</text>
</a>
</g>
</g>
<!-- Node2&#45;&gt;Node4 -->
<g id="edge3" class="edge">
<title>Node2&#45;&gt;Node4</title>
<path fill="none" stroke="midnightblue" d="M2176.1,-104.72C2166.94,-95.2 2155.73,-83.56 2148.21,-75.75"/>
<polygon fill="midnightblue" stroke="midnightblue" points="2173.74,-107.31 2183.2,-112.08 2178.78,-102.45 2173.74,-107.31"/>
</g>
<!-- Node5 -->
<g id="node5" class="node">
<title>Node5</title>
<g id="a_node5"><a xlink:href="_a_b_l_forcing_8cpp.html" target="_top" xlink:title=" ">
<polygon fill="white" stroke="black" points="3405.28,-56.5 3405.28,-75.5 3496.28,-75.5 3496.28,-56.5 3405.28,-56.5"/>
<text text-anchor="middle" x="3450.78" y="-63.5" font-family="Helvetica,sans-Serif" font-size="10.00">ABLForcing.cpp</text>
</a>
</g>
</g>
<!-- Node2&#45;&gt;Node5 -->
<g id="edge4" class="edge">
<title>Node2&#45;&gt;Node5</title>
<path fill="none" stroke="midnightblue" d="M2235.09,-121.33C2391.76,-122.11 2943.6,-121.27 3395.78,-76 3398.86,-75.69 3402.03,-75.32 3405.22,-74.9"/>
<polygon fill="midnightblue" stroke="midnightblue" points="2234.94,-117.83 2224.92,-121.27 2234.9,-124.83 2234.94,-117.83"/>
</g>
<!-- Node6 -->
<g id="node6" class="node">
<title>Node6</title>
<g id="a_node6"><a xlink:href="_a_b_l_mean_boussinesq_8cpp.html" target="_top" xlink:title=" ">
<polygon fill="white" stroke="black" points="3514.78,-56.5 3514.78,-75.5 3652.78,-75.5 3652.78,-56.5 3514.78,-56.5"/>
<text text-anchor="middle" x="3583.78" y="-63.5" font-family="Helvetica,sans-Serif" font-size="10.00">ABLMeanBoussinesq.cpp</text>
</a>
</g>
</g>
<!-- Node2&#45;&gt;Node6 -->
<g id="edge5" class="edge">
<title>Node2&#45;&gt;Node6</title>
<path fill="none" stroke="midnightblue" d="M2235.05,-120.76C2400.21,-119.58 3006.77,-112.84 3504.78,-76 3507.95,-75.77 3511.18,-75.5 3514.45,-75.21"/>
<polygon fill="midnightblue" stroke="midnightblue" points="2234.79,-117.26 2224.81,-120.83 2234.84,-124.26 2234.79,-117.26"/>
</g>
<!-- Node7 -->
<g id="node7" class="node">
<title>Node7</title>
<g id="a_node7"><a xlink:href="_actuator_forcing_8cpp.html" target="_top" xlink:title=" ">
<polygon fill="white" stroke="black" points="3671.28,-56.5 3671.28,-75.5 3784.28,-75.5 3784.28,-56.5 3671.28,-56.5"/>
<text text-anchor="middle" x="3727.78" y="-63.5" font-family="Helvetica,sans-Serif" font-size="10.00">ActuatorForcing.cpp</text>
</a>
</g>
</g>
<!-- Node2&#45;&gt;Node7 -->
<g id="edge6" class="edge">
<title>Node2&#45;&gt;Node7</title>
<path fill="none" stroke="midnightblue" d="M2235.2,-121.33C2412.59,-122.34 3099.49,-122.81 3661.78,-76 3664.78,-75.75 3667.85,-75.46 3670.94,-75.14"/>
<polygon fill="midnightblue" stroke="midnightblue" points="2235,-117.83 2224.97,-121.27 2234.95,-124.83 2235,-117.83"/>
</g>
<!-- Node8 -->
<g id="node8" class="node">
<title>Node8</title>
<g id="a_node8"><a xlink:href="_body_force_8cpp.html" target="_top" xlink:title=" ">
<polygon fill="white" stroke="black" points="3802.78,-56.5 3802.78,-75.5 3890.78,-75.5 3890.78,-56.5 3802.78,-56.5"/>
<text text-anchor="middle" x="3846.78" y="-63.5" font-family="Helvetica,sans-Serif" font-size="10.00">BodyForce.cpp</text>
</a>
</g>
</g>
<!-- Node2&#45;&gt;Node8 -->
<g id="edge7" class="edge">
<title>Node2&#45;&gt;Node8</title>
<path fill="none" stroke="midnightblue" d="M2235.12,-120.59C2458.1,-118.33 3477.93,-106.52 3792.78,-76 3796,-75.69 3799.31,-75.3 3802.64,-74.86"/>
<polygon fill="midnightblue" stroke="midnightblue" points="2234.77,-117.09 2224.81,-120.69 2234.84,-124.09 2234.77,-117.09"/>
</g>
<!-- Node9 -->
<g id="node9" class="node">
<title>Node9</title>
<g id="a_node9"><a xlink:href="_boussinesq_buoyancy_8cpp.html" target="_top" xlink:title=" ">
<polygon fill="white" stroke="black" points="3909.28,-56.5 3909.28,-75.5 4048.28,-75.5 4048.28,-56.5 3909.28,-56.5"/>
<text text-anchor="middle" x="3978.78" y="-63.5" font-family="Helvetica,sans-Serif" font-size="10.00">BoussinesqBuoyancy.cpp</text>
</a>
</g>
</g>
<!-- Node2&#45;&gt;Node9 -->
<g id="edge8" class="edge">
<title>Node2&#45;&gt;Node9</title>
<path fill="none" stroke="midnightblue" d="M2235.05,-121.25C2429.03,-122.05 3238.03,-122.32 3899.78,-76 3902.81,-75.79 3905.9,-75.55 3909.03,-75.28"/>
<polygon fill="midnightblue" stroke="midnightblue" points="2234.98,-117.75 2224.97,-121.2 2234.95,-124.75 2234.98,-117.75"/>
</g>
<!-- Node10 -->
<g id="node10" class="node">
<title>Node10</title>
<g id="a_node10"><a xlink:href="_coriolis_forcing_8cpp.html" target="_top" xlink:title=" ">
<polygon fill="white" stroke="black" points="198.28,-56.5 198.28,-75.5 307.28,-75.5 307.28,-56.5 198.28,-56.5"/>
<text text-anchor="middle" x="252.78" y="-63.5" font-family="Helvetica,sans-Serif" font-size="10.00">CoriolisForcing.cpp</text>
</a>
</g>
</g>
<!-- Node2&#45;&gt;Node10 -->
<g id="edge9" class="edge">
<title>Node2&#45;&gt;Node10</title>
<path fill="none" stroke="midnightblue" d="M2148.29,-120.65C1902.84,-118.6 688.68,-107 315.78,-76 313.03,-75.77 310.21,-75.5 307.37,-75.2"/>
<polygon fill="midnightblue" stroke="midnightblue" points="2148.56,-124.16 2158.59,-120.74 2148.62,-117.16 2148.56,-124.16"/>
</g>
<!-- Node11 -->
<g id="node11" class="node">
<title>Node11</title>
<g id="a_node11"><a xlink:href="_density_buoyancy_8cpp.html" target="_top" xlink:title=" ">
<polygon fill="white" stroke="black" points="325.28,-56.5 325.28,-75.5 446.28,-75.5 446.28,-56.5 325.28,-56.5"/>
<text text-anchor="middle" x="385.78" y="-63.5" font-family="Helvetica,sans-Serif" font-size="10.00">DensityBuoyancy.cpp</text>
</a>
</g>
</g>
<!-- Node2&#45;&gt;Node11 -->
<g id="edge10" class="edge">
<title>Node2&#45;&gt;Node11</title>
<path fill="none" stroke="midnightblue" d="M2148.57,-120.49C1914.75,-117.64 798.74,-102.81 454.78,-76 452.01,-75.78 449.18,-75.53 446.33,-75.26"/>
<polygon fill="midnightblue" stroke="midnightblue" points="2148.68,-123.99 2158.72,-120.61 2148.77,-116.99 2148.68,-123.99"/>
</g>
<!-- Node12 -->
<g id="node12" class="node">
<title>Node12</title>
<g id="a_node12"><a xlink:href="_geostrophic_forcing_8cpp.html" target="_top" xlink:title=" ">
<polygon fill="white" stroke="black" points="464.28,-56.5 464.28,-75.5 595.28,-75.5 595.28,-56.5 464.28,-56.5"/>
<text text-anchor="middle" x="529.78" y="-63.5" font-family="Helvetica,sans-Serif" font-size="10.00">GeostrophicForcing.cpp</text>
</a>
</g>
</g>
<!-- Node2&#45;&gt;Node12 -->
<g id="edge11" class="edge">
<title>Node2&#45;&gt;Node12</title>
<path fill="none" stroke="midnightblue" d="M2148.62,-121.22C1963.22,-121.84 1216.2,-121.26 604.78,-76 601.77,-75.78 598.7,-75.52 595.6,-75.24"/>
<polygon fill="midnightblue" stroke="midnightblue" points="2148.79,-124.72 2158.77,-121.18 2148.76,-117.72 2148.79,-124.72"/>
</g>
<!-- Node13 -->
<g id="node13" class="node">
<title>Node13</title>
<g id="a_node13"><a xlink:href="_gravity_forcing_8cpp.html" target="_top" xlink:title=" ">
<polygon fill="white" stroke="black" points="613.78,-56.5 613.78,-75.5 721.78,-75.5 721.78,-56.5 613.78,-56.5"/>
<text text-anchor="middle" x="667.78" y="-63.5" font-family="Helvetica,sans-Serif" font-size="10.00">GravityForcing.cpp</text>
</a>
</g>
</g>
<!-- Node2&#45;&gt;Node13 -->
<g id="edge12" class="edge">
<title>Node2&#45;&gt;Node13</title>
<path fill="none" stroke="midnightblue" d="M2148.33,-121.42C1971.53,-122.76 1289.17,-124.33 730.78,-76 727.92,-75.75 724.99,-75.46 722.03,-75.14"/>
<polygon fill="midnightblue" stroke="midnightblue" points="2148.55,-124.92 2158.52,-121.34 2148.49,-117.92 2148.55,-124.92"/>
</g>
<!-- Node14 -->
<g id="node14" class="node">
<title>Node14</title>
<g id="a_node14"><a xlink:href="_hurricane_forcing_8cpp.html" target="_top" xlink:title=" ">
<polygon fill="white" stroke="black" points="740.28,-56.5 740.28,-75.5 859.28,-75.5 859.28,-56.5 740.28,-56.5"/>
<text text-anchor="middle" x="799.78" y="-63.5" font-family="Helvetica,sans-Serif" font-size="10.00">HurricaneForcing.cpp</text>
</a>
</g>
</g>
<!-- Node2&#45;&gt;Node14 -->
<g id="edge13" class="edge">
<title>Node2&#45;&gt;Node14</title>
<path fill="none" stroke="midnightblue" d="M2148.45,-121.03C1982.35,-120.83 1370.55,-117.16 868.78,-76 865.77,-75.75 862.69,-75.47 859.58,-75.16"/>
<polygon fill="midnightblue" stroke="midnightblue" points="2148.73,-124.53 2158.73,-121.04 2148.74,-117.53 2148.73,-124.53"/>
</g>
<!-- Node15 -->
<g id="node15" class="node">
<title>Node15</title>
<g id="a_node15"><a xlink:href="_synth_turb_forcing_8cpp.html" target="_top" xlink:title=" ">
<polygon fill="white" stroke="black" points="877.78,-56.5 877.78,-75.5 997.78,-75.5 997.78,-56.5 877.78,-56.5"/>
<text text-anchor="middle" x="937.78" y="-63.5" font-family="Helvetica,sans-Serif" font-size="10.00">SynthTurbForcing.cpp</text>
</a>
</g>
</g>
<!-- Node2&#45;&gt;Node15 -->
<g id="edge14" class="edge">
<title>Node2&#45;&gt;Node15</title>
<path fill="none" stroke="midnightblue" d="M2148.35,-120.64C1993.61,-119.09 1454.77,-111.32 1011.78,-76 1007.27,-75.64 1002.6,-75.21 997.92,-74.74"/>
<polygon fill="midnightblue" stroke="midnightblue" points="2148.37,-124.14 2158.4,-120.74 2148.44,-117.14 2148.37,-124.14"/>
</g>
<!-- Node2&#45;&gt;Node16 -->
<g id="edge15" class="edge">
<title>Node2&#45;&gt;Node16</title>
<path fill="none" stroke="midnightblue" d="M2148.53,-120.43C1952.55,-117.72 1152.76,-104.94 1044.78,-76 1026.35,-71.06 1025.18,-61.06 1006.78,-56 843.17,-11 293.14,-10.43 171.66,-10.87"/>
<polygon fill="midnightblue" stroke="midnightblue" points="2148.68,-123.94 2158.73,-120.57 2148.77,-116.94 2148.68,-123.94"/>
</g>
<!-- Node2&#45;&gt;Node48 -->
<g id="edge16" class="edge">
<title>Node2&#45;&gt;Node48</title>
<path fill="none" stroke="midnightblue" d="M2148.5,-120.48C1868.27,-117.08 315.48,-97.38 105.78,-76 102.86,-75.7 99.84,-75.32 96.82,-74.89"/>
<polygon fill="midnightblue" stroke="midnightblue" points="2148.64,-123.99 2158.68,-120.61 2148.72,-116.99 2148.64,-123.99"/>
</g>
<!-- Node49 -->
<g id="node18" class="node">
<title>Node49</title>
<g id="a_node18"><a xlink:href="_p_d_e_ops_8_h.html" target="_top" xlink:title=" ">
<polygon fill="white" stroke="red" points="115.28,-56.5 115.28,-75.5 180.28,-75.5 180.28,-56.5 115.28,-56.5"/>
<text text-anchor="middle" x="147.78" y="-63.5" font-family="Helvetica,sans-Serif" font-size="10.00">PDEOps.H</text>
</a>
</g>
</g>
<!-- Node2&#45;&gt;Node49 -->
<g id="edge17" class="edge">
<title>Node2&#45;&gt;Node49</title>
<path fill="none" stroke="midnightblue" d="M2148.08,-120.53C1873.28,-117.48 389.22,-100.02 188.78,-76 186.03,-75.67 183.2,-75.24 180.36,-74.75"/>
<polygon fill="midnightblue" stroke="midnightblue" points="2148.4,-124.03 2158.44,-120.64 2148.48,-117.03 2148.4,-124.03"/>
</g>
<!-- Node59 -->
<g id="node19" class="node">
<title>Node59</title>
<g id="a_node19"><a xlink:href="_s_d_r_src_8cpp.html" target="_top" xlink:title=" ">
<polygon fill="white" stroke="black" points="1053.78,-56.5 1053.78,-75.5 1125.78,-75.5 1125.78,-56.5 1053.78,-56.5"/>
<text text-anchor="middle" x="1089.78" y="-63.5" font-family="Helvetica,sans-Serif" font-size="10.00">SDRSrc.cpp</text>
</a>
</g>
</g>
<!-- Node2&#45;&gt;Node59 -->
<g id="edge19" class="edge">
<title>Node2&#45;&gt;Node59</title>
<path fill="none" stroke="midnightblue" d="M2148.55,-121.55C2004.25,-122.88 1526.16,-123.18 1134.78,-76 1131.93,-75.66 1129,-75.23 1126.05,-74.76"/>
<polygon fill="midnightblue" stroke="midnightblue" points="2148.79,-125.05 2158.75,-121.45 2148.72,-118.05 2148.79,-125.05"/>
</g>
<!-- Node60 -->
<g id="node20" class="node">
<title>Node60</title>
<g id="a_node20"><a xlink:href="_ksgs_m84_src_8cpp.html" target="_top" xlink:title=" ">
<polygon fill="white" stroke="black" points="1143.78,-56.5 1143.78,-75.5 1239.78,-75.5 1239.78,-56.5 1143.78,-56.5"/>
<text text-anchor="middle" x="1191.78" y="-63.5" font-family="Helvetica,sans-Serif" font-size="10.00">KsgsM84Src.cpp</text>
</a>
</g>
</g>
<!-- Node2&#45;&gt;Node60 -->
<g id="edge20" class="edge">
<title>Node2&#45;&gt;Node60</title>
<path fill="none" stroke="midnightblue" d="M2148.44,-120.61C2014.34,-119.04 1594.46,-111.43 1248.78,-76 1245.89,-75.7 1242.93,-75.36 1239.94,-74.98"/>
<polygon fill="midnightblue" stroke="midnightblue" points="2148.66,-124.11 2158.69,-120.72 2148.73,-117.11 2148.66,-124.11"/>
</g>
<!-- Node61 -->
<g id="node21" class="node">
<title>Node61</title>
<g id="a_node21"><a xlink:href="_kw_s_s_t_src_8cpp.html" target="_top" xlink:title=" ">
<polygon fill="white" stroke="black" points="1258.28,-56.5 1258.28,-75.5 1343.28,-75.5 1343.28,-56.5 1258.28,-56.5"/>
<text text-anchor="middle" x="1300.78" y="-63.5" font-family="Helvetica,sans-Serif" font-size="10.00">KwSSTSrc.cpp</text>
</a>
</g>
</g>
<!-- Node2&#45;&gt;Node61 -->
<g id="edge21" class="edge">
<title>Node2&#45;&gt;Node61</title>
<path fill="none" stroke="midnightblue" d="M2148.24,-120.47C2023.77,-118.57 1655.95,-110.24 1352.78,-76 1349.69,-75.65 1346.5,-75.23 1343.29,-74.78"/>
<polygon fill="midnightblue" stroke="midnightblue" points="2148.44,-123.97 2158.49,-120.62 2148.54,-116.98 2148.44,-123.97"/>
</g>
<!-- Node62 -->
<g id="node22" class="node">
<title>Node62</title>
<g id="a_node22"><a xlink:href="helics_8_h.html" target="_top" xlink:title=" ">
<polygon fill="white" stroke="red" points="1361.78,-56.5 1361.78,-75.5 1417.78,-75.5 1417.78,-56.5 1361.78,-56.5"/>
<text text-anchor="middle" x="1389.78" y="-63.5" font-family="Helvetica,sans-Serif" font-size="10.00">helics.H</text>
</a>
</g>
</g>
<!-- Node2&#45;&gt;Node62 -->
<g id="edge22" class="edge">
<title>Node2&#45;&gt;Node62</title>
<path fill="none" stroke="midnightblue" d="M2148.33,-121.17C2030.02,-121.13 1693.34,-117.27 1417.78,-76 1416.87,-75.86 1415.94,-75.71 1415.01,-75.55"/>
<polygon fill="midnightblue" stroke="midnightblue" points="2148.44,-124.67 2158.44,-121.17 2148.43,-117.67 2148.44,-124.67"/>
</g>
<!-- Node64 -->
<g id="node23" class="node">
<title>Node64</title>
<g id="a_node23"><a xlink:href="_i_b_8cpp.html" target="_top" xlink:title=" ">
<polygon fill="white" stroke="black" points="1436.28,-56.5 1436.28,-75.5 1483.28,-75.5 1483.28,-56.5 1436.28,-56.5"/>
<text text-anchor="middle" x="1459.78" y="-63.5" font-family="Helvetica,sans-Serif" font-size="10.00">IB.cpp</text>
</a>
</g>
</g>
<!-- Node2&#45;&gt;Node64 -->
<g id="edge24" class="edge">
<title>Node2&#45;&gt;Node64</title>
<path fill="none" stroke="midnightblue" d="M2148.71,-121.24C2038.67,-121.19 1738.55,-116.99 1492.78,-76 1489.74,-75.49 1486.57,-74.82 1483.45,-74.07"/>
<polygon fill="midnightblue" stroke="midnightblue" points="2148.76,-124.74 2158.76,-121.23 2148.76,-117.74 2148.76,-124.74"/>
</g>
<!-- Node65 -->
<g id="node24" class="node">
<title>Node65</title>
<g id="a_node24"><a xlink:href="_i_b_ops_8_h.html" target="_top" xlink:title=" ">
<polygon fill="white" stroke="red" points="1501.78,-56.5 1501.78,-75.5 1557.78,-75.5 1557.78,-56.5 1501.78,-56.5"/>
<text text-anchor="middle" x="1529.78" y="-63.5" font-family="Helvetica,sans-Serif" font-size="10.00">IBOps.H</text>
</a>
</g>
</g>
<!-- Node2&#45;&gt;Node65 -->
<g id="edge25" class="edge">
<title>Node2&#45;&gt;Node65</title>
<path fill="none" stroke="midnightblue" d="M2148.48,-120.36C2046.51,-118.32 1783.48,-109.91 1566.78,-76 1563.91,-75.55 1560.93,-74.99 1557.97,-74.37"/>
<polygon fill="midnightblue" stroke="midnightblue" points="2148.63,-123.87 2158.7,-120.56 2148.77,-116.87 2148.63,-123.87"/>
</g>
<!-- Node75 -->
<g id="node25" class="node">
<title>Node75</title>
<g id="a_node25"><a xlink:href="incflo_8_h.html" target="_top" xlink:title=" ">
<polygon fill="white" stroke="red" points="4174.28,-56.5 4174.28,-75.5 4227.28,-75.5 4227.28,-56.5 4174.28,-56.5"/>
<text text-anchor="middle" x="4200.78" y="-63.5" font-family="Helvetica,sans-Serif" font-size="10.00">incflo.H</text>
</a>
</g>
</g>
<!-- Node2&#45;&gt;Node75 -->
<g id="edge26" class="edge">
<title>Node2&#45;&gt;Node75</title>
<path fill="none" stroke="midnightblue" d="M2235.03,-121.15C2487.08,-121.83 3768.82,-122.93 4159.78,-76 4164.41,-75.44 4169.29,-74.6 4174,-73.66"/>
<polygon fill="midnightblue" stroke="midnightblue" points="2234.82,-117.65 2224.81,-121.12 2234.8,-124.65 2234.82,-117.65"/>
</g>
<!-- Node87 -->
<g id="node28" class="node">
<title>Node87</title>
<g id="a_node28"><a xlink:href="_ocean_waves_8cpp.html" target="_top" xlink:title=" ">
<polygon fill="white" stroke="black" points="1707.78,-56.5 1707.78,-75.5 1807.78,-75.5 1807.78,-56.5 1707.78,-56.5"/>
<text text-anchor="middle" x="1757.78" y="-63.5" font-family="Helvetica,sans-Serif" font-size="10.00">OceanWaves.cpp</text>
</a>
</g>
</g>
<!-- Node2&#45;&gt;Node87 -->
<g id="edge29" class="edge">
<title>Node2&#45;&gt;Node87</title>
<path fill="none" stroke="midnightblue" d="M2148.45,-116.26C2078.56,-108.5 1936.67,-92.33 1816.78,-76 1813.91,-75.61 1810.96,-75.19 1807.98,-74.77"/>
<polygon fill="midnightblue" stroke="midnightblue" points="2148.3,-119.76 2158.63,-117.38 2149.07,-112.8 2148.3,-119.76"/>
</g>
<!-- Node88 -->
<g id="node29" class="node">
<title>Node88</title>
<g id="a_node29"><a xlink:href="_ocean_waves_ops_8_h.html" target="_top" xlink:title=" ">
<polygon fill="white" stroke="red" points="1826.28,-56.5 1826.28,-75.5 1935.28,-75.5 1935.28,-56.5 1826.28,-56.5"/>
<text text-anchor="middle" x="1880.78" y="-63.5" font-family="Helvetica,sans-Serif" font-size="10.00">OceanWavesOps.H</text>
</a>
</g>
</g>
<!-- Node2&#45;&gt;Node88 -->
<g id="edge30" class="edge">
<title>Node2&#45;&gt;Node88</title>
<path fill="none" stroke="midnightblue" d="M2148.3,-113.45C2090.86,-103.48 1989.96,-85.96 1929.85,-75.52"/>
<polygon fill="midnightblue" stroke="midnightblue" points="2148.05,-116.96 2158.5,-115.22 2149.25,-110.06 2148.05,-116.96"/>
</g>
<!-- Node2&#45;&gt;Node96 -->
<g id="edge31" class="edge">
<title>Node2&#45;&gt;Node96</title>
<path fill="none" stroke="midnightblue" d="M2235.02,-120.75C2492.58,-119.19 3827.33,-109.55 4235.78,-76 4238.87,-75.75 4242.03,-75.44 4245.22,-75.1"/>
<polygon fill="midnightblue" stroke="midnightblue" points="2234.91,-117.26 2224.93,-120.82 2234.95,-124.26 2234.91,-117.26"/>
</g>
<!-- Node97 -->
<g id="node31" class="node">
<title>Node97</title>
<g id="a_node31"><a xlink:href="_boussinesq_bubble_8cpp.html" target="_top" xlink:title=" ">
<polygon fill="white" stroke="black" points="1953.78,-56.5 1953.78,-75.5 2079.78,-75.5 2079.78,-56.5 1953.78,-56.5"/>
<text text-anchor="middle" x="2016.78" y="-63.5" font-family="Helvetica,sans-Serif" font-size="10.00">BoussinesqBubble.cpp</text>
</a>
</g>
</g>
<!-- Node2&#45;&gt;Node97 -->
<g id="edge32" class="edge">
<title>Node2&#45;&gt;Node97</title>
<path fill="none" stroke="midnightblue" d="M2154.31,-109.44C2121.31,-99.26 2074.03,-84.66 2044.38,-75.52"/>
<polygon fill="midnightblue" stroke="midnightblue" points="2153.47,-112.84 2164.05,-112.44 2155.53,-106.15 2153.47,-112.84"/>
</g>
<!-- Node98 -->
<g id="node32" class="node">
<title>Node98</title>
<g id="a_node32"><a xlink:href="_channel_flow_8cpp.html" target="_top" xlink:title=" ">
<polygon fill="white" stroke="black" points="1876.28,-0.5 1876.28,-19.5 1975.28,-19.5 1975.28,-0.5 1876.28,-0.5"/>
<text text-anchor="middle" x="1925.78" y="-7.5" font-family="Helvetica,sans-Serif" font-size="10.00">ChannelFlow.cpp</text>
</a>
</g>
</g>
<!-- Node2&#45;&gt;Node98 -->
<g id="edge33" class="edge">
<title>Node2&#45;&gt;Node98</title>
<path fill="none" stroke="midnightblue" d="M2148.27,-120.3C2033.42,-118.02 1728.81,-108.89 1698.78,-76 1646.62,-18.85 1794.78,-10.64 1876.22,-10.27"/>
<polygon fill="midnightblue" stroke="midnightblue" points="2148.39,-123.81 2158.46,-120.5 2148.53,-116.81 2148.39,-123.81"/>
</g>
<!-- Node99 -->
<g id="node33" class="node">
<title>Node99</title>
<g id="a_node33"><a xlink:href="_channel_flow_8_h.html" target="_top" xlink:title=" ">
<polygon fill="white" stroke="black" points="2199.28,-56.5 2199.28,-75.5 2288.28,-75.5 2288.28,-56.5 2199.28,-56.5"/>
<text text-anchor="middle" x="2243.78" y="-63.5" font-family="Helvetica,sans-Serif" font-size="10.00">ChannelFlow.H</text>
</a>
</g>
</g>
<!-- Node2&#45;&gt;Node99 -->
<g id="edge34" class="edge">
<title>Node2&#45;&gt;Node99</title>
<path fill="none" stroke="midnightblue" d="M2207.46,-104.72C2216.63,-95.2 2227.83,-83.56 2235.36,-75.75"/>
<polygon fill="midnightblue" stroke="midnightblue" points="2204.78,-102.45 2200.37,-112.08 2209.83,-107.31 2204.78,-102.45"/>
</g>
<!-- Node100 -->
<g id="node34" class="node">
<title>Node100</title>
<g id="a_node34"><a xlink:href="_convecting_taylor_vortex_8cpp.html" target="_top" xlink:title=" ">
<polygon fill="white" stroke="black" points="2268.78,-0.5 2268.78,-19.5 2420.78,-19.5 2420.78,-0.5 2268.78,-0.5"/>
<text text-anchor="middle" x="2344.78" y="-7.5" font-family="Helvetica,sans-Serif" font-size="10.00">ConvectingTaylorVortex.cpp</text>
</a>
</g>
</g>
<!-- Node2&#45;&gt;Node100 -->
<g id="edge36" class="edge">
<title>Node2&#45;&gt;Node100</title>
<path fill="none" stroke="midnightblue" d="M2232.52,-109.22C2253.19,-101.9 2277.86,-90.99 2296.78,-76 2317.02,-59.98 2332.96,-33.41 2340.33,-19.73"/>
<polygon fill="midnightblue" stroke="midnightblue" points="2231.39,-105.9 2223.04,-112.43 2233.63,-112.53 2231.39,-105.9"/>
</g>
<!-- Node101 -->
<g id="node35" class="node">
<title>Node101</title>
<g id="a_node35"><a xlink:href="_convecting_taylor_vortex_8_h.html" target="_top" xlink:title=" ">
<polygon fill="white" stroke="red" points="2345.28,-56.5 2345.28,-75.5 2488.28,-75.5 2488.28,-56.5 2345.28,-56.5"/>
<text text-anchor="middle" x="2416.78" y="-63.5" font-family="Helvetica,sans-Serif" font-size="10.00">ConvectingTaylorVortex.H</text>
</a>
</g>
</g>
<!-- Node2&#45;&gt;Node101 -->
<g id="edge37" class="edge">
<title>Node2&#45;&gt;Node101</title>
<path fill="none" stroke="midnightblue" d="M2234.76,-110.69C2277.25,-100.49 2341.51,-85.07 2381.22,-75.54"/>
<polygon fill="midnightblue" stroke="midnightblue" points="2233.89,-107.29 2224.98,-113.03 2235.52,-114.1 2233.89,-107.29"/>
</g>
<!-- Node102 -->
<g id="node36" class="node">
<title>Node102</title>
<g id="a_node36"><a xlink:href="_ekman_spiral_8cpp.html" target="_top" xlink:title=" ">
<polygon fill="white" stroke="black" points="2473.78,-0.5 2473.78,-19.5 2571.78,-19.5 2571.78,-0.5 2473.78,-0.5"/>
<text text-anchor="middle" x="2522.78" y="-7.5" font-family="Helvetica,sans-Serif" font-size="10.00">EkmanSpiral.cpp</text>
</a>
</g>
</g>
<!-- Node2&#45;&gt;Node102 -->
<g id="edge39" class="edge">
<title>Node2&#45;&gt;Node102</title>
<path fill="none" stroke="midnightblue" d="M2235.41,-119.81C2309.83,-116.93 2457.09,-107.34 2496.78,-76 2514.52,-61.99 2520.21,-34.03 2521.99,-19.78"/>
<polygon fill="midnightblue" stroke="midnightblue" points="2234.85,-116.32 2224.99,-120.18 2235.11,-123.32 2234.85,-116.32"/>
</g>
<!-- Node103 -->
<g id="node37" class="node">
<title>Node103</title>
<g id="a_node37"><a xlink:href="_ekman_spiral_8_h.html" target="_top" xlink:title=" ">
<polygon fill="white" stroke="black" points="2545.28,-56.5 2545.28,-75.5 2634.28,-75.5 2634.28,-56.5 2545.28,-56.5"/>
<text text-anchor="middle" x="2589.78" y="-63.5" font-family="Helvetica,sans-Serif" font-size="10.00">EkmanSpiral.H</text>
</a>
</g>
</g>
<!-- Node2&#45;&gt;Node103 -->
<g id="edge40" class="edge">
<title>Node2&#45;&gt;Node103</title>
<path fill="none" stroke="midnightblue" d="M2235.21,-115.51C2299.74,-107.29 2424.72,-91.13 2530.78,-76 2535.4,-75.34 2540.21,-74.64 2545.02,-73.92"/>
<polygon fill="midnightblue" stroke="midnightblue" points="2234.49,-112.07 2225.01,-116.81 2235.38,-119.02 2234.49,-112.07"/>
</g>
<!-- Node104 -->
<g id="node38" class="node">
<title>Node104</title>
<g id="a_node38"><a xlink:href="_free_stream_8cpp.html" target="_top" xlink:title=" ">
<polygon fill="white" stroke="black" points="2691.28,-56.5 2691.28,-75.5 2784.28,-75.5 2784.28,-56.5 2691.28,-56.5"/>
<text text-anchor="middle" x="2737.78" y="-63.5" font-family="Helvetica,sans-Serif" font-size="10.00">FreeStream.cpp</text>
</a>
</g>
</g>
<!-- Node2&#45;&gt;Node104 -->
<g id="edge42" class="edge">
<title>Node2&#45;&gt;Node104</title>
<path fill="none" stroke="midnightblue" d="M2235.11,-117.77C2320.02,-111.26 2514.18,-95.52 2676.78,-76 2681.46,-75.44 2686.33,-74.8 2691.19,-74.14"/>
<polygon fill="midnightblue" stroke="midnightblue" points="2234.78,-114.28 2225.07,-118.53 2235.31,-121.26 2234.78,-114.28"/>
</g>
<!-- Node105 -->
<g id="node39" class="node">
<title>Node105</title>
<g id="a_node39"><a xlink:href="_hybrid_r_a_n_s_l_e_s_a_b_l_8cpp.html" target="_top" xlink:title=" ">
<polygon fill="white" stroke="black" points="2696.28,-0.5 2696.28,-19.5 2829.28,-19.5 2829.28,-0.5 2696.28,-0.5"/>
<text text-anchor="middle" x="2762.78" y="-7.5" font-family="Helvetica,sans-Serif" font-size="10.00">HybridRANSLESABL.cpp</text>
</a>
</g>
</g>
<!-- Node2&#45;&gt;Node105 -->
<g id="edge43" class="edge">
<title>Node2&#45;&gt;Node105</title>
<path fill="none" stroke="midnightblue" d="M2234.92,-118.87C2332.44,-113.71 2567.21,-99.21 2642.78,-76 2648.33,-74.3 2715.73,-37.1 2747.01,-19.76"/>
<polygon fill="midnightblue" stroke="midnightblue" points="2234.63,-115.38 2224.83,-119.4 2235,-122.37 2234.63,-115.38"/>
</g>
<!-- Node106 -->
<g id="node40" class="node">
<title>Node106</title>
<g id="a_node40"><a xlink:href="_hybrid_r_a_n_s_l_e_s_a_b_l_8_h.html" target="_top" xlink:title=" ">
<polygon fill="white" stroke="black" points="2802.28,-56.5 2802.28,-75.5 2925.28,-75.5 2925.28,-56.5 2802.28,-56.5"/>
<text text-anchor="middle" x="2863.78" y="-63.5" font-family="Helvetica,sans-Serif" font-size="10.00">HybridRANSLESABL.H</text>
</a>
</g>
</g>
<!-- Node2&#45;&gt;Node106 -->
<g id="edge44" class="edge">
<title>Node2&#45;&gt;Node106</title>
<path fill="none" stroke="midnightblue" d="M2235.28,-118.51C2334.36,-112.68 2584.36,-97 2792.78,-76 2795.87,-75.69 2799.04,-75.35 2802.23,-75"/>
<polygon fill="midnightblue" stroke="midnightblue" points="2234.84,-115.03 2225.06,-119.11 2235.25,-122.02 2234.84,-115.03"/>
</g>
<!-- Node107 -->
<g id="node41" class="node">
<title>Node107</title>
<g id="a_node41"><a xlink:href="_m_m_s_8cpp.html" target="_top" xlink:title=" ">
<polygon fill="white" stroke="black" points="4088.28,-0.5 4088.28,-19.5 4149.28,-19.5 4149.28,-0.5 4088.28,-0.5"/>
<text text-anchor="middle" x="4118.78" y="-7.5" font-family="Helvetica,sans-Serif" font-size="10.00">MMS.cpp</text>
</a>
</g>
</g>
<!-- Node2&#45;&gt;Node107 -->
<g id="edge46" class="edge">
<title>Node2&#45;&gt;Node107</title>
<path fill="none" stroke="midnightblue" d="M2235.42,-120.82C2519.16,-119.55 4091.62,-110.97 4125.78,-76 4140.54,-60.9 4130.15,-33.43 4123.38,-19.53"/>
<polygon fill="midnightblue" stroke="midnightblue" points="2235.1,-117.32 2225.12,-120.87 2235.13,-124.32 2235.1,-117.32"/>
</g>
<!-- Node108 -->
<g id="node42" class="node">
<title>Node108</title>
<g id="a_node42"><a xlink:href="_m_m_s_8_h.html" target="_top" xlink:title=" ">
<polygon fill="white" stroke="black" points="4066.28,-56.5 4066.28,-75.5 4117.28,-75.5 4117.28,-56.5 4066.28,-56.5"/>
<text text-anchor="middle" x="4091.78" y="-63.5" font-family="Helvetica,sans-Serif" font-size="10.00">MMS.H</text>
</a>
</g>
</g>
<!-- Node2&#45;&gt;Node108 -->
<g id="edge47" class="edge">
<title>Node2&#45;&gt;Node108</title>
<path fill="none" stroke="midnightblue" d="M2235.36,-120.54C2498.58,-117.7 3871.28,-101.75 4056.78,-76 4059.77,-75.59 4062.86,-75.01 4065.92,-74.35"/>
<polygon fill="midnightblue" stroke="midnightblue" points="2235.02,-117.05 2225.06,-120.65 2235.09,-124.05 2235.02,-117.05"/>
</g>
<!-- Node109 -->
<g id="node43" class="node">
<title>Node109</title>
<g id="a_node43"><a xlink:href="_m_m_s_forcing_8cpp.html" target="_top" xlink:title=" ">
<polygon fill="white" stroke="black" points="2943.78,-56.5 2943.78,-75.5 3039.78,-75.5 3039.78,-56.5 2943.78,-56.5"/>
<text text-anchor="middle" x="2991.78" y="-63.5" font-family="Helvetica,sans-Serif" font-size="10.00">MMSForcing.cpp</text>
</a>
</g>
</g>
<!-- Node2&#45;&gt;Node109 -->
<g id="edge49" class="edge">
<title>Node2&#45;&gt;Node109</title>
<path fill="none" stroke="midnightblue" d="M2234.88,-119.79C2349.11,-116.29 2669.06,-104.5 2933.78,-76 2937.02,-75.65 2940.36,-75.25 2943.72,-74.81"/>
<polygon fill="midnightblue" stroke="midnightblue" points="2234.68,-116.3 2224.79,-120.1 2234.89,-123.29 2234.68,-116.3"/>
</g>
<!-- Node110 -->
<g id="node44" class="node">
<title>Node110</title>
<g id="a_node44"><a xlink:href="_breaking_waves_8cpp.html" target="_top" xlink:title=" ">
<polygon fill="white" stroke="black" points="3058.28,-56.5 3058.28,-75.5 3171.28,-75.5 3171.28,-56.5 3058.28,-56.5"/>
<text text-anchor="middle" x="3114.78" y="-63.5" font-family="Helvetica,sans-Serif" font-size="10.00">BreakingWaves.cpp</text>
</a>
</g>
</g>
<!-- Node2&#45;&gt;Node110 -->
<g id="edge50" class="edge">
<title>Node2&#45;&gt;Node110</title>
<path fill="none" stroke="midnightblue" d="M2234.95,-120C2360.69,-116.82 2737.51,-105.34 3048.78,-76 3051.78,-75.72 3054.84,-75.4 3057.94,-75.06"/>
<polygon fill="midnightblue" stroke="midnightblue" points="2234.85,-116.5 2224.94,-120.25 2235.03,-123.5 2234.85,-116.5"/>
</g>
<!-- Node111 -->
<g id="node45" class="node">
<title>Node111</title>
<g id="a_node45"><a xlink:href="_dam_break_8cpp.html" target="_top" xlink:title=" ">
<polygon fill="white" stroke="black" points="3189.28,-56.5 3189.28,-75.5 3278.28,-75.5 3278.28,-56.5 3189.28,-56.5"/>
<text text-anchor="middle" x="3233.78" y="-63.5" font-family="Helvetica,sans-Serif" font-size="10.00">DamBreak.cpp</text>
</a>
</g>
</g>
<!-- Node2&#45;&gt;Node111 -->
<g id="edge51" class="edge">
<title>Node2&#45;&gt;Node111</title>
<path fill="none" stroke="midnightblue" d="M2235.35,-120.87C2373.83,-120.07 2816.16,-114.44 3179.78,-76 3182.81,-75.68 3185.92,-75.3 3189.05,-74.88"/>
<polygon fill="midnightblue" stroke="midnightblue" points="2235.14,-117.37 2225.15,-120.93 2235.17,-124.37 2235.14,-117.37"/>
</g>
<!-- Node55 -->
<g id="node46" class="node">
<title>Node55</title>
<g id="a_node46"><a xlink:href="_multi_phase_8cpp.html" target="_top" xlink:title=" ">
<polygon fill="white" stroke="black" points="3296.28,-56.5 3296.28,-75.5 3387.28,-75.5 3387.28,-56.5 3296.28,-56.5"/>
<text text-anchor="middle" x="3341.78" y="-63.5" font-family="Helvetica,sans-Serif" font-size="10.00">MultiPhase.cpp</text>
</a>
</g>
</g>
<!-- Node2&#45;&gt;Node55 -->
<g id="edge52" class="edge">
<title>Node2&#45;&gt;Node55</title>
<path fill="none" stroke="midnightblue" d="M2235.05,-121.1C2382.55,-121.05 2879.2,-117.57 3286.78,-76 3289.86,-75.69 3293.03,-75.31 3296.22,-74.89"/>
<polygon fill="midnightblue" stroke="midnightblue" points="2235.04,-117.6 2225.03,-121.1 2235.03,-124.6 2235.04,-117.6"/>
</g>
<!-- Node49&#45;&gt;Node16 -->
<g id="edge18" class="edge">
<title>Node49&#45;&gt;Node16</title>
<path fill="none" stroke="midnightblue" d="M147.78,-45.8C147.78,-36.91 147.78,-26.78 147.78,-19.75"/>
<polygon fill="midnightblue" stroke="midnightblue" points="144.28,-46.08 147.78,-56.08 151.28,-46.08 144.28,-46.08"/>
</g>
<!-- Node62&#45;&gt;Node2 -->
<g id="edge23" class="edge">
<title>Node62&#45;&gt;Node2</title>
<path fill="none" stroke="midnightblue" d="M1427.76,-74.58C1430.48,-75.12 1433.18,-75.61 1435.78,-76 1713.07,-117.54 2052.27,-121.18 2158.5,-121.17"/>
<polygon fill="midnightblue" stroke="midnightblue" points="1428.39,-71.13 1417.87,-72.43 1426.9,-77.97 1428.39,-71.13"/>
</g>
<!-- Node75&#45;&gt;Node77 -->
<g id="edge27" class="edge">
<title>Node75&#45;&gt;Node77</title>
<path fill="none" stroke="midnightblue" d="M4210.12,-46.98C4214.88,-37.82 4220.44,-27.09 4224.24,-19.75"/>
<polygon fill="midnightblue" stroke="midnightblue" points="4206.9,-45.59 4205.41,-56.08 4213.12,-48.82 4206.9,-45.59"/>
</g>
<!-- Node75&#45;&gt;Node78 -->
<g id="edge28" class="edge">
<title>Node75&#45;&gt;Node78</title>
<path fill="none" stroke="midnightblue" d="M4237.46,-54.52C4273.12,-44.33 4326.63,-29.04 4359.81,-19.56"/>
<polygon fill="midnightblue" stroke="midnightblue" points="4236.11,-51.27 4227.46,-57.38 4238.04,-58 4236.11,-51.27"/>
</g>
<!-- Node99&#45;&gt;Node98 -->
<g id="edge35" class="edge">
<title>Node99&#45;&gt;Node98</title>
<path fill="none" stroke="midnightblue" d="M2189.18,-55.73C2129.16,-45.54 2033.55,-29.3 1975.52,-19.45"/>
<polygon fill="midnightblue" stroke="midnightblue" points="2188.79,-59.21 2199.23,-57.43 2189.96,-52.31 2188.79,-59.21"/>
</g>
<!-- Node101&#45;&gt;Node100 -->
<g id="edge38" class="edge">
<title>Node101&#45;&gt;Node100</title>
<path fill="none" stroke="midnightblue" d="M2396.92,-50.1C2383.96,-40.38 2367.48,-28.03 2356.56,-19.83"/>
<polygon fill="midnightblue" stroke="midnightblue" points="2395.11,-53.12 2405.21,-56.32 2399.31,-47.52 2395.11,-53.12"/>
</g>
<!-- Node103&#45;&gt;Node102 -->
<g id="edge41" class="edge">
<title>Node103&#45;&gt;Node102</title>
<path fill="none" stroke="midnightblue" d="M2570.95,-49.82C2558.94,-40.15 2543.81,-27.95 2533.74,-19.83"/>
<polygon fill="midnightblue" stroke="midnightblue" points="2569.04,-52.77 2579.02,-56.32 2573.43,-47.32 2569.04,-52.77"/>
</g>
<!-- Node106&#45;&gt;Node105 -->
<g id="edge45" class="edge">
<title>Node106&#45;&gt;Node105</title>
<path fill="none" stroke="midnightblue" d="M2838.7,-51.59C2820.03,-41.61 2795.08,-28.27 2778.97,-19.65"/>
<polygon fill="midnightblue" stroke="midnightblue" points="2837.09,-54.7 2847.55,-56.32 2840.39,-48.52 2837.09,-54.7"/>
</g>
<!-- Node108&#45;&gt;Node107 -->
<g id="edge48" class="edge">
<title>Node108&#45;&gt;Node107</title>
<path fill="none" stroke="midnightblue" d="M4100.79,-46.98C4105.37,-37.82 4110.74,-27.09 4114.41,-19.75"/>
<polygon fill="midnightblue" stroke="midnightblue" points="4097.58,-45.57 4096.24,-56.08 4103.84,-48.7 4097.58,-45.57"/>
</g>
<!-- Node35&#45;&gt;Node34 -->
<g id="edge61" class="edge">
<title>Node35&#45;&gt;Node34</title>
<path fill="none" stroke="midnightblue" d="M4621.02,-106.1C4608.78,-96.38 4593.22,-84.03 4582.91,-75.83"/>
<polygon fill="midnightblue" stroke="midnightblue" points="4618.85,-108.85 4628.86,-112.32 4623.2,-103.36 4618.85,-108.85"/>
</g>
<!-- Node35&#45;&gt;Node36 -->
<g id="edge62" class="edge">
<title>Node35&#45;&gt;Node36</title>
<path fill="none" stroke="midnightblue" d="M4658.82,-106.1C4671.24,-96.38 4687.03,-84.03 4697.49,-75.83"/>
<polygon fill="midnightblue" stroke="midnightblue" points="4656.59,-103.4 4650.87,-112.32 4660.9,-108.92 4656.59,-103.4"/>
</g>
</g>
</svg>
        <g id="navigator" transform="translate(0 0)" fill="#404254">
                <rect fill="#f2f5e9" fill-opacity="0.5" stroke="#606060" stroke-width=".5" x="0" y="0" width="60" height="60"/>
                <use id="zoomplus" xlink:href="#zoomPlus" x="17" y="9" onmousedown="handleZoom(evt,'in')"/>
                <use id="zoomminus" xlink:href="#zoomMin" x="42" y="9" onmousedown="handleZoom(evt,'out')"/>
                <use id="reset" xlink:href="#resetDef" x="30" y="36" onmousedown="handleReset()"/>
                <g id="arrowUp" xlink:href="#dirArrow" transform="translate(30 24)" onmousedown="handlePan(0,-1)">
                  <use xlink:href="#rim" fill="#404040">
                        <set attributeName="fill" to="#808080" begin="arrowUp.mouseover" end="arrowUp.mouseout"/>
                  </use>
                  <path fill="none" stroke="white" stroke-width="1.5" d="M0,-3.0v7 M-2.5,-0.5L0,-3.0L2.5,-0.5"/>
                </g>
                <g id="arrowRight" xlink:href="#dirArrow" transform="rotate(90) translate(36 -43)" onmousedown="handlePan(1,0)">
                  <use xlink:href="#rim" fill="#404040">
                        <set attributeName="fill" to="#808080" begin="arrowRight.mouseover" end="arrowRight.mouseout"/>
                  </use>
                  <path fill="none" stroke="white" stroke-width="1.5" d="M0,-3.0v7 M-2.5,-0.5L0,-3.0L2.5,-0.5"/>
                </g>
                <g id="arrowDown" xlink:href="#dirArrow" transform="rotate(180) translate(-30 -48)" onmousedown="handlePan(0,1)">
                  <use xlink:href="#rim" fill="#404040">
                        <set attributeName="fill" to="#808080" begin="arrowDown.mouseover" end="arrowDown.mouseout"/>
                  </use>
                  <path fill="none" stroke="white" stroke-width="1.5" d="M0,-3.0v7 M-2.5,-0.5L0,-3.0L2.5,-0.5"/>
                </g>
                <g id="arrowLeft" xlink:href="#dirArrow" transform="rotate(270) translate(-36 17)" onmousedown="handlePan(-1,0)">
                  <use xlink:href="#rim" fill="#404040">
                        <set attributeName="fill" to="#808080" begin="arrowLeft.mouseover" end="arrowLeft.mouseout"/>
                  </use>
                  <path fill="none" stroke="white" stroke-width="1.5" d="M0,-3.0v7 M-2.5,-0.5L0,-3.0L2.5,-0.5"/>
                </g>
        </g>
        <svg viewBox="0 0 15 15" width="100%" height="30px" preserveAspectRatio="xMaxYMin meet">
         <g id="arrow_out" transform="scale(0.3 0.3)">
          <a xlink:href="_p_d_e_base_8_h__dep__incl_org.svg" target="_base">
           <rect id="button" ry="5" rx="5" y="6" x="6" height="38" width="38"
                fill="#f2f5e9" fill-opacity="0.5" stroke="#606060" stroke-width="1.0"/>
           <path id="arrow"
             d="M 11.500037,31.436501 C 11.940474,20.09759 22.043105,11.32322 32.158766,21.979434 L 37.068811,17.246167 C 37.068811,17.246167 37.088388,32 37.088388,32 L 22.160133,31.978069 C 22.160133,31.978069 26.997745,27.140456 26.997745,27.140456 C 18.528582,18.264221 13.291696,25.230495 11.500037,31.436501 z"
             style="fill:#404040;"/>
          </a>
         </g>
        </svg>
</svg>
