<?xml version="1.0" encoding="UTF-8" standalone="no"?>
<!DOCTYPE svg PUBLIC "-//W3C//DTD SVG 1.1//EN"
 "http://www.w3.org/Graphics/SVG/1.1/DTD/svg11.dtd">
<!-- Generated by graphviz version 2.43.0 (0)
 -->
<!-- Title: PDE.H Pages: 1 -->
<!--zoomable 196 -->
<svg id="main" version="1.1" xmlns="http://www.w3.org/2000/svg" xmlns:xlink="http://www.w3.org/1999/xlink" xml:space="preserve" onload="init(evt)">
<style type="text/css"><![CDATA[
.edge:hover path { stroke: red; }
.edge:hover polygon { stroke: red; fill: red; }
]]></style>
<script type="text/javascript"><![CDATA[
var edges = document.getElementsByTagName('g');
if (edges && edges.length) {
  for (var i=0;i<edges.length;i++) {
    if (edges[i].id.substr(0,4)=='edge') {
      edges[i].setAttribute('class','edge');
    }
  }
}
]]></script>
        <defs>
                <circle id="rim" cx="0" cy="0" r="7"/>
                <circle id="rim2" cx="0" cy="0" r="3.5"/>
                <g id="zoomPlus">
                        <use xlink:href="#rim" fill="#404040">
                                <set attributeName="fill" to="#808080" begin="zoomplus.mouseover" end="zoomplus.mouseout"/>
                        </use>
                        <path d="M-4,0h8M0,-4v8" fill="none" stroke="white" stroke-width="1.5" pointer-events="none"/>
                </g>
                <g id="zoomMin">
                        <use xlink:href="#rim" fill="#404040">
                                <set attributeName="fill" to="#808080" begin="zoomminus.mouseover" end="zoomminus.mouseout"/>
                        </use>
                        <path d="M-4,0h8" fill="none" stroke="white" stroke-width="1.5" pointer-events="none"/>
                </g>
                <g id="dirArrow">
                        <path fill="none" stroke="white" stroke-width="1.5" d="M0,-3.0v7 M-2.5,-0.5L0,-3.0L2.5,-0.5"/>
                </g>
               <g id="resetDef">
                       <use xlink:href="#rim2" fill="#404040">
                               <set attributeName="fill" to="#808080" begin="reset.mouseover" end="reset.mouseout"/>
                       </use>
               </g>
        </defs>

<script type="text/javascript">
var viewWidth = 1906;
var viewHeight = 196;
var sectionId = 'dynsection-1';
</script>
<script xlink:href="svgpan.js"/>
<svg id="graph" class="graph">
<g id="viewport">
<title>PDE.H</title>
<polygon fill="white" stroke="transparent" points="-4,4 -4,-192 1901.5,-192 1901.5,4 -4,4"/>
<!-- Node1 -->
<g id="node1" class="node">
<title>Node1</title>
<g id="a_node1"><a xlink:title=" ">
<polygon fill="#bfbfbf" stroke="black" points="969,-168.5 969,-187.5 1016,-187.5 1016,-168.5 969,-168.5"/>
<text text-anchor="middle" x="992.5" y="-175.5" font-family="Helvetica,sans-Serif" font-size="10.00">PDE.H</text>
</a>
</g>
</g>
<!-- Node2 -->
<g id="node2" class="node">
<title>Node2</title>
<g id="a_node2"><a xlink:href="density_8_h.html" target="_top" xlink:title=" ">
<polygon fill="white" stroke="black" points="39.5,-112.5 39.5,-131.5 101.5,-131.5 101.5,-112.5 39.5,-112.5"/>
<text text-anchor="middle" x="70.5" y="-119.5" font-family="Helvetica,sans-Serif" font-size="10.00">density.H</text>
</a>
</g>
</g>
<!-- Node1&#45;&gt;Node2 -->
<g id="edge1" class="edge">
<title>Node1&#45;&gt;Node2</title>
<path fill="none" stroke="midnightblue" d="M958.68,-175.02C813.22,-166.5 241.98,-133.04 101.72,-124.83"/>
<polygon fill="midnightblue" stroke="midnightblue" points="958.59,-178.52 968.78,-175.61 959,-171.53 958.59,-178.52"/>
</g>
<!-- Node5 -->
<g id="node5" class="node">
<title>Node5</title>
<g id="a_node5"><a xlink:href="icns_8_h.html" target="_top" xlink:title=" ">
<polygon fill="white" stroke="black" points="480,-112.5 480,-131.5 527,-131.5 527,-112.5 480,-112.5"/>
<text text-anchor="middle" x="503.5" y="-119.5" font-family="Helvetica,sans-Serif" font-size="10.00">icns.H</text>
</a>
</g>
</g>
<!-- Node1&#45;&gt;Node5 -->
<g id="edge5" class="edge">
<title>Node1&#45;&gt;Node5</title>
<path fill="none" stroke="midnightblue" d="M958.93,-173.29C865.97,-163.03 606.84,-134.41 527.13,-125.61"/>
<polygon fill="midnightblue" stroke="midnightblue" points="958.59,-176.78 968.91,-174.4 959.36,-169.82 958.59,-176.78"/>
</g>
<!-- Node13 -->
<g id="node13" class="node">
<title>Node13</title>
<g id="a_node13"><a xlink:href="levelset_8_h.html" target="_top" xlink:title=" ">
<polygon fill="white" stroke="black" points="765.5,-112.5 765.5,-131.5 831.5,-131.5 831.5,-112.5 765.5,-112.5"/>
<text text-anchor="middle" x="798.5" y="-119.5" font-family="Helvetica,sans-Serif" font-size="10.00">levelset.H</text>
</a>
</g>
</g>
<!-- Node1&#45;&gt;Node13 -->
<g id="edge17" class="edge">
<title>Node1&#45;&gt;Node13</title>
<path fill="none" stroke="midnightblue" d="M959.02,-167.68C922.51,-157.52 864.57,-141.39 829.2,-131.55"/>
<polygon fill="midnightblue" stroke="midnightblue" points="958.14,-171.07 968.71,-170.38 960.02,-164.33 958.14,-171.07"/>
</g>
<!-- Node16 -->
<g id="node16" class="node">
<title>Node16</title>
<g id="a_node16"><a xlink:href="_s_d_r_8_h.html" target="_top" xlink:title=" ">
<polygon fill="white" stroke="black" points="969,-112.5 969,-131.5 1016,-131.5 1016,-112.5 969,-112.5"/>
<text text-anchor="middle" x="992.5" y="-119.5" font-family="Helvetica,sans-Serif" font-size="10.00">SDR.H</text>
</a>
</g>
</g>
<!-- Node1&#45;&gt;Node16 -->
<g id="edge21" class="edge">
<title>Node1&#45;&gt;Node16</title>
<path fill="none" stroke="midnightblue" d="M992.5,-157.8C992.5,-148.91 992.5,-138.78 992.5,-131.75"/>
<polygon fill="midnightblue" stroke="midnightblue" points="989,-158.08 992.5,-168.08 996,-158.08 989,-158.08"/>
</g>
<!-- Node22 -->
<g id="node22" class="node">
<title>Node22</title>
<g id="a_node22"><a xlink:href="temperature_8_h.html" target="_top" xlink:title=" ">
<polygon fill="white" stroke="black" points="1367.5,-112.5 1367.5,-131.5 1455.5,-131.5 1455.5,-112.5 1367.5,-112.5"/>
<text text-anchor="middle" x="1411.5" y="-119.5" font-family="Helvetica,sans-Serif" font-size="10.00">temperature.H</text>
</a>
</g>
</g>
<!-- Node1&#45;&gt;Node22 -->
<g id="edge30" class="edge">
<title>Node1&#45;&gt;Node22</title>
<path fill="none" stroke="midnightblue" d="M1026.57,-172.61C1102.07,-162.88 1283.37,-139.51 1367.39,-128.69"/>
<polygon fill="midnightblue" stroke="midnightblue" points="1025.7,-169.19 1016.23,-173.94 1026.59,-176.14 1025.7,-169.19"/>
</g>
<!-- Node24 -->
<g id="node24" class="node">
<title>Node24</title>
<g id="a_node24"><a xlink:href="_t_k_e_8_h.html" target="_top" xlink:title=" ">
<polygon fill="white" stroke="black" points="1191.5,-112.5 1191.5,-131.5 1237.5,-131.5 1237.5,-112.5 1191.5,-112.5"/>
<text text-anchor="middle" x="1214.5" y="-119.5" font-family="Helvetica,sans-Serif" font-size="10.00">TKE.H</text>
</a>
</g>
</g>
<!-- Node1&#45;&gt;Node24 -->
<g id="edge32" class="edge">
<title>Node1&#45;&gt;Node24</title>
<path fill="none" stroke="midnightblue" d="M1026.24,-168.79C1071.81,-157.71 1151.85,-138.24 1191.25,-128.66"/>
<polygon fill="midnightblue" stroke="midnightblue" points="1025.15,-165.46 1016.26,-171.22 1026.8,-172.26 1025.15,-165.46"/>
</g>
<!-- Node28 -->
<g id="node28" class="node">
<title>Node28</title>
<g id="a_node28"><a xlink:href="vof_8_h.html" target="_top" xlink:title=" ">
<polygon fill="white" stroke="black" points="1691.5,-112.5 1691.5,-131.5 1733.5,-131.5 1733.5,-112.5 1691.5,-112.5"/>
<text text-anchor="middle" x="1712.5" y="-119.5" font-family="Helvetica,sans-Serif" font-size="10.00">vof.H</text>
</a>
</g>
</g>
<!-- Node1&#45;&gt;Node28 -->
<g id="edge40" class="edge">
<title>Node1&#45;&gt;Node28</title>
<path fill="none" stroke="midnightblue" d="M1026.2,-174.47C1151.64,-165.06 1589.51,-132.22 1691.26,-124.59"/>
<polygon fill="midnightblue" stroke="midnightblue" points="1025.76,-171 1016.05,-175.23 1026.28,-177.98 1025.76,-171"/>
</g>
<!-- Node3 -->
<g id="node3" class="node">
<title>Node3</title>
<g id="a_node3"><a xlink:href="density_8cpp.html" target="_top" xlink:title=" ">
<polygon fill="white" stroke="black" points="0,-0.5 0,-19.5 71,-19.5 71,-0.5 0,-0.5"/>
<text text-anchor="middle" x="35.5" y="-7.5" font-family="Helvetica,sans-Serif" font-size="10.00">density.cpp</text>
</a>
</g>
</g>
<!-- Node2&#45;&gt;Node3 -->
<g id="edge2" class="edge">
<title>Node2&#45;&gt;Node3</title>
<path fill="none" stroke="midnightblue" d="M46.13,-106.73C35.55,-99.09 24.28,-88.64 18.5,-76 9.77,-56.9 21.72,-32.53 29.59,-19.74"/>
<polygon fill="midnightblue" stroke="midnightblue" points="44.46,-109.82 54.72,-112.47 48.35,-104 44.46,-109.82"/>
</g>
<!-- Node4 -->
<g id="node4" class="node">
<title>Node4</title>
<g id="a_node4"><a xlink:href="density__ops_8_h.html" target="_top" xlink:title=" ">
<polygon fill="white" stroke="black" points="27.5,-56.5 27.5,-75.5 113.5,-75.5 113.5,-56.5 27.5,-56.5"/>
<text text-anchor="middle" x="70.5" y="-63.5" font-family="Helvetica,sans-Serif" font-size="10.00">density_ops.H</text>
</a>
</g>
</g>
<!-- Node2&#45;&gt;Node4 -->
<g id="edge3" class="edge">
<title>Node2&#45;&gt;Node4</title>
<path fill="none" stroke="midnightblue" d="M70.5,-101.8C70.5,-92.91 70.5,-82.78 70.5,-75.75"/>
<polygon fill="midnightblue" stroke="midnightblue" points="67,-102.08 70.5,-112.08 74,-102.08 67,-102.08"/>
</g>
<!-- Node4&#45;&gt;Node3 -->
<g id="edge4" class="edge">
<title>Node4&#45;&gt;Node3</title>
<path fill="none" stroke="midnightblue" d="M59.2,-47.57C53.18,-38.27 46.03,-27.25 41.17,-19.75"/>
<polygon fill="midnightblue" stroke="midnightblue" points="56.34,-49.6 64.72,-56.08 62.22,-45.79 56.34,-49.6"/>
</g>
<!-- Node6 -->
<g id="node6" class="node">
<title>Node6</title>
<g id="a_node6"><a xlink:href="icns_8cpp.html" target="_top" xlink:title=" ">
<polygon fill="white" stroke="black" points="475.5,-0.5 475.5,-19.5 531.5,-19.5 531.5,-0.5 475.5,-0.5"/>
<text text-anchor="middle" x="503.5" y="-7.5" font-family="Helvetica,sans-Serif" font-size="10.00">icns.cpp</text>
</a>
</g>
</g>
<!-- Node5&#45;&gt;Node6 -->
<g id="edge6" class="edge">
<title>Node5&#45;&gt;Node6</title>
<path fill="none" stroke="midnightblue" d="M525.21,-106.07C534.56,-98.31 544.47,-87.95 549.5,-76 558.93,-53.57 533.65,-31.26 516.93,-19.51"/>
<polygon fill="midnightblue" stroke="midnightblue" points="523.06,-103.31 517.29,-112.19 527.34,-108.85 523.06,-103.31"/>
</g>
<!-- Node7 -->
<g id="node7" class="node">
<title>Node7</title>
<g id="a_node7"><a xlink:href="icns__advection_8_h.html" target="_top" xlink:title=" ">
<polygon fill="white" stroke="black" points="597.5,-56.5 597.5,-75.5 697.5,-75.5 697.5,-56.5 597.5,-56.5"/>
<text text-anchor="middle" x="647.5" y="-63.5" font-family="Helvetica,sans-Serif" font-size="10.00">icns_advection.H</text>
</a>
</g>
</g>
<!-- Node5&#45;&gt;Node7 -->
<g id="edge7" class="edge">
<title>Node5&#45;&gt;Node7</title>
<path fill="none" stroke="midnightblue" d="M535.75,-108.91C562.82,-98.75 600.82,-84.51 624.79,-75.52"/>
<polygon fill="midnightblue" stroke="midnightblue" points="534.45,-105.66 526.32,-112.44 536.91,-112.21 534.45,-105.66"/>
</g>
<!-- Node9 -->
<g id="node9" class="node">
<title>Node9</title>
<g id="a_node9"><a xlink:href="icns__bcop_8_h.html" target="_top" xlink:title=" ">
<polygon fill="white" stroke="black" points="466,-56.5 466,-75.5 541,-75.5 541,-56.5 466,-56.5"/>
<text text-anchor="middle" x="503.5" y="-63.5" font-family="Helvetica,sans-Serif" font-size="10.00">icns_bcop.H</text>
</a>
</g>
</g>
<!-- Node5&#45;&gt;Node9 -->
<g id="edge10" class="edge">
<title>Node5&#45;&gt;Node9</title>
<path fill="none" stroke="midnightblue" d="M503.5,-101.8C503.5,-92.91 503.5,-82.78 503.5,-75.75"/>
<polygon fill="midnightblue" stroke="midnightblue" points="500,-102.08 503.5,-112.08 507,-102.08 500,-102.08"/>
</g>
<!-- Node10 -->
<g id="node10" class="node">
<title>Node10</title>
<g id="a_node10"><a xlink:href="icns__diffusion_8_h.html" target="_top" xlink:title=" ">
<polygon fill="white" stroke="black" points="131.5,-56.5 131.5,-75.5 225.5,-75.5 225.5,-56.5 131.5,-56.5"/>
<text text-anchor="middle" x="178.5" y="-63.5" font-family="Helvetica,sans-Serif" font-size="10.00">icns_diffusion.H</text>
</a>
</g>
</g>
<!-- Node5&#45;&gt;Node10 -->
<g id="edge12" class="edge">
<title>Node5&#45;&gt;Node10</title>
<path fill="none" stroke="midnightblue" d="M469.73,-115.39C411.47,-105.71 291.96,-85.85 225.58,-74.82"/>
<polygon fill="midnightblue" stroke="midnightblue" points="469.43,-118.89 479.87,-117.07 470.57,-111.98 469.43,-118.89"/>
</g>
<!-- Node11 -->
<g id="node11" class="node">
<title>Node11</title>
<g id="a_node11"><a xlink:href="icns__ops_8_h.html" target="_top" xlink:title=" ">
<polygon fill="white" stroke="black" points="244,-56.5 244,-75.5 313,-75.5 313,-56.5 244,-56.5"/>
<text text-anchor="middle" x="278.5" y="-63.5" font-family="Helvetica,sans-Serif" font-size="10.00">icns_ops.H</text>
</a>
</g>
</g>
<!-- Node5&#45;&gt;Node11 -->
<g id="edge14" class="edge">
<title>Node5&#45;&gt;Node11</title>
<path fill="none" stroke="midnightblue" d="M470.07,-112.98C427.94,-102.86 355.88,-85.57 313.17,-75.32"/>
<polygon fill="midnightblue" stroke="midnightblue" points="469.31,-116.39 479.85,-115.32 470.94,-109.59 469.31,-116.39"/>
</g>
<!-- Node12 -->
<g id="node12" class="node">
<title>Node12</title>
<g id="a_node12"><a xlink:href="_power_law_profile_8cpp.html" target="_top" xlink:title=" ">
<polygon fill="white" stroke="black" points="331,-56.5 331,-75.5 448,-75.5 448,-56.5 331,-56.5"/>
<text text-anchor="middle" x="389.5" y="-63.5" font-family="Helvetica,sans-Serif" font-size="10.00">PowerLawProfile.cpp</text>
</a>
</g>
</g>
<!-- Node5&#45;&gt;Node12 -->
<g id="edge16" class="edge">
<title>Node5&#45;&gt;Node12</title>
<path fill="none" stroke="midnightblue" d="M476.26,-108.1C454.96,-98.01 425.96,-84.27 407.48,-75.52"/>
<polygon fill="midnightblue" stroke="midnightblue" points="474.9,-111.33 485.44,-112.44 477.9,-105 474.9,-111.33"/>
</g>
<!-- Node7&#45;&gt;Node6 -->
<g id="edge8" class="edge">
<title>Node7&#45;&gt;Node6</title>
<path fill="none" stroke="midnightblue" d="M615.25,-52.91C588.18,-42.75 550.18,-28.51 526.21,-19.52"/>
<polygon fill="midnightblue" stroke="midnightblue" points="614.09,-56.21 624.68,-56.44 616.55,-49.66 614.09,-56.21"/>
</g>
<!-- Node8 -->
<g id="node8" class="node">
<title>Node8</title>
<g id="a_node8"><a xlink:href="icns__advection_8cpp.html" target="_top" xlink:title=" ">
<polygon fill="white" stroke="black" points="592.5,-0.5 592.5,-19.5 702.5,-19.5 702.5,-0.5 592.5,-0.5"/>
<text text-anchor="middle" x="647.5" y="-7.5" font-family="Helvetica,sans-Serif" font-size="10.00">icns_advection.cpp</text>
</a>
</g>
</g>
<!-- Node7&#45;&gt;Node8 -->
<g id="edge9" class="edge">
<title>Node7&#45;&gt;Node8</title>
<path fill="none" stroke="midnightblue" d="M647.5,-45.8C647.5,-36.91 647.5,-26.78 647.5,-19.75"/>
<polygon fill="midnightblue" stroke="midnightblue" points="644,-46.08 647.5,-56.08 651,-46.08 644,-46.08"/>
</g>
<!-- Node9&#45;&gt;Node6 -->
<g id="edge11" class="edge">
<title>Node9&#45;&gt;Node6</title>
<path fill="none" stroke="midnightblue" d="M503.5,-45.8C503.5,-36.91 503.5,-26.78 503.5,-19.75"/>
<polygon fill="midnightblue" stroke="midnightblue" points="500,-46.08 503.5,-56.08 507,-46.08 500,-46.08"/>
</g>
<!-- Node10&#45;&gt;Node6 -->
<g id="edge13" class="edge">
<title>Node10&#45;&gt;Node6</title>
<path fill="none" stroke="midnightblue" d="M235.77,-55.48C306,-43.81 422.24,-24.5 475.4,-15.67"/>
<polygon fill="midnightblue" stroke="midnightblue" points="235.05,-52.06 225.76,-57.15 236.2,-58.96 235.05,-52.06"/>
</g>
<!-- Node11&#45;&gt;Node6 -->
<g id="edge15" class="edge">
<title>Node11&#45;&gt;Node6</title>
<path fill="none" stroke="midnightblue" d="M323,-54.32C368.23,-43.46 436.93,-26.98 475.21,-17.79"/>
<polygon fill="midnightblue" stroke="midnightblue" points="322.07,-50.94 313.16,-56.68 323.7,-57.75 322.07,-50.94"/>
</g>
<!-- Node14 -->
<g id="node14" class="node">
<title>Node14</title>
<g id="a_node14"><a xlink:href="levelset_8cpp.html" target="_top" xlink:title=" ">
<polygon fill="white" stroke="black" points="740.5,-0.5 740.5,-19.5 816.5,-19.5 816.5,-0.5 740.5,-0.5"/>
<text text-anchor="middle" x="778.5" y="-7.5" font-family="Helvetica,sans-Serif" font-size="10.00">levelset.cpp</text>
</a>
</g>
</g>
<!-- Node13&#45;&gt;Node14 -->
<g id="edge18" class="edge">
<title>Node13&#45;&gt;Node14</title>
<path fill="none" stroke="midnightblue" d="M773.32,-107C762.31,-99.4 750.54,-88.91 744.5,-76 734.88,-55.47 755.08,-32.07 768.28,-19.71"/>
<polygon fill="midnightblue" stroke="midnightblue" points="771.56,-110.03 781.87,-112.46 775.33,-104.13 771.56,-110.03"/>
</g>
<!-- Node15 -->
<g id="node15" class="node">
<title>Node15</title>
<g id="a_node15"><a xlink:href="levelset__ops_8_h.html" target="_top" xlink:title=" ">
<polygon fill="white" stroke="black" points="754,-56.5 754,-75.5 843,-75.5 843,-56.5 754,-56.5"/>
<text text-anchor="middle" x="798.5" y="-63.5" font-family="Helvetica,sans-Serif" font-size="10.00">levelset_ops.H</text>
</a>
</g>
</g>
<!-- Node13&#45;&gt;Node15 -->
<g id="edge19" class="edge">
<title>Node13&#45;&gt;Node15</title>
<path fill="none" stroke="midnightblue" d="M798.5,-101.8C798.5,-92.91 798.5,-82.78 798.5,-75.75"/>
<polygon fill="midnightblue" stroke="midnightblue" points="795,-102.08 798.5,-112.08 802,-102.08 795,-102.08"/>
</g>
<!-- Node15&#45;&gt;Node14 -->
<g id="edge20" class="edge">
<title>Node15&#45;&gt;Node14</title>
<path fill="none" stroke="midnightblue" d="M791.72,-46.69C788.35,-37.59 784.43,-27.01 781.74,-19.75"/>
<polygon fill="midnightblue" stroke="midnightblue" points="788.44,-47.92 795.2,-56.08 795.01,-45.49 788.44,-47.92"/>
</g>
<!-- Node17 -->
<g id="node17" class="node">
<title>Node17</title>
<g id="a_node17"><a xlink:href="_s_d_r_8cpp.html" target="_top" xlink:title=" ">
<polygon fill="white" stroke="black" points="868,-0.5 868,-19.5 925,-19.5 925,-0.5 868,-0.5"/>
<text text-anchor="middle" x="896.5" y="-7.5" font-family="Helvetica,sans-Serif" font-size="10.00">SDR.cpp</text>
</a>
</g>
</g>
<!-- Node16&#45;&gt;Node17 -->
<g id="edge22" class="edge">
<title>Node16&#45;&gt;Node17</title>
<path fill="none" stroke="midnightblue" d="M978.17,-104.59C957.48,-80.87 919.95,-37.87 904,-19.59"/>
<polygon fill="midnightblue" stroke="midnightblue" points="975.75,-107.14 984.97,-112.37 981.03,-102.53 975.75,-107.14"/>
</g>
<!-- Node18 -->
<g id="node18" class="node">
<title>Node18</title>
<g id="a_node18"><a xlink:href="sdr__ops_8_h.html" target="_top" xlink:title=" ">
<polygon fill="white" stroke="black" points="861,-56.5 861,-75.5 926,-75.5 926,-56.5 861,-56.5"/>
<text text-anchor="middle" x="893.5" y="-63.5" font-family="Helvetica,sans-Serif" font-size="10.00">sdr_ops.H</text>
</a>
</g>
</g>
<!-- Node16&#45;&gt;Node18 -->
<g id="edge23" class="edge">
<title>Node16&#45;&gt;Node18</title>
<path fill="none" stroke="midnightblue" d="M967.66,-107.45C949.39,-97.48 925.08,-84.23 909.37,-75.65"/>
<polygon fill="midnightblue" stroke="midnightblue" points="966.14,-110.61 976.59,-112.32 969.49,-104.46 966.14,-110.61"/>
</g>
<!-- Node19 -->
<g id="node19" class="node">
<title>Node19</title>
<g id="a_node19"><a xlink:href="_k_omega_s_s_t_8cpp.html" target="_top" xlink:title=" ">
<polygon fill="white" stroke="black" points="1112,-0.5 1112,-19.5 1207,-19.5 1207,-0.5 1112,-0.5"/>
<text text-anchor="middle" x="1159.5" y="-7.5" font-family="Helvetica,sans-Serif" font-size="10.00">KOmegaSST.cpp</text>
</a>
</g>
</g>
<!-- Node16&#45;&gt;Node19 -->
<g id="edge25" class="edge">
<title>Node16&#45;&gt;Node19</title>
<path fill="none" stroke="midnightblue" d="M1026,-115.33C1053.25,-109.33 1091.5,-97.64 1118.5,-76 1137.66,-60.65 1150.46,-33.79 1156.14,-19.89"/>
<polygon fill="midnightblue" stroke="midnightblue" points="1025.23,-111.91 1016.13,-117.35 1026.63,-118.77 1025.23,-111.91"/>
</g>
<!-- Node20 -->
<g id="node20" class="node">
<title>Node20</title>
<g id="a_node20"><a xlink:href="_k_omega_s_s_t_i_8_h.html" target="_top" xlink:title=" ">
<polygon fill="white" stroke="black" points="1021,-56.5 1021,-75.5 1110,-75.5 1110,-56.5 1021,-56.5"/>
<text text-anchor="middle" x="1065.5" y="-63.5" font-family="Helvetica,sans-Serif" font-size="10.00">KOmegaSSTI.H</text>
</a>
</g>
</g>
<!-- Node16&#45;&gt;Node20 -->
<g id="edge26" class="edge">
<title>Node16&#45;&gt;Node20</title>
<path fill="none" stroke="midnightblue" d="M1012.64,-106.1C1025.78,-96.38 1042.48,-84.03 1053.56,-75.83"/>
<polygon fill="midnightblue" stroke="midnightblue" points="1010.19,-103.56 1004.23,-112.32 1014.35,-109.19 1010.19,-103.56"/>
</g>
<!-- Node21 -->
<g id="node21" class="node">
<title>Node21</title>
<g id="a_node21"><a xlink:href="_k_omega_s_s_t_i_d_d_e_s_8cpp.html" target="_top" xlink:title=" ">
<polygon fill="white" stroke="black" points="967.5,-0.5 967.5,-19.5 1093.5,-19.5 1093.5,-0.5 967.5,-0.5"/>
<text text-anchor="middle" x="1030.5" y="-7.5" font-family="Helvetica,sans-Serif" font-size="10.00">KOmegaSSTIDDES.cpp</text>
</a>
</g>
</g>
<!-- Node16&#45;&gt;Node21 -->
<g id="edge29" class="edge">
<title>Node16&#45;&gt;Node21</title>
<path fill="none" stroke="midnightblue" d="M997.22,-102.78C1000.77,-89.65 1005.96,-71.58 1011.5,-56 1016.11,-43.06 1022.49,-28.47 1026.56,-19.51"/>
<polygon fill="midnightblue" stroke="midnightblue" points="993.83,-101.92 994.65,-112.49 1000.6,-103.71 993.83,-101.92"/>
</g>
<!-- Node18&#45;&gt;Node17 -->
<g id="edge24" class="edge">
<title>Node18&#45;&gt;Node17</title>
<path fill="none" stroke="midnightblue" d="M894.57,-45.8C895.06,-36.91 895.62,-26.78 896.01,-19.75"/>
<polygon fill="midnightblue" stroke="midnightblue" points="891.06,-45.9 894,-56.08 898.04,-46.29 891.06,-45.9"/>
</g>
<!-- Node20&#45;&gt;Node19 -->
<g id="edge27" class="edge">
<title>Node20&#45;&gt;Node19</title>
<path fill="none" stroke="midnightblue" d="M1089.56,-51.18C1106.86,-41.24 1129.65,-28.15 1144.43,-19.65"/>
<polygon fill="midnightblue" stroke="midnightblue" points="1087.53,-48.31 1080.6,-56.32 1091.02,-54.38 1087.53,-48.31"/>
</g>
<!-- Node20&#45;&gt;Node21 -->
<g id="edge28" class="edge">
<title>Node20&#45;&gt;Node21</title>
<path fill="none" stroke="midnightblue" d="M1054.2,-47.57C1048.18,-38.27 1041.03,-27.25 1036.17,-19.75"/>
<polygon fill="midnightblue" stroke="midnightblue" points="1051.34,-49.6 1059.72,-56.08 1057.22,-45.79 1051.34,-49.6"/>
</g>
<!-- Node23 -->
<g id="node23" class="node">
<title>Node23</title>
<g id="a_node23"><a xlink:href="temperature_8cpp.html" target="_top" xlink:title=" ">
<polygon fill="white" stroke="black" points="1474.5,-56.5 1474.5,-75.5 1572.5,-75.5 1572.5,-56.5 1474.5,-56.5"/>
<text text-anchor="middle" x="1523.5" y="-63.5" font-family="Helvetica,sans-Serif" font-size="10.00">temperature.cpp</text>
</a>
</g>
</g>
<!-- Node22&#45;&gt;Node23 -->
<g id="edge31" class="edge">
<title>Node22&#45;&gt;Node23</title>
<path fill="none" stroke="midnightblue" d="M1438.75,-107.86C1459.52,-97.85 1487.52,-84.35 1505.55,-75.65"/>
<polygon fill="midnightblue" stroke="midnightblue" points="1436.98,-104.83 1429.49,-112.32 1440.02,-111.13 1436.98,-104.83"/>
</g>
<!-- Node24&#45;&gt;Node19 -->
<g id="edge37" class="edge">
<title>Node24&#45;&gt;Node19</title>
<path fill="none" stroke="midnightblue" d="M1209.02,-102.44C1204.76,-89.15 1198.29,-71.02 1190.5,-56 1183.51,-42.53 1173.15,-28.32 1166.36,-19.55"/>
<polygon fill="midnightblue" stroke="midnightblue" points="1205.76,-103.77 1212.05,-112.3 1212.45,-101.71 1205.76,-103.77"/>
</g>
<!-- Node24&#45;&gt;Node20 -->
<g id="edge38" class="edge">
<title>Node24&#45;&gt;Node20</title>
<path fill="none" stroke="midnightblue" d="M1181.47,-109.03C1153.48,-98.89 1114.02,-84.59 1089.11,-75.56"/>
<polygon fill="midnightblue" stroke="midnightblue" points="1180.62,-112.45 1191.22,-112.56 1183.01,-105.86 1180.62,-112.45"/>
</g>
<!-- Node24&#45;&gt;Node21 -->
<g id="edge39" class="edge">
<title>Node24&#45;&gt;Node21</title>
<path fill="none" stroke="midnightblue" d="M1194.46,-106.38C1175.36,-92.69 1145.57,-72.01 1118.5,-56 1095.01,-42.11 1066.76,-28.12 1048.71,-19.51"/>
<polygon fill="midnightblue" stroke="midnightblue" points="1192.53,-109.29 1202.68,-112.31 1196.62,-103.62 1192.53,-109.29"/>
</g>
<!-- Node25 -->
<g id="node25" class="node">
<title>Node25</title>
<g id="a_node25"><a xlink:href="_t_k_e_8cpp.html" target="_top" xlink:title=" ">
<polygon fill="white" stroke="black" points="1277.5,-0.5 1277.5,-19.5 1333.5,-19.5 1333.5,-0.5 1277.5,-0.5"/>
<text text-anchor="middle" x="1305.5" y="-7.5" font-family="Helvetica,sans-Serif" font-size="10.00">TKE.cpp</text>
</a>
</g>
</g>
<!-- Node24&#45;&gt;Node25 -->
<g id="edge33" class="edge">
<title>Node24&#45;&gt;Node25</title>
<path fill="none" stroke="midnightblue" d="M1247.81,-115.97C1271.39,-110.49 1301.4,-99.16 1316.5,-76 1327.87,-58.55 1317.52,-33.06 1310.58,-19.78"/>
<polygon fill="midnightblue" stroke="midnightblue" points="1246.92,-112.59 1237.84,-118.05 1248.34,-119.44 1246.92,-112.59"/>
</g>
<!-- Node26 -->
<g id="node26" class="node">
<title>Node26</title>
<g id="a_node26"><a xlink:href="tke__ops_8_h.html" target="_top" xlink:title=" ">
<polygon fill="white" stroke="black" points="1243,-56.5 1243,-75.5 1308,-75.5 1308,-56.5 1243,-56.5"/>
<text text-anchor="middle" x="1275.5" y="-63.5" font-family="Helvetica,sans-Serif" font-size="10.00">tke_ops.H</text>
</a>
</g>
</g>
<!-- Node24&#45;&gt;Node26 -->
<g id="edge34" class="edge">
<title>Node24&#45;&gt;Node26</title>
<path fill="none" stroke="midnightblue" d="M1231.97,-105.54C1242.84,-95.91 1256.44,-83.87 1265.52,-75.83"/>
<polygon fill="midnightblue" stroke="midnightblue" points="1229.47,-103.07 1224.3,-112.32 1234.11,-108.32 1229.47,-103.07"/>
</g>
<!-- Node27 -->
<g id="node27" class="node">
<title>Node27</title>
<g id="a_node27"><a xlink:href="_one_eq_ksgs_8cpp.html" target="_top" xlink:title=" ">
<polygon fill="white" stroke="black" points="1364.5,-56.5 1364.5,-75.5 1456.5,-75.5 1456.5,-56.5 1364.5,-56.5"/>
<text text-anchor="middle" x="1410.5" y="-63.5" font-family="Helvetica,sans-Serif" font-size="10.00">OneEqKsgs.cpp</text>
</a>
</g>
</g>
<!-- Node24&#45;&gt;Node27 -->
<g id="edge36" class="edge">
<title>Node24&#45;&gt;Node27</title>
<path fill="none" stroke="midnightblue" d="M1247.52,-111.9C1284.37,-101.75 1343.55,-85.45 1379.54,-75.53"/>
<polygon fill="midnightblue" stroke="midnightblue" points="1246.46,-108.56 1237.75,-114.59 1248.32,-115.31 1246.46,-108.56"/>
</g>
<!-- Node26&#45;&gt;Node25 -->
<g id="edge35" class="edge">
<title>Node26&#45;&gt;Node25</title>
<path fill="none" stroke="midnightblue" d="M1285.35,-47.27C1290.47,-38.05 1296.52,-27.17 1300.64,-19.75"/>
<polygon fill="midnightblue" stroke="midnightblue" points="1282.25,-45.64 1280.45,-56.08 1288.37,-49.04 1282.25,-45.64"/>
</g>
<!-- Node29 -->
<g id="node29" class="node">
<title>Node29</title>
<g id="a_node29"><a xlink:href="vof_8cpp.html" target="_top" xlink:title=" ">
<polygon fill="white" stroke="black" points="1716.5,-0.5 1716.5,-19.5 1768.5,-19.5 1768.5,-0.5 1716.5,-0.5"/>
<text text-anchor="middle" x="1742.5" y="-7.5" font-family="Helvetica,sans-Serif" font-size="10.00">vof.cpp</text>
</a>
</g>
</g>
<!-- Node28&#45;&gt;Node29 -->
<g id="edge41" class="edge">
<title>Node28&#45;&gt;Node29</title>
<path fill="none" stroke="midnightblue" d="M1732.55,-105.53C1741.03,-97.71 1749.99,-87.45 1754.5,-76 1762.07,-56.78 1753.06,-32.46 1747.05,-19.7"/>
<polygon fill="midnightblue" stroke="midnightblue" points="1730.03,-103.07 1724.71,-112.24 1734.59,-108.39 1730.03,-103.07"/>
</g>
<!-- Node30 -->
<g id="node30" class="node">
<title>Node30</title>
<g id="a_node30"><a xlink:href="vof__advection_8_h.html" target="_top" xlink:title=" ">
<polygon fill="white" stroke="black" points="1801.5,-56.5 1801.5,-75.5 1897.5,-75.5 1897.5,-56.5 1801.5,-56.5"/>
<text text-anchor="middle" x="1849.5" y="-63.5" font-family="Helvetica,sans-Serif" font-size="10.00">vof_advection.H</text>
</a>
</g>
</g>
<!-- Node28&#45;&gt;Node30 -->
<g id="edge42" class="edge">
<title>Node28&#45;&gt;Node30</title>
<path fill="none" stroke="midnightblue" d="M1743.23,-108.89C1768.91,-98.77 1804.89,-84.59 1827.69,-75.6"/>
<polygon fill="midnightblue" stroke="midnightblue" points="1741.63,-105.76 1733.61,-112.68 1744.19,-112.27 1741.63,-105.76"/>
</g>
<!-- Node31 -->
<g id="node31" class="node">
<title>Node31</title>
<g id="a_node31"><a xlink:href="vof__bcop_8_h.html" target="_top" xlink:title=" ">
<polygon fill="white" stroke="black" points="1591,-56.5 1591,-75.5 1662,-75.5 1662,-56.5 1591,-56.5"/>
<text text-anchor="middle" x="1626.5" y="-63.5" font-family="Helvetica,sans-Serif" font-size="10.00">vof_bcop.H</text>
</a>
</g>
</g>
<!-- Node28&#45;&gt;Node31 -->
<g id="edge44" class="edge">
<title>Node28&#45;&gt;Node31</title>
<path fill="none" stroke="midnightblue" d="M1690.05,-106.9C1674.28,-97 1653.69,-84.07 1640.28,-75.65"/>
<polygon fill="midnightblue" stroke="midnightblue" points="1688.35,-109.97 1698.68,-112.32 1692.07,-104.04 1688.35,-109.97"/>
</g>
<!-- Node32 -->
<g id="node32" class="node">
<title>Node32</title>
<g id="a_node32"><a xlink:href="vof__ops_8_h.html" target="_top" xlink:title=" ">
<polygon fill="white" stroke="black" points="1680,-56.5 1680,-75.5 1745,-75.5 1745,-56.5 1680,-56.5"/>
<text text-anchor="middle" x="1712.5" y="-63.5" font-family="Helvetica,sans-Serif" font-size="10.00">vof_ops.H</text>
</a>
</g>
</g>
<!-- Node28&#45;&gt;Node32 -->
<g id="edge46" class="edge">
<title>Node28&#45;&gt;Node32</title>
<path fill="none" stroke="midnightblue" d="M1712.5,-101.8C1712.5,-92.91 1712.5,-82.78 1712.5,-75.75"/>
<polygon fill="midnightblue" stroke="midnightblue" points="1709,-102.08 1712.5,-112.08 1716,-102.08 1709,-102.08"/>
</g>
<!-- Node30&#45;&gt;Node29 -->
<g id="edge43" class="edge">
<title>Node30&#45;&gt;Node29</title>
<path fill="none" stroke="midnightblue" d="M1823.2,-51.73C1803.39,-41.73 1776.79,-28.31 1759.65,-19.65"/>
<polygon fill="midnightblue" stroke="midnightblue" points="1821.8,-54.94 1832.31,-56.32 1824.96,-48.69 1821.8,-54.94"/>
</g>
<!-- Node31&#45;&gt;Node29 -->
<g id="edge45" class="edge">
<title>Node31&#45;&gt;Node29</title>
<path fill="none" stroke="midnightblue" d="M1654.22,-52.1C1675.89,-42.01 1705.4,-28.27 1724.21,-19.52"/>
<polygon fill="midnightblue" stroke="midnightblue" points="1652.47,-49.05 1644.88,-56.44 1655.42,-55.4 1652.47,-49.05"/>
</g>
<!-- Node32&#45;&gt;Node29 -->
<g id="edge47" class="edge">
<title>Node32&#45;&gt;Node29</title>
<path fill="none" stroke="midnightblue" d="M1722.35,-47.27C1727.47,-38.05 1733.52,-27.17 1737.64,-19.75"/>
<polygon fill="midnightblue" stroke="midnightblue" points="1719.25,-45.64 1717.45,-56.08 1725.37,-49.04 1719.25,-45.64"/>
</g>
</g>
</svg>
        <g id="navigator" transform="translate(0 0)" fill="#404254">
                <rect fill="#f2f5e9" fill-opacity="0.5" stroke="#606060" stroke-width=".5" x="0" y="0" width="60" height="60"/>
                <use id="zoomplus" xlink:href="#zoomPlus" x="17" y="9" onmousedown="handleZoom(evt,'in')"/>
                <use id="zoomminus" xlink:href="#zoomMin" x="42" y="9" onmousedown="handleZoom(evt,'out')"/>
                <use id="reset" xlink:href="#resetDef" x="30" y="36" onmousedown="handleReset()"/>
                <g id="arrowUp" xlink:href="#dirArrow" transform="translate(30 24)" onmousedown="handlePan(0,-1)">
                  <use xlink:href="#rim" fill="#404040">
                        <set attributeName="fill" to="#808080" begin="arrowUp.mouseover" end="arrowUp.mouseout"/>
                  </use>
                  <path fill="none" stroke="white" stroke-width="1.5" d="M0,-3.0v7 M-2.5,-0.5L0,-3.0L2.5,-0.5"/>
                </g>
                <g id="arrowRight" xlink:href="#dirArrow" transform="rotate(90) translate(36 -43)" onmousedown="handlePan(1,0)">
                  <use xlink:href="#rim" fill="#404040">
                        <set attributeName="fill" to="#808080" begin="arrowRight.mouseover" end="arrowRight.mouseout"/>
                  </use>
                  <path fill="none" stroke="white" stroke-width="1.5" d="M0,-3.0v7 M-2.5,-0.5L0,-3.0L2.5,-0.5"/>
                </g>
                <g id="arrowDown" xlink:href="#dirArrow" transform="rotate(180) translate(-30 -48)" onmousedown="handlePan(0,1)">
                  <use xlink:href="#rim" fill="#404040">
                        <set attributeName="fill" to="#808080" begin="arrowDown.mouseover" end="arrowDown.mouseout"/>
                  </use>
                  <path fill="none" stroke="white" stroke-width="1.5" d="M0,-3.0v7 M-2.5,-0.5L0,-3.0L2.5,-0.5"/>
                </g>
                <g id="arrowLeft" xlink:href="#dirArrow" transform="rotate(270) translate(-36 17)" onmousedown="handlePan(-1,0)">
                  <use xlink:href="#rim" fill="#404040">
                        <set attributeName="fill" to="#808080" begin="arrowLeft.mouseover" end="arrowLeft.mouseout"/>
                  </use>
                  <path fill="none" stroke="white" stroke-width="1.5" d="M0,-3.0v7 M-2.5,-0.5L0,-3.0L2.5,-0.5"/>
                </g>
        </g>
        <svg viewBox="0 0 15 15" width="100%" height="30px" preserveAspectRatio="xMaxYMin meet">
         <g id="arrow_out" transform="scale(0.3 0.3)">
          <a xlink:href="_p_d_e_8_h__dep__incl_org.svg" target="_base">
           <rect id="button" ry="5" rx="5" y="6" x="6" height="38" width="38"
                fill="#f2f5e9" fill-opacity="0.5" stroke="#606060" stroke-width="1.0"/>
           <path id="arrow"
             d="M 11.500037,31.436501 C 11.940474,20.09759 22.043105,11.32322 32.158766,21.979434 L 37.068811,17.246167 C 37.068811,17.246167 37.088388,32 37.088388,32 L 22.160133,31.978069 C 22.160133,31.978069 26.997745,27.140456 26.997745,27.140456 C 18.528582,18.264221 13.291696,25.230495 11.500037,31.436501 z"
             style="fill:#404040;"/>
          </a>
         </g>
        </svg>
</svg>
