<?xml version="1.0" encoding="UTF-8" standalone="no"?>
<!DOCTYPE svg PUBLIC "-//W3C//DTD SVG 1.1//EN"
 "http://www.w3.org/Graphics/SVG/1.1/DTD/svg11.dtd">
<!-- Generated by graphviz version 2.43.0 (0)
 -->
<!-- Title: Physics.H Pages: 1 -->
<!--zoomable 196 -->
<svg id="main" version="1.1" xmlns="http://www.w3.org/2000/svg" xmlns:xlink="http://www.w3.org/1999/xlink" xml:space="preserve" onload="init(evt)">
<style type="text/css"><![CDATA[
.edge:hover path { stroke: red; }
.edge:hover polygon { stroke: red; fill: red; }
]]></style>
<script type="text/javascript"><![CDATA[
var edges = document.getElementsByTagName('g');
if (edges && edges.length) {
  for (var i=0;i<edges.length;i++) {
    if (edges[i].id.substr(0,4)=='edge') {
      edges[i].setAttribute('class','edge');
    }
  }
}
]]></script>
        <defs>
                <circle id="rim" cx="0" cy="0" r="7"/>
                <circle id="rim2" cx="0" cy="0" r="3.5"/>
                <g id="zoomPlus">
                        <use xlink:href="#rim" fill="#404040">
                                <set attributeName="fill" to="#808080" begin="zoomplus.mouseover" end="zoomplus.mouseout"/>
                        </use>
                        <path d="M-4,0h8M0,-4v8" fill="none" stroke="white" stroke-width="1.5" pointer-events="none"/>
                </g>
                <g id="zoomMin">
                        <use xlink:href="#rim" fill="#404040">
                                <set attributeName="fill" to="#808080" begin="zoomminus.mouseover" end="zoomminus.mouseout"/>
                        </use>
                        <path d="M-4,0h8" fill="none" stroke="white" stroke-width="1.5" pointer-events="none"/>
                </g>
                <g id="dirArrow">
                        <path fill="none" stroke="white" stroke-width="1.5" d="M0,-3.0v7 M-2.5,-0.5L0,-3.0L2.5,-0.5"/>
                </g>
               <g id="resetDef">
                       <use xlink:href="#rim2" fill="#404040">
                               <set attributeName="fill" to="#808080" begin="reset.mouseover" end="reset.mouseout"/>
                       </use>
               </g>
        </defs>

<script type="text/javascript">
var viewWidth = 4567;
var viewHeight = 196;
var sectionId = 'dynsection-1';
</script>
<script xlink:href="svgpan.js"/>
<svg id="graph" class="graph">
<g id="viewport">
<title>Physics.H</title>
<polygon fill="white" stroke="transparent" points="-4,4 -4,-192 4563,-192 4563,4 -4,4"/>
<!-- Node1 -->
<g id="node1" class="node">
<title>Node1</title>
<g id="a_node1"><a xlink:title=" ">
<polygon fill="#bfbfbf" stroke="black" points="2921,-168.5 2921,-187.5 2985,-187.5 2985,-168.5 2921,-168.5"/>
<text text-anchor="middle" x="2953" y="-175.5" font-family="Helvetica,sans-Serif" font-size="10.00">Physics.H</text>
</a>
</g>
</g>
<!-- Node2 -->
<g id="node2" class="node">
<title>Node2</title>
<g id="a_node2"><a xlink:href="_c_f_d_sim_8_h.html" target="_top" xlink:title=" ">
<polygon fill="white" stroke="red" points="1755,-112.5 1755,-131.5 1821,-131.5 1821,-112.5 1755,-112.5"/>
<text text-anchor="middle" x="1788" y="-119.5" font-family="Helvetica,sans-Serif" font-size="10.00">CFDSim.H</text>
</a>
</g>
</g>
<!-- Node1&#45;&gt;Node2 -->
<g id="edge1" class="edge">
<title>Node1&#45;&gt;Node2</title>
<path fill="none" stroke="midnightblue" d="M2910.78,-175.04C2725.55,-166.46 1986.75,-132.21 1821.08,-124.53"/>
<polygon fill="midnightblue" stroke="midnightblue" points="2910.78,-178.55 2920.93,-175.51 2911.1,-171.55 2910.78,-178.55"/>
</g>
<!-- Node99 -->
<g id="node23" class="node">
<title>Node99</title>
<g id="a_node23"><a xlink:href="_channel_flow_8_h.html" target="_top" xlink:title=" ">
<polygon fill="white" stroke="red" points="2356.5,-56.5 2356.5,-75.5 2445.5,-75.5 2445.5,-56.5 2356.5,-56.5"/>
<text text-anchor="middle" x="2401" y="-63.5" font-family="Helvetica,sans-Serif" font-size="10.00">ChannelFlow.H</text>
</a>
</g>
</g>
<!-- Node1&#45;&gt;Node99 -->
<g id="edge35" class="edge">
<title>Node1&#45;&gt;Node99</title>
<path fill="none" stroke="midnightblue" d="M2910.55,-176.37C2836.38,-174.36 2678.91,-166.05 2551,-132 2499.71,-118.35 2443.32,-89.96 2416.64,-75.64"/>
<polygon fill="midnightblue" stroke="midnightblue" points="2910.79,-179.87 2920.88,-176.62 2910.97,-172.88 2910.79,-179.87"/>
</g>
<!-- Node101 -->
<g id="node24" class="node">
<title>Node101</title>
<g id="a_node24"><a xlink:href="_convecting_taylor_vortex_8_h.html" target="_top" xlink:title=" ">
<polygon fill="white" stroke="red" points="2463.5,-56.5 2463.5,-75.5 2606.5,-75.5 2606.5,-56.5 2463.5,-56.5"/>
<text text-anchor="middle" x="2535" y="-63.5" font-family="Helvetica,sans-Serif" font-size="10.00">ConvectingTaylorVortex.H</text>
</a>
</g>
</g>
<!-- Node1&#45;&gt;Node101 -->
<g id="edge36" class="edge">
<title>Node1&#45;&gt;Node101</title>
<path fill="none" stroke="midnightblue" d="M2910.93,-176.59C2824.15,-175.01 2628.86,-167.5 2574,-132 2553.45,-118.7 2542.17,-90.42 2537.54,-75.94"/>
<polygon fill="midnightblue" stroke="midnightblue" points="2910.9,-180.09 2920.95,-176.75 2911.01,-173.09 2910.9,-180.09"/>
</g>
<!-- Node103 -->
<g id="node25" class="node">
<title>Node103</title>
<g id="a_node25"><a xlink:href="_ekman_spiral_8_h.html" target="_top" xlink:title=" ">
<polygon fill="white" stroke="red" points="2624.5,-56.5 2624.5,-75.5 2713.5,-75.5 2713.5,-56.5 2624.5,-56.5"/>
<text text-anchor="middle" x="2669" y="-63.5" font-family="Helvetica,sans-Serif" font-size="10.00">EkmanSpiral.H</text>
</a>
</g>
</g>
<!-- Node1&#45;&gt;Node103 -->
<g id="edge37" class="edge">
<title>Node1&#45;&gt;Node103</title>
<path fill="none" stroke="midnightblue" d="M2910.88,-174.95C2818.67,-170.04 2605.4,-156.16 2584,-132 2562.76,-108.01 2608.74,-86.84 2640.99,-75.58"/>
<polygon fill="midnightblue" stroke="midnightblue" points="2910.82,-178.45 2920.98,-175.48 2911.18,-171.46 2910.82,-178.45"/>
</g>
<!-- Node106 -->
<g id="node26" class="node">
<title>Node106</title>
<g id="a_node26"><a xlink:href="_hybrid_r_a_n_s_l_e_s_a_b_l_8_h.html" target="_top" xlink:title=" ">
<polygon fill="white" stroke="red" points="2731.5,-56.5 2731.5,-75.5 2854.5,-75.5 2854.5,-56.5 2731.5,-56.5"/>
<text text-anchor="middle" x="2793" y="-63.5" font-family="Helvetica,sans-Serif" font-size="10.00">HybridRANSLESABL.H</text>
</a>
</g>
</g>
<!-- Node1&#45;&gt;Node106 -->
<g id="edge39" class="edge">
<title>Node1&#45;&gt;Node106</title>
<path fill="none" stroke="midnightblue" d="M2910.65,-174.8C2820.01,-169.67 2613.75,-155.51 2593,-132 2587.12,-125.34 2587.45,-118.94 2593,-112 2602.21,-100.48 2683.34,-85.02 2739.39,-75.54"/>
<polygon fill="midnightblue" stroke="midnightblue" points="2910.67,-178.31 2920.85,-175.37 2911.06,-171.32 2910.67,-178.31"/>
</g>
<!-- Node108 -->
<g id="node27" class="node">
<title>Node108</title>
<g id="a_node27"><a xlink:href="_m_m_s_8_h.html" target="_top" xlink:title=" ">
<polygon fill="white" stroke="red" points="2872.5,-56.5 2872.5,-75.5 2923.5,-75.5 2923.5,-56.5 2872.5,-56.5"/>
<text text-anchor="middle" x="2898" y="-63.5" font-family="Helvetica,sans-Serif" font-size="10.00">MMS.H</text>
</a>
</g>
</g>
<!-- Node1&#45;&gt;Node108 -->
<g id="edge40" class="edge">
<title>Node1&#45;&gt;Node108</title>
<path fill="none" stroke="midnightblue" d="M2910.74,-174.66C2821.87,-169.32 2622.13,-154.88 2602,-132 2596.13,-125.33 2596.16,-118.7 2602,-112 2640.62,-67.71 2806.38,-87.54 2864,-76 2866.75,-75.45 2869.62,-74.8 2872.46,-74.12"/>
<polygon fill="midnightblue" stroke="midnightblue" points="2910.57,-178.16 2920.76,-175.26 2910.98,-171.17 2910.57,-178.16"/>
</g>
<!-- Node121 -->
<g id="node28" class="node">
<title>Node121</title>
<g id="a_node28"><a xlink:href="_synthetic_turbulence_8_h.html" target="_top" xlink:title=" ">
<polygon fill="white" stroke="red" points="2941.5,-56.5 2941.5,-75.5 3066.5,-75.5 3066.5,-56.5 2941.5,-56.5"/>
<text text-anchor="middle" x="3004" y="-63.5" font-family="Helvetica,sans-Serif" font-size="10.00">SyntheticTurbulence.H</text>
</a>
</g>
</g>
<!-- Node1&#45;&gt;Node121 -->
<g id="edge52" class="edge">
<title>Node1&#45;&gt;Node121</title>
<path fill="none" stroke="midnightblue" d="M2910.92,-174.52C2823.88,-168.98 2630.52,-154.25 2611,-132 2605.14,-125.32 2605.07,-118.63 2611,-112 2659,-58.33 2861.51,-84.53 2933,-76 2935.71,-75.68 2938.49,-75.34 2941.29,-75"/>
<polygon fill="midnightblue" stroke="midnightblue" points="2910.79,-178.02 2920.99,-175.16 2911.23,-171.04 2910.79,-178.02"/>
</g>
<!-- Node213 -->
<g id="node29" class="node">
<title>Node213</title>
<g id="a_node29"><a xlink:href="_i_b_8_h.html" target="_top" xlink:title=" ">
<polygon fill="white" stroke="red" points="2619.5,-112.5 2619.5,-131.5 2656.5,-131.5 2656.5,-112.5 2619.5,-112.5"/>
<text text-anchor="middle" x="2638" y="-119.5" font-family="Helvetica,sans-Serif" font-size="10.00">IB.H</text>
</a>
</g>
</g>
<!-- Node1&#45;&gt;Node213 -->
<g id="edge30" class="edge">
<title>Node1&#45;&gt;Node213</title>
<path fill="none" stroke="midnightblue" d="M2910.87,-172.47C2854.57,-165.95 2751.92,-152.41 2666,-132 2662.92,-131.27 2659.69,-130.36 2656.56,-129.41"/>
<polygon fill="midnightblue" stroke="midnightblue" points="2910.5,-175.95 2920.83,-173.61 2911.29,-169 2910.5,-175.95"/>
</g>
<!-- Node78 -->
<g id="node30" class="node">
<title>Node78</title>
<g id="a_node30"><a xlink:href="incflo__advance_8cpp.html" target="_top" xlink:title=" ">
<polygon fill="white" stroke="black" points="2675,-112.5 2675,-131.5 2785,-131.5 2785,-112.5 2675,-112.5"/>
<text text-anchor="middle" x="2730" y="-119.5" font-family="Helvetica,sans-Serif" font-size="10.00">incflo_advance.cpp</text>
</a>
</g>
</g>
<!-- Node1&#45;&gt;Node78 -->
<g id="edge31" class="edge">
<title>Node1&#45;&gt;Node78</title>
<path fill="none" stroke="midnightblue" d="M2910.64,-166.74C2868.59,-156.56 2804.86,-141.13 2765.41,-131.58"/>
<polygon fill="midnightblue" stroke="midnightblue" points="2910.03,-170.2 2920.57,-169.15 2911.68,-163.39 2910.03,-170.2"/>
</g>
<!-- Node214 -->
<g id="node31" class="node">
<title>Node214</title>
<g id="a_node31"><a xlink:href="_ocean_waves_8_h.html" target="_top" xlink:title=" ">
<polygon fill="white" stroke="red" points="2803,-112.5 2803,-131.5 2893,-131.5 2893,-112.5 2803,-112.5"/>
<text text-anchor="middle" x="2848" y="-119.5" font-family="Helvetica,sans-Serif" font-size="10.00">OceanWaves.H</text>
</a>
</g>
</g>
<!-- Node1&#45;&gt;Node214 -->
<g id="edge32" class="edge">
<title>Node1&#45;&gt;Node214</title>
<path fill="none" stroke="midnightblue" d="M2927.19,-163.73C2907.75,-153.73 2881.65,-140.31 2864.83,-131.65"/>
<polygon fill="midnightblue" stroke="midnightblue" points="2925.64,-166.86 2936.13,-168.32 2928.84,-160.64 2925.64,-166.86"/>
</g>
<!-- Node215 -->
<g id="node32" class="node">
<title>Node215</title>
<g id="a_node32"><a xlink:href="_boussinesq_bubble_8_h.html" target="_top" xlink:title=" ">
<polygon fill="white" stroke="red" points="0,-112.5 0,-131.5 116,-131.5 116,-112.5 0,-112.5"/>
<text text-anchor="middle" x="58" y="-119.5" font-family="Helvetica,sans-Serif" font-size="10.00">BoussinesqBubble.H</text>
</a>
</g>
</g>
<!-- Node1&#45;&gt;Node215 -->
<g id="edge33" class="edge">
<title>Node1&#45;&gt;Node215</title>
<path fill="none" stroke="midnightblue" d="M2910.77,-176.68C2606.02,-174.28 739.16,-158.71 173,-132 154.5,-131.13 134.35,-129.71 116.16,-128.26"/>
<polygon fill="midnightblue" stroke="midnightblue" points="2910.92,-180.18 2920.94,-176.76 2910.97,-173.18 2910.92,-180.18"/>
</g>
<!-- Node83 -->
<g id="node33" class="node">
<title>Node83</title>
<g id="a_node33"><a xlink:href="init_8cpp.html" target="_top" xlink:title=" ">
<polygon fill="white" stroke="black" points="9.5,-56.5 9.5,-75.5 62.5,-75.5 62.5,-56.5 9.5,-56.5"/>
<text text-anchor="middle" x="36" y="-63.5" font-family="Helvetica,sans-Serif" font-size="10.00">init.cpp</text>
</a>
</g>
</g>
<!-- Node1&#45;&gt;Node83 -->
<g id="edge55" class="edge">
<title>Node1&#45;&gt;Node83</title>
<path fill="none" stroke="midnightblue" d="M2910.5,-177.1C2585.72,-177.72 502.07,-179.86 227,-132 161.61,-120.62 88.37,-90.47 54.73,-75.58"/>
<polygon fill="midnightblue" stroke="midnightblue" points="2910.88,-180.6 2920.88,-177.08 2910.87,-173.6 2910.88,-180.6"/>
</g>
<!-- Node216 -->
<g id="node34" class="node">
<title>Node216</title>
<g id="a_node34"><a xlink:href="_free_stream_8_h.html" target="_top" xlink:title=" ">
<polygon fill="white" stroke="red" points="2911.5,-112.5 2911.5,-131.5 2994.5,-131.5 2994.5,-112.5 2911.5,-112.5"/>
<text text-anchor="middle" x="2953" y="-119.5" font-family="Helvetica,sans-Serif" font-size="10.00">FreeStream.H</text>
</a>
</g>
</g>
<!-- Node1&#45;&gt;Node216 -->
<g id="edge38" class="edge">
<title>Node1&#45;&gt;Node216</title>
<path fill="none" stroke="midnightblue" d="M2953,-157.8C2953,-148.91 2953,-138.78 2953,-131.75"/>
<polygon fill="midnightblue" stroke="midnightblue" points="2949.5,-158.08 2953,-168.08 2956.5,-158.08 2949.5,-158.08"/>
</g>
<!-- Node217 -->
<g id="node35" class="node">
<title>Node217</title>
<g id="a_node35"><a xlink:href="_breaking_waves_8_h.html" target="_top" xlink:title=" ">
<polygon fill="white" stroke="red" points="3012.5,-112.5 3012.5,-131.5 3115.5,-131.5 3115.5,-112.5 3012.5,-112.5"/>
<text text-anchor="middle" x="3064" y="-119.5" font-family="Helvetica,sans-Serif" font-size="10.00">BreakingWaves.H</text>
</a>
</g>
</g>
<!-- Node1&#45;&gt;Node217 -->
<g id="edge41" class="edge">
<title>Node1&#45;&gt;Node217</title>
<path fill="none" stroke="midnightblue" d="M2980.01,-163.86C3000.59,-153.85 3028.34,-140.35 3046.21,-131.65"/>
<polygon fill="midnightblue" stroke="midnightblue" points="2978.3,-160.8 2970.83,-168.32 2981.36,-167.1 2978.3,-160.8"/>
</g>
<!-- Node218 -->
<g id="node36" class="node">
<title>Node218</title>
<g id="a_node36"><a xlink:href="_dam_break_8_h.html" target="_top" xlink:title=" ">
<polygon fill="white" stroke="red" points="3133.5,-112.5 3133.5,-131.5 3212.5,-131.5 3212.5,-112.5 3133.5,-112.5"/>
<text text-anchor="middle" x="3173" y="-119.5" font-family="Helvetica,sans-Serif" font-size="10.00">DamBreak.H</text>
</a>
</g>
</g>
<!-- Node1&#45;&gt;Node218 -->
<g id="edge42" class="edge">
<title>Node1&#45;&gt;Node218</title>
<path fill="none" stroke="midnightblue" d="M2995.28,-166.62C3036.83,-156.42 3099.48,-141.05 3138.22,-131.54"/>
<polygon fill="midnightblue" stroke="midnightblue" points="2994.34,-163.25 2985.46,-169.03 2996.01,-170.05 2994.34,-163.25"/>
</g>
<!-- Node219 -->
<g id="node37" class="node">
<title>Node219</title>
<g id="a_node37"><a xlink:href="_multi_phase_8_h.html" target="_top" xlink:title=" ">
<polygon fill="white" stroke="red" points="3230.5,-112.5 3230.5,-131.5 3311.5,-131.5 3311.5,-112.5 3230.5,-112.5"/>
<text text-anchor="middle" x="3271" y="-119.5" font-family="Helvetica,sans-Serif" font-size="10.00">MultiPhase.H</text>
</a>
</g>
</g>
<!-- Node1&#45;&gt;Node219 -->
<g id="edge43" class="edge">
<title>Node1&#45;&gt;Node219</title>
<path fill="none" stroke="midnightblue" d="M2995.38,-170.12C3048.4,-161.47 3141.99,-146.04 3222,-132 3224.73,-131.52 3227.54,-131.02 3230.37,-130.51"/>
<polygon fill="midnightblue" stroke="midnightblue" points="2994.63,-166.7 2985.33,-171.76 2995.76,-173.61 2994.63,-166.7"/>
</g>
<!-- Node222 -->
<g id="node38" class="node">
<title>Node222</title>
<g id="a_node38"><a xlink:href="_rain_drop_8_h.html" target="_top" xlink:title=" ">
<polygon fill="white" stroke="red" points="3330,-112.5 3330,-131.5 3402,-131.5 3402,-112.5 3330,-112.5"/>
<text text-anchor="middle" x="3366" y="-119.5" font-family="Helvetica,sans-Serif" font-size="10.00">RainDrop.H</text>
</a>
</g>
</g>
<!-- Node1&#45;&gt;Node222 -->
<g id="edge44" class="edge">
<title>Node1&#45;&gt;Node222</title>
<path fill="none" stroke="midnightblue" d="M2995.09,-172.9C3063.6,-165.99 3203.44,-150.92 3321,-132 3323.83,-131.54 3326.76,-131.04 3329.69,-130.51"/>
<polygon fill="midnightblue" stroke="midnightblue" points="2994.71,-169.42 2985.11,-173.9 2995.41,-176.39 2994.71,-169.42"/>
</g>
<!-- Node223 -->
<g id="node39" class="node">
<title>Node223</title>
<g id="a_node39"><a xlink:href="_sloshing_tank_8_h.html" target="_top" xlink:title=" ">
<polygon fill="white" stroke="red" points="3420.5,-112.5 3420.5,-131.5 3511.5,-131.5 3511.5,-112.5 3420.5,-112.5"/>
<text text-anchor="middle" x="3466" y="-119.5" font-family="Helvetica,sans-Serif" font-size="10.00">SloshingTank.H</text>
</a>
</g>
</g>
<!-- Node1&#45;&gt;Node223 -->
<g id="edge45" class="edge">
<title>Node1&#45;&gt;Node223</title>
<path fill="none" stroke="midnightblue" d="M2995.28,-173.76C3076.18,-167.36 3258.42,-151.96 3411,-132 3414.07,-131.6 3417.23,-131.16 3420.41,-130.69"/>
<polygon fill="midnightblue" stroke="midnightblue" points="2994.7,-170.29 2985.01,-174.57 2995.25,-177.27 2994.7,-170.29"/>
</g>
<!-- Node224 -->
<g id="node40" class="node">
<title>Node224</title>
<g id="a_node40"><a xlink:href="_vortex_patch_8_h.html" target="_top" xlink:title=" ">
<polygon fill="white" stroke="red" points="3529.5,-112.5 3529.5,-131.5 3614.5,-131.5 3614.5,-112.5 3529.5,-112.5"/>
<text text-anchor="middle" x="3572" y="-119.5" font-family="Helvetica,sans-Serif" font-size="10.00">VortexPatch.H</text>
</a>
</g>
</g>
<!-- Node1&#45;&gt;Node224 -->
<g id="edge46" class="edge">
<title>Node1&#45;&gt;Node224</title>
<path fill="none" stroke="midnightblue" d="M2995.15,-175.04C3089.59,-170.35 3325.22,-156.97 3521,-132 3523.76,-131.65 3526.61,-131.25 3529.47,-130.82"/>
<polygon fill="midnightblue" stroke="midnightblue" points="2994.95,-171.55 2985.14,-175.53 2995.3,-178.54 2994.95,-171.55"/>
</g>
<!-- Node225 -->
<g id="node41" class="node">
<title>Node225</title>
<g id="a_node41"><a xlink:href="_vortex_patch_scalar_vel_8_h.html" target="_top" xlink:title=" ">
<polygon fill="white" stroke="red" points="3633,-112.5 3633,-131.5 3763,-131.5 3763,-112.5 3633,-112.5"/>
<text text-anchor="middle" x="3698" y="-119.5" font-family="Helvetica,sans-Serif" font-size="10.00">VortexPatchScalarVel.H</text>
</a>
</g>
</g>
<!-- Node1&#45;&gt;Node225 -->
<g id="edge47" class="edge">
<title>Node1&#45;&gt;Node225</title>
<path fill="none" stroke="midnightblue" d="M2995.47,-174.95C3101.59,-169.66 3386.88,-154.35 3624,-132 3626.83,-131.73 3629.73,-131.44 3632.65,-131.14"/>
<polygon fill="midnightblue" stroke="midnightblue" points="2994.99,-171.47 2985.18,-175.46 2995.34,-178.46 2994.99,-171.47"/>
</g>
<!-- Node226 -->
<g id="node42" class="node">
<title>Node226</title>
<g id="a_node42"><a xlink:href="_zalesak_disk_8_h.html" target="_top" xlink:title=" ">
<polygon fill="white" stroke="red" points="3781,-112.5 3781,-131.5 3869,-131.5 3869,-112.5 3781,-112.5"/>
<text text-anchor="middle" x="3825" y="-119.5" font-family="Helvetica,sans-Serif" font-size="10.00">ZalesakDisk.H</text>
</a>
</g>
</g>
<!-- Node1&#45;&gt;Node226 -->
<g id="edge48" class="edge">
<title>Node1&#45;&gt;Node226</title>
<path fill="none" stroke="midnightblue" d="M2995.45,-176.36C3116.88,-174.17 3475.97,-165.16 3772,-132 3774.88,-131.68 3777.83,-131.3 3780.81,-130.89"/>
<polygon fill="midnightblue" stroke="midnightblue" points="2995.05,-172.87 2985.11,-176.54 2995.17,-179.87 2995.05,-172.87"/>
</g>
<!-- Node227 -->
<g id="node43" class="node">
<title>Node227</title>
<g id="a_node43"><a xlink:href="_zalesak_disk_scalar_vel_8_h.html" target="_top" xlink:title=" ">
<polygon fill="white" stroke="red" points="3887.5,-112.5 3887.5,-131.5 4020.5,-131.5 4020.5,-112.5 3887.5,-112.5"/>
<text text-anchor="middle" x="3954" y="-119.5" font-family="Helvetica,sans-Serif" font-size="10.00">ZalesakDiskScalarVel.H</text>
</a>
</g>
</g>
<!-- Node1&#45;&gt;Node227 -->
<g id="edge49" class="edge">
<title>Node1&#45;&gt;Node227</title>
<path fill="none" stroke="midnightblue" d="M2995.01,-175.99C3125.9,-172.63 3537.92,-160.37 3878,-132 3881.05,-131.75 3884.16,-131.46 3887.3,-131.16"/>
<polygon fill="midnightblue" stroke="midnightblue" points="2994.91,-172.49 2985,-176.25 2995.09,-179.49 2994.91,-172.49"/>
</g>
<!-- Node228 -->
<g id="node44" class="node">
<title>Node228</title>
<g id="a_node44"><a xlink:href="_rayleigh_taylor_8_h.html" target="_top" xlink:title=" ">
<polygon fill="white" stroke="red" points="4039,-112.5 4039,-131.5 4137,-131.5 4137,-112.5 4039,-112.5"/>
<text text-anchor="middle" x="4088" y="-119.5" font-family="Helvetica,sans-Serif" font-size="10.00">RayleighTaylor.H</text>
</a>
</g>
</g>
<!-- Node1&#45;&gt;Node228 -->
<g id="edge50" class="edge">
<title>Node1&#45;&gt;Node228</title>
<path fill="none" stroke="midnightblue" d="M2995.48,-176.93C3140.45,-176.35 3628.9,-171.37 4030,-132 4032.84,-131.72 4035.75,-131.4 4038.69,-131.04"/>
<polygon fill="midnightblue" stroke="midnightblue" points="2995.24,-173.44 2985.25,-176.97 2995.26,-180.44 2995.24,-173.44"/>
</g>
<!-- Node229 -->
<g id="node45" class="node">
<title>Node229</title>
<g id="a_node45"><a xlink:href="_scalar_advection_8_h.html" target="_top" xlink:title=" ">
<polygon fill="white" stroke="red" points="4155,-112.5 4155,-131.5 4261,-131.5 4261,-112.5 4155,-112.5"/>
<text text-anchor="middle" x="4208" y="-119.5" font-family="Helvetica,sans-Serif" font-size="10.00">ScalarAdvection.H</text>
</a>
</g>
</g>
<!-- Node1&#45;&gt;Node229 -->
<g id="edge51" class="edge">
<title>Node1&#45;&gt;Node229</title>
<path fill="none" stroke="midnightblue" d="M2995.36,-177.03C3149.8,-176.79 3697.06,-172.93 4146,-132 4148.92,-131.73 4151.92,-131.42 4154.94,-131.08"/>
<polygon fill="midnightblue" stroke="midnightblue" points="2995.34,-173.53 2985.35,-177.04 2995.35,-180.53 2995.34,-173.53"/>
</g>
<!-- Node230 -->
<g id="node46" class="node">
<title>Node230</title>
<g id="a_node46"><a xlink:href="_taylor_green_vortex_8_h.html" target="_top" xlink:title=" ">
<polygon fill="white" stroke="red" points="4279.5,-112.5 4279.5,-131.5 4396.5,-131.5 4396.5,-112.5 4279.5,-112.5"/>
<text text-anchor="middle" x="4338" y="-119.5" font-family="Helvetica,sans-Serif" font-size="10.00">TaylorGreenVortex.H</text>
</a>
</g>
</g>
<!-- Node1&#45;&gt;Node230 -->
<g id="edge53" class="edge">
<title>Node1&#45;&gt;Node230</title>
<path fill="none" stroke="midnightblue" d="M2995.32,-177.05C3159.45,-176.93 3769.71,-173.56 4270,-132 4273.09,-131.74 4276.25,-131.45 4279.43,-131.12"/>
<polygon fill="midnightblue" stroke="midnightblue" points="2995.15,-173.55 2985.16,-177.05 2995.16,-180.55 2995.15,-173.55"/>
</g>
<!-- Node231 -->
<g id="node47" class="node">
<title>Node231</title>
<g id="a_node47"><a xlink:href="_vortex_ring_8_h.html" target="_top" xlink:title=" ">
<polygon fill="white" stroke="red" points="4415,-112.5 4415,-131.5 4495,-131.5 4495,-112.5 4415,-112.5"/>
<text text-anchor="middle" x="4455" y="-119.5" font-family="Helvetica,sans-Serif" font-size="10.00">VortexRing.H</text>
</a>
</g>
</g>
<!-- Node1&#45;&gt;Node231 -->
<g id="edge54" class="edge">
<title>Node1&#45;&gt;Node231</title>
<path fill="none" stroke="midnightblue" d="M2995.29,-176.55C3203.58,-174.21 4121.87,-162.32 4406,-132 4408.92,-131.69 4411.94,-131.3 4414.96,-130.86"/>
<polygon fill="midnightblue" stroke="midnightblue" points="2995.03,-173.05 2985.07,-176.66 2995.11,-180.05 2995.03,-173.05"/>
</g>
<!-- Node85 -->
<g id="node48" class="node">
<title>Node85</title>
<g id="a_node48"><a xlink:href="io_8cpp.html" target="_top" xlink:title=" ">
<polygon fill="white" stroke="black" points="4513,-112.5 4513,-131.5 4559,-131.5 4559,-112.5 4513,-112.5"/>
<text text-anchor="middle" x="4536" y="-119.5" font-family="Helvetica,sans-Serif" font-size="10.00">io.cpp</text>
</a>
</g>
</g>
<!-- Node1&#45;&gt;Node85 -->
<g id="edge56" class="edge">
<title>Node1&#45;&gt;Node85</title>
<path fill="none" stroke="midnightblue" d="M2995.06,-177.17C3211.46,-177.84 4201.06,-178.28 4504,-132 4506.85,-131.56 4509.81,-130.96 4512.73,-130.26"/>
<polygon fill="midnightblue" stroke="midnightblue" points="2995.07,-173.67 2985.05,-177.14 2995.04,-180.67 2995.07,-173.67"/>
</g>
<!-- Node152 -->
<g id="node49" class="node">
<title>Node152</title>
<g id="a_node49"><a xlink:href="_a_b_l_8_h.html" target="_top" xlink:title=" ">
<polygon fill="white" stroke="red" points="236,-112.5 236,-131.5 282,-131.5 282,-112.5 236,-112.5"/>
<text text-anchor="middle" x="259" y="-119.5" font-family="Helvetica,sans-Serif" font-size="10.00">ABL.H</text>
</a>
</g>
</g>
<!-- Node1&#45;&gt;Node152 -->
<g id="edge57" class="edge">
<title>Node1&#45;&gt;Node152</title>
<path fill="none" stroke="midnightblue" d="M2910.54,-176.15C2587.46,-169.67 523.34,-128.3 282.02,-123.46"/>
<polygon fill="midnightblue" stroke="midnightblue" points="2910.8,-179.65 2920.87,-176.36 2910.94,-172.66 2910.8,-179.65"/>
</g>
<!-- Node232 -->
<g id="node50" class="node">
<title>Node232</title>
<g id="a_node50"><a xlink:href="_actuator_8_h.html" target="_top" xlink:title=" ">
<polygon fill="white" stroke="red" points="1087,-112.5 1087,-131.5 1155,-131.5 1155,-112.5 1087,-112.5"/>
<text text-anchor="middle" x="1121" y="-119.5" font-family="Helvetica,sans-Serif" font-size="10.00">Actuator.H</text>
</a>
</g>
</g>
<!-- Node1&#45;&gt;Node232 -->
<g id="edge62" class="edge">
<title>Node1&#45;&gt;Node232</title>
<path fill="none" stroke="midnightblue" d="M2910.69,-175.75C2660.79,-168.39 1381.02,-130.66 1155.1,-124.01"/>
<polygon fill="midnightblue" stroke="midnightblue" points="2910.72,-179.26 2920.81,-176.05 2910.92,-172.26 2910.72,-179.26"/>
</g>
<!-- Node3 -->
<g id="node3" class="node">
<title>Node3</title>
<g id="a_node3"><a xlink:href="_c_f_d_sim_8cpp.html" target="_top" xlink:title=" ">
<polygon fill="white" stroke="black" points="2262,-56.5 2262,-75.5 2338,-75.5 2338,-56.5 2262,-56.5"/>
<text text-anchor="middle" x="2300" y="-63.5" font-family="Helvetica,sans-Serif" font-size="10.00">CFDSim.cpp</text>
</a>
</g>
</g>
<!-- Node2&#45;&gt;Node3 -->
<g id="edge2" class="edge">
<title>Node2&#45;&gt;Node3</title>
<path fill="none" stroke="midnightblue" d="M1831.09,-118.17C1913.38,-112.47 2098.45,-98.23 2253,-76 2255.88,-75.59 2258.85,-75.12 2261.83,-74.62"/>
<polygon fill="midnightblue" stroke="midnightblue" points="1830.85,-114.68 1821.11,-118.86 1831.32,-121.66 1830.85,-114.68"/>
</g>
<!-- Node4 -->
<g id="node4" class="node">
<title>Node4</title>
<g id="a_node4"><a xlink:href="_mesh_map_8cpp.html" target="_top" xlink:title=" ">
<polygon fill="white" stroke="black" points="615,-56.5 615,-75.5 699,-75.5 699,-56.5 615,-56.5"/>
<text text-anchor="middle" x="657" y="-63.5" font-family="Helvetica,sans-Serif" font-size="10.00">MeshMap.cpp</text>
</a>
</g>
</g>
<!-- Node2&#45;&gt;Node4 -->
<g id="edge3" class="edge">
<title>Node2&#45;&gt;Node4</title>
<path fill="none" stroke="midnightblue" d="M1744.37,-121.26C1597.67,-121.69 1108.88,-119.53 708,-76 705.14,-75.69 702.2,-75.32 699.24,-74.9"/>
<polygon fill="midnightblue" stroke="midnightblue" points="1744.75,-124.76 1754.74,-121.22 1744.73,-117.76 1744.75,-124.76"/>
</g>
<!-- Node5 -->
<g id="node5" class="node">
<title>Node5</title>
<g id="a_node5"><a xlink:href="_a_b_l_forcing_8cpp.html" target="_top" xlink:title=" ">
<polygon fill="white" stroke="black" points="80.5,-56.5 80.5,-75.5 171.5,-75.5 171.5,-56.5 80.5,-56.5"/>
<text text-anchor="middle" x="126" y="-63.5" font-family="Helvetica,sans-Serif" font-size="10.00">ABLForcing.cpp</text>
</a>
</g>
</g>
<!-- Node2&#45;&gt;Node5 -->
<g id="edge4" class="edge">
<title>Node2&#45;&gt;Node5</title>
<path fill="none" stroke="midnightblue" d="M1744.92,-120.14C1505.16,-115.31 340.39,-91.2 181,-76 177.92,-75.71 174.75,-75.34 171.56,-74.94"/>
<polygon fill="midnightblue" stroke="midnightblue" points="1744.92,-123.64 1754.99,-120.34 1745.06,-116.64 1744.92,-123.64"/>
</g>
<!-- Node6 -->
<g id="node6" class="node">
<title>Node6</title>
<g id="a_node6"><a xlink:href="_a_b_l_mean_boussinesq_8cpp.html" target="_top" xlink:title=" ">
<polygon fill="white" stroke="black" points="190,-56.5 190,-75.5 328,-75.5 328,-56.5 190,-56.5"/>
<text text-anchor="middle" x="259" y="-63.5" font-family="Helvetica,sans-Serif" font-size="10.00">ABLMeanBoussinesq.cpp</text>
</a>
</g>
</g>
<!-- Node2&#45;&gt;Node6 -->
<g id="edge5" class="edge">
<title>Node2&#45;&gt;Node6</title>
<path fill="none" stroke="midnightblue" d="M1744.76,-120.15C1534.89,-115.95 621.11,-96.76 337,-76 334.14,-75.79 331.23,-75.56 328.29,-75.3"/>
<polygon fill="midnightblue" stroke="midnightblue" points="1744.71,-123.65 1754.78,-120.35 1744.85,-116.65 1744.71,-123.65"/>
</g>
<!-- Node7 -->
<g id="node7" class="node">
<title>Node7</title>
<g id="a_node7"><a xlink:href="_actuator_forcing_8cpp.html" target="_top" xlink:title=" ">
<polygon fill="white" stroke="black" points="483.5,-56.5 483.5,-75.5 596.5,-75.5 596.5,-56.5 483.5,-56.5"/>
<text text-anchor="middle" x="540" y="-63.5" font-family="Helvetica,sans-Serif" font-size="10.00">ActuatorForcing.cpp</text>
</a>
</g>
</g>
<!-- Node2&#45;&gt;Node7 -->
<g id="edge6" class="edge">
<title>Node2&#45;&gt;Node7</title>
<path fill="none" stroke="midnightblue" d="M1744.48,-120.87C1589.41,-120.09 1049.48,-114.59 606,-76 603,-75.74 599.94,-75.44 596.84,-75.11"/>
<polygon fill="midnightblue" stroke="midnightblue" points="1744.53,-124.37 1754.55,-120.92 1744.57,-117.37 1744.53,-124.37"/>
</g>
<!-- Node8 -->
<g id="node8" class="node">
<title>Node8</title>
<g id="a_node8"><a xlink:href="_body_force_8cpp.html" target="_top" xlink:title=" ">
<polygon fill="white" stroke="black" points="717,-56.5 717,-75.5 805,-75.5 805,-56.5 717,-56.5"/>
<text text-anchor="middle" x="761" y="-63.5" font-family="Helvetica,sans-Serif" font-size="10.00">BodyForce.cpp</text>
</a>
</g>
</g>
<!-- Node2&#45;&gt;Node8 -->
<g id="edge7" class="edge">
<title>Node2&#45;&gt;Node8</title>
<path fill="none" stroke="midnightblue" d="M1744.57,-120.88C1607.51,-120.1 1172,-114.52 814,-76 811.12,-75.69 808.17,-75.32 805.19,-74.92"/>
<polygon fill="midnightblue" stroke="midnightblue" points="1744.65,-124.38 1754.67,-120.93 1744.69,-117.38 1744.65,-124.38"/>
</g>
<!-- Node9 -->
<g id="node9" class="node">
<title>Node9</title>
<g id="a_node9"><a xlink:href="_boussinesq_buoyancy_8cpp.html" target="_top" xlink:title=" ">
<polygon fill="white" stroke="black" points="823.5,-56.5 823.5,-75.5 962.5,-75.5 962.5,-56.5 823.5,-56.5"/>
<text text-anchor="middle" x="893" y="-63.5" font-family="Helvetica,sans-Serif" font-size="10.00">BoussinesqBuoyancy.cpp</text>
</a>
</g>
</g>
<!-- Node2&#45;&gt;Node9 -->
<g id="edge8" class="edge">
<title>Node2&#45;&gt;Node9</title>
<path fill="none" stroke="midnightblue" d="M1744.83,-119.53C1623.03,-115.2 1266.36,-101.15 971,-76 968.28,-75.77 965.52,-75.52 962.72,-75.25"/>
<polygon fill="midnightblue" stroke="midnightblue" points="1744.76,-123.03 1754.87,-119.89 1745,-116.04 1744.76,-123.03"/>
</g>
<!-- Node10 -->
<g id="node10" class="node">
<title>Node10</title>
<g id="a_node10"><a xlink:href="_coriolis_forcing_8cpp.html" target="_top" xlink:title=" ">
<polygon fill="white" stroke="black" points="980.5,-56.5 980.5,-75.5 1089.5,-75.5 1089.5,-56.5 980.5,-56.5"/>
<text text-anchor="middle" x="1035" y="-63.5" font-family="Helvetica,sans-Serif" font-size="10.00">CoriolisForcing.cpp</text>
</a>
</g>
</g>
<!-- Node2&#45;&gt;Node10 -->
<g id="edge9" class="edge">
<title>Node2&#45;&gt;Node10</title>
<path fill="none" stroke="midnightblue" d="M1744.63,-119.33C1635.69,-114.88 1341.82,-101.33 1098,-76 1095.25,-75.71 1092.44,-75.4 1089.6,-75.06"/>
<polygon fill="midnightblue" stroke="midnightblue" points="1744.76,-122.84 1754.89,-119.74 1745.04,-115.84 1744.76,-122.84"/>
</g>
<!-- Node11 -->
<g id="node11" class="node">
<title>Node11</title>
<g id="a_node11"><a xlink:href="_density_buoyancy_8cpp.html" target="_top" xlink:title=" ">
<polygon fill="white" stroke="black" points="1107.5,-56.5 1107.5,-75.5 1228.5,-75.5 1228.5,-56.5 1107.5,-56.5"/>
<text text-anchor="middle" x="1168" y="-63.5" font-family="Helvetica,sans-Serif" font-size="10.00">DensityBuoyancy.cpp</text>
</a>
</g>
</g>
<!-- Node2&#45;&gt;Node11 -->
<g id="edge10" class="edge">
<title>Node2&#45;&gt;Node11</title>
<path fill="none" stroke="midnightblue" d="M1744.55,-118.17C1651.4,-111.94 1425.63,-95.99 1237,-76 1234.24,-75.71 1231.41,-75.39 1228.56,-75.07"/>
<polygon fill="midnightblue" stroke="midnightblue" points="1744.51,-121.67 1754.72,-118.84 1744.97,-114.69 1744.51,-121.67"/>
</g>
<!-- Node12 -->
<g id="node12" class="node">
<title>Node12</title>
<g id="a_node12"><a xlink:href="_geostrophic_forcing_8cpp.html" target="_top" xlink:title=" ">
<polygon fill="white" stroke="black" points="1246.5,-56.5 1246.5,-75.5 1377.5,-75.5 1377.5,-56.5 1246.5,-56.5"/>
<text text-anchor="middle" x="1312" y="-63.5" font-family="Helvetica,sans-Serif" font-size="10.00">GeostrophicForcing.cpp</text>
</a>
</g>
</g>
<!-- Node2&#45;&gt;Node12 -->
<g id="edge11" class="edge">
<title>Node2&#45;&gt;Node12</title>
<path fill="none" stroke="midnightblue" d="M1744.73,-116.25C1671.2,-108.17 1517.16,-91.11 1387,-76 1384,-75.65 1380.94,-75.29 1377.85,-74.93"/>
<polygon fill="midnightblue" stroke="midnightblue" points="1744.66,-119.77 1754.98,-117.38 1745.42,-112.81 1744.66,-119.77"/>
</g>
<!-- Node13 -->
<g id="node13" class="node">
<title>Node13</title>
<g id="a_node13"><a xlink:href="_gravity_forcing_8cpp.html" target="_top" xlink:title=" ">
<polygon fill="white" stroke="black" points="1396,-56.5 1396,-75.5 1504,-75.5 1504,-56.5 1396,-56.5"/>
<text text-anchor="middle" x="1450" y="-63.5" font-family="Helvetica,sans-Serif" font-size="10.00">GravityForcing.cpp</text>
</a>
</g>
</g>
<!-- Node2&#45;&gt;Node13 -->
<g id="edge12" class="edge">
<title>Node2&#45;&gt;Node13</title>
<path fill="none" stroke="midnightblue" d="M1744.81,-114.1C1683.18,-104.25 1570.07,-86.18 1503.3,-75.52"/>
<polygon fill="midnightblue" stroke="midnightblue" points="1744.55,-117.6 1754.98,-115.72 1745.65,-110.69 1744.55,-117.6"/>
</g>
<!-- Node14 -->
<g id="node14" class="node">
<title>Node14</title>
<g id="a_node14"><a xlink:href="_hurricane_forcing_8cpp.html" target="_top" xlink:title=" ">
<polygon fill="white" stroke="black" points="346.5,-56.5 346.5,-75.5 465.5,-75.5 465.5,-56.5 346.5,-56.5"/>
<text text-anchor="middle" x="406" y="-63.5" font-family="Helvetica,sans-Serif" font-size="10.00">HurricaneForcing.cpp</text>
</a>
</g>
</g>
<!-- Node2&#45;&gt;Node14 -->
<g id="edge13" class="edge">
<title>Node2&#45;&gt;Node14</title>
<path fill="none" stroke="midnightblue" d="M1744.77,-120.09C1547.24,-115.83 729.32,-97.22 474,-76 471.27,-75.77 468.48,-75.51 465.67,-75.23"/>
<polygon fill="midnightblue" stroke="midnightblue" points="1744.69,-123.59 1754.77,-120.3 1744.84,-116.59 1744.69,-123.59"/>
</g>
<!-- Node15 -->
<g id="node15" class="node">
<title>Node15</title>
<g id="a_node15"><a xlink:href="_synth_turb_forcing_8cpp.html" target="_top" xlink:title=" ">
<polygon fill="white" stroke="black" points="1522,-56.5 1522,-75.5 1642,-75.5 1642,-56.5 1522,-56.5"/>
<text text-anchor="middle" x="1582" y="-63.5" font-family="Helvetica,sans-Serif" font-size="10.00">SynthTurbForcing.cpp</text>
</a>
</g>
</g>
<!-- Node2&#45;&gt;Node15 -->
<g id="edge14" class="edge">
<title>Node2&#45;&gt;Node15</title>
<path fill="none" stroke="midnightblue" d="M1745.38,-109.83C1706.49,-99.63 1649.84,-84.78 1614.49,-75.52"/>
<polygon fill="midnightblue" stroke="midnightblue" points="1744.8,-113.29 1755.36,-112.44 1746.57,-106.52 1744.8,-113.29"/>
</g>
<!-- Node16 -->
<g id="node16" class="node">
<title>Node16</title>
<g id="a_node16"><a xlink:href="_p_d_e_8_h.html" target="_top" xlink:title=" ">
<polygon fill="white" stroke="red" points="1699.5,-0.5 1699.5,-19.5 1746.5,-19.5 1746.5,-0.5 1699.5,-0.5"/>
<text text-anchor="middle" x="1723" y="-7.5" font-family="Helvetica,sans-Serif" font-size="10.00">PDE.H</text>
</a>
</g>
</g>
<!-- Node2&#45;&gt;Node16 -->
<g id="edge15" class="edge">
<title>Node2&#45;&gt;Node16</title>
<path fill="none" stroke="midnightblue" d="M1777.74,-103.64C1763.62,-79.74 1738.74,-37.63 1728.08,-19.59"/>
<polygon fill="midnightblue" stroke="midnightblue" points="1774.8,-105.54 1782.9,-112.37 1780.83,-101.98 1774.8,-105.54"/>
</g>
<!-- Node48 -->
<g id="node17" class="node">
<title>Node48</title>
<g id="a_node17"><a xlink:href="_p_d_e_base_8cpp.html" target="_top" xlink:title=" ">
<polygon fill="white" stroke="black" points="1782,-56.5 1782,-75.5 1862,-75.5 1862,-56.5 1782,-56.5"/>
<text text-anchor="middle" x="1822" y="-63.5" font-family="Helvetica,sans-Serif" font-size="10.00">PDEBase.cpp</text>
</a>
</g>
</g>
<!-- Node2&#45;&gt;Node48 -->
<g id="edge16" class="edge">
<title>Node2&#45;&gt;Node48</title>
<path fill="none" stroke="midnightblue" d="M1798.98,-103.57C1804.83,-94.27 1811.77,-83.25 1816.49,-75.75"/>
<polygon fill="midnightblue" stroke="midnightblue" points="1795.98,-101.76 1793.61,-112.08 1801.9,-105.49 1795.98,-101.76"/>
</g>
<!-- Node49 -->
<g id="node18" class="node">
<title>Node49</title>
<g id="a_node18"><a xlink:href="_p_d_e_ops_8_h.html" target="_top" xlink:title=" ">
<polygon fill="white" stroke="red" points="1660.5,-56.5 1660.5,-75.5 1725.5,-75.5 1725.5,-56.5 1660.5,-56.5"/>
<text text-anchor="middle" x="1693" y="-63.5" font-family="Helvetica,sans-Serif" font-size="10.00">PDEOps.H</text>
</a>
</g>
</g>
<!-- Node2&#45;&gt;Node49 -->
<g id="edge17" class="edge">
<title>Node2&#45;&gt;Node49</title>
<path fill="none" stroke="midnightblue" d="M1763.68,-107.18C1746.2,-97.24 1723.17,-84.15 1708.23,-75.65"/>
<polygon fill="midnightblue" stroke="midnightblue" points="1762.31,-110.43 1772.74,-112.32 1765.77,-104.34 1762.31,-110.43"/>
</g>
<!-- Node59 -->
<g id="node19" class="node">
<title>Node59</title>
<g id="a_node19"><a xlink:href="_s_d_r_src_8cpp.html" target="_top" xlink:title=" ">
<polygon fill="white" stroke="black" points="1880,-56.5 1880,-75.5 1952,-75.5 1952,-56.5 1880,-56.5"/>
<text text-anchor="middle" x="1916" y="-63.5" font-family="Helvetica,sans-Serif" font-size="10.00">SDRSrc.cpp</text>
</a>
</g>
</g>
<!-- Node2&#45;&gt;Node59 -->
<g id="edge19" class="edge">
<title>Node2&#45;&gt;Node59</title>
<path fill="none" stroke="midnightblue" d="M1817.62,-108.5C1841.62,-98.38 1874.78,-84.39 1895.81,-75.52"/>
<polygon fill="midnightblue" stroke="midnightblue" points="1816.14,-105.33 1808.28,-112.44 1818.86,-111.78 1816.14,-105.33"/>
</g>
<!-- Node60 -->
<g id="node20" class="node">
<title>Node60</title>
<g id="a_node20"><a xlink:href="_ksgs_m84_src_8cpp.html" target="_top" xlink:title=" ">
<polygon fill="white" stroke="black" points="1970,-56.5 1970,-75.5 2066,-75.5 2066,-56.5 1970,-56.5"/>
<text text-anchor="middle" x="2018" y="-63.5" font-family="Helvetica,sans-Serif" font-size="10.00">KsgsM84Src.cpp</text>
</a>
</g>
</g>
<!-- Node2&#45;&gt;Node60 -->
<g id="edge20" class="edge">
<title>Node2&#45;&gt;Node60</title>
<path fill="none" stroke="midnightblue" d="M1831.42,-110.81C1874.79,-100.62 1940.71,-85.15 1981.47,-75.58"/>
<polygon fill="midnightblue" stroke="midnightblue" points="1830.38,-107.45 1821.44,-113.15 1831.98,-114.27 1830.38,-107.45"/>
</g>
<!-- Node61 -->
<g id="node21" class="node">
<title>Node61</title>
<g id="a_node21"><a xlink:href="_kw_s_s_t_src_8cpp.html" target="_top" xlink:title=" ">
<polygon fill="white" stroke="black" points="2084.5,-56.5 2084.5,-75.5 2169.5,-75.5 2169.5,-56.5 2084.5,-56.5"/>
<text text-anchor="middle" x="2127" y="-63.5" font-family="Helvetica,sans-Serif" font-size="10.00">KwSSTSrc.cpp</text>
</a>
</g>
</g>
<!-- Node2&#45;&gt;Node61 -->
<g id="edge21" class="edge">
<title>Node2&#45;&gt;Node61</title>
<path fill="none" stroke="midnightblue" d="M1831.12,-114.46C1887.31,-105.88 1988.57,-90.25 2075,-76 2078.07,-75.49 2081.25,-74.96 2084.44,-74.42"/>
<polygon fill="midnightblue" stroke="midnightblue" points="1830.53,-111.01 1821.17,-115.97 1831.59,-117.93 1830.53,-111.01"/>
</g>
<!-- Node62 -->
<g id="node22" class="node">
<title>Node62</title>
<g id="a_node22"><a xlink:href="helics_8_h.html" target="_top" xlink:title=" ">
<polygon fill="white" stroke="red" points="2188,-56.5 2188,-75.5 2244,-75.5 2244,-56.5 2188,-56.5"/>
<text text-anchor="middle" x="2216" y="-63.5" font-family="Helvetica,sans-Serif" font-size="10.00">helics.H</text>
</a>
</g>
</g>
<!-- Node2&#45;&gt;Node62 -->
<g id="edge22" class="edge">
<title>Node2&#45;&gt;Node62</title>
<path fill="none" stroke="midnightblue" d="M1831.47,-117.19C1902.53,-111.02 2047.36,-97.35 2169,-76 2175.01,-74.95 2181.49,-73.52 2187.76,-72.11"/>
<polygon fill="midnightblue" stroke="midnightblue" points="1830.78,-113.73 1821.12,-118.08 1831.38,-120.71 1830.78,-113.73"/>
</g>
<!-- Node2&#45;&gt;Node99 -->
<g id="edge24" class="edge">
<title>Node2&#45;&gt;Node99</title>
<path fill="none" stroke="midnightblue" d="M1831.17,-118.78C1925.18,-113.66 2155.37,-99.64 2347,-76 2350.02,-75.63 2353.13,-75.21 2356.25,-74.76"/>
<polygon fill="midnightblue" stroke="midnightblue" points="1830.97,-115.28 1821.18,-119.31 1831.35,-122.27 1830.97,-115.28"/>
</g>
<!-- Node2&#45;&gt;Node101 -->
<g id="edge25" class="edge">
<title>Node2&#45;&gt;Node101</title>
<path fill="none" stroke="midnightblue" d="M1831.32,-118.72C1937.55,-113 2219.41,-96.95 2454,-76 2457.1,-75.72 2460.27,-75.43 2463.46,-75.12"/>
<polygon fill="midnightblue" stroke="midnightblue" points="1831.1,-115.23 1821.3,-119.26 1831.48,-122.22 1831.1,-115.23"/>
</g>
<!-- Node2&#45;&gt;Node103 -->
<g id="edge26" class="edge">
<title>Node2&#45;&gt;Node103</title>
<path fill="none" stroke="midnightblue" d="M1831.4,-120.38C1954.63,-118.25 2317.11,-109.39 2616,-76 2618.69,-75.7 2621.45,-75.35 2624.23,-74.97"/>
<polygon fill="midnightblue" stroke="midnightblue" points="1831.18,-116.88 1821.24,-120.55 1831.3,-123.88 1831.18,-116.88"/>
</g>
<!-- Node2&#45;&gt;Node106 -->
<g id="edge27" class="edge">
<title>Node2&#45;&gt;Node106</title>
<path fill="none" stroke="midnightblue" d="M1831.4,-120.14C1964.73,-117.24 2380.18,-106.24 2723,-76 2725.69,-75.76 2728.43,-75.5 2731.19,-75.22"/>
<polygon fill="midnightblue" stroke="midnightblue" points="1831.11,-116.65 1821.19,-120.36 1831.26,-123.65 1831.11,-116.65"/>
</g>
<!-- Node2&#45;&gt;Node108 -->
<g id="edge28" class="edge">
<title>Node2&#45;&gt;Node108</title>
<path fill="none" stroke="midnightblue" d="M1831.13,-120.44C2005.61,-118.01 2659.63,-106.95 2864,-76 2866.66,-75.6 2869.4,-75.07 2872.13,-74.47"/>
<polygon fill="midnightblue" stroke="midnightblue" points="1830.99,-116.95 1821.04,-120.58 1831.09,-123.95 1830.99,-116.95"/>
</g>
<!-- Node2&#45;&gt;Node121 -->
<g id="edge29" class="edge">
<title>Node2&#45;&gt;Node121</title>
<path fill="none" stroke="midnightblue" d="M1831.63,-120.65C1983.72,-119.13 2504.63,-111.5 2933,-76 2935.72,-75.77 2938.5,-75.52 2941.31,-75.25"/>
<polygon fill="midnightblue" stroke="midnightblue" points="1831.28,-117.15 1821.32,-120.75 1831.35,-124.15 1831.28,-117.15"/>
</g>
<!-- Node49&#45;&gt;Node16 -->
<g id="edge18" class="edge">
<title>Node49&#45;&gt;Node16</title>
<path fill="none" stroke="midnightblue" d="M1702.85,-47.27C1707.97,-38.05 1714.02,-27.17 1718.14,-19.75"/>
<polygon fill="midnightblue" stroke="midnightblue" points="1699.75,-45.64 1697.95,-56.08 1705.87,-49.04 1699.75,-45.64"/>
</g>
<!-- Node62&#45;&gt;Node2 -->
<g id="edge23" class="edge">
<title>Node62&#45;&gt;Node2</title>
<path fill="none" stroke="midnightblue" d="M2179.37,-77.3C2044.86,-100.25 1888.54,-113.9 1821.26,-118.86"/>
<polygon fill="midnightblue" stroke="midnightblue" points="2180.17,-80.71 2189.43,-75.56 2178.98,-73.82 2180.17,-80.71"/>
</g>
<!-- Node215&#45;&gt;Node83 -->
<g id="edge34" class="edge">
<title>Node215&#45;&gt;Node83</title>
<path fill="none" stroke="midnightblue" d="M50.54,-102.69C46.83,-93.59 42.52,-83.01 39.57,-75.75"/>
<polygon fill="midnightblue" stroke="midnightblue" points="47.35,-104.14 54.37,-112.08 53.84,-101.5 47.35,-104.14"/>
</g>
<!-- Node152&#45;&gt;Node5 -->
<g id="edge58" class="edge">
<title>Node152&#45;&gt;Node5</title>
<path fill="none" stroke="midnightblue" d="M228.55,-108.64C203.59,-98.5 168.92,-84.43 146.98,-75.52"/>
<polygon fill="midnightblue" stroke="midnightblue" points="227.34,-111.92 237.93,-112.44 229.98,-105.44 227.34,-111.92"/>
</g>
<!-- Node152&#45;&gt;Node6 -->
<g id="edge59" class="edge">
<title>Node152&#45;&gt;Node6</title>
<path fill="none" stroke="midnightblue" d="M259,-101.8C259,-92.91 259,-82.78 259,-75.75"/>
<polygon fill="midnightblue" stroke="midnightblue" points="255.5,-102.08 259,-112.08 262.5,-102.08 255.5,-102.08"/>
</g>
<!-- Node152&#45;&gt;Node14 -->
<g id="edge60" class="edge">
<title>Node152&#45;&gt;Node14</title>
<path fill="none" stroke="midnightblue" d="M291.92,-108.91C319.56,-98.75 358.34,-84.51 382.82,-75.52"/>
<polygon fill="midnightblue" stroke="midnightblue" points="290.47,-105.71 282.29,-112.44 292.89,-112.28 290.47,-105.71"/>
</g>
<!-- Node152&#45;&gt;Node83 -->
<g id="edge61" class="edge">
<title>Node152&#45;&gt;Node83</title>
<path fill="none" stroke="midnightblue" d="M225.92,-113.26C188.34,-104.42 125.19,-89.45 71,-76 68.32,-75.33 65.53,-74.63 62.74,-73.93"/>
<polygon fill="midnightblue" stroke="midnightblue" points="225.28,-116.7 235.82,-115.58 226.88,-109.89 225.28,-116.7"/>
</g>
<!-- Node232&#45;&gt;Node7 -->
<g id="edge63" class="edge">
<title>Node232&#45;&gt;Node7</title>
<path fill="none" stroke="midnightblue" d="M1076.88,-117.87C987.76,-111.38 779.95,-95.45 606,-76 602.9,-75.65 599.71,-75.28 596.5,-74.89"/>
<polygon fill="midnightblue" stroke="midnightblue" points="1076.67,-121.36 1086.9,-118.59 1077.17,-114.38 1076.67,-121.36"/>
</g>
</g>
</svg>
        <g id="navigator" transform="translate(0 0)" fill="#404254">
                <rect fill="#f2f5e9" fill-opacity="0.5" stroke="#606060" stroke-width=".5" x="0" y="0" width="60" height="60"/>
                <use id="zoomplus" xlink:href="#zoomPlus" x="17" y="9" onmousedown="handleZoom(evt,'in')"/>
                <use id="zoomminus" xlink:href="#zoomMin" x="42" y="9" onmousedown="handleZoom(evt,'out')"/>
                <use id="reset" xlink:href="#resetDef" x="30" y="36" onmousedown="handleReset()"/>
                <g id="arrowUp" xlink:href="#dirArrow" transform="translate(30 24)" onmousedown="handlePan(0,-1)">
                  <use xlink:href="#rim" fill="#404040">
                        <set attributeName="fill" to="#808080" begin="arrowUp.mouseover" end="arrowUp.mouseout"/>
                  </use>
                  <path fill="none" stroke="white" stroke-width="1.5" d="M0,-3.0v7 M-2.5,-0.5L0,-3.0L2.5,-0.5"/>
                </g>
                <g id="arrowRight" xlink:href="#dirArrow" transform="rotate(90) translate(36 -43)" onmousedown="handlePan(1,0)">
                  <use xlink:href="#rim" fill="#404040">
                        <set attributeName="fill" to="#808080" begin="arrowRight.mouseover" end="arrowRight.mouseout"/>
                  </use>
                  <path fill="none" stroke="white" stroke-width="1.5" d="M0,-3.0v7 M-2.5,-0.5L0,-3.0L2.5,-0.5"/>
                </g>
                <g id="arrowDown" xlink:href="#dirArrow" transform="rotate(180) translate(-30 -48)" onmousedown="handlePan(0,1)">
                  <use xlink:href="#rim" fill="#404040">
                        <set attributeName="fill" to="#808080" begin="arrowDown.mouseover" end="arrowDown.mouseout"/>
                  </use>
                  <path fill="none" stroke="white" stroke-width="1.5" d="M0,-3.0v7 M-2.5,-0.5L0,-3.0L2.5,-0.5"/>
                </g>
                <g id="arrowLeft" xlink:href="#dirArrow" transform="rotate(270) translate(-36 17)" onmousedown="handlePan(-1,0)">
                  <use xlink:href="#rim" fill="#404040">
                        <set attributeName="fill" to="#808080" begin="arrowLeft.mouseover" end="arrowLeft.mouseout"/>
                  </use>
                  <path fill="none" stroke="white" stroke-width="1.5" d="M0,-3.0v7 M-2.5,-0.5L0,-3.0L2.5,-0.5"/>
                </g>
        </g>
        <svg viewBox="0 0 15 15" width="100%" height="30px" preserveAspectRatio="xMaxYMin meet">
         <g id="arrow_out" transform="scale(0.3 0.3)">
          <a xlink:href="_physics_8_h__dep__incl_org.svg" target="_base">
           <rect id="button" ry="5" rx="5" y="6" x="6" height="38" width="38"
                fill="#f2f5e9" fill-opacity="0.5" stroke="#606060" stroke-width="1.0"/>
           <path id="arrow"
             d="M 11.500037,31.436501 C 11.940474,20.09759 22.043105,11.32322 32.158766,21.979434 L 37.068811,17.246167 C 37.068811,17.246167 37.088388,32 37.088388,32 L 22.160133,31.978069 C 22.160133,31.978069 26.997745,27.140456 26.997745,27.140456 C 18.528582,18.264221 13.291696,25.230495 11.500037,31.436501 z"
             style="fill:#404040;"/>
          </a>
         </g>
        </svg>
</svg>
