<?xml version="1.0" encoding="UTF-8" standalone="no"?>
<!DOCTYPE svg PUBLIC "-//W3C//DTD SVG 1.1//EN"
 "http://www.w3.org/Graphics/SVG/1.1/DTD/svg11.dtd">
<!-- Generated by graphviz version 2.43.0 (0)
 -->
<!-- Title: SchemeTraits.H Pages: 1 -->
<!--zoomable 364 -->
<svg id="main" version="1.1" xmlns="http://www.w3.org/2000/svg" xmlns:xlink="http://www.w3.org/1999/xlink" xml:space="preserve" onload="init(evt)">
<style type="text/css"><![CDATA[
.edge:hover path { stroke: red; }
.edge:hover polygon { stroke: red; fill: red; }
]]></style>
<script type="text/javascript"><![CDATA[
var edges = document.getElementsByTagName('g');
if (edges && edges.length) {
  for (var i=0;i<edges.length;i++) {
    if (edges[i].id.substr(0,4)=='edge') {
      edges[i].setAttribute('class','edge');
    }
  }
}
]]></script>
        <defs>
                <circle id="rim" cx="0" cy="0" r="7"/>
                <circle id="rim2" cx="0" cy="0" r="3.5"/>
                <g id="zoomPlus">
                        <use xlink:href="#rim" fill="#404040">
                                <set attributeName="fill" to="#808080" begin="zoomplus.mouseover" end="zoomplus.mouseout"/>
                        </use>
                        <path d="M-4,0h8M0,-4v8" fill="none" stroke="white" stroke-width="1.5" pointer-events="none"/>
                </g>
                <g id="zoomMin">
                        <use xlink:href="#rim" fill="#404040">
                                <set attributeName="fill" to="#808080" begin="zoomminus.mouseover" end="zoomminus.mouseout"/>
                        </use>
                        <path d="M-4,0h8" fill="none" stroke="white" stroke-width="1.5" pointer-events="none"/>
                </g>
                <g id="dirArrow">
                        <path fill="none" stroke="white" stroke-width="1.5" d="M0,-3.0v7 M-2.5,-0.5L0,-3.0L2.5,-0.5"/>
                </g>
               <g id="resetDef">
                       <use xlink:href="#rim2" fill="#404040">
                               <set attributeName="fill" to="#808080" begin="reset.mouseover" end="reset.mouseout"/>
                       </use>
               </g>
        </defs>

<script type="text/javascript">
var viewWidth = 1819;
var viewHeight = 364;
var sectionId = 'dynsection-1';
</script>
<script xlink:href="svgpan.js"/>
<svg id="graph" class="graph">
<g id="viewport">
<title>SchemeTraits.H</title>
<polygon fill="white" stroke="transparent" points="-4,4 -4,-360 1815.42,-360 1815.42,4 -4,4"/>
<!-- Node1 -->
<g id="node1" class="node">
<title>Node1</title>
<g id="a_node1"><a xlink:title=" ">
<polygon fill="#bfbfbf" stroke="black" points="853.92,-336.5 853.92,-355.5 945.92,-355.5 945.92,-336.5 853.92,-336.5"/>
<text text-anchor="middle" x="899.92" y="-343.5" font-family="Helvetica,sans-Serif" font-size="10.00">SchemeTraits.H</text>
</a>
</g>
</g>
<!-- Node2 -->
<g id="node2" class="node">
<title>Node2</title>
<g id="a_node2"><a xlink:href="_adv_op___godunov_8_h.html" target="_top" xlink:title=" ">
<polygon fill="white" stroke="black" points="423.42,-112.5 423.42,-131.5 530.42,-131.5 530.42,-112.5 423.42,-112.5"/>
<text text-anchor="middle" x="476.92" y="-119.5" font-family="Helvetica,sans-Serif" font-size="10.00">AdvOp_Godunov.H</text>
</a>
</g>
</g>
<!-- Node1&#45;&gt;Node2 -->
<g id="edge1" class="edge">
<title>Node1&#45;&gt;Node2</title>
<path fill="none" stroke="midnightblue" d="M865.82,-332.62C848.12,-325.06 826.91,-314.11 810.92,-300 757.86,-253.19 781.12,-206.75 721.92,-168 713.87,-162.73 598.56,-143.03 529.05,-131.52"/>
<polygon fill="midnightblue" stroke="midnightblue" points="864.66,-335.93 875.24,-336.48 867.31,-329.45 864.66,-335.93"/>
</g>
<!-- Node13 -->
<g id="node13" class="node">
<title>Node13</title>
<g id="a_node13"><a xlink:href="_adv_op___m_o_l_8_h.html" target="_top" xlink:title=" ">
<polygon fill="white" stroke="black" points="548.92,-112.5 548.92,-131.5 634.92,-131.5 634.92,-112.5 548.92,-112.5"/>
<text text-anchor="middle" x="591.92" y="-119.5" font-family="Helvetica,sans-Serif" font-size="10.00">AdvOp_MOL.H</text>
</a>
</g>
</g>
<!-- Node1&#45;&gt;Node13 -->
<g id="edge13" class="edge">
<title>Node1&#45;&gt;Node13</title>
<path fill="none" stroke="midnightblue" d="M873.08,-331.47C859.32,-323.61 842.98,-312.75 830.92,-300 784.4,-250.82 808.44,-209.45 754.92,-168 736.29,-153.58 676.95,-139.55 635.27,-131.09"/>
<polygon fill="midnightblue" stroke="midnightblue" points="871.65,-334.68 882.11,-336.42 875.02,-328.54 871.65,-334.68"/>
</g>
<!-- Node14 -->
<g id="node14" class="node">
<title>Node14</title>
<g id="a_node14"><a xlink:href="_comp_r_h_s_ops_8_h.html" target="_top" xlink:title=" ">
<polygon fill="white" stroke="black" points="852.42,-280.5 852.42,-299.5 947.42,-299.5 947.42,-280.5 852.42,-280.5"/>
<text text-anchor="middle" x="899.92" y="-287.5" font-family="Helvetica,sans-Serif" font-size="10.00">CompRHSOps.H</text>
</a>
</g>
</g>
<!-- Node1&#45;&gt;Node14 -->
<g id="edge22" class="edge">
<title>Node1&#45;&gt;Node14</title>
<path fill="none" stroke="midnightblue" d="M899.92,-325.8C899.92,-316.91 899.92,-306.78 899.92,-299.75"/>
<polygon fill="midnightblue" stroke="midnightblue" points="896.42,-326.08 899.92,-336.08 903.42,-326.08 896.42,-326.08"/>
</g>
<!-- Node16 -->
<g id="node16" class="node">
<title>Node16</title>
<g id="a_node16"><a xlink:href="density_8_h.html" target="_top" xlink:title=" ">
<polygon fill="white" stroke="black" points="122.92,-168.5 122.92,-187.5 184.92,-187.5 184.92,-168.5 122.92,-168.5"/>
<text text-anchor="middle" x="153.92" y="-175.5" font-family="Helvetica,sans-Serif" font-size="10.00">density.H</text>
</a>
</g>
</g>
<!-- Node1&#45;&gt;Node16 -->
<g id="edge68" class="edge">
<title>Node1&#45;&gt;Node16</title>
<path fill="none" stroke="midnightblue" d="M843.51,-336.79C789.5,-328.61 705.83,-315.12 633.92,-300 462.56,-263.97 259.91,-208.64 184.33,-187.56"/>
<polygon fill="midnightblue" stroke="midnightblue" points="843.17,-340.27 853.58,-338.3 844.21,-333.35 843.17,-340.27"/>
</g>
<!-- Node18 -->
<g id="node18" class="node">
<title>Node18</title>
<g id="a_node18"><a xlink:href="icns_8_h.html" target="_top" xlink:title=" ">
<polygon fill="white" stroke="black" points="1508.42,-112.5 1508.42,-131.5 1555.42,-131.5 1555.42,-112.5 1508.42,-112.5"/>
<text text-anchor="middle" x="1531.92" y="-119.5" font-family="Helvetica,sans-Serif" font-size="10.00">icns.H</text>
</a>
</g>
</g>
<!-- Node1&#45;&gt;Node18 -->
<g id="edge74" class="edge">
<title>Node1&#45;&gt;Node18</title>
<path fill="none" stroke="midnightblue" d="M956.38,-344.29C1082.98,-342.11 1385.93,-333.45 1481.92,-300 1523.94,-285.35 1544.03,-283.29 1564.92,-244 1585.56,-205.16 1553.08,-152.28 1538.46,-131.7"/>
<polygon fill="midnightblue" stroke="midnightblue" points="956.07,-340.79 946.13,-344.46 956.19,-347.79 956.07,-340.79"/>
</g>
<!-- Node22 -->
<g id="node22" class="node">
<title>Node22</title>
<g id="a_node22"><a xlink:href="levelset_8_h.html" target="_top" xlink:title=" ">
<polygon fill="white" stroke="black" points="233.92,-168.5 233.92,-187.5 299.92,-187.5 299.92,-168.5 233.92,-168.5"/>
<text text-anchor="middle" x="266.92" y="-175.5" font-family="Helvetica,sans-Serif" font-size="10.00">levelset.H</text>
</a>
</g>
</g>
<!-- Node1&#45;&gt;Node22 -->
<g id="edge75" class="edge">
<title>Node1&#45;&gt;Node22</title>
<path fill="none" stroke="midnightblue" d="M850.93,-334.22C811.63,-325.43 755.09,-312.47 705.92,-300 550.93,-260.68 366.83,-207.97 296.35,-187.56"/>
<polygon fill="midnightblue" stroke="midnightblue" points="850.27,-337.66 860.79,-336.42 851.79,-330.83 850.27,-337.66"/>
</g>
<!-- Node24 -->
<g id="node24" class="node">
<title>Node24</title>
<g id="a_node24"><a xlink:href="_s_d_r_8_h.html" target="_top" xlink:title=" ">
<polygon fill="white" stroke="black" points="807.42,-168.5 807.42,-187.5 854.42,-187.5 854.42,-168.5 807.42,-168.5"/>
<text text-anchor="middle" x="830.92" y="-175.5" font-family="Helvetica,sans-Serif" font-size="10.00">SDR.H</text>
</a>
</g>
</g>
<!-- Node1&#45;&gt;Node24 -->
<g id="edge77" class="edge">
<title>Node1&#45;&gt;Node24</title>
<path fill="none" stroke="midnightblue" d="M874.45,-330.89C863.17,-323.26 850.91,-312.78 843.92,-300 823.34,-262.37 827.22,-208.33 829.71,-187.57"/>
<polygon fill="midnightblue" stroke="midnightblue" points="872.83,-334.01 883.16,-336.38 876.56,-328.08 872.83,-334.01"/>
</g>
<!-- Node29 -->
<g id="node29" class="node">
<title>Node29</title>
<g id="a_node29"><a xlink:href="temperature_8_h.html" target="_top" xlink:title=" ">
<polygon fill="white" stroke="black" points="624.92,-168.5 624.92,-187.5 712.92,-187.5 712.92,-168.5 624.92,-168.5"/>
<text text-anchor="middle" x="668.92" y="-175.5" font-family="Helvetica,sans-Serif" font-size="10.00">temperature.H</text>
</a>
</g>
</g>
<!-- Node1&#45;&gt;Node29 -->
<g id="edge78" class="edge">
<title>Node1&#45;&gt;Node29</title>
<path fill="none" stroke="midnightblue" d="M843.52,-342.36C806.73,-337.97 759.65,-326.97 726.92,-300 689.88,-269.48 674.89,-209.73 670.45,-187.55"/>
<polygon fill="midnightblue" stroke="midnightblue" points="843.28,-345.86 853.6,-343.43 844.02,-338.9 843.28,-345.86"/>
</g>
<!-- Node30 -->
<g id="node30" class="node">
<title>Node30</title>
<g id="a_node30"><a xlink:href="_t_k_e_8_h.html" target="_top" xlink:title=" ">
<polygon fill="white" stroke="black" points="924.92,-168.5 924.92,-187.5 970.92,-187.5 970.92,-168.5 924.92,-168.5"/>
<text text-anchor="middle" x="947.92" y="-175.5" font-family="Helvetica,sans-Serif" font-size="10.00">TKE.H</text>
</a>
</g>
</g>
<!-- Node1&#45;&gt;Node30 -->
<g id="edge79" class="edge">
<title>Node1&#45;&gt;Node30</title>
<path fill="none" stroke="midnightblue" d="M926.59,-331.22C938.17,-323.7 950.52,-313.2 956.92,-300 975.47,-261.71 959.14,-208.51 951.43,-187.77"/>
<polygon fill="midnightblue" stroke="midnightblue" points="924.76,-328.23 918,-336.39 928.37,-334.23 924.76,-328.23"/>
</g>
<!-- Node33 -->
<g id="node33" class="node">
<title>Node33</title>
<g id="a_node33"><a xlink:href="vof_8_h.html" target="_top" xlink:title=" ">
<polygon fill="white" stroke="black" points="1171.92,-168.5 1171.92,-187.5 1213.92,-187.5 1213.92,-168.5 1171.92,-168.5"/>
<text text-anchor="middle" x="1192.92" y="-175.5" font-family="Helvetica,sans-Serif" font-size="10.00">vof.H</text>
</a>
</g>
</g>
<!-- Node1&#45;&gt;Node33 -->
<g id="edge80" class="edge">
<title>Node1&#45;&gt;Node33</title>
<path fill="none" stroke="midnightblue" d="M924.16,-331.27C982.61,-298.15 1129.98,-214.66 1177.73,-187.61"/>
<polygon fill="midnightblue" stroke="midnightblue" points="922.23,-328.33 915.26,-336.31 925.68,-334.42 922.23,-328.33"/>
</g>
<!-- Node37 -->
<g id="node37" class="node">
<title>Node37</title>
<g id="a_node37"><a xlink:href="_diffusion_ops_8_h.html" target="_top" xlink:title=" ">
<polygon fill="white" stroke="black" points="1383.42,-280.5 1383.42,-299.5 1472.42,-299.5 1472.42,-280.5 1383.42,-280.5"/>
<text text-anchor="middle" x="1427.92" y="-287.5" font-family="Helvetica,sans-Serif" font-size="10.00">DiffusionOps.H</text>
</a>
</g>
</g>
<!-- Node1&#45;&gt;Node37 -->
<g id="edge69" class="edge">
<title>Node1&#45;&gt;Node37</title>
<path fill="none" stroke="midnightblue" d="M956.46,-339.22C1062.12,-328.41 1287.49,-305.36 1383.31,-295.56"/>
<polygon fill="midnightblue" stroke="midnightblue" points="955.9,-335.76 946.31,-340.26 956.62,-342.72 955.9,-335.76"/>
</g>
<!-- Node39 -->
<g id="node39" class="node">
<title>Node39</title>
<g id="a_node39"><a xlink:href="_p_d_e_base_8cpp.html" target="_top" xlink:title=" ">
<polygon fill="white" stroke="black" points="1649.92,-280.5 1649.92,-299.5 1729.92,-299.5 1729.92,-280.5 1649.92,-280.5"/>
<text text-anchor="middle" x="1689.92" y="-287.5" font-family="Helvetica,sans-Serif" font-size="10.00">PDEBase.cpp</text>
</a>
</g>
</g>
<!-- Node1&#45;&gt;Node39 -->
<g id="edge76" class="edge">
<title>Node1&#45;&gt;Node39</title>
<path fill="none" stroke="midnightblue" d="M956.48,-343.55C1080.09,-339.94 1383.47,-328.68 1635.92,-300 1640.45,-299.49 1645.18,-298.85 1649.88,-298.15"/>
<polygon fill="midnightblue" stroke="midnightblue" points="956.03,-340.06 946.14,-343.84 956.23,-347.06 956.03,-340.06"/>
</g>
<!-- Node40 -->
<g id="node40" class="node">
<title>Node40</title>
<g id="a_node40"><a xlink:href="incflo_8cpp.html" target="_top" xlink:title=" ">
<polygon fill="white" stroke="black" points="1748.42,-280.5 1748.42,-299.5 1811.42,-299.5 1811.42,-280.5 1748.42,-280.5"/>
<text text-anchor="middle" x="1779.92" y="-287.5" font-family="Helvetica,sans-Serif" font-size="10.00">incflo.cpp</text>
</a>
</g>
</g>
<!-- Node1&#45;&gt;Node40 -->
<g id="edge81" class="edge">
<title>Node1&#45;&gt;Node40</title>
<path fill="none" stroke="midnightblue" d="M956.23,-345.13C1091.7,-344.75 1446.25,-339.7 1738.92,-300 1741.95,-299.59 1745.09,-299.07 1748.22,-298.49"/>
<polygon fill="midnightblue" stroke="midnightblue" points="956.09,-341.63 946.09,-345.15 956.1,-348.63 956.09,-341.63"/>
</g>
<!-- Node3 -->
<g id="node3" class="node">
<title>Node3</title>
<g id="a_node3"><a xlink:href="density_8cpp.html" target="_top" xlink:title=" ">
<polygon fill="white" stroke="black" points="58.42,-56.5 58.42,-75.5 129.42,-75.5 129.42,-56.5 58.42,-56.5"/>
<text text-anchor="middle" x="93.92" y="-63.5" font-family="Helvetica,sans-Serif" font-size="10.00">density.cpp</text>
</a>
</g>
</g>
<!-- Node2&#45;&gt;Node3 -->
<g id="edge2" class="edge">
<title>Node2&#45;&gt;Node3</title>
<path fill="none" stroke="midnightblue" d="M413.15,-112.01C331.88,-100.55 194.19,-81.14 129.5,-72.02"/>
<polygon fill="midnightblue" stroke="midnightblue" points="412.87,-115.5 423.26,-113.43 413.85,-108.57 412.87,-115.5"/>
</g>
<!-- Node4 -->
<g id="node4" class="node">
<title>Node4</title>
<g id="a_node4"><a xlink:href="icns__advection_8_h.html" target="_top" xlink:title=" ">
<polygon fill="white" stroke="black" points="543.92,-56.5 543.92,-75.5 643.92,-75.5 643.92,-56.5 543.92,-56.5"/>
<text text-anchor="middle" x="593.92" y="-63.5" font-family="Helvetica,sans-Serif" font-size="10.00">icns_advection.H</text>
</a>
</g>
</g>
<!-- Node2&#45;&gt;Node4 -->
<g id="edge3" class="edge">
<title>Node2&#45;&gt;Node4</title>
<path fill="none" stroke="midnightblue" d="M504.58,-108.23C526.47,-98.13 556.41,-84.31 575.47,-75.52"/>
<polygon fill="midnightblue" stroke="midnightblue" points="503.07,-105.08 495.46,-112.44 506,-111.43 503.07,-105.08"/>
</g>
<!-- Node7 -->
<g id="node7" class="node">
<title>Node7</title>
<g id="a_node7"><a xlink:href="icns__ops_8_h.html" target="_top" xlink:title=" ">
<polygon fill="white" stroke="black" points="1240.42,-56.5 1240.42,-75.5 1309.42,-75.5 1309.42,-56.5 1240.42,-56.5"/>
<text text-anchor="middle" x="1274.92" y="-63.5" font-family="Helvetica,sans-Serif" font-size="10.00">icns_ops.H</text>
</a>
</g>
</g>
<!-- Node2&#45;&gt;Node7 -->
<g id="edge6" class="edge">
<title>Node2&#45;&gt;Node7</title>
<path fill="none" stroke="midnightblue" d="M540.64,-112.03C835.77,-83.51 912.88,-102.3 1203.92,-76 1215.8,-74.93 1228.75,-73.39 1240.3,-71.89"/>
<polygon fill="midnightblue" stroke="midnightblue" points="540.11,-108.56 530.49,-113.02 540.79,-115.53 540.11,-108.56"/>
</g>
<!-- Node8 -->
<g id="node8" class="node">
<title>Node8</title>
<g id="a_node8"><a xlink:href="levelset_8cpp.html" target="_top" xlink:title=" ">
<polygon fill="white" stroke="black" points="220.92,-56.5 220.92,-75.5 296.92,-75.5 296.92,-56.5 220.92,-56.5"/>
<text text-anchor="middle" x="258.92" y="-63.5" font-family="Helvetica,sans-Serif" font-size="10.00">levelset.cpp</text>
</a>
</g>
</g>
<!-- Node2&#45;&gt;Node8 -->
<g id="edge8" class="edge">
<title>Node2&#45;&gt;Node8</title>
<path fill="none" stroke="midnightblue" d="M432.61,-110.02C391.43,-99.82 330.94,-84.84 293.3,-75.52"/>
<polygon fill="midnightblue" stroke="midnightblue" points="431.83,-113.44 442.37,-112.44 433.51,-106.64 431.83,-113.44"/>
</g>
<!-- Node9 -->
<g id="node9" class="node">
<title>Node9</title>
<g id="a_node9"><a xlink:href="_s_d_r_8cpp.html" target="_top" xlink:title=" ">
<polygon fill="white" stroke="black" points="352.42,-56.5 352.42,-75.5 409.42,-75.5 409.42,-56.5 352.42,-56.5"/>
<text text-anchor="middle" x="380.92" y="-63.5" font-family="Helvetica,sans-Serif" font-size="10.00">SDR.cpp</text>
</a>
</g>
</g>
<!-- Node2&#45;&gt;Node9 -->
<g id="edge9" class="edge">
<title>Node2&#45;&gt;Node9</title>
<path fill="none" stroke="midnightblue" d="M452.34,-107.18C434.68,-97.24 411.4,-84.15 396.3,-75.65"/>
<polygon fill="midnightblue" stroke="midnightblue" points="451.06,-110.47 461.49,-112.32 454.49,-104.37 451.06,-110.47"/>
</g>
<!-- Node10 -->
<g id="node10" class="node">
<title>Node10</title>
<g id="a_node10"><a xlink:href="temperature_8cpp.html" target="_top" xlink:title=" ">
<polygon fill="white" stroke="black" points="427.92,-56.5 427.92,-75.5 525.92,-75.5 525.92,-56.5 427.92,-56.5"/>
<text text-anchor="middle" x="476.92" y="-63.5" font-family="Helvetica,sans-Serif" font-size="10.00">temperature.cpp</text>
</a>
</g>
</g>
<!-- Node2&#45;&gt;Node10 -->
<g id="edge10" class="edge">
<title>Node2&#45;&gt;Node10</title>
<path fill="none" stroke="midnightblue" d="M476.92,-101.8C476.92,-92.91 476.92,-82.78 476.92,-75.75"/>
<polygon fill="midnightblue" stroke="midnightblue" points="473.42,-102.08 476.92,-112.08 480.42,-102.08 473.42,-102.08"/>
</g>
<!-- Node11 -->
<g id="node11" class="node">
<title>Node11</title>
<g id="a_node11"><a xlink:href="_t_k_e_8cpp.html" target="_top" xlink:title=" ">
<polygon fill="white" stroke="black" points="661.92,-56.5 661.92,-75.5 717.92,-75.5 717.92,-56.5 661.92,-56.5"/>
<text text-anchor="middle" x="689.92" y="-63.5" font-family="Helvetica,sans-Serif" font-size="10.00">TKE.cpp</text>
</a>
</g>
</g>
<!-- Node2&#45;&gt;Node11 -->
<g id="edge11" class="edge">
<title>Node2&#45;&gt;Node11</title>
<path fill="none" stroke="midnightblue" d="M520.41,-109.97C562.7,-99.25 625.67,-83.29 661.77,-74.14"/>
<polygon fill="midnightblue" stroke="midnightblue" points="519.5,-106.59 510.67,-112.44 521.22,-113.38 519.5,-106.59"/>
</g>
<!-- Node12 -->
<g id="node12" class="node">
<title>Node12</title>
<g id="a_node12"><a xlink:href="vof_8cpp.html" target="_top" xlink:title=" ">
<polygon fill="white" stroke="black" points="1142.92,-56.5 1142.92,-75.5 1194.92,-75.5 1194.92,-56.5 1142.92,-56.5"/>
<text text-anchor="middle" x="1168.92" y="-63.5" font-family="Helvetica,sans-Serif" font-size="10.00">vof.cpp</text>
</a>
</g>
</g>
<!-- Node2&#45;&gt;Node12 -->
<g id="edge12" class="edge">
<title>Node2&#45;&gt;Node12</title>
<path fill="none" stroke="midnightblue" d="M540.61,-112.07C634.57,-103.2 1036.33,-75.94 1142.91,-68.75"/>
<polygon fill="midnightblue" stroke="midnightblue" points="540.1,-108.6 530.5,-113.08 540.8,-115.57 540.1,-108.6"/>
</g>
<!-- Node5 -->
<g id="node5" class="node">
<title>Node5</title>
<g id="a_node5"><a xlink:href="icns_8cpp.html" target="_top" xlink:title=" ">
<polygon fill="white" stroke="black" points="1336.92,-0.5 1336.92,-19.5 1392.92,-19.5 1392.92,-0.5 1336.92,-0.5"/>
<text text-anchor="middle" x="1364.92" y="-7.5" font-family="Helvetica,sans-Serif" font-size="10.00">icns.cpp</text>
</a>
</g>
</g>
<!-- Node4&#45;&gt;Node5 -->
<g id="edge4" class="edge">
<title>Node4&#45;&gt;Node5</title>
<path fill="none" stroke="midnightblue" d="M654.14,-55.96C925.83,-27.16 1241.85,-15.06 1336.69,-11.89"/>
<polygon fill="midnightblue" stroke="midnightblue" points="653.66,-52.49 644.09,-57.04 654.41,-59.45 653.66,-52.49"/>
</g>
<!-- Node6 -->
<g id="node6" class="node">
<title>Node6</title>
<g id="a_node6"><a xlink:href="icns__advection_8cpp.html" target="_top" xlink:title=" ">
<polygon fill="white" stroke="black" points="538.92,-0.5 538.92,-19.5 648.92,-19.5 648.92,-0.5 538.92,-0.5"/>
<text text-anchor="middle" x="593.92" y="-7.5" font-family="Helvetica,sans-Serif" font-size="10.00">icns_advection.cpp</text>
</a>
</g>
</g>
<!-- Node4&#45;&gt;Node6 -->
<g id="edge5" class="edge">
<title>Node4&#45;&gt;Node6</title>
<path fill="none" stroke="midnightblue" d="M593.92,-45.8C593.92,-36.91 593.92,-26.78 593.92,-19.75"/>
<polygon fill="midnightblue" stroke="midnightblue" points="590.42,-46.08 593.92,-56.08 597.42,-46.08 590.42,-46.08"/>
</g>
<!-- Node7&#45;&gt;Node5 -->
<g id="edge7" class="edge">
<title>Node7&#45;&gt;Node5</title>
<path fill="none" stroke="midnightblue" d="M1297.96,-51.18C1314.52,-41.24 1336.34,-28.15 1350.49,-19.65"/>
<polygon fill="midnightblue" stroke="midnightblue" points="1296.15,-48.18 1289.38,-56.32 1299.75,-54.18 1296.15,-48.18"/>
</g>
<!-- Node13&#45;&gt;Node3 -->
<g id="edge14" class="edge">
<title>Node13&#45;&gt;Node3</title>
<path fill="none" stroke="midnightblue" d="M539.22,-112.04C539.12,-112.03 539.02,-112.01 538.92,-112 387.13,-91.46 205.06,-75.86 129.49,-69.78"/>
<polygon fill="midnightblue" stroke="midnightblue" points="538.46,-115.47 548.86,-113.44 539.46,-108.54 538.46,-115.47"/>
</g>
<!-- Node13&#45;&gt;Node4 -->
<g id="edge15" class="edge">
<title>Node13&#45;&gt;Node4</title>
<path fill="none" stroke="midnightblue" d="M592.63,-101.8C592.96,-92.91 593.33,-82.78 593.59,-75.75"/>
<polygon fill="midnightblue" stroke="midnightblue" points="589.12,-101.96 592.25,-112.08 596.12,-102.22 589.12,-101.96"/>
</g>
<!-- Node13&#45;&gt;Node7 -->
<g id="edge16" class="edge">
<title>Node13&#45;&gt;Node7</title>
<path fill="none" stroke="midnightblue" d="M645.04,-112C893.31,-83.13 958.92,-99.38 1203.92,-76 1215.79,-74.87 1228.74,-73.32 1240.3,-71.82"/>
<polygon fill="midnightblue" stroke="midnightblue" points="644.52,-108.53 635,-113.18 645.34,-115.49 644.52,-108.53"/>
</g>
<!-- Node13&#45;&gt;Node8 -->
<g id="edge17" class="edge">
<title>Node13&#45;&gt;Node8</title>
<path fill="none" stroke="midnightblue" d="M539.22,-112.05C539.12,-112.03 539.02,-112.02 538.92,-112 452.45,-97.71 350.86,-81.54 296.98,-73.01"/>
<polygon fill="midnightblue" stroke="midnightblue" points="538.38,-115.46 548.82,-113.65 539.53,-108.55 538.38,-115.46"/>
</g>
<!-- Node13&#45;&gt;Node9 -->
<g id="edge18" class="edge">
<title>Node13&#45;&gt;Node9</title>
<path fill="none" stroke="midnightblue" d="M548.62,-109.92C506.99,-99.27 445.26,-83.47 409.46,-74.3"/>
<polygon fill="midnightblue" stroke="midnightblue" points="547.93,-113.35 558.48,-112.44 549.66,-106.57 547.93,-113.35"/>
</g>
<!-- Node13&#45;&gt;Node10 -->
<g id="edge19" class="edge">
<title>Node13&#45;&gt;Node10</title>
<path fill="none" stroke="midnightblue" d="M564.44,-108.1C542.95,-98.01 513.7,-84.27 495.05,-75.52"/>
<polygon fill="midnightblue" stroke="midnightblue" points="563.16,-111.36 573.7,-112.44 566.13,-105.02 563.16,-111.36"/>
</g>
<!-- Node13&#45;&gt;Node11 -->
<g id="edge20" class="edge">
<title>Node13&#45;&gt;Node11</title>
<path fill="none" stroke="midnightblue" d="M616.5,-107.45C634.6,-97.48 658.65,-84.23 674.21,-75.65"/>
<polygon fill="midnightblue" stroke="midnightblue" points="614.73,-104.43 607.66,-112.32 618.11,-110.56 614.73,-104.43"/>
</g>
<!-- Node13&#45;&gt;Node12 -->
<g id="edge21" class="edge">
<title>Node13&#45;&gt;Node12</title>
<path fill="none" stroke="midnightblue" d="M644.94,-112C760.11,-97.94 1053.12,-75.65 1142.61,-68.95"/>
<polygon fill="midnightblue" stroke="midnightblue" points="644.49,-108.53 635,-113.25 645.36,-115.47 644.49,-108.53"/>
</g>
<!-- Node15 -->
<g id="node15" class="node">
<title>Node15</title>
<g id="a_node15"><a xlink:href="_p_d_e_8_h.html" target="_top" xlink:title=" ">
<polygon fill="white" stroke="black" points="876.42,-224.5 876.42,-243.5 923.42,-243.5 923.42,-224.5 876.42,-224.5"/>
<text text-anchor="middle" x="899.92" y="-231.5" font-family="Helvetica,sans-Serif" font-size="10.00">PDE.H</text>
</a>
</g>
</g>
<!-- Node14&#45;&gt;Node15 -->
<g id="edge23" class="edge">
<title>Node14&#45;&gt;Node15</title>
<path fill="none" stroke="midnightblue" d="M899.92,-269.8C899.92,-260.91 899.92,-250.78 899.92,-243.75"/>
<polygon fill="midnightblue" stroke="midnightblue" points="896.42,-270.08 899.92,-280.08 903.42,-270.08 896.42,-270.08"/>
</g>
<!-- Node15&#45;&gt;Node16 -->
<g id="edge24" class="edge">
<title>Node15&#45;&gt;Node16</title>
<path fill="none" stroke="midnightblue" d="M865.98,-231.45C767.03,-226.79 470.28,-211.71 224.92,-188 211.81,-186.73 197.38,-184.97 184.98,-183.34"/>
<polygon fill="midnightblue" stroke="midnightblue" points="866.11,-234.96 876.26,-231.93 866.44,-227.97 866.11,-234.96"/>
</g>
<!-- Node15&#45;&gt;Node18 -->
<g id="edge28" class="edge">
<title>Node15&#45;&gt;Node18</title>
<path fill="none" stroke="midnightblue" d="M933.72,-229.07C992.64,-222.04 1117.91,-206.34 1222.92,-188 1330.11,-169.28 1456.85,-140.51 1508.38,-128.53"/>
<polygon fill="midnightblue" stroke="midnightblue" points="933.03,-225.63 923.51,-230.28 933.85,-232.58 933.03,-225.63"/>
</g>
<!-- Node15&#45;&gt;Node22 -->
<g id="edge37" class="edge">
<title>Node15&#45;&gt;Node22</title>
<path fill="none" stroke="midnightblue" d="M866.07,-230.11C756.06,-220.73 409.37,-191.15 300.19,-181.84"/>
<polygon fill="midnightblue" stroke="midnightblue" points="866,-233.62 876.26,-230.98 866.59,-226.64 866,-233.62"/>
</g>
<!-- Node15&#45;&gt;Node24 -->
<g id="edge41" class="edge">
<title>Node15&#45;&gt;Node24</title>
<path fill="none" stroke="midnightblue" d="M880.88,-218.1C868.46,-208.38 852.67,-196.03 842.21,-187.83"/>
<polygon fill="midnightblue" stroke="midnightblue" points="878.8,-220.92 888.83,-224.32 883.11,-215.4 878.8,-220.92"/>
</g>
<!-- Node15&#45;&gt;Node29 -->
<g id="edge50" class="edge">
<title>Node15&#45;&gt;Node29</title>
<path fill="none" stroke="midnightblue" d="M866.13,-225.1C823.26,-215.08 749.63,-197.87 705.48,-187.55"/>
<polygon fill="midnightblue" stroke="midnightblue" points="865.53,-228.56 876.07,-227.42 867.13,-221.74 865.53,-228.56"/>
</g>
<!-- Node15&#45;&gt;Node30 -->
<g id="edge52" class="edge">
<title>Node15&#45;&gt;Node30</title>
<path fill="none" stroke="midnightblue" d="M914.64,-216.43C923.06,-206.97 933.27,-195.48 940.14,-187.75"/>
<polygon fill="midnightblue" stroke="midnightblue" points="911.87,-214.28 907.84,-224.08 917.1,-218.93 911.87,-214.28"/>
</g>
<!-- Node15&#45;&gt;Node33 -->
<g id="edge60" class="edge">
<title>Node15&#45;&gt;Node33</title>
<path fill="none" stroke="midnightblue" d="M933.8,-226.75C994.86,-215.5 1121.64,-192.14 1171.81,-182.89"/>
<polygon fill="midnightblue" stroke="midnightblue" points="933.09,-223.33 923.89,-228.58 934.36,-230.21 933.09,-223.33"/>
</g>
<!-- Node16&#45;&gt;Node3 -->
<g id="edge25" class="edge">
<title>Node16&#45;&gt;Node3</title>
<path fill="none" stroke="midnightblue" d="M112.42,-177.09C77.5,-174.69 29.45,-165.03 4.92,-132 -14.3,-106.12 30.34,-86.15 63.1,-75.52"/>
<polygon fill="midnightblue" stroke="midnightblue" points="112.63,-180.61 122.8,-177.62 112.99,-173.62 112.63,-180.61"/>
</g>
<!-- Node17 -->
<g id="node17" class="node">
<title>Node17</title>
<g id="a_node17"><a xlink:href="density__ops_8_h.html" target="_top" xlink:title=" ">
<polygon fill="white" stroke="black" points="13.92,-112.5 13.92,-131.5 99.92,-131.5 99.92,-112.5 13.92,-112.5"/>
<text text-anchor="middle" x="56.92" y="-119.5" font-family="Helvetica,sans-Serif" font-size="10.00">density_ops.H</text>
</a>
</g>
</g>
<!-- Node16&#45;&gt;Node17 -->
<g id="edge26" class="edge">
<title>Node16&#45;&gt;Node17</title>
<path fill="none" stroke="midnightblue" d="M129.58,-163.45C111.67,-153.48 87.86,-140.23 72.46,-131.65"/>
<polygon fill="midnightblue" stroke="midnightblue" points="127.89,-166.52 138.33,-168.32 131.3,-160.4 127.89,-166.52"/>
</g>
<!-- Node17&#45;&gt;Node3 -->
<g id="edge27" class="edge">
<title>Node17&#45;&gt;Node3</title>
<path fill="none" stroke="midnightblue" d="M68.86,-103.57C75.23,-94.27 82.78,-83.25 87.92,-75.75"/>
<polygon fill="midnightblue" stroke="midnightblue" points="65.79,-101.86 63.03,-112.08 71.57,-105.81 65.79,-101.86"/>
</g>
<!-- Node18&#45;&gt;Node4 -->
<g id="edge30" class="edge">
<title>Node18&#45;&gt;Node4</title>
<path fill="none" stroke="midnightblue" d="M1498.39,-116.18C1486.57,-114.63 1473.17,-113.05 1460.92,-112 1102.76,-81.37 1010.66,-111.15 652.92,-76 650.03,-75.72 647.07,-75.39 644.08,-75.03"/>
<polygon fill="midnightblue" stroke="midnightblue" points="1497.92,-119.65 1508.3,-117.52 1498.86,-112.71 1497.92,-119.65"/>
</g>
<!-- Node18&#45;&gt;Node5 -->
<g id="edge29" class="edge">
<title>Node18&#45;&gt;Node5</title>
<path fill="none" stroke="midnightblue" d="M1505.87,-107.72C1489.72,-99.2 1468.72,-87.59 1450.92,-76 1422.53,-57.52 1391.29,-32.68 1375.43,-19.71"/>
<polygon fill="midnightblue" stroke="midnightblue" points="1504.27,-110.84 1514.76,-112.36 1507.51,-104.63 1504.27,-110.84"/>
</g>
<!-- Node18&#45;&gt;Node7 -->
<g id="edge35" class="edge">
<title>Node18&#45;&gt;Node7</title>
<path fill="none" stroke="midnightblue" d="M1498.34,-112.99C1496.84,-112.65 1495.37,-112.32 1493.92,-112 1484.94,-110.01 1369.25,-86.31 1309.76,-74.13"/>
<polygon fill="midnightblue" stroke="midnightblue" points="1497.69,-116.43 1508.23,-115.27 1499.27,-109.61 1497.69,-116.43"/>
</g>
<!-- Node19 -->
<g id="node19" class="node">
<title>Node19</title>
<g id="a_node19"><a xlink:href="icns__bcop_8_h.html" target="_top" xlink:title=" ">
<polygon fill="white" stroke="black" points="1327.42,-56.5 1327.42,-75.5 1402.42,-75.5 1402.42,-56.5 1327.42,-56.5"/>
<text text-anchor="middle" x="1364.92" y="-63.5" font-family="Helvetica,sans-Serif" font-size="10.00">icns_bcop.H</text>
</a>
</g>
</g>
<!-- Node18&#45;&gt;Node19 -->
<g id="edge31" class="edge">
<title>Node18&#45;&gt;Node19</title>
<path fill="none" stroke="midnightblue" d="M1498.69,-110.26C1467.19,-100.07 1420.47,-84.96 1391.4,-75.56"/>
<polygon fill="midnightblue" stroke="midnightblue" points="1497.75,-113.63 1508.34,-113.38 1499.91,-106.97 1497.75,-113.63"/>
</g>
<!-- Node20 -->
<g id="node20" class="node">
<title>Node20</title>
<g id="a_node20"><a xlink:href="icns__diffusion_8_h.html" target="_top" xlink:title=" ">
<polygon fill="white" stroke="black" points="1594.92,-56.5 1594.92,-75.5 1688.92,-75.5 1688.92,-56.5 1594.92,-56.5"/>
<text text-anchor="middle" x="1641.92" y="-63.5" font-family="Helvetica,sans-Serif" font-size="10.00">icns_diffusion.H</text>
</a>
</g>
</g>
<!-- Node18&#45;&gt;Node20 -->
<g id="edge33" class="edge">
<title>Node18&#45;&gt;Node20</title>
<path fill="none" stroke="midnightblue" d="M1558.68,-107.86C1579.08,-97.85 1606.58,-84.35 1624.29,-75.65"/>
<polygon fill="midnightblue" stroke="midnightblue" points="1557.03,-104.78 1549.59,-112.32 1560.11,-111.06 1557.03,-104.78"/>
</g>
<!-- Node21 -->
<g id="node21" class="node">
<title>Node21</title>
<g id="a_node21"><a xlink:href="_power_law_profile_8cpp.html" target="_top" xlink:title=" ">
<polygon fill="white" stroke="black" points="1459.42,-56.5 1459.42,-75.5 1576.42,-75.5 1576.42,-56.5 1459.42,-56.5"/>
<text text-anchor="middle" x="1517.92" y="-63.5" font-family="Helvetica,sans-Serif" font-size="10.00">PowerLawProfile.cpp</text>
</a>
</g>
</g>
<!-- Node18&#45;&gt;Node21 -->
<g id="edge36" class="edge">
<title>Node18&#45;&gt;Node21</title>
<path fill="none" stroke="midnightblue" d="M1527.09,-102.4C1524.75,-93.36 1522.05,-82.94 1520.19,-75.75"/>
<polygon fill="midnightblue" stroke="midnightblue" points="1523.71,-103.28 1529.61,-112.08 1530.48,-101.52 1523.71,-103.28"/>
</g>
<!-- Node19&#45;&gt;Node5 -->
<g id="edge32" class="edge">
<title>Node19&#45;&gt;Node5</title>
<path fill="none" stroke="midnightblue" d="M1364.92,-45.8C1364.92,-36.91 1364.92,-26.78 1364.92,-19.75"/>
<polygon fill="midnightblue" stroke="midnightblue" points="1361.42,-46.08 1364.92,-56.08 1368.42,-46.08 1361.42,-46.08"/>
</g>
<!-- Node20&#45;&gt;Node5 -->
<g id="edge34" class="edge">
<title>Node20&#45;&gt;Node5</title>
<path fill="none" stroke="midnightblue" d="M1587.87,-54.46C1529.44,-43.07 1438.57,-25.36 1392.99,-16.47"/>
<polygon fill="midnightblue" stroke="midnightblue" points="1587.54,-57.97 1598.03,-56.44 1588.88,-51.09 1587.54,-57.97"/>
</g>
<!-- Node22&#45;&gt;Node8 -->
<g id="edge38" class="edge">
<title>Node22&#45;&gt;Node8</title>
<path fill="none" stroke="midnightblue" d="M223.7,-172.96C196.78,-167.96 164.11,-156.81 146.92,-132 125.4,-100.96 180.36,-82.66 220.69,-73.76"/>
<polygon fill="midnightblue" stroke="midnightblue" points="223.26,-176.44 233.69,-174.6 224.38,-169.53 223.26,-176.44"/>
</g>
<!-- Node23 -->
<g id="node23" class="node">
<title>Node23</title>
<g id="a_node23"><a xlink:href="levelset__ops_8_h.html" target="_top" xlink:title=" ">
<polygon fill="white" stroke="black" points="156.42,-112.5 156.42,-131.5 245.42,-131.5 245.42,-112.5 156.42,-112.5"/>
<text text-anchor="middle" x="200.92" y="-119.5" font-family="Helvetica,sans-Serif" font-size="10.00">levelset_ops.H</text>
</a>
</g>
</g>
<!-- Node22&#45;&gt;Node23 -->
<g id="edge39" class="edge">
<title>Node22&#45;&gt;Node23</title>
<path fill="none" stroke="midnightblue" d="M248.36,-161.82C236.54,-152.15 221.63,-139.95 211.71,-131.83"/>
<polygon fill="midnightblue" stroke="midnightblue" points="246.36,-164.7 256.31,-168.32 250.79,-159.28 246.36,-164.7"/>
</g>
<!-- Node23&#45;&gt;Node8 -->
<g id="edge40" class="edge">
<title>Node23&#45;&gt;Node8</title>
<path fill="none" stroke="midnightblue" d="M217.83,-105.25C228.12,-95.67 240.88,-83.79 249.43,-75.83"/>
<polygon fill="midnightblue" stroke="midnightblue" points="215.17,-102.95 210.24,-112.32 219.94,-108.07 215.17,-102.95"/>
</g>
<!-- Node24&#45;&gt;Node9 -->
<g id="edge42" class="edge">
<title>Node24&#45;&gt;Node9</title>
<path fill="none" stroke="midnightblue" d="M797.06,-174.23C700.49,-166.21 429.66,-142.87 413.92,-132 394.55,-118.63 385.9,-90.37 382.62,-75.92"/>
<polygon fill="midnightblue" stroke="midnightblue" points="796.91,-177.73 807.16,-175.06 797.48,-170.75 796.91,-177.73"/>
</g>
<!-- Node25 -->
<g id="node25" class="node">
<title>Node25</title>
<g id="a_node25"><a xlink:href="sdr__ops_8_h.html" target="_top" xlink:title=" ">
<polygon fill="white" stroke="black" points="263.42,-112.5 263.42,-131.5 328.42,-131.5 328.42,-112.5 263.42,-112.5"/>
<text text-anchor="middle" x="295.92" y="-119.5" font-family="Helvetica,sans-Serif" font-size="10.00">sdr_ops.H</text>
</a>
</g>
</g>
<!-- Node24&#45;&gt;Node25 -->
<g id="edge43" class="edge">
<title>Node24&#45;&gt;Node25</title>
<path fill="none" stroke="midnightblue" d="M796.73,-173.65C721.54,-166.27 536.13,-147.98 380.92,-132 363.65,-130.22 344.41,-128.19 328.61,-126.51"/>
<polygon fill="midnightblue" stroke="midnightblue" points="796.71,-177.16 807.01,-174.66 797.4,-170.2 796.71,-177.16"/>
</g>
<!-- Node26 -->
<g id="node26" class="node">
<title>Node26</title>
<g id="a_node26"><a xlink:href="_k_omega_s_s_t_8cpp.html" target="_top" xlink:title=" ">
<polygon fill="white" stroke="black" points="782.42,-56.5 782.42,-75.5 877.42,-75.5 877.42,-56.5 782.42,-56.5"/>
<text text-anchor="middle" x="829.92" y="-63.5" font-family="Helvetica,sans-Serif" font-size="10.00">KOmegaSST.cpp</text>
</a>
</g>
</g>
<!-- Node24&#45;&gt;Node26 -->
<g id="edge45" class="edge">
<title>Node24&#45;&gt;Node26</title>
<path fill="none" stroke="midnightblue" d="M818.19,-159.9C812.99,-151.87 807.57,-141.9 804.92,-132 799.34,-111.21 813.61,-87.91 822.82,-75.64"/>
<polygon fill="midnightblue" stroke="midnightblue" points="815.45,-162.09 824.03,-168.32 821.21,-158.11 815.45,-162.09"/>
</g>
<!-- Node27 -->
<g id="node27" class="node">
<title>Node27</title>
<g id="a_node27"><a xlink:href="_k_omega_s_s_t_i_8_h.html" target="_top" xlink:title=" ">
<polygon fill="white" stroke="black" points="813.42,-112.5 813.42,-131.5 902.42,-131.5 902.42,-112.5 813.42,-112.5"/>
<text text-anchor="middle" x="857.92" y="-119.5" font-family="Helvetica,sans-Serif" font-size="10.00">KOmegaSSTI.H</text>
</a>
</g>
</g>
<!-- Node24&#45;&gt;Node27 -->
<g id="edge46" class="edge">
<title>Node24&#45;&gt;Node27</title>
<path fill="none" stroke="midnightblue" d="M839.93,-158.98C844.51,-149.82 849.87,-139.09 853.54,-131.75"/>
<polygon fill="midnightblue" stroke="midnightblue" points="836.72,-157.57 835.38,-168.08 842.98,-160.7 836.72,-157.57"/>
</g>
<!-- Node28 -->
<g id="node28" class="node">
<title>Node28</title>
<g id="a_node28"><a xlink:href="_k_omega_s_s_t_i_d_d_e_s_8cpp.html" target="_top" xlink:title=" ">
<polygon fill="white" stroke="black" points="895.92,-56.5 895.92,-75.5 1021.92,-75.5 1021.92,-56.5 895.92,-56.5"/>
<text text-anchor="middle" x="958.92" y="-63.5" font-family="Helvetica,sans-Serif" font-size="10.00">KOmegaSSTIDDES.cpp</text>
</a>
</g>
</g>
<!-- Node24&#45;&gt;Node28 -->
<g id="edge49" class="edge">
<title>Node24&#45;&gt;Node28</title>
<path fill="none" stroke="midnightblue" d="M860.88,-164.27C877.09,-156.46 896.83,-145.39 911.92,-132 930.87,-115.18 946.63,-89.42 954.16,-75.94"/>
<polygon fill="midnightblue" stroke="midnightblue" points="859.39,-161.1 851.8,-168.48 862.34,-167.45 859.39,-161.1"/>
</g>
<!-- Node25&#45;&gt;Node9 -->
<g id="edge44" class="edge">
<title>Node25&#45;&gt;Node9</title>
<path fill="none" stroke="midnightblue" d="M318.11,-106.9C333.7,-97 354.05,-84.07 367.29,-75.65"/>
<polygon fill="midnightblue" stroke="midnightblue" points="316.14,-104.01 309.57,-112.32 319.89,-109.92 316.14,-104.01"/>
</g>
<!-- Node27&#45;&gt;Node26 -->
<g id="edge47" class="edge">
<title>Node27&#45;&gt;Node26</title>
<path fill="none" stroke="midnightblue" d="M848.58,-102.98C843.82,-93.82 838.26,-83.09 834.45,-75.75"/>
<polygon fill="midnightblue" stroke="midnightblue" points="845.58,-104.82 853.29,-112.08 851.8,-101.59 845.58,-104.82"/>
</g>
<!-- Node27&#45;&gt;Node28 -->
<g id="edge48" class="edge">
<title>Node27&#45;&gt;Node28</title>
<path fill="none" stroke="midnightblue" d="M883,-107.59C901.67,-97.61 926.62,-84.27 942.73,-75.65"/>
<polygon fill="midnightblue" stroke="midnightblue" points="881.31,-104.52 874.14,-112.32 884.61,-110.7 881.31,-104.52"/>
</g>
<!-- Node29&#45;&gt;Node10 -->
<g id="edge51" class="edge">
<title>Node29&#45;&gt;Node10</title>
<path fill="none" stroke="midnightblue" d="M614.73,-175.32C547.61,-171.96 439.03,-161.93 413.92,-132 396.04,-110.69 433,-87.78 457.51,-75.66"/>
<polygon fill="midnightblue" stroke="midnightblue" points="614.57,-178.82 624.72,-175.78 614.89,-171.82 614.57,-178.82"/>
</g>
<!-- Node30&#45;&gt;Node11 -->
<g id="edge53" class="edge">
<title>Node30&#45;&gt;Node11</title>
<path fill="none" stroke="midnightblue" d="M915.07,-168.77C885.62,-160.91 841.54,-147.9 804.92,-132 766.21,-115.19 723.74,-88.97 702.91,-75.54"/>
<polygon fill="midnightblue" stroke="midnightblue" points="914.28,-172.19 924.84,-171.34 916.06,-165.41 914.28,-172.19"/>
</g>
<!-- Node30&#45;&gt;Node26 -->
<g id="edge57" class="edge">
<title>Node30&#45;&gt;Node26</title>
<path fill="none" stroke="midnightblue" d="M941.16,-158.85C935.18,-144.73 925.32,-125.35 911.92,-112 895.12,-95.27 870.81,-82.98 853.02,-75.52"/>
<polygon fill="midnightblue" stroke="midnightblue" points="938.02,-160.44 944.97,-168.44 944.53,-157.86 938.02,-160.44"/>
</g>
<!-- Node30&#45;&gt;Node27 -->
<g id="edge58" class="edge">
<title>Node30&#45;&gt;Node27</title>
<path fill="none" stroke="midnightblue" d="M924.88,-163.18C908.32,-153.24 886.5,-140.15 872.34,-131.65"/>
<polygon fill="midnightblue" stroke="midnightblue" points="923.08,-166.18 933.46,-168.32 926.68,-160.18 923.08,-166.18"/>
</g>
<!-- Node30&#45;&gt;Node28 -->
<g id="edge59" class="edge">
<title>Node30&#45;&gt;Node28</title>
<path fill="none" stroke="midnightblue" d="M964.57,-161.04C971.68,-153.08 979.2,-142.84 982.92,-132 989.87,-111.75 975.55,-88.23 966.18,-75.78"/>
<polygon fill="midnightblue" stroke="midnightblue" points="961.86,-158.81 957.47,-168.45 966.92,-163.65 961.86,-158.81"/>
</g>
<!-- Node31 -->
<g id="node31" class="node">
<title>Node31</title>
<g id="a_node31"><a xlink:href="tke__ops_8_h.html" target="_top" xlink:title=" ">
<polygon fill="white" stroke="black" points="653.42,-112.5 653.42,-131.5 718.42,-131.5 718.42,-112.5 653.42,-112.5"/>
<text text-anchor="middle" x="685.92" y="-119.5" font-family="Helvetica,sans-Serif" font-size="10.00">tke_ops.H</text>
</a>
</g>
</g>
<!-- Node30&#45;&gt;Node31 -->
<g id="edge54" class="edge">
<title>Node30&#45;&gt;Node31</title>
<path fill="none" stroke="midnightblue" d="M914.62,-170.14C864.19,-159.74 769.02,-140.13 718.82,-129.78"/>
<polygon fill="midnightblue" stroke="midnightblue" points="914.17,-173.62 924.67,-172.21 915.58,-166.76 914.17,-173.62"/>
</g>
<!-- Node32 -->
<g id="node32" class="node">
<title>Node32</title>
<g id="a_node32"><a xlink:href="_one_eq_ksgs_8cpp.html" target="_top" xlink:title=" ">
<polygon fill="white" stroke="black" points="1034.92,-112.5 1034.92,-131.5 1126.92,-131.5 1126.92,-112.5 1034.92,-112.5"/>
<text text-anchor="middle" x="1080.92" y="-119.5" font-family="Helvetica,sans-Serif" font-size="10.00">OneEqKsgs.cpp</text>
</a>
</g>
</g>
<!-- Node30&#45;&gt;Node32 -->
<g id="edge56" class="edge">
<title>Node30&#45;&gt;Node32</title>
<path fill="none" stroke="midnightblue" d="M978.37,-164.64C1003.32,-154.5 1037.99,-140.43 1059.94,-131.52"/>
<polygon fill="midnightblue" stroke="midnightblue" points="976.94,-161.44 968.99,-168.44 979.57,-167.92 976.94,-161.44"/>
</g>
<!-- Node31&#45;&gt;Node11 -->
<g id="edge55" class="edge">
<title>Node31&#45;&gt;Node11</title>
<path fill="none" stroke="midnightblue" d="M687.32,-102.1C687.98,-93.14 688.74,-82.86 689.27,-75.75"/>
<polygon fill="midnightblue" stroke="midnightblue" points="683.83,-101.85 686.58,-112.08 690.81,-102.37 683.83,-101.85"/>
</g>
<!-- Node33&#45;&gt;Node12 -->
<g id="edge61" class="edge">
<title>Node33&#45;&gt;Node12</title>
<path fill="none" stroke="midnightblue" d="M1183.82,-159.17C1180.11,-151.08 1176.17,-141.27 1173.92,-132 1169.11,-112.2 1168.59,-88.11 1168.71,-75.55"/>
<polygon fill="midnightblue" stroke="midnightblue" points="1180.75,-160.85 1188.26,-168.32 1187.05,-157.8 1180.75,-160.85"/>
</g>
<!-- Node34 -->
<g id="node34" class="node">
<title>Node34</title>
<g id="a_node34"><a xlink:href="vof__advection_8_h.html" target="_top" xlink:title=" ">
<polygon fill="white" stroke="black" points="1182.92,-112.5 1182.92,-131.5 1278.92,-131.5 1278.92,-112.5 1182.92,-112.5"/>
<text text-anchor="middle" x="1230.92" y="-119.5" font-family="Helvetica,sans-Serif" font-size="10.00">vof_advection.H</text>
</a>
</g>
</g>
<!-- Node33&#45;&gt;Node34 -->
<g id="edge62" class="edge">
<title>Node33&#45;&gt;Node34</title>
<path fill="none" stroke="midnightblue" d="M1204.98,-159.86C1211.56,-150.5 1219.43,-139.33 1224.76,-131.75"/>
<polygon fill="midnightblue" stroke="midnightblue" points="1202.08,-157.89 1199.19,-168.08 1207.81,-161.92 1202.08,-157.89"/>
</g>
<!-- Node35 -->
<g id="node35" class="node">
<title>Node35</title>
<g id="a_node35"><a xlink:href="vof__bcop_8_h.html" target="_top" xlink:title=" ">
<polygon fill="white" stroke="black" points="1380.42,-112.5 1380.42,-131.5 1451.42,-131.5 1451.42,-112.5 1380.42,-112.5"/>
<text text-anchor="middle" x="1415.92" y="-119.5" font-family="Helvetica,sans-Serif" font-size="10.00">vof_bcop.H</text>
</a>
</g>
</g>
<!-- Node33&#45;&gt;Node35 -->
<g id="edge64" class="edge">
<title>Node33&#45;&gt;Node35</title>
<path fill="none" stroke="midnightblue" d="M1224.07,-169.46C1265.27,-159.48 1337.69,-141.94 1380.8,-131.5"/>
<polygon fill="midnightblue" stroke="midnightblue" points="1223.19,-166.07 1214.3,-171.82 1224.84,-172.87 1223.19,-166.07"/>
</g>
<!-- Node36 -->
<g id="node36" class="node">
<title>Node36</title>
<g id="a_node36"><a xlink:href="vof__ops_8_h.html" target="_top" xlink:title=" ">
<polygon fill="white" stroke="black" points="1297.42,-112.5 1297.42,-131.5 1362.42,-131.5 1362.42,-112.5 1297.42,-112.5"/>
<text text-anchor="middle" x="1329.92" y="-119.5" font-family="Helvetica,sans-Serif" font-size="10.00">vof_ops.H</text>
</a>
</g>
</g>
<!-- Node33&#45;&gt;Node36 -->
<g id="edge66" class="edge">
<title>Node33&#45;&gt;Node36</title>
<path fill="none" stroke="midnightblue" d="M1223.65,-164.89C1249.33,-154.77 1285.3,-140.59 1308.11,-131.6"/>
<polygon fill="midnightblue" stroke="midnightblue" points="1222.04,-161.76 1214.02,-168.68 1224.61,-168.27 1222.04,-161.76"/>
</g>
<!-- Node34&#45;&gt;Node12 -->
<g id="edge63" class="edge">
<title>Node34&#45;&gt;Node12</title>
<path fill="none" stroke="midnightblue" d="M1213.16,-105.54C1202.11,-95.91 1188.29,-83.87 1179.06,-75.83"/>
<polygon fill="midnightblue" stroke="midnightblue" points="1211.12,-108.4 1220.96,-112.32 1215.71,-103.12 1211.12,-108.4"/>
</g>
<!-- Node35&#45;&gt;Node12 -->
<g id="edge65" class="edge">
<title>Node35&#45;&gt;Node12</title>
<path fill="none" stroke="midnightblue" d="M1370.4,-111.05C1318.91,-99.79 1236.82,-81.84 1195.1,-72.72"/>
<polygon fill="midnightblue" stroke="midnightblue" points="1369.75,-114.49 1380.27,-113.21 1371.24,-107.65 1369.75,-114.49"/>
</g>
<!-- Node36&#45;&gt;Node12 -->
<g id="edge67" class="edge">
<title>Node36&#45;&gt;Node12</title>
<path fill="none" stroke="midnightblue" d="M1294.65,-109.17C1264.34,-99 1221.35,-84.59 1194.31,-75.52"/>
<polygon fill="midnightblue" stroke="midnightblue" points="1293.81,-112.58 1304.41,-112.44 1296.04,-105.95 1293.81,-112.58"/>
</g>
<!-- Node37&#45;&gt;Node7 -->
<g id="edge72" class="edge">
<title>Node37&#45;&gt;Node7</title>
<path fill="none" stroke="midnightblue" d="M1432.94,-270.6C1444.39,-227.83 1470.7,-124.43 1460.92,-112 1456.19,-105.99 1362.17,-85.38 1309.66,-74.25"/>
<polygon fill="midnightblue" stroke="midnightblue" points="1429.55,-269.72 1430.32,-280.29 1436.31,-271.54 1429.55,-269.72"/>
</g>
<!-- Node37&#45;&gt;Node15 -->
<g id="edge73" class="edge">
<title>Node37&#45;&gt;Node15</title>
<path fill="none" stroke="midnightblue" d="M1373.15,-283.4C1259.6,-271.79 1002.53,-245.49 923.49,-237.41"/>
<polygon fill="midnightblue" stroke="midnightblue" points="1373.05,-286.91 1383.36,-284.44 1373.76,-279.94 1373.05,-286.91"/>
</g>
<!-- Node37&#45;&gt;Node20 -->
<g id="edge71" class="edge">
<title>Node37&#45;&gt;Node20</title>
<path fill="none" stroke="midnightblue" d="M1482.36,-281.9C1509.92,-275.84 1542.25,-264.65 1564.92,-244 1617.93,-195.7 1636.12,-104.47 1640.66,-75.83"/>
<polygon fill="midnightblue" stroke="midnightblue" points="1481.56,-278.49 1472.45,-283.9 1482.94,-285.35 1481.56,-278.49"/>
</g>
<!-- Node38 -->
<g id="node38" class="node">
<title>Node38</title>
<g id="a_node38"><a xlink:href="_diffusion_ops_8cpp.html" target="_top" xlink:title=" ">
<polygon fill="white" stroke="black" points="1456.42,-224.5 1456.42,-243.5 1555.42,-243.5 1555.42,-224.5 1456.42,-224.5"/>
<text text-anchor="middle" x="1505.92" y="-231.5" font-family="Helvetica,sans-Serif" font-size="10.00">DiffusionOps.cpp</text>
</a>
</g>
</g>
<!-- Node37&#45;&gt;Node38 -->
<g id="edge70" class="edge">
<title>Node37&#45;&gt;Node38</title>
<path fill="none" stroke="midnightblue" d="M1448.69,-274.62C1462.93,-264.76 1481.37,-251.99 1493.42,-243.65"/>
<polygon fill="midnightblue" stroke="midnightblue" points="1446.68,-271.75 1440.45,-280.32 1450.66,-277.51 1446.68,-271.75"/>
</g>
</g>
</svg>
        <g id="navigator" transform="translate(0 0)" fill="#404254">
                <rect fill="#f2f5e9" fill-opacity="0.5" stroke="#606060" stroke-width=".5" x="0" y="0" width="60" height="60"/>
                <use id="zoomplus" xlink:href="#zoomPlus" x="17" y="9" onmousedown="handleZoom(evt,'in')"/>
                <use id="zoomminus" xlink:href="#zoomMin" x="42" y="9" onmousedown="handleZoom(evt,'out')"/>
                <use id="reset" xlink:href="#resetDef" x="30" y="36" onmousedown="handleReset()"/>
                <g id="arrowUp" xlink:href="#dirArrow" transform="translate(30 24)" onmousedown="handlePan(0,-1)">
                  <use xlink:href="#rim" fill="#404040">
                        <set attributeName="fill" to="#808080" begin="arrowUp.mouseover" end="arrowUp.mouseout"/>
                  </use>
                  <path fill="none" stroke="white" stroke-width="1.5" d="M0,-3.0v7 M-2.5,-0.5L0,-3.0L2.5,-0.5"/>
                </g>
                <g id="arrowRight" xlink:href="#dirArrow" transform="rotate(90) translate(36 -43)" onmousedown="handlePan(1,0)">
                  <use xlink:href="#rim" fill="#404040">
                        <set attributeName="fill" to="#808080" begin="arrowRight.mouseover" end="arrowRight.mouseout"/>
                  </use>
                  <path fill="none" stroke="white" stroke-width="1.5" d="M0,-3.0v7 M-2.5,-0.5L0,-3.0L2.5,-0.5"/>
                </g>
                <g id="arrowDown" xlink:href="#dirArrow" transform="rotate(180) translate(-30 -48)" onmousedown="handlePan(0,1)">
                  <use xlink:href="#rim" fill="#404040">
                        <set attributeName="fill" to="#808080" begin="arrowDown.mouseover" end="arrowDown.mouseout"/>
                  </use>
                  <path fill="none" stroke="white" stroke-width="1.5" d="M0,-3.0v7 M-2.5,-0.5L0,-3.0L2.5,-0.5"/>
                </g>
                <g id="arrowLeft" xlink:href="#dirArrow" transform="rotate(270) translate(-36 17)" onmousedown="handlePan(-1,0)">
                  <use xlink:href="#rim" fill="#404040">
                        <set attributeName="fill" to="#808080" begin="arrowLeft.mouseover" end="arrowLeft.mouseout"/>
                  </use>
                  <path fill="none" stroke="white" stroke-width="1.5" d="M0,-3.0v7 M-2.5,-0.5L0,-3.0L2.5,-0.5"/>
                </g>
        </g>
        <svg viewBox="0 0 15 15" width="100%" height="30px" preserveAspectRatio="xMaxYMin meet">
         <g id="arrow_out" transform="scale(0.3 0.3)">
          <a xlink:href="_scheme_traits_8_h__dep__incl_org.svg" target="_base">
           <rect id="button" ry="5" rx="5" y="6" x="6" height="38" width="38"
                fill="#f2f5e9" fill-opacity="0.5" stroke="#606060" stroke-width="1.0"/>
           <path id="arrow"
             d="M 11.500037,31.436501 C 11.940474,20.09759 22.043105,11.32322 32.158766,21.979434 L 37.068811,17.246167 C 37.068811,17.246167 37.088388,32 37.088388,32 L 22.160133,31.978069 C 22.160133,31.978069 26.997745,27.140456 26.997745,27.140456 C 18.528582,18.264221 13.291696,25.230495 11.500037,31.436501 z"
             style="fill:#404040;"/>
          </a>
         </g>
        </svg>
</svg>
