<?xml version="1.0" encoding="UTF-8" standalone="no"?>
<!DOCTYPE svg PUBLIC "-//W3C//DTD SVG 1.1//EN"
 "http://www.w3.org/Graphics/SVG/1.1/DTD/svg11.dtd">
<!-- Generated by graphviz version 2.43.0 (0)
 -->
<!-- Title: ScratchField.H Pages: 1 -->
<svg width="3877pt" height="196pt"
 viewBox="0.00 0.00 3877.00 196.00" xmlns="http://www.w3.org/2000/svg" xmlns:xlink="http://www.w3.org/1999/xlink">
<g id="graph0" class="graph" transform="scale(1 1) rotate(0) translate(4 192)">
<title>ScratchField.H</title>
<polygon fill="white" stroke="transparent" points="-4,4 -4,-192 3873,-192 3873,4 -4,4"/>
<!-- Node1 -->
<g id="node1" class="node">
<title>Node1</title>
<g id="a_node1"><a xlink:title=" ">
<polygon fill="#bfbfbf" stroke="black" points="113,-168.5 113,-187.5 199,-187.5 199,-168.5 113,-168.5"/>
<text text-anchor="middle" x="156" y="-175.5" font-family="Helvetica,sans-Serif" font-size="10.00">ScratchField.H</text>
</a>
</g>
</g>
<!-- Node2 -->
<g id="node2" class="node">
<title>Node2</title>
<g id="a_node2"><a xlink:href="_field_repo_8_h.html" target="_top" xlink:title=" ">
<polygon fill="white" stroke="red" points="1720.5,-112.5 1720.5,-131.5 1795.5,-131.5 1795.5,-112.5 1720.5,-112.5"/>
<text text-anchor="middle" x="1758" y="-119.5" font-family="Helvetica,sans-Serif" font-size="10.00">FieldRepo.H</text>
</a>
</g>
</g>
<!-- Node1&#45;&gt;Node2 -->
<g id="edge1" class="edge">
<title>Node1&#45;&gt;Node2</title>
<path fill="none" stroke="midnightblue" d="M209.53,-175.2C459.48,-166.77 1508.35,-131.42 1720.49,-124.26"/>
<polygon fill="midnightblue" stroke="midnightblue" points="209.14,-171.71 199.26,-175.54 209.38,-178.7 209.14,-171.71"/>
</g>
<!-- Node229 -->
<g id="node21" class="node">
<title>Node229</title>
<g id="a_node21"><a xlink:href="_scratch_field_8cpp.html" target="_top" xlink:title=" ">
<polygon fill="white" stroke="black" points="0,-56.5 0,-75.5 96,-75.5 96,-56.5 0,-56.5"/>
<text text-anchor="middle" x="48" y="-63.5" font-family="Helvetica,sans-Serif" font-size="10.00">ScratchField.cpp</text>
</a>
</g>
</g>
<!-- Node1&#45;&gt;Node229 -->
<g id="edge70" class="edge">
<title>Node1&#45;&gt;Node229</title>
<path fill="none" stroke="midnightblue" d="M140.49,-161.21C117.34,-137.63 74.54,-94.03 56.44,-75.59"/>
<polygon fill="midnightblue" stroke="midnightblue" points="138.02,-163.68 147.53,-168.37 143.02,-158.78 138.02,-163.68"/>
</g>
<!-- Node230 -->
<g id="node22" class="node">
<title>Node230</title>
<g id="a_node22"><a xlink:href="_view_field_8cpp.html" target="_top" xlink:title=" ">
<polygon fill="white" stroke="black" points="114,-56.5 114,-75.5 198,-75.5 198,-56.5 114,-56.5"/>
<text text-anchor="middle" x="156" y="-63.5" font-family="Helvetica,sans-Serif" font-size="10.00">ViewField.cpp</text>
</a>
</g>
</g>
<!-- Node1&#45;&gt;Node230 -->
<g id="edge71" class="edge">
<title>Node1&#45;&gt;Node230</title>
<path fill="none" stroke="midnightblue" d="M156,-158.35C156,-134.25 156,-93.31 156,-75.59"/>
<polygon fill="midnightblue" stroke="midnightblue" points="152.5,-158.37 156,-168.37 159.5,-158.37 152.5,-158.37"/>
</g>
<!-- Node3 -->
<g id="node3" class="node">
<title>Node3</title>
<g id="a_node3"><a xlink:href="_b_c_interface_8cpp.html" target="_top" xlink:title=" ">
<polygon fill="white" stroke="black" points="3674,-0.5 3674,-19.5 3768,-19.5 3768,-0.5 3674,-0.5"/>
<text text-anchor="middle" x="3721" y="-7.5" font-family="Helvetica,sans-Serif" font-size="10.00">BCInterface.cpp</text>
</a>
</g>
</g>
<!-- Node2&#45;&gt;Node3 -->
<g id="edge2" class="edge">
<title>Node2&#45;&gt;Node3</title>
<path fill="none" stroke="midnightblue" d="M1805.93,-121.03C2076.68,-121.01 3408.7,-118.76 3586,-76 3633.79,-64.47 3684.6,-34.54 3707.92,-19.66"/>
<polygon fill="midnightblue" stroke="midnightblue" points="1805.66,-117.53 1795.66,-121.03 1805.66,-124.53 1805.66,-117.53"/>
</g>
<!-- Node4 -->
<g id="node4" class="node">
<title>Node4</title>
<g id="a_node4"><a xlink:href="_fixed_gradient_b_c_8_h.html" target="_top" xlink:title=" ">
<polygon fill="white" stroke="red" points="3761,-56.5 3761,-75.5 3869,-75.5 3869,-56.5 3761,-56.5"/>
<text text-anchor="middle" x="3815" y="-63.5" font-family="Helvetica,sans-Serif" font-size="10.00">FixedGradientBC.H</text>
</a>
</g>
</g>
<!-- Node2&#45;&gt;Node4 -->
<g id="edge3" class="edge">
<title>Node2&#45;&gt;Node4</title>
<path fill="none" stroke="midnightblue" d="M1805.6,-120.7C2069.59,-118.91 3356.32,-108.61 3752,-76 3754.86,-75.76 3757.79,-75.48 3760.75,-75.17"/>
<polygon fill="midnightblue" stroke="midnightblue" points="1805.54,-117.2 1795.57,-120.77 1805.59,-124.2 1805.54,-117.2"/>
</g>
<!-- Node6 -->
<g id="node5" class="node">
<title>Node6</title>
<g id="a_node5"><a xlink:href="velocity__bcs_8_h.html" target="_top" xlink:title=" ">
<polygon fill="white" stroke="red" points="3655,-56.5 3655,-75.5 3743,-75.5 3743,-56.5 3655,-56.5"/>
<text text-anchor="middle" x="3699" y="-63.5" font-family="Helvetica,sans-Serif" font-size="10.00">velocity_bcs.H</text>
</a>
</g>
</g>
<!-- Node2&#45;&gt;Node6 -->
<g id="edge5" class="edge">
<title>Node2&#45;&gt;Node6</title>
<path fill="none" stroke="midnightblue" d="M1805.78,-120.7C2061.31,-118.98 3268.94,-109.17 3641,-76 3645.47,-75.6 3650.11,-75.07 3654.74,-74.47"/>
<polygon fill="midnightblue" stroke="midnightblue" points="1805.68,-117.2 1795.7,-120.77 1805.73,-124.2 1805.68,-117.2"/>
</g>
<!-- Node9 -->
<g id="node6" class="node">
<title>Node9</title>
<g id="a_node6"><a xlink:href="_c_f_d_sim_8_h.html" target="_top" xlink:title=" ">
<polygon fill="white" stroke="red" points="526,-56.5 526,-75.5 592,-75.5 592,-56.5 526,-56.5"/>
<text text-anchor="middle" x="559" y="-63.5" font-family="Helvetica,sans-Serif" font-size="10.00">CFDSim.H</text>
</a>
</g>
</g>
<!-- Node2&#45;&gt;Node9 -->
<g id="edge6" class="edge">
<title>Node2&#45;&gt;Node9</title>
<path fill="none" stroke="midnightblue" d="M1710.22,-120.09C1521.19,-116.35 825.19,-101.12 606,-76 601.46,-75.48 596.7,-74.77 592.03,-73.97"/>
<polygon fill="midnightblue" stroke="midnightblue" points="1710.33,-123.59 1720.39,-120.29 1710.46,-116.6 1710.33,-123.59"/>
</g>
<!-- Node53 -->
<g id="node7" class="node">
<title>Node53</title>
<g id="a_node7"><a xlink:href="_p_d_e_base_8cpp.html" target="_top" xlink:title=" ">
<polygon fill="white" stroke="black" points="258,-0.5 258,-19.5 338,-19.5 338,-0.5 258,-0.5"/>
<text text-anchor="middle" x="298" y="-7.5" font-family="Helvetica,sans-Serif" font-size="10.00">PDEBase.cpp</text>
</a>
</g>
</g>
<!-- Node2&#45;&gt;Node53 -->
<g id="edge40" class="edge">
<title>Node2&#45;&gt;Node53</title>
<path fill="none" stroke="midnightblue" d="M1710.08,-120.99C1483,-120.75 521.06,-117.27 394,-76 357.82,-64.25 322.74,-34.42 306.85,-19.61"/>
<polygon fill="midnightblue" stroke="midnightblue" points="1710.32,-124.49 1720.33,-121 1710.33,-117.49 1710.32,-124.49"/>
</g>
<!-- Node69 -->
<g id="node8" class="node">
<title>Node69</title>
<g id="a_node8"><a xlink:href="_i_b_8cpp.html" target="_top" xlink:title=" ">
<polygon fill="white" stroke="black" points="427.5,-0.5 427.5,-19.5 474.5,-19.5 474.5,-0.5 427.5,-0.5"/>
<text text-anchor="middle" x="451" y="-7.5" font-family="Helvetica,sans-Serif" font-size="10.00">IB.cpp</text>
</a>
</g>
</g>
<!-- Node2&#45;&gt;Node69 -->
<g id="edge49" class="edge">
<title>Node2&#45;&gt;Node69</title>
<path fill="none" stroke="midnightblue" d="M1710.02,-121.23C1476.54,-122.11 468.59,-123.15 423,-76 407.29,-59.75 428.63,-33.28 441.87,-19.68"/>
<polygon fill="midnightblue" stroke="midnightblue" points="1710.24,-124.73 1720.23,-121.19 1710.22,-117.73 1710.24,-124.73"/>
</g>
<!-- Node80 -->
<g id="node9" class="node">
<title>Node80</title>
<g id="a_node9"><a xlink:href="incflo_8_h.html" target="_top" xlink:title=" ">
<polygon fill="white" stroke="red" points="356.5,-0.5 356.5,-19.5 409.5,-19.5 409.5,-0.5 356.5,-0.5"/>
<text text-anchor="middle" x="383" y="-7.5" font-family="Helvetica,sans-Serif" font-size="10.00">incflo.H</text>
</a>
</g>
</g>
<!-- Node2&#45;&gt;Node80 -->
<g id="edge52" class="edge">
<title>Node2&#45;&gt;Node80</title>
<path fill="none" stroke="midnightblue" d="M1710.07,-120.78C1476.81,-119.56 469.25,-112.17 414,-76 394.33,-63.13 386.83,-34.11 384.24,-19.6"/>
<polygon fill="midnightblue" stroke="midnightblue" points="1710.26,-124.28 1720.27,-120.84 1710.29,-117.28 1710.26,-124.28"/>
</g>
<!-- Node92 -->
<g id="node10" class="node">
<title>Node92</title>
<g id="a_node10"><a xlink:href="_ocean_waves_8cpp.html" target="_top" xlink:title=" ">
<polygon fill="white" stroke="black" points="493,-0.5 493,-19.5 593,-19.5 593,-0.5 493,-0.5"/>
<text text-anchor="middle" x="543" y="-7.5" font-family="Helvetica,sans-Serif" font-size="10.00">OceanWaves.cpp</text>
</a>
</g>
</g>
<!-- Node2&#45;&gt;Node92 -->
<g id="edge53" class="edge">
<title>Node2&#45;&gt;Node92</title>
<path fill="none" stroke="midnightblue" d="M1710.19,-121.1C1487.29,-121.33 559.12,-119.68 517,-76 501.48,-59.9 521.7,-33.37 534.3,-19.71"/>
<polygon fill="midnightblue" stroke="midnightblue" points="1710.27,-124.6 1720.26,-121.09 1710.26,-117.6 1710.27,-124.6"/>
</g>
<!-- Node101 -->
<g id="node11" class="node">
<title>Node101</title>
<g id="a_node11"><a xlink:href="_tioga_interface_8cpp.html" target="_top" xlink:title=" ">
<polygon fill="white" stroke="black" points="611.5,-0.5 611.5,-19.5 718.5,-19.5 718.5,-0.5 611.5,-0.5"/>
<text text-anchor="middle" x="665" y="-7.5" font-family="Helvetica,sans-Serif" font-size="10.00">TiogaInterface.cpp</text>
</a>
</g>
</g>
<!-- Node2&#45;&gt;Node101 -->
<g id="edge58" class="edge">
<title>Node2&#45;&gt;Node101</title>
<path fill="none" stroke="midnightblue" d="M1710.23,-120.9C1501.3,-120.24 676.63,-115.17 639,-76 623.51,-59.87 643.72,-33.35 656.31,-19.71"/>
<polygon fill="midnightblue" stroke="midnightblue" points="1710.27,-124.4 1720.28,-120.93 1710.29,-117.4 1710.27,-124.4"/>
</g>
<!-- Node128 -->
<g id="node12" class="node">
<title>Node128</title>
<g id="a_node12"><a xlink:href="_vortex_ring_8cpp.html" target="_top" xlink:title=" ">
<polygon fill="white" stroke="black" points="836,-0.5 836,-19.5 926,-19.5 926,-0.5 836,-0.5"/>
<text text-anchor="middle" x="881" y="-7.5" font-family="Helvetica,sans-Serif" font-size="10.00">VortexRing.cpp</text>
</a>
</g>
</g>
<!-- Node2&#45;&gt;Node128 -->
<g id="edge64" class="edge">
<title>Node2&#45;&gt;Node128</title>
<path fill="none" stroke="midnightblue" d="M1727.69,-108.5C1707.62,-99.95 1680.88,-88.03 1658,-76 1642.82,-68.02 1641.37,-61.11 1625,-56 1558.49,-35.23 1077.29,-17.56 926.24,-12.47"/>
<polygon fill="midnightblue" stroke="midnightblue" points="1726.39,-111.75 1736.96,-112.42 1729.11,-105.3 1726.39,-111.75"/>
</g>
<!-- Node139 -->
<g id="node13" class="node">
<title>Node139</title>
<g id="a_node13"><a xlink:href="_re_averaging_8cpp.html" target="_top" xlink:title=" ">
<polygon fill="white" stroke="black" points="1158,-0.5 1158,-19.5 1256,-19.5 1256,-0.5 1158,-0.5"/>
<text text-anchor="middle" x="1207" y="-7.5" font-family="Helvetica,sans-Serif" font-size="10.00">ReAveraging.cpp</text>
</a>
</g>
</g>
<!-- Node2&#45;&gt;Node139 -->
<g id="edge67" class="edge">
<title>Node2&#45;&gt;Node139</title>
<path fill="none" stroke="midnightblue" d="M1737.83,-106.24C1713.77,-88.94 1674.72,-61.87 1658,-56 1620.79,-42.92 1365.22,-22.73 1256.15,-14.58"/>
<polygon fill="midnightblue" stroke="midnightblue" points="1736.08,-109.3 1746.24,-112.33 1740.19,-103.63 1736.08,-109.3"/>
</g>
<!-- Node140 -->
<g id="node14" class="node">
<title>Node140</title>
<g id="a_node14"><a xlink:href="_reynolds_stress_8cpp.html" target="_top" xlink:title=" ">
<polygon fill="white" stroke="black" points="1381,-0.5 1381,-19.5 1493,-19.5 1493,-0.5 1381,-0.5"/>
<text text-anchor="middle" x="1437" y="-7.5" font-family="Helvetica,sans-Serif" font-size="10.00">ReynoldsStress.cpp</text>
</a>
</g>
</g>
<!-- Node2&#45;&gt;Node140 -->
<g id="edge68" class="edge">
<title>Node2&#45;&gt;Node140</title>
<path fill="none" stroke="midnightblue" d="M1746.41,-103.66C1735.33,-88.55 1717.19,-67.32 1696,-56 1661.73,-37.7 1558.49,-23.84 1493.18,-16.6"/>
<polygon fill="midnightblue" stroke="midnightblue" points="1743.76,-105.97 1752.37,-112.14 1749.48,-101.95 1743.76,-105.97"/>
</g>
<!-- Node218 -->
<g id="node15" class="node">
<title>Node218</title>
<g id="a_node15"><a xlink:href="_godunov_8_h.html" target="_top" xlink:title=" ">
<polygon fill="white" stroke="red" points="648,-56.5 648,-75.5 718,-75.5 718,-56.5 648,-56.5"/>
<text text-anchor="middle" x="683" y="-63.5" font-family="Helvetica,sans-Serif" font-size="10.00">Godunov.H</text>
</a>
</g>
</g>
<!-- Node2&#45;&gt;Node218 -->
<g id="edge15" class="edge">
<title>Node2&#45;&gt;Node218</title>
<path fill="none" stroke="midnightblue" d="M1710.33,-121.59C1563.26,-122.84 1103.82,-122.47 727,-76 724.21,-75.66 721.34,-75.23 718.46,-74.76"/>
<polygon fill="midnightblue" stroke="midnightblue" points="1710.4,-125.09 1720.37,-121.5 1710.34,-118.09 1710.4,-125.09"/>
</g>
<!-- Node223 -->
<g id="node16" class="node">
<title>Node223</title>
<g id="a_node16"><a xlink:href="_m_o_l_8_h.html" target="_top" xlink:title=" ">
<polygon fill="white" stroke="red" points="736.5,-56.5 736.5,-75.5 785.5,-75.5 785.5,-56.5 736.5,-56.5"/>
<text text-anchor="middle" x="761" y="-63.5" font-family="Helvetica,sans-Serif" font-size="10.00">MOL.H</text>
</a>
</g>
</g>
<!-- Node2&#45;&gt;Node223 -->
<g id="edge16" class="edge">
<title>Node2&#45;&gt;Node223</title>
<path fill="none" stroke="midnightblue" d="M1710.44,-120.11C1542.04,-116.76 974.55,-103.64 795,-76 791.98,-75.54 788.85,-74.91 785.75,-74.2"/>
<polygon fill="midnightblue" stroke="midnightblue" points="1710.42,-123.61 1720.49,-120.31 1710.56,-116.61 1710.42,-123.61"/>
</g>
<!-- Node225 -->
<g id="node17" class="node">
<title>Node225</title>
<g id="a_node17"><a xlink:href="_field_8cpp.html" target="_top" xlink:title=" ">
<polygon fill="white" stroke="black" points="804,-56.5 804,-75.5 864,-75.5 864,-56.5 804,-56.5"/>
<text text-anchor="middle" x="834" y="-63.5" font-family="Helvetica,sans-Serif" font-size="10.00">Field.cpp</text>
</a>
</g>
</g>
<!-- Node2&#45;&gt;Node225 -->
<g id="edge17" class="edge">
<title>Node2&#45;&gt;Node225</title>
<path fill="none" stroke="midnightblue" d="M1709.97,-121.52C1576.51,-122.31 1190.09,-120.3 873,-76 870.11,-75.6 867.12,-75.08 864.14,-74.51"/>
<polygon fill="midnightblue" stroke="midnightblue" points="1710.28,-125.01 1720.25,-121.45 1710.23,-118.01 1710.28,-125.01"/>
</g>
<!-- Node226 -->
<g id="node18" class="node">
<title>Node226</title>
<g id="a_node18"><a xlink:href="_field_repo_8cpp.html" target="_top" xlink:title=" ">
<polygon fill="white" stroke="black" points="882.5,-56.5 882.5,-75.5 967.5,-75.5 967.5,-56.5 882.5,-56.5"/>
<text text-anchor="middle" x="925" y="-63.5" font-family="Helvetica,sans-Serif" font-size="10.00">FieldRepo.cpp</text>
</a>
</g>
</g>
<!-- Node2&#45;&gt;Node226 -->
<g id="edge18" class="edge">
<title>Node2&#45;&gt;Node226</title>
<path fill="none" stroke="midnightblue" d="M1710.27,-120.2C1587.87,-117.72 1252.93,-108.29 976,-76 973.23,-75.68 970.39,-75.3 967.52,-74.89"/>
<polygon fill="midnightblue" stroke="midnightblue" points="1710.36,-123.7 1720.42,-120.4 1710.5,-116.7 1710.36,-123.7"/>
</g>
<!-- Node227 -->
<g id="node19" class="node">
<title>Node227</title>
<g id="a_node19"><a xlink:href="_int_field_8cpp.html" target="_top" xlink:title=" ">
<polygon fill="white" stroke="black" points="985.5,-56.5 985.5,-75.5 1058.5,-75.5 1058.5,-56.5 985.5,-56.5"/>
<text text-anchor="middle" x="1022" y="-63.5" font-family="Helvetica,sans-Serif" font-size="10.00">IntField.cpp</text>
</a>
</g>
</g>
<!-- Node2&#45;&gt;Node227 -->
<g id="edge19" class="edge">
<title>Node2&#45;&gt;Node227</title>
<path fill="none" stroke="midnightblue" d="M1710.38,-120.07C1597.94,-117.39 1307.4,-107.73 1067,-76 1064.31,-75.65 1061.55,-75.23 1058.77,-74.77"/>
<polygon fill="midnightblue" stroke="midnightblue" points="1710.3,-123.57 1720.38,-120.3 1710.46,-116.57 1710.3,-123.57"/>
</g>
<!-- Node228 -->
<g id="node20" class="node">
<title>Node228</title>
<g id="a_node20"><a xlink:href="_int_scratch_field_8cpp.html" target="_top" xlink:title=" ">
<polygon fill="white" stroke="black" points="1076.5,-56.5 1076.5,-75.5 1185.5,-75.5 1185.5,-56.5 1076.5,-56.5"/>
<text text-anchor="middle" x="1131" y="-63.5" font-family="Helvetica,sans-Serif" font-size="10.00">IntScratchField.cpp</text>
</a>
</g>
</g>
<!-- Node2&#45;&gt;Node228 -->
<g id="edge20" class="edge">
<title>Node2&#45;&gt;Node228</title>
<path fill="none" stroke="midnightblue" d="M1710.28,-118.15C1613.12,-112.15 1385.43,-96.98 1195,-76 1191.99,-75.67 1188.9,-75.31 1185.79,-74.92"/>
<polygon fill="midnightblue" stroke="midnightblue" points="1710.17,-121.65 1720.37,-118.77 1710.6,-114.67 1710.17,-121.65"/>
</g>
<!-- Node2&#45;&gt;Node229 -->
<g id="edge21" class="edge">
<title>Node2&#45;&gt;Node229</title>
<path fill="none" stroke="midnightblue" d="M1710.16,-120.53C1473.77,-118.11 428.78,-105.84 105,-76 102.11,-75.73 99.14,-75.41 96.15,-75.05"/>
<polygon fill="midnightblue" stroke="midnightblue" points="1710.45,-124.04 1720.48,-120.64 1710.52,-117.04 1710.45,-124.04"/>
</g>
<!-- Node2&#45;&gt;Node230 -->
<g id="edge22" class="edge">
<title>Node2&#45;&gt;Node230</title>
<path fill="none" stroke="midnightblue" d="M1710.2,-120.55C1482.83,-118.28 509.22,-106.88 207,-76 204.14,-75.71 201.19,-75.35 198.23,-74.94"/>
<polygon fill="midnightblue" stroke="midnightblue" points="1710.43,-124.05 1720.46,-120.65 1710.49,-117.05 1710.43,-124.05"/>
</g>
<!-- Node231 -->
<g id="node23" class="node">
<title>Node231</title>
<g id="a_node23"><a xlink:href="field__algebra_8cpp.html" target="_top" xlink:title=" ">
<polygon fill="white" stroke="black" points="1204,-56.5 1204,-75.5 1304,-75.5 1304,-56.5 1204,-56.5"/>
<text text-anchor="middle" x="1254" y="-63.5" font-family="Helvetica,sans-Serif" font-size="10.00">field_algebra.cpp</text>
</a>
</g>
</g>
<!-- Node2&#45;&gt;Node231 -->
<g id="edge23" class="edge">
<title>Node2&#45;&gt;Node231</title>
<path fill="none" stroke="midnightblue" d="M1709.97,-116.95C1628.28,-109.87 1457.13,-94.27 1313,-76 1310.12,-75.64 1307.17,-75.24 1304.19,-74.83"/>
<polygon fill="midnightblue" stroke="midnightblue" points="1710.16,-120.47 1720.42,-117.85 1710.76,-113.5 1710.16,-120.47"/>
</g>
<!-- Node232 -->
<g id="node24" class="node">
<title>Node232</title>
<g id="a_node24"><a xlink:href="diffusion_8_h.html" target="_top" xlink:title=" ">
<polygon fill="white" stroke="red" points="1322.5,-56.5 1322.5,-75.5 1391.5,-75.5 1391.5,-56.5 1322.5,-56.5"/>
<text text-anchor="middle" x="1357" y="-63.5" font-family="Helvetica,sans-Serif" font-size="10.00">diffusion.H</text>
</a>
</g>
</g>
<!-- Node2&#45;&gt;Node232 -->
<g id="edge24" class="edge">
<title>Node2&#45;&gt;Node232</title>
<path fill="none" stroke="midnightblue" d="M1710.27,-116.16C1641.65,-108.93 1511.22,-94.19 1401,-76 1397.92,-75.49 1394.73,-74.92 1391.54,-74.32"/>
<polygon fill="midnightblue" stroke="midnightblue" points="1710.03,-119.65 1720.34,-117.21 1710.76,-112.69 1710.03,-119.65"/>
</g>
<!-- Node233 -->
<g id="node25" class="node">
<title>Node233</title>
<g id="a_node25"><a xlink:href="_density_source_8_h.html" target="_top" xlink:title=" ">
<polygon fill="white" stroke="red" points="1410,-56.5 1410,-75.5 1508,-75.5 1508,-56.5 1410,-56.5"/>
<text text-anchor="middle" x="1459" y="-63.5" font-family="Helvetica,sans-Serif" font-size="10.00">DensitySource.H</text>
</a>
</g>
</g>
<!-- Node2&#45;&gt;Node233 -->
<g id="edge25" class="edge">
<title>Node2&#45;&gt;Node233</title>
<path fill="none" stroke="midnightblue" d="M1710.42,-112.41C1654.45,-102.3 1562.09,-85.62 1506.25,-75.53"/>
<polygon fill="midnightblue" stroke="midnightblue" points="1709.97,-115.88 1720.43,-114.22 1711.22,-108.99 1709.97,-115.88"/>
</g>
<!-- Node234 -->
<g id="node26" class="node">
<title>Node234</title>
<g id="a_node26"><a xlink:href="_momentum_source_8_h.html" target="_top" xlink:title=" ">
<polygon fill="white" stroke="red" points="2583,-56.5 2583,-75.5 2699,-75.5 2699,-56.5 2583,-56.5"/>
<text text-anchor="middle" x="2641" y="-63.5" font-family="Helvetica,sans-Serif" font-size="10.00">MomentumSource.H</text>
</a>
</g>
</g>
<!-- Node2&#45;&gt;Node234 -->
<g id="edge26" class="edge">
<title>Node2&#45;&gt;Node234</title>
<path fill="none" stroke="midnightblue" d="M1805.94,-119.63C1931.87,-115.77 2282.41,-103.21 2573,-76 2576.2,-75.7 2579.48,-75.36 2582.79,-75"/>
<polygon fill="midnightblue" stroke="midnightblue" points="1805.74,-116.14 1795.85,-119.94 1805.96,-123.13 1805.74,-116.14"/>
</g>
<!-- Node148 -->
<g id="node27" class="node">
<title>Node148</title>
<g id="a_node27"><a xlink:href="_a_b_l_mean_boussinesq_8_h.html" target="_top" xlink:title=" ">
<polygon fill="white" stroke="red" points="1752,-0.5 1752,-19.5 1880,-19.5 1880,-0.5 1752,-0.5"/>
<text text-anchor="middle" x="1816" y="-7.5" font-family="Helvetica,sans-Serif" font-size="10.00">ABLMeanBoussinesq.H</text>
</a>
</g>
</g>
<!-- Node2&#45;&gt;Node148 -->
<g id="edge34" class="edge">
<title>Node2&#45;&gt;Node148</title>
<path fill="none" stroke="midnightblue" d="M1767.32,-103.32C1779.95,-79.37 1802,-37.55 1811.47,-19.59"/>
<polygon fill="midnightblue" stroke="midnightblue" points="1764.12,-101.89 1762.55,-112.37 1770.31,-105.16 1764.12,-101.89"/>
</g>
<!-- Node238 -->
<g id="node28" class="node">
<title>Node238</title>
<g id="a_node28"><a xlink:href="_boussinesq_buoyancy_8_h.html" target="_top" xlink:title=" ">
<polygon fill="white" stroke="red" points="1918.5,-0.5 1918.5,-19.5 2047.5,-19.5 2047.5,-0.5 1918.5,-0.5"/>
<text text-anchor="middle" x="1983" y="-7.5" font-family="Helvetica,sans-Serif" font-size="10.00">BoussinesqBuoyancy.H</text>
</a>
</g>
</g>
<!-- Node2&#45;&gt;Node238 -->
<g id="edge35" class="edge">
<title>Node2&#45;&gt;Node238</title>
<path fill="none" stroke="midnightblue" d="M1777.28,-106.53C1796.86,-92.32 1828.41,-70.7 1858,-56 1889.4,-40.41 1927.58,-27.47 1953.42,-19.52"/>
<polygon fill="midnightblue" stroke="midnightblue" points="1775.17,-103.75 1769.18,-112.49 1779.31,-109.39 1775.17,-103.75"/>
</g>
<!-- Node239 -->
<g id="node29" class="node">
<title>Node239</title>
<g id="a_node29"><a xlink:href="_coriolis_forcing_8_h.html" target="_top" xlink:title=" ">
<polygon fill="white" stroke="red" points="2225.5,-0.5 2225.5,-19.5 2324.5,-19.5 2324.5,-0.5 2225.5,-0.5"/>
<text text-anchor="middle" x="2275" y="-7.5" font-family="Helvetica,sans-Serif" font-size="10.00">CoriolisForcing.H</text>
</a>
</g>
</g>
<!-- Node2&#45;&gt;Node239 -->
<g id="edge36" class="edge">
<title>Node2&#45;&gt;Node239</title>
<path fill="none" stroke="midnightblue" d="M1785.84,-108.26C1805.26,-99.33 1831.77,-87.05 1855,-76 1873.31,-67.29 1876.55,-61.72 1896,-56 2010.74,-22.26 2152.09,-13.73 2225.49,-11.63"/>
<polygon fill="midnightblue" stroke="midnightblue" points="1784.27,-105.13 1776.65,-112.48 1787.19,-111.49 1784.27,-105.13"/>
</g>
<!-- Node240 -->
<g id="node30" class="node">
<title>Node240</title>
<g id="a_node30"><a xlink:href="_density_buoyancy_8_h.html" target="_top" xlink:title=" ">
<polygon fill="white" stroke="red" points="2422.5,-0.5 2422.5,-19.5 2533.5,-19.5 2533.5,-0.5 2422.5,-0.5"/>
<text text-anchor="middle" x="2478" y="-7.5" font-family="Helvetica,sans-Serif" font-size="10.00">DensityBuoyancy.H</text>
</a>
</g>
</g>
<!-- Node2&#45;&gt;Node240 -->
<g id="edge37" class="edge">
<title>Node2&#45;&gt;Node240</title>
<path fill="none" stroke="midnightblue" d="M1796.74,-109.43C1823.35,-101.09 1859.27,-89.04 1890,-76 1907.93,-68.39 1910.27,-61.34 1929,-56 1952.45,-49.31 2287.15,-24.71 2422.15,-14.99"/>
<polygon fill="midnightblue" stroke="midnightblue" points="1795.55,-106.13 1787.03,-112.44 1797.62,-112.82 1795.55,-106.13"/>
</g>
<!-- Node242 -->
<g id="node31" class="node">
<title>Node242</title>
<g id="a_node31"><a xlink:href="_gravity_forcing_8_h.html" target="_top" xlink:title=" ">
<polygon fill="white" stroke="red" points="2592,-0.5 2592,-19.5 2690,-19.5 2690,-0.5 2592,-0.5"/>
<text text-anchor="middle" x="2641" y="-7.5" font-family="Helvetica,sans-Serif" font-size="10.00">GravityForcing.H</text>
</a>
</g>
</g>
<!-- Node2&#45;&gt;Node242 -->
<g id="edge38" class="edge">
<title>Node2&#45;&gt;Node242</title>
<path fill="none" stroke="midnightblue" d="M1805.72,-120.55C1994,-118.53 2676.58,-108.94 2708,-76 2727.91,-55.12 2687.74,-31.85 2661.41,-19.61"/>
<polygon fill="midnightblue" stroke="midnightblue" points="1805.54,-117.05 1795.58,-120.65 1805.62,-124.05 1805.54,-117.05"/>
</g>
<!-- Node149 -->
<g id="node32" class="node">
<title>Node149</title>
<g id="a_node32"><a xlink:href="_hurricane_forcing_8_h.html" target="_top" xlink:title=" ">
<polygon fill="white" stroke="red" points="2709,-0.5 2709,-19.5 2819,-19.5 2819,-0.5 2709,-0.5"/>
<text text-anchor="middle" x="2764" y="-7.5" font-family="Helvetica,sans-Serif" font-size="10.00">HurricaneForcing.H</text>
</a>
</g>
</g>
<!-- Node2&#45;&gt;Node149 -->
<g id="edge39" class="edge">
<title>Node2&#45;&gt;Node149</title>
<path fill="none" stroke="midnightblue" d="M1805.95,-121.4C1990.11,-122.57 2645.74,-123.34 2725,-76 2746.24,-63.31 2757.32,-34.21 2761.7,-19.64"/>
<polygon fill="midnightblue" stroke="midnightblue" points="1805.79,-117.9 1795.76,-121.33 1805.74,-124.9 1805.79,-117.9"/>
</g>
<!-- Node244 -->
<g id="node33" class="node">
<title>Node244</title>
<g id="a_node33"><a xlink:href="_m_m_s_forcing_8_h.html" target="_top" xlink:title=" ">
<polygon fill="white" stroke="red" points="3251,-0.5 3251,-19.5 3337,-19.5 3337,-0.5 3251,-0.5"/>
<text text-anchor="middle" x="3294" y="-7.5" font-family="Helvetica,sans-Serif" font-size="10.00">MMSForcing.H</text>
</a>
</g>
</g>
<!-- Node2&#45;&gt;Node244 -->
<g id="edge59" class="edge">
<title>Node2&#45;&gt;Node244</title>
<path fill="none" stroke="midnightblue" d="M1805.91,-120.72C2089.61,-118.98 3538.29,-108.51 3570,-76 3576.21,-69.64 3575.76,-62.77 3570,-56 3540.64,-21.46 3407.24,-13.37 3337.22,-11.52"/>
<polygon fill="midnightblue" stroke="midnightblue" points="1805.52,-117.23 1795.54,-120.79 1805.57,-124.23 1805.52,-117.23"/>
</g>
<!-- Node245 -->
<g id="node34" class="node">
<title>Node245</title>
<g id="a_node34"><a xlink:href="_p_d_e_helpers_8_h.html" target="_top" xlink:title=" ">
<polygon fill="white" stroke="red" points="216,-56.5 216,-75.5 300,-75.5 300,-56.5 216,-56.5"/>
<text text-anchor="middle" x="258" y="-63.5" font-family="Helvetica,sans-Serif" font-size="10.00">PDEHelpers.H</text>
</a>
</g>
</g>
<!-- Node2&#45;&gt;Node245 -->
<g id="edge41" class="edge">
<title>Node2&#45;&gt;Node245</title>
<path fill="none" stroke="midnightblue" d="M1710.37,-120.34C1493.07,-117.19 594.2,-102.77 314,-76 309.49,-75.57 304.79,-75 300.12,-74.36"/>
<polygon fill="midnightblue" stroke="midnightblue" points="1710.45,-123.84 1720.5,-120.48 1710.55,-116.84 1710.45,-123.84"/>
</g>
<!-- Node246 -->
<g id="node35" class="node">
<title>Node246</title>
<g id="a_node35"><a xlink:href="_s_d_r_source_8_h.html" target="_top" xlink:title=" ">
<polygon fill="white" stroke="red" points="1938,-56.5 1938,-75.5 2018,-75.5 2018,-56.5 1938,-56.5"/>
<text text-anchor="middle" x="1978" y="-63.5" font-family="Helvetica,sans-Serif" font-size="10.00">SDRSource.H</text>
</a>
</g>
</g>
<!-- Node2&#45;&gt;Node246 -->
<g id="edge43" class="edge">
<title>Node2&#45;&gt;Node246</title>
<path fill="none" stroke="midnightblue" d="M1802.72,-110.02C1844.28,-99.82 1905.31,-84.84 1943.3,-75.52"/>
<polygon fill="midnightblue" stroke="midnightblue" points="1801.74,-106.66 1792.86,-112.44 1803.41,-113.46 1801.74,-106.66"/>
</g>
<!-- Node248 -->
<g id="node36" class="node">
<title>Node248</title>
<g id="a_node36"><a xlink:href="_source_term_8_h.html" target="_top" xlink:title=" ">
<polygon fill="white" stroke="red" points="2036,-56.5 2036,-75.5 2120,-75.5 2120,-56.5 2036,-56.5"/>
<text text-anchor="middle" x="2078" y="-63.5" font-family="Helvetica,sans-Serif" font-size="10.00">SourceTerm.H</text>
</a>
</g>
</g>
<!-- Node2&#45;&gt;Node248 -->
<g id="edge44" class="edge">
<title>Node2&#45;&gt;Node248</title>
<path fill="none" stroke="midnightblue" d="M1805.82,-113.13C1859.63,-104.25 1949.62,-89.3 2027,-76 2029.92,-75.5 2032.94,-74.97 2035.98,-74.45"/>
<polygon fill="midnightblue" stroke="midnightblue" points="1805.18,-109.69 1795.88,-114.77 1806.32,-116.6 1805.18,-109.69"/>
</g>
<!-- Node249 -->
<g id="node37" class="node">
<title>Node249</title>
<g id="a_node37"><a xlink:href="_temperature_source_8_h.html" target="_top" xlink:title=" ">
<polygon fill="white" stroke="red" points="2138,-56.5 2138,-75.5 2260,-75.5 2260,-56.5 2138,-56.5"/>
<text text-anchor="middle" x="2199" y="-63.5" font-family="Helvetica,sans-Serif" font-size="10.00">TemperatureSource.H</text>
</a>
</g>
</g>
<!-- Node2&#45;&gt;Node249 -->
<g id="edge45" class="edge">
<title>Node2&#45;&gt;Node249</title>
<path fill="none" stroke="midnightblue" d="M1806.03,-115.29C1876.76,-106.85 2013.11,-90.48 2129,-76 2131.92,-75.64 2134.9,-75.26 2137.92,-74.88"/>
<polygon fill="midnightblue" stroke="midnightblue" points="1805.18,-111.86 1795.66,-116.52 1806.01,-118.81 1805.18,-111.86"/>
</g>
<!-- Node250 -->
<g id="node38" class="node">
<title>Node250</title>
<g id="a_node38"><a xlink:href="_t_k_e_source_8_h.html" target="_top" xlink:title=" ">
<polygon fill="white" stroke="red" points="2278.5,-56.5 2278.5,-75.5 2357.5,-75.5 2357.5,-56.5 2278.5,-56.5"/>
<text text-anchor="middle" x="2318" y="-63.5" font-family="Helvetica,sans-Serif" font-size="10.00">TKESource.H</text>
</a>
</g>
</g>
<!-- Node2&#45;&gt;Node250 -->
<g id="edge46" class="edge">
<title>Node2&#45;&gt;Node250</title>
<path fill="none" stroke="midnightblue" d="M1805.87,-118.29C1896.54,-112.82 2099.43,-98.99 2269,-76 2272.09,-75.58 2275.27,-75.1 2278.47,-74.59"/>
<polygon fill="midnightblue" stroke="midnightblue" points="1805.41,-114.81 1795.64,-118.9 1805.83,-121.8 1805.41,-114.81"/>
</g>
<!-- Node254 -->
<g id="node39" class="node">
<title>Node254</title>
<g id="a_node39"><a xlink:href="_split_advection_8_h.html" target="_top" xlink:title=" ">
<polygon fill="white" stroke="red" points="2375,-56.5 2375,-75.5 2473,-75.5 2473,-56.5 2375,-56.5"/>
<text text-anchor="middle" x="2424" y="-63.5" font-family="Helvetica,sans-Serif" font-size="10.00">SplitAdvection.H</text>
</a>
</g>
</g>
<!-- Node2&#45;&gt;Node254 -->
<g id="edge47" class="edge">
<title>Node2&#45;&gt;Node254</title>
<path fill="none" stroke="midnightblue" d="M1805.87,-118.76C1908.68,-113.67 2158.09,-99.79 2366,-76 2368.94,-75.66 2371.95,-75.29 2374.99,-74.89"/>
<polygon fill="midnightblue" stroke="midnightblue" points="1805.62,-115.27 1795.81,-119.26 1805.97,-122.26 1805.62,-115.27"/>
</g>
<!-- Node256 -->
<g id="node40" class="node">
<title>Node256</title>
<g id="a_node40"><a xlink:href="fvm__utils_8_h.html" target="_top" xlink:title=" ">
<polygon fill="white" stroke="red" points="2491.5,-56.5 2491.5,-75.5 2564.5,-75.5 2564.5,-56.5 2491.5,-56.5"/>
<text text-anchor="middle" x="2528" y="-63.5" font-family="Helvetica,sans-Serif" font-size="10.00">fvm_utils.H</text>
</a>
</g>
</g>
<!-- Node2&#45;&gt;Node256 -->
<g id="edge48" class="edge">
<title>Node2&#45;&gt;Node256</title>
<path fill="none" stroke="midnightblue" d="M1805.85,-120.19C1922.13,-117.76 2228.58,-108.52 2482,-76 2485.07,-75.61 2488.24,-75.13 2491.41,-74.61"/>
<polygon fill="midnightblue" stroke="midnightblue" points="1805.78,-116.69 1795.85,-120.39 1805.92,-123.69 1805.78,-116.69"/>
</g>
<!-- Node267 -->
<g id="node41" class="node">
<title>Node267</title>
<g id="a_node41"><a xlink:href="_i_b_8_h.html" target="_top" xlink:title=" ">
<polygon fill="white" stroke="red" points="432.5,-56.5 432.5,-75.5 469.5,-75.5 469.5,-56.5 432.5,-56.5"/>
<text text-anchor="middle" x="451" y="-63.5" font-family="Helvetica,sans-Serif" font-size="10.00">IB.H</text>
</a>
</g>
</g>
<!-- Node2&#45;&gt;Node267 -->
<g id="edge50" class="edge">
<title>Node2&#45;&gt;Node267</title>
<path fill="none" stroke="midnightblue" d="M1710.15,-120.79C1508.5,-119.66 727.17,-112.95 484,-76 479.3,-75.29 474.32,-74.14 469.69,-72.9"/>
<polygon fill="midnightblue" stroke="midnightblue" points="1710.39,-124.29 1720.41,-120.84 1710.43,-117.29 1710.39,-124.29"/>
</g>
<!-- Node268 -->
<g id="node42" class="node">
<title>Node268</title>
<g id="a_node42"><a xlink:href="_ocean_waves_8_h.html" target="_top" xlink:title=" ">
<polygon fill="white" stroke="red" points="1526,-56.5 1526,-75.5 1616,-75.5 1616,-56.5 1526,-56.5"/>
<text text-anchor="middle" x="1571" y="-63.5" font-family="Helvetica,sans-Serif" font-size="10.00">OceanWaves.H</text>
</a>
</g>
</g>
<!-- Node2&#45;&gt;Node268 -->
<g id="edge54" class="edge">
<title>Node2&#45;&gt;Node268</title>
<path fill="none" stroke="midnightblue" d="M1718.41,-109.57C1683.13,-99.38 1632.31,-84.7 1600.49,-75.52"/>
<polygon fill="midnightblue" stroke="midnightblue" points="1717.79,-113.03 1728.37,-112.44 1719.73,-106.31 1717.79,-113.03"/>
</g>
<!-- Node58 -->
<g id="node43" class="node">
<title>Node58</title>
<g id="a_node43"><a xlink:href="hos__waves__ops_8_h.html" target="_top" xlink:title=" ">
<polygon fill="white" stroke="red" points="1564,-0.5 1564,-19.5 1668,-19.5 1668,-0.5 1564,-0.5"/>
<text text-anchor="middle" x="1616" y="-7.5" font-family="Helvetica,sans-Serif" font-size="10.00">hos_waves_ops.H</text>
</a>
</g>
</g>
<!-- Node2&#45;&gt;Node58 -->
<g id="edge57" class="edge">
<title>Node2&#45;&gt;Node58</title>
<path fill="none" stroke="midnightblue" d="M1755.31,-101.99C1752.35,-87.66 1746.28,-68.42 1734,-56 1715.26,-37.06 1687.73,-25.97 1663.97,-19.53"/>
<polygon fill="midnightblue" stroke="midnightblue" points="1751.92,-102.94 1757.07,-112.2 1758.82,-101.75 1751.92,-102.94"/>
</g>
<!-- Node269 -->
<g id="node44" class="node">
<title>Node269</title>
<g id="a_node44"><a xlink:href="hydrostatic__ops_8_h.html" target="_top" xlink:title=" ">
<polygon fill="white" stroke="red" points="2793,-56.5 2793,-75.5 2897,-75.5 2897,-56.5 2793,-56.5"/>
<text text-anchor="middle" x="2845" y="-63.5" font-family="Helvetica,sans-Serif" font-size="10.00">hydrostatic_ops.H</text>
</a>
</g>
</g>
<!-- Node2&#45;&gt;Node269 -->
<g id="edge60" class="edge">
<title>Node2&#45;&gt;Node269</title>
<path fill="none" stroke="midnightblue" d="M1806.03,-120.44C1952.35,-118.41 2405.32,-109.64 2779,-76 2783.49,-75.6 2788.15,-75.11 2792.81,-74.57"/>
<polygon fill="midnightblue" stroke="midnightblue" points="1805.58,-116.95 1795.63,-120.58 1805.68,-123.95 1805.58,-116.95"/>
</g>
<!-- Node270 -->
<g id="node45" class="node">
<title>Node270</title>
<g id="a_node45"><a xlink:href="_linear_profile_8cpp.html" target="_top" xlink:title=" ">
<polygon fill="white" stroke="black" points="2915,-56.5 2915,-75.5 3013,-75.5 3013,-56.5 2915,-56.5"/>
<text text-anchor="middle" x="2964" y="-63.5" font-family="Helvetica,sans-Serif" font-size="10.00">LinearProfile.cpp</text>
</a>
</g>
</g>
<!-- Node2&#45;&gt;Node270 -->
<g id="edge61" class="edge">
<title>Node2&#45;&gt;Node270</title>
<path fill="none" stroke="midnightblue" d="M1806.08,-121.09C1963.99,-120.95 2480.99,-117.17 2906,-76 2908.84,-75.72 2911.75,-75.4 2914.69,-75.05"/>
<polygon fill="midnightblue" stroke="midnightblue" points="1805.76,-117.59 1795.76,-121.09 1805.77,-124.59 1805.76,-117.59"/>
</g>
<!-- Node32 -->
<g id="node46" class="node">
<title>Node32</title>
<g id="a_node46"><a xlink:href="_power_law_profile_8cpp.html" target="_top" xlink:title=" ">
<polygon fill="white" stroke="black" points="3031.5,-56.5 3031.5,-75.5 3148.5,-75.5 3148.5,-56.5 3031.5,-56.5"/>
<text text-anchor="middle" x="3090" y="-63.5" font-family="Helvetica,sans-Serif" font-size="10.00">PowerLawProfile.cpp</text>
</a>
</g>
</g>
<!-- Node2&#45;&gt;Node32 -->
<g id="edge62" class="edge">
<title>Node2&#45;&gt;Node32</title>
<path fill="none" stroke="midnightblue" d="M1805.76,-120.95C1973.17,-120.42 2548.84,-115.64 3022,-76 3025.09,-75.74 3028.25,-75.44 3031.43,-75.11"/>
<polygon fill="midnightblue" stroke="midnightblue" points="1805.55,-117.45 1795.56,-120.98 1805.57,-124.45 1805.55,-117.45"/>
</g>
<!-- Node271 -->
<g id="node47" class="node">
<title>Node271</title>
<g id="a_node47"><a xlink:href="_u_d_f_8cpp.html" target="_top" xlink:title=" ">
<polygon fill="white" stroke="black" points="3167,-56.5 3167,-75.5 3223,-75.5 3223,-56.5 3167,-56.5"/>
<text text-anchor="middle" x="3195" y="-63.5" font-family="Helvetica,sans-Serif" font-size="10.00">UDF.cpp</text>
</a>
</g>
</g>
<!-- Node2&#45;&gt;Node271 -->
<g id="edge63" class="edge">
<title>Node2&#45;&gt;Node271</title>
<path fill="none" stroke="midnightblue" d="M1805.91,-120.75C2019.64,-119.42 2887.4,-111.89 3157,-76 3160.23,-75.57 3163.58,-74.99 3166.9,-74.32"/>
<polygon fill="midnightblue" stroke="midnightblue" points="1805.63,-117.25 1795.65,-120.81 1805.67,-124.25 1805.63,-117.25"/>
</g>
<!-- Node272 -->
<g id="node48" class="node">
<title>Node272</title>
<g id="a_node48"><a xlink:href="_transport_model_8_h.html" target="_top" xlink:title=" ">
<polygon fill="white" stroke="red" points="3241,-56.5 3241,-75.5 3343,-75.5 3343,-56.5 3241,-56.5"/>
<text text-anchor="middle" x="3292" y="-63.5" font-family="Helvetica,sans-Serif" font-size="10.00">TransportModel.H</text>
</a>
</g>
</g>
<!-- Node2&#45;&gt;Node272 -->
<g id="edge65" class="edge">
<title>Node2&#45;&gt;Node272</title>
<path fill="none" stroke="midnightblue" d="M1805.88,-120.3C2026.39,-116.97 2945.52,-101.77 3232,-76 3234.94,-75.74 3237.95,-75.42 3240.99,-75.07"/>
<polygon fill="midnightblue" stroke="midnightblue" points="1805.56,-116.81 1795.62,-120.46 1805.67,-123.81 1805.56,-116.81"/>
</g>
<!-- Node134 -->
<g id="node49" class="node">
<title>Node134</title>
<g id="a_node49"><a xlink:href="_smagorinsky_8_h.html" target="_top" xlink:title=" ">
<polygon fill="white" stroke="red" points="3361.5,-56.5 3361.5,-75.5 3450.5,-75.5 3450.5,-56.5 3361.5,-56.5"/>
<text text-anchor="middle" x="3406" y="-63.5" font-family="Helvetica,sans-Serif" font-size="10.00">Smagorinsky.H</text>
</a>
</g>
</g>
<!-- Node2&#45;&gt;Node134 -->
<g id="edge66" class="edge">
<title>Node2&#45;&gt;Node134</title>
<path fill="none" stroke="midnightblue" d="M1805.63,-120.54C2036.49,-118.15 3040.59,-106.2 3352,-76 3355.03,-75.71 3358.14,-75.35 3361.27,-74.94"/>
<polygon fill="midnightblue" stroke="midnightblue" points="1805.5,-117.04 1795.54,-120.64 1805.58,-124.04 1805.5,-117.04"/>
</g>
<!-- Node198 -->
<g id="node50" class="node">
<title>Node198</title>
<g id="a_node50"><a xlink:href="_act_src_line_op_8_h.html" target="_top" xlink:title=" ">
<polygon fill="white" stroke="red" points="3469,-56.5 3469,-75.5 3561,-75.5 3561,-56.5 3469,-56.5"/>
<text text-anchor="middle" x="3515" y="-63.5" font-family="Helvetica,sans-Serif" font-size="10.00">ActSrcLineOp.H</text>
</a>
</g>
</g>
<!-- Node2&#45;&gt;Node198 -->
<g id="edge69" class="edge">
<title>Node2&#45;&gt;Node198</title>
<path fill="none" stroke="midnightblue" d="M1805.72,-120.61C2046.09,-118.54 3126,-107.6 3460,-76 3462.89,-75.73 3465.86,-75.39 3468.85,-75.02"/>
<polygon fill="midnightblue" stroke="midnightblue" points="1805.53,-117.12 1795.56,-120.7 1805.59,-124.12 1805.53,-117.12"/>
</g>
<!-- Node4&#45;&gt;Node3 -->
<g id="edge4" class="edge">
<title>Node4&#45;&gt;Node3</title>
<path fill="none" stroke="midnightblue" d="M3790.94,-51.18C3773.64,-41.24 3750.85,-28.15 3736.07,-19.65"/>
<polygon fill="midnightblue" stroke="midnightblue" points="3789.48,-54.38 3799.9,-56.32 3792.97,-48.31 3789.48,-54.38"/>
</g>
<!-- Node9&#45;&gt;Node53 -->
<g id="edge7" class="edge">
<title>Node9&#45;&gt;Node53</title>
<path fill="none" stroke="midnightblue" d="M515.89,-56.08C466.48,-45.86 386.13,-29.23 338.04,-19.28"/>
<polygon fill="midnightblue" stroke="midnightblue" points="515.44,-59.56 525.94,-58.16 516.86,-52.71 515.44,-59.56"/>
</g>
<!-- Node9&#45;&gt;Node69 -->
<g id="edge8" class="edge">
<title>Node9&#45;&gt;Node69</title>
<path fill="none" stroke="midnightblue" d="M532.45,-51.73C512.45,-41.73 485.61,-28.31 468.31,-19.65"/>
<polygon fill="midnightblue" stroke="midnightblue" points="531.14,-54.98 541.65,-56.32 534.27,-48.72 531.14,-54.98"/>
</g>
<!-- Node9&#45;&gt;Node80 -->
<g id="edge9" class="edge">
<title>Node9&#45;&gt;Node80</title>
<path fill="none" stroke="midnightblue" d="M521.19,-53.4C487.58,-43.09 439.3,-28.27 409.61,-19.16"/>
<polygon fill="midnightblue" stroke="midnightblue" points="520.53,-56.86 531.11,-56.44 522.58,-50.16 520.53,-56.86"/>
</g>
<!-- Node9&#45;&gt;Node92 -->
<g id="edge10" class="edge">
<title>Node9&#45;&gt;Node92</title>
<path fill="none" stroke="midnightblue" d="M553.49,-46.4C550.81,-37.36 547.72,-26.94 545.59,-19.75"/>
<polygon fill="midnightblue" stroke="midnightblue" points="550.16,-47.49 556.36,-56.08 556.87,-45.5 550.16,-47.49"/>
</g>
<!-- Node9&#45;&gt;Node101 -->
<g id="edge11" class="edge">
<title>Node9&#45;&gt;Node101</title>
<path fill="none" stroke="midnightblue" d="M585.06,-51.73C604.68,-41.73 631.03,-28.31 648.01,-19.65"/>
<polygon fill="midnightblue" stroke="midnightblue" points="583.35,-48.67 576.03,-56.32 586.53,-54.9 583.35,-48.67"/>
</g>
<!-- Node9&#45;&gt;Node128 -->
<g id="edge12" class="edge">
<title>Node9&#45;&gt;Node128</title>
<path fill="none" stroke="midnightblue" d="M602.31,-57.74C663.3,-47.51 773.93,-28.96 835.88,-18.57"/>
<polygon fill="midnightblue" stroke="midnightblue" points="601.53,-54.32 592.25,-59.42 602.69,-61.22 601.53,-54.32"/>
</g>
<!-- Node9&#45;&gt;Node139 -->
<g id="edge13" class="edge">
<title>Node9&#45;&gt;Node139</title>
<path fill="none" stroke="midnightblue" d="M602.21,-59.87C614.13,-58.53 627.06,-57.14 639,-56 830.77,-37.62 1059.48,-21.16 1157.95,-14.34"/>
<polygon fill="midnightblue" stroke="midnightblue" points="601.6,-56.42 592.06,-61.03 602.39,-63.38 601.6,-56.42"/>
</g>
<!-- Node9&#45;&gt;Node140 -->
<g id="edge14" class="edge">
<title>Node9&#45;&gt;Node140</title>
<path fill="none" stroke="midnightblue" d="M602.2,-59.69C614.11,-58.35 627.04,-57.01 639,-56 712.28,-49.82 1211.45,-23.01 1380.88,-13.98"/>
<polygon fill="midnightblue" stroke="midnightblue" points="601.58,-56.24 592.04,-60.86 602.38,-63.2 601.58,-56.24"/>
</g>
<!-- Node234&#45;&gt;Node148 -->
<g id="edge27" class="edge">
<title>Node234&#45;&gt;Node148</title>
<path fill="none" stroke="midnightblue" d="M2572.64,-56.05C2277.02,-28.89 2200.4,-41.99 1909,-20 1899.62,-19.29 1889.71,-18.44 1880.01,-17.55"/>
<polygon fill="midnightblue" stroke="midnightblue" points="2572.51,-59.56 2582.79,-57 2573.16,-52.59 2572.51,-59.56"/>
</g>
<!-- Node234&#45;&gt;Node238 -->
<g id="edge28" class="edge">
<title>Node234&#45;&gt;Node238</title>
<path fill="none" stroke="midnightblue" d="M2572.79,-56.04C2374.97,-35.65 2154.6,-21.22 2047.71,-14.76"/>
<polygon fill="midnightblue" stroke="midnightblue" points="2572.48,-59.53 2582.79,-57.08 2573.2,-52.57 2572.48,-59.53"/>
</g>
<!-- Node234&#45;&gt;Node239 -->
<g id="edge29" class="edge">
<title>Node234&#45;&gt;Node239</title>
<path fill="none" stroke="midnightblue" d="M2573.11,-54.98C2500.98,-44.34 2388.71,-27.78 2324.51,-18.3"/>
<polygon fill="midnightblue" stroke="midnightblue" points="2572.6,-58.45 2583.01,-56.44 2573.62,-51.52 2572.6,-58.45"/>
</g>
<!-- Node234&#45;&gt;Node240 -->
<g id="edge30" class="edge">
<title>Node234&#45;&gt;Node240</title>
<path fill="none" stroke="midnightblue" d="M2605.3,-53.17C2574.6,-43 2531.08,-28.59 2503.71,-19.52"/>
<polygon fill="midnightblue" stroke="midnightblue" points="2604.58,-56.62 2615.17,-56.44 2606.78,-49.98 2604.58,-56.62"/>
</g>
<!-- Node234&#45;&gt;Node242 -->
<g id="edge31" class="edge">
<title>Node234&#45;&gt;Node242</title>
<path fill="none" stroke="midnightblue" d="M2641,-45.8C2641,-36.91 2641,-26.78 2641,-19.75"/>
<polygon fill="midnightblue" stroke="midnightblue" points="2637.5,-46.08 2641,-56.08 2644.5,-46.08 2637.5,-46.08"/>
</g>
<!-- Node234&#45;&gt;Node149 -->
<g id="edge32" class="edge">
<title>Node234&#45;&gt;Node149</title>
<path fill="none" stroke="midnightblue" d="M2669.77,-52.37C2692.81,-42.26 2724.48,-28.35 2744.6,-19.52"/>
<polygon fill="midnightblue" stroke="midnightblue" points="2668.24,-49.22 2660.49,-56.44 2671.05,-55.63 2668.24,-49.22"/>
</g>
<!-- Node234&#45;&gt;Node244 -->
<g id="edge33" class="edge">
<title>Node234&#45;&gt;Node244</title>
<path fill="none" stroke="midnightblue" d="M2709.42,-59.34C2844.03,-48.21 3139.79,-23.75 3250.78,-14.57"/>
<polygon fill="midnightblue" stroke="midnightblue" points="2708.91,-55.87 2699.24,-60.18 2709.49,-62.85 2708.91,-55.87"/>
</g>
<!-- Node245&#45;&gt;Node53 -->
<g id="edge42" class="edge">
<title>Node245&#45;&gt;Node53</title>
<path fill="none" stroke="midnightblue" d="M270.7,-47.86C277.63,-38.5 285.91,-27.33 291.52,-19.75"/>
<polygon fill="midnightblue" stroke="midnightblue" points="267.75,-45.96 264.61,-56.08 273.37,-50.13 267.75,-45.96"/>
</g>
<!-- Node267&#45;&gt;Node69 -->
<g id="edge51" class="edge">
<title>Node267&#45;&gt;Node69</title>
<path fill="none" stroke="midnightblue" d="M451,-45.8C451,-36.91 451,-26.78 451,-19.75"/>
<polygon fill="midnightblue" stroke="midnightblue" points="447.5,-46.08 451,-56.08 454.5,-46.08 447.5,-46.08"/>
</g>
<!-- Node268&#45;&gt;Node92 -->
<g id="edge55" class="edge">
<title>Node268&#45;&gt;Node92</title>
<path fill="none" stroke="midnightblue" d="M1515.73,-56.02C1110.38,-15.19 1003.77,-58.43 602,-20 599.11,-19.72 596.15,-19.4 593.16,-19.04"/>
<polygon fill="midnightblue" stroke="midnightblue" points="1515.67,-59.53 1525.98,-57.06 1516.38,-52.57 1515.67,-59.53"/>
</g>
<!-- Node268&#45;&gt;Node58 -->
<g id="edge56" class="edge">
<title>Node268&#45;&gt;Node58</title>
<path fill="none" stroke="midnightblue" d="M1585.05,-48.14C1592.89,-38.74 1602.33,-27.4 1608.71,-19.75"/>
<polygon fill="midnightblue" stroke="midnightblue" points="1582.14,-46.16 1578.43,-56.08 1587.52,-50.64 1582.14,-46.16"/>
</g>
</g>
</svg>
