<?xml version="1.0" encoding="UTF-8" standalone="no"?>
<!DOCTYPE svg PUBLIC "-//W3C//DTD SVG 1.1//EN"
 "http://www.w3.org/Graphics/SVG/1.1/DTD/svg11.dtd">
<!-- Generated by graphviz version 2.43.0 (0)
 -->
<!-- Title: SimTime.H Pages: 1 -->
<svg width="4157pt" height="252pt"
 viewBox="0.00 0.00 4156.50 252.00" xmlns="http://www.w3.org/2000/svg" xmlns:xlink="http://www.w3.org/1999/xlink">
<g id="graph0" class="graph" transform="scale(1 1) rotate(0) translate(4 248)">
<title>SimTime.H</title>
<polygon fill="white" stroke="transparent" points="-4,4 -4,-248 4152.5,-248 4152.5,4 -4,4"/>
<!-- Node1 -->
<g id="node1" class="node">
<title>Node1</title>
<g id="a_node1"><a xlink:title=" ">
<polygon fill="#bfbfbf" stroke="black" points="2657.5,-224.5 2657.5,-243.5 2728.5,-243.5 2728.5,-224.5 2657.5,-224.5"/>
<text text-anchor="middle" x="2693" y="-231.5" font-family="Helvetica,sans-Serif" font-size="10.00">SimTime.H</text>
</a>
</g>
</g>
<!-- Node2 -->
<g id="node2" class="node">
<title>Node2</title>
<g id="a_node2"><a xlink:href="velocity__bcs_8_h.html" target="_top" xlink:title=" ">
<polygon fill="white" stroke="black" points="0,-112.5 0,-131.5 88,-131.5 88,-112.5 0,-112.5"/>
<text text-anchor="middle" x="44" y="-119.5" font-family="Helvetica,sans-Serif" font-size="10.00">velocity_bcs.H</text>
</a>
</g>
</g>
<!-- Node1&#45;&gt;Node2 -->
<g id="edge1" class="edge">
<title>Node1&#45;&gt;Node2</title>
<path fill="none" stroke="midnightblue" d="M2647.17,-232.89C2302.52,-232.01 128.9,-224.96 73,-188 53.62,-175.19 47.07,-146.14 44.95,-131.61"/>
<polygon fill="midnightblue" stroke="midnightblue" points="2647.28,-236.39 2657.29,-232.92 2647.3,-229.39 2647.28,-236.39"/>
</g>
<!-- Node5 -->
<g id="node4" class="node">
<title>Node5</title>
<g id="a_node4"><a xlink:href="_c_f_d_sim_8_h.html" target="_top" xlink:title=" ">
<polygon fill="white" stroke="red" points="2115,-168.5 2115,-187.5 2181,-187.5 2181,-168.5 2115,-168.5"/>
<text text-anchor="middle" x="2148" y="-175.5" font-family="Helvetica,sans-Serif" font-size="10.00">CFDSim.H</text>
</a>
</g>
</g>
<!-- Node1&#45;&gt;Node5 -->
<g id="edge3" class="edge">
<title>Node1&#45;&gt;Node5</title>
<path fill="none" stroke="midnightblue" d="M2647.05,-228.45C2539.68,-217.81 2274.39,-191.52 2181.09,-182.28"/>
<polygon fill="midnightblue" stroke="midnightblue" points="2646.94,-231.95 2657.24,-229.46 2647.63,-224.99 2646.94,-231.95"/>
</g>
<!-- Node63 -->
<g id="node24" class="node">
<title>Node63</title>
<g id="a_node24"><a xlink:href="helics_8_h.html" target="_top" xlink:title=" ">
<polygon fill="white" stroke="red" points="3248,-112.5 3248,-131.5 3304,-131.5 3304,-112.5 3248,-112.5"/>
<text text-anchor="middle" x="3276" y="-119.5" font-family="Helvetica,sans-Serif" font-size="10.00">helics.H</text>
</a>
</g>
</g>
<!-- Node1&#45;&gt;Node63 -->
<g id="edge65" class="edge">
<title>Node1&#45;&gt;Node63</title>
<path fill="none" stroke="midnightblue" d="M2738.44,-224.94C2831.56,-208.32 3050.7,-168.74 3234,-132 3238.39,-131.12 3243.02,-130.16 3247.55,-129.2"/>
<polygon fill="midnightblue" stroke="midnightblue" points="2737.74,-221.51 2728.51,-226.71 2738.97,-228.4 2737.74,-221.51"/>
</g>
<!-- Node76 -->
<g id="node27" class="node">
<title>Node76</title>
<g id="a_node27"><a xlink:href="incflo_8_h.html" target="_top" xlink:title=" ">
<polygon fill="white" stroke="red" points="3466.5,-112.5 3466.5,-131.5 3519.5,-131.5 3519.5,-112.5 3466.5,-112.5"/>
<text text-anchor="middle" x="3493" y="-119.5" font-family="Helvetica,sans-Serif" font-size="10.00">incflo.H</text>
</a>
</g>
</g>
<!-- Node1&#45;&gt;Node76 -->
<g id="edge66" class="edge">
<title>Node1&#45;&gt;Node76</title>
<path fill="none" stroke="midnightblue" d="M2738.9,-229.03C2858.15,-218.27 3187.28,-185.67 3457,-132 3460.03,-131.4 3463.19,-130.7 3466.33,-129.97"/>
<polygon fill="midnightblue" stroke="midnightblue" points="2738.33,-225.57 2728.68,-229.95 2738.96,-232.54 2738.33,-225.57"/>
</g>
<!-- Node56 -->
<g id="node37" class="node">
<title>Node56</title>
<g id="a_node37"><a xlink:href="_multi_phase_8cpp.html" target="_top" xlink:title=" ">
<polygon fill="white" stroke="black" points="3537.5,-112.5 3537.5,-131.5 3628.5,-131.5 3628.5,-112.5 3537.5,-112.5"/>
<text text-anchor="middle" x="3583" y="-119.5" font-family="Helvetica,sans-Serif" font-size="10.00">MultiPhase.cpp</text>
</a>
</g>
</g>
<!-- Node1&#45;&gt;Node56 -->
<g id="edge68" class="edge">
<title>Node1&#45;&gt;Node56</title>
<path fill="none" stroke="midnightblue" d="M2738.7,-230.15C2827.59,-224.34 3029.88,-209.8 3199,-188 3323.06,-172.01 3468.35,-145.18 3539.4,-131.54"/>
<polygon fill="midnightblue" stroke="midnightblue" points="2738.44,-226.66 2728.69,-230.8 2738.89,-233.65 2738.44,-226.66"/>
</g>
<!-- Node143 -->
<g id="node38" class="node">
<title>Node143</title>
<g id="a_node38"><a xlink:href="_field_plane_averaging_8_h.html" target="_top" xlink:title=" ">
<polygon fill="white" stroke="red" points="3322,-112.5 3322,-131.5 3448,-131.5 3448,-112.5 3322,-112.5"/>
<text text-anchor="middle" x="3385" y="-119.5" font-family="Helvetica,sans-Serif" font-size="10.00">FieldPlaneAveraging.H</text>
</a>
</g>
</g>
<!-- Node1&#45;&gt;Node143 -->
<g id="edge69" class="edge">
<title>Node1&#45;&gt;Node143</title>
<path fill="none" stroke="midnightblue" d="M2739.04,-226.95C2800.94,-218.7 2914.42,-203.22 3011,-188 3129.32,-169.35 3268.15,-144.42 3338.72,-131.53"/>
<polygon fill="midnightblue" stroke="midnightblue" points="2738.27,-223.52 2728.82,-228.31 2739.2,-230.46 2738.27,-223.52"/>
</g>
<!-- Node153 -->
<g id="node39" class="node">
<title>Node153</title>
<g id="a_node39"><a xlink:href="_a_b_l_8_h.html" target="_top" xlink:title=" ">
<polygon fill="white" stroke="red" points="3146,-56.5 3146,-75.5 3192,-75.5 3192,-56.5 3146,-56.5"/>
<text text-anchor="middle" x="3169" y="-63.5" font-family="Helvetica,sans-Serif" font-size="10.00">ABL.H</text>
</a>
</g>
</g>
<!-- Node1&#45;&gt;Node153 -->
<g id="edge71" class="edge">
<title>Node1&#45;&gt;Node153</title>
<path fill="none" stroke="midnightblue" d="M2738.86,-232.82C2950.03,-231.52 3821.98,-220.78 3900,-132 3905.87,-125.32 3906.09,-118.48 3900,-112 3875.15,-85.57 3313.5,-70.5 3192.03,-67.54"/>
<polygon fill="midnightblue" stroke="midnightblue" points="2738.71,-229.32 2728.73,-232.88 2738.75,-236.32 2738.71,-229.32"/>
</g>
<!-- Node157 -->
<g id="node40" class="node">
<title>Node157</title>
<g id="a_node40"><a xlink:href="_field_plane_averaging_fine_8_h.html" target="_top" xlink:title=" ">
<polygon fill="white" stroke="red" points="3647,-112.5 3647,-131.5 3793,-131.5 3793,-112.5 3647,-112.5"/>
<text text-anchor="middle" x="3720" y="-119.5" font-family="Helvetica,sans-Serif" font-size="10.00">FieldPlaneAveragingFine.H</text>
</a>
</g>
</g>
<!-- Node1&#45;&gt;Node157 -->
<g id="edge70" class="edge">
<title>Node1&#45;&gt;Node157</title>
<path fill="none" stroke="midnightblue" d="M2738.76,-230.53C2837.23,-225 3076.45,-210.28 3276,-188 3419.23,-172.01 3587.32,-145.18 3669.54,-131.54"/>
<polygon fill="midnightblue" stroke="midnightblue" points="2738.36,-227.05 2728.57,-231.1 2738.75,-234.04 2738.36,-227.05"/>
</g>
<!-- Node213 -->
<g id="node41" class="node">
<title>Node213</title>
<g id="a_node41"><a xlink:href="_fast_iface_8cpp.html" target="_top" xlink:title=" ">
<polygon fill="white" stroke="black" points="3811,-112.5 3811,-131.5 3891,-131.5 3891,-112.5 3811,-112.5"/>
<text text-anchor="middle" x="3851" y="-119.5" font-family="Helvetica,sans-Serif" font-size="10.00">FastIface.cpp</text>
</a>
</g>
</g>
<!-- Node1&#45;&gt;Node213 -->
<g id="edge72" class="edge">
<title>Node1&#45;&gt;Node213</title>
<path fill="none" stroke="midnightblue" d="M2738.92,-230.86C2847.57,-225.6 3128.87,-210.78 3363,-188 3558.77,-168.96 3607.64,-162.22 3802,-132 3804.91,-131.55 3807.9,-131.06 3810.92,-130.55"/>
<polygon fill="midnightblue" stroke="midnightblue" points="2738.47,-227.38 2728.65,-231.36 2738.81,-234.37 2738.47,-227.38"/>
</g>
<!-- Node214 -->
<g id="node42" class="node">
<title>Node214</title>
<g id="a_node42"><a xlink:href="_field_8cpp.html" target="_top" xlink:title=" ">
<polygon fill="white" stroke="black" points="106,-112.5 106,-131.5 166,-131.5 166,-112.5 106,-112.5"/>
<text text-anchor="middle" x="136" y="-119.5" font-family="Helvetica,sans-Serif" font-size="10.00">Field.cpp</text>
</a>
</g>
</g>
<!-- Node1&#45;&gt;Node214 -->
<g id="edge48" class="edge">
<title>Node1&#45;&gt;Node214</title>
<path fill="none" stroke="midnightblue" d="M2647.12,-232.79C2321.8,-231.18 372.97,-220.27 253,-188 210.59,-176.59 167.03,-146.6 147.13,-131.68"/>
<polygon fill="midnightblue" stroke="midnightblue" points="2647.12,-236.29 2657.14,-232.83 2647.16,-229.29 2647.12,-236.29"/>
</g>
<!-- Node215 -->
<g id="node43" class="node">
<title>Node215</title>
<g id="a_node43"><a xlink:href="_field_fill_patch_ops_8_h.html" target="_top" xlink:title=" ">
<polygon fill="white" stroke="red" points="82,-168.5 82,-187.5 192,-187.5 192,-168.5 82,-168.5"/>
<text text-anchor="middle" x="137" y="-175.5" font-family="Helvetica,sans-Serif" font-size="10.00">FieldFillPatchOps.H</text>
</a>
</g>
</g>
<!-- Node1&#45;&gt;Node215 -->
<g id="edge49" class="edge">
<title>Node1&#45;&gt;Node215</title>
<path fill="none" stroke="midnightblue" d="M2647.11,-232.87C2351.04,-231.93 706.92,-225.08 206,-188 201.54,-187.67 196.93,-187.25 192.31,-186.77"/>
<polygon fill="midnightblue" stroke="midnightblue" points="2647.46,-236.37 2657.47,-232.9 2647.48,-229.37 2647.46,-236.37"/>
</g>
<!-- Node216 -->
<g id="node44" class="node">
<title>Node216</title>
<g id="a_node44"><a xlink:href="_p_d_e_helpers_8_h.html" target="_top" xlink:title=" ">
<polygon fill="white" stroke="red" points="184,-112.5 184,-131.5 268,-131.5 268,-112.5 184,-112.5"/>
<text text-anchor="middle" x="226" y="-119.5" font-family="Helvetica,sans-Serif" font-size="10.00">PDEHelpers.H</text>
</a>
</g>
</g>
<!-- Node1&#45;&gt;Node216 -->
<g id="edge64" class="edge">
<title>Node1&#45;&gt;Node216</title>
<path fill="none" stroke="midnightblue" d="M2647.38,-232.66C2319.85,-230.19 337.61,-214.12 282,-188 256.65,-176.09 238.33,-146.62 230.39,-131.8"/>
<polygon fill="midnightblue" stroke="midnightblue" points="2647.44,-236.16 2657.46,-232.74 2647.49,-229.16 2647.44,-236.16"/>
</g>
<!-- Node217 -->
<g id="node45" class="node">
<title>Node217</title>
<g id="a_node45"><a xlink:href="_sim_time_8cpp.html" target="_top" xlink:title=" ">
<polygon fill="white" stroke="black" points="3947,-168.5 3947,-187.5 4027,-187.5 4027,-168.5 3947,-168.5"/>
<text text-anchor="middle" x="3987" y="-175.5" font-family="Helvetica,sans-Serif" font-size="10.00">SimTime.cpp</text>
</a>
</g>
</g>
<!-- Node1&#45;&gt;Node217 -->
<g id="edge55" class="edge">
<title>Node1&#45;&gt;Node217</title>
<path fill="none" stroke="midnightblue" d="M2738.77,-233.46C2901.68,-234.65 3468.46,-234.94 3933,-188 3937.54,-187.54 3942.27,-186.94 3946.97,-186.26"/>
<polygon fill="midnightblue" stroke="midnightblue" points="2738.65,-229.96 2728.63,-233.38 2738.6,-236.96 2738.65,-229.96"/>
</g>
<!-- Node218 -->
<g id="node46" class="node">
<title>Node218</title>
<g id="a_node46"><a xlink:href="_a_b_l_forcing_8_h.html" target="_top" xlink:title=" ">
<polygon fill="white" stroke="red" points="650.5,-56.5 650.5,-75.5 731.5,-75.5 731.5,-56.5 650.5,-56.5"/>
<text text-anchor="middle" x="691" y="-63.5" font-family="Helvetica,sans-Serif" font-size="10.00">ABLForcing.H</text>
</a>
</g>
</g>
<!-- Node1&#45;&gt;Node218 -->
<g id="edge56" class="edge">
<title>Node1&#45;&gt;Node218</title>
<path fill="none" stroke="midnightblue" d="M2647.11,-232.88C2350.08,-232.03 704.91,-225.59 485,-188 406.59,-174.6 361.63,-196.45 315,-132 286.62,-92.77 286.49,-127.42 641,-76 644.06,-75.56 647.21,-75.07 650.38,-74.55"/>
<polygon fill="midnightblue" stroke="midnightblue" points="2647.49,-236.39 2657.5,-232.91 2647.51,-229.39 2647.49,-236.39"/>
</g>
<!-- Node219 -->
<g id="node47" class="node">
<title>Node219</title>
<g id="a_node47"><a xlink:href="_actuator_forcing_8_h.html" target="_top" xlink:title=" ">
<polygon fill="white" stroke="black" points="494,-168.5 494,-187.5 598,-187.5 598,-168.5 494,-168.5"/>
<text text-anchor="middle" x="546" y="-175.5" font-family="Helvetica,sans-Serif" font-size="10.00">ActuatorForcing.H</text>
</a>
</g>
</g>
<!-- Node1&#45;&gt;Node219 -->
<g id="edge58" class="edge">
<title>Node1&#45;&gt;Node219</title>
<path fill="none" stroke="midnightblue" d="M2646.87,-231.84C2366.62,-224.79 894.74,-187.77 598.12,-180.31"/>
<polygon fill="midnightblue" stroke="midnightblue" points="2647,-235.34 2657.08,-232.1 2647.17,-228.35 2647,-235.34"/>
</g>
<!-- Node220 -->
<g id="node48" class="node">
<title>Node220</title>
<g id="a_node48"><a xlink:href="_body_force_8_h.html" target="_top" xlink:title=" ">
<polygon fill="white" stroke="black" points="1349,-168.5 1349,-187.5 1427,-187.5 1427,-168.5 1349,-168.5"/>
<text text-anchor="middle" x="1388" y="-175.5" font-family="Helvetica,sans-Serif" font-size="10.00">BodyForce.H</text>
</a>
</g>
</g>
<!-- Node1&#45;&gt;Node220 -->
<g id="edge60" class="edge">
<title>Node1&#45;&gt;Node220</title>
<path fill="none" stroke="midnightblue" d="M2647.35,-231.11C2443.46,-222.67 1617.74,-188.51 1427.31,-180.63"/>
<polygon fill="midnightblue" stroke="midnightblue" points="2647.28,-234.61 2657.42,-231.53 2647.57,-227.62 2647.28,-234.61"/>
</g>
<!-- Node221 -->
<g id="node49" class="node">
<title>Node221</title>
<g id="a_node49"><a xlink:href="_geostrophic_forcing_8_h.html" target="_top" xlink:title=" ">
<polygon fill="white" stroke="black" points="1811.5,-168.5 1811.5,-187.5 1932.5,-187.5 1932.5,-168.5 1811.5,-168.5"/>
<text text-anchor="middle" x="1872" y="-175.5" font-family="Helvetica,sans-Serif" font-size="10.00">GeostrophicForcing.H</text>
</a>
</g>
</g>
<!-- Node1&#45;&gt;Node221 -->
<g id="edge62" class="edge">
<title>Node1&#45;&gt;Node221</title>
<path fill="none" stroke="midnightblue" d="M2647.15,-229.98C2507.93,-220.83 2089.98,-193.34 1932.72,-182.99"/>
<polygon fill="midnightblue" stroke="midnightblue" points="2647.25,-233.5 2657.46,-230.66 2647.71,-226.51 2647.25,-233.5"/>
</g>
<!-- Node222 -->
<g id="node50" class="node">
<title>Node222</title>
<g id="a_node50"><a xlink:href="_breaking_waves_8_h.html" target="_top" xlink:title=" ">
<polygon fill="white" stroke="red" points="4045.5,-168.5 4045.5,-187.5 4148.5,-187.5 4148.5,-168.5 4045.5,-168.5"/>
<text text-anchor="middle" x="4097" y="-175.5" font-family="Helvetica,sans-Serif" font-size="10.00">BreakingWaves.H</text>
</a>
</g>
</g>
<!-- Node1&#45;&gt;Node222 -->
<g id="edge67" class="edge">
<title>Node1&#45;&gt;Node222</title>
<path fill="none" stroke="midnightblue" d="M2738.79,-233.34C2910.02,-234.2 3528.78,-233.77 4036,-188 4039.09,-187.72 4042.27,-187.39 4045.46,-187.02"/>
<polygon fill="midnightblue" stroke="midnightblue" points="2738.65,-229.84 2728.63,-233.28 2738.61,-236.84 2738.65,-229.84"/>
</g>
<!-- Node3 -->
<g id="node3" class="node">
<title>Node3</title>
<g id="a_node3"><a xlink:href="icns__bcop_8_h.html" target="_top" xlink:title=" ">
<polygon fill="white" stroke="red" points="6.5,-56.5 6.5,-75.5 81.5,-75.5 81.5,-56.5 6.5,-56.5"/>
<text text-anchor="middle" x="44" y="-63.5" font-family="Helvetica,sans-Serif" font-size="10.00">icns_bcop.H</text>
</a>
</g>
</g>
<!-- Node2&#45;&gt;Node3 -->
<g id="edge2" class="edge">
<title>Node2&#45;&gt;Node3</title>
<path fill="none" stroke="midnightblue" d="M44,-101.8C44,-92.91 44,-82.78 44,-75.75"/>
<polygon fill="midnightblue" stroke="midnightblue" points="40.5,-102.08 44,-112.08 47.5,-102.08 40.5,-102.08"/>
</g>
<!-- Node6 -->
<g id="node5" class="node">
<title>Node6</title>
<g id="a_node5"><a xlink:href="_c_f_d_sim_8cpp.html" target="_top" xlink:title=" ">
<polygon fill="white" stroke="black" points="904,-112.5 904,-131.5 980,-131.5 980,-112.5 904,-112.5"/>
<text text-anchor="middle" x="942" y="-119.5" font-family="Helvetica,sans-Serif" font-size="10.00">CFDSim.cpp</text>
</a>
</g>
</g>
<!-- Node5&#45;&gt;Node6 -->
<g id="edge4" class="edge">
<title>Node5&#45;&gt;Node6</title>
<path fill="none" stroke="midnightblue" d="M2104.74,-175.04C2063.06,-173.16 1998.22,-170.29 1942,-168 1518.49,-150.75 1410.13,-180 989,-132 986.11,-131.67 983.13,-131.26 980.15,-130.81"/>
<polygon fill="midnightblue" stroke="midnightblue" points="2104.67,-178.54 2114.82,-175.49 2104.99,-171.54 2104.67,-178.54"/>
</g>
<!-- Node7 -->
<g id="node6" class="node">
<title>Node7</title>
<g id="a_node6"><a xlink:href="_mesh_map_8cpp.html" target="_top" xlink:title=" ">
<polygon fill="white" stroke="black" points="998,-112.5 998,-131.5 1082,-131.5 1082,-112.5 998,-112.5"/>
<text text-anchor="middle" x="1040" y="-119.5" font-family="Helvetica,sans-Serif" font-size="10.00">MeshMap.cpp</text>
</a>
</g>
</g>
<!-- Node5&#45;&gt;Node7 -->
<g id="edge5" class="edge">
<title>Node5&#45;&gt;Node7</title>
<path fill="none" stroke="midnightblue" d="M2104.74,-175.09C2063.06,-173.26 1998.22,-170.42 1942,-168 1564.23,-151.75 1467.96,-172.33 1092,-132 1088.81,-131.66 1085.52,-131.24 1082.22,-130.78"/>
<polygon fill="midnightblue" stroke="midnightblue" points="2104.68,-178.59 2114.82,-175.54 2104.98,-171.6 2104.68,-178.59"/>
</g>
<!-- Node8 -->
<g id="node7" class="node">
<title>Node8</title>
<g id="a_node7"><a xlink:href="_a_b_l_forcing_8cpp.html" target="_top" xlink:title=" ">
<polygon fill="white" stroke="black" points="1880.5,-0.5 1880.5,-19.5 1971.5,-19.5 1971.5,-0.5 1880.5,-0.5"/>
<text text-anchor="middle" x="1926" y="-7.5" font-family="Helvetica,sans-Serif" font-size="10.00">ABLForcing.cpp</text>
</a>
</g>
</g>
<!-- Node5&#45;&gt;Node8 -->
<g id="edge6" class="edge">
<title>Node5&#45;&gt;Node8</title>
<path fill="none" stroke="midnightblue" d="M2104.62,-176.28C2066.24,-173.41 2010.93,-163.53 1975,-132 1939.91,-101.21 1929.56,-41.62 1926.86,-19.52"/>
<polygon fill="midnightblue" stroke="midnightblue" points="2104.76,-179.79 2114.96,-176.91 2105.19,-172.8 2104.76,-179.79"/>
</g>
<!-- Node9 -->
<g id="node8" class="node">
<title>Node9</title>
<g id="a_node8"><a xlink:href="_a_b_l_mean_boussinesq_8cpp.html" target="_top" xlink:title=" ">
<polygon fill="white" stroke="black" points="2522,-0.5 2522,-19.5 2660,-19.5 2660,-0.5 2522,-0.5"/>
<text text-anchor="middle" x="2591" y="-7.5" font-family="Helvetica,sans-Serif" font-size="10.00">ABLMeanBoussinesq.cpp</text>
</a>
</g>
</g>
<!-- Node5&#45;&gt;Node9 -->
<g id="edge7" class="edge">
<title>Node5&#45;&gt;Node9</title>
<path fill="none" stroke="midnightblue" d="M2135.4,-160.13C2126.47,-145.94 2117.87,-125.82 2129,-112 2177.52,-51.72 2405.08,-25.45 2521.7,-15.79"/>
<polygon fill="midnightblue" stroke="midnightblue" points="2132.58,-162.2 2141.12,-168.47 2138.35,-158.24 2132.58,-162.2"/>
</g>
<!-- Node10 -->
<g id="node9" class="node">
<title>Node10</title>
<g id="a_node9"><a xlink:href="_actuator_forcing_8cpp.html" target="_top" xlink:title=" ">
<polygon fill="white" stroke="black" points="324.5,-112.5 324.5,-131.5 437.5,-131.5 437.5,-112.5 324.5,-112.5"/>
<text text-anchor="middle" x="381" y="-119.5" font-family="Helvetica,sans-Serif" font-size="10.00">ActuatorForcing.cpp</text>
</a>
</g>
</g>
<!-- Node5&#45;&gt;Node10 -->
<g id="edge8" class="edge">
<title>Node5&#45;&gt;Node10</title>
<path fill="none" stroke="midnightblue" d="M2104.75,-174.86C2063.07,-172.86 1998.23,-169.91 1942,-168 1277.74,-145.49 1109.52,-184.98 447,-132 444,-131.76 440.93,-131.48 437.84,-131.16"/>
<polygon fill="midnightblue" stroke="midnightblue" points="2104.67,-178.36 2114.83,-175.35 2105.01,-171.37 2104.67,-178.36"/>
</g>
<!-- Node11 -->
<g id="node10" class="node">
<title>Node11</title>
<g id="a_node10"><a xlink:href="_body_force_8cpp.html" target="_top" xlink:title=" ">
<polygon fill="white" stroke="black" points="456,-112.5 456,-131.5 544,-131.5 544,-112.5 456,-112.5"/>
<text text-anchor="middle" x="500" y="-119.5" font-family="Helvetica,sans-Serif" font-size="10.00">BodyForce.cpp</text>
</a>
</g>
</g>
<!-- Node5&#45;&gt;Node11 -->
<g id="edge9" class="edge">
<title>Node5&#45;&gt;Node11</title>
<path fill="none" stroke="midnightblue" d="M2104.75,-174.89C2063.07,-172.9 1998.23,-169.96 1942,-168 1324.83,-146.52 1167.63,-191.84 553,-132 550.12,-131.72 547.16,-131.38 544.18,-130.99"/>
<polygon fill="midnightblue" stroke="midnightblue" points="2104.67,-178.39 2114.83,-175.37 2105,-171.4 2104.67,-178.39"/>
</g>
<!-- Node12 -->
<g id="node11" class="node">
<title>Node12</title>
<g id="a_node11"><a xlink:href="_boussinesq_buoyancy_8cpp.html" target="_top" xlink:title=" ">
<polygon fill="white" stroke="black" points="1100.5,-112.5 1100.5,-131.5 1239.5,-131.5 1239.5,-112.5 1100.5,-112.5"/>
<text text-anchor="middle" x="1170" y="-119.5" font-family="Helvetica,sans-Serif" font-size="10.00">BoussinesqBuoyancy.cpp</text>
</a>
</g>
</g>
<!-- Node5&#45;&gt;Node12 -->
<g id="edge10" class="edge">
<title>Node5&#45;&gt;Node12</title>
<path fill="none" stroke="midnightblue" d="M2104.82,-175C1937.2,-167.21 1334.67,-139.02 1249,-132 1245.97,-131.75 1242.88,-131.48 1239.76,-131.19"/>
<polygon fill="midnightblue" stroke="midnightblue" points="2104.84,-178.5 2114.99,-175.47 2105.17,-171.51 2104.84,-178.5"/>
</g>
<!-- Node13 -->
<g id="node12" class="node">
<title>Node13</title>
<g id="a_node12"><a xlink:href="_coriolis_forcing_8cpp.html" target="_top" xlink:title=" ">
<polygon fill="white" stroke="black" points="1257.5,-112.5 1257.5,-131.5 1366.5,-131.5 1366.5,-112.5 1257.5,-112.5"/>
<text text-anchor="middle" x="1312" y="-119.5" font-family="Helvetica,sans-Serif" font-size="10.00">CoriolisForcing.cpp</text>
</a>
</g>
</g>
<!-- Node5&#45;&gt;Node13 -->
<g id="edge11" class="edge">
<title>Node5&#45;&gt;Node13</title>
<path fill="none" stroke="midnightblue" d="M2104.78,-174.95C1963.97,-168.18 1519.21,-146.22 1376,-132 1372.99,-131.7 1369.89,-131.36 1366.78,-131"/>
<polygon fill="midnightblue" stroke="midnightblue" points="2104.62,-178.44 2114.78,-175.43 2104.95,-171.45 2104.62,-178.44"/>
</g>
<!-- Node14 -->
<g id="node13" class="node">
<title>Node14</title>
<g id="a_node13"><a xlink:href="_density_buoyancy_8cpp.html" target="_top" xlink:title=" ">
<polygon fill="white" stroke="black" points="1384.5,-112.5 1384.5,-131.5 1505.5,-131.5 1505.5,-112.5 1384.5,-112.5"/>
<text text-anchor="middle" x="1445" y="-119.5" font-family="Helvetica,sans-Serif" font-size="10.00">DensityBuoyancy.cpp</text>
</a>
</g>
</g>
<!-- Node5&#45;&gt;Node14 -->
<g id="edge12" class="edge">
<title>Node5&#45;&gt;Node14</title>
<path fill="none" stroke="midnightblue" d="M2104.73,-174.77C2002.16,-169.32 1736.29,-154.07 1515,-132 1511.95,-131.7 1508.83,-131.37 1505.68,-131.02"/>
<polygon fill="midnightblue" stroke="midnightblue" points="2104.82,-178.28 2114.99,-175.32 2105.19,-171.29 2104.82,-178.28"/>
</g>
<!-- Node15 -->
<g id="node14" class="node">
<title>Node15</title>
<g id="a_node14"><a xlink:href="_geostrophic_forcing_8cpp.html" target="_top" xlink:title=" ">
<polygon fill="white" stroke="black" points="562.5,-112.5 562.5,-131.5 693.5,-131.5 693.5,-112.5 562.5,-112.5"/>
<text text-anchor="middle" x="628" y="-119.5" font-family="Helvetica,sans-Serif" font-size="10.00">GeostrophicForcing.cpp</text>
</a>
</g>
</g>
<!-- Node5&#45;&gt;Node15 -->
<g id="edge13" class="edge">
<title>Node5&#45;&gt;Node15</title>
<path fill="none" stroke="midnightblue" d="M2104.75,-174.93C2063.07,-172.97 1998.23,-170.05 1942,-168 1393.69,-148.03 1255.31,-170.7 708,-132 703.4,-131.67 698.66,-131.28 693.88,-130.85"/>
<polygon fill="midnightblue" stroke="midnightblue" points="2104.67,-178.43 2114.82,-175.4 2105,-171.44 2104.67,-178.43"/>
</g>
<!-- Node16 -->
<g id="node15" class="node">
<title>Node16</title>
<g id="a_node15"><a xlink:href="_gravity_forcing_8cpp.html" target="_top" xlink:title=" ">
<polygon fill="white" stroke="black" points="1524,-112.5 1524,-131.5 1632,-131.5 1632,-112.5 1524,-112.5"/>
<text text-anchor="middle" x="1578" y="-119.5" font-family="Helvetica,sans-Serif" font-size="10.00">GravityForcing.cpp</text>
</a>
</g>
</g>
<!-- Node5&#45;&gt;Node16 -->
<g id="edge14" class="edge">
<title>Node5&#45;&gt;Node16</title>
<path fill="none" stroke="midnightblue" d="M2104.61,-173.93C2016.89,-167.56 1812.23,-151.82 1641,-132 1638.15,-131.67 1635.22,-131.31 1632.27,-130.94"/>
<polygon fill="midnightblue" stroke="midnightblue" points="2104.49,-177.43 2114.72,-174.66 2105,-170.45 2104.49,-177.43"/>
</g>
<!-- Node17 -->
<g id="node16" class="node">
<title>Node17</title>
<g id="a_node16"><a xlink:href="_hurricane_forcing_8cpp.html" target="_top" xlink:title=" ">
<polygon fill="white" stroke="black" points="3134.5,-0.5 3134.5,-19.5 3253.5,-19.5 3253.5,-0.5 3134.5,-0.5"/>
<text text-anchor="middle" x="3194" y="-7.5" font-family="Helvetica,sans-Serif" font-size="10.00">HurricaneForcing.cpp</text>
</a>
</g>
</g>
<!-- Node5&#45;&gt;Node17 -->
<g id="edge15" class="edge">
<title>Node5&#45;&gt;Node17</title>
<path fill="none" stroke="midnightblue" d="M2191.26,-176.8C2385.06,-175.71 3165.53,-169.01 3201,-132 3230.84,-100.85 3208.4,-42 3198.28,-19.78"/>
<polygon fill="midnightblue" stroke="midnightblue" points="2191.14,-173.3 2181.16,-176.86 2191.18,-180.3 2191.14,-173.3"/>
</g>
<!-- Node18 -->
<g id="node17" class="node">
<title>Node18</title>
<g id="a_node17"><a xlink:href="_synth_turb_forcing_8cpp.html" target="_top" xlink:title=" ">
<polygon fill="white" stroke="black" points="1650,-112.5 1650,-131.5 1770,-131.5 1770,-112.5 1650,-112.5"/>
<text text-anchor="middle" x="1710" y="-119.5" font-family="Helvetica,sans-Serif" font-size="10.00">SynthTurbForcing.cpp</text>
</a>
</g>
</g>
<!-- Node5&#45;&gt;Node18 -->
<g id="edge16" class="edge">
<title>Node5&#45;&gt;Node18</title>
<path fill="none" stroke="midnightblue" d="M2104.87,-171.86C2035.97,-163.62 1896.85,-146.87 1779,-132 1776.12,-131.64 1773.18,-131.26 1770.21,-130.88"/>
<polygon fill="midnightblue" stroke="midnightblue" points="2104.57,-175.35 2114.91,-173.06 2105.4,-168.4 2104.57,-175.35"/>
</g>
<!-- Node19 -->
<g id="node18" class="node">
<title>Node19</title>
<g id="a_node18"><a xlink:href="_p_d_e_8_h.html" target="_top" xlink:title=" ">
<polygon fill="white" stroke="red" points="607.5,-0.5 607.5,-19.5 654.5,-19.5 654.5,-0.5 607.5,-0.5"/>
<text text-anchor="middle" x="631" y="-7.5" font-family="Helvetica,sans-Serif" font-size="10.00">PDE.H</text>
</a>
</g>
</g>
<!-- Node5&#45;&gt;Node19 -->
<g id="edge17" class="edge">
<title>Node5&#45;&gt;Node19</title>
<path fill="none" stroke="midnightblue" d="M2104.75,-174.95C2063.07,-173.01 1998.23,-170.1 1942,-168 1877.4,-165.59 833.64,-166.55 779,-132 746.91,-111.71 767.93,-81.71 740,-56 715.75,-33.67 678.89,-21.63 654.87,-15.77"/>
<polygon fill="midnightblue" stroke="midnightblue" points="2104.67,-178.45 2114.82,-175.42 2105,-171.46 2104.67,-178.45"/>
</g>
<!-- Node49 -->
<g id="node19" class="node">
<title>Node49</title>
<g id="a_node19"><a xlink:href="_p_d_e_base_8cpp.html" target="_top" xlink:title=" ">
<polygon fill="white" stroke="black" points="552,-56.5 552,-75.5 632,-75.5 632,-56.5 552,-56.5"/>
<text text-anchor="middle" x="592" y="-63.5" font-family="Helvetica,sans-Serif" font-size="10.00">PDEBase.cpp</text>
</a>
</g>
</g>
<!-- Node5&#45;&gt;Node49 -->
<g id="edge18" class="edge">
<title>Node5&#45;&gt;Node49</title>
<path fill="none" stroke="midnightblue" d="M2104.89,-172.03C2056.96,-165.76 1977.65,-153.17 1912,-132 1891.94,-125.53 1889.51,-116.85 1869,-112 1603.33,-49.14 912.49,-104.74 641,-76 638.08,-75.69 635.06,-75.3 632.04,-74.87"/>
<polygon fill="midnightblue" stroke="midnightblue" points="2104.55,-175.52 2114.91,-173.31 2105.44,-168.57 2104.55,-175.52"/>
</g>
<!-- Node50 -->
<g id="node20" class="node">
<title>Node50</title>
<g id="a_node20"><a xlink:href="_p_d_e_ops_8_h.html" target="_top" xlink:title=" ">
<polygon fill="white" stroke="red" points="468.5,-56.5 468.5,-75.5 533.5,-75.5 533.5,-56.5 468.5,-56.5"/>
<text text-anchor="middle" x="501" y="-63.5" font-family="Helvetica,sans-Serif" font-size="10.00">PDEOps.H</text>
</a>
</g>
</g>
<!-- Node5&#45;&gt;Node50 -->
<g id="edge19" class="edge">
<title>Node5&#45;&gt;Node50</title>
<path fill="none" stroke="midnightblue" d="M2104.75,-174.94C2063.07,-172.99 1998.23,-170.07 1942,-168 1809.14,-163.1 875.5,-162.1 746,-132 725.08,-127.14 722.37,-118.83 702,-112 694.01,-109.32 588.81,-86.19 533.89,-74.18"/>
<polygon fill="midnightblue" stroke="midnightblue" points="2104.67,-178.44 2114.82,-175.41 2105,-171.45 2104.67,-178.44"/>
</g>
<!-- Node60 -->
<g id="node21" class="node">
<title>Node60</title>
<g id="a_node21"><a xlink:href="_s_d_r_src_8cpp.html" target="_top" xlink:title=" ">
<polygon fill="white" stroke="black" points="1788,-112.5 1788,-131.5 1860,-131.5 1860,-112.5 1788,-112.5"/>
<text text-anchor="middle" x="1824" y="-119.5" font-family="Helvetica,sans-Serif" font-size="10.00">SDRSrc.cpp</text>
</a>
</g>
</g>
<!-- Node5&#45;&gt;Node60 -->
<g id="edge21" class="edge">
<title>Node5&#45;&gt;Node60</title>
<path fill="none" stroke="midnightblue" d="M2104.73,-170.1C2050.7,-161.44 1955.45,-146.02 1874,-132 1869.48,-131.22 1864.73,-130.39 1860.04,-129.55"/>
<polygon fill="midnightblue" stroke="midnightblue" points="2104.22,-173.57 2114.65,-171.69 2105.33,-166.65 2104.22,-173.57"/>
</g>
<!-- Node61 -->
<g id="node22" class="node">
<title>Node61</title>
<g id="a_node22"><a xlink:href="_ksgs_m84_src_8cpp.html" target="_top" xlink:title=" ">
<polygon fill="white" stroke="black" points="2138,-112.5 2138,-131.5 2234,-131.5 2234,-112.5 2138,-112.5"/>
<text text-anchor="middle" x="2186" y="-119.5" font-family="Helvetica,sans-Serif" font-size="10.00">KsgsM84Src.cpp</text>
</a>
</g>
</g>
<!-- Node5&#45;&gt;Node61 -->
<g id="edge22" class="edge">
<title>Node5&#45;&gt;Node61</title>
<path fill="none" stroke="midnightblue" d="M2160.06,-159.86C2166.64,-150.5 2174.51,-139.33 2179.84,-131.75"/>
<polygon fill="midnightblue" stroke="midnightblue" points="2157.17,-157.89 2154.27,-168.08 2162.89,-161.92 2157.17,-157.89"/>
</g>
<!-- Node62 -->
<g id="node23" class="node">
<title>Node62</title>
<g id="a_node23"><a xlink:href="_kw_s_s_t_src_8cpp.html" target="_top" xlink:title=" ">
<polygon fill="white" stroke="black" points="2252.5,-112.5 2252.5,-131.5 2337.5,-131.5 2337.5,-112.5 2252.5,-112.5"/>
<text text-anchor="middle" x="2295" y="-119.5" font-family="Helvetica,sans-Serif" font-size="10.00">KwSSTSrc.cpp</text>
</a>
</g>
</g>
<!-- Node5&#45;&gt;Node62 -->
<g id="edge23" class="edge">
<title>Node5&#45;&gt;Node62</title>
<path fill="none" stroke="midnightblue" d="M2180.92,-164.91C2208.56,-154.75 2247.34,-140.51 2271.82,-131.52"/>
<polygon fill="midnightblue" stroke="midnightblue" points="2179.47,-161.71 2171.29,-168.44 2181.89,-168.28 2179.47,-161.71"/>
</g>
<!-- Node5&#45;&gt;Node63 -->
<g id="edge24" class="edge">
<title>Node5&#45;&gt;Node63</title>
<path fill="none" stroke="midnightblue" d="M2191.16,-176.13C2365.74,-172.57 3019.19,-158.12 3225,-132 3232.4,-131.06 3240.42,-129.48 3248,-127.91"/>
<polygon fill="midnightblue" stroke="midnightblue" points="2191,-172.63 2181.07,-176.33 2191.14,-179.63 2191,-172.63"/>
</g>
<!-- Node65 -->
<g id="node25" class="node">
<title>Node65</title>
<g id="a_node25"><a xlink:href="_i_b_8cpp.html" target="_top" xlink:title=" ">
<polygon fill="white" stroke="black" points="2355.5,-112.5 2355.5,-131.5 2402.5,-131.5 2402.5,-112.5 2355.5,-112.5"/>
<text text-anchor="middle" x="2379" y="-119.5" font-family="Helvetica,sans-Serif" font-size="10.00">IB.cpp</text>
</a>
</g>
</g>
<!-- Node5&#45;&gt;Node65 -->
<g id="edge26" class="edge">
<title>Node5&#45;&gt;Node65</title>
<path fill="none" stroke="midnightblue" d="M2191.01,-167.95C2231.42,-159.28 2293.51,-145.56 2347,-132 2349.69,-131.32 2352.49,-130.58 2355.27,-129.82"/>
<polygon fill="midnightblue" stroke="midnightblue" points="2190.27,-164.53 2181.22,-170.04 2191.73,-171.37 2190.27,-164.53"/>
</g>
<!-- Node66 -->
<g id="node26" class="node">
<title>Node66</title>
<g id="a_node26"><a xlink:href="_i_b_ops_8_h.html" target="_top" xlink:title=" ">
<polygon fill="white" stroke="red" points="2421,-112.5 2421,-131.5 2477,-131.5 2477,-112.5 2421,-112.5"/>
<text text-anchor="middle" x="2449" y="-119.5" font-family="Helvetica,sans-Serif" font-size="10.00">IBOps.H</text>
</a>
</g>
</g>
<!-- Node5&#45;&gt;Node66 -->
<g id="edge27" class="edge">
<title>Node5&#45;&gt;Node66</title>
<path fill="none" stroke="midnightblue" d="M2191.01,-170.61C2243.41,-162.61 2334.52,-148.01 2412,-132 2414.85,-131.41 2417.81,-130.76 2420.76,-130.08"/>
<polygon fill="midnightblue" stroke="midnightblue" points="2190.43,-167.16 2181.06,-172.12 2191.48,-174.08 2190.43,-167.16"/>
</g>
<!-- Node5&#45;&gt;Node76 -->
<g id="edge28" class="edge">
<title>Node5&#45;&gt;Node76</title>
<path fill="none" stroke="midnightblue" d="M2191.44,-176.74C2389.05,-175.34 3204.38,-167.51 3457,-132 3460.06,-131.57 3463.24,-130.98 3466.39,-130.32"/>
<polygon fill="midnightblue" stroke="midnightblue" points="2191.14,-173.24 2181.16,-176.81 2191.19,-180.24 2191.14,-173.24"/>
</g>
<!-- Node88 -->
<g id="node28" class="node">
<title>Node88</title>
<g id="a_node28"><a xlink:href="_ocean_waves_8cpp.html" target="_top" xlink:title=" ">
<polygon fill="white" stroke="black" points="2495,-112.5 2495,-131.5 2595,-131.5 2595,-112.5 2495,-112.5"/>
<text text-anchor="middle" x="2545" y="-119.5" font-family="Helvetica,sans-Serif" font-size="10.00">OceanWaves.cpp</text>
</a>
</g>
</g>
<!-- Node5&#45;&gt;Node88 -->
<g id="edge29" class="edge">
<title>Node5&#45;&gt;Node88</title>
<path fill="none" stroke="midnightblue" d="M2191.3,-171.5C2255.64,-163.27 2380.25,-147.1 2486,-132 2488.87,-131.59 2491.82,-131.16 2494.8,-130.72"/>
<polygon fill="midnightblue" stroke="midnightblue" points="2190.61,-168.06 2181.13,-172.8 2191.5,-175.01 2190.61,-168.06"/>
</g>
<!-- Node89 -->
<g id="node29" class="node">
<title>Node89</title>
<g id="a_node29"><a xlink:href="_ocean_waves_ops_8_h.html" target="_top" xlink:title=" ">
<polygon fill="white" stroke="red" points="2613.5,-112.5 2613.5,-131.5 2722.5,-131.5 2722.5,-112.5 2613.5,-112.5"/>
<text text-anchor="middle" x="2668" y="-119.5" font-family="Helvetica,sans-Serif" font-size="10.00">OceanWavesOps.H</text>
</a>
</g>
</g>
<!-- Node5&#45;&gt;Node89 -->
<g id="edge30" class="edge">
<title>Node5&#45;&gt;Node89</title>
<path fill="none" stroke="midnightblue" d="M2191.57,-173.3C2272.79,-166.28 2452.81,-150.08 2604,-132 2607.01,-131.64 2610.09,-131.26 2613.21,-130.86"/>
<polygon fill="midnightblue" stroke="midnightblue" points="2190.9,-169.85 2181.24,-174.19 2191.5,-176.82 2190.9,-169.85"/>
</g>
<!-- Node97 -->
<g id="node30" class="node">
<title>Node97</title>
<g id="a_node30"><a xlink:href="_tioga_interface_8cpp.html" target="_top" xlink:title=" ">
<polygon fill="white" stroke="black" points="2740.5,-112.5 2740.5,-131.5 2847.5,-131.5 2847.5,-112.5 2740.5,-112.5"/>
<text text-anchor="middle" x="2794" y="-119.5" font-family="Helvetica,sans-Serif" font-size="10.00">TiogaInterface.cpp</text>
</a>
</g>
</g>
<!-- Node5&#45;&gt;Node97 -->
<g id="edge31" class="edge">
<title>Node5&#45;&gt;Node97</title>
<path fill="none" stroke="midnightblue" d="M2190.99,-174.68C2287.79,-169.24 2530.14,-154.4 2732,-132 2734.7,-131.7 2737.47,-131.37 2740.26,-131.03"/>
<polygon fill="midnightblue" stroke="midnightblue" points="2190.79,-171.19 2181,-175.24 2191.18,-178.17 2190.79,-171.19"/>
</g>
<!-- Node98 -->
<g id="node31" class="node">
<title>Node98</title>
<g id="a_node31"><a xlink:href="_boussinesq_bubble_8cpp.html" target="_top" xlink:title=" ">
<polygon fill="white" stroke="black" points="2866,-112.5 2866,-131.5 2992,-131.5 2992,-112.5 2866,-112.5"/>
<text text-anchor="middle" x="2929" y="-119.5" font-family="Helvetica,sans-Serif" font-size="10.00">BoussinesqBubble.cpp</text>
</a>
</g>
</g>
<!-- Node5&#45;&gt;Node98 -->
<g id="edge32" class="edge">
<title>Node5&#45;&gt;Node98</title>
<path fill="none" stroke="midnightblue" d="M2191.41,-175.17C2302.38,-170.28 2605.4,-155.69 2857,-132 2859.88,-131.73 2862.83,-131.43 2865.81,-131.12"/>
<polygon fill="midnightblue" stroke="midnightblue" points="2191.12,-171.68 2181.28,-175.61 2191.42,-178.67 2191.12,-171.68"/>
</g>
<!-- Node99 -->
<g id="node32" class="node">
<title>Node99</title>
<g id="a_node32"><a xlink:href="_channel_flow_8cpp.html" target="_top" xlink:title=" ">
<polygon fill="white" stroke="black" points="1968.5,-56.5 1968.5,-75.5 2067.5,-75.5 2067.5,-56.5 1968.5,-56.5"/>
<text text-anchor="middle" x="2018" y="-63.5" font-family="Helvetica,sans-Serif" font-size="10.00">ChannelFlow.cpp</text>
</a>
</g>
</g>
<!-- Node5&#45;&gt;Node99 -->
<g id="edge33" class="edge">
<title>Node5&#45;&gt;Node99</title>
<path fill="none" stroke="midnightblue" d="M2104.89,-171.12C2061.4,-164.21 1998.63,-151.18 1984,-132 1969.95,-113.57 1993.06,-88.49 2007.6,-75.53"/>
<polygon fill="midnightblue" stroke="midnightblue" points="2104.53,-174.61 2114.95,-172.67 2105.59,-167.69 2104.53,-174.61"/>
</g>
<!-- Node100 -->
<g id="node33" class="node">
<title>Node100</title>
<g id="a_node33"><a xlink:href="_channel_flow_8_h.html" target="_top" xlink:title=" ">
<polygon fill="white" stroke="black" points="1992.5,-112.5 1992.5,-131.5 2081.5,-131.5 2081.5,-112.5 1992.5,-112.5"/>
<text text-anchor="middle" x="2037" y="-119.5" font-family="Helvetica,sans-Serif" font-size="10.00">ChannelFlow.H</text>
</a>
</g>
</g>
<!-- Node5&#45;&gt;Node100 -->
<g id="edge34" class="edge">
<title>Node5&#45;&gt;Node100</title>
<path fill="none" stroke="midnightblue" d="M2120.99,-163.86C2100.41,-153.85 2072.66,-140.35 2054.79,-131.65"/>
<polygon fill="midnightblue" stroke="midnightblue" points="2119.64,-167.1 2130.17,-168.32 2122.7,-160.8 2119.64,-167.1"/>
</g>
<!-- Node101 -->
<g id="node34" class="node">
<title>Node101</title>
<g id="a_node34"><a xlink:href="_convecting_taylor_vortex_8cpp.html" target="_top" xlink:title=" ">
<polygon fill="white" stroke="black" points="2960,-56.5 2960,-75.5 3112,-75.5 3112,-56.5 2960,-56.5"/>
<text text-anchor="middle" x="3036" y="-63.5" font-family="Helvetica,sans-Serif" font-size="10.00">ConvectingTaylorVortex.cpp</text>
</a>
</g>
</g>
<!-- Node5&#45;&gt;Node101 -->
<g id="edge36" class="edge">
<title>Node5&#45;&gt;Node101</title>
<path fill="none" stroke="midnightblue" d="M2191.58,-177.17C2355.94,-177.5 2932.36,-175.49 3001,-132 3021.35,-119.1 3030.69,-90.09 3034.21,-75.59"/>
<polygon fill="midnightblue" stroke="midnightblue" points="2191.37,-173.67 2181.36,-177.15 2191.36,-180.67 2191.37,-173.67"/>
</g>
<!-- Node102 -->
<g id="node35" class="node">
<title>Node102</title>
<g id="a_node35"><a xlink:href="_convecting_taylor_vortex_8_h.html" target="_top" xlink:title=" ">
<polygon fill="white" stroke="red" points="3048.5,-112.5 3048.5,-131.5 3191.5,-131.5 3191.5,-112.5 3048.5,-112.5"/>
<text text-anchor="middle" x="3120" y="-119.5" font-family="Helvetica,sans-Serif" font-size="10.00">ConvectingTaylorVortex.H</text>
</a>
</g>
</g>
<!-- Node5&#45;&gt;Node102 -->
<g id="edge37" class="edge">
<title>Node5&#45;&gt;Node102</title>
<path fill="none" stroke="midnightblue" d="M2191.24,-175.62C2319.76,-171.36 2710.64,-157.11 3034,-132 3038.64,-131.64 3043.42,-131.23 3048.23,-130.8"/>
<polygon fill="midnightblue" stroke="midnightblue" points="2190.91,-172.13 2181.03,-175.96 2191.14,-179.13 2190.91,-172.13"/>
</g>
<!-- Node103 -->
<g id="node36" class="node">
<title>Node103</title>
<g id="a_node36"><a xlink:href="_ekman_spiral_8cpp.html" target="_top" xlink:title=" ">
<polygon fill="white" stroke="black" points="788,-112.5 788,-131.5 886,-131.5 886,-112.5 788,-112.5"/>
<text text-anchor="middle" x="837" y="-119.5" font-family="Helvetica,sans-Serif" font-size="10.00">EkmanSpiral.cpp</text>
</a>
</g>
</g>
<!-- Node5&#45;&gt;Node103 -->
<g id="edge39" class="edge">
<title>Node5&#45;&gt;Node103</title>
<path fill="none" stroke="midnightblue" d="M2104.74,-174.99C2063.06,-173.09 1998.22,-170.19 1942,-168 1476.75,-149.84 1358.55,-175.78 895,-132 892.16,-131.73 889.25,-131.41 886.31,-131.06"/>
<polygon fill="midnightblue" stroke="midnightblue" points="2104.67,-178.49 2114.82,-175.46 2104.99,-171.5 2104.67,-178.49"/>
</g>
<!-- Node5&#45;&gt;Node56 -->
<g id="edge40" class="edge">
<title>Node5&#45;&gt;Node56</title>
<path fill="none" stroke="midnightblue" d="M2191.13,-176.37C2394.62,-173.26 3260.05,-158.68 3529,-132 3531.74,-131.73 3534.56,-131.4 3537.39,-131.04"/>
<polygon fill="midnightblue" stroke="midnightblue" points="2191.07,-172.87 2181.12,-176.52 2191.17,-179.87 2191.07,-172.87"/>
</g>
<!-- Node5&#45;&gt;Node143 -->
<g id="edge41" class="edge">
<title>Node5&#45;&gt;Node143</title>
<path fill="none" stroke="midnightblue" d="M2191.86,-176.66C2345.93,-175.18 2876.63,-167.64 3313,-132 3315.89,-131.76 3318.84,-131.5 3321.82,-131.21"/>
<polygon fill="midnightblue" stroke="midnightblue" points="2191.39,-173.16 2181.43,-176.76 2191.46,-180.16 2191.39,-173.16"/>
</g>
<!-- Node5&#45;&gt;Node157 -->
<g id="edge46" class="edge">
<title>Node5&#45;&gt;Node157</title>
<path fill="none" stroke="midnightblue" d="M2191.12,-176.94C2369.41,-176.45 3066.57,-171.93 3638,-132 3640.86,-131.8 3643.77,-131.58 3646.71,-131.33"/>
<polygon fill="midnightblue" stroke="midnightblue" points="2191.07,-173.44 2181.08,-176.97 2191.09,-180.44 2191.07,-173.44"/>
</g>
<!-- Node5&#45;&gt;Node213 -->
<g id="edge47" class="edge">
<title>Node5&#45;&gt;Node213</title>
<path fill="none" stroke="midnightblue" d="M2191.33,-176.73C2418.73,-175.16 3476.3,-166.14 3802,-132 3804.92,-131.69 3807.94,-131.31 3810.96,-130.87"/>
<polygon fill="midnightblue" stroke="midnightblue" points="2191.11,-173.23 2181.13,-176.8 2191.15,-180.23 2191.11,-173.23"/>
</g>
<!-- Node50&#45;&gt;Node19 -->
<g id="edge20" class="edge">
<title>Node50&#45;&gt;Node19</title>
<path fill="none" stroke="midnightblue" d="M531.09,-52.5C555.46,-42.38 589.14,-28.39 610.5,-19.52"/>
<polygon fill="midnightblue" stroke="midnightblue" points="529.49,-49.38 521.6,-56.44 532.18,-55.84 529.49,-49.38"/>
</g>
<!-- Node63&#45;&gt;Node5 -->
<g id="edge25" class="edge">
<title>Node63&#45;&gt;Node5</title>
<path fill="none" stroke="midnightblue" d="M3237.76,-132.54C3009.77,-159.41 2338.55,-173.54 2181.2,-176.44"/>
<polygon fill="midnightblue" stroke="midnightblue" points="3238.45,-135.98 3247.95,-131.29 3237.6,-129.04 3238.45,-135.98"/>
</g>
<!-- Node100&#45;&gt;Node99 -->
<g id="edge35" class="edge">
<title>Node100&#45;&gt;Node99</title>
<path fill="none" stroke="midnightblue" d="M2030.45,-102.4C2027.28,-93.36 2023.61,-82.94 2021.08,-75.75"/>
<polygon fill="midnightblue" stroke="midnightblue" points="2027.24,-103.81 2033.86,-112.08 2033.85,-101.49 2027.24,-103.81"/>
</g>
<!-- Node102&#45;&gt;Node101 -->
<g id="edge38" class="edge">
<title>Node102&#45;&gt;Node101</title>
<path fill="none" stroke="midnightblue" d="M3098.07,-106.9C3082.66,-97 3062.55,-84.07 3049.46,-75.65"/>
<polygon fill="midnightblue" stroke="midnightblue" points="3096.2,-109.86 3106.5,-112.32 3099.98,-103.97 3096.2,-109.86"/>
</g>
<!-- Node143&#45;&gt;Node153 -->
<g id="edge42" class="edge">
<title>Node143&#45;&gt;Node153</title>
<path fill="none" stroke="midnightblue" d="M3340.97,-109.99C3295.88,-98.72 3227.53,-81.63 3192.11,-72.78"/>
<polygon fill="midnightblue" stroke="midnightblue" points="3340.22,-113.41 3350.77,-112.44 3341.92,-106.62 3340.22,-113.41"/>
</g>
<!-- Node153&#45;&gt;Node8 -->
<g id="edge43" class="edge">
<title>Node153&#45;&gt;Node8</title>
<path fill="none" stroke="midnightblue" d="M3135.79,-58.11C3130.85,-57.28 3125.8,-56.54 3121,-56 2891.98,-30.36 2161.51,-15.35 1971.52,-11.81"/>
<polygon fill="midnightblue" stroke="midnightblue" points="3135.2,-61.57 3145.67,-59.91 3136.45,-54.68 3135.2,-61.57"/>
</g>
<!-- Node153&#45;&gt;Node9 -->
<g id="edge44" class="edge">
<title>Node153&#45;&gt;Node9</title>
<path fill="none" stroke="midnightblue" d="M3135.76,-58.32C3130.82,-57.46 3125.79,-56.65 3121,-56 2956.52,-33.66 2761.72,-20.5 2660.27,-14.65"/>
<polygon fill="midnightblue" stroke="midnightblue" points="3135.17,-61.77 3145.64,-60.13 3136.43,-54.88 3135.17,-61.77"/>
</g>
<!-- Node153&#45;&gt;Node17 -->
<g id="edge45" class="edge">
<title>Node153&#45;&gt;Node17</title>
<path fill="none" stroke="midnightblue" d="M3177.34,-46.98C3181.58,-37.82 3186.55,-27.09 3189.95,-19.75"/>
<polygon fill="midnightblue" stroke="midnightblue" points="3174.15,-45.54 3173.13,-56.08 3180.51,-48.48 3174.15,-45.54"/>
</g>
<!-- Node215&#45;&gt;Node2 -->
<g id="edge50" class="edge">
<title>Node215&#45;&gt;Node2</title>
<path fill="none" stroke="midnightblue" d="M113.19,-163.18C96.08,-153.24 73.53,-140.15 58.9,-131.65"/>
<polygon fill="midnightblue" stroke="midnightblue" points="111.65,-166.33 122.06,-168.32 115.17,-160.28 111.65,-166.33"/>
</g>
<!-- Node215&#45;&gt;Node214 -->
<g id="edge51" class="edge">
<title>Node215&#45;&gt;Node214</title>
<path fill="none" stroke="midnightblue" d="M136.64,-157.8C136.48,-148.91 136.29,-138.78 136.16,-131.75"/>
<polygon fill="midnightblue" stroke="midnightblue" points="133.15,-158.15 136.83,-168.08 140.15,-158.02 133.15,-158.15"/>
</g>
<!-- Node215&#45;&gt;Node216 -->
<g id="edge52" class="edge">
<title>Node215&#45;&gt;Node216</title>
<path fill="none" stroke="midnightblue" d="M160.24,-162.9C176.56,-153 197.87,-140.07 211.74,-131.65"/>
<polygon fill="midnightblue" stroke="midnightblue" points="158.03,-160.14 151.3,-168.32 161.66,-166.13 158.03,-160.14"/>
</g>
<!-- Node216&#45;&gt;Node49 -->
<g id="edge53" class="edge">
<title>Node216&#45;&gt;Node49</title>
<path fill="none" stroke="midnightblue" d="M278.18,-112.58C279.46,-112.38 280.74,-112.19 282,-112 397.37,-94.74 426.79,-94.34 542,-76 545.22,-75.49 548.56,-74.93 551.91,-74.36"/>
<polygon fill="midnightblue" stroke="midnightblue" points="277.53,-109.13 268.18,-114.12 278.6,-116.05 277.53,-109.13"/>
</g>
<!-- Node216&#45;&gt;Node50 -->
<g id="edge54" class="edge">
<title>Node216&#45;&gt;Node50</title>
<path fill="none" stroke="midnightblue" d="M278.14,-110.76C334.15,-99.76 421.43,-82.63 468.41,-73.4"/>
<polygon fill="midnightblue" stroke="midnightblue" points="277.2,-107.38 268.07,-112.74 278.55,-114.25 277.2,-107.38"/>
</g>
<!-- Node218&#45;&gt;Node8 -->
<g id="edge57" class="edge">
<title>Node218&#45;&gt;Node8</title>
<path fill="none" stroke="midnightblue" d="M741.77,-62.78C943.6,-53.95 1687.54,-21.43 1880.2,-13"/>
<polygon fill="midnightblue" stroke="midnightblue" points="741.58,-59.29 731.74,-63.22 741.88,-66.28 741.58,-59.29"/>
</g>
<!-- Node219&#45;&gt;Node10 -->
<g id="edge59" class="edge">
<title>Node219&#45;&gt;Node10</title>
<path fill="none" stroke="midnightblue" d="M510.26,-165.3C479.17,-155.13 434.85,-140.62 407.02,-131.52"/>
<polygon fill="midnightblue" stroke="midnightblue" points="509.26,-168.66 519.86,-168.44 511.44,-162.01 509.26,-168.66"/>
</g>
<!-- Node220&#45;&gt;Node11 -->
<g id="edge61" class="edge">
<title>Node220&#45;&gt;Node11</title>
<path fill="none" stroke="midnightblue" d="M1338.36,-176.3C1208.79,-174.06 849.81,-165.09 553,-132 550.12,-131.68 547.17,-131.3 544.19,-130.89"/>
<polygon fill="midnightblue" stroke="midnightblue" points="1338.68,-179.81 1348.74,-176.48 1338.8,-172.81 1338.68,-179.81"/>
</g>
<!-- Node221&#45;&gt;Node15 -->
<g id="edge63" class="edge">
<title>Node221&#45;&gt;Node15</title>
<path fill="none" stroke="midnightblue" d="M1801.09,-176.07C1619.23,-173.29 1121.44,-163.21 708,-132 703.4,-131.65 698.66,-131.25 693.89,-130.8"/>
<polygon fill="midnightblue" stroke="midnightblue" points="1801.27,-179.57 1811.32,-176.22 1801.38,-172.57 1801.27,-179.57"/>
</g>
</g>
</svg>
