<?xml version="1.0" encoding="UTF-8" standalone="no"?>
<!DOCTYPE svg PUBLIC "-//W3C//DTD SVG 1.1//EN"
 "http://www.w3.org/Graphics/SVG/1.1/DTD/svg11.dtd">
<!-- Generated by graphviz version 2.43.0 (0)
 -->
<!-- Title: UDF.cpp Pages: 1 -->
<!--zoomable 274 -->
<svg id="main" version="1.1" xmlns="http://www.w3.org/2000/svg" xmlns:xlink="http://www.w3.org/1999/xlink" xml:space="preserve" onload="init(evt)">
<style type="text/css"><![CDATA[
.edge:hover path { stroke: red; }
.edge:hover polygon { stroke: red; fill: red; }
]]></style>
<script type="text/javascript"><![CDATA[
var edges = document.getElementsByTagName('g');
if (edges && edges.length) {
  for (var i=0;i<edges.length;i++) {
    if (edges[i].id.substr(0,4)=='edge') {
      edges[i].setAttribute('class','edge');
    }
  }
}
]]></script>
        <defs>
                <circle id="rim" cx="0" cy="0" r="7"/>
                <circle id="rim2" cx="0" cy="0" r="3.5"/>
                <g id="zoomPlus">
                        <use xlink:href="#rim" fill="#404040">
                                <set attributeName="fill" to="#808080" begin="zoomplus.mouseover" end="zoomplus.mouseout"/>
                        </use>
                        <path d="M-4,0h8M0,-4v8" fill="none" stroke="white" stroke-width="1.5" pointer-events="none"/>
                </g>
                <g id="zoomMin">
                        <use xlink:href="#rim" fill="#404040">
                                <set attributeName="fill" to="#808080" begin="zoomminus.mouseover" end="zoomminus.mouseout"/>
                        </use>
                        <path d="M-4,0h8" fill="none" stroke="white" stroke-width="1.5" pointer-events="none"/>
                </g>
                <g id="dirArrow">
                        <path fill="none" stroke="white" stroke-width="1.5" d="M0,-3.0v7 M-2.5,-0.5L0,-3.0L2.5,-0.5"/>
                </g>
               <g id="resetDef">
                       <use xlink:href="#rim2" fill="#404040">
                               <set attributeName="fill" to="#808080" begin="reset.mouseover" end="reset.mouseout"/>
                       </use>
               </g>
        </defs>

<script type="text/javascript">
var viewWidth = 2248;
var viewHeight = 274;
var sectionId = 'dynsection-0';
</script>
<script xlink:href="svgpan.js"/>
<svg id="graph" class="graph">
<g id="viewport">
<title>UDF.cpp</title>
<polygon fill="white" stroke="transparent" points="-4,4 -4,-270 2243.64,-270 2243.64,4 -4,4"/>
<!-- Node1 -->
<g id="node1" class="node">
<title>Node1</title>
<g id="a_node1"><a xlink:title=" ">
<polygon fill="#bfbfbf" stroke="black" points="1793.14,-246.5 1793.14,-265.5 1849.14,-265.5 1849.14,-246.5 1793.14,-246.5"/>
<text text-anchor="middle" x="1821.14" y="-253.5" font-family="Helvetica,sans-Serif" font-size="10.00">UDF.cpp</text>
</a>
</g>
</g>
<!-- Node2 -->
<g id="node2" class="node">
<title>Node2</title>
<g id="a_node2"><a xlink:href="_u_d_f_8_h.html" target="_top" xlink:title=" ">
<polygon fill="white" stroke="black" points="1685.64,-179.5 1685.64,-209.5 1812.64,-209.5 1812.64,-179.5 1685.64,-179.5"/>
<text text-anchor="start" x="1693.64" y="-197.5" font-family="Helvetica,sans-Serif" font-size="10.00">amr&#45;wind/physics/udfs</text>
<text text-anchor="middle" x="1749.14" y="-186.5" font-family="Helvetica,sans-Serif" font-size="10.00">/UDF.H</text>
</a>
</g>
</g>
<!-- Node1&#45;&gt;Node2 -->
<g id="edge1" class="edge">
<title>Node1&#45;&gt;Node2</title>
<path fill="none" stroke="midnightblue" d="M1810.82,-246.48C1801.25,-238.57 1786.63,-226.48 1774.03,-216.07"/>
<polygon fill="midnightblue" stroke="midnightblue" points="1776.05,-213.2 1766.11,-209.52 1771.59,-218.59 1776.05,-213.2"/>
</g>
<!-- Node10 -->
<g id="node10" class="node">
<title>Node10</title>
<g id="a_node10"><a xlink:href="_field_8_h.html" target="_top" xlink:title=" ">
<polygon fill="white" stroke="black" points="1371.14,-118 1371.14,-137 1495.14,-137 1495.14,-118 1371.14,-118"/>
<text text-anchor="middle" x="1433.14" y="-125" font-family="Helvetica,sans-Serif" font-size="10.00">amr&#45;wind/core/Field.H</text>
</a>
</g>
</g>
<!-- Node1&#45;&gt;Node10 -->
<g id="edge9" class="edge">
<title>Node1&#45;&gt;Node10</title>
<path fill="none" stroke="midnightblue" d="M1793.01,-246.48C1763.75,-237.56 1716.65,-223.08 1676.14,-210 1601.58,-185.93 1514.62,-156.41 1467.6,-140.33"/>
<polygon fill="midnightblue" stroke="midnightblue" points="1468.51,-136.94 1457.91,-137.02 1466.24,-143.57 1468.51,-136.94"/>
</g>
<!-- Node19 -->
<g id="node19" class="node">
<title>Node19</title>
<g id="a_node19"><a xlink:href="_field_repo_8_h.html" target="_top" xlink:title=" ">
<polygon fill="white" stroke="black" points="700.64,-185 700.64,-204 849.64,-204 849.64,-185 700.64,-185"/>
<text text-anchor="middle" x="775.14" y="-192" font-family="Helvetica,sans-Serif" font-size="10.00">amr&#45;wind/core/FieldRepo.H</text>
</a>
</g>
</g>
<!-- Node1&#45;&gt;Node19 -->
<g id="edge24" class="edge">
<title>Node1&#45;&gt;Node19</title>
<path fill="none" stroke="midnightblue" d="M1792.89,-253.39C1658.28,-245.74 1079.42,-212.81 859.95,-200.32"/>
<polygon fill="midnightblue" stroke="midnightblue" points="859.95,-196.82 849.77,-199.75 859.56,-203.81 859.95,-196.82"/>
</g>
<!-- Node29 -->
<g id="node29" class="node">
<title>Node29</title>
<g id="a_node29"><a xlink:href="_linear_profile_8_h.html" target="_top" xlink:title=" ">
<polygon fill="white" stroke="black" points="1830.64,-179.5 1830.64,-209.5 1957.64,-209.5 1957.64,-179.5 1830.64,-179.5"/>
<text text-anchor="start" x="1838.64" y="-197.5" font-family="Helvetica,sans-Serif" font-size="10.00">amr&#45;wind/physics/udfs</text>
<text text-anchor="middle" x="1894.14" y="-186.5" font-family="Helvetica,sans-Serif" font-size="10.00">/LinearProfile.H</text>
</a>
</g>
</g>
<!-- Node1&#45;&gt;Node29 -->
<g id="edge56" class="edge">
<title>Node1&#45;&gt;Node29</title>
<path fill="none" stroke="midnightblue" d="M1831.6,-246.48C1841.3,-238.57 1856.12,-226.48 1868.9,-216.07"/>
<polygon fill="midnightblue" stroke="midnightblue" points="1871.39,-218.55 1876.93,-209.52 1866.97,-213.13 1871.39,-218.55"/>
</g>
<!-- Node31 -->
<g id="node31" class="node">
<title>Node31</title>
<g id="a_node31"><a xlink:href="_power_law_profile_8_h.html" target="_top" xlink:title=" ">
<polygon fill="white" stroke="black" points="1975.64,-179.5 1975.64,-209.5 2102.64,-209.5 2102.64,-179.5 1975.64,-179.5"/>
<text text-anchor="start" x="1983.64" y="-197.5" font-family="Helvetica,sans-Serif" font-size="10.00">amr&#45;wind/physics/udfs</text>
<text text-anchor="middle" x="2039.14" y="-186.5" font-family="Helvetica,sans-Serif" font-size="10.00">/PowerLawProfile.H</text>
</a>
</g>
</g>
<!-- Node1&#45;&gt;Node31 -->
<g id="edge59" class="edge">
<title>Node1&#45;&gt;Node31</title>
<path fill="none" stroke="midnightblue" d="M1849.19,-247.34C1881.45,-238.54 1935.38,-223.82 1977.55,-212.31"/>
<polygon fill="midnightblue" stroke="midnightblue" points="1978.72,-215.62 1987.44,-209.61 1976.88,-208.87 1978.72,-215.62"/>
</g>
<!-- Node32 -->
<g id="node32" class="node">
<title>Node32</title>
<g id="a_node32"><a xlink:title=" ">
<polygon fill="white" stroke="#bfbfbf" points="2120.64,-185 2120.64,-204 2239.64,-204 2239.64,-185 2120.64,-185"/>
<text text-anchor="middle" x="2180.14" y="-192" font-family="Helvetica,sans-Serif" font-size="10.00">AMReX_ParmParse.H</text>
</a>
</g>
</g>
<!-- Node1&#45;&gt;Node32 -->
<g id="edge62" class="edge">
<title>Node1&#45;&gt;Node32</title>
<path fill="none" stroke="midnightblue" d="M1849.22,-251.15C1901.09,-243.92 2015.41,-227.47 2111.14,-210 2117.69,-208.8 2124.58,-207.46 2131.36,-206.09"/>
<polygon fill="midnightblue" stroke="midnightblue" points="2132.08,-209.51 2141.16,-204.07 2130.66,-202.66 2132.08,-209.51"/>
</g>
<!-- Node3 -->
<g id="node3" class="node">
<title>Node3</title>
<g id="a_node3"><a xlink:href="_factory_8_h.html" target="_top" xlink:title=" ">
<polygon fill="white" stroke="black" points="1683.14,-118 1683.14,-137 1817.14,-137 1817.14,-118 1683.14,-118"/>
<text text-anchor="middle" x="1750.14" y="-125" font-family="Helvetica,sans-Serif" font-size="10.00">amr&#45;wind/core/Factory.H</text>
</a>
</g>
</g>
<!-- Node2&#45;&gt;Node3 -->
<g id="edge2" class="edge">
<title>Node2&#45;&gt;Node3</title>
<path fill="none" stroke="midnightblue" d="M1749.36,-179.4C1749.5,-170.06 1749.69,-157.71 1749.85,-147.52"/>
<polygon fill="midnightblue" stroke="midnightblue" points="1753.35,-147.25 1750,-137.19 1746.35,-147.14 1753.35,-147.25"/>
</g>
<!-- Node9 -->
<g id="node9" class="node">
<title>Node9</title>
<g id="a_node9"><a xlink:title=" ">
<polygon fill="white" stroke="#bfbfbf" points="2002.64,-56.5 2002.64,-75.5 2089.64,-75.5 2089.64,-56.5 2002.64,-56.5"/>
<text text-anchor="middle" x="2046.14" y="-63.5" font-family="Helvetica,sans-Serif" font-size="10.00">AMReX_Gpu.H</text>
</a>
</g>
</g>
<!-- Node2&#45;&gt;Node9 -->
<g id="edge8" class="edge">
<title>Node2&#45;&gt;Node9</title>
<path fill="none" stroke="midnightblue" d="M1770.13,-179.44C1797.32,-161.74 1846.63,-131.3 1892.14,-112 1926.47,-97.44 1967,-85.8 1997.87,-78.01"/>
<polygon fill="midnightblue" stroke="midnightblue" points="1999.08,-81.32 2007.94,-75.52 1997.39,-74.52 1999.08,-81.32"/>
</g>
<!-- Node4 -->
<g id="node4" class="node">
<title>Node4</title>
<g id="a_node4"><a xlink:title=" ">
<polygon fill="white" stroke="#bfbfbf" points="1548.14,-56.5 1548.14,-75.5 1606.14,-75.5 1606.14,-56.5 1548.14,-56.5"/>
<text text-anchor="middle" x="1577.14" y="-63.5" font-family="Helvetica,sans-Serif" font-size="10.00">memory</text>
</a>
</g>
</g>
<!-- Node3&#45;&gt;Node4 -->
<g id="edge3" class="edge">
<title>Node3&#45;&gt;Node4</title>
<path fill="none" stroke="midnightblue" d="M1725.35,-117.98C1695.55,-107.72 1645.35,-90.46 1611.74,-78.9"/>
<polygon fill="midnightblue" stroke="midnightblue" points="1612.47,-75.45 1601.88,-75.51 1610.2,-82.07 1612.47,-75.45"/>
</g>
<!-- Node5 -->
<g id="node5" class="node">
<title>Node5</title>
<g id="a_node5"><a xlink:title=" ">
<polygon fill="white" stroke="#bfbfbf" points="1624.64,-56.5 1624.64,-75.5 1717.64,-75.5 1717.64,-56.5 1624.64,-56.5"/>
<text text-anchor="middle" x="1671.14" y="-63.5" font-family="Helvetica,sans-Serif" font-size="10.00">unordered_map</text>
</a>
</g>
</g>
<!-- Node3&#45;&gt;Node5 -->
<g id="edge4" class="edge">
<title>Node3&#45;&gt;Node5</title>
<path fill="none" stroke="midnightblue" d="M1738.82,-117.98C1726.27,-108.52 1705.79,-93.1 1690.64,-81.69"/>
<polygon fill="midnightblue" stroke="midnightblue" points="1692.53,-78.73 1682.44,-75.51 1688.32,-84.32 1692.53,-78.73"/>
</g>
<!-- Node6 -->
<g id="node6" class="node">
<title>Node6</title>
<g id="a_node6"><a xlink:title=" ">
<polygon fill="white" stroke="#bfbfbf" points="1816.14,-56.5 1816.14,-75.5 1876.14,-75.5 1876.14,-56.5 1816.14,-56.5"/>
<text text-anchor="middle" x="1846.14" y="-63.5" font-family="Helvetica,sans-Serif" font-size="10.00">iostream</text>
</a>
</g>
</g>
<!-- Node3&#45;&gt;Node6 -->
<g id="edge5" class="edge">
<title>Node3&#45;&gt;Node6</title>
<path fill="none" stroke="midnightblue" d="M1763.89,-117.98C1779.51,-108.3 1805.2,-92.37 1823.72,-80.89"/>
<polygon fill="midnightblue" stroke="midnightblue" points="1825.75,-83.75 1832.41,-75.51 1822.07,-77.8 1825.75,-83.75"/>
</g>
<!-- Node7 -->
<g id="node7" class="node">
<title>Node7</title>
<g id="a_node7"><a xlink:title=" ">
<polygon fill="white" stroke="#bfbfbf" points="1894.14,-56.5 1894.14,-75.5 1984.14,-75.5 1984.14,-56.5 1894.14,-56.5"/>
<text text-anchor="middle" x="1939.14" y="-63.5" font-family="Helvetica,sans-Serif" font-size="10.00">AMReX_Print.H</text>
</a>
</g>
</g>
<!-- Node3&#45;&gt;Node7 -->
<g id="edge6" class="edge">
<title>Node3&#45;&gt;Node7</title>
<path fill="none" stroke="midnightblue" d="M1777.22,-117.98C1810.06,-107.64 1865.57,-90.16 1902.29,-78.6"/>
<polygon fill="midnightblue" stroke="midnightblue" points="1903.62,-81.85 1912.11,-75.51 1901.52,-75.17 1903.62,-81.85"/>
</g>
<!-- Node8 -->
<g id="node8" class="node">
<title>Node8</title>
<g id="a_node8"><a xlink:title=" ">
<polygon fill="white" stroke="#bfbfbf" points="1736.14,-56.5 1736.14,-75.5 1798.14,-75.5 1798.14,-56.5 1736.14,-56.5"/>
<text text-anchor="middle" x="1767.14" y="-63.5" font-family="Helvetica,sans-Serif" font-size="10.00">AMReX.H</text>
</a>
</g>
</g>
<!-- Node3&#45;&gt;Node8 -->
<g id="edge7" class="edge">
<title>Node3&#45;&gt;Node8</title>
<path fill="none" stroke="midnightblue" d="M1752.57,-117.98C1755,-109.49 1758.79,-96.2 1761.9,-85.32"/>
<polygon fill="midnightblue" stroke="midnightblue" points="1765.33,-86.09 1764.71,-75.51 1758.59,-84.16 1765.33,-86.09"/>
</g>
<!-- Node10&#45;&gt;Node4 -->
<g id="edge11" class="edge">
<title>Node10&#45;&gt;Node4</title>
<path fill="none" stroke="midnightblue" d="M1453.77,-117.98C1478.26,-107.86 1519.29,-90.9 1547.25,-79.35"/>
<polygon fill="midnightblue" stroke="midnightblue" points="1548.64,-82.56 1556.55,-75.51 1545.97,-76.09 1548.64,-82.56"/>
</g>
<!-- Node10&#45;&gt;Node5 -->
<g id="edge12" class="edge">
<title>Node10&#45;&gt;Node5</title>
<path fill="none" stroke="midnightblue" d="M1467.24,-117.98C1509.39,-107.44 1581.19,-89.49 1627.37,-77.94"/>
<polygon fill="midnightblue" stroke="midnightblue" points="1628.25,-81.33 1637.1,-75.51 1626.55,-74.54 1628.25,-81.33"/>
</g>
<!-- Node10&#45;&gt;Node9 -->
<g id="edge16" class="edge">
<title>Node10&#45;&gt;Node9</title>
<path fill="none" stroke="midnightblue" d="M1495.46,-122.48C1597.23,-115.56 1805.59,-99.93 1992.5,-75.98"/>
<polygon fill="midnightblue" stroke="midnightblue" points="1993.04,-79.44 2002.51,-74.69 1992.14,-72.5 1993.04,-79.44"/>
</g>
<!-- Node11 -->
<g id="node11" class="node">
<title>Node11</title>
<g id="a_node11"><a xlink:title=" ">
<polygon fill="white" stroke="#bfbfbf" points="316.14,-0.5 316.14,-19.5 360.14,-19.5 360.14,-0.5 316.14,-0.5"/>
<text text-anchor="middle" x="338.14" y="-7.5" font-family="Helvetica,sans-Serif" font-size="10.00">string</text>
</a>
</g>
</g>
<!-- Node10&#45;&gt;Node11 -->
<g id="edge10" class="edge">
<title>Node10&#45;&gt;Node11</title>
<path fill="none" stroke="midnightblue" d="M1370.87,-120.23C1277.33,-110.79 1095.01,-92.29 940.14,-76 722.39,-53.09 460.47,-24.43 370.39,-14.55"/>
<polygon fill="midnightblue" stroke="midnightblue" points="370.6,-11.05 360.27,-13.43 369.83,-18 370.6,-11.05"/>
</g>
<!-- Node12 -->
<g id="node12" class="node">
<title>Node12</title>
<g id="a_node12"><a xlink:title=" ">
<polygon fill="white" stroke="#bfbfbf" points="1113.14,-56.5 1113.14,-75.5 1177.14,-75.5 1177.14,-56.5 1113.14,-56.5"/>
<text text-anchor="middle" x="1145.14" y="-63.5" font-family="Helvetica,sans-Serif" font-size="10.00">algorithm</text>
</a>
</g>
</g>
<!-- Node10&#45;&gt;Node12 -->
<g id="edge13" class="edge">
<title>Node10&#45;&gt;Node12</title>
<path fill="none" stroke="midnightblue" d="M1390.26,-117.93C1342.99,-108.44 1264.42,-92.53 1187.25,-76.21"/>
<polygon fill="midnightblue" stroke="midnightblue" points="1187.87,-72.77 1177.36,-74.12 1186.42,-79.61 1187.87,-72.77"/>
</g>
<!-- Node13 -->
<g id="node13" class="node">
<title>Node13</title>
<g id="a_node13"><a xlink:title=" ">
<polygon fill="white" stroke="#bfbfbf" points="866.64,-0.5 866.64,-19.5 975.64,-19.5 975.64,-0.5 866.64,-0.5"/>
<text text-anchor="middle" x="921.14" y="-7.5" font-family="Helvetica,sans-Serif" font-size="10.00">AMReX_MultiFab.H</text>
</a>
</g>
</g>
<!-- Node10&#45;&gt;Node13 -->
<g id="edge14" class="edge">
<title>Node10&#45;&gt;Node13</title>
<path fill="none" stroke="midnightblue" d="M1450.58,-117.93C1475.63,-104.56 1516.62,-77.97 1496.14,-56 1458.96,-16.11 1075.98,-25.09 986.01,-19.75"/>
<polygon fill="midnightblue" stroke="midnightblue" points="986.16,-16.25 975.92,-18.96 985.62,-23.23 986.16,-16.25"/>
</g>
<!-- Node14 -->
<g id="node14" class="node">
<title>Node14</title>
<g id="a_node14"><a xlink:title=" ">
<polygon fill="white" stroke="#bfbfbf" points="1195.64,-56.5 1195.64,-75.5 1294.64,-75.5 1294.64,-56.5 1195.64,-56.5"/>
<text text-anchor="middle" x="1245.14" y="-63.5" font-family="Helvetica,sans-Serif" font-size="10.00">AMReX_BCRec.H</text>
</a>
</g>
</g>
<!-- Node10&#45;&gt;Node14 -->
<g id="edge15" class="edge">
<title>Node10&#45;&gt;Node14</title>
<path fill="none" stroke="midnightblue" d="M1406.2,-117.98C1373.54,-107.64 1318.32,-90.16 1281.8,-78.6"/>
<polygon fill="midnightblue" stroke="midnightblue" points="1282.61,-75.19 1272.02,-75.51 1280.5,-81.86 1282.61,-75.19"/>
</g>
<!-- Node15 -->
<g id="node15" class="node">
<title>Node15</title>
<g id="a_node15"><a xlink:href="incflo__enums_8_h.html" target="_top" xlink:title=" ">
<polygon fill="white" stroke="black" points="1312.64,-56.5 1312.64,-75.5 1453.64,-75.5 1453.64,-56.5 1312.64,-56.5"/>
<text text-anchor="middle" x="1383.14" y="-63.5" font-family="Helvetica,sans-Serif" font-size="10.00">amr&#45;wind/incflo_enums.H</text>
</a>
</g>
</g>
<!-- Node10&#45;&gt;Node15 -->
<g id="edge17" class="edge">
<title>Node10&#45;&gt;Node15</title>
<path fill="none" stroke="midnightblue" d="M1425.97,-117.98C1418.4,-108.96 1406.27,-94.52 1396.85,-83.31"/>
<polygon fill="midnightblue" stroke="midnightblue" points="1399.4,-80.91 1390.29,-75.51 1394.04,-85.42 1399.4,-80.91"/>
</g>
<!-- Node16 -->
<g id="node16" class="node">
<title>Node16</title>
<g id="a_node16"><a xlink:href="_field_desc_types_8_h.html" target="_top" xlink:title=" ">
<polygon fill="white" stroke="black" points="672.14,-0.5 672.14,-19.5 848.14,-19.5 848.14,-0.5 672.14,-0.5"/>
<text text-anchor="middle" x="760.14" y="-7.5" font-family="Helvetica,sans-Serif" font-size="10.00">amr&#45;wind/core/FieldDescTypes.H</text>
</a>
</g>
</g>
<!-- Node10&#45;&gt;Node16 -->
<g id="edge18" class="edge">
<title>Node10&#45;&gt;Node16</title>
<path fill="none" stroke="midnightblue" d="M1442.24,-117.59C1456.06,-103.01 1479.02,-73.92 1462.14,-56 1417.67,-8.81 960.16,-23.86 858.3,-19.85"/>
<polygon fill="midnightblue" stroke="midnightblue" points="858.33,-16.34 848.16,-19.29 857.95,-23.33 858.33,-16.34"/>
</g>
<!-- Node17 -->
<g id="node17" class="node">
<title>Node17</title>
<g id="a_node17"><a xlink:href="_view_field_8_h.html" target="_top" xlink:title=" ">
<polygon fill="white" stroke="black" points="593.14,-56.5 593.14,-75.5 741.14,-75.5 741.14,-56.5 593.14,-56.5"/>
<text text-anchor="middle" x="667.14" y="-63.5" font-family="Helvetica,sans-Serif" font-size="10.00">amr&#45;wind/core/ViewField.H</text>
</a>
</g>
</g>
<!-- Node10&#45;&gt;Node17 -->
<g id="edge19" class="edge">
<title>Node10&#45;&gt;Node17</title>
<path fill="none" stroke="midnightblue" d="M1371.1,-121.68C1234.36,-111.06 906.86,-85.62 751.58,-73.56"/>
<polygon fill="midnightblue" stroke="midnightblue" points="751.39,-70.03 741.15,-72.75 750.85,-77.01 751.39,-70.03"/>
</g>
<!-- Node17&#45;&gt;Node11 -->
<g id="edge20" class="edge">
<title>Node17&#45;&gt;Node11</title>
<path fill="none" stroke="midnightblue" d="M615.01,-56.44C546.27,-45.16 427.38,-25.65 370.4,-16.3"/>
<polygon fill="midnightblue" stroke="midnightblue" points="370.95,-12.84 360.51,-14.67 369.81,-19.75 370.95,-12.84"/>
</g>
<!-- Node17&#45;&gt;Node13 -->
<g id="edge22" class="edge">
<title>Node17&#45;&gt;Node13</title>
<path fill="none" stroke="midnightblue" d="M707.39,-56.44C751.79,-47 823.29,-31.8 871.23,-21.61"/>
<polygon fill="midnightblue" stroke="midnightblue" points="872.03,-25.02 881.08,-19.52 870.57,-18.17 872.03,-25.02"/>
</g>
<!-- Node17&#45;&gt;Node16 -->
<g id="edge21" class="edge">
<title>Node17&#45;&gt;Node16</title>
<path fill="none" stroke="midnightblue" d="M682.08,-56.32C696.72,-47.82 719.27,-34.73 736.38,-24.8"/>
<polygon fill="midnightblue" stroke="midnightblue" points="738.34,-27.7 745.23,-19.65 734.83,-21.65 738.34,-27.7"/>
</g>
<!-- Node18 -->
<g id="node18" class="node">
<title>Node18</title>
<g id="a_node18"><a xlink:title=" ">
<polygon fill="white" stroke="#bfbfbf" points="516.14,-0.5 516.14,-19.5 614.14,-19.5 614.14,-0.5 516.14,-0.5"/>
<text text-anchor="middle" x="565.14" y="-7.5" font-family="Helvetica,sans-Serif" font-size="10.00">AMReX_Vector.H</text>
</a>
</g>
</g>
<!-- Node17&#45;&gt;Node18 -->
<g id="edge23" class="edge">
<title>Node17&#45;&gt;Node18</title>
<path fill="none" stroke="midnightblue" d="M650.75,-56.32C634.47,-47.7 609.27,-34.36 590.42,-24.39"/>
<polygon fill="midnightblue" stroke="midnightblue" points="591.96,-21.24 581.49,-19.65 588.69,-27.43 591.96,-21.24"/>
</g>
<!-- Node19&#45;&gt;Node5 -->
<g id="edge26" class="edge">
<title>Node19&#45;&gt;Node5</title>
<path fill="none" stroke="midnightblue" d="M849.87,-191.7C1010.08,-187.29 1381.93,-173.96 1504.14,-143 1558.43,-129.25 1616.91,-98.54 1648.23,-80.65"/>
<polygon fill="midnightblue" stroke="midnightblue" points="1650.14,-83.59 1657.04,-75.54 1646.63,-77.53 1650.14,-83.59"/>
</g>
<!-- Node19&#45;&gt;Node10 -->
<g id="edge32" class="edge">
<title>Node19&#45;&gt;Node10</title>
<path fill="none" stroke="midnightblue" d="M849.66,-186.14C976.97,-173.56 1234.76,-148.1 1360.66,-135.66"/>
<polygon fill="midnightblue" stroke="midnightblue" points="1361.35,-139.11 1370.96,-134.64 1360.66,-132.14 1361.35,-139.11"/>
</g>
<!-- Node19&#45;&gt;Node11 -->
<g id="edge25" class="edge">
<title>Node19&#45;&gt;Node11</title>
<path fill="none" stroke="midnightblue" d="M700.41,-194.24C516.57,-195.29 53.86,-192.9 7.14,-143 -1.72,-133.54 -3.71,-70.2 9.14,-56 48.21,-12.8 230.57,-9.76 305.68,-10.4"/>
<polygon fill="midnightblue" stroke="midnightblue" points="305.92,-13.9 315.96,-10.51 306,-6.9 305.92,-13.9"/>
</g>
<!-- Node19&#45;&gt;Node13 -->
<g id="edge54" class="edge">
<title>Node19&#45;&gt;Node13</title>
<path fill="none" stroke="midnightblue" d="M782.18,-184.7C805.07,-156.09 877.61,-65.41 907.78,-27.7"/>
<polygon fill="midnightblue" stroke="midnightblue" points="910.65,-29.71 914.17,-19.71 905.19,-25.34 910.65,-29.71"/>
</g>
<!-- Node19&#45;&gt;Node16 -->
<g id="edge27" class="edge">
<title>Node19&#45;&gt;Node16</title>
<path fill="none" stroke="midnightblue" d="M775.22,-184.77C775.33,-162.97 775,-104.39 769.14,-56 768.07,-47.19 766.23,-37.53 764.49,-29.42"/>
<polygon fill="midnightblue" stroke="midnightblue" points="767.88,-28.55 762.26,-19.56 761.05,-30.09 767.88,-28.55"/>
</g>
<!-- Node20 -->
<g id="node20" class="node">
<title>Node20</title>
<g id="a_node20"><a xlink:href="_field_utils_8_h.html" target="_top" xlink:title=" ">
<polygon fill="white" stroke="black" points="949.14,-56.5 949.14,-75.5 1095.14,-75.5 1095.14,-56.5 949.14,-56.5"/>
<text text-anchor="middle" x="1022.14" y="-63.5" font-family="Helvetica,sans-Serif" font-size="10.00">amr&#45;wind/core/FieldUtils.H</text>
</a>
</g>
</g>
<!-- Node19&#45;&gt;Node20 -->
<g id="edge28" class="edge">
<title>Node19&#45;&gt;Node20</title>
<path fill="none" stroke="midnightblue" d="M818.18,-185C851.56,-177.23 898.19,-163.76 935.14,-143 963.84,-126.88 991.5,-100.18 1007.66,-83.11"/>
<polygon fill="midnightblue" stroke="midnightblue" points="1010.4,-85.3 1014.62,-75.58 1005.26,-80.54 1010.4,-85.3"/>
</g>
<!-- Node22 -->
<g id="node22" class="node">
<title>Node22</title>
<g id="a_node22"><a xlink:href="_int_field_8_h.html" target="_top" xlink:title=" ">
<polygon fill="white" stroke="black" points="16.64,-118 16.64,-137 153.64,-137 153.64,-118 16.64,-118"/>
<text text-anchor="middle" x="85.14" y="-125" font-family="Helvetica,sans-Serif" font-size="10.00">amr&#45;wind/core/IntField.H</text>
</a>
</g>
</g>
<!-- Node19&#45;&gt;Node22 -->
<g id="edge33" class="edge">
<title>Node19&#45;&gt;Node22</title>
<path fill="none" stroke="midnightblue" d="M700.56,-187.73C591.3,-179.1 381.34,-161.81 203.14,-143 189.59,-141.57 175.19,-139.91 161.28,-138.24"/>
<polygon fill="midnightblue" stroke="midnightblue" points="161.6,-134.76 151.25,-137.03 160.75,-141.71 161.6,-134.76"/>
</g>
<!-- Node23 -->
<g id="node23" class="node">
<title>Node23</title>
<g id="a_node23"><a xlink:title=" ">
<polygon fill="white" stroke="#bfbfbf" points="60.14,-56.5 60.14,-75.5 172.14,-75.5 172.14,-56.5 60.14,-56.5"/>
<text text-anchor="middle" x="116.14" y="-63.5" font-family="Helvetica,sans-Serif" font-size="10.00">AMReX_iMultiFab.H</text>
</a>
</g>
</g>
<!-- Node19&#45;&gt;Node23 -->
<g id="edge55" class="edge">
<title>Node19&#45;&gt;Node23</title>
<path fill="none" stroke="midnightblue" d="M700.57,-190.62C574.19,-185.05 323.55,-170.83 240.14,-143 199.15,-129.33 157.55,-99.97 134.47,-82.01"/>
<polygon fill="midnightblue" stroke="midnightblue" points="136.58,-79.22 126.57,-75.74 132.23,-84.7 136.58,-79.22"/>
</g>
<!-- Node24 -->
<g id="node24" class="node">
<title>Node24</title>
<g id="a_node24"><a xlink:href="_scratch_field_8_h.html" target="_top" xlink:title=" ">
<polygon fill="white" stroke="black" points="587.14,-118 587.14,-137 747.14,-137 747.14,-118 587.14,-118"/>
<text text-anchor="middle" x="667.14" y="-125" font-family="Helvetica,sans-Serif" font-size="10.00">amr&#45;wind/core/ScratchField.H</text>
</a>
</g>
</g>
<!-- Node19&#45;&gt;Node24 -->
<g id="edge37" class="edge">
<title>Node19&#45;&gt;Node24</title>
<path fill="none" stroke="midnightblue" d="M760.57,-184.73C742.52,-173.87 711.53,-155.22 690.22,-142.39"/>
<polygon fill="midnightblue" stroke="midnightblue" points="691.85,-139.29 681.47,-137.13 688.24,-145.28 691.85,-139.29"/>
</g>
<!-- Node27 -->
<g id="node27" class="node">
<title>Node27</title>
<g id="a_node27"><a xlink:href="_int_scratch_field_8_h.html" target="_top" xlink:title=" ">
<polygon fill="white" stroke="black" points="249.64,-112.5 249.64,-142.5 388.64,-142.5 388.64,-112.5 249.64,-112.5"/>
<text text-anchor="start" x="257.64" y="-130.5" font-family="Helvetica,sans-Serif" font-size="10.00">amr&#45;wind/core/IntScratch</text>
<text text-anchor="middle" x="319.14" y="-119.5" font-family="Helvetica,sans-Serif" font-size="10.00">Field.H</text>
</a>
</g>
</g>
<!-- Node19&#45;&gt;Node27 -->
<g id="edge45" class="edge">
<title>Node19&#45;&gt;Node27</title>
<path fill="none" stroke="midnightblue" d="M715.06,-184.94C633.82,-173.36 488.76,-152.68 398.59,-139.83"/>
<polygon fill="midnightblue" stroke="midnightblue" points="399.08,-136.36 388.69,-138.41 398.1,-143.29 399.08,-136.36"/>
</g>
<!-- Node28 -->
<g id="node28" class="node">
<title>Node28</title>
<g id="a_node28"><a xlink:title=" ">
<polygon fill="white" stroke="#bfbfbf" points="459.14,-118 459.14,-137 569.14,-137 569.14,-118 459.14,-118"/>
<text text-anchor="middle" x="514.14" y="-125" font-family="Helvetica,sans-Serif" font-size="10.00">AMReX_AmrCore.H</text>
</a>
</g>
</g>
<!-- Node19&#45;&gt;Node28 -->
<g id="edge53" class="edge">
<title>Node19&#45;&gt;Node28</title>
<path fill="none" stroke="midnightblue" d="M740.75,-184.94C693.9,-173.27 609.97,-152.37 558.46,-139.54"/>
<polygon fill="midnightblue" stroke="midnightblue" points="559.15,-136.1 548.6,-137.08 557.46,-142.9 559.15,-136.1"/>
</g>
<!-- Node20&#45;&gt;Node13 -->
<g id="edge30" class="edge">
<title>Node20&#45;&gt;Node13</title>
<path fill="none" stroke="midnightblue" d="M1005.91,-56.32C989.79,-47.7 964.84,-34.36 946.17,-24.39"/>
<polygon fill="midnightblue" stroke="midnightblue" points="947.79,-21.28 937.33,-19.65 944.49,-27.46 947.79,-21.28"/>
</g>
<!-- Node20&#45;&gt;Node16 -->
<g id="edge29" class="edge">
<title>Node20&#45;&gt;Node16</title>
<path fill="none" stroke="midnightblue" d="M980.62,-56.44C934.73,-46.98 860.76,-31.74 811.31,-21.55"/>
<polygon fill="midnightblue" stroke="midnightblue" points="811.96,-18.11 801.46,-19.52 810.55,-24.96 811.96,-18.11"/>
</g>
<!-- Node21 -->
<g id="node21" class="node">
<title>Node21</title>
<g id="a_node21"><a xlink:title=" ">
<polygon fill="white" stroke="#bfbfbf" points="994.14,-0.5 994.14,-19.5 1118.14,-19.5 1118.14,-0.5 994.14,-0.5"/>
<text text-anchor="middle" x="1056.14" y="-7.5" font-family="Helvetica,sans-Serif" font-size="10.00">AMReX_Interpolater.H</text>
</a>
</g>
</g>
<!-- Node20&#45;&gt;Node21 -->
<g id="edge31" class="edge">
<title>Node20&#45;&gt;Node21</title>
<path fill="none" stroke="midnightblue" d="M1027.75,-56.08C1032.51,-48.53 1039.46,-37.49 1045.29,-28.23"/>
<polygon fill="midnightblue" stroke="midnightblue" points="1048.26,-30.08 1050.63,-19.75 1042.34,-26.35 1048.26,-30.08"/>
</g>
<!-- Node22&#45;&gt;Node11 -->
<g id="edge34" class="edge">
<title>Node22&#45;&gt;Node11</title>
<path fill="none" stroke="midnightblue" d="M66.09,-117.83C39.88,-104.76 -1.91,-79.07 18.14,-56 55.24,-13.32 232.33,-9.95 305.94,-10.45"/>
<polygon fill="midnightblue" stroke="midnightblue" points="305.99,-13.95 316.02,-10.55 306.05,-6.95 305.99,-13.95"/>
</g>
<!-- Node22&#45;&gt;Node16 -->
<g id="edge35" class="edge">
<title>Node22&#45;&gt;Node16</title>
<path fill="none" stroke="midnightblue" d="M75.02,-117.7C59.63,-103.29 33.84,-74.42 51.14,-56 94.73,-9.58 559.59,-24.09 623.14,-20 635.62,-19.2 648.74,-18.35 661.71,-17.5"/>
<polygon fill="midnightblue" stroke="midnightblue" points="662.32,-20.97 672.07,-16.82 661.86,-13.98 662.32,-20.97"/>
</g>
<!-- Node22&#45;&gt;Node23 -->
<g id="edge36" class="edge">
<title>Node22&#45;&gt;Node23</title>
<path fill="none" stroke="midnightblue" d="M89.58,-117.98C94.09,-109.32 101.21,-95.65 106.95,-84.65"/>
<polygon fill="midnightblue" stroke="midnightblue" points="110.19,-85.99 111.71,-75.51 103.98,-82.76 110.19,-85.99"/>
</g>
<!-- Node24&#45;&gt;Node11 -->
<g id="edge38" class="edge">
<title>Node24&#45;&gt;Node11</title>
<path fill="none" stroke="midnightblue" d="M650.21,-117.99C621.38,-103.75 560.7,-74.8 507.14,-56 460.41,-39.59 404.61,-25.82 370.28,-17.99"/>
<polygon fill="midnightblue" stroke="midnightblue" points="370.87,-14.54 360.34,-15.76 369.33,-21.37 370.87,-14.54"/>
</g>
<!-- Node24&#45;&gt;Node13 -->
<g id="edge42" class="edge">
<title>Node24&#45;&gt;Node13</title>
<path fill="none" stroke="midnightblue" d="M686.23,-117.82C730.56,-97.66 840.65,-47.6 892.84,-23.87"/>
<polygon fill="midnightblue" stroke="midnightblue" points="894.52,-26.95 902.17,-19.62 891.62,-20.58 894.52,-26.95"/>
</g>
<!-- Node24&#45;&gt;Node16 -->
<g id="edge40" class="edge">
<title>Node24&#45;&gt;Node16</title>
<path fill="none" stroke="midnightblue" d="M692.37,-117.89C711.4,-110.03 736.47,-96.48 750.14,-76 759.15,-62.5 761.24,-43.94 761.31,-30.11"/>
<polygon fill="midnightblue" stroke="midnightblue" points="764.8,-29.71 761.01,-19.82 757.8,-29.92 764.8,-29.71"/>
</g>
<!-- Node24&#45;&gt;Node17 -->
<g id="edge41" class="edge">
<title>Node24&#45;&gt;Node17</title>
<path fill="none" stroke="midnightblue" d="M667.14,-117.98C667.14,-109.58 667.14,-96.48 667.14,-85.66"/>
<polygon fill="midnightblue" stroke="midnightblue" points="670.64,-85.51 667.14,-75.51 663.64,-85.51 670.64,-85.51"/>
</g>
<!-- Node24&#45;&gt;Node18 -->
<g id="edge43" class="edge">
<title>Node24&#45;&gt;Node18</title>
<path fill="none" stroke="midnightblue" d="M643.78,-117.86C625.04,-109.78 599.43,-95.94 584.14,-76 573.86,-62.6 569.14,-43.78 566.97,-29.84"/>
<polygon fill="midnightblue" stroke="midnightblue" points="570.44,-29.38 565.72,-19.9 563.49,-30.26 570.44,-29.38"/>
</g>
<!-- Node25 -->
<g id="node25" class="node">
<title>Node25</title>
<g id="a_node25"><a xlink:title=" ">
<polygon fill="white" stroke="#bfbfbf" points="304.64,-56.5 304.64,-75.5 349.64,-75.5 349.64,-56.5 304.64,-56.5"/>
<text text-anchor="middle" x="327.14" y="-63.5" font-family="Helvetica,sans-Serif" font-size="10.00">utility</text>
</a>
</g>
</g>
<!-- Node24&#45;&gt;Node25 -->
<g id="edge39" class="edge">
<title>Node24&#45;&gt;Node25</title>
<path fill="none" stroke="midnightblue" d="M614.69,-117.95C537.39,-105.34 398.42,-82.67 359.6,-75.77"/>
<polygon fill="midnightblue" stroke="midnightblue" points="360.22,-72.33 349.74,-73.9 358.92,-79.21 360.22,-72.33"/>
</g>
<!-- Node26 -->
<g id="node26" class="node">
<title>Node26</title>
<g id="a_node26"><a xlink:title=" ">
<polygon fill="white" stroke="#bfbfbf" points="367.64,-56.5 367.64,-75.5 498.64,-75.5 498.64,-56.5 367.64,-56.5"/>
<text text-anchor="middle" x="433.14" y="-63.5" font-family="Helvetica,sans-Serif" font-size="10.00">AMReX_PhysBCFunct.H</text>
</a>
</g>
</g>
<!-- Node24&#45;&gt;Node26 -->
<g id="edge44" class="edge">
<title>Node24&#45;&gt;Node26</title>
<path fill="none" stroke="midnightblue" d="M633.61,-117.98C592.26,-107.46 521.87,-89.56 476.45,-78.01"/>
<polygon fill="midnightblue" stroke="midnightblue" points="477.16,-74.58 466.6,-75.51 475.43,-81.37 477.16,-74.58"/>
</g>
<!-- Node27&#45;&gt;Node11 -->
<g id="edge46" class="edge">
<title>Node27&#45;&gt;Node11</title>
<path fill="none" stroke="midnightblue" d="M272.57,-112.49C240.77,-100.37 207.21,-80.88 224.14,-56 242.31,-29.29 279.03,-18.43 305.91,-14.02"/>
<polygon fill="midnightblue" stroke="midnightblue" points="306.61,-17.45 316.02,-12.58 305.63,-10.52 306.61,-17.45"/>
</g>
<!-- Node27&#45;&gt;Node16 -->
<g id="edge48" class="edge">
<title>Node27&#45;&gt;Node16</title>
<path fill="none" stroke="midnightblue" d="M306.98,-112.38C295.09,-96.82 280.71,-71.89 295.14,-56 301.25,-49.27 526.97,-29.89 661.64,-18.88"/>
<polygon fill="midnightblue" stroke="midnightblue" points="662.29,-22.34 671.97,-18.04 661.72,-15.36 662.29,-22.34"/>
</g>
<!-- Node27&#45;&gt;Node17 -->
<g id="edge49" class="edge">
<title>Node27&#45;&gt;Node17</title>
<path fill="none" stroke="midnightblue" d="M388.73,-114.6C452.66,-103.67 546.45,-87.63 607.16,-77.26"/>
<polygon fill="midnightblue" stroke="midnightblue" points="608.08,-80.65 617.35,-75.51 606.9,-73.75 608.08,-80.65"/>
</g>
<!-- Node27&#45;&gt;Node18 -->
<g id="edge51" class="edge">
<title>Node27&#45;&gt;Node18</title>
<path fill="none" stroke="midnightblue" d="M294.16,-112.24C272.07,-97.84 245.69,-75.07 262.14,-56 292.93,-20.3 426.39,-12.47 505.55,-11.02"/>
<polygon fill="midnightblue" stroke="midnightblue" points="505.93,-14.52 515.87,-10.86 505.82,-7.52 505.93,-14.52"/>
</g>
<!-- Node27&#45;&gt;Node23 -->
<g id="edge50" class="edge">
<title>Node27&#45;&gt;Node23</title>
<path fill="none" stroke="midnightblue" d="M271.29,-112.47C235.81,-102.08 188.05,-88.08 154.94,-78.37"/>
<polygon fill="midnightblue" stroke="midnightblue" points="155.74,-74.96 145.16,-75.51 153.77,-81.68 155.74,-74.96"/>
</g>
<!-- Node27&#45;&gt;Node25 -->
<g id="edge47" class="edge">
<title>Node27&#45;&gt;Node25</title>
<path fill="none" stroke="midnightblue" d="M321.03,-112.4C322.11,-104.38 323.48,-94.23 324.64,-85.57"/>
<polygon fill="midnightblue" stroke="midnightblue" points="328.11,-86.04 325.97,-75.66 321.17,-85.1 328.11,-86.04"/>
</g>
<!-- Node27&#45;&gt;Node26 -->
<g id="edge52" class="edge">
<title>Node27&#45;&gt;Node26</title>
<path fill="none" stroke="midnightblue" d="M346.15,-112.4C364.77,-102.68 389.35,-89.86 407.63,-80.31"/>
<polygon fill="midnightblue" stroke="midnightblue" points="409.3,-83.39 416.55,-75.66 406.07,-77.18 409.3,-83.39"/>
</g>
<!-- Node29&#45;&gt;Node9 -->
<g id="edge58" class="edge">
<title>Node29&#45;&gt;Node9</title>
<path fill="none" stroke="midnightblue" d="M1892.89,-179.25C1892.13,-161.35 1893.64,-130.71 1910.14,-112 1921.81,-98.76 1962.37,-86.36 1996.19,-77.95"/>
<polygon fill="midnightblue" stroke="midnightblue" points="1997.07,-81.33 2005.97,-75.57 1995.42,-74.53 1997.07,-81.33"/>
</g>
<!-- Node30 -->
<g id="node30" class="node">
<title>Node30</title>
<g id="a_node30"><a xlink:title=" ">
<polygon fill="white" stroke="#bfbfbf" points="1919.64,-118 1919.64,-137 2034.64,-137 2034.64,-118 1919.64,-118"/>
<text text-anchor="middle" x="1977.14" y="-125" font-family="Helvetica,sans-Serif" font-size="10.00">AMReX_Geometry.H</text>
</a>
</g>
</g>
<!-- Node29&#45;&gt;Node30 -->
<g id="edge57" class="edge">
<title>Node29&#45;&gt;Node30</title>
<path fill="none" stroke="midnightblue" d="M1912.15,-179.4C1925.73,-168.76 1944.32,-154.2 1958.14,-143.38"/>
<polygon fill="midnightblue" stroke="midnightblue" points="1960.32,-146.12 1966.04,-137.19 1956.01,-140.6 1960.32,-146.12"/>
</g>
<!-- Node31&#45;&gt;Node9 -->
<g id="edge61" class="edge">
<title>Node31&#45;&gt;Node9</title>
<path fill="none" stroke="midnightblue" d="M2040.41,-179.36C2041.28,-169.24 2042.41,-155.29 2043.14,-143 2044.29,-123.67 2045.1,-101.55 2045.59,-86.18"/>
<polygon fill="midnightblue" stroke="midnightblue" points="2049.1,-86 2045.9,-75.9 2042.1,-85.79 2049.1,-86"/>
</g>
<!-- Node31&#45;&gt;Node30 -->
<g id="edge60" class="edge">
<title>Node31&#45;&gt;Node30</title>
<path fill="none" stroke="midnightblue" d="M2025.69,-179.4C2015.92,-169.16 2002.7,-155.3 1992.52,-144.62"/>
<polygon fill="midnightblue" stroke="midnightblue" points="1994.87,-142.01 1985.43,-137.19 1989.8,-146.85 1994.87,-142.01"/>
</g>
</g>
</svg>
        <g id="navigator" transform="translate(0 0)" fill="#404254">
                <rect fill="#f2f5e9" fill-opacity="0.5" stroke="#606060" stroke-width=".5" x="0" y="0" width="60" height="60"/>
                <use id="zoomplus" xlink:href="#zoomPlus" x="17" y="9" onmousedown="handleZoom(evt,'in')"/>
                <use id="zoomminus" xlink:href="#zoomMin" x="42" y="9" onmousedown="handleZoom(evt,'out')"/>
                <use id="reset" xlink:href="#resetDef" x="30" y="36" onmousedown="handleReset()"/>
                <g id="arrowUp" xlink:href="#dirArrow" transform="translate(30 24)" onmousedown="handlePan(0,-1)">
                  <use xlink:href="#rim" fill="#404040">
                        <set attributeName="fill" to="#808080" begin="arrowUp.mouseover" end="arrowUp.mouseout"/>
                  </use>
                  <path fill="none" stroke="white" stroke-width="1.5" d="M0,-3.0v7 M-2.5,-0.5L0,-3.0L2.5,-0.5"/>
                </g>
                <g id="arrowRight" xlink:href="#dirArrow" transform="rotate(90) translate(36 -43)" onmousedown="handlePan(1,0)">
                  <use xlink:href="#rim" fill="#404040">
                        <set attributeName="fill" to="#808080" begin="arrowRight.mouseover" end="arrowRight.mouseout"/>
                  </use>
                  <path fill="none" stroke="white" stroke-width="1.5" d="M0,-3.0v7 M-2.5,-0.5L0,-3.0L2.5,-0.5"/>
                </g>
                <g id="arrowDown" xlink:href="#dirArrow" transform="rotate(180) translate(-30 -48)" onmousedown="handlePan(0,1)">
                  <use xlink:href="#rim" fill="#404040">
                        <set attributeName="fill" to="#808080" begin="arrowDown.mouseover" end="arrowDown.mouseout"/>
                  </use>
                  <path fill="none" stroke="white" stroke-width="1.5" d="M0,-3.0v7 M-2.5,-0.5L0,-3.0L2.5,-0.5"/>
                </g>
                <g id="arrowLeft" xlink:href="#dirArrow" transform="rotate(270) translate(-36 17)" onmousedown="handlePan(-1,0)">
                  <use xlink:href="#rim" fill="#404040">
                        <set attributeName="fill" to="#808080" begin="arrowLeft.mouseover" end="arrowLeft.mouseout"/>
                  </use>
                  <path fill="none" stroke="white" stroke-width="1.5" d="M0,-3.0v7 M-2.5,-0.5L0,-3.0L2.5,-0.5"/>
                </g>
        </g>
        <svg viewBox="0 0 15 15" width="100%" height="30px" preserveAspectRatio="xMaxYMin meet">
         <g id="arrow_out" transform="scale(0.3 0.3)">
          <a xlink:href="_u_d_f_8cpp__incl_org.svg" target="_base">
           <rect id="button" ry="5" rx="5" y="6" x="6" height="38" width="38"
                fill="#f2f5e9" fill-opacity="0.5" stroke="#606060" stroke-width="1.0"/>
           <path id="arrow"
             d="M 11.500037,31.436501 C 11.940474,20.09759 22.043105,11.32322 32.158766,21.979434 L 37.068811,17.246167 C 37.068811,17.246167 37.088388,32 37.088388,32 L 22.160133,31.978069 C 22.160133,31.978069 26.997745,27.140456 26.997745,27.140456 C 18.528582,18.264221 13.291696,25.230495 11.500037,31.436501 z"
             style="fill:#404040;"/>
          </a>
         </g>
        </svg>
</svg>
