<?xml version="1.0" encoding="UTF-8" standalone="no"?>
<!DOCTYPE svg PUBLIC "-//W3C//DTD SVG 1.1//EN"
 "http://www.w3.org/Graphics/SVG/1.1/DTD/svg11.dtd">
<!-- Generated by graphviz version 2.43.0 (0)
 -->
<!-- Title: ViewField.H Pages: 1 -->
<svg width="4585pt" height="252pt"
 viewBox="0.00 0.00 4585.00 252.00" xmlns="http://www.w3.org/2000/svg" xmlns:xlink="http://www.w3.org/1999/xlink">
<g id="graph0" class="graph" transform="scale(1 1) rotate(0) translate(4 248)">
<title>ViewField.H</title>
<polygon fill="white" stroke="transparent" points="-4,4 -4,-248 4581,-248 4581,4 -4,4"/>
<!-- Node1 -->
<g id="node1" class="node">
<title>Node1</title>
<g id="a_node1"><a xlink:title=" ">
<polygon fill="#bfbfbf" stroke="black" points="122,-224.5 122,-243.5 196,-243.5 196,-224.5 122,-224.5"/>
<text text-anchor="middle" x="159" y="-231.5" font-family="Helvetica,sans-Serif" font-size="10.00">ViewField.H</text>
</a>
</g>
</g>
<!-- Node2 -->
<g id="node2" class="node">
<title>Node2</title>
<g id="a_node2"><a xlink:href="_field_8_h.html" target="_top" xlink:title=" ">
<polygon fill="white" stroke="black" points="2331,-168.5 2331,-187.5 2381,-187.5 2381,-168.5 2331,-168.5"/>
<text text-anchor="middle" x="2356" y="-175.5" font-family="Helvetica,sans-Serif" font-size="10.00">Field.H</text>
</a>
</g>
</g>
<!-- Node1&#45;&gt;Node2 -->
<g id="edge1" class="edge">
<title>Node1&#45;&gt;Node2</title>
<path fill="none" stroke="midnightblue" d="M206.23,-231.84C503.48,-224.53 2110.2,-185.04 2330.87,-179.62"/>
<polygon fill="midnightblue" stroke="midnightblue" points="206.12,-228.34 196.21,-232.09 206.29,-235.34 206.12,-228.34"/>
</g>
<!-- Node237 -->
<g id="node12" class="node">
<title>Node237</title>
<g id="a_node12"><a xlink:href="_view_field_8cpp.html" target="_top" xlink:title=" ">
<polygon fill="white" stroke="black" points="0,-56.5 0,-75.5 84,-75.5 84,-56.5 0,-56.5"/>
<text text-anchor="middle" x="42" y="-63.5" font-family="Helvetica,sans-Serif" font-size="10.00">ViewField.cpp</text>
</a>
</g>
</g>
<!-- Node1&#45;&gt;Node237 -->
<g id="edge69" class="edge">
<title>Node1&#45;&gt;Node237</title>
<path fill="none" stroke="midnightblue" d="M112.1,-224.85C90.29,-218.54 66.11,-207.45 52,-188 26.75,-153.19 35.39,-97.02 39.94,-75.64"/>
<polygon fill="midnightblue" stroke="midnightblue" points="111.34,-228.27 121.9,-227.42 113.12,-221.5 111.34,-228.27"/>
</g>
<!-- Node308 -->
<g id="node49" class="node">
<title>Node308</title>
<g id="a_node49"><a xlink:href="_int_scratch_field_8_h.html" target="_top" xlink:title=" ">
<polygon fill="white" stroke="black" points="165.5,-168.5 165.5,-187.5 264.5,-187.5 264.5,-168.5 165.5,-168.5"/>
<text text-anchor="middle" x="215" y="-175.5" font-family="Helvetica,sans-Serif" font-size="10.00">IntScratchField.H</text>
</a>
</g>
</g>
<!-- Node1&#45;&gt;Node308 -->
<g id="edge62" class="edge">
<title>Node1&#45;&gt;Node308</title>
<path fill="none" stroke="midnightblue" d="M175.33,-217.25C185.26,-207.67 197.59,-195.79 205.84,-187.83"/>
<polygon fill="midnightblue" stroke="midnightblue" points="172.77,-214.86 168,-224.32 177.63,-219.9 172.77,-214.86"/>
</g>
<!-- Node309 -->
<g id="node50" class="node">
<title>Node309</title>
<g id="a_node50"><a xlink:href="_scratch_field_8_h.html" target="_top" xlink:title=" ">
<polygon fill="white" stroke="black" points="61,-168.5 61,-187.5 147,-187.5 147,-168.5 61,-168.5"/>
<text text-anchor="middle" x="104" y="-175.5" font-family="Helvetica,sans-Serif" font-size="10.00">ScratchField.H</text>
</a>
</g>
</g>
<!-- Node1&#45;&gt;Node309 -->
<g id="edge65" class="edge">
<title>Node1&#45;&gt;Node309</title>
<path fill="none" stroke="midnightblue" d="M142.71,-217C132.96,-207.43 120.95,-195.64 112.91,-187.75"/>
<polygon fill="midnightblue" stroke="midnightblue" points="140.33,-219.57 149.92,-224.08 145.23,-214.58 140.33,-219.57"/>
</g>
<!-- Node3 -->
<g id="node3" class="node">
<title>Node3</title>
<g id="a_node3"><a xlink:href="_b_c_interface_8_h.html" target="_top" xlink:title=" ">
<polygon fill="white" stroke="red" points="3996,-112.5 3996,-131.5 4080,-131.5 4080,-112.5 3996,-112.5"/>
<text text-anchor="middle" x="4038" y="-119.5" font-family="Helvetica,sans-Serif" font-size="10.00">BCInterface.H</text>
</a>
</g>
</g>
<!-- Node2&#45;&gt;Node3 -->
<g id="edge2" class="edge">
<title>Node2&#45;&gt;Node3</title>
<path fill="none" stroke="midnightblue" d="M2391.23,-176.66C2598.18,-174.55 3657.79,-162.41 3982,-132 3986.51,-131.58 3991.21,-131.02 3995.88,-130.38"/>
<polygon fill="midnightblue" stroke="midnightblue" points="2391.18,-173.16 2381.22,-176.76 2391.25,-180.16 2391.18,-173.16"/>
</g>
<!-- Node5 -->
<g id="node5" class="node">
<title>Node5</title>
<g id="a_node5"><a xlink:href="_field_8cpp.html" target="_top" xlink:title=" ">
<polygon fill="white" stroke="black" points="4041,-0.5 4041,-19.5 4101,-19.5 4101,-0.5 4041,-0.5"/>
<text text-anchor="middle" x="4071" y="-7.5" font-family="Helvetica,sans-Serif" font-size="10.00">Field.cpp</text>
</a>
</g>
</g>
<!-- Node2&#45;&gt;Node5 -->
<g id="edge5" class="edge">
<title>Node2&#45;&gt;Node5</title>
<path fill="none" stroke="midnightblue" d="M2391.07,-176.76C2634.03,-175.03 4058.26,-163.55 4089,-132 4104.56,-116.03 4082.48,-44.84 4074.04,-19.77"/>
<polygon fill="midnightblue" stroke="midnightblue" points="2391,-173.26 2381.02,-176.83 2391.05,-180.26 2391,-173.26"/>
</g>
<!-- Node20 -->
<g id="node6" class="node">
<title>Node20</title>
<g id="a_node6"><a xlink:href="field__ops_8_h.html" target="_top" xlink:title=" ">
<polygon fill="white" stroke="red" points="339.5,-112.5 339.5,-131.5 410.5,-131.5 410.5,-112.5 339.5,-112.5"/>
<text text-anchor="middle" x="375" y="-119.5" font-family="Helvetica,sans-Serif" font-size="10.00">field_ops.H</text>
</a>
</g>
</g>
<!-- Node2&#45;&gt;Node20 -->
<g id="edge6" class="edge">
<title>Node2&#45;&gt;Node20</title>
<path fill="none" stroke="midnightblue" d="M2320.78,-177.02C2091.55,-177.02 808.97,-175.08 420,-132 416.99,-131.67 413.88,-131.23 410.77,-130.74"/>
<polygon fill="midnightblue" stroke="midnightblue" points="2320.89,-180.52 2330.89,-177.02 2320.89,-173.52 2320.89,-180.52"/>
</g>
<!-- Node46 -->
<g id="node7" class="node">
<title>Node46</title>
<g id="a_node7"><a xlink:href="_field_b_c_ops_8_h.html" target="_top" xlink:title=" ">
<polygon fill="white" stroke="red" points="4397.5,-112.5 4397.5,-131.5 4480.5,-131.5 4480.5,-112.5 4397.5,-112.5"/>
<text text-anchor="middle" x="4439" y="-119.5" font-family="Helvetica,sans-Serif" font-size="10.00">FieldBCOps.H</text>
</a>
</g>
</g>
<!-- Node2&#45;&gt;Node46 -->
<g id="edge7" class="edge">
<title>Node2&#45;&gt;Node46</title>
<path fill="none" stroke="midnightblue" d="M2391.34,-177.23C2587.1,-178.32 3558.4,-180.88 4350,-132 4365.5,-131.04 4382.47,-129.46 4397.4,-127.89"/>
<polygon fill="midnightblue" stroke="midnightblue" points="2391.09,-173.73 2381.07,-177.17 2391.05,-180.73 2391.09,-173.73"/>
</g>
<!-- Node50 -->
<g id="node8" class="node">
<title>Node50</title>
<g id="a_node8"><a xlink:href="_field_fill_patch_ops_8_h.html" target="_top" xlink:title=" ">
<polygon fill="white" stroke="red" points="4467,-56.5 4467,-75.5 4577,-75.5 4577,-56.5 4467,-56.5"/>
<text text-anchor="middle" x="4522" y="-63.5" font-family="Helvetica,sans-Serif" font-size="10.00">FieldFillPatchOps.H</text>
</a>
</g>
</g>
<!-- Node2&#45;&gt;Node50 -->
<g id="edge11" class="edge">
<title>Node2&#45;&gt;Node50</title>
<path fill="none" stroke="midnightblue" d="M2391.43,-176.76C2665.91,-174.86 4443.86,-161.39 4490,-132 4509.94,-119.3 4517.85,-90.2 4520.65,-75.63"/>
<polygon fill="midnightblue" stroke="midnightblue" points="2391.21,-173.26 2381.24,-176.83 2391.26,-180.26 2391.21,-173.26"/>
</g>
<!-- Node94 -->
<g id="node9" class="node">
<title>Node94</title>
<g id="a_node9"><a xlink:href="_field_repo_8_h.html" target="_top" xlink:title=" ">
<polygon fill="white" stroke="red" points="246.5,-112.5 246.5,-131.5 321.5,-131.5 321.5,-112.5 246.5,-112.5"/>
<text text-anchor="middle" x="284" y="-119.5" font-family="Helvetica,sans-Serif" font-size="10.00">FieldRepo.H</text>
</a>
</g>
</g>
<!-- Node2&#45;&gt;Node94 -->
<g id="edge12" class="edge">
<title>Node2&#45;&gt;Node94</title>
<path fill="none" stroke="midnightblue" d="M2320.63,-177.04C2084.87,-177.2 738,-176.12 330,-132 327.25,-131.7 324.42,-131.33 321.58,-130.89"/>
<polygon fill="midnightblue" stroke="midnightblue" points="2320.71,-180.54 2330.7,-177.03 2320.7,-173.54 2320.71,-180.54"/>
</g>
<!-- Node2&#45;&gt;Node237 -->
<g id="edge24" class="edge">
<title>Node2&#45;&gt;Node237</title>
<path fill="none" stroke="midnightblue" d="M2320.93,-176.92C2061.37,-176.24 442.9,-170.45 229,-132 164.89,-120.48 93.23,-90.4 60.32,-75.55"/>
<polygon fill="midnightblue" stroke="midnightblue" points="2320.92,-180.42 2330.93,-176.94 2320.94,-173.42 2320.92,-180.42"/>
</g>
<!-- Node276 -->
<g id="node13" class="node">
<title>Node276</title>
<g id="a_node13"><a xlink:href="_linear_profile_8cpp.html" target="_top" xlink:title=" ">
<polygon fill="white" stroke="black" points="1669,-56.5 1669,-75.5 1767,-75.5 1767,-56.5 1669,-56.5"/>
<text text-anchor="middle" x="1718" y="-63.5" font-family="Helvetica,sans-Serif" font-size="10.00">LinearProfile.cpp</text>
</a>
</g>
</g>
<!-- Node2&#45;&gt;Node276 -->
<g id="edge44" class="edge">
<title>Node2&#45;&gt;Node276</title>
<path fill="none" stroke="midnightblue" d="M2391.37,-176.5C2500.07,-174.61 2823.8,-166.14 2855,-132 2861,-125.44 2861.17,-118.4 2855,-112 2817.9,-73.48 1946.43,-78.37 1893,-76 1850.45,-74.11 1802.1,-71.6 1767.02,-69.7"/>
<polygon fill="midnightblue" stroke="midnightblue" points="2391.18,-173.01 2381.24,-176.67 2391.3,-180 2391.18,-173.01"/>
</g>
<!-- Node62 -->
<g id="node14" class="node">
<title>Node62</title>
<g id="a_node14"><a xlink:href="_power_law_profile_8cpp.html" target="_top" xlink:title=" ">
<polygon fill="white" stroke="black" points="1902.5,-56.5 1902.5,-75.5 2019.5,-75.5 2019.5,-56.5 1902.5,-56.5"/>
<text text-anchor="middle" x="1961" y="-63.5" font-family="Helvetica,sans-Serif" font-size="10.00">PowerLawProfile.cpp</text>
</a>
</g>
</g>
<!-- Node2&#45;&gt;Node62 -->
<g id="edge45" class="edge">
<title>Node2&#45;&gt;Node62</title>
<path fill="none" stroke="midnightblue" d="M2391.47,-176.62C2617.26,-174.15 3845.36,-159.45 3872,-132 3878.19,-125.62 3878.21,-118.36 3872,-112 3855.41,-95.01 2339.34,-72.41 2019.73,-67.83"/>
<polygon fill="midnightblue" stroke="midnightblue" points="2391.15,-173.13 2381.19,-176.74 2391.23,-180.13 2391.15,-173.13"/>
</g>
<!-- Node277 -->
<g id="node15" class="node">
<title>Node277</title>
<g id="a_node15"><a xlink:href="_u_d_f_8cpp.html" target="_top" xlink:title=" ">
<polygon fill="white" stroke="black" points="2936,-56.5 2936,-75.5 2992,-75.5 2992,-56.5 2936,-56.5"/>
<text text-anchor="middle" x="2964" y="-63.5" font-family="Helvetica,sans-Serif" font-size="10.00">UDF.cpp</text>
</a>
</g>
</g>
<!-- Node2&#45;&gt;Node277 -->
<g id="edge46" class="edge">
<title>Node2&#45;&gt;Node277</title>
<path fill="none" stroke="midnightblue" d="M2391.17,-176.64C2617.64,-174.24 3862.02,-159.78 3889,-132 3895.19,-125.62 3895.13,-118.44 3889,-112 3857.29,-78.71 3143.69,-68.98 2992.13,-67.29"/>
<polygon fill="midnightblue" stroke="midnightblue" points="2391.13,-173.14 2381.16,-176.74 2391.2,-180.14 2391.13,-173.14"/>
</g>
<!-- Node160 -->
<g id="node16" class="node">
<title>Node160</title>
<g id="a_node16"><a xlink:href="_re_averaging_8cpp.html" target="_top" xlink:title=" ">
<polygon fill="white" stroke="black" points="3459,-56.5 3459,-75.5 3557,-75.5 3557,-56.5 3459,-56.5"/>
<text text-anchor="middle" x="3508" y="-63.5" font-family="Helvetica,sans-Serif" font-size="10.00">ReAveraging.cpp</text>
</a>
</g>
</g>
<!-- Node2&#45;&gt;Node160 -->
<g id="edge48" class="edge">
<title>Node2&#45;&gt;Node160</title>
<path fill="none" stroke="midnightblue" d="M2391.2,-176.65C2619.21,-174.31 3878.71,-160.1 3906,-132 3955.7,-80.84 3674.17,-69.94 3557.18,-67.62"/>
<polygon fill="midnightblue" stroke="midnightblue" points="2391.09,-173.15 2381.13,-176.75 2391.16,-180.15 2391.09,-173.15"/>
</g>
<!-- Node161 -->
<g id="node17" class="node">
<title>Node161</title>
<g id="a_node17"><a xlink:href="_reynolds_stress_8cpp.html" target="_top" xlink:title=" ">
<polygon fill="white" stroke="black" points="344,-56.5 344,-75.5 456,-75.5 456,-56.5 344,-56.5"/>
<text text-anchor="middle" x="400" y="-63.5" font-family="Helvetica,sans-Serif" font-size="10.00">ReynoldsStress.cpp</text>
</a>
</g>
</g>
<!-- Node2&#45;&gt;Node161 -->
<g id="edge49" class="edge">
<title>Node2&#45;&gt;Node161</title>
<path fill="none" stroke="midnightblue" d="M2320.68,-176.93C2047.06,-176.31 275,-170.82 237,-132 230.78,-125.65 231.62,-119.07 237,-112 250.07,-94.83 301.88,-82.54 343.62,-75.19"/>
<polygon fill="midnightblue" stroke="midnightblue" points="2320.83,-180.43 2330.84,-176.95 2320.85,-173.43 2320.83,-180.43"/>
</g>
<!-- Node283 -->
<g id="node18" class="node">
<title>Node283</title>
<g id="a_node18"><a xlink:href="_mesh_map_8_h.html" target="_top" xlink:title=" ">
<polygon fill="white" stroke="red" points="429,-112.5 429,-131.5 503,-131.5 503,-112.5 429,-112.5"/>
<text text-anchor="middle" x="466" y="-119.5" font-family="Helvetica,sans-Serif" font-size="10.00">MeshMap.H</text>
</a>
</g>
</g>
<!-- Node2&#45;&gt;Node283 -->
<g id="edge23" class="edge">
<title>Node2&#45;&gt;Node283</title>
<path fill="none" stroke="midnightblue" d="M2320.72,-176.95C2097.76,-176.53 881.59,-172.37 512,-132 509.09,-131.68 506.09,-131.28 503.07,-130.81"/>
<polygon fill="midnightblue" stroke="midnightblue" points="2320.87,-180.45 2330.87,-176.97 2320.88,-173.45 2320.87,-180.45"/>
</g>
<!-- Node288 -->
<g id="node19" class="node">
<title>Node288</title>
<g id="a_node19"><a xlink:href="_boussinesq_bubble_8_h.html" target="_top" xlink:title=" ">
<polygon fill="white" stroke="red" points="521,-112.5 521,-131.5 637,-131.5 637,-112.5 521,-112.5"/>
<text text-anchor="middle" x="579" y="-119.5" font-family="Helvetica,sans-Serif" font-size="10.00">BoussinesqBubble.H</text>
</a>
</g>
</g>
<!-- Node2&#45;&gt;Node288 -->
<g id="edge25" class="edge">
<title>Node2&#45;&gt;Node288</title>
<path fill="none" stroke="midnightblue" d="M2320.68,-176.59C2107.33,-174.02 988.25,-159.41 646,-132 643.08,-131.77 640.08,-131.49 637.06,-131.19"/>
<polygon fill="midnightblue" stroke="midnightblue" points="2320.94,-180.09 2330.98,-176.71 2321.02,-173.09 2320.94,-180.09"/>
</g>
<!-- Node136 -->
<g id="node20" class="node">
<title>Node136</title>
<g id="a_node20"><a xlink:href="_channel_flow_8_h.html" target="_top" xlink:title=" ">
<polygon fill="white" stroke="red" points="655.5,-112.5 655.5,-131.5 744.5,-131.5 744.5,-112.5 655.5,-112.5"/>
<text text-anchor="middle" x="700" y="-119.5" font-family="Helvetica,sans-Serif" font-size="10.00">ChannelFlow.H</text>
</a>
</g>
</g>
<!-- Node2&#45;&gt;Node136 -->
<g id="edge26" class="edge">
<title>Node2&#45;&gt;Node136</title>
<path fill="none" stroke="midnightblue" d="M2320.63,-176.68C2115.07,-174.73 1072.15,-163.42 753,-132 750.31,-131.73 747.54,-131.41 744.76,-131.05"/>
<polygon fill="midnightblue" stroke="midnightblue" points="2320.82,-180.18 2330.85,-176.78 2320.89,-173.18 2320.82,-180.18"/>
</g>
<!-- Node138 -->
<g id="node21" class="node">
<title>Node138</title>
<g id="a_node21"><a xlink:href="_convecting_taylor_vortex_8_h.html" target="_top" xlink:title=" ">
<polygon fill="white" stroke="red" points="762.5,-112.5 762.5,-131.5 905.5,-131.5 905.5,-112.5 762.5,-112.5"/>
<text text-anchor="middle" x="834" y="-119.5" font-family="Helvetica,sans-Serif" font-size="10.00">ConvectingTaylorVortex.H</text>
</a>
</g>
</g>
<!-- Node2&#45;&gt;Node138 -->
<g id="edge27" class="edge">
<title>Node2&#45;&gt;Node138</title>
<path fill="none" stroke="midnightblue" d="M2320.49,-176.95C2158.55,-176.49 1473.86,-172.16 914,-132 911.21,-131.8 908.37,-131.58 905.5,-131.33"/>
<polygon fill="midnightblue" stroke="midnightblue" points="2320.81,-180.45 2330.82,-176.97 2320.83,-173.45 2320.81,-180.45"/>
</g>
<!-- Node140 -->
<g id="node22" class="node">
<title>Node140</title>
<g id="a_node22"><a xlink:href="_ekman_spiral_8_h.html" target="_top" xlink:title=" ">
<polygon fill="white" stroke="red" points="923.5,-112.5 923.5,-131.5 1012.5,-131.5 1012.5,-112.5 923.5,-112.5"/>
<text text-anchor="middle" x="968" y="-119.5" font-family="Helvetica,sans-Serif" font-size="10.00">EkmanSpiral.H</text>
</a>
</g>
</g>
<!-- Node2&#45;&gt;Node140 -->
<g id="edge28" class="edge">
<title>Node2&#45;&gt;Node140</title>
<path fill="none" stroke="midnightblue" d="M2320.63,-176.45C2136.25,-173.5 1283.83,-158.62 1021,-132 1018.31,-131.73 1015.54,-131.4 1012.76,-131.04"/>
<polygon fill="midnightblue" stroke="midnightblue" points="2320.78,-179.96 2330.84,-176.61 2320.9,-172.96 2320.78,-179.96"/>
</g>
<!-- Node289 -->
<g id="node23" class="node">
<title>Node289</title>
<g id="a_node23"><a xlink:href="_free_stream_8_h.html" target="_top" xlink:title=" ">
<polygon fill="white" stroke="red" points="1030.5,-112.5 1030.5,-131.5 1113.5,-131.5 1113.5,-112.5 1030.5,-112.5"/>
<text text-anchor="middle" x="1072" y="-119.5" font-family="Helvetica,sans-Serif" font-size="10.00">FreeStream.H</text>
</a>
</g>
</g>
<!-- Node2&#45;&gt;Node289 -->
<g id="edge29" class="edge">
<title>Node2&#45;&gt;Node289</title>
<path fill="none" stroke="midnightblue" d="M2320.52,-176.39C2144.45,-173.23 1363.52,-158.01 1122,-132 1119.28,-131.71 1116.49,-131.35 1113.68,-130.96"/>
<polygon fill="midnightblue" stroke="midnightblue" points="2320.48,-179.89 2330.54,-176.56 2320.6,-172.89 2320.48,-179.89"/>
</g>
<!-- Node143 -->
<g id="node24" class="node">
<title>Node143</title>
<g id="a_node24"><a xlink:href="_hybrid_r_a_n_s_l_e_s_a_b_l_8_h.html" target="_top" xlink:title=" ">
<polygon fill="white" stroke="red" points="1131.5,-112.5 1131.5,-131.5 1254.5,-131.5 1254.5,-112.5 1131.5,-112.5"/>
<text text-anchor="middle" x="1193" y="-119.5" font-family="Helvetica,sans-Serif" font-size="10.00">HybridRANSLESABL.H</text>
</a>
</g>
</g>
<!-- Node2&#45;&gt;Node143 -->
<g id="edge30" class="edge">
<title>Node2&#45;&gt;Node143</title>
<path fill="none" stroke="midnightblue" d="M2320.66,-176.66C2184.12,-175.1 1678.02,-167.16 1263,-132 1260.31,-131.77 1257.57,-131.52 1254.81,-131.24"/>
<polygon fill="midnightblue" stroke="midnightblue" points="2320.89,-180.16 2330.93,-176.77 2320.97,-173.16 2320.89,-180.16"/>
</g>
<!-- Node145 -->
<g id="node25" class="node">
<title>Node145</title>
<g id="a_node25"><a xlink:href="_m_m_s_8_h.html" target="_top" xlink:title=" ">
<polygon fill="white" stroke="red" points="1272.5,-112.5 1272.5,-131.5 1323.5,-131.5 1323.5,-112.5 1272.5,-112.5"/>
<text text-anchor="middle" x="1298" y="-119.5" font-family="Helvetica,sans-Serif" font-size="10.00">MMS.H</text>
</a>
</g>
</g>
<!-- Node2&#45;&gt;Node145 -->
<g id="edge31" class="edge">
<title>Node2&#45;&gt;Node145</title>
<path fill="none" stroke="midnightblue" d="M2320.94,-176.47C2164.44,-173.95 1528.9,-162.03 1332,-132 1329.34,-131.59 1326.6,-131.06 1323.87,-130.46"/>
<polygon fill="midnightblue" stroke="midnightblue" points="2320.9,-179.97 2330.95,-176.63 2321.01,-172.97 2320.9,-179.97"/>
</g>
<!-- Node290 -->
<g id="node26" class="node">
<title>Node290</title>
<g id="a_node26"><a xlink:href="_dam_break_8_h.html" target="_top" xlink:title=" ">
<polygon fill="white" stroke="red" points="1341.5,-112.5 1341.5,-131.5 1420.5,-131.5 1420.5,-112.5 1341.5,-112.5"/>
<text text-anchor="middle" x="1381" y="-119.5" font-family="Helvetica,sans-Serif" font-size="10.00">DamBreak.H</text>
</a>
</g>
</g>
<!-- Node2&#45;&gt;Node290 -->
<g id="edge32" class="edge">
<title>Node2&#45;&gt;Node290</title>
<path fill="none" stroke="midnightblue" d="M2320.46,-177.02C2196.89,-176.72 1774.63,-172.6 1429,-132 1426.31,-131.68 1423.53,-131.31 1420.75,-130.89"/>
<polygon fill="midnightblue" stroke="midnightblue" points="2320.82,-180.52 2330.82,-177.04 2320.83,-173.52 2320.82,-180.52"/>
</g>
<!-- Node291 -->
<g id="node27" class="node">
<title>Node291</title>
<g id="a_node27"><a xlink:href="_multi_phase_8_h.html" target="_top" xlink:title=" ">
<polygon fill="white" stroke="red" points="1438.5,-112.5 1438.5,-131.5 1519.5,-131.5 1519.5,-112.5 1438.5,-112.5"/>
<text text-anchor="middle" x="1479" y="-119.5" font-family="Helvetica,sans-Serif" font-size="10.00">MultiPhase.H</text>
</a>
</g>
</g>
<!-- Node2&#45;&gt;Node291 -->
<g id="edge33" class="edge">
<title>Node2&#45;&gt;Node291</title>
<path fill="none" stroke="midnightblue" d="M2320.58,-176.64C2205.83,-175.13 1834.07,-167.62 1529,-132 1525.93,-131.64 1522.77,-131.21 1519.6,-130.74"/>
<polygon fill="midnightblue" stroke="midnightblue" points="2320.83,-180.14 2330.87,-176.77 2320.91,-173.14 2320.83,-180.14"/>
</g>
<!-- Node292 -->
<g id="node28" class="node">
<title>Node292</title>
<g id="a_node28"><a xlink:href="_rain_drop_8_h.html" target="_top" xlink:title=" ">
<polygon fill="white" stroke="red" points="1538,-112.5 1538,-131.5 1610,-131.5 1610,-112.5 1538,-112.5"/>
<text text-anchor="middle" x="1574" y="-119.5" font-family="Helvetica,sans-Serif" font-size="10.00">RainDrop.H</text>
</a>
</g>
</g>
<!-- Node2&#45;&gt;Node292 -->
<g id="edge34" class="edge">
<title>Node2&#45;&gt;Node292</title>
<path fill="none" stroke="midnightblue" d="M2320.56,-176.55C2213.98,-174.82 1887.23,-166.85 1619,-132 1616.16,-131.63 1613.22,-131.19 1610.28,-130.7"/>
<polygon fill="midnightblue" stroke="midnightblue" points="2320.69,-180.05 2330.75,-176.7 2320.8,-173.05 2320.69,-180.05"/>
</g>
<!-- Node293 -->
<g id="node29" class="node">
<title>Node293</title>
<g id="a_node29"><a xlink:href="_sloshing_tank_8_h.html" target="_top" xlink:title=" ">
<polygon fill="white" stroke="red" points="1628.5,-112.5 1628.5,-131.5 1719.5,-131.5 1719.5,-112.5 1628.5,-112.5"/>
<text text-anchor="middle" x="1674" y="-119.5" font-family="Helvetica,sans-Serif" font-size="10.00">SloshingTank.H</text>
</a>
</g>
</g>
<!-- Node2&#45;&gt;Node293 -->
<g id="edge35" class="edge">
<title>Node2&#45;&gt;Node293</title>
<path fill="none" stroke="midnightblue" d="M2320.8,-175.63C2225.22,-171.68 1952.93,-158.74 1728,-132 1725.26,-131.67 1722.45,-131.31 1719.62,-130.91"/>
<polygon fill="midnightblue" stroke="midnightblue" points="2320.66,-179.13 2330.79,-176.04 2320.94,-172.14 2320.66,-179.13"/>
</g>
<!-- Node294 -->
<g id="node30" class="node">
<title>Node294</title>
<g id="a_node30"><a xlink:href="_vortex_patch_8_h.html" target="_top" xlink:title=" ">
<polygon fill="white" stroke="red" points="1737.5,-112.5 1737.5,-131.5 1822.5,-131.5 1822.5,-112.5 1737.5,-112.5"/>
<text text-anchor="middle" x="1780" y="-119.5" font-family="Helvetica,sans-Serif" font-size="10.00">VortexPatch.H</text>
</a>
</g>
</g>
<!-- Node2&#45;&gt;Node294 -->
<g id="edge36" class="edge">
<title>Node2&#45;&gt;Node294</title>
<path fill="none" stroke="midnightblue" d="M2320.74,-175.02C2236.18,-170.04 2015.23,-155.68 1832,-132 1828.91,-131.6 1825.72,-131.15 1822.52,-130.67"/>
<polygon fill="midnightblue" stroke="midnightblue" points="2320.64,-178.52 2330.83,-175.61 2321.05,-171.53 2320.64,-178.52"/>
</g>
<!-- Node295 -->
<g id="node31" class="node">
<title>Node295</title>
<g id="a_node31"><a xlink:href="_vortex_patch_scalar_vel_8_h.html" target="_top" xlink:title=" ">
<polygon fill="white" stroke="red" points="1841,-112.5 1841,-131.5 1971,-131.5 1971,-112.5 1841,-112.5"/>
<text text-anchor="middle" x="1906" y="-119.5" font-family="Helvetica,sans-Serif" font-size="10.00">VortexPatchScalarVel.H</text>
</a>
</g>
</g>
<!-- Node2&#45;&gt;Node295 -->
<g id="edge37" class="edge">
<title>Node2&#45;&gt;Node295</title>
<path fill="none" stroke="midnightblue" d="M2320.97,-172.83C2254.5,-164.91 2105.46,-147.14 1980,-132 1977.17,-131.66 1974.29,-131.31 1971.37,-130.96"/>
<polygon fill="midnightblue" stroke="midnightblue" points="2320.57,-176.31 2330.92,-174.01 2321.4,-169.36 2320.57,-176.31"/>
</g>
<!-- Node296 -->
<g id="node32" class="node">
<title>Node296</title>
<g id="a_node32"><a xlink:href="_zalesak_disk_8_h.html" target="_top" xlink:title=" ">
<polygon fill="white" stroke="red" points="1989,-112.5 1989,-131.5 2077,-131.5 2077,-112.5 1989,-112.5"/>
<text text-anchor="middle" x="2033" y="-119.5" font-family="Helvetica,sans-Serif" font-size="10.00">ZalesakDisk.H</text>
</a>
</g>
</g>
<!-- Node2&#45;&gt;Node296 -->
<g id="edge38" class="edge">
<title>Node2&#45;&gt;Node296</title>
<path fill="none" stroke="midnightblue" d="M2320.72,-171.16C2269.16,-162.6 2170.18,-146.16 2086,-132 2083.15,-131.52 2080.21,-131.02 2077.24,-130.52"/>
<polygon fill="midnightblue" stroke="midnightblue" points="2320.25,-174.62 2330.68,-172.81 2321.39,-167.72 2320.25,-174.62"/>
</g>
<!-- Node297 -->
<g id="node33" class="node">
<title>Node297</title>
<g id="a_node33"><a xlink:href="_zalesak_disk_scalar_vel_8_h.html" target="_top" xlink:title=" ">
<polygon fill="white" stroke="red" points="2095.5,-112.5 2095.5,-131.5 2228.5,-131.5 2228.5,-112.5 2095.5,-112.5"/>
<text text-anchor="middle" x="2162" y="-119.5" font-family="Helvetica,sans-Serif" font-size="10.00">ZalesakDiskScalarVel.H</text>
</a>
</g>
</g>
<!-- Node2&#45;&gt;Node297 -->
<g id="edge39" class="edge">
<title>Node2&#45;&gt;Node297</title>
<path fill="none" stroke="midnightblue" d="M2320.9,-167.23C2284.35,-157.06 2227.68,-141.28 2192.81,-131.58"/>
<polygon fill="midnightblue" stroke="midnightblue" points="2320.07,-170.63 2330.64,-169.94 2321.94,-163.89 2320.07,-170.63"/>
</g>
<!-- Node298 -->
<g id="node34" class="node">
<title>Node298</title>
<g id="a_node34"><a xlink:href="_rayleigh_taylor_8_h.html" target="_top" xlink:title=" ">
<polygon fill="white" stroke="red" points="2247,-112.5 2247,-131.5 2345,-131.5 2345,-112.5 2247,-112.5"/>
<text text-anchor="middle" x="2296" y="-119.5" font-family="Helvetica,sans-Serif" font-size="10.00">RayleighTaylor.H</text>
</a>
</g>
</g>
<!-- Node2&#45;&gt;Node298 -->
<g id="edge40" class="edge">
<title>Node2&#45;&gt;Node298</title>
<path fill="none" stroke="midnightblue" d="M2338.82,-161.54C2328.12,-151.91 2314.74,-139.87 2305.82,-131.83"/>
<polygon fill="midnightblue" stroke="midnightblue" points="2336.59,-164.24 2346.36,-168.32 2341.27,-159.03 2336.59,-164.24"/>
</g>
<!-- Node299 -->
<g id="node35" class="node">
<title>Node299</title>
<g id="a_node35"><a xlink:href="_scalar_advection_8_h.html" target="_top" xlink:title=" ">
<polygon fill="white" stroke="red" points="2363,-112.5 2363,-131.5 2469,-131.5 2469,-112.5 2363,-112.5"/>
<text text-anchor="middle" x="2416" y="-119.5" font-family="Helvetica,sans-Serif" font-size="10.00">ScalarAdvection.H</text>
</a>
</g>
</g>
<!-- Node2&#45;&gt;Node299 -->
<g id="edge41" class="edge">
<title>Node2&#45;&gt;Node299</title>
<path fill="none" stroke="midnightblue" d="M2373.18,-161.54C2383.88,-151.91 2397.26,-139.87 2406.18,-131.83"/>
<polygon fill="midnightblue" stroke="midnightblue" points="2370.73,-159.03 2365.64,-168.32 2375.41,-164.24 2370.73,-159.03"/>
</g>
<!-- Node154 -->
<g id="node36" class="node">
<title>Node154</title>
<g id="a_node36"><a xlink:href="_synthetic_turbulence_8_h.html" target="_top" xlink:title=" ">
<polygon fill="white" stroke="red" points="2487.5,-112.5 2487.5,-131.5 2612.5,-131.5 2612.5,-112.5 2487.5,-112.5"/>
<text text-anchor="middle" x="2550" y="-119.5" font-family="Helvetica,sans-Serif" font-size="10.00">SyntheticTurbulence.H</text>
</a>
</g>
</g>
<!-- Node2&#45;&gt;Node154 -->
<g id="edge42" class="edge">
<title>Node2&#45;&gt;Node154</title>
<path fill="none" stroke="midnightblue" d="M2391.1,-167.23C2427.65,-157.06 2484.32,-141.28 2519.19,-131.58"/>
<polygon fill="midnightblue" stroke="midnightblue" points="2390.06,-163.89 2381.36,-169.94 2391.93,-170.63 2390.06,-163.89"/>
</g>
<!-- Node300 -->
<g id="node37" class="node">
<title>Node300</title>
<g id="a_node37"><a xlink:href="_taylor_green_vortex_8_h.html" target="_top" xlink:title=" ">
<polygon fill="white" stroke="red" points="2630.5,-112.5 2630.5,-131.5 2747.5,-131.5 2747.5,-112.5 2630.5,-112.5"/>
<text text-anchor="middle" x="2689" y="-119.5" font-family="Helvetica,sans-Serif" font-size="10.00">TaylorGreenVortex.H</text>
</a>
</g>
</g>
<!-- Node2&#45;&gt;Node300 -->
<g id="edge43" class="edge">
<title>Node2&#45;&gt;Node300</title>
<path fill="none" stroke="midnightblue" d="M2390.91,-171.34C2449.5,-161.84 2567.93,-142.63 2636.57,-131.5"/>
<polygon fill="midnightblue" stroke="midnightblue" points="2390.34,-167.89 2381.03,-172.94 2391.46,-174.8 2390.34,-167.89"/>
</g>
<!-- Node301 -->
<g id="node38" class="node">
<title>Node301</title>
<g id="a_node38"><a xlink:href="_vortex_ring_8_h.html" target="_top" xlink:title=" ">
<polygon fill="white" stroke="red" points="2766,-112.5 2766,-131.5 2846,-131.5 2846,-112.5 2766,-112.5"/>
<text text-anchor="middle" x="2806" y="-119.5" font-family="Helvetica,sans-Serif" font-size="10.00">VortexRing.H</text>
</a>
</g>
</g>
<!-- Node2&#45;&gt;Node301 -->
<g id="edge47" class="edge">
<title>Node2&#45;&gt;Node301</title>
<path fill="none" stroke="midnightblue" d="M2391.37,-173.81C2461.25,-167.34 2621.82,-151.6 2756,-132 2759.23,-131.53 2762.57,-131 2765.92,-130.45"/>
<polygon fill="midnightblue" stroke="midnightblue" points="2390.98,-170.33 2381.35,-174.73 2391.62,-177.3 2390.98,-170.33"/>
</g>
<!-- Node167 -->
<g id="node39" class="node">
<title>Node167</title>
<g id="a_node39"><a xlink:href="_field_plane_averaging_8_h.html" target="_top" xlink:title=" ">
<polygon fill="white" stroke="red" points="4174,-112.5 4174,-131.5 4300,-131.5 4300,-112.5 4174,-112.5"/>
<text text-anchor="middle" x="4237" y="-119.5" font-family="Helvetica,sans-Serif" font-size="10.00">FieldPlaneAveraging.H</text>
</a>
</g>
</g>
<!-- Node2&#45;&gt;Node167 -->
<g id="edge50" class="edge">
<title>Node2&#45;&gt;Node167</title>
<path fill="none" stroke="midnightblue" d="M2391.44,-177.32C2576.31,-178.74 3448.75,-182.33 4160,-132 4164.43,-131.69 4169,-131.3 4173.59,-130.88"/>
<polygon fill="midnightblue" stroke="midnightblue" points="2391.24,-173.82 2381.22,-177.24 2391.19,-180.82 2391.24,-173.82"/>
</g>
<!-- Node171 -->
<g id="node40" class="node">
<title>Node171</title>
<g id="a_node40"><a xlink:href="_second_moment_averaging_8_h.html" target="_top" xlink:title=" ">
<polygon fill="white" stroke="red" points="4099,-56.5 4099,-75.5 4251,-75.5 4251,-56.5 4099,-56.5"/>
<text text-anchor="middle" x="4175" y="-63.5" font-family="Helvetica,sans-Serif" font-size="10.00">SecondMomentAveraging.H</text>
</a>
</g>
</g>
<!-- Node2&#45;&gt;Node171 -->
<g id="edge55" class="edge">
<title>Node2&#45;&gt;Node171</title>
<path fill="none" stroke="midnightblue" d="M2391.4,-176.93C2633.79,-176.39 4041.49,-171.5 4122,-132 4146.58,-119.94 4163.64,-90.54 4170.97,-75.77"/>
<polygon fill="midnightblue" stroke="midnightblue" points="2391.05,-173.44 2381.05,-176.96 2391.06,-180.44 2391.05,-173.44"/>
</g>
<!-- Node173 -->
<g id="node41" class="node">
<title>Node173</title>
<g id="a_node41"><a xlink:href="_third_moment_averaging_8_h.html" target="_top" xlink:title=" ">
<polygon fill="white" stroke="red" points="4269.5,-56.5 4269.5,-75.5 4410.5,-75.5 4410.5,-56.5 4269.5,-56.5"/>
<text text-anchor="middle" x="4340" y="-63.5" font-family="Helvetica,sans-Serif" font-size="10.00">ThirdMomentAveraging.H</text>
</a>
</g>
</g>
<!-- Node2&#45;&gt;Node173 -->
<g id="edge56" class="edge">
<title>Node2&#45;&gt;Node173</title>
<path fill="none" stroke="midnightblue" d="M2391.21,-176.7C2651.44,-174.41 4267.12,-159.11 4309,-132 4328.73,-119.23 4336.2,-90.16 4338.78,-75.62"/>
<polygon fill="midnightblue" stroke="midnightblue" points="2391.15,-173.2 2381.18,-176.79 2391.21,-180.2 2391.15,-173.2"/>
</g>
<!-- Node175 -->
<g id="node42" class="node">
<title>Node175</title>
<g id="a_node42"><a xlink:href="_field_plane_averaging_fine_8_h.html" target="_top" xlink:title=" ">
<polygon fill="white" stroke="red" points="2902,-112.5 2902,-131.5 3048,-131.5 3048,-112.5 2902,-112.5"/>
<text text-anchor="middle" x="2975" y="-119.5" font-family="Helvetica,sans-Serif" font-size="10.00">FieldPlaneAveragingFine.H</text>
</a>
</g>
</g>
<!-- Node2&#45;&gt;Node175 -->
<g id="edge53" class="edge">
<title>Node2&#45;&gt;Node175</title>
<path fill="none" stroke="midnightblue" d="M2391.4,-174.24C2476.83,-167.51 2701.05,-149.58 2888,-132 2892.54,-131.57 2897.2,-131.12 2901.91,-130.66"/>
<polygon fill="midnightblue" stroke="midnightblue" points="2390.91,-170.76 2381.21,-175.04 2391.46,-177.74 2390.91,-170.76"/>
</g>
<!-- Node302 -->
<g id="node43" class="node">
<title>Node302</title>
<g id="a_node43"><a xlink:href="_sampling_container_8cpp.html" target="_top" xlink:title=" ">
<polygon fill="white" stroke="black" points="3066.5,-112.5 3066.5,-131.5 3195.5,-131.5 3195.5,-112.5 3066.5,-112.5"/>
<text text-anchor="middle" x="3131" y="-119.5" font-family="Helvetica,sans-Serif" font-size="10.00">SamplingContainer.cpp</text>
</a>
</g>
</g>
<!-- Node2&#45;&gt;Node302 -->
<g id="edge54" class="edge">
<title>Node2&#45;&gt;Node302</title>
<path fill="none" stroke="midnightblue" d="M2391.32,-175.44C2494.16,-170.76 2802.21,-155.65 3057,-132 3060.09,-131.71 3063.26,-131.4 3066.45,-131.07"/>
<polygon fill="midnightblue" stroke="midnightblue" points="2391.02,-171.95 2381.19,-175.9 2391.34,-178.95 2391.02,-171.95"/>
</g>
<!-- Node201 -->
<g id="node44" class="node">
<title>Node201</title>
<g id="a_node44"><a xlink:href="_a_b_l_boundary_plane_8_h.html" target="_top" xlink:title=" ">
<polygon fill="white" stroke="red" points="3213.5,-112.5 3213.5,-131.5 3332.5,-131.5 3332.5,-112.5 3213.5,-112.5"/>
<text text-anchor="middle" x="3273" y="-119.5" font-family="Helvetica,sans-Serif" font-size="10.00">ABLBoundaryPlane.H</text>
</a>
</g>
</g>
<!-- Node2&#45;&gt;Node201 -->
<g id="edge57" class="edge">
<title>Node2&#45;&gt;Node201</title>
<path fill="none" stroke="midnightblue" d="M2391.11,-176.1C2507.23,-172.93 2889.36,-160.83 3204,-132 3207.01,-131.72 3210.09,-131.42 3213.19,-131.09"/>
<polygon fill="midnightblue" stroke="midnightblue" points="2390.93,-172.61 2381.02,-176.37 2391.11,-179.6 2390.93,-172.61"/>
</g>
<!-- Node303 -->
<g id="node45" class="node">
<title>Node303</title>
<g id="a_node45"><a xlink:href="_a_b_l_field_init_8_h.html" target="_top" xlink:title=" ">
<polygon fill="white" stroke="red" points="3350.5,-112.5 3350.5,-131.5 3435.5,-131.5 3435.5,-112.5 3350.5,-112.5"/>
<text text-anchor="middle" x="3393" y="-119.5" font-family="Helvetica,sans-Serif" font-size="10.00">ABLFieldInit.H</text>
</a>
</g>
</g>
<!-- Node2&#45;&gt;Node303 -->
<g id="edge58" class="edge">
<title>Node2&#45;&gt;Node303</title>
<path fill="none" stroke="midnightblue" d="M2391.22,-176.99C2519.12,-176.61 2971.05,-172.3 3341,-132 3344.1,-131.66 3347.29,-131.26 3350.49,-130.8"/>
<polygon fill="midnightblue" stroke="midnightblue" points="2391.2,-173.49 2381.2,-177.01 2391.21,-180.49 2391.2,-173.49"/>
</g>
<!-- Node305 -->
<g id="node46" class="node">
<title>Node305</title>
<g id="a_node46"><a xlink:href="_a_b_l_field_init_file_8_h.html" target="_top" xlink:title=" ">
<polygon fill="white" stroke="red" points="3454,-112.5 3454,-131.5 3556,-131.5 3556,-112.5 3454,-112.5"/>
<text text-anchor="middle" x="3505" y="-119.5" font-family="Helvetica,sans-Serif" font-size="10.00">ABLFieldInitFile.H</text>
</a>
</g>
</g>
<!-- Node2&#45;&gt;Node305 -->
<g id="edge59" class="edge">
<title>Node2&#45;&gt;Node305</title>
<path fill="none" stroke="midnightblue" d="M2391.66,-176.89C2528.31,-176.16 3031.68,-170.84 3444,-132 3447.2,-131.7 3450.48,-131.34 3453.79,-130.95"/>
<polygon fill="midnightblue" stroke="midnightblue" points="2391.35,-173.39 2381.37,-176.93 2391.39,-180.39 2391.35,-173.39"/>
</g>
<!-- Node202 -->
<g id="node47" class="node">
<title>Node202</title>
<g id="a_node47"><a xlink:href="_a_b_l_modulated_power_law_8_h.html" target="_top" xlink:title=" ">
<polygon fill="white" stroke="red" points="3574,-112.5 3574,-131.5 3720,-131.5 3720,-112.5 3574,-112.5"/>
<text text-anchor="middle" x="3647" y="-119.5" font-family="Helvetica,sans-Serif" font-size="10.00">ABLModulatedPowerLaw.H</text>
</a>
</g>
</g>
<!-- Node2&#45;&gt;Node202 -->
<g id="edge60" class="edge">
<title>Node2&#45;&gt;Node202</title>
<path fill="none" stroke="midnightblue" d="M2391.23,-176.62C2536.31,-174.84 3101.61,-166.01 3565,-132 3567.86,-131.79 3570.77,-131.56 3573.71,-131.31"/>
<polygon fill="midnightblue" stroke="midnightblue" points="2391.1,-173.12 2381.14,-176.74 2391.18,-180.12 2391.1,-173.12"/>
</g>
<!-- Node307 -->
<g id="node48" class="node">
<title>Node307</title>
<g id="a_node48"><a xlink:href="_actuator_container_8cpp.html" target="_top" xlink:title=" ">
<polygon fill="white" stroke="black" points="3738.5,-112.5 3738.5,-131.5 3863.5,-131.5 3863.5,-112.5 3738.5,-112.5"/>
<text text-anchor="middle" x="3801" y="-119.5" font-family="Helvetica,sans-Serif" font-size="10.00">ActuatorContainer.cpp</text>
</a>
</g>
</g>
<!-- Node2&#45;&gt;Node307 -->
<g id="edge61" class="edge">
<title>Node2&#45;&gt;Node307</title>
<path fill="none" stroke="midnightblue" d="M2391.35,-177.03C2548.33,-176.92 3197.92,-173.81 3729,-132 3732.01,-131.76 3735.1,-131.49 3738.21,-131.19"/>
<polygon fill="midnightblue" stroke="midnightblue" points="2391.32,-173.53 2381.32,-177.03 2391.32,-180.53 2391.32,-173.53"/>
</g>
<!-- Node4 -->
<g id="node4" class="node">
<title>Node4</title>
<g id="a_node4"><a xlink:href="_b_c_interface_8cpp.html" target="_top" xlink:title=" ">
<polygon fill="white" stroke="black" points="3799,-56.5 3799,-75.5 3893,-75.5 3893,-56.5 3799,-56.5"/>
<text text-anchor="middle" x="3846" y="-63.5" font-family="Helvetica,sans-Serif" font-size="10.00">BCInterface.cpp</text>
</a>
</g>
</g>
<!-- Node3&#45;&gt;Node4 -->
<g id="edge3" class="edge">
<title>Node3&#45;&gt;Node4</title>
<path fill="none" stroke="midnightblue" d="M3997.82,-109.7C3961.58,-99.51 3909.09,-84.74 3876.28,-75.52"/>
<polygon fill="midnightblue" stroke="midnightblue" points="3997,-113.11 4007.58,-112.44 3998.9,-106.37 3997,-113.11"/>
</g>
<!-- Node3&#45;&gt;Node5 -->
<g id="edge4" class="edge">
<title>Node3&#45;&gt;Node5</title>
<path fill="none" stroke="midnightblue" d="M4043.32,-102.5C4047.08,-89.48 4052.28,-71.65 4057,-56 4060.83,-43.31 4065.42,-28.66 4068.27,-19.61"/>
<polygon fill="midnightblue" stroke="midnightblue" points="4039.94,-101.58 4040.53,-112.15 4046.67,-103.51 4039.94,-101.58"/>
</g>
<!-- Node46&#45;&gt;Node5 -->
<g id="edge8" class="edge">
<title>Node46&#45;&gt;Node5</title>
<path fill="none" stroke="midnightblue" d="M4438.78,-102.16C4437.52,-87.32 4433.25,-67.32 4420,-56 4372.34,-15.26 4176.76,-10.92 4101.09,-10.8"/>
<polygon fill="midnightblue" stroke="midnightblue" points="4435.28,-102.44 4439.24,-112.27 4442.28,-102.11 4435.28,-102.44"/>
</g>
<!-- Node46&#45;&gt;Node50 -->
<g id="edge9" class="edge">
<title>Node46&#45;&gt;Node50</title>
<path fill="none" stroke="midnightblue" d="M4461.1,-106.62C4476.26,-96.76 4495.88,-83.99 4508.7,-75.65"/>
<polygon fill="midnightblue" stroke="midnightblue" points="4458.81,-103.94 4452.34,-112.32 4462.63,-109.8 4458.81,-103.94"/>
</g>
<!-- Node50&#45;&gt;Node5 -->
<g id="edge10" class="edge">
<title>Node50&#45;&gt;Node5</title>
<path fill="none" stroke="midnightblue" d="M4456.35,-56.42C4455.23,-56.28 4454.11,-56.14 4453,-56 4322.12,-39.76 4165.82,-21.79 4101.22,-14.43"/>
<polygon fill="midnightblue" stroke="midnightblue" points="4456.29,-59.94 4466.65,-57.72 4457.16,-52.99 4456.29,-59.94"/>
</g>
<!-- Node94&#45;&gt;Node4 -->
<g id="edge13" class="edge">
<title>Node94&#45;&gt;Node4</title>
<path fill="none" stroke="midnightblue" d="M331.72,-112.09C731.81,-75.47 3209.67,-83.71 3566,-76 3647.93,-74.23 3743.31,-70.89 3798.94,-68.81"/>
<polygon fill="midnightblue" stroke="midnightblue" points="331.19,-108.62 321.57,-113.07 331.86,-115.59 331.19,-108.62"/>
</g>
<!-- Node94&#45;&gt;Node5 -->
<g id="edge14" class="edge">
<title>Node94&#45;&gt;Node5</title>
<path fill="none" stroke="midnightblue" d="M331.58,-111.99C919.26,-42.91 1071.96,-73.87 1660,-56 2636.57,-26.33 3836.29,-13.36 4040.72,-11.3"/>
<polygon fill="midnightblue" stroke="midnightblue" points="331.1,-108.52 321.58,-113.17 331.92,-115.47 331.1,-108.52"/>
</g>
<!-- Node235 -->
<g id="node10" class="node">
<title>Node235</title>
<g id="a_node10"><a xlink:href="_int_scratch_field_8cpp.html" target="_top" xlink:title=" ">
<polygon fill="white" stroke="black" points="216.5,-56.5 216.5,-75.5 325.5,-75.5 325.5,-56.5 216.5,-56.5"/>
<text text-anchor="middle" x="271" y="-63.5" font-family="Helvetica,sans-Serif" font-size="10.00">IntScratchField.cpp</text>
</a>
</g>
</g>
<!-- Node94&#45;&gt;Node235 -->
<g id="edge15" class="edge">
<title>Node94&#45;&gt;Node235</title>
<path fill="none" stroke="midnightblue" d="M279.45,-102.1C277.29,-93.14 274.82,-82.86 273.11,-75.75"/>
<polygon fill="midnightblue" stroke="midnightblue" points="276.11,-103.18 281.85,-112.08 282.92,-101.54 276.11,-103.18"/>
</g>
<!-- Node236 -->
<g id="node11" class="node">
<title>Node236</title>
<g id="a_node11"><a xlink:href="_scratch_field_8cpp.html" target="_top" xlink:title=" ">
<polygon fill="white" stroke="black" points="102,-56.5 102,-75.5 198,-75.5 198,-56.5 102,-56.5"/>
<text text-anchor="middle" x="150" y="-63.5" font-family="Helvetica,sans-Serif" font-size="10.00">ScratchField.cpp</text>
</a>
</g>
</g>
<!-- Node94&#45;&gt;Node236 -->
<g id="edge16" class="edge">
<title>Node94&#45;&gt;Node236</title>
<path fill="none" stroke="midnightblue" d="M253.32,-108.64C228.18,-98.5 193.25,-84.43 171.13,-75.52"/>
<polygon fill="midnightblue" stroke="midnightblue" points="252.18,-111.95 262.77,-112.44 254.8,-105.46 252.18,-111.95"/>
</g>
<!-- Node94&#45;&gt;Node237 -->
<g id="edge17" class="edge">
<title>Node94&#45;&gt;Node237</title>
<path fill="none" stroke="midnightblue" d="M236.5,-110.4C190.87,-100.22 122.76,-85.02 80.44,-75.58"/>
<polygon fill="midnightblue" stroke="midnightblue" points="235.93,-113.86 246.45,-112.62 237.46,-107.03 235.93,-113.86"/>
</g>
<!-- Node94&#45;&gt;Node276 -->
<g id="edge18" class="edge">
<title>Node94&#45;&gt;Node276</title>
<path fill="none" stroke="midnightblue" d="M331.94,-111.99C618.23,-81.42 1456.63,-70 1668.79,-67.53"/>
<polygon fill="midnightblue" stroke="midnightblue" points="331.14,-108.56 321.58,-113.14 331.9,-115.52 331.14,-108.56"/>
</g>
<!-- Node94&#45;&gt;Node62 -->
<g id="edge19" class="edge">
<title>Node94&#45;&gt;Node62</title>
<path fill="none" stroke="midnightblue" d="M331.81,-112.02C665.99,-77.24 1458.08,-87.69 1776,-76 1818.26,-74.45 1865.92,-72.11 1902.28,-70.21"/>
<polygon fill="midnightblue" stroke="midnightblue" points="331.15,-108.57 321.58,-113.11 331.89,-115.53 331.15,-108.57"/>
</g>
<!-- Node94&#45;&gt;Node277 -->
<g id="edge20" class="edge">
<title>Node94&#45;&gt;Node277</title>
<path fill="none" stroke="midnightblue" d="M331.72,-112.22C547.12,-96.62 2664.93,-70.62 2935.59,-67.34"/>
<polygon fill="midnightblue" stroke="midnightblue" points="331.24,-108.74 321.57,-113.09 331.84,-115.72 331.24,-108.74"/>
</g>
<!-- Node94&#45;&gt;Node160 -->
<g id="edge21" class="edge">
<title>Node94&#45;&gt;Node160</title>
<path fill="none" stroke="midnightblue" d="M331.97,-112.07C669.68,-81.36 2707.42,-80.58 3001,-76 3168.91,-73.38 3368.08,-69.67 3458.7,-67.95"/>
<polygon fill="midnightblue" stroke="midnightblue" points="331.19,-108.63 321.57,-113.08 331.86,-115.59 331.19,-108.63"/>
</g>
<!-- Node94&#45;&gt;Node161 -->
<g id="edge22" class="edge">
<title>Node94&#45;&gt;Node161</title>
<path fill="none" stroke="midnightblue" d="M311.72,-108.1C333.39,-98.01 362.9,-84.27 381.71,-75.52"/>
<polygon fill="midnightblue" stroke="midnightblue" points="309.97,-105.05 302.38,-112.44 312.92,-111.4 309.97,-105.05"/>
</g>
<!-- Node167&#45;&gt;Node171 -->
<g id="edge51" class="edge">
<title>Node167&#45;&gt;Node171</title>
<path fill="none" stroke="midnightblue" d="M4219.25,-105.54C4208.19,-95.91 4194.37,-83.87 4185.14,-75.83"/>
<polygon fill="midnightblue" stroke="midnightblue" points="4217.2,-108.4 4227.04,-112.32 4221.8,-103.12 4217.2,-108.4"/>
</g>
<!-- Node167&#45;&gt;Node173 -->
<g id="edge52" class="edge">
<title>Node167&#45;&gt;Node173</title>
<path fill="none" stroke="midnightblue" d="M4262.58,-107.59C4281.62,-97.61 4307.06,-84.27 4323.49,-75.65"/>
<polygon fill="midnightblue" stroke="midnightblue" points="4260.78,-104.58 4253.55,-112.32 4264.03,-110.78 4260.78,-104.58"/>
</g>
<!-- Node308&#45;&gt;Node94 -->
<g id="edge63" class="edge">
<title>Node308&#45;&gt;Node94</title>
<path fill="none" stroke="midnightblue" d="M234.04,-162.1C246.46,-152.38 262.24,-140.03 272.71,-131.83"/>
<polygon fill="midnightblue" stroke="midnightblue" points="231.8,-159.4 226.09,-168.32 236.12,-164.92 231.8,-159.4"/>
</g>
<!-- Node308&#45;&gt;Node235 -->
<g id="edge64" class="edge">
<title>Node308&#45;&gt;Node235</title>
<path fill="none" stroke="midnightblue" d="M206.19,-159.21C200.76,-145.56 196.19,-126.65 204,-112 213.29,-94.56 232.67,-82.68 248.21,-75.53"/>
<polygon fill="midnightblue" stroke="midnightblue" points="203.05,-160.75 210.32,-168.45 209.44,-157.9 203.05,-160.75"/>
</g>
<!-- Node309&#45;&gt;Node94 -->
<g id="edge66" class="edge">
<title>Node309&#45;&gt;Node94</title>
<path fill="none" stroke="midnightblue" d="M142.11,-165.57C176.06,-155.38 224.99,-140.7 255.61,-131.52"/>
<polygon fill="midnightblue" stroke="midnightblue" points="141.09,-162.22 132.52,-168.44 143.11,-168.92 141.09,-162.22"/>
</g>
<!-- Node309&#45;&gt;Node236 -->
<g id="edge67" class="edge">
<title>Node309&#45;&gt;Node236</title>
<path fill="none" stroke="midnightblue" d="M111.53,-159C121.56,-135 138.93,-93.47 146.41,-75.59"/>
<polygon fill="midnightblue" stroke="midnightblue" points="108.24,-157.79 107.61,-168.37 114.7,-160.49 108.24,-157.79"/>
</g>
<!-- Node309&#45;&gt;Node237 -->
<g id="edge68" class="edge">
<title>Node309&#45;&gt;Node237</title>
<path fill="none" stroke="midnightblue" d="M94.22,-159.64C80.75,-135.74 57.01,-93.63 46.84,-75.59"/>
<polygon fill="midnightblue" stroke="midnightblue" points="91.18,-161.38 99.13,-168.37 97.27,-157.94 91.18,-161.38"/>
</g>
</g>
</svg>
