<?xml version="1.0" encoding="UTF-8" standalone="no"?>
<!DOCTYPE svg PUBLIC "-//W3C//DTD SVG 1.1//EN"
 "http://www.w3.org/Graphics/SVG/1.1/DTD/svg11.dtd">
<!-- Generated by graphviz version 2.43.0 (0)
 -->
<!-- Title: amr_wind::turbulence::OneEqKsgsM84&lt; Transport &gt; Pages: 1 -->
<svg width="2735pt" height="718pt"
 viewBox="0.00 0.00 2735.00 718.00" xmlns="http://www.w3.org/2000/svg" xmlns:xlink="http://www.w3.org/1999/xlink">
<g id="graph0" class="graph" transform="scale(1 1) rotate(0) translate(4 714)">
<title>amr_wind::turbulence::OneEqKsgsM84&lt; Transport &gt;</title>
<polygon fill="white" stroke="transparent" points="-4,4 -4,-714 2731,-714 2731,4 -4,4"/>
<!-- Node1 -->
<g id="node1" class="node">
<title>Node1</title>
<g id="a_node1"><a xlink:title="1&#45;equation subgrid scale TKE turbulence model">
<polygon fill="#bfbfbf" stroke="black" points="2561,-504 2561,-534 2727,-534 2727,-504 2561,-504"/>
<text text-anchor="start" x="2569" y="-522" font-family="Helvetica,sans-Serif" font-size="10.00">amr_wind::turbulence</text>
<text text-anchor="middle" x="2644" y="-511" font-family="Helvetica,sans-Serif" font-size="10.00">::OneEqKsgsM84&lt; Transport &gt;</text>
</a>
</g>
</g>
<!-- Node2 -->
<g id="node2" class="node">
<title>Node2</title>
<g id="a_node2"><a xlink:href="classamr__wind_1_1turbulence_1_1_one_eq_ksgs.html" target="_top" xlink:title="Base class for 1&#45;Equation subgrid scale TKE turbulence model.">
<polygon fill="white" stroke="black" points="2379,-542 2379,-572 2524,-572 2524,-542 2379,-542"/>
<text text-anchor="start" x="2387" y="-560" font-family="Helvetica,sans-Serif" font-size="10.00">amr_wind::turbulence</text>
<text text-anchor="middle" x="2451.5" y="-549" font-family="Helvetica,sans-Serif" font-size="10.00">::OneEqKsgs&lt; Transport &gt;</text>
</a>
</g>
</g>
<!-- Node2&#45;&gt;Node1 -->
<g id="edge1" class="edge">
<title>Node2&#45;&gt;Node1</title>
<path fill="none" stroke="midnightblue" d="M2534.29,-540.69C2545.32,-538.49 2556.59,-536.24 2567.5,-534.06"/>
<polygon fill="midnightblue" stroke="midnightblue" points="2533.37,-537.3 2524.25,-542.69 2534.74,-544.16 2533.37,-537.3"/>
</g>
<!-- Node3 -->
<g id="node3" class="node">
<title>Node3</title>
<g id="a_node3"><a xlink:href="classamr__wind_1_1turbulence_1_1_turb_model_base.html" target="_top" xlink:title="Turbulence model aspects common to both LES and RANS models.">
<polygon fill="white" stroke="black" points="2178,-623 2178,-653 2342,-653 2342,-623 2178,-623"/>
<text text-anchor="start" x="2186" y="-641" font-family="Helvetica,sans-Serif" font-size="10.00">amr_wind::turbulence</text>
<text text-anchor="middle" x="2260" y="-630" font-family="Helvetica,sans-Serif" font-size="10.00">::TurbModelBase&lt; Transport &gt;</text>
</a>
</g>
</g>
<!-- Node3&#45;&gt;Node2 -->
<g id="edge2" class="edge">
<title>Node3&#45;&gt;Node2</title>
<path fill="none" stroke="midnightblue" d="M2305.73,-618.88C2339.17,-604.59 2384.25,-585.32 2415.17,-572.1"/>
<polygon fill="midnightblue" stroke="midnightblue" points="2304.02,-615.81 2296.2,-622.95 2306.77,-622.24 2304.02,-615.81"/>
</g>
<!-- Node4 -->
<g id="node4" class="node">
<title>Node4</title>
<g id="a_node4"><a xlink:href="classamr__wind_1_1turbulence_1_1_turb_model.html" target="_top" xlink:title="Turbulence model with a specific transport model.">
<polygon fill="white" stroke="black" points="1932,-596 1932,-626 2072,-626 2072,-596 1932,-596"/>
<text text-anchor="start" x="1940" y="-614" font-family="Helvetica,sans-Serif" font-size="10.00">amr_wind::turbulence</text>
<text text-anchor="middle" x="2002" y="-603" font-family="Helvetica,sans-Serif" font-size="10.00">::TurbModel&lt; Transport &gt;</text>
</a>
</g>
</g>
<!-- Node4&#45;&gt;Node3 -->
<g id="edge3" class="edge">
<title>Node4&#45;&gt;Node3</title>
<path fill="none" stroke="midnightblue" d="M2082.33,-623.08C2084.92,-623.4 2087.48,-623.71 2090,-624 2118.51,-627.31 2149.82,-630.13 2177.66,-632.35"/>
<polygon fill="midnightblue" stroke="midnightblue" points="2082.64,-619.59 2072.28,-621.77 2081.74,-626.53 2082.64,-619.59"/>
</g>
<!-- Node5 -->
<g id="node5" class="node">
<title>Node5</title>
<g id="a_node5"><a xlink:href="classamr__wind_1_1turbulence_1_1_turbulence_model.html" target="_top" xlink:title="Abstract representation of a turbulence model.">
<polygon fill="white" stroke="black" points="1713,-673 1713,-703 1835,-703 1835,-673 1713,-673"/>
<text text-anchor="start" x="1721" y="-691" font-family="Helvetica,sans-Serif" font-size="10.00">amr_wind::turbulence</text>
<text text-anchor="middle" x="1774" y="-680" font-family="Helvetica,sans-Serif" font-size="10.00">::TurbulenceModel</text>
</a>
</g>
</g>
<!-- Node5&#45;&gt;Node4 -->
<g id="edge4" class="edge">
<title>Node5&#45;&gt;Node4</title>
<path fill="none" stroke="midnightblue" d="M1828.73,-669.69C1867.76,-656.4 1919.94,-638.62 1956.61,-626.12"/>
<polygon fill="midnightblue" stroke="midnightblue" points="1827.45,-666.43 1819.11,-672.97 1829.71,-673.06 1827.45,-666.43"/>
</g>
<!-- Node6 -->
<g id="node6" class="node">
<title>Node6</title>
<g id="a_node6"><a xlink:href="structamr__wind_1_1_factory.html" target="_top" xlink:title=" ">
<polygon fill="white" stroke="black" points="1378,-673 1378,-703 1547,-703 1547,-673 1378,-673"/>
<text text-anchor="start" x="1386" y="-691" font-family="Helvetica,sans-Serif" font-size="10.00">amr_wind::Factory&lt;</text>
<text text-anchor="middle" x="1462.5" y="-680" font-family="Helvetica,sans-Serif" font-size="10.00"> TurbulenceModel, CFDSim &amp; &gt;</text>
</a>
</g>
</g>
<!-- Node6&#45;&gt;Node5 -->
<g id="edge5" class="edge">
<title>Node6&#45;&gt;Node5</title>
<path fill="none" stroke="midnightblue" d="M1557.53,-688C1607.97,-688 1668.64,-688 1712.73,-688"/>
<polygon fill="midnightblue" stroke="midnightblue" points="1557.26,-684.5 1547.26,-688 1557.26,-691.5 1557.26,-684.5"/>
</g>
<!-- Node7 -->
<g id="node7" class="node">
<title>Node7</title>
<g id="a_node7"><a xlink:href="structamr__wind_1_1_factory.html" target="_top" xlink:title="Runtime selection of options based on string keyword lookup.">
<polygon fill="white" stroke="black" points="1039.5,-673 1039.5,-703 1153.5,-703 1153.5,-673 1039.5,-673"/>
<text text-anchor="start" x="1047.5" y="-691" font-family="Helvetica,sans-Serif" font-size="10.00">amr_wind::Factory&lt;</text>
<text text-anchor="middle" x="1096.5" y="-680" font-family="Helvetica,sans-Serif" font-size="10.00"> Base, Args &gt;</text>
</a>
</g>
</g>
<!-- Node7&#45;&gt;Node6 -->
<g id="edge6" class="edge">
<title>Node7&#45;&gt;Node6</title>
<path fill="none" stroke="orange" stroke-dasharray="5,2" d="M1163.72,-688C1223.89,-688 1312.92,-688 1377.96,-688"/>
<polygon fill="orange" stroke="orange" points="1163.58,-684.5 1153.58,-688 1163.58,-691.5 1163.58,-684.5"/>
<text text-anchor="start" x="1219.5" y="-702" font-family="Helvetica,sans-Serif" font-size="10.00"> &lt; TurbulenceModel,</text>
<text text-anchor="middle" x="1269.5" y="-691" font-family="Helvetica,sans-Serif" font-size="10.00"> CFDSim &amp; &gt;</text>
</g>
<!-- Node8 -->
<g id="node8" class="node">
<title>Node8</title>
<g id="a_node8"><a xlink:href="classamr__wind_1_1_field.html" target="_top" xlink:title="Computational field.">
<polygon fill="white" stroke="black" points="1727,-601.5 1727,-620.5 1821,-620.5 1821,-601.5 1727,-601.5"/>
<text text-anchor="middle" x="1774" y="-608.5" font-family="Helvetica,sans-Serif" font-size="10.00">amr_wind::Field</text>
</a>
</g>
</g>
<!-- Node8&#45;&gt;Node1 -->
<g id="edge52" class="edge">
<title>Node8&#45;&gt;Node1</title>
<path fill="none" stroke="#9a32cd" stroke-dasharray="5,2" d="M1783.91,-592.03C1795.97,-568.72 1819.86,-530.06 1853,-512 1911.02,-480.39 1934.93,-498 2001,-498 2001,-498 2001,-498 2452.5,-498 2488.1,-498 2527.22,-501.67 2560.7,-505.94"/>
<polygon fill="#9a32cd" stroke="#9a32cd" points="1780.64,-590.74 1779.34,-601.25 1786.91,-593.84 1780.64,-590.74"/>
<text text-anchor="middle" x="2260" y="-512" font-family="Helvetica,sans-Serif" font-size="10.00"> m_sdr</text>
<text text-anchor="middle" x="2260" y="-501" font-family="Helvetica,sans-Serif" font-size="10.00">m_temperature</text>
</g>
<!-- Node8&#45;&gt;Node2 -->
<g id="edge51" class="edge">
<title>Node8&#45;&gt;Node2</title>
<path fill="none" stroke="#9a32cd" stroke-dasharray="5,2" d="M1824.84,-599.13C1886.62,-585.07 1995.36,-562.49 2090,-554 2120.99,-551.22 2128.89,-553.84 2160,-554 2234.65,-554.39 2320.08,-555.33 2378.87,-556.05"/>
<polygon fill="#9a32cd" stroke="#9a32cd" points="1823.93,-595.74 1814.96,-601.39 1825.49,-602.57 1823.93,-595.74"/>
<text text-anchor="middle" x="2125" y="-612" font-family="Helvetica,sans-Serif" font-size="10.00"> m_buoy_prod</text>
<text text-anchor="middle" x="2125" y="-601" font-family="Helvetica,sans-Serif" font-size="10.00">m_rho</text>
<text text-anchor="middle" x="2125" y="-590" font-family="Helvetica,sans-Serif" font-size="10.00">m_shear_prod</text>
<text text-anchor="middle" x="2125" y="-579" font-family="Helvetica,sans-Serif" font-size="10.00">m_tke</text>
<text text-anchor="middle" x="2125" y="-568" font-family="Helvetica,sans-Serif" font-size="10.00">m_turb_lscale</text>
<text text-anchor="middle" x="2125" y="-557" font-family="Helvetica,sans-Serif" font-size="10.00">m_vel</text>
</g>
<!-- Node8&#45;&gt;Node3 -->
<g id="edge50" class="edge">
<title>Node8&#45;&gt;Node3</title>
<path fill="none" stroke="#9a32cd" stroke-dasharray="5,2" d="M1807.28,-624.22C1821.11,-629.23 1837.6,-634.37 1853,-637 1964.34,-656.03 2095.38,-651.63 2177.82,-645.67"/>
<polygon fill="#9a32cd" stroke="#9a32cd" points="1808.33,-620.87 1797.73,-620.63 1805.86,-627.42 1808.33,-620.87"/>
<text text-anchor="middle" x="2002" y="-664" font-family="Helvetica,sans-Serif" font-size="10.00"> m_alpha_turb</text>
<text text-anchor="middle" x="2002" y="-653" font-family="Helvetica,sans-Serif" font-size="10.00">m_mu_turb</text>
</g>
<!-- Node8&#45;&gt;Node4 -->
<g id="edge7" class="edge">
<title>Node8&#45;&gt;Node4</title>
<path fill="none" stroke="#9a32cd" stroke-dasharray="5,2" d="M1831.05,-611C1861.55,-611 1899.55,-611 1931.88,-611"/>
<polygon fill="#9a32cd" stroke="#9a32cd" points="1831.01,-607.5 1821.01,-611 1831.01,-614.5 1831.01,-607.5"/>
<text text-anchor="middle" x="1883.5" y="-625" font-family="Helvetica,sans-Serif" font-size="10.00"> m_alphaeff</text>
<text text-anchor="middle" x="1883.5" y="-614" font-family="Helvetica,sans-Serif" font-size="10.00">m_mueff</text>
</g>
<!-- Node9 -->
<g id="node9" class="node">
<title>Node9</title>
<g id="a_node9"><a xlink:title=" ">
<polygon fill="white" stroke="#bfbfbf" points="605,-625 605,-655 725,-655 725,-625 605,-625"/>
<text text-anchor="start" x="613" y="-643" font-family="Helvetica,sans-Serif" font-size="10.00">std::shared_ptr&lt; amr</text>
<text text-anchor="middle" x="665" y="-632" font-family="Helvetica,sans-Serif" font-size="10.00">_wind::FieldInfo &gt;</text>
</a>
</g>
</g>
<!-- Node9&#45;&gt;Node8 -->
<g id="edge8" class="edge">
<title>Node9&#45;&gt;Node8</title>
<path fill="none" stroke="#9a32cd" stroke-dasharray="5,2" d="M735.32,-640C793.03,-640 877.37,-640 951,-640 951,-640 951,-640 1463.5,-640 1557.4,-640 1666.64,-626.6 1726.98,-618.02"/>
<polygon fill="#9a32cd" stroke="#9a32cd" points="735.22,-636.5 725.22,-640 735.22,-643.5 735.22,-636.5"/>
<text text-anchor="middle" x="1096.5" y="-643" font-family="Helvetica,sans-Serif" font-size="10.00"> m_info</text>
</g>
<!-- Node10 -->
<g id="node10" class="node">
<title>Node10</title>
<g id="a_node10"><a xlink:title=" ">
<polygon fill="white" stroke="#bfbfbf" points="189,-624.5 189,-643.5 307,-643.5 307,-624.5 189,-624.5"/>
<text text-anchor="middle" x="248" y="-631.5" font-family="Helvetica,sans-Serif" font-size="10.00">std::shared_ptr&lt; T &gt;</text>
</a>
</g>
</g>
<!-- Node10&#45;&gt;Node9 -->
<g id="edge9" class="edge">
<title>Node10&#45;&gt;Node9</title>
<path fill="none" stroke="orange" stroke-dasharray="5,2" d="M317.62,-634.99C397.79,-636.15 529.08,-638.05 604.91,-639.15"/>
<polygon fill="orange" stroke="orange" points="317.19,-631.49 307.14,-634.84 317.09,-638.48 317.19,-631.49"/>
<text text-anchor="middle" x="386" y="-639" font-family="Helvetica,sans-Serif" font-size="10.00"> &lt; amr_wind::FieldInfo &gt;</text>
</g>
<!-- Node11 -->
<g id="node11" class="node">
<title>Node11</title>
<g id="a_node11"><a xlink:title=" ">
<polygon fill="white" stroke="#bfbfbf" points="37.5,-532.5 37.5,-551.5 66.5,-551.5 66.5,-532.5 37.5,-532.5"/>
<text text-anchor="middle" x="52" y="-539.5" font-family="Helvetica,sans-Serif" font-size="10.00">T</text>
</a>
</g>
</g>
<!-- Node11&#45;&gt;Node10 -->
<g id="edge10" class="edge">
<title>Node11&#45;&gt;Node10</title>
<path fill="none" stroke="#9a32cd" stroke-dasharray="5,2" d="M76.8,-544.47C102.15,-548.08 142.47,-556.74 171,-577 182.16,-584.93 178.76,-592.92 189,-602 199.41,-611.23 212.94,-618.89 224.31,-624.39"/>
<polygon fill="#9a32cd" stroke="#9a32cd" points="76.98,-540.96 66.62,-543.17 76.1,-547.9 76.98,-540.96"/>
<text text-anchor="middle" x="146.5" y="-580" font-family="Helvetica,sans-Serif" font-size="10.00"> ptr</text>
</g>
<!-- Node16 -->
<g id="node16" class="node">
<title>Node16</title>
<g id="a_node16"><a xlink:title=" ">
<polygon fill="white" stroke="#bfbfbf" points="191,-563 191,-593 305,-593 305,-563 191,-563"/>
<text text-anchor="start" x="199" y="-581" font-family="Helvetica,sans-Serif" font-size="10.00">std::unordered_map</text>
<text text-anchor="middle" x="248" y="-570" font-family="Helvetica,sans-Serif" font-size="10.00">&lt; K, T &gt;</text>
</a>
</g>
</g>
<!-- Node11&#45;&gt;Node16 -->
<g id="edge18" class="edge">
<title>Node11&#45;&gt;Node16</title>
<path fill="none" stroke="#9a32cd" stroke-dasharray="5,2" d="M76.65,-539.31C100.71,-537.25 138.93,-535.83 171,-543 188.72,-546.96 207.26,-555.4 221.58,-563"/>
<polygon fill="#9a32cd" stroke="#9a32cd" points="76.28,-535.83 66.66,-540.28 76.95,-542.8 76.28,-535.83"/>
<text text-anchor="middle" x="146.5" y="-546" font-family="Helvetica,sans-Serif" font-size="10.00"> elements</text>
</g>
<!-- Node20 -->
<g id="node20" class="node">
<title>Node20</title>
<g id="a_node20"><a xlink:title=" ">
<polygon fill="white" stroke="#bfbfbf" points="1037.5,-346.5 1037.5,-365.5 1155.5,-365.5 1155.5,-346.5 1037.5,-346.5"/>
<text text-anchor="middle" x="1096.5" y="-353.5" font-family="Helvetica,sans-Serif" font-size="10.00">std::unique_ptr&lt; T &gt;</text>
</a>
</g>
</g>
<!-- Node11&#45;&gt;Node20 -->
<g id="edge22" class="edge">
<title>Node11&#45;&gt;Node20</title>
<path fill="none" stroke="#9a32cd" stroke-dasharray="5,2" d="M75.65,-529.7C111.11,-511.62 182.36,-480 247,-480 247,-480 247,-480 808.5,-480 923.84,-480 1045.45,-394.56 1083.45,-365.52"/>
<polygon fill="#9a32cd" stroke="#9a32cd" points="73.88,-526.67 66.64,-534.4 77.12,-532.88 73.88,-526.67"/>
<text text-anchor="middle" x="526" y="-483" font-family="Helvetica,sans-Serif" font-size="10.00"> ptr</text>
</g>
<!-- Node12 -->
<g id="node12" class="node">
<title>Node12</title>
<g id="a_node12"><a xlink:title=" ">
<polygon fill="white" stroke="#bfbfbf" points="215.5,-429.5 215.5,-448.5 280.5,-448.5 280.5,-429.5 215.5,-429.5"/>
<text text-anchor="middle" x="248" y="-436.5" font-family="Helvetica,sans-Serif" font-size="10.00">std::string</text>
</a>
</g>
</g>
<!-- Node12&#45;&gt;Node8 -->
<g id="edge11" class="edge">
<title>Node12&#45;&gt;Node8</title>
<path fill="none" stroke="#9a32cd" stroke-dasharray="5,2" d="M288.06,-451.65C330.94,-464.95 402.09,-485.26 465,-495 532.63,-505.47 1629.87,-540.01 1695,-561 1721.33,-569.49 1747.49,-589.14 1761.82,-601.12"/>
<polygon fill="#9a32cd" stroke="#9a32cd" points="288.9,-448.25 278.31,-448.6 286.8,-454.93 288.9,-448.25"/>
<text text-anchor="middle" x="952" y="-524" font-family="Helvetica,sans-Serif" font-size="10.00"> m_name</text>
</g>
<!-- Node15 -->
<g id="node15" class="node">
<title>Node15</title>
<g id="a_node15"><a xlink:title=" ">
<polygon fill="white" stroke="#bfbfbf" points="465,-575 465,-605 587,-605 587,-575 465,-575"/>
<text text-anchor="start" x="473" y="-593" font-family="Helvetica,sans-Serif" font-size="10.00">std::unordered_map</text>
<text text-anchor="middle" x="526" y="-582" font-family="Helvetica,sans-Serif" font-size="10.00">&lt; std::string, size_t &gt;</text>
</a>
</g>
</g>
<!-- Node12&#45;&gt;Node15 -->
<g id="edge15" class="edge">
<title>Node12&#45;&gt;Node15</title>
<path fill="none" stroke="#9a32cd" stroke-dasharray="5,2" d="M261.57,-457.18C275.06,-475.17 298.2,-502.01 325,-516 373.77,-541.47 395.98,-516.41 447,-537 469.77,-546.19 492.64,-562.81 507.67,-574.99"/>
<polygon fill="#9a32cd" stroke="#9a32cd" points="264.12,-454.74 255.43,-448.69 258.45,-458.84 264.12,-454.74"/>
<text text-anchor="middle" x="386" y="-540" font-family="Helvetica,sans-Serif" font-size="10.00"> keys</text>
</g>
<!-- Node23 -->
<g id="node23" class="node">
<title>Node23</title>
<g id="a_node23"><a xlink:href="classamr__wind_1_1pde_1_1_p_d_e_mgr.html" target="_top" xlink:title="PDE systems manager.">
<polygon fill="white" stroke="black" points="1935.5,-104.5 1935.5,-123.5 2068.5,-123.5 2068.5,-104.5 1935.5,-104.5"/>
<text text-anchor="middle" x="2002" y="-111.5" font-family="Helvetica,sans-Serif" font-size="10.00">amr_wind::pde::PDEMgr</text>
</a>
</g>
</g>
<!-- Node12&#45;&gt;Node23 -->
<g id="edge34" class="edge">
<title>Node12&#45;&gt;Node23</title>
<path fill="none" stroke="#9a32cd" stroke-dasharray="5,2" d="M251.53,-419.27C263.68,-333.83 324.03,0 525,0 525,0 525,0 1775,0 1867.28,0 1960.24,-76.71 1990.67,-104.28"/>
<polygon fill="#9a32cd" stroke="#9a32cd" points="248.03,-419.04 250.15,-429.42 254.96,-419.98 248.03,-419.04"/>
<text text-anchor="middle" x="1096.5" y="-3" font-family="Helvetica,sans-Serif" font-size="10.00"> m_scheme</text>
</g>
<!-- Node26 -->
<g id="node26" class="node">
<title>Node26</title>
<g id="a_node26"><a xlink:title=" ">
<polygon fill="white" stroke="#bfbfbf" points="469,-413 469,-443 583,-443 583,-413 469,-413"/>
<text text-anchor="start" x="477" y="-431" font-family="Helvetica,sans-Serif" font-size="10.00">std::unordered_map</text>
<text text-anchor="middle" x="526" y="-420" font-family="Helvetica,sans-Serif" font-size="10.00">&lt; std::string, int &gt;</text>
</a>
</g>
</g>
<!-- Node12&#45;&gt;Node26 -->
<g id="edge31" class="edge">
<title>Node12&#45;&gt;Node26</title>
<path fill="none" stroke="#9a32cd" stroke-dasharray="5,2" d="M290.9,-437.33C338.44,-435.44 416.19,-432.34 468.92,-430.24"/>
<polygon fill="#9a32cd" stroke="#9a32cd" points="290.51,-433.84 280.66,-437.74 290.79,-440.84 290.51,-433.84"/>
<text text-anchor="middle" x="386" y="-439" font-family="Helvetica,sans-Serif" font-size="10.00"> keys</text>
</g>
<!-- Node13 -->
<g id="node13" class="node">
<title>Node13</title>
<g id="a_node13"><a xlink:title=" ">
<polygon fill="white" stroke="#bfbfbf" points="0,-424 0,-454 104,-454 104,-424 0,-424"/>
<text text-anchor="start" x="8" y="-442" font-family="Helvetica,sans-Serif" font-size="10.00">std::basic_string&lt;</text>
<text text-anchor="middle" x="52" y="-431" font-family="Helvetica,sans-Serif" font-size="10.00"> Char &gt;</text>
</a>
</g>
</g>
<!-- Node13&#45;&gt;Node12 -->
<g id="edge12" class="edge">
<title>Node13&#45;&gt;Node12</title>
<path fill="none" stroke="midnightblue" d="M114.39,-439C147.91,-439 188.01,-439 215.27,-439"/>
<polygon fill="midnightblue" stroke="midnightblue" points="114.23,-435.5 104.22,-439 114.22,-442.5 114.23,-435.5"/>
</g>
<!-- Node14 -->
<g id="node14" class="node">
<title>Node14</title>
<g id="a_node14"><a xlink:href="classamr__wind_1_1_field_repo.html" target="_top" xlink:title="Field Repository.">
<polygon fill="white" stroke="black" points="1403,-580.5 1403,-599.5 1522,-599.5 1522,-580.5 1403,-580.5"/>
<text text-anchor="middle" x="1462.5" y="-587.5" font-family="Helvetica,sans-Serif" font-size="10.00">amr_wind::FieldRepo</text>
</a>
</g>
</g>
<!-- Node14&#45;&gt;Node8 -->
<g id="edge13" class="edge">
<title>Node14&#45;&gt;Node8</title>
<path fill="none" stroke="#9a32cd" stroke-dasharray="5,2" d="M1532.1,-594.65C1591.3,-598.67 1675.21,-604.36 1726.76,-607.86"/>
<polygon fill="#9a32cd" stroke="#9a32cd" points="1532.29,-591.16 1522.08,-593.97 1531.82,-598.14 1532.29,-591.16"/>
<text text-anchor="middle" x="1630" y="-609" font-family="Helvetica,sans-Serif" font-size="10.00"> m_repo</text>
</g>
<!-- Node18 -->
<g id="node18" class="node">
<title>Node18</title>
<g id="a_node18"><a xlink:href="classamr__wind_1_1_c_f_d_sim.html" target="_top" xlink:title="Data structures for a CFD simulation.">
<polygon fill="white" stroke="black" points="1719,-291.5 1719,-310.5 1829,-310.5 1829,-291.5 1719,-291.5"/>
<text text-anchor="middle" x="1774" y="-298.5" font-family="Helvetica,sans-Serif" font-size="10.00">amr_wind::CFDSim</text>
</a>
</g>
</g>
<!-- Node14&#45;&gt;Node18 -->
<g id="edge42" class="edge">
<title>Node14&#45;&gt;Node18</title>
<path fill="none" stroke="#9a32cd" stroke-dasharray="5,2" d="M1532.12,-585.87C1583.09,-579.32 1651.11,-562.71 1695,-521 1758.75,-460.43 1770.47,-344.47 1772.56,-310.54"/>
<polygon fill="#9a32cd" stroke="#9a32cd" points="1531.69,-582.4 1522.17,-587.05 1532.51,-589.35 1531.69,-582.4"/>
<text text-anchor="middle" x="1630" y="-583" font-family="Helvetica,sans-Serif" font-size="10.00"> m_repo</text>
</g>
<!-- Node15&#45;&gt;Node14 -->
<g id="edge14" class="edge">
<title>Node15&#45;&gt;Node14</title>
<path fill="none" stroke="#9a32cd" stroke-dasharray="5,2" d="M597.24,-590C774.69,-590 1238.51,-590 1402.78,-590"/>
<polygon fill="#9a32cd" stroke="#9a32cd" points="597.24,-586.5 587.24,-590 597.24,-593.5 597.24,-586.5"/>
<text text-anchor="middle" x="952" y="-604" font-family="Helvetica,sans-Serif" font-size="10.00"> m_fid_map</text>
<text text-anchor="middle" x="952" y="-593" font-family="Helvetica,sans-Serif" font-size="10.00">m_int_fid_map</text>
</g>
<!-- Node16&#45;&gt;Node15 -->
<g id="edge16" class="edge">
<title>Node16&#45;&gt;Node15</title>
<path fill="none" stroke="orange" stroke-dasharray="5,2" d="M315.1,-583.41C318.45,-583.63 321.76,-583.82 325,-584 371.83,-586.55 424.88,-588.08 464.58,-588.95"/>
<polygon fill="orange" stroke="orange" points="315.22,-579.91 305.01,-582.73 314.75,-586.9 315.22,-579.91"/>
<text text-anchor="middle" x="386" y="-592" font-family="Helvetica,sans-Serif" font-size="10.00"> &lt; std::string, size_t &gt;</text>
</g>
<!-- Node16&#45;&gt;Node26 -->
<g id="edge32" class="edge">
<title>Node16&#45;&gt;Node26</title>
<path fill="none" stroke="orange" stroke-dasharray="5,2" d="M315.27,-570.48C370.91,-563.87 442.13,-554.62 447,-550 477.23,-521.33 439.78,-491.16 465,-458 469.58,-451.97 475.71,-447.07 482.29,-443.12"/>
<polygon fill="orange" stroke="orange" points="314.6,-567.03 305.08,-571.68 315.42,-573.98 314.6,-567.03"/>
<text text-anchor="middle" x="386" y="-572" font-family="Helvetica,sans-Serif" font-size="10.00"> &lt; std::string, int &gt;</text>
</g>
<!-- Node17 -->
<g id="node17" class="node">
<title>Node17</title>
<g id="a_node17"><a xlink:title=" ">
<polygon fill="white" stroke="#bfbfbf" points="37.5,-600.5 37.5,-619.5 66.5,-619.5 66.5,-600.5 37.5,-600.5"/>
<text text-anchor="middle" x="52" y="-607.5" font-family="Helvetica,sans-Serif" font-size="10.00">K</text>
</a>
</g>
</g>
<!-- Node17&#45;&gt;Node16 -->
<g id="edge17" class="edge">
<title>Node17&#45;&gt;Node16</title>
<path fill="none" stroke="#9a32cd" stroke-dasharray="5,2" d="M76.78,-606.08C105.03,-601.42 153.11,-593.49 190.98,-587.24"/>
<polygon fill="#9a32cd" stroke="#9a32cd" points="75.94,-602.67 66.64,-607.75 77.08,-609.58 75.94,-602.67"/>
<text text-anchor="middle" x="146.5" y="-601" font-family="Helvetica,sans-Serif" font-size="10.00"> keys</text>
</g>
<!-- Node18&#45;&gt;Node4 -->
<g id="edge19" class="edge">
<title>Node18&#45;&gt;Node4</title>
<path fill="none" stroke="#9a32cd" stroke-dasharray="5,2" d="M1787.97,-318.79C1828.44,-374.3 1951.94,-543.71 1989.83,-595.68"/>
<polygon fill="#9a32cd" stroke="#9a32cd" points="1790.73,-316.64 1782.01,-310.62 1785.07,-320.76 1790.73,-316.64"/>
<text text-anchor="middle" x="1883.5" y="-487" font-family="Helvetica,sans-Serif" font-size="10.00"> m_sim</text>
</g>
<!-- Node18&#45;&gt;Node23 -->
<g id="edge33" class="edge">
<title>Node18&#45;&gt;Node23</title>
<path fill="none" stroke="#9a32cd" stroke-dasharray="5,2" d="M1831.37,-288.77C1858.46,-280.8 1890.14,-268.22 1914,-249 1958.51,-213.14 1987.52,-148.14 1997.32,-123.67"/>
<polygon fill="#9a32cd" stroke="#9a32cd" points="1830.31,-285.43 1821.62,-291.5 1832.2,-292.17 1830.31,-285.43"/>
<text text-anchor="middle" x="1883.5" y="-285" font-family="Helvetica,sans-Serif" font-size="10.00"> m_sim</text>
</g>
<!-- Node19 -->
<g id="node19" class="node">
<title>Node19</title>
<g id="a_node19"><a xlink:title=" ">
<polygon fill="white" stroke="#bfbfbf" points="1396,-439 1396,-469 1529,-469 1529,-439 1396,-439"/>
<text text-anchor="start" x="1404" y="-457" font-family="Helvetica,sans-Serif" font-size="10.00">std::unique_ptr&lt; amr</text>
<text text-anchor="middle" x="1462.5" y="-446" font-family="Helvetica,sans-Serif" font-size="10.00">_wind::helics_storage &gt;</text>
</a>
</g>
</g>
<!-- Node19&#45;&gt;Node18 -->
<g id="edge20" class="edge">
<title>Node19&#45;&gt;Node18</title>
<path fill="none" stroke="#9a32cd" stroke-dasharray="5,2" d="M1539.09,-452.35C1587.03,-448.14 1648.53,-436.68 1695,-407 1733.32,-382.53 1759.2,-332.05 1768.82,-310.79"/>
<polygon fill="#9a32cd" stroke="#9a32cd" points="1538.77,-448.86 1529.08,-453.14 1539.32,-455.84 1538.77,-448.86"/>
<text text-anchor="middle" x="1630" y="-452" font-family="Helvetica,sans-Serif" font-size="10.00"> m_helics</text>
</g>
<!-- Node20&#45;&gt;Node19 -->
<g id="edge21" class="edge">
<title>Node20&#45;&gt;Node19</title>
<path fill="none" stroke="orange" stroke-dasharray="5,2" d="M1116.71,-371.84C1132.47,-383.98 1155.87,-400.1 1179,-409 1250.03,-436.33 1337.26,-447.06 1395.83,-451.28"/>
<polygon fill="orange" stroke="orange" points="1118.81,-369.04 1108.79,-365.58 1114.47,-374.53 1118.81,-369.04"/>
<text text-anchor="start" x="1221" y="-462" font-family="Helvetica,sans-Serif" font-size="10.00"> &lt; amr_wind::helics</text>
<text text-anchor="middle" x="1269.5" y="-451" font-family="Helvetica,sans-Serif" font-size="10.00">_storage &gt;</text>
</g>
<!-- Node21 -->
<g id="node21" class="node">
<title>Node21</title>
<g id="a_node21"><a xlink:title=" ">
<polygon fill="white" stroke="#bfbfbf" points="1402.5,-390 1402.5,-420 1522.5,-420 1522.5,-390 1402.5,-390"/>
<text text-anchor="start" x="1410.5" y="-408" font-family="Helvetica,sans-Serif" font-size="10.00">std::unique_ptr&lt; amr</text>
<text text-anchor="middle" x="1462.5" y="-397" font-family="Helvetica,sans-Serif" font-size="10.00">_wind::IOManager &gt;</text>
</a>
</g>
</g>
<!-- Node20&#45;&gt;Node21 -->
<g id="edge24" class="edge">
<title>Node20&#45;&gt;Node21</title>
<path fill="none" stroke="orange" stroke-dasharray="5,2" d="M1156.43,-367.29C1164.01,-368.62 1171.68,-369.89 1179,-371 1255.92,-382.7 1345.12,-392.87 1402.38,-398.97"/>
<polygon fill="orange" stroke="orange" points="1157.01,-363.84 1146.55,-365.54 1155.78,-370.73 1157.01,-363.84"/>
<text text-anchor="middle" x="1269.5" y="-397" font-family="Helvetica,sans-Serif" font-size="10.00"> &lt; amr_wind::IOManager &gt;</text>
</g>
<!-- Node22 -->
<g id="node22" class="node">
<title>Node22</title>
<g id="a_node22"><a xlink:title=" ">
<polygon fill="white" stroke="#bfbfbf" points="1380.5,-341 1380.5,-371 1544.5,-371 1544.5,-341 1380.5,-341"/>
<text text-anchor="start" x="1388.5" y="-359" font-family="Helvetica,sans-Serif" font-size="10.00">std::unique_ptr&lt; amr</text>
<text text-anchor="middle" x="1462.5" y="-348" font-family="Helvetica,sans-Serif" font-size="10.00">_wind::PostProcessManager &gt;</text>
</a>
</g>
</g>
<!-- Node20&#45;&gt;Node22 -->
<g id="edge26" class="edge">
<title>Node20&#45;&gt;Node22</title>
<path fill="none" stroke="orange" stroke-dasharray="5,2" d="M1165.84,-356C1226.69,-356 1315.78,-356 1380.25,-356"/>
<polygon fill="orange" stroke="orange" points="1165.58,-352.5 1155.58,-356 1165.58,-359.5 1165.58,-352.5"/>
<text text-anchor="middle" x="1269.5" y="-359" font-family="Helvetica,sans-Serif" font-size="10.00"> &lt; amr_wind::PostProcessManager &gt;</text>
</g>
<!-- Node27 -->
<g id="node27" class="node">
<title>Node27</title>
<g id="a_node27"><a xlink:title=" ">
<polygon fill="white" stroke="#bfbfbf" points="1565,-99 1565,-129 1695,-129 1695,-99 1565,-99"/>
<text text-anchor="start" x="1573" y="-117" font-family="Helvetica,sans-Serif" font-size="10.00">std::unique_ptr&lt; amr</text>
<text text-anchor="middle" x="1630" y="-106" font-family="Helvetica,sans-Serif" font-size="10.00">_wind::pde::PDEBase &gt;</text>
</a>
</g>
</g>
<!-- Node20&#45;&gt;Node27 -->
<g id="edge36" class="edge">
<title>Node20&#45;&gt;Node27</title>
<path fill="none" stroke="orange" stroke-dasharray="5,2" d="M1098.99,-336.18C1103.25,-294.72 1119.39,-198.96 1179,-154 1238.17,-109.37 1455.25,-108.84 1564.82,-111.61"/>
<polygon fill="orange" stroke="orange" points="1095.48,-336.08 1098.07,-346.35 1102.45,-336.7 1095.48,-336.08"/>
<text text-anchor="middle" x="1269.5" y="-157" font-family="Helvetica,sans-Serif" font-size="10.00"> &lt; amr_wind::pde::PDEBase &gt;</text>
</g>
<!-- Node29 -->
<g id="node29" class="node">
<title>Node29</title>
<g id="a_node29"><a xlink:title=" ">
<polygon fill="white" stroke="#bfbfbf" points="1391,-488 1391,-518 1534,-518 1534,-488 1391,-488"/>
<text text-anchor="start" x="1399" y="-506" font-family="Helvetica,sans-Serif" font-size="10.00">std::unique_ptr&lt; amr</text>
<text text-anchor="middle" x="1462.5" y="-495" font-family="Helvetica,sans-Serif" font-size="10.00">_wind::OversetManager &gt;</text>
</a>
</g>
</g>
<!-- Node20&#45;&gt;Node29 -->
<g id="edge39" class="edge">
<title>Node20&#45;&gt;Node29</title>
<path fill="none" stroke="orange" stroke-dasharray="5,2" d="M1104.79,-375.17C1116.15,-402.11 1140.81,-450.42 1179,-473 1243.32,-511.04 1330.45,-514.56 1390.86,-511.1"/>
<polygon fill="orange" stroke="orange" points="1107.95,-373.65 1100.97,-365.68 1101.46,-376.26 1107.95,-373.65"/>
<text text-anchor="middle" x="1269.5" y="-516" font-family="Helvetica,sans-Serif" font-size="10.00"> &lt; amr_wind::OversetManager &gt;</text>
</g>
<!-- Node30 -->
<g id="node30" class="node">
<title>Node30</title>
<g id="a_node30"><a xlink:title=" ">
<polygon fill="white" stroke="#bfbfbf" points="1382,-280.5 1382,-321.5 1543,-321.5 1543,-280.5 1382,-280.5"/>
<text text-anchor="start" x="1390" y="-309.5" font-family="Helvetica,sans-Serif" font-size="10.00">std::unique_ptr&lt; amr</text>
<text text-anchor="start" x="1390" y="-298.5" font-family="Helvetica,sans-Serif" font-size="10.00">_wind::turbulence::Turbulence</text>
<text text-anchor="middle" x="1462.5" y="-287.5" font-family="Helvetica,sans-Serif" font-size="10.00">Model &gt;</text>
</a>
</g>
</g>
<!-- Node20&#45;&gt;Node30 -->
<g id="edge41" class="edge">
<title>Node20&#45;&gt;Node30</title>
<path fill="none" stroke="orange" stroke-dasharray="5,2" d="M1132.69,-343.02C1146.9,-338.24 1163.56,-333.22 1179,-330 1246.69,-315.89 1325,-308.53 1381.98,-304.77"/>
<polygon fill="orange" stroke="orange" points="1131.14,-339.85 1122.83,-346.43 1133.43,-346.47 1131.14,-339.85"/>
<text text-anchor="start" x="1209" y="-344" font-family="Helvetica,sans-Serif" font-size="10.00"> &lt; amr_wind::turbulence</text>
<text text-anchor="middle" x="1269.5" y="-333" font-family="Helvetica,sans-Serif" font-size="10.00">::TurbulenceModel &gt;</text>
</g>
<!-- Node31 -->
<g id="node31" class="node">
<title>Node31</title>
<g id="a_node31"><a xlink:title=" ">
<polygon fill="white" stroke="#bfbfbf" points="1402.5,-231 1402.5,-261 1522.5,-261 1522.5,-231 1402.5,-231"/>
<text text-anchor="start" x="1410.5" y="-249" font-family="Helvetica,sans-Serif" font-size="10.00">std::unique_ptr&lt; amr</text>
<text text-anchor="middle" x="1462.5" y="-238" font-family="Helvetica,sans-Serif" font-size="10.00">_wind::MeshMap &gt;</text>
</a>
</g>
</g>
<!-- Node20&#45;&gt;Node31 -->
<g id="edge44" class="edge">
<title>Node20&#45;&gt;Node31</title>
<path fill="none" stroke="orange" stroke-dasharray="5,2" d="M1113.63,-339.2C1128.98,-324.3 1153.47,-303.21 1179,-292 1251.58,-260.15 1343.38,-250.13 1402.28,-247.1"/>
<polygon fill="orange" stroke="orange" points="1111.08,-336.8 1106.48,-346.35 1116.03,-341.76 1111.08,-336.8"/>
<text text-anchor="middle" x="1269.5" y="-295" font-family="Helvetica,sans-Serif" font-size="10.00"> &lt; amr_wind::MeshMap &gt;</text>
</g>
<!-- Node32 -->
<g id="node32" class="node">
<title>Node32</title>
<g id="a_node32"><a xlink:title=" ">
<polygon fill="white" stroke="#bfbfbf" points="1398.5,-143 1398.5,-173 1526.5,-173 1526.5,-143 1398.5,-143"/>
<text text-anchor="start" x="1406.5" y="-161" font-family="Helvetica,sans-Serif" font-size="10.00">std::unique_ptr&lt; amr</text>
<text text-anchor="middle" x="1462.5" y="-150" font-family="Helvetica,sans-Serif" font-size="10.00">_wind::ExtSolverMgr &gt;</text>
</a>
</g>
</g>
<!-- Node20&#45;&gt;Node32 -->
<g id="edge46" class="edge">
<title>Node20&#45;&gt;Node32</title>
<path fill="none" stroke="orange" stroke-dasharray="5,2" d="M1105.37,-336.79C1117.3,-310.1 1142.5,-262.16 1179,-236 1244.55,-189.02 1337.22,-170.32 1398.31,-162.88"/>
<polygon fill="orange" stroke="orange" points="1102.07,-335.62 1101.33,-346.19 1108.5,-338.39 1102.07,-335.62"/>
<text text-anchor="middle" x="1269.5" y="-239" font-family="Helvetica,sans-Serif" font-size="10.00"> &lt; amr_wind::ExtSolverMgr &gt;</text>
</g>
<!-- Node21&#45;&gt;Node18 -->
<g id="edge23" class="edge">
<title>Node21&#45;&gt;Node18</title>
<path fill="none" stroke="#9a32cd" stroke-dasharray="5,2" d="M1533.07,-396.71C1580.18,-389.43 1643.06,-376.38 1695,-354 1721.01,-342.79 1747.49,-322.53 1761.92,-310.57"/>
<polygon fill="#9a32cd" stroke="#9a32cd" points="1532.33,-393.28 1522.96,-398.23 1533.37,-400.21 1532.33,-393.28"/>
<text text-anchor="middle" x="1630" y="-395" font-family="Helvetica,sans-Serif" font-size="10.00"> m_io_mgr</text>
</g>
<!-- Node22&#45;&gt;Node18 -->
<g id="edge25" class="edge">
<title>Node22&#45;&gt;Node18</title>
<path fill="none" stroke="#9a32cd" stroke-dasharray="5,2" d="M1554.8,-340.63C1597.43,-333.35 1648.85,-324.42 1695,-316 1704.5,-314.27 1714.63,-312.36 1724.34,-310.5"/>
<polygon fill="#9a32cd" stroke="#9a32cd" points="1553.99,-337.22 1544.72,-342.35 1555.17,-344.12 1553.99,-337.22"/>
<text text-anchor="middle" x="1630" y="-342" font-family="Helvetica,sans-Serif" font-size="10.00"> m_post_mgr</text>
</g>
<!-- Node23&#45;&gt;Node18 -->
<g id="edge27" class="edge">
<title>Node23&#45;&gt;Node18</title>
<path fill="none" stroke="#9a32cd" stroke-dasharray="5,2" d="M1981.55,-130.09C1935.89,-167.87 1822.94,-261.33 1786.52,-291.47"/>
<polygon fill="#9a32cd" stroke="#9a32cd" points="1984.03,-132.58 1989.51,-123.51 1979.57,-127.19 1984.03,-132.58"/>
<text text-anchor="middle" x="1883.5" y="-239" font-family="Helvetica,sans-Serif" font-size="10.00"> m_pde_mgr</text>
</g>
<!-- Node24 -->
<g id="node24" class="node">
<title>Node24</title>
<g id="a_node24"><a xlink:href="classamr__wind_1_1_coll_mgr.html" target="_top" xlink:title=" ">
<polygon fill="white" stroke="black" points="1210,-24 1210,-54 1329,-54 1329,-24 1210,-24"/>
<text text-anchor="start" x="1218" y="-42" font-family="Helvetica,sans-Serif" font-size="10.00">amr_wind::CollMgr&lt;</text>
<text text-anchor="middle" x="1269.5" y="-31" font-family="Helvetica,sans-Serif" font-size="10.00"> PDEMgr, PDEBase &gt;</text>
</a>
</g>
</g>
<!-- Node24&#45;&gt;Node23 -->
<g id="edge28" class="edge">
<title>Node24&#45;&gt;Node23</title>
<path fill="none" stroke="midnightblue" d="M1339.24,-40.04C1423.36,-41.88 1570.04,-46.99 1695,-61 1788.5,-71.48 1896.71,-92.3 1956.13,-104.49"/>
<polygon fill="midnightblue" stroke="midnightblue" points="1339.12,-36.53 1329.05,-39.82 1338.97,-43.53 1339.12,-36.53"/>
</g>
<!-- Node25 -->
<g id="node25" class="node">
<title>Node25</title>
<g id="a_node25"><a xlink:href="classamr__wind_1_1_coll_mgr.html" target="_top" xlink:title="Interface to manage objects of sub&#45;classes based on factory registration.">
<polygon fill="white" stroke="black" points="743,-62.5 743,-103.5 872,-103.5 872,-62.5 743,-62.5"/>
<text text-anchor="start" x="751" y="-91.5" font-family="Helvetica,sans-Serif" font-size="10.00">amr_wind::CollMgr&lt;</text>
<text text-anchor="start" x="751" y="-80.5" font-family="Helvetica,sans-Serif" font-size="10.00"> Collection, Type, allow</text>
<text text-anchor="middle" x="807.5" y="-69.5" font-family="Helvetica,sans-Serif" font-size="10.00">_duplicates &gt;</text>
</a>
</g>
</g>
<!-- Node25&#45;&gt;Node24 -->
<g id="edge29" class="edge">
<title>Node25&#45;&gt;Node24</title>
<path fill="none" stroke="orange" stroke-dasharray="5,2" d="M881.94,-69.11C884.65,-68.72 887.35,-68.34 890,-68 1002.74,-53.35 1135.4,-45.27 1209.95,-41.57"/>
<polygon fill="orange" stroke="orange" points="881.37,-65.66 872.02,-70.64 882.44,-72.58 881.37,-65.66"/>
<text text-anchor="middle" x="952" y="-71" font-family="Helvetica,sans-Serif" font-size="10.00"> &lt; PDEMgr, PDEBase &gt;</text>
</g>
<!-- Node34 -->
<g id="node34" class="node">
<title>Node34</title>
<g id="a_node34"><a xlink:href="classamr__wind_1_1_coll_mgr.html" target="_top" xlink:title=" ">
<polygon fill="white" stroke="black" points="1032,-68 1032,-98 1161,-98 1161,-68 1032,-68"/>
<text text-anchor="start" x="1040" y="-86" font-family="Helvetica,sans-Serif" font-size="10.00">amr_wind::CollMgr&lt;</text>
<text text-anchor="middle" x="1096.5" y="-75" font-family="Helvetica,sans-Serif" font-size="10.00"> PhysicsMgr, Physics &gt;</text>
</a>
</g>
</g>
<!-- Node25&#45;&gt;Node34 -->
<g id="edge49" class="edge">
<title>Node25&#45;&gt;Node34</title>
<path fill="none" stroke="orange" stroke-dasharray="5,2" d="M882.47,-83C928.77,-83 987.81,-83 1031.98,-83"/>
<polygon fill="orange" stroke="orange" points="882.19,-79.5 872.19,-83 882.19,-86.5 882.19,-79.5"/>
<text text-anchor="middle" x="952" y="-86" font-family="Helvetica,sans-Serif" font-size="10.00"> &lt; PhysicsMgr, Physics &gt;</text>
</g>
<!-- Node26&#45;&gt;Node25 -->
<g id="edge30" class="edge">
<title>Node26&#45;&gt;Node25</title>
<path fill="none" stroke="#9a32cd" stroke-dasharray="5,2" d="M545.75,-404.86C597.35,-341.16 740.89,-163.99 789.87,-103.53"/>
<polygon fill="#9a32cd" stroke="#9a32cd" points="542.95,-402.76 539.37,-412.73 548.38,-407.16 542.95,-402.76"/>
<text text-anchor="middle" x="665" y="-330" font-family="Helvetica,sans-Serif" font-size="10.00"> m_obj_map</text>
</g>
<!-- Node27&#45;&gt;Node23 -->
<g id="edge35" class="edge">
<title>Node27&#45;&gt;Node23</title>
<path fill="none" stroke="#9a32cd" stroke-dasharray="5,2" d="M1705.14,-114C1772.43,-114 1870.73,-114 1935.27,-114"/>
<polygon fill="#9a32cd" stroke="#9a32cd" points="1705.03,-110.5 1695.03,-114 1705.03,-117.5 1705.03,-110.5"/>
<text text-anchor="middle" x="1774" y="-117" font-family="Helvetica,sans-Serif" font-size="10.00"> m_icns</text>
</g>
<!-- Node28 -->
<g id="node28" class="node">
<title>Node28</title>
<g id="a_node28"><a xlink:href="classamr__wind_1_1_sim_time.html" target="_top" xlink:title="Time manager for simulations.">
<polygon fill="white" stroke="black" points="1405.5,-192.5 1405.5,-211.5 1519.5,-211.5 1519.5,-192.5 1405.5,-192.5"/>
<text text-anchor="middle" x="1462.5" y="-199.5" font-family="Helvetica,sans-Serif" font-size="10.00">amr_wind::SimTime</text>
</a>
</g>
</g>
<!-- Node28&#45;&gt;Node18 -->
<g id="edge37" class="edge">
<title>Node28&#45;&gt;Node18</title>
<path fill="none" stroke="#9a32cd" stroke-dasharray="5,2" d="M1529.68,-208.53C1577.1,-214.85 1641.73,-226.84 1695,-249 1720.85,-259.75 1747.17,-279.53 1761.67,-291.35"/>
<polygon fill="#9a32cd" stroke="#9a32cd" points="1529.89,-205.03 1519.53,-207.23 1529,-211.97 1529.89,-205.03"/>
<text text-anchor="middle" x="1630" y="-252" font-family="Helvetica,sans-Serif" font-size="10.00"> m_time</text>
</g>
<!-- Node29&#45;&gt;Node18 -->
<g id="edge38" class="edge">
<title>Node29&#45;&gt;Node18</title>
<path fill="none" stroke="#9a32cd" stroke-dasharray="5,2" d="M1544.24,-507.18C1592.37,-505.65 1652.23,-496.23 1695,-464 1747.87,-424.17 1766.57,-339.26 1771.52,-310.65"/>
<polygon fill="#9a32cd" stroke="#9a32cd" points="1544.08,-503.68 1534.15,-507.39 1544.23,-510.68 1544.08,-503.68"/>
<text text-anchor="middle" x="1630" y="-509" font-family="Helvetica,sans-Serif" font-size="10.00"> m_overset_mgr</text>
</g>
<!-- Node30&#45;&gt;Node18 -->
<g id="edge40" class="edge">
<title>Node30&#45;&gt;Node18</title>
<path fill="none" stroke="#9a32cd" stroke-dasharray="5,2" d="M1553.4,-301C1607,-301 1673.26,-301 1718.9,-301"/>
<polygon fill="#9a32cd" stroke="#9a32cd" points="1553.2,-297.5 1543.2,-301 1553.2,-304.5 1553.2,-297.5"/>
<text text-anchor="middle" x="1630" y="-304" font-family="Helvetica,sans-Serif" font-size="10.00"> m_turbulence</text>
</g>
<!-- Node31&#45;&gt;Node18 -->
<g id="edge43" class="edge">
<title>Node31&#45;&gt;Node18</title>
<path fill="none" stroke="#9a32cd" stroke-dasharray="5,2" d="M1532.42,-257.56C1578.49,-265.37 1640.42,-276.04 1695,-286 1704.5,-287.73 1714.63,-289.64 1724.34,-291.5"/>
<polygon fill="#9a32cd" stroke="#9a32cd" points="1532.99,-254.11 1522.55,-255.89 1531.82,-261.01 1532.99,-254.11"/>
<text text-anchor="middle" x="1630" y="-289" font-family="Helvetica,sans-Serif" font-size="10.00"> m_mesh_map</text>
</g>
<!-- Node32&#45;&gt;Node18 -->
<g id="edge45" class="edge">
<title>Node32&#45;&gt;Node18</title>
<path fill="none" stroke="#9a32cd" stroke-dasharray="5,2" d="M1536.55,-157.97C1584.67,-161.01 1647.35,-171.02 1695,-200 1732.48,-222.79 1758.64,-270.75 1768.57,-291.31"/>
<polygon fill="#9a32cd" stroke="#9a32cd" points="1536.69,-154.47 1526.52,-157.43 1536.31,-161.46 1536.69,-154.47"/>
<text text-anchor="middle" x="1630" y="-203" font-family="Helvetica,sans-Serif" font-size="10.00"> m_ext_solver_mgr</text>
</g>
<!-- Node33 -->
<g id="node33" class="node">
<title>Node33</title>
<g id="a_node33"><a xlink:href="classamr__wind_1_1_physics_mgr.html" target="_top" xlink:title="A collection of Physics models instances that are active during a simulation.">
<polygon fill="white" stroke="black" points="1399.5,-66.5 1399.5,-85.5 1525.5,-85.5 1525.5,-66.5 1399.5,-66.5"/>
<text text-anchor="middle" x="1462.5" y="-73.5" font-family="Helvetica,sans-Serif" font-size="10.00">amr_wind::PhysicsMgr</text>
</a>
</g>
</g>
<!-- Node33&#45;&gt;Node18 -->
<g id="edge47" class="edge">
<title>Node33&#45;&gt;Node18</title>
<path fill="none" stroke="#9a32cd" stroke-dasharray="5,2" d="M1536.01,-67.81C1594.28,-62.81 1670.34,-60.34 1695,-78 1695.29,-78.21 1754.79,-248.79 1769.66,-291.43"/>
<polygon fill="#9a32cd" stroke="#9a32cd" points="1535.37,-64.35 1525.72,-68.73 1535.99,-71.33 1535.37,-64.35"/>
<text text-anchor="middle" x="1630" y="-81" font-family="Helvetica,sans-Serif" font-size="10.00"> m_physics_mgr</text>
</g>
<!-- Node34&#45;&gt;Node33 -->
<g id="edge48" class="edge">
<title>Node34&#45;&gt;Node33</title>
<path fill="none" stroke="midnightblue" d="M1171.39,-81.58C1238.42,-80.29 1336.14,-78.41 1399.27,-77.2"/>
<polygon fill="midnightblue" stroke="midnightblue" points="1171.25,-78.08 1161.32,-81.77 1171.39,-85.08 1171.25,-78.08"/>
</g>
</g>
</svg>
