<?xml version="1.0" encoding="UTF-8" standalone="no"?>
<!DOCTYPE svg PUBLIC "-//W3C//DTD SVG 1.1//EN"
 "http://www.w3.org/Graphics/SVG/1.1/DTD/svg11.dtd">
<!-- Generated by graphviz version 2.43.0 (0)
 -->
<!-- Title: diffusion.H Pages: 1 -->
<!--zoomable 308 -->
<svg id="main" version="1.1" xmlns="http://www.w3.org/2000/svg" xmlns:xlink="http://www.w3.org/1999/xlink" xml:space="preserve" onload="init(evt)">
<style type="text/css"><![CDATA[
.edge:hover path { stroke: red; }
.edge:hover polygon { stroke: red; fill: red; }
]]></style>
<script type="text/javascript"><![CDATA[
var edges = document.getElementsByTagName('g');
if (edges && edges.length) {
  for (var i=0;i<edges.length;i++) {
    if (edges[i].id.substr(0,4)=='edge') {
      edges[i].setAttribute('class','edge');
    }
  }
}
]]></script>
        <defs>
                <circle id="rim" cx="0" cy="0" r="7"/>
                <circle id="rim2" cx="0" cy="0" r="3.5"/>
                <g id="zoomPlus">
                        <use xlink:href="#rim" fill="#404040">
                                <set attributeName="fill" to="#808080" begin="zoomplus.mouseover" end="zoomplus.mouseout"/>
                        </use>
                        <path d="M-4,0h8M0,-4v8" fill="none" stroke="white" stroke-width="1.5" pointer-events="none"/>
                </g>
                <g id="zoomMin">
                        <use xlink:href="#rim" fill="#404040">
                                <set attributeName="fill" to="#808080" begin="zoomminus.mouseover" end="zoomminus.mouseout"/>
                        </use>
                        <path d="M-4,0h8" fill="none" stroke="white" stroke-width="1.5" pointer-events="none"/>
                </g>
                <g id="dirArrow">
                        <path fill="none" stroke="white" stroke-width="1.5" d="M0,-3.0v7 M-2.5,-0.5L0,-3.0L2.5,-0.5"/>
                </g>
               <g id="resetDef">
                       <use xlink:href="#rim2" fill="#404040">
                               <set attributeName="fill" to="#808080" begin="reset.mouseover" end="reset.mouseout"/>
                       </use>
               </g>
        </defs>

<script type="text/javascript">
var viewWidth = 1964;
var viewHeight = 308;
var sectionId = 'dynsection-1';
</script>
<script xlink:href="svgpan.js"/>
<svg id="graph" class="graph">
<g id="viewport">
<title>diffusion.H</title>
<polygon fill="white" stroke="transparent" points="-4,4 -4,-304 1959.5,-304 1959.5,4 -4,4"/>
<!-- Node1 -->
<g id="node1" class="node">
<title>Node1</title>
<g id="a_node1"><a xlink:title=" ">
<polygon fill="#bfbfbf" stroke="black" points="138.5,-280.5 138.5,-299.5 207.5,-299.5 207.5,-280.5 138.5,-280.5"/>
<text text-anchor="middle" x="173" y="-287.5" font-family="Helvetica,sans-Serif" font-size="10.00">diffusion.H</text>
</a>
</g>
</g>
<!-- Node2 -->
<g id="node2" class="node">
<title>Node2</title>
<g id="a_node2"><a xlink:href="incflo__diffusion_8cpp.html" target="_top" xlink:title=" ">
<polygon fill="white" stroke="black" points="0,-224.5 0,-243.5 110,-243.5 110,-224.5 0,-224.5"/>
<text text-anchor="middle" x="55" y="-231.5" font-family="Helvetica,sans-Serif" font-size="10.00">incflo_diffusion.cpp</text>
</a>
</g>
</g>
<!-- Node1&#45;&gt;Node2 -->
<g id="edge1" class="edge">
<title>Node1&#45;&gt;Node2</title>
<path fill="none" stroke="midnightblue" d="M145.1,-276.23C123.03,-266.13 92.82,-252.31 73.61,-243.52"/>
<polygon fill="midnightblue" stroke="midnightblue" points="143.75,-279.46 154.3,-280.44 146.67,-273.1 143.75,-279.46"/>
</g>
<!-- Node3 -->
<g id="node3" class="node">
<title>Node3</title>
<g id="a_node3"><a xlink:href="_diffusion_ops_8_h.html" target="_top" xlink:title=" ">
<polygon fill="white" stroke="black" points="128.5,-224.5 128.5,-243.5 217.5,-243.5 217.5,-224.5 128.5,-224.5"/>
<text text-anchor="middle" x="173" y="-231.5" font-family="Helvetica,sans-Serif" font-size="10.00">DiffusionOps.H</text>
</a>
</g>
</g>
<!-- Node1&#45;&gt;Node3 -->
<g id="edge2" class="edge">
<title>Node1&#45;&gt;Node3</title>
<path fill="none" stroke="midnightblue" d="M173,-269.8C173,-260.91 173,-250.78 173,-243.75"/>
<polygon fill="midnightblue" stroke="midnightblue" points="169.5,-270.08 173,-280.08 176.5,-270.08 169.5,-270.08"/>
</g>
<!-- Node37 -->
<g id="node37" class="node">
<title>Node37</title>
<g id="a_node37"><a xlink:href="_a_b_l_wall_function_8cpp.html" target="_top" xlink:title=" ">
<polygon fill="white" stroke="black" points="235.5,-224.5 235.5,-243.5 352.5,-243.5 352.5,-224.5 235.5,-224.5"/>
<text text-anchor="middle" x="294" y="-231.5" font-family="Helvetica,sans-Serif" font-size="10.00">ABLWallFunction.cpp</text>
</a>
</g>
</g>
<!-- Node1&#45;&gt;Node37 -->
<g id="edge54" class="edge">
<title>Node1&#45;&gt;Node37</title>
<path fill="none" stroke="midnightblue" d="M201.31,-276.37C223.97,-266.26 255.13,-252.35 274.92,-243.52"/>
<polygon fill="midnightblue" stroke="midnightblue" points="199.88,-273.17 192.17,-280.44 202.73,-279.56 199.88,-273.17"/>
</g>
<!-- Node4 -->
<g id="node4" class="node">
<title>Node4</title>
<g id="a_node4"><a xlink:href="_diffusion_ops_8cpp.html" target="_top" xlink:title=" ">
<polygon fill="white" stroke="black" points="26.5,-168.5 26.5,-187.5 125.5,-187.5 125.5,-168.5 26.5,-168.5"/>
<text text-anchor="middle" x="76" y="-175.5" font-family="Helvetica,sans-Serif" font-size="10.00">DiffusionOps.cpp</text>
</a>
</g>
</g>
<!-- Node3&#45;&gt;Node4 -->
<g id="edge3" class="edge">
<title>Node3&#45;&gt;Node4</title>
<path fill="none" stroke="midnightblue" d="M148.66,-219.45C130.76,-209.48 106.95,-196.23 91.55,-187.65"/>
<polygon fill="midnightblue" stroke="midnightblue" points="146.98,-222.52 157.42,-224.32 150.38,-216.4 146.98,-222.52"/>
</g>
<!-- Node5 -->
<g id="node5" class="node">
<title>Node5</title>
<g id="a_node5"><a xlink:href="icns__diffusion_8_h.html" target="_top" xlink:title=" ">
<polygon fill="white" stroke="black" points="45,-56.5 45,-75.5 139,-75.5 139,-56.5 45,-56.5"/>
<text text-anchor="middle" x="92" y="-63.5" font-family="Helvetica,sans-Serif" font-size="10.00">icns_diffusion.H</text>
</a>
</g>
</g>
<!-- Node3&#45;&gt;Node5 -->
<g id="edge4" class="edge">
<title>Node3&#45;&gt;Node5</title>
<path fill="none" stroke="midnightblue" d="M164.15,-214.86C146.77,-179.25 108.81,-101.45 96.18,-75.57"/>
<polygon fill="midnightblue" stroke="midnightblue" points="161.11,-216.62 168.65,-224.08 167.41,-213.55 161.11,-216.62"/>
</g>
<!-- Node7 -->
<g id="node7" class="node">
<title>Node7</title>
<g id="a_node7"><a xlink:href="icns__ops_8_h.html" target="_top" xlink:title=" ">
<polygon fill="white" stroke="black" points="157.5,-56.5 157.5,-75.5 226.5,-75.5 226.5,-56.5 157.5,-56.5"/>
<text text-anchor="middle" x="192" y="-63.5" font-family="Helvetica,sans-Serif" font-size="10.00">icns_ops.H</text>
</a>
</g>
</g>
<!-- Node3&#45;&gt;Node7 -->
<g id="edge6" class="edge">
<title>Node3&#45;&gt;Node7</title>
<path fill="none" stroke="midnightblue" d="M175.18,-213.93C179.3,-177.92 188.08,-101.23 191.02,-75.57"/>
<polygon fill="midnightblue" stroke="midnightblue" points="171.68,-213.74 174.02,-224.08 178.64,-214.54 171.68,-213.74"/>
</g>
<!-- Node8 -->
<g id="node8" class="node">
<title>Node8</title>
<g id="a_node8"><a xlink:href="_p_d_e_8_h.html" target="_top" xlink:title=" ">
<polygon fill="white" stroke="black" points="899.5,-168.5 899.5,-187.5 946.5,-187.5 946.5,-168.5 899.5,-168.5"/>
<text text-anchor="middle" x="923" y="-175.5" font-family="Helvetica,sans-Serif" font-size="10.00">PDE.H</text>
</a>
</g>
</g>
<!-- Node3&#45;&gt;Node8 -->
<g id="edge8" class="edge">
<title>Node3&#45;&gt;Node8</title>
<path fill="none" stroke="midnightblue" d="M227.73,-223.91C496.98,-192.98 811.94,-182.18 899.45,-179.63"/>
<polygon fill="midnightblue" stroke="midnightblue" points="227.3,-220.43 217.77,-225.06 228.11,-227.39 227.3,-220.43"/>
</g>
<!-- Node6 -->
<g id="node6" class="node">
<title>Node6</title>
<g id="a_node6"><a xlink:href="icns_8cpp.html" target="_top" xlink:title=" ">
<polygon fill="white" stroke="black" points="227,-0.5 227,-19.5 283,-19.5 283,-0.5 227,-0.5"/>
<text text-anchor="middle" x="255" y="-7.5" font-family="Helvetica,sans-Serif" font-size="10.00">icns.cpp</text>
</a>
</g>
</g>
<!-- Node5&#45;&gt;Node6 -->
<g id="edge5" class="edge">
<title>Node5&#45;&gt;Node6</title>
<path fill="none" stroke="midnightblue" d="M127.7,-53.17C158.4,-43 201.92,-28.59 229.29,-19.52"/>
<polygon fill="midnightblue" stroke="midnightblue" points="126.22,-49.98 117.83,-56.44 128.42,-56.62 126.22,-49.98"/>
</g>
<!-- Node7&#45;&gt;Node6 -->
<g id="edge7" class="edge">
<title>Node7&#45;&gt;Node6</title>
<path fill="none" stroke="midnightblue" d="M210.04,-49.54C221.27,-39.91 235.32,-27.87 244.69,-19.83"/>
<polygon fill="midnightblue" stroke="midnightblue" points="207.44,-47.16 202.12,-56.32 211.99,-52.47 207.44,-47.16"/>
</g>
<!-- Node9 -->
<g id="node9" class="node">
<title>Node9</title>
<g id="a_node9"><a xlink:href="density_8_h.html" target="_top" xlink:title=" ">
<polygon fill="white" stroke="black" points="681,-112.5 681,-131.5 743,-131.5 743,-112.5 681,-112.5"/>
<text text-anchor="middle" x="712" y="-119.5" font-family="Helvetica,sans-Serif" font-size="10.00">density.H</text>
</a>
</g>
</g>
<!-- Node8&#45;&gt;Node9 -->
<g id="edge9" class="edge">
<title>Node8&#45;&gt;Node9</title>
<path fill="none" stroke="midnightblue" d="M889.34,-168.39C849.11,-158.09 782.34,-141 743.22,-130.99"/>
<polygon fill="midnightblue" stroke="midnightblue" points="888.65,-171.82 899.21,-170.91 890.39,-165.04 888.65,-171.82"/>
</g>
<!-- Node12 -->
<g id="node12" class="node">
<title>Node12</title>
<g id="a_node12"><a xlink:href="icns_8_h.html" target="_top" xlink:title=" ">
<polygon fill="white" stroke="black" points="297.5,-112.5 297.5,-131.5 344.5,-131.5 344.5,-112.5 297.5,-112.5"/>
<text text-anchor="middle" x="321" y="-119.5" font-family="Helvetica,sans-Serif" font-size="10.00">icns.H</text>
</a>
</g>
</g>
<!-- Node8&#45;&gt;Node12 -->
<g id="edge13" class="edge">
<title>Node8&#45;&gt;Node12</title>
<path fill="none" stroke="midnightblue" d="M889.29,-173.98C780.15,-164.19 438.14,-133.51 344.76,-125.13"/>
<polygon fill="midnightblue" stroke="midnightblue" points="889.13,-177.48 899.4,-174.88 889.75,-170.5 889.13,-177.48"/>
</g>
<!-- Node17 -->
<g id="node17" class="node">
<title>Node17</title>
<g id="a_node17"><a xlink:href="levelset_8_h.html" target="_top" xlink:title=" ">
<polygon fill="white" stroke="black" points="823,-112.5 823,-131.5 889,-131.5 889,-112.5 823,-112.5"/>
<text text-anchor="middle" x="856" y="-119.5" font-family="Helvetica,sans-Serif" font-size="10.00">levelset.H</text>
</a>
</g>
</g>
<!-- Node8&#45;&gt;Node17 -->
<g id="edge23" class="edge">
<title>Node8&#45;&gt;Node17</title>
<path fill="none" stroke="midnightblue" d="M904.17,-161.82C892.16,-152.15 877.03,-139.95 866.96,-131.83"/>
<polygon fill="midnightblue" stroke="midnightblue" points="902.25,-164.77 912.24,-168.32 906.65,-159.32 902.25,-164.77"/>
</g>
<!-- Node20 -->
<g id="node20" class="node">
<title>Node20</title>
<g id="a_node20"><a xlink:href="_s_d_r_8_h.html" target="_top" xlink:title=" ">
<polygon fill="white" stroke="black" points="996.5,-112.5 996.5,-131.5 1043.5,-131.5 1043.5,-112.5 996.5,-112.5"/>
<text text-anchor="middle" x="1020" y="-119.5" font-family="Helvetica,sans-Serif" font-size="10.00">SDR.H</text>
</a>
</g>
</g>
<!-- Node8&#45;&gt;Node20 -->
<g id="edge27" class="edge">
<title>Node8&#45;&gt;Node20</title>
<path fill="none" stroke="midnightblue" d="M947.34,-163.45C965.24,-153.48 989.05,-140.23 1004.45,-131.65"/>
<polygon fill="midnightblue" stroke="midnightblue" points="945.62,-160.4 938.58,-168.32 949.02,-166.52 945.62,-160.4"/>
</g>
<!-- Node26 -->
<g id="node26" class="node">
<title>Node26</title>
<g id="a_node26"><a xlink:href="temperature_8_h.html" target="_top" xlink:title=" ">
<polygon fill="white" stroke="black" points="1426,-112.5 1426,-131.5 1514,-131.5 1514,-112.5 1426,-112.5"/>
<text text-anchor="middle" x="1470" y="-119.5" font-family="Helvetica,sans-Serif" font-size="10.00">temperature.H</text>
</a>
</g>
</g>
<!-- Node8&#45;&gt;Node26 -->
<g id="edge36" class="edge">
<title>Node8&#45;&gt;Node26</title>
<path fill="none" stroke="midnightblue" d="M956.65,-173.68C1051.28,-164.34 1319.7,-137.84 1425.93,-127.35"/>
<polygon fill="midnightblue" stroke="midnightblue" points="956.11,-170.21 946.5,-174.68 956.8,-177.18 956.11,-170.21"/>
</g>
<!-- Node28 -->
<g id="node28" class="node">
<title>Node28</title>
<g id="a_node28"><a xlink:href="_t_k_e_8_h.html" target="_top" xlink:title=" ">
<polygon fill="white" stroke="black" points="1250,-112.5 1250,-131.5 1296,-131.5 1296,-112.5 1250,-112.5"/>
<text text-anchor="middle" x="1273" y="-119.5" font-family="Helvetica,sans-Serif" font-size="10.00">TKE.H</text>
</a>
</g>
</g>
<!-- Node8&#45;&gt;Node28 -->
<g id="edge38" class="edge">
<title>Node8&#45;&gt;Node28</title>
<path fill="none" stroke="midnightblue" d="M956.62,-171.81C1027.16,-160.93 1189.06,-135.95 1249.59,-126.61"/>
<polygon fill="midnightblue" stroke="midnightblue" points="955.86,-168.39 946.51,-173.37 956.92,-175.31 955.86,-168.39"/>
</g>
<!-- Node32 -->
<g id="node32" class="node">
<title>Node32</title>
<g id="a_node32"><a xlink:href="vof_8_h.html" target="_top" xlink:title=" ">
<polygon fill="white" stroke="black" points="1714,-112.5 1714,-131.5 1756,-131.5 1756,-112.5 1714,-112.5"/>
<text text-anchor="middle" x="1735" y="-119.5" font-family="Helvetica,sans-Serif" font-size="10.00">vof.H</text>
</a>
</g>
</g>
<!-- Node8&#45;&gt;Node32 -->
<g id="edge46" class="edge">
<title>Node8&#45;&gt;Node32</title>
<path fill="none" stroke="midnightblue" d="M957.18,-174.73C1094.44,-165.6 1603.48,-131.75 1713.81,-124.41"/>
<polygon fill="midnightblue" stroke="midnightblue" points="956.61,-171.26 946.86,-175.41 957.07,-178.24 956.61,-171.26"/>
</g>
<!-- Node10 -->
<g id="node10" class="node">
<title>Node10</title>
<g id="a_node10"><a xlink:href="density_8cpp.html" target="_top" xlink:title=" ">
<polygon fill="white" stroke="black" points="630.5,-0.5 630.5,-19.5 701.5,-19.5 701.5,-0.5 630.5,-0.5"/>
<text text-anchor="middle" x="666" y="-7.5" font-family="Helvetica,sans-Serif" font-size="10.00">density.cpp</text>
</a>
</g>
</g>
<!-- Node9&#45;&gt;Node10 -->
<g id="edge10" class="edge">
<title>Node9&#45;&gt;Node10</title>
<path fill="none" stroke="midnightblue" d="M687.63,-106.73C677.05,-99.09 665.78,-88.64 660,-76 651.52,-57.45 657.93,-32.85 662.49,-19.88"/>
<polygon fill="midnightblue" stroke="midnightblue" points="685.96,-109.82 696.22,-112.47 689.85,-104 685.96,-109.82"/>
</g>
<!-- Node11 -->
<g id="node11" class="node">
<title>Node11</title>
<g id="a_node11"><a xlink:href="density__ops_8_h.html" target="_top" xlink:title=" ">
<polygon fill="white" stroke="black" points="669,-56.5 669,-75.5 755,-75.5 755,-56.5 669,-56.5"/>
<text text-anchor="middle" x="712" y="-63.5" font-family="Helvetica,sans-Serif" font-size="10.00">density_ops.H</text>
</a>
</g>
</g>
<!-- Node9&#45;&gt;Node11 -->
<g id="edge11" class="edge">
<title>Node9&#45;&gt;Node11</title>
<path fill="none" stroke="midnightblue" d="M712,-101.8C712,-92.91 712,-82.78 712,-75.75"/>
<polygon fill="midnightblue" stroke="midnightblue" points="708.5,-102.08 712,-112.08 715.5,-102.08 708.5,-102.08"/>
</g>
<!-- Node11&#45;&gt;Node10 -->
<g id="edge12" class="edge">
<title>Node11&#45;&gt;Node10</title>
<path fill="none" stroke="midnightblue" d="M697.89,-48.43C689.82,-38.97 680.04,-27.48 673.45,-19.75"/>
<polygon fill="midnightblue" stroke="midnightblue" points="695.25,-50.74 704.4,-56.08 700.58,-46.2 695.25,-50.74"/>
</g>
<!-- Node12&#45;&gt;Node5 -->
<g id="edge20" class="edge">
<title>Node12&#45;&gt;Node5</title>
<path fill="none" stroke="midnightblue" d="M287.5,-113.1C245.01,-103.08 172.01,-85.87 128.25,-75.55"/>
<polygon fill="midnightblue" stroke="midnightblue" points="286.82,-116.54 297.36,-115.42 288.43,-109.72 286.82,-116.54"/>
</g>
<!-- Node12&#45;&gt;Node6 -->
<g id="edge14" class="edge">
<title>Node12&#45;&gt;Node6</title>
<path fill="none" stroke="midnightblue" d="M301.05,-106.03C291.64,-98.04 280.98,-87.5 274,-76 262.89,-57.71 257.98,-32.57 256.06,-19.57"/>
<polygon fill="midnightblue" stroke="midnightblue" points="298.89,-108.78 308.86,-112.34 303.29,-103.33 298.89,-108.78"/>
</g>
<!-- Node12&#45;&gt;Node7 -->
<g id="edge21" class="edge">
<title>Node12&#45;&gt;Node7</title>
<path fill="none" stroke="midnightblue" d="M291.15,-108.5C266.96,-98.38 233.54,-84.39 212.34,-75.52"/>
<polygon fill="midnightblue" stroke="midnightblue" points="289.98,-111.81 300.56,-112.44 292.69,-105.35 289.98,-111.81"/>
</g>
<!-- Node13 -->
<g id="node13" class="node">
<title>Node13</title>
<g id="a_node13"><a xlink:href="icns__advection_8_h.html" target="_top" xlink:title=" ">
<polygon fill="white" stroke="black" points="377,-56.5 377,-75.5 477,-75.5 477,-56.5 377,-56.5"/>
<text text-anchor="middle" x="427" y="-63.5" font-family="Helvetica,sans-Serif" font-size="10.00">icns_advection.H</text>
</a>
</g>
</g>
<!-- Node12&#45;&gt;Node13 -->
<g id="edge15" class="edge">
<title>Node12&#45;&gt;Node13</title>
<path fill="none" stroke="midnightblue" d="M347.06,-107.73C366.68,-97.73 393.03,-84.31 410.01,-75.65"/>
<polygon fill="midnightblue" stroke="midnightblue" points="345.35,-104.67 338.03,-112.32 348.53,-110.9 345.35,-104.67"/>
</g>
<!-- Node15 -->
<g id="node15" class="node">
<title>Node15</title>
<g id="a_node15"><a xlink:href="icns__bcop_8_h.html" target="_top" xlink:title=" ">
<polygon fill="white" stroke="black" points="283.5,-56.5 283.5,-75.5 358.5,-75.5 358.5,-56.5 283.5,-56.5"/>
<text text-anchor="middle" x="321" y="-63.5" font-family="Helvetica,sans-Serif" font-size="10.00">icns_bcop.H</text>
</a>
</g>
</g>
<!-- Node12&#45;&gt;Node15 -->
<g id="edge18" class="edge">
<title>Node12&#45;&gt;Node15</title>
<path fill="none" stroke="midnightblue" d="M321,-101.8C321,-92.91 321,-82.78 321,-75.75"/>
<polygon fill="midnightblue" stroke="midnightblue" points="317.5,-102.08 321,-112.08 324.5,-102.08 317.5,-102.08"/>
</g>
<!-- Node16 -->
<g id="node16" class="node">
<title>Node16</title>
<g id="a_node16"><a xlink:href="_power_law_profile_8cpp.html" target="_top" xlink:title=" ">
<polygon fill="white" stroke="black" points="495.5,-56.5 495.5,-75.5 612.5,-75.5 612.5,-56.5 495.5,-56.5"/>
<text text-anchor="middle" x="554" y="-63.5" font-family="Helvetica,sans-Serif" font-size="10.00">PowerLawProfile.cpp</text>
</a>
</g>
</g>
<!-- Node12&#45;&gt;Node16 -->
<g id="edge22" class="edge">
<title>Node12&#45;&gt;Node16</title>
<path fill="none" stroke="midnightblue" d="M354.61,-113.21C397.72,-103.22 472.25,-85.95 516.96,-75.59"/>
<polygon fill="midnightblue" stroke="midnightblue" points="353.58,-109.86 344.62,-115.53 355.16,-116.68 353.58,-109.86"/>
</g>
<!-- Node13&#45;&gt;Node6 -->
<g id="edge16" class="edge">
<title>Node13&#45;&gt;Node6</title>
<path fill="none" stroke="midnightblue" d="M390.17,-53.44C357.74,-43.26 311.26,-28.66 282.13,-19.52"/>
<polygon fill="midnightblue" stroke="midnightblue" points="389.16,-56.79 399.75,-56.44 391.25,-50.11 389.16,-56.79"/>
</g>
<!-- Node14 -->
<g id="node14" class="node">
<title>Node14</title>
<g id="a_node14"><a xlink:href="icns__advection_8cpp.html" target="_top" xlink:title=" ">
<polygon fill="white" stroke="black" points="372,-0.5 372,-19.5 482,-19.5 482,-0.5 372,-0.5"/>
<text text-anchor="middle" x="427" y="-7.5" font-family="Helvetica,sans-Serif" font-size="10.00">icns_advection.cpp</text>
</a>
</g>
</g>
<!-- Node13&#45;&gt;Node14 -->
<g id="edge17" class="edge">
<title>Node13&#45;&gt;Node14</title>
<path fill="none" stroke="midnightblue" d="M427,-45.8C427,-36.91 427,-26.78 427,-19.75"/>
<polygon fill="midnightblue" stroke="midnightblue" points="423.5,-46.08 427,-56.08 430.5,-46.08 423.5,-46.08"/>
</g>
<!-- Node15&#45;&gt;Node6 -->
<g id="edge19" class="edge">
<title>Node15&#45;&gt;Node6</title>
<path fill="none" stroke="midnightblue" d="M302.45,-49.82C290.62,-40.15 275.71,-27.95 265.8,-19.83"/>
<polygon fill="midnightblue" stroke="midnightblue" points="300.44,-52.7 310.4,-56.32 304.87,-47.28 300.44,-52.7"/>
</g>
<!-- Node18 -->
<g id="node18" class="node">
<title>Node18</title>
<g id="a_node18"><a xlink:href="levelset_8cpp.html" target="_top" xlink:title=" ">
<polygon fill="white" stroke="black" points="775,-0.5 775,-19.5 851,-19.5 851,-0.5 775,-0.5"/>
<text text-anchor="middle" x="813" y="-7.5" font-family="Helvetica,sans-Serif" font-size="10.00">levelset.cpp</text>
</a>
</g>
</g>
<!-- Node17&#45;&gt;Node18 -->
<g id="edge24" class="edge">
<title>Node17&#45;&gt;Node18</title>
<path fill="none" stroke="midnightblue" d="M830.82,-107C819.81,-99.4 808.04,-88.91 802,-76 793.26,-57.34 802.25,-32.79 808.36,-19.85"/>
<polygon fill="midnightblue" stroke="midnightblue" points="829.06,-110.03 839.37,-112.46 832.83,-104.13 829.06,-110.03"/>
</g>
<!-- Node19 -->
<g id="node19" class="node">
<title>Node19</title>
<g id="a_node19"><a xlink:href="levelset__ops_8_h.html" target="_top" xlink:title=" ">
<polygon fill="white" stroke="black" points="811.5,-56.5 811.5,-75.5 900.5,-75.5 900.5,-56.5 811.5,-56.5"/>
<text text-anchor="middle" x="856" y="-63.5" font-family="Helvetica,sans-Serif" font-size="10.00">levelset_ops.H</text>
</a>
</g>
</g>
<!-- Node17&#45;&gt;Node19 -->
<g id="edge25" class="edge">
<title>Node17&#45;&gt;Node19</title>
<path fill="none" stroke="midnightblue" d="M856,-101.8C856,-92.91 856,-82.78 856,-75.75"/>
<polygon fill="midnightblue" stroke="midnightblue" points="852.5,-102.08 856,-112.08 859.5,-102.08 852.5,-102.08"/>
</g>
<!-- Node19&#45;&gt;Node18 -->
<g id="edge26" class="edge">
<title>Node19&#45;&gt;Node18</title>
<path fill="none" stroke="midnightblue" d="M842.58,-48.14C835.09,-38.74 826.06,-27.4 819.97,-19.75"/>
<polygon fill="midnightblue" stroke="midnightblue" points="839.93,-50.44 848.9,-56.08 845.41,-46.08 839.93,-50.44"/>
</g>
<!-- Node21 -->
<g id="node21" class="node">
<title>Node21</title>
<g id="a_node21"><a xlink:href="_s_d_r_8cpp.html" target="_top" xlink:title=" ">
<polygon fill="white" stroke="black" points="930.5,-0.5 930.5,-19.5 987.5,-19.5 987.5,-0.5 930.5,-0.5"/>
<text text-anchor="middle" x="959" y="-7.5" font-family="Helvetica,sans-Serif" font-size="10.00">SDR.cpp</text>
</a>
</g>
</g>
<!-- Node20&#45;&gt;Node21 -->
<g id="edge28" class="edge">
<title>Node20&#45;&gt;Node21</title>
<path fill="none" stroke="midnightblue" d="M986.88,-109C972.2,-101.84 956.38,-91.12 948,-76 937.9,-57.78 947.72,-32.61 954.24,-19.59"/>
<polygon fill="midnightblue" stroke="midnightblue" points="985.72,-112.32 996.27,-113.21 988.58,-105.93 985.72,-112.32"/>
</g>
<!-- Node22 -->
<g id="node22" class="node">
<title>Node22</title>
<g id="a_node22"><a xlink:href="sdr__ops_8_h.html" target="_top" xlink:title=" ">
<polygon fill="white" stroke="black" points="957.5,-56.5 957.5,-75.5 1022.5,-75.5 1022.5,-56.5 957.5,-56.5"/>
<text text-anchor="middle" x="990" y="-63.5" font-family="Helvetica,sans-Serif" font-size="10.00">sdr_ops.H</text>
</a>
</g>
</g>
<!-- Node20&#45;&gt;Node22 -->
<g id="edge29" class="edge">
<title>Node20&#45;&gt;Node22</title>
<path fill="none" stroke="midnightblue" d="M1010.15,-103.27C1005.03,-94.05 998.98,-83.17 994.86,-75.75"/>
<polygon fill="midnightblue" stroke="midnightblue" points="1007.13,-105.04 1015.05,-112.08 1013.25,-101.64 1007.13,-105.04"/>
</g>
<!-- Node23 -->
<g id="node23" class="node">
<title>Node23</title>
<g id="a_node23"><a xlink:href="_k_omega_s_s_t_8cpp.html" target="_top" xlink:title=" ">
<polygon fill="white" stroke="black" points="1065.5,-0.5 1065.5,-19.5 1160.5,-19.5 1160.5,-0.5 1065.5,-0.5"/>
<text text-anchor="middle" x="1113" y="-7.5" font-family="Helvetica,sans-Serif" font-size="10.00">KOmegaSST.cpp</text>
</a>
</g>
</g>
<!-- Node20&#45;&gt;Node23 -->
<g id="edge31" class="edge">
<title>Node20&#45;&gt;Node23</title>
<path fill="none" stroke="midnightblue" d="M1032.21,-104.12C1042.06,-90.76 1056.44,-71.8 1070,-56 1081.26,-42.88 1095.24,-28.58 1104.14,-19.7"/>
<polygon fill="midnightblue" stroke="midnightblue" points="1029.27,-102.22 1026.19,-112.36 1034.92,-106.35 1029.27,-102.22"/>
</g>
<!-- Node24 -->
<g id="node24" class="node">
<title>Node24</title>
<g id="a_node24"><a xlink:href="_k_omega_s_s_t_i_8_h.html" target="_top" xlink:title=" ">
<polygon fill="white" stroke="black" points="1079.5,-56.5 1079.5,-75.5 1168.5,-75.5 1168.5,-56.5 1079.5,-56.5"/>
<text text-anchor="middle" x="1124" y="-63.5" font-family="Helvetica,sans-Serif" font-size="10.00">KOmegaSSTI.H</text>
</a>
</g>
</g>
<!-- Node20&#45;&gt;Node24 -->
<g id="edge32" class="edge">
<title>Node20&#45;&gt;Node24</title>
<path fill="none" stroke="midnightblue" d="M1045.83,-107.59C1065.06,-97.61 1090.74,-84.27 1107.33,-75.65"/>
<polygon fill="midnightblue" stroke="midnightblue" points="1043.97,-104.61 1036.71,-112.32 1047.2,-110.82 1043.97,-104.61"/>
</g>
<!-- Node25 -->
<g id="node25" class="node">
<title>Node25</title>
<g id="a_node25"><a xlink:href="_k_omega_s_s_t_i_d_d_e_s_8cpp.html" target="_top" xlink:title=" ">
<polygon fill="white" stroke="black" points="1179,-0.5 1179,-19.5 1305,-19.5 1305,-0.5 1179,-0.5"/>
<text text-anchor="middle" x="1242" y="-7.5" font-family="Helvetica,sans-Serif" font-size="10.00">KOmegaSSTIDDES.cpp</text>
</a>
</g>
</g>
<!-- Node20&#45;&gt;Node25 -->
<g id="edge35" class="edge">
<title>Node20&#45;&gt;Node25</title>
<path fill="none" stroke="midnightblue" d="M1053.64,-116.4C1086.83,-110.74 1138.09,-98.92 1177,-76 1202.58,-60.94 1225.3,-33.45 1235.82,-19.54"/>
<polygon fill="midnightblue" stroke="midnightblue" points="1052.86,-112.98 1043.54,-118.02 1053.97,-119.89 1052.86,-112.98"/>
</g>
<!-- Node22&#45;&gt;Node21 -->
<g id="edge30" class="edge">
<title>Node22&#45;&gt;Node21</title>
<path fill="none" stroke="midnightblue" d="M979.82,-47.27C974.53,-38.05 968.28,-27.17 964.02,-19.75"/>
<polygon fill="midnightblue" stroke="midnightblue" points="976.87,-49.15 984.88,-56.08 982.94,-45.67 976.87,-49.15"/>
</g>
<!-- Node24&#45;&gt;Node23 -->
<g id="edge33" class="edge">
<title>Node24&#45;&gt;Node23</title>
<path fill="none" stroke="midnightblue" d="M1120.15,-46.1C1118.32,-37.14 1116.23,-26.86 1114.78,-19.75"/>
<polygon fill="midnightblue" stroke="midnightblue" points="1116.76,-46.98 1122.18,-56.08 1123.62,-45.59 1116.76,-46.98"/>
</g>
<!-- Node24&#45;&gt;Node25 -->
<g id="edge34" class="edge">
<title>Node24&#45;&gt;Node25</title>
<path fill="none" stroke="midnightblue" d="M1151.9,-52.23C1173.97,-42.13 1204.18,-28.31 1223.39,-19.52"/>
<polygon fill="midnightblue" stroke="midnightblue" points="1150.33,-49.1 1142.7,-56.44 1153.25,-55.46 1150.33,-49.1"/>
</g>
<!-- Node27 -->
<g id="node27" class="node">
<title>Node27</title>
<g id="a_node27"><a xlink:href="temperature_8cpp.html" target="_top" xlink:title=" ">
<polygon fill="white" stroke="black" points="1533,-56.5 1533,-75.5 1631,-75.5 1631,-56.5 1533,-56.5"/>
<text text-anchor="middle" x="1582" y="-63.5" font-family="Helvetica,sans-Serif" font-size="10.00">temperature.cpp</text>
</a>
</g>
</g>
<!-- Node26&#45;&gt;Node27 -->
<g id="edge37" class="edge">
<title>Node26&#45;&gt;Node27</title>
<path fill="none" stroke="midnightblue" d="M1497.25,-107.86C1518.02,-97.85 1546.02,-84.35 1564.05,-75.65"/>
<polygon fill="midnightblue" stroke="midnightblue" points="1495.48,-104.83 1487.99,-112.32 1498.52,-111.13 1495.48,-104.83"/>
</g>
<!-- Node28&#45;&gt;Node23 -->
<g id="edge43" class="edge">
<title>Node28&#45;&gt;Node23</title>
<path fill="none" stroke="midnightblue" d="M1251.79,-106.42C1217.95,-83.15 1152.78,-38.35 1125.5,-19.59"/>
<polygon fill="midnightblue" stroke="midnightblue" points="1250.22,-109.59 1260.45,-112.37 1254.19,-103.82 1250.22,-109.59"/>
</g>
<!-- Node28&#45;&gt;Node24 -->
<g id="edge44" class="edge">
<title>Node28&#45;&gt;Node24</title>
<path fill="none" stroke="midnightblue" d="M1239.97,-109.03C1211.98,-98.89 1172.52,-84.59 1147.61,-75.56"/>
<polygon fill="midnightblue" stroke="midnightblue" points="1239.12,-112.45 1249.72,-112.56 1241.51,-105.86 1239.12,-112.45"/>
</g>
<!-- Node28&#45;&gt;Node25 -->
<g id="edge45" class="edge">
<title>Node28&#45;&gt;Node25</title>
<path fill="none" stroke="midnightblue" d="M1267.84,-102.67C1261.06,-78.62 1249.44,-37.39 1244.42,-19.59"/>
<polygon fill="midnightblue" stroke="midnightblue" points="1264.49,-103.69 1270.57,-112.37 1271.22,-101.79 1264.49,-103.69"/>
</g>
<!-- Node29 -->
<g id="node29" class="node">
<title>Node29</title>
<g id="a_node29"><a xlink:href="_t_k_e_8cpp.html" target="_top" xlink:title=" ">
<polygon fill="white" stroke="black" points="1330,-0.5 1330,-19.5 1386,-19.5 1386,-0.5 1330,-0.5"/>
<text text-anchor="middle" x="1358" y="-7.5" font-family="Helvetica,sans-Serif" font-size="10.00">TKE.cpp</text>
</a>
</g>
</g>
<!-- Node28&#45;&gt;Node29 -->
<g id="edge39" class="edge">
<title>Node28&#45;&gt;Node29</title>
<path fill="none" stroke="midnightblue" d="M1285.93,-104.27C1304.3,-80.49 1337.3,-37.79 1351.36,-19.59"/>
<polygon fill="midnightblue" stroke="midnightblue" points="1283.01,-102.32 1279.67,-112.37 1288.55,-106.6 1283.01,-102.32"/>
</g>
<!-- Node30 -->
<g id="node30" class="node">
<title>Node30</title>
<g id="a_node30"><a xlink:href="tke__ops_8_h.html" target="_top" xlink:title=" ">
<polygon fill="white" stroke="black" points="1339.5,-56.5 1339.5,-75.5 1404.5,-75.5 1404.5,-56.5 1339.5,-56.5"/>
<text text-anchor="middle" x="1372" y="-63.5" font-family="Helvetica,sans-Serif" font-size="10.00">tke_ops.H</text>
</a>
</g>
</g>
<!-- Node28&#45;&gt;Node30 -->
<g id="edge40" class="edge">
<title>Node28&#45;&gt;Node30</title>
<path fill="none" stroke="midnightblue" d="M1297.84,-107.45C1316.11,-97.48 1340.42,-84.23 1356.13,-75.65"/>
<polygon fill="midnightblue" stroke="midnightblue" points="1296.01,-104.46 1288.91,-112.32 1299.36,-110.61 1296.01,-104.46"/>
</g>
<!-- Node31 -->
<g id="node31" class="node">
<title>Node31</title>
<g id="a_node31"><a xlink:href="_one_eq_ksgs_8cpp.html" target="_top" xlink:title=" ">
<polygon fill="white" stroke="black" points="1423,-56.5 1423,-75.5 1515,-75.5 1515,-56.5 1423,-56.5"/>
<text text-anchor="middle" x="1469" y="-63.5" font-family="Helvetica,sans-Serif" font-size="10.00">OneEqKsgs.cpp</text>
</a>
</g>
</g>
<!-- Node28&#45;&gt;Node31 -->
<g id="edge42" class="edge">
<title>Node28&#45;&gt;Node31</title>
<path fill="none" stroke="midnightblue" d="M1306.02,-111.9C1342.87,-101.75 1402.05,-85.45 1438.04,-75.53"/>
<polygon fill="midnightblue" stroke="midnightblue" points="1304.96,-108.56 1296.25,-114.59 1306.82,-115.31 1304.96,-108.56"/>
</g>
<!-- Node30&#45;&gt;Node29 -->
<g id="edge41" class="edge">
<title>Node30&#45;&gt;Node29</title>
<path fill="none" stroke="midnightblue" d="M1367.18,-46.4C1364.83,-37.36 1362.13,-26.94 1360.27,-19.75"/>
<polygon fill="midnightblue" stroke="midnightblue" points="1363.79,-47.28 1369.69,-56.08 1370.57,-45.52 1363.79,-47.28"/>
</g>
<!-- Node33 -->
<g id="node33" class="node">
<title>Node33</title>
<g id="a_node33"><a xlink:href="vof_8cpp.html" target="_top" xlink:title=" ">
<polygon fill="white" stroke="black" points="1760,-0.5 1760,-19.5 1812,-19.5 1812,-0.5 1760,-0.5"/>
<text text-anchor="middle" x="1786" y="-7.5" font-family="Helvetica,sans-Serif" font-size="10.00">vof.cpp</text>
</a>
</g>
</g>
<!-- Node32&#45;&gt;Node33 -->
<g id="edge47" class="edge">
<title>Node32&#45;&gt;Node33</title>
<path fill="none" stroke="midnightblue" d="M1708.68,-107.26C1688.2,-94.67 1665.24,-75.15 1678,-56 1696.14,-28.79 1734.18,-18.01 1759.91,-13.75"/>
<polygon fill="midnightblue" stroke="midnightblue" points="1707.08,-110.37 1717.49,-112.36 1710.59,-104.32 1707.08,-110.37"/>
</g>
<!-- Node34 -->
<g id="node34" class="node">
<title>Node34</title>
<g id="a_node34"><a xlink:href="vof__advection_8_h.html" target="_top" xlink:title=" ">
<polygon fill="white" stroke="black" points="1687,-56.5 1687,-75.5 1783,-75.5 1783,-56.5 1687,-56.5"/>
<text text-anchor="middle" x="1735" y="-63.5" font-family="Helvetica,sans-Serif" font-size="10.00">vof_advection.H</text>
</a>
</g>
</g>
<!-- Node32&#45;&gt;Node34 -->
<g id="edge48" class="edge">
<title>Node32&#45;&gt;Node34</title>
<path fill="none" stroke="midnightblue" d="M1735,-101.8C1735,-92.91 1735,-82.78 1735,-75.75"/>
<polygon fill="midnightblue" stroke="midnightblue" points="1731.5,-102.08 1735,-112.08 1738.5,-102.08 1731.5,-102.08"/>
</g>
<!-- Node35 -->
<g id="node35" class="node">
<title>Node35</title>
<g id="a_node35"><a xlink:href="vof__bcop_8_h.html" target="_top" xlink:title=" ">
<polygon fill="white" stroke="black" points="1801.5,-56.5 1801.5,-75.5 1872.5,-75.5 1872.5,-56.5 1801.5,-56.5"/>
<text text-anchor="middle" x="1837" y="-63.5" font-family="Helvetica,sans-Serif" font-size="10.00">vof_bcop.H</text>
</a>
</g>
</g>
<!-- Node32&#45;&gt;Node35 -->
<g id="edge50" class="edge">
<title>Node32&#45;&gt;Node35</title>
<path fill="none" stroke="midnightblue" d="M1760.33,-107.59C1779.19,-97.61 1804.38,-84.27 1820.65,-75.65"/>
<polygon fill="midnightblue" stroke="midnightblue" points="1758.59,-104.55 1751.39,-112.32 1761.86,-110.74 1758.59,-104.55"/>
</g>
<!-- Node36 -->
<g id="node36" class="node">
<title>Node36</title>
<g id="a_node36"><a xlink:href="vof__ops_8_h.html" target="_top" xlink:title=" ">
<polygon fill="white" stroke="black" points="1890.5,-56.5 1890.5,-75.5 1955.5,-75.5 1955.5,-56.5 1890.5,-56.5"/>
<text text-anchor="middle" x="1923" y="-63.5" font-family="Helvetica,sans-Serif" font-size="10.00">vof_ops.H</text>
</a>
</g>
</g>
<!-- Node32&#45;&gt;Node36 -->
<g id="edge52" class="edge">
<title>Node32&#45;&gt;Node36</title>
<path fill="none" stroke="midnightblue" d="M1765.96,-112.11C1801.23,-101.98 1858.47,-85.53 1893.24,-75.55"/>
<polygon fill="midnightblue" stroke="midnightblue" points="1764.85,-108.79 1756.2,-114.91 1766.78,-115.51 1764.85,-108.79"/>
</g>
<!-- Node34&#45;&gt;Node33 -->
<g id="edge49" class="edge">
<title>Node34&#45;&gt;Node33</title>
<path fill="none" stroke="midnightblue" d="M1750.38,-48.72C1759.37,-39.2 1770.36,-27.56 1777.74,-19.75"/>
<polygon fill="midnightblue" stroke="midnightblue" points="1747.74,-46.41 1743.42,-56.08 1752.83,-51.22 1747.74,-46.41"/>
</g>
<!-- Node35&#45;&gt;Node33 -->
<g id="edge51" class="edge">
<title>Node35&#45;&gt;Node33</title>
<path fill="none" stroke="midnightblue" d="M1821.62,-48.72C1812.63,-39.2 1801.64,-27.56 1794.26,-19.75"/>
<polygon fill="midnightblue" stroke="midnightblue" points="1819.17,-51.22 1828.58,-56.08 1824.26,-46.41 1819.17,-51.22"/>
</g>
<!-- Node36&#45;&gt;Node33 -->
<g id="edge53" class="edge">
<title>Node36&#45;&gt;Node33</title>
<path fill="none" stroke="midnightblue" d="M1891.98,-52.77C1866.24,-42.63 1830.31,-28.47 1807.61,-19.52"/>
<polygon fill="midnightblue" stroke="midnightblue" points="1890.71,-56.03 1901.29,-56.44 1893.27,-49.52 1890.71,-56.03"/>
</g>
</g>
</svg>
        <g id="navigator" transform="translate(0 0)" fill="#404254">
                <rect fill="#f2f5e9" fill-opacity="0.5" stroke="#606060" stroke-width=".5" x="0" y="0" width="60" height="60"/>
                <use id="zoomplus" xlink:href="#zoomPlus" x="17" y="9" onmousedown="handleZoom(evt,'in')"/>
                <use id="zoomminus" xlink:href="#zoomMin" x="42" y="9" onmousedown="handleZoom(evt,'out')"/>
                <use id="reset" xlink:href="#resetDef" x="30" y="36" onmousedown="handleReset()"/>
                <g id="arrowUp" xlink:href="#dirArrow" transform="translate(30 24)" onmousedown="handlePan(0,-1)">
                  <use xlink:href="#rim" fill="#404040">
                        <set attributeName="fill" to="#808080" begin="arrowUp.mouseover" end="arrowUp.mouseout"/>
                  </use>
                  <path fill="none" stroke="white" stroke-width="1.5" d="M0,-3.0v7 M-2.5,-0.5L0,-3.0L2.5,-0.5"/>
                </g>
                <g id="arrowRight" xlink:href="#dirArrow" transform="rotate(90) translate(36 -43)" onmousedown="handlePan(1,0)">
                  <use xlink:href="#rim" fill="#404040">
                        <set attributeName="fill" to="#808080" begin="arrowRight.mouseover" end="arrowRight.mouseout"/>
                  </use>
                  <path fill="none" stroke="white" stroke-width="1.5" d="M0,-3.0v7 M-2.5,-0.5L0,-3.0L2.5,-0.5"/>
                </g>
                <g id="arrowDown" xlink:href="#dirArrow" transform="rotate(180) translate(-30 -48)" onmousedown="handlePan(0,1)">
                  <use xlink:href="#rim" fill="#404040">
                        <set attributeName="fill" to="#808080" begin="arrowDown.mouseover" end="arrowDown.mouseout"/>
                  </use>
                  <path fill="none" stroke="white" stroke-width="1.5" d="M0,-3.0v7 M-2.5,-0.5L0,-3.0L2.5,-0.5"/>
                </g>
                <g id="arrowLeft" xlink:href="#dirArrow" transform="rotate(270) translate(-36 17)" onmousedown="handlePan(-1,0)">
                  <use xlink:href="#rim" fill="#404040">
                        <set attributeName="fill" to="#808080" begin="arrowLeft.mouseover" end="arrowLeft.mouseout"/>
                  </use>
                  <path fill="none" stroke="white" stroke-width="1.5" d="M0,-3.0v7 M-2.5,-0.5L0,-3.0L2.5,-0.5"/>
                </g>
        </g>
        <svg viewBox="0 0 15 15" width="100%" height="30px" preserveAspectRatio="xMaxYMin meet">
         <g id="arrow_out" transform="scale(0.3 0.3)">
          <a xlink:href="diffusion_8_h__dep__incl_org.svg" target="_base">
           <rect id="button" ry="5" rx="5" y="6" x="6" height="38" width="38"
                fill="#f2f5e9" fill-opacity="0.5" stroke="#606060" stroke-width="1.0"/>
           <path id="arrow"
             d="M 11.500037,31.436501 C 11.940474,20.09759 22.043105,11.32322 32.158766,21.979434 L 37.068811,17.246167 C 37.068811,17.246167 37.088388,32 37.088388,32 L 22.160133,31.978069 C 22.160133,31.978069 26.997745,27.140456 26.997745,27.140456 C 18.528582,18.264221 13.291696,25.230495 11.500037,31.436501 z"
             style="fill:#404040;"/>
          </a>
         </g>
        </svg>
</svg>
