<?xml version="1.0" encoding="UTF-8" standalone="no"?>
<!DOCTYPE svg PUBLIC "-//W3C//DTD SVG 1.1//EN"
 "http://www.w3.org/Graphics/SVG/1.1/DTD/svg11.dtd">
<!-- Generated by graphviz version 2.43.0 (0)
 -->
<!-- Title: icns Pages: 1 -->
<svg width="297pt" height="267pt"
 viewBox="0.00 0.00 297.42 267.00" xmlns="http://www.w3.org/2000/svg" xmlns:xlink="http://www.w3.org/1999/xlink">
<g id="graph0" class="graph" transform="scale(1 1) rotate(0) translate(4 263)">
<title>icns</title>
<polygon fill="white" stroke="transparent" points="-4,4 -4,-263 293.42,-263 293.42,4 -4,4"/>
<g id="clust1" class="cluster">
<title>clusterdir_4bb30ed846ea1df1fc4d16874a455d91</title>
<g id="a_clust1"><a xlink:href="dir_4bb30ed846ea1df1fc4d16874a455d91.html" target="_top" xlink:title="equation_systems">
<polygon fill="#ddddee" stroke="black" points="8,-64 8,-215 196,-215 196,-64 8,-64"/>
<text text-anchor="middle" x="102" y="-203" font-family="Helvetica,sans-Serif" font-size="10.00">equation_systems</text>
</a>
</g>
</g>
<g id="clust2" class="cluster">
<title>clusterdir_4012ff34c1bb5bd303e44a1c9cef6c8a</title>
<g id="a_clust2"><a xlink:href="dir_4012ff34c1bb5bd303e44a1c9cef6c8a.html" target="_top">
<polygon fill="#eeeeff" stroke="black" points="16,-136 16,-188 188,-188 188,-136 16,-136"/>
</a>
</g>
</g>
<!-- dir_bfcf7e25e8a41bb3b30f8e11e2280479 -->
<g id="node1" class="node">
<title>dir_bfcf7e25e8a41bb3b30f8e11e2280479</title>
<g id="a_node1"><a xlink:href="dir_bfcf7e25e8a41bb3b30f8e11e2280479.html" target="_top" xlink:title="vof">
<polygon fill="none" stroke="black" points="148,-108 94,-108 94,-72 148,-72 148,-108"/>
<text text-anchor="middle" x="121" y="-87.5" font-family="Helvetica,sans-Serif" font-size="10.00">vof</text>
</a>
</g>
</g>
<!-- dir_3d3615e9a999cab4f3407307569d6ced -->
<g id="node4" class="node">
<title>dir_3d3615e9a999cab4f3407307569d6ced</title>
<g id="a_node4"><a xlink:href="dir_3d3615e9a999cab4f3407307569d6ced.html" target="_top" xlink:title="core">
<polygon fill="white" stroke="red" points="258,-108 204,-108 204,-72 258,-72 258,-108"/>
<text text-anchor="middle" x="231" y="-87.5" font-family="Helvetica,sans-Serif" font-size="10.00">core</text>
</a>
</g>
</g>
<!-- dir_bfcf7e25e8a41bb3b30f8e11e2280479&#45;&gt;dir_3d3615e9a999cab4f3407307569d6ced -->
<g id="edge15" class="edge">
<title>dir_bfcf7e25e8a41bb3b30f8e11e2280479&#45;&gt;dir_3d3615e9a999cab4f3407307569d6ced</title>
<path fill="none" stroke="black" d="M148.07,-90C163.31,-90 178.54,-90 193.78,-90"/>
<polygon fill="black" stroke="black" points="193.79,-93.5 203.79,-90 193.79,-86.5 193.79,-93.5"/>
<g id="a_edge15&#45;headlabel"><a xlink:href="dir_000028_000019.html" target="_top" xlink:title="1">
<text text-anchor="middle" x="190.19" y="-93.84" font-family="Helvetica,sans-Serif" font-size="10.00">1</text>
</a>
</g>
</g>
<!-- dir_ebb19deee3cd40f4ac122fef25c04ca8 -->
<g id="node6" class="node">
<title>dir_ebb19deee3cd40f4ac122fef25c04ca8</title>
<g id="a_node6"><a xlink:href="dir_ebb19deee3cd40f4ac122fef25c04ca8.html" target="_top" xlink:title="boundary_conditions">
<polygon fill="none" stroke="black" points="183,-36 65,-36 65,0 183,0 183,-36"/>
<text text-anchor="middle" x="124" y="-15.5" font-family="Helvetica,sans-Serif" font-size="10.00">boundary_conditions</text>
</a>
</g>
</g>
<!-- dir_bfcf7e25e8a41bb3b30f8e11e2280479&#45;&gt;dir_ebb19deee3cd40f4ac122fef25c04ca8 -->
<g id="edge16" class="edge">
<title>dir_bfcf7e25e8a41bb3b30f8e11e2280479&#45;&gt;dir_ebb19deee3cd40f4ac122fef25c04ca8</title>
<path fill="none" stroke="black" d="M121.74,-71.7C122.07,-63.98 122.47,-54.71 122.84,-46.11"/>
<polygon fill="black" stroke="black" points="126.34,-46.25 123.27,-36.1 119.34,-45.95 126.34,-46.25"/>
<g id="a_edge16&#45;headlabel"><a xlink:href="dir_000028_000012.html" target="_top" xlink:title="1">
<text text-anchor="middle" x="129.02" y="-47.46" font-family="Helvetica,sans-Serif" font-size="10.00">1</text>
</a>
</g>
</g>
<!-- dir_4012ff34c1bb5bd303e44a1c9cef6c8a -->
<g id="node2" class="node">
<title>dir_4012ff34c1bb5bd303e44a1c9cef6c8a</title>
<text text-anchor="middle" x="51" y="-159.5" font-family="Helvetica,sans-Serif" font-size="10.00">icns</text>
</g>
<!-- dir_4012ff34c1bb5bd303e44a1c9cef6c8a&#45;&gt;dir_bfcf7e25e8a41bb3b30f8e11e2280479 -->
<g id="edge12" class="edge">
<title>dir_4012ff34c1bb5bd303e44a1c9cef6c8a&#45;&gt;dir_bfcf7e25e8a41bb3b30f8e11e2280479</title>
<path fill="none" stroke="black" d="M68.3,-143.7C76.86,-135.14 87.34,-124.66 96.7,-115.3"/>
<polygon fill="black" stroke="black" points="99.3,-117.65 103.9,-108.1 94.35,-112.7 99.3,-117.65"/>
<g id="a_edge12&#45;headlabel"><a xlink:href="dir_000003_000028.html" target="_top" xlink:title="1">
<text text-anchor="middle" x="98.77" y="-119.7" font-family="Helvetica,sans-Serif" font-size="10.00">1</text>
</a>
</g>
</g>
<!-- dir_4012ff34c1bb5bd303e44a1c9cef6c8a&#45;&gt;dir_3d3615e9a999cab4f3407307569d6ced -->
<g id="edge11" class="edge">
<title>dir_4012ff34c1bb5bd303e44a1c9cef6c8a&#45;&gt;dir_3d3615e9a999cab4f3407307569d6ced</title>
<path fill="none" stroke="black" d="M73.14,-143.89C77.57,-140.97 82.31,-138.19 87,-136 130,-115.96 145.11,-123.34 190,-108 191.41,-107.52 192.85,-107.01 194.29,-106.49"/>
<polygon fill="black" stroke="black" points="195.75,-109.67 203.84,-102.83 193.25,-103.14 195.75,-109.67"/>
<g id="a_edge11&#45;headlabel"><a xlink:href="dir_000003_000019.html" target="_top" xlink:title="22">
<text text-anchor="middle" x="193.41" y="-111.11" font-family="Helvetica,sans-Serif" font-size="10.00">22</text>
</a>
</g>
</g>
<!-- dir_e4cd57caa88bf1f4e1bf9521bc47c3c0 -->
<g id="node5" class="node">
<title>dir_e4cd57caa88bf1f4e1bf9521bc47c3c0</title>
<g id="a_node5"><a xlink:href="dir_e4cd57caa88bf1f4e1bf9521bc47c3c0.html" target="_top" xlink:title="utilities">
<polygon fill="white" stroke="red" points="258,-36 204,-36 204,0 258,0 258,-36"/>
<text text-anchor="middle" x="231" y="-15.5" font-family="Helvetica,sans-Serif" font-size="10.00">utilities</text>
</a>
</g>
</g>
<!-- dir_4012ff34c1bb5bd303e44a1c9cef6c8a&#45;&gt;dir_e4cd57caa88bf1f4e1bf9521bc47c3c0 -->
<g id="edge13" class="edge">
<title>dir_4012ff34c1bb5bd303e44a1c9cef6c8a&#45;&gt;dir_e4cd57caa88bf1f4e1bf9521bc47c3c0</title>
<path fill="none" stroke="black" d="M73.7,-143.98C78,-141.12 82.55,-138.33 87,-136 118.52,-119.5 133.51,-129.31 162,-108 181.57,-93.36 180.03,-83.32 195,-64 199.89,-57.69 205.22,-50.95 210.25,-44.65"/>
<polygon fill="black" stroke="black" points="213.33,-46.41 216.85,-36.42 207.87,-42.03 213.33,-46.41"/>
<g id="a_edge13&#45;headlabel"><a xlink:href="dir_000003_000010.html" target="_top" xlink:title="13">
<text text-anchor="middle" x="213.29" y="-48.49" font-family="Helvetica,sans-Serif" font-size="10.00">13</text>
</a>
</g>
</g>
<!-- dir_4012ff34c1bb5bd303e44a1c9cef6c8a&#45;&gt;dir_ebb19deee3cd40f4ac122fef25c04ca8 -->
<g id="edge14" class="edge">
<title>dir_4012ff34c1bb5bd303e44a1c9cef6c8a&#45;&gt;dir_ebb19deee3cd40f4ac122fef25c04ca8</title>
<path fill="none" stroke="black" d="M51.74,-143.7C53.29,-123.33 58.11,-89.1 73,-64 77.59,-56.26 83.96,-49.15 90.66,-42.96"/>
<polygon fill="black" stroke="black" points="93.27,-45.33 98.57,-36.16 88.7,-40.03 93.27,-45.33"/>
<g id="a_edge14&#45;headlabel"><a xlink:href="dir_000003_000012.html" target="_top" xlink:title="1">
<text text-anchor="middle" x="92.4" y="-47.33" font-family="Helvetica,sans-Serif" font-size="10.00">1</text>
</a>
</g>
</g>
<!-- dir_5d2cf0e24161a778738de20190787a10 -->
<g id="node3" class="node">
<title>dir_5d2cf0e24161a778738de20190787a10</title>
<g id="a_node3"><a xlink:href="dir_5d2cf0e24161a778738de20190787a10.html" target="_top" xlink:title="source_terms">
<polygon fill="white" stroke="black" points="179.5,-180 96.5,-180 96.5,-144 179.5,-144 179.5,-180"/>
<text text-anchor="middle" x="138" y="-159.5" font-family="Helvetica,sans-Serif" font-size="10.00">source_terms</text>
</a>
</g>
</g>
<!-- dir_5d2cf0e24161a778738de20190787a10&#45;&gt;dir_3d3615e9a999cab4f3407307569d6ced -->
<g id="edge2" class="edge">
<title>dir_5d2cf0e24161a778738de20190787a10&#45;&gt;dir_3d3615e9a999cab4f3407307569d6ced</title>
<path fill="none" stroke="black" d="M160.99,-143.7C172.81,-134.8 187.39,-123.82 200.18,-114.2"/>
<polygon fill="black" stroke="black" points="202.39,-116.91 208.28,-108.1 198.18,-111.32 202.39,-116.91"/>
<g id="a_edge2&#45;headlabel"><a xlink:href="dir_000004_000019.html" target="_top" xlink:title="17">
<text text-anchor="middle" x="201.23" y="-118.84" font-family="Helvetica,sans-Serif" font-size="10.00">17</text>
</a>
</g>
</g>
<!-- dir_5d2cf0e24161a778738de20190787a10&#45;&gt;dir_e4cd57caa88bf1f4e1bf9521bc47c3c0 -->
<g id="edge3" class="edge">
<title>dir_5d2cf0e24161a778738de20190787a10&#45;&gt;dir_e4cd57caa88bf1f4e1bf9521bc47c3c0</title>
<path fill="none" stroke="black" d="M179.63,-156.01C209.46,-150.02 247.66,-136.86 267,-108 277.89,-91.76 273.47,-82.45 267,-64 264.5,-56.86 260.33,-50.01 255.7,-43.91"/>
<polygon fill="black" stroke="black" points="258.29,-41.55 249.22,-36.08 252.9,-46.01 258.29,-41.55"/>
<g id="a_edge3&#45;headlabel"><a xlink:href="dir_000004_000010.html" target="_top" xlink:title="10">
<text text-anchor="middle" x="262.77" y="-40" font-family="Helvetica,sans-Serif" font-size="10.00">10</text>
</a>
</g>
</g>
<!-- dir_0c368f76a33d967d5b838b5681461de6 -->
<g id="node7" class="node">
<title>dir_0c368f76a33d967d5b838b5681461de6</title>
<g id="a_node7"><a xlink:href="dir_0c368f76a33d967d5b838b5681461de6.html" target="_top" xlink:title="wind_energy">
<polygon fill="white" stroke="red" points="219.5,-259 140.5,-259 140.5,-223 219.5,-223 219.5,-259"/>
<text text-anchor="middle" x="180" y="-238.5" font-family="Helvetica,sans-Serif" font-size="10.00">wind_energy</text>
</a>
</g>
</g>
<!-- dir_5d2cf0e24161a778738de20190787a10&#45;&gt;dir_0c368f76a33d967d5b838b5681461de6 -->
<g id="edge1" class="edge">
<title>dir_5d2cf0e24161a778738de20190787a10&#45;&gt;dir_0c368f76a33d967d5b838b5681461de6</title>
<path fill="none" stroke="black" d="M141.58,-180.04C145.98,-190.1 152.8,-203.03 159.58,-214.31"/>
<polygon fill="black" stroke="black" points="156.69,-216.29 164.96,-222.91 162.62,-212.58 156.69,-216.29"/>
<g id="a_edge1&#45;headlabel"><a xlink:href="dir_000004_000001.html" target="_top" xlink:title="4">
<text text-anchor="middle" x="152.38" y="-212.24" font-family="Helvetica,sans-Serif" font-size="10.00">4</text>
</a>
</g>
</g>
<!-- dir_3d3615e9a999cab4f3407307569d6ced&#45;&gt;dir_e4cd57caa88bf1f4e1bf9521bc47c3c0 -->
<g id="edge18" class="edge">
<title>dir_3d3615e9a999cab4f3407307569d6ced&#45;&gt;dir_e4cd57caa88bf1f4e1bf9521bc47c3c0</title>
<path fill="none" stroke="black" d="M225.08,-71.7C224.29,-63.98 224.06,-54.71 224.4,-46.11"/>
<polygon fill="black" stroke="black" points="227.9,-46.32 225.1,-36.1 220.92,-45.84 227.9,-46.32"/>
<g id="a_edge18&#45;headlabel"><a xlink:href="dir_000019_000010.html" target="_top" xlink:title="1">
<text text-anchor="middle" x="230.48" y="-47.61" font-family="Helvetica,sans-Serif" font-size="10.00">1</text>
</a>
</g>
</g>
<!-- dir_3d3615e9a999cab4f3407307569d6ced&#45;&gt;dir_ebb19deee3cd40f4ac122fef25c04ca8 -->
<g id="edge17" class="edge">
<title>dir_3d3615e9a999cab4f3407307569d6ced&#45;&gt;dir_ebb19deee3cd40f4ac122fef25c04ca8</title>
<path fill="none" stroke="black" d="M203.86,-73.48C199.57,-70.24 195.2,-66.92 191,-64 179.77,-56.21 167.14,-48.38 155.83,-41.49"/>
<polygon fill="black" stroke="black" points="157.46,-38.39 147.1,-36.19 153.83,-44.37 157.46,-38.39"/>
<g id="a_edge17&#45;headlabel"><a xlink:href="dir_000019_000012.html" target="_top" xlink:title="1">
<text text-anchor="middle" x="162.01" y="-35.33" font-family="Helvetica,sans-Serif" font-size="10.00">1</text>
</a>
</g>
</g>
<!-- dir_e4cd57caa88bf1f4e1bf9521bc47c3c0&#45;&gt;dir_bfcf7e25e8a41bb3b30f8e11e2280479 -->
<g id="edge10" class="edge">
<title>dir_e4cd57caa88bf1f4e1bf9521bc47c3c0&#45;&gt;dir_bfcf7e25e8a41bb3b30f8e11e2280479</title>
<path fill="none" stroke="black" d="M203.99,-36.19C189.72,-45.27 172.03,-56.53 156.65,-66.31"/>
<polygon fill="black" stroke="black" points="154.47,-63.55 147.91,-71.88 158.22,-69.46 154.47,-63.55"/>
<g id="a_edge10&#45;headlabel"><a xlink:href="dir_000010_000028.html" target="_top" xlink:title="1">
<text text-anchor="middle" x="155.97" y="-56.73" font-family="Helvetica,sans-Serif" font-size="10.00">1</text>
</a>
</g>
</g>
<!-- dir_e4cd57caa88bf1f4e1bf9521bc47c3c0&#45;&gt;dir_3d3615e9a999cab4f3407307569d6ced -->
<g id="edge9" class="edge">
<title>dir_e4cd57caa88bf1f4e1bf9521bc47c3c0&#45;&gt;dir_3d3615e9a999cab4f3407307569d6ced</title>
<path fill="none" stroke="black" d="M236.9,-36.1C237.7,-43.79 237.94,-53.05 237.6,-61.67"/>
<polygon fill="black" stroke="black" points="234.11,-61.48 236.92,-71.7 241.09,-61.96 234.11,-61.48"/>
<g id="a_edge9&#45;headlabel"><a xlink:href="dir_000010_000019.html" target="_top" xlink:title="23">
<text text-anchor="middle" x="231.52" y="-55.2" font-family="Helvetica,sans-Serif" font-size="10.00">23</text>
</a>
</g>
</g>
<!-- dir_ebb19deee3cd40f4ac122fef25c04ca8&#45;&gt;dir_3d3615e9a999cab4f3407307569d6ced -->
<g id="edge8" class="edge">
<title>dir_ebb19deee3cd40f4ac122fef25c04ca8&#45;&gt;dir_3d3615e9a999cab4f3407307569d6ced</title>
<path fill="none" stroke="black" d="M163.55,-36.19C178.29,-44.2 194.76,-54.12 209,-64 209.77,-64.53 210.55,-65.08 211.32,-65.64"/>
<polygon fill="black" stroke="black" points="209.44,-68.61 219.51,-71.9 213.69,-63.05 209.44,-68.61"/>
<g id="a_edge8&#45;headlabel"><a xlink:href="dir_000012_000019.html" target="_top" xlink:title="8">
<text text-anchor="middle" x="204.86" y="-66.18" font-family="Helvetica,sans-Serif" font-size="10.00">8</text>
</a>
</g>
</g>
<!-- dir_0c368f76a33d967d5b838b5681461de6&#45;&gt;dir_4012ff34c1bb5bd303e44a1c9cef6c8a -->
<g id="edge5" class="edge">
<title>dir_0c368f76a33d967d5b838b5681461de6&#45;&gt;dir_4012ff34c1bb5bd303e44a1c9cef6c8a</title>
<path fill="none" stroke="black" d="M140.28,-235.59C122.73,-232.14 102.58,-225.98 87,-215 77.61,-208.38 69.89,-198.5 64.03,-189.11"/>
<polygon fill="black" stroke="black" points="67.03,-187.31 59,-180.4 60.97,-190.81 67.03,-187.31"/>
<g id="a_edge5&#45;headlabel"><a xlink:href="dir_000001_000003.html" target="_top" xlink:title="4">
<text text-anchor="middle" x="71.29" y="-186.5" font-family="Helvetica,sans-Serif" font-size="10.00">4</text>
</a>
</g>
</g>
<!-- dir_0c368f76a33d967d5b838b5681461de6&#45;&gt;dir_5d2cf0e24161a778738de20190787a10 -->
<g id="edge6" class="edge">
<title>dir_0c368f76a33d967d5b838b5681461de6&#45;&gt;dir_5d2cf0e24161a778738de20190787a10</title>
<path fill="none" stroke="black" d="M176.4,-222.91C171.99,-212.84 165.17,-199.91 158.39,-188.64"/>
<polygon fill="black" stroke="black" points="161.28,-186.66 153.01,-180.04 155.35,-190.38 161.28,-186.66"/>
<g id="a_edge6&#45;headlabel"><a xlink:href="dir_000001_000004.html" target="_top" xlink:title="4">
<text text-anchor="middle" x="165.59" y="-185.7" font-family="Helvetica,sans-Serif" font-size="10.00">4</text>
</a>
</g>
</g>
<!-- dir_0c368f76a33d967d5b838b5681461de6&#45;&gt;dir_3d3615e9a999cab4f3407307569d6ced -->
<g id="edge4" class="edge">
<title>dir_0c368f76a33d967d5b838b5681461de6&#45;&gt;dir_3d3615e9a999cab4f3407307569d6ced</title>
<path fill="none" stroke="black" d="M188.59,-222.93C189.8,-220.3 190.97,-217.6 192,-215 204.97,-182.16 216.65,-143.15 223.78,-117.77"/>
<polygon fill="black" stroke="black" points="227.16,-118.69 226.45,-108.11 220.41,-116.82 227.16,-118.69"/>
<g id="a_edge4&#45;headlabel"><a xlink:href="dir_000001_000019.html" target="_top" xlink:title="33">
<text text-anchor="middle" x="228.93" y="-120.41" font-family="Helvetica,sans-Serif" font-size="10.00">33</text>
</a>
</g>
</g>
<!-- dir_0c368f76a33d967d5b838b5681461de6&#45;&gt;dir_e4cd57caa88bf1f4e1bf9521bc47c3c0 -->
<g id="edge7" class="edge">
<title>dir_0c368f76a33d967d5b838b5681461de6&#45;&gt;dir_e4cd57caa88bf1f4e1bf9521bc47c3c0</title>
<path fill="none" stroke="black" d="M210.06,-222.78C213.25,-220.37 216.3,-217.76 219,-215 257.87,-175.18 269,-161.58 284,-108 289.27,-89.17 292.21,-81.75 284,-64 279.98,-55.31 273.36,-47.69 266.14,-41.3"/>
<polygon fill="black" stroke="black" points="268.15,-38.42 258.17,-34.87 263.76,-43.87 268.15,-38.42"/>
<g id="a_edge7&#45;headlabel"><a xlink:href="dir_000001_000010.html" target="_top" xlink:title="43">
<text text-anchor="middle" x="272.73" y="-35.97" font-family="Helvetica,sans-Serif" font-size="10.00">43</text>
</a>
</g>
</g>
</g>
</svg>
