<?xml version="1.0" encoding="UTF-8" standalone="no"?>
<!DOCTYPE svg PUBLIC "-//W3C//DTD SVG 1.1//EN"
 "http://www.w3.org/Graphics/SVG/1.1/DTD/svg11.dtd">
<!-- Generated by graphviz version 2.43.0 (0)
 -->
<!-- Title: equation_systems Pages: 1 -->
<!--zoomable 455 -->
<svg id="main" version="1.1" xmlns="http://www.w3.org/2000/svg" xmlns:xlink="http://www.w3.org/1999/xlink" xml:space="preserve" onload="init(evt)">
<style type="text/css"><![CDATA[
.edge:hover path { stroke: red; }
.edge:hover polygon { stroke: red; fill: red; }
]]></style>
<script type="text/javascript"><![CDATA[
var edges = document.getElementsByTagName('g');
if (edges && edges.length) {
  for (var i=0;i<edges.length;i++) {
    if (edges[i].id.substr(0,4)=='edge') {
      edges[i].setAttribute('class','edge');
    }
  }
}
]]></script>
        <defs>
                <circle id="rim" cx="0" cy="0" r="7"/>
                <circle id="rim2" cx="0" cy="0" r="3.5"/>
                <g id="zoomPlus">
                        <use xlink:href="#rim" fill="#404040">
                                <set attributeName="fill" to="#808080" begin="zoomplus.mouseover" end="zoomplus.mouseout"/>
                        </use>
                        <path d="M-4,0h8M0,-4v8" fill="none" stroke="white" stroke-width="1.5" pointer-events="none"/>
                </g>
                <g id="zoomMin">
                        <use xlink:href="#rim" fill="#404040">
                                <set attributeName="fill" to="#808080" begin="zoomminus.mouseover" end="zoomminus.mouseout"/>
                        </use>
                        <path d="M-4,0h8" fill="none" stroke="white" stroke-width="1.5" pointer-events="none"/>
                </g>
                <g id="dirArrow">
                        <path fill="none" stroke="white" stroke-width="1.5" d="M0,-3.0v7 M-2.5,-0.5L0,-3.0L2.5,-0.5"/>
                </g>
               <g id="resetDef">
                       <use xlink:href="#rim2" fill="#404040">
                               <set attributeName="fill" to="#808080" begin="reset.mouseover" end="reset.mouseout"/>
                       </use>
               </g>
        </defs>

<script type="text/javascript">
var viewWidth = 898;
var viewHeight = 455;
var sectionId = 'dynsection-0';
</script>
<script xlink:href="svgpan.js"/>
<svg id="graph" class="graph">
<g id="viewport">
<title>equation_systems</title>
<polygon fill="white" stroke="transparent" points="-4,4 -4,-451 894,-451 894,4 -4,4"/>
<g id="clust1" class="cluster">
<title>clusterdir_d85575251dd712327fe3cf057fa568b4</title>
<g id="a_clust1"><a xlink:href="dir_d85575251dd712327fe3cf057fa568b4.html" target="_top" xlink:title="amr&#45;wind">
<polygon fill="#ddddee" stroke="black" points="8,-8 8,-439 882,-439 882,-8 8,-8"/>
<text text-anchor="middle" x="445" y="-427" font-family="Helvetica,sans-Serif" font-size="10.00">amr&#45;wind</text>
</a>
</g>
</g>
<g id="clust2" class="cluster">
<title>clusterdir_4bb30ed846ea1df1fc4d16874a455d91</title>
<g id="a_clust2"><a xlink:href="dir_4bb30ed846ea1df1fc4d16874a455d91.html" target="_top">
<polygon fill="#eeeeff" stroke="black" points="294,-224 294,-348 874,-348 874,-224 294,-224"/>
</a>
</g>
</g>
<!-- dir_35ffb1505af3943bdf99903da87524fe -->
<g id="node1" class="node">
<title>dir_35ffb1505af3943bdf99903da87524fe</title>
<g id="a_node1"><a xlink:href="dir_35ffb1505af3943bdf99903da87524fe.html" target="_top" xlink:title="convection">
<polygon fill="none" stroke="black" points="262,-412 192,-412 192,-376 262,-376 262,-412"/>
<text text-anchor="middle" x="227" y="-391.5" font-family="Helvetica,sans-Serif" font-size="10.00">convection</text>
</a>
</g>
</g>
<!-- dir_3d3615e9a999cab4f3407307569d6ced -->
<g id="node2" class="node">
<title>dir_3d3615e9a999cab4f3407307569d6ced</title>
<g id="a_node2"><a xlink:href="dir_3d3615e9a999cab4f3407307569d6ced.html" target="_top" xlink:title="core">
<polygon fill="white" stroke="red" points="254,-340 200,-340 200,-304 254,-304 254,-340"/>
<text text-anchor="middle" x="227" y="-319.5" font-family="Helvetica,sans-Serif" font-size="10.00">core</text>
</a>
</g>
</g>
<!-- dir_35ffb1505af3943bdf99903da87524fe&#45;&gt;dir_3d3615e9a999cab4f3407307569d6ced -->
<g id="edge16" class="edge">
<title>dir_35ffb1505af3943bdf99903da87524fe&#45;&gt;dir_3d3615e9a999cab4f3407307569d6ced</title>
<path fill="none" stroke="black" d="M227,-375.7C227,-367.98 227,-358.71 227,-350.11"/>
<polygon fill="black" stroke="black" points="230.5,-350.1 227,-340.1 223.5,-350.1 230.5,-350.1"/>
<g id="a_edge16&#45;headlabel"><a xlink:href="dir_000027_000019.html" target="_top" xlink:title="2">
<text text-anchor="middle" x="233.34" y="-351.2" font-family="Helvetica,sans-Serif" font-size="10.00">2</text>
</a>
</g>
</g>
<!-- dir_e4cd57caa88bf1f4e1bf9521bc47c3c0 -->
<g id="node5" class="node">
<title>dir_e4cd57caa88bf1f4e1bf9521bc47c3c0</title>
<g id="a_node5"><a xlink:href="dir_e4cd57caa88bf1f4e1bf9521bc47c3c0.html" target="_top" xlink:title="utilities">
<polygon fill="white" stroke="red" points="130,-268 76,-268 76,-232 130,-232 130,-268"/>
<text text-anchor="middle" x="103" y="-247.5" font-family="Helvetica,sans-Serif" font-size="10.00">utilities</text>
</a>
</g>
</g>
<!-- dir_35ffb1505af3943bdf99903da87524fe&#45;&gt;dir_e4cd57caa88bf1f4e1bf9521bc47c3c0 -->
<g id="edge17" class="edge">
<title>dir_35ffb1505af3943bdf99903da87524fe&#45;&gt;dir_e4cd57caa88bf1f4e1bf9521bc47c3c0</title>
<path fill="none" stroke="black" d="M212.04,-375.87C190.26,-350.92 149.67,-304.45 124.63,-275.77"/>
<polygon fill="black" stroke="black" points="127.22,-273.42 118.01,-268.19 121.95,-278.02 127.22,-273.42"/>
<g id="a_edge17&#45;headlabel"><a xlink:href="dir_000027_000010.html" target="_top" xlink:title="1">
<text text-anchor="middle" x="131.73" y="-271.76" font-family="Helvetica,sans-Serif" font-size="10.00">1</text>
</a>
</g>
</g>
<!-- dir_3d3615e9a999cab4f3407307569d6ced&#45;&gt;dir_e4cd57caa88bf1f4e1bf9521bc47c3c0 -->
<g id="edge40" class="edge">
<title>dir_3d3615e9a999cab4f3407307569d6ced&#45;&gt;dir_e4cd57caa88bf1f4e1bf9521bc47c3c0</title>
<path fill="none" stroke="black" d="M199.83,-308.65C181.1,-298.91 156.25,-285.08 136.35,-273.41"/>
<polygon fill="black" stroke="black" points="137.98,-270.31 127.59,-268.22 134.41,-276.33 137.98,-270.31"/>
<g id="a_edge40&#45;headlabel"><a xlink:href="dir_000019_000010.html" target="_top" xlink:title="1">
<text text-anchor="middle" x="142.52" y="-267.2" font-family="Helvetica,sans-Serif" font-size="10.00">1</text>
</a>
</g>
</g>
<!-- dir_ebb19deee3cd40f4ac122fef25c04ca8 -->
<g id="node6" class="node">
<title>dir_ebb19deee3cd40f4ac122fef25c04ca8</title>
<g id="a_node6"><a xlink:href="dir_ebb19deee3cd40f4ac122fef25c04ca8.html" target="_top" xlink:title="boundary_conditions">
<polygon fill="none" stroke="black" points="286,-268 168,-268 168,-232 286,-232 286,-268"/>
<text text-anchor="middle" x="227" y="-247.5" font-family="Helvetica,sans-Serif" font-size="10.00">boundary_conditions</text>
</a>
</g>
</g>
<!-- dir_3d3615e9a999cab4f3407307569d6ced&#45;&gt;dir_ebb19deee3cd40f4ac122fef25c04ca8 -->
<g id="edge39" class="edge">
<title>dir_3d3615e9a999cab4f3407307569d6ced&#45;&gt;dir_ebb19deee3cd40f4ac122fef25c04ca8</title>
<path fill="none" stroke="black" d="M221.08,-303.7C220.29,-295.98 220.06,-286.71 220.4,-278.11"/>
<polygon fill="black" stroke="black" points="223.9,-278.32 221.1,-268.1 216.92,-277.84 223.9,-278.32"/>
<g id="a_edge39&#45;headlabel"><a xlink:href="dir_000019_000012.html" target="_top" xlink:title="1">
<text text-anchor="middle" x="226.48" y="-279.61" font-family="Helvetica,sans-Serif" font-size="10.00">1</text>
</a>
</g>
</g>
<!-- dir_9ff815a534beac751fa88e427dbab695 -->
<g id="node3" class="node">
<title>dir_9ff815a534beac751fa88e427dbab695</title>
<g id="a_node3"><a xlink:href="dir_9ff815a534beac751fa88e427dbab695.html" target="_top" xlink:title="turbulence">
<polygon fill="white" stroke="red" points="733,-124 665,-124 665,-88 733,-88 733,-124"/>
<text text-anchor="middle" x="699" y="-103.5" font-family="Helvetica,sans-Serif" font-size="10.00">turbulence</text>
</a>
</g>
</g>
<!-- dir_9ff815a534beac751fa88e427dbab695&#45;&gt;dir_3d3615e9a999cab4f3407307569d6ced -->
<g id="edge1" class="edge">
<title>dir_9ff815a534beac751fa88e427dbab695&#45;&gt;dir_3d3615e9a999cab4f3407307569d6ced</title>
<path fill="none" stroke="black" d="M664.93,-109.28C568.58,-115.96 295.49,-136.47 209,-160 142.2,-178.17 104.57,-165.86 67,-224 56.39,-240.42 55.55,-252.15 67,-268 94.87,-306.6 151.95,-317.54 189.84,-320.39"/>
<polygon fill="black" stroke="black" points="189.79,-323.9 199.98,-321 190.21,-316.91 189.79,-323.9"/>
<g id="a_edge1&#45;headlabel"><a xlink:href="dir_000033_000019.html" target="_top" xlink:title="5">
<text text-anchor="middle" x="186.04" y="-324.02" font-family="Helvetica,sans-Serif" font-size="10.00">5</text>
</a>
</g>
</g>
<!-- dir_9ff815a534beac751fa88e427dbab695&#45;&gt;dir_e4cd57caa88bf1f4e1bf9521bc47c3c0 -->
<g id="edge4" class="edge">
<title>dir_9ff815a534beac751fa88e427dbab695&#45;&gt;dir_e4cd57caa88bf1f4e1bf9521bc47c3c0</title>
<path fill="none" stroke="black" d="M664.83,-108.23C594.42,-111.47 428.55,-122.74 295,-160 256.66,-170.7 249.54,-180.23 213,-196 183.74,-208.63 175.57,-209.88 147,-224 144.42,-225.28 141.77,-226.64 139.12,-228.04"/>
<polygon fill="black" stroke="black" points="137.31,-225.04 130.2,-232.9 140.65,-231.19 137.31,-225.04"/>
<g id="a_edge4&#45;headlabel"><a xlink:href="dir_000033_000010.html" target="_top" xlink:title="1">
<text text-anchor="middle" x="139.1" y="-218.33" font-family="Helvetica,sans-Serif" font-size="10.00">1</text>
</a>
</g>
</g>
<!-- dir_9f8434f21d2c2598f33c85a8b98c6d56 -->
<g id="node13" class="node">
<title>dir_9f8434f21d2c2598f33c85a8b98c6d56</title>
<g id="a_node13"><a xlink:href="dir_9f8434f21d2c2598f33c85a8b98c6d56.html" target="_top" xlink:title="sdr">
<polygon fill="white" stroke="red" points="794,-340 740,-340 740,-304 794,-304 794,-340"/>
<text text-anchor="middle" x="767" y="-319.5" font-family="Helvetica,sans-Serif" font-size="10.00">sdr</text>
</a>
</g>
</g>
<!-- dir_9ff815a534beac751fa88e427dbab695&#45;&gt;dir_9f8434f21d2c2598f33c85a8b98c6d56 -->
<g id="edge2" class="edge">
<title>dir_9ff815a534beac751fa88e427dbab695&#45;&gt;dir_9f8434f21d2c2598f33c85a8b98c6d56</title>
<path fill="none" stroke="black" d="M710.3,-124.05C716.56,-134.15 724.06,-147.4 729,-160 746.7,-205.17 757.58,-260.82 762.94,-293.46"/>
<polygon fill="black" stroke="black" points="759.53,-294.27 764.55,-303.6 766.44,-293.17 759.53,-294.27"/>
<g id="a_edge2&#45;headlabel"><a xlink:href="dir_000033_000046.html" target="_top" xlink:title="3">
<text text-anchor="middle" x="756.16" y="-288.66" font-family="Helvetica,sans-Serif" font-size="10.00">3</text>
</a>
</g>
</g>
<!-- dir_be932497d8c26b6aa8596ee64638838f -->
<g id="node15" class="node">
<title>dir_be932497d8c26b6aa8596ee64638838f</title>
<g id="a_node15"><a xlink:href="dir_be932497d8c26b6aa8596ee64638838f.html" target="_top" xlink:title="tke">
<polygon fill="white" stroke="red" points="866,-340 812,-340 812,-304 866,-304 866,-340"/>
<text text-anchor="middle" x="839" y="-319.5" font-family="Helvetica,sans-Serif" font-size="10.00">tke</text>
</a>
</g>
</g>
<!-- dir_9ff815a534beac751fa88e427dbab695&#45;&gt;dir_be932497d8c26b6aa8596ee64638838f -->
<g id="edge3" class="edge">
<title>dir_9ff815a534beac751fa88e427dbab695&#45;&gt;dir_be932497d8c26b6aa8596ee64638838f</title>
<path fill="none" stroke="black" d="M712.74,-124.37C720.65,-134.58 730.65,-147.83 739,-160 770.84,-206.43 804.79,-262.72 823.81,-294.95"/>
<polygon fill="black" stroke="black" points="820.9,-296.91 828.99,-303.75 826.94,-293.36 820.9,-296.91"/>
<g id="a_edge3&#45;headlabel"><a xlink:href="dir_000033_000035.html" target="_top" xlink:title="4">
<text text-anchor="middle" x="816.63" y="-292.75" font-family="Helvetica,sans-Serif" font-size="10.00">4</text>
</a>
</g>
</g>
<!-- dir_a816a247b59c90f95e41afe29b966a18 -->
<g id="node4" class="node">
<title>dir_a816a247b59c90f95e41afe29b966a18</title>
<g id="a_node4"><a xlink:href="dir_a816a247b59c90f95e41afe29b966a18.html" target="_top" xlink:title="diffusion">
<polygon fill="none" stroke="black" points="415.5,-52 356.5,-52 356.5,-16 415.5,-16 415.5,-52"/>
<text text-anchor="middle" x="386" y="-31.5" font-family="Helvetica,sans-Serif" font-size="10.00">diffusion</text>
</a>
</g>
</g>
<!-- dir_a816a247b59c90f95e41afe29b966a18&#45;&gt;dir_3d3615e9a999cab4f3407307569d6ced -->
<g id="edge35" class="edge">
<title>dir_a816a247b59c90f95e41afe29b966a18&#45;&gt;dir_3d3615e9a999cab4f3407307569d6ced</title>
<path fill="none" stroke="black" d="M356.38,-34.92C285.5,-36.53 106.22,-51.64 28,-160 20.66,-170.17 20.83,-259.98 27,-268 46.67,-293.57 137.2,-309.35 189.47,-316.49"/>
<polygon fill="black" stroke="black" points="189.32,-320 199.69,-317.84 190.24,-313.06 189.32,-320"/>
<g id="a_edge35&#45;headlabel"><a xlink:href="dir_000023_000019.html" target="_top" xlink:title="1">
<text text-anchor="middle" x="185.38" y="-319.84" font-family="Helvetica,sans-Serif" font-size="10.00">1</text>
</a>
</g>
</g>
<!-- dir_e4cd57caa88bf1f4e1bf9521bc47c3c0&#45;&gt;dir_3d3615e9a999cab4f3407307569d6ced -->
<g id="edge25" class="edge">
<title>dir_e4cd57caa88bf1f4e1bf9521bc47c3c0&#45;&gt;dir_3d3615e9a999cab4f3407307569d6ced</title>
<path fill="none" stroke="black" d="M130.14,-263.34C148.92,-273.1 173.86,-286.98 193.8,-298.68"/>
<polygon fill="black" stroke="black" points="192.18,-301.79 202.56,-303.88 195.75,-295.76 192.18,-301.79"/>
<g id="a_edge25&#45;headlabel"><a xlink:href="dir_000010_000019.html" target="_top" xlink:title="23">
<text text-anchor="middle" x="187.64" y="-299.89" font-family="Helvetica,sans-Serif" font-size="10.00">23</text>
</a>
</g>
</g>
<!-- dir_f2c65bfcbdc19ebacbfc0bbbfb0d01b6 -->
<g id="node7" class="node">
<title>dir_f2c65bfcbdc19ebacbfc0bbbfb0d01b6</title>
<g id="a_node7"><a xlink:href="dir_f2c65bfcbdc19ebacbfc0bbbfb0d01b6.html" target="_top" xlink:title="physics">
<polygon fill="white" stroke="red" points="358,-196 304,-196 304,-160 358,-160 358,-196"/>
<text text-anchor="middle" x="331" y="-175.5" font-family="Helvetica,sans-Serif" font-size="10.00">physics</text>
</a>
</g>
</g>
<!-- dir_e4cd57caa88bf1f4e1bf9521bc47c3c0&#45;&gt;dir_f2c65bfcbdc19ebacbfc0bbbfb0d01b6 -->
<g id="edge27" class="edge">
<title>dir_e4cd57caa88bf1f4e1bf9521bc47c3c0&#45;&gt;dir_f2c65bfcbdc19ebacbfc0bbbfb0d01b6</title>
<path fill="none" stroke="black" d="M119.55,-231.86C124.41,-228.94 129.76,-226.17 135,-224 163.02,-212.42 245.37,-194.63 294.1,-185.26"/>
<polygon fill="black" stroke="black" points="294.78,-188.7 303.95,-183.4 293.48,-181.82 294.78,-188.7"/>
<g id="a_edge27&#45;headlabel"><a xlink:href="dir_000010_000015.html" target="_top" xlink:title="1">
<text text-anchor="middle" x="291.77" y="-189.65" font-family="Helvetica,sans-Serif" font-size="10.00">1</text>
</a>
</g>
</g>
<!-- dir_bfcf7e25e8a41bb3b30f8e11e2280479 -->
<g id="node16" class="node">
<title>dir_bfcf7e25e8a41bb3b30f8e11e2280479</title>
<g id="a_node16"><a xlink:href="dir_bfcf7e25e8a41bb3b30f8e11e2280479.html" target="_top" xlink:title="vof">
<polygon fill="white" stroke="black" points="358,-268 304,-268 304,-232 358,-232 358,-268"/>
<text text-anchor="middle" x="331" y="-247.5" font-family="Helvetica,sans-Serif" font-size="10.00">vof</text>
</a>
</g>
</g>
<!-- dir_e4cd57caa88bf1f4e1bf9521bc47c3c0&#45;&gt;dir_bfcf7e25e8a41bb3b30f8e11e2280479 -->
<g id="edge26" class="edge">
<title>dir_e4cd57caa88bf1f4e1bf9521bc47c3c0&#45;&gt;dir_bfcf7e25e8a41bb3b30f8e11e2280479</title>
<path fill="none" stroke="black" d="M128.59,-268.12C140.08,-275.17 154.14,-282.42 168,-286 220.93,-299.68 239.96,-305.59 291,-286 297.3,-283.58 303.22,-279.67 308.49,-275.29"/>
<polygon fill="black" stroke="black" points="311.21,-277.54 316.17,-268.18 306.45,-272.4 311.21,-277.54"/>
<g id="a_edge26&#45;headlabel"><a xlink:href="dir_000010_000028.html" target="_top" xlink:title="1">
<text text-anchor="middle" x="310.5" y="-279.56" font-family="Helvetica,sans-Serif" font-size="10.00">1</text>
</a>
</g>
</g>
<!-- dir_ebb19deee3cd40f4ac122fef25c04ca8&#45;&gt;dir_3d3615e9a999cab4f3407307569d6ced -->
<g id="edge23" class="edge">
<title>dir_ebb19deee3cd40f4ac122fef25c04ca8&#45;&gt;dir_3d3615e9a999cab4f3407307569d6ced</title>
<path fill="none" stroke="black" d="M232.9,-268.1C233.7,-275.79 233.94,-285.05 233.6,-293.67"/>
<polygon fill="black" stroke="black" points="230.11,-293.48 232.92,-303.7 237.09,-293.96 230.11,-293.48"/>
<g id="a_edge23&#45;headlabel"><a xlink:href="dir_000012_000019.html" target="_top" xlink:title="8">
<text text-anchor="middle" x="227.52" y="-287.2" font-family="Helvetica,sans-Serif" font-size="10.00">8</text>
</a>
</g>
</g>
<!-- dir_ebb19deee3cd40f4ac122fef25c04ca8&#45;&gt;dir_f2c65bfcbdc19ebacbfc0bbbfb0d01b6 -->
<g id="edge24" class="edge">
<title>dir_ebb19deee3cd40f4ac122fef25c04ca8&#45;&gt;dir_f2c65bfcbdc19ebacbfc0bbbfb0d01b6</title>
<path fill="none" stroke="black" d="M252.44,-231.88C265.79,-222.89 282.32,-211.76 296.78,-202.03"/>
<polygon fill="black" stroke="black" points="299.12,-204.68 305.46,-196.19 295.21,-198.87 299.12,-204.68"/>
<g id="a_edge24&#45;headlabel"><a xlink:href="dir_000012_000015.html" target="_top" xlink:title="2">
<text text-anchor="middle" x="297.72" y="-206.54" font-family="Helvetica,sans-Serif" font-size="10.00">2</text>
</a>
</g>
</g>
<!-- dir_f2c65bfcbdc19ebacbfc0bbbfb0d01b6&#45;&gt;dir_3d3615e9a999cab4f3407307569d6ced -->
<g id="edge9" class="edge">
<title>dir_f2c65bfcbdc19ebacbfc0bbbfb0d01b6&#45;&gt;dir_3d3615e9a999cab4f3407307569d6ced</title>
<path fill="none" stroke="black" d="M303.86,-185.19C256.54,-196.1 163.49,-218.18 159,-224 147.05,-239.48 150.42,-250.43 159,-268 165.89,-282.1 178.53,-293.53 191.07,-302.13"/>
<polygon fill="black" stroke="black" points="189.35,-305.18 199.66,-307.62 193.12,-299.28 189.35,-305.18"/>
<g id="a_edge9&#45;headlabel"><a xlink:href="dir_000015_000019.html" target="_top" xlink:title="60">
<text text-anchor="middle" x="184.79" y="-303.14" font-family="Helvetica,sans-Serif" font-size="10.00">60</text>
</a>
</g>
</g>
<!-- dir_f2c65bfcbdc19ebacbfc0bbbfb0d01b6&#45;&gt;dir_9ff815a534beac751fa88e427dbab695 -->
<g id="edge11" class="edge">
<title>dir_f2c65bfcbdc19ebacbfc0bbbfb0d01b6&#45;&gt;dir_9ff815a534beac751fa88e427dbab695</title>
<path fill="none" stroke="black" d="M358.06,-171.85C421.05,-159.87 577.94,-130.03 654.95,-115.38"/>
<polygon fill="black" stroke="black" points="655.66,-118.81 664.83,-113.5 654.35,-111.93 655.66,-118.81"/>
<g id="a_edge11&#45;headlabel"><a xlink:href="dir_000015_000033.html" target="_top" xlink:title="1">
<text text-anchor="middle" x="652.65" y="-119.77" font-family="Helvetica,sans-Serif" font-size="10.00">1</text>
</a>
</g>
</g>
<!-- dir_f2c65bfcbdc19ebacbfc0bbbfb0d01b6&#45;&gt;dir_e4cd57caa88bf1f4e1bf9521bc47c3c0 -->
<g id="edge13" class="edge">
<title>dir_f2c65bfcbdc19ebacbfc0bbbfb0d01b6&#45;&gt;dir_e4cd57caa88bf1f4e1bf9521bc47c3c0</title>
<path fill="none" stroke="black" d="M303.84,-185.67C261.04,-195.13 180.62,-212.59 153,-224 148.52,-225.85 143.95,-228.15 139.47,-230.61"/>
<polygon fill="black" stroke="black" points="137.4,-227.76 130.44,-235.75 140.86,-233.84 137.4,-227.76"/>
<g id="a_edge13&#45;headlabel"><a xlink:href="dir_000015_000010.html" target="_top" xlink:title="12">
<text text-anchor="middle" x="139.11" y="-221.01" font-family="Helvetica,sans-Serif" font-size="10.00">12</text>
</a>
</g>
</g>
<!-- dir_0c368f76a33d967d5b838b5681461de6 -->
<g id="node8" class="node">
<title>dir_0c368f76a33d967d5b838b5681461de6</title>
<g id="a_node8"><a xlink:href="dir_0c368f76a33d967d5b838b5681461de6.html" target="_top" xlink:title="wind_energy">
<polygon fill="white" stroke="red" points="425.5,-124 346.5,-124 346.5,-88 425.5,-88 425.5,-124"/>
<text text-anchor="middle" x="386" y="-103.5" font-family="Helvetica,sans-Serif" font-size="10.00">wind_energy</text>
</a>
</g>
</g>
<!-- dir_f2c65bfcbdc19ebacbfc0bbbfb0d01b6&#45;&gt;dir_0c368f76a33d967d5b838b5681461de6 -->
<g id="edge8" class="edge">
<title>dir_f2c65bfcbdc19ebacbfc0bbbfb0d01b6&#45;&gt;dir_0c368f76a33d967d5b838b5681461de6</title>
<path fill="none" stroke="black" d="M344.6,-159.7C351.12,-151.39 359.07,-141.28 366.25,-132.14"/>
<polygon fill="black" stroke="black" points="369.13,-134.13 372.56,-124.1 363.63,-129.81 369.13,-134.13"/>
<g id="a_edge8&#45;headlabel"><a xlink:href="dir_000015_000001.html" target="_top" xlink:title="1">
<text text-anchor="middle" x="369.15" y="-136.21" font-family="Helvetica,sans-Serif" font-size="10.00">1</text>
</a>
</g>
</g>
<!-- dir_4012ff34c1bb5bd303e44a1c9cef6c8a -->
<g id="node11" class="node">
<title>dir_4012ff34c1bb5bd303e44a1c9cef6c8a</title>
<g id="a_node11"><a xlink:href="dir_4012ff34c1bb5bd303e44a1c9cef6c8a.html" target="_top" xlink:title="icns">
<polygon fill="white" stroke="red" points="524,-340 470,-340 470,-304 524,-304 524,-340"/>
<text text-anchor="middle" x="497" y="-319.5" font-family="Helvetica,sans-Serif" font-size="10.00">icns</text>
</a>
</g>
</g>
<!-- dir_f2c65bfcbdc19ebacbfc0bbbfb0d01b6&#45;&gt;dir_4012ff34c1bb5bd303e44a1c9cef6c8a -->
<g id="edge10" class="edge">
<title>dir_f2c65bfcbdc19ebacbfc0bbbfb0d01b6&#45;&gt;dir_4012ff34c1bb5bd303e44a1c9cef6c8a</title>
<path fill="none" stroke="black" d="M351.09,-196.19C380.55,-221.39 435.56,-268.45 468.98,-297.03"/>
<polygon fill="black" stroke="black" points="467.1,-300.03 476.98,-303.87 471.65,-294.71 467.1,-300.03"/>
<g id="a_edge10&#45;headlabel"><a xlink:href="dir_000015_000003.html" target="_top" xlink:title="2">
<text text-anchor="middle" x="462.53" y="-297.35" font-family="Helvetica,sans-Serif" font-size="10.00">2</text>
</a>
</g>
</g>
<!-- dir_f2c65bfcbdc19ebacbfc0bbbfb0d01b6&#45;&gt;dir_bfcf7e25e8a41bb3b30f8e11e2280479 -->
<g id="edge12" class="edge">
<title>dir_f2c65bfcbdc19ebacbfc0bbbfb0d01b6&#45;&gt;dir_bfcf7e25e8a41bb3b30f8e11e2280479</title>
<path fill="none" stroke="black" d="M336.9,-196.1C337.7,-203.79 337.94,-213.05 337.6,-221.67"/>
<polygon fill="black" stroke="black" points="334.11,-221.48 336.92,-231.7 341.09,-221.96 334.11,-221.48"/>
<g id="a_edge12&#45;headlabel"><a xlink:href="dir_000015_000028.html" target="_top" xlink:title="1">
<text text-anchor="middle" x="331.52" y="-215.2" font-family="Helvetica,sans-Serif" font-size="10.00">1</text>
</a>
</g>
</g>
<!-- dir_0c368f76a33d967d5b838b5681461de6&#45;&gt;dir_3d3615e9a999cab4f3407307569d6ced -->
<g id="edge18" class="edge">
<title>dir_0c368f76a33d967d5b838b5681461de6&#45;&gt;dir_3d3615e9a999cab4f3407307569d6ced</title>
<path fill="none" stroke="black" d="M346.33,-107.15C266.2,-108.38 89.46,-116.13 52,-160 20.83,-196.5 23.4,-229.45 52,-268 83.58,-310.57 148.41,-320.15 189.68,-321.67"/>
<polygon fill="black" stroke="black" points="189.81,-325.18 199.89,-321.9 189.97,-318.18 189.81,-325.18"/>
<g id="a_edge18&#45;headlabel"><a xlink:href="dir_000001_000019.html" target="_top" xlink:title="33">
<text text-anchor="middle" x="186.15" y="-325.43" font-family="Helvetica,sans-Serif" font-size="10.00">33</text>
</a>
</g>
</g>
<!-- dir_0c368f76a33d967d5b838b5681461de6&#45;&gt;dir_a816a247b59c90f95e41afe29b966a18 -->
<g id="edge21" class="edge">
<title>dir_0c368f76a33d967d5b838b5681461de6&#45;&gt;dir_a816a247b59c90f95e41afe29b966a18</title>
<path fill="none" stroke="black" d="M386,-87.7C386,-79.98 386,-70.71 386,-62.11"/>
<polygon fill="black" stroke="black" points="389.5,-62.1 386,-52.1 382.5,-62.1 389.5,-62.1"/>
<g id="a_edge21&#45;headlabel"><a xlink:href="dir_000001_000023.html" target="_top" xlink:title="1">
<text text-anchor="middle" x="392.34" y="-63.2" font-family="Helvetica,sans-Serif" font-size="10.00">1</text>
</a>
</g>
</g>
<!-- dir_0c368f76a33d967d5b838b5681461de6&#45;&gt;dir_e4cd57caa88bf1f4e1bf9521bc47c3c0 -->
<g id="edge22" class="edge">
<title>dir_0c368f76a33d967d5b838b5681461de6&#45;&gt;dir_e4cd57caa88bf1f4e1bf9521bc47c3c0</title>
<path fill="none" stroke="black" d="M346.28,-118.54C316.1,-127.97 273.96,-142.56 239,-160 200.95,-178.98 160.57,-206.46 133.79,-225.85"/>
<polygon fill="black" stroke="black" points="131.6,-223.11 125.59,-231.84 135.73,-228.76 131.6,-223.11"/>
<g id="a_edge22&#45;headlabel"><a xlink:href="dir_000001_000010.html" target="_top" xlink:title="43">
<text text-anchor="middle" x="132.83" y="-216.2" font-family="Helvetica,sans-Serif" font-size="10.00">43</text>
</a>
</g>
</g>
<!-- dir_4bb30ed846ea1df1fc4d16874a455d91 -->
<g id="node9" class="node">
<title>dir_4bb30ed846ea1df1fc4d16874a455d91</title>
<text text-anchor="middle" x="669" y="-319.5" font-family="Helvetica,sans-Serif" font-size="10.00">equation_systems</text>
</g>
<!-- dir_0c368f76a33d967d5b838b5681461de6&#45;&gt;dir_4bb30ed846ea1df1fc4d16874a455d91 -->
<g id="edge20" class="edge">
<title>dir_0c368f76a33d967d5b838b5681461de6&#45;&gt;dir_4bb30ed846ea1df1fc4d16874a455d91</title>
<path fill="none" stroke="black" d="M411.37,-124.16C426.08,-134.3 444.83,-147.55 461,-160 520.25,-205.61 530.2,-223.11 590,-268 603.76,-278.33 619.4,-289.03 633.12,-298.09"/>
<polygon fill="black" stroke="black" points="631.53,-301.23 641.82,-303.78 635.37,-295.38 631.53,-301.23"/>
<g id="a_edge20&#45;headlabel"><a xlink:href="dir_000001_000002.html" target="_top" xlink:title="5">
<text text-anchor="middle" x="626.97" y="-299.14" font-family="Helvetica,sans-Serif" font-size="10.00">5</text>
</a>
</g>
</g>
<!-- dir_0c368f76a33d967d5b838b5681461de6&#45;&gt;dir_4012ff34c1bb5bd303e44a1c9cef6c8a -->
<g id="edge19" class="edge">
<title>dir_0c368f76a33d967d5b838b5681461de6&#45;&gt;dir_4012ff34c1bb5bd303e44a1c9cef6c8a</title>
<path fill="none" stroke="black" d="M411.56,-124.04C423.82,-133.38 437.8,-145.9 447,-160 474.43,-202.02 487.54,-259.97 493.22,-293.66"/>
<polygon fill="black" stroke="black" points="489.78,-294.37 494.8,-303.7 496.7,-293.28 489.78,-294.37"/>
<g id="a_edge19&#45;headlabel"><a xlink:href="dir_000001_000003.html" target="_top" xlink:title="4">
<text text-anchor="middle" x="486.42" y="-288.76" font-family="Helvetica,sans-Serif" font-size="10.00">4</text>
</a>
</g>
</g>
<!-- dir_4bb30ed846ea1df1fc4d16874a455d91&#45;&gt;dir_35ffb1505af3943bdf99903da87524fe -->
<g id="edge41" class="edge">
<title>dir_4bb30ed846ea1df1fc4d16874a455d91&#45;&gt;dir_35ffb1505af3943bdf99903da87524fe</title>
<path fill="none" stroke="black" d="M631.17,-340.1C623.31,-343.12 614.98,-345.96 607,-348 488.61,-378.3 344.15,-388.29 272.22,-391.51"/>
<polygon fill="black" stroke="black" points="271.99,-388.02 262.15,-391.94 272.29,-395.01 271.99,-388.02"/>
<g id="a_edge41&#45;headlabel"><a xlink:href="dir_000002_000027.html" target="_top" xlink:title="2">
<text text-anchor="middle" x="275.46" y="-382.53" font-family="Helvetica,sans-Serif" font-size="10.00">2</text>
</a>
</g>
</g>
<!-- dir_4bb30ed846ea1df1fc4d16874a455d91&#45;&gt;dir_9ff815a534beac751fa88e427dbab695 -->
<g id="edge42" class="edge">
<title>dir_4bb30ed846ea1df1fc4d16874a455d91&#45;&gt;dir_9ff815a534beac751fa88e427dbab695</title>
<path fill="none" stroke="black" d="M671.4,-303.85C676.59,-266.83 688.88,-179.18 695.16,-134.39"/>
<polygon fill="black" stroke="black" points="698.66,-134.62 696.58,-124.23 691.73,-133.65 698.66,-134.62"/>
<g id="a_edge42&#45;headlabel"><a xlink:href="dir_000002_000033.html" target="_top" xlink:title="4">
<text text-anchor="middle" x="700.97" y="-136.08" font-family="Helvetica,sans-Serif" font-size="10.00">4</text>
</a>
</g>
</g>
<!-- dir_4bb30ed846ea1df1fc4d16874a455d91&#45;&gt;dir_a816a247b59c90f95e41afe29b966a18 -->
<g id="edge43" class="edge">
<title>dir_4bb30ed846ea1df1fc4d16874a455d91&#45;&gt;dir_a816a247b59c90f95e41afe29b966a18</title>
<path fill="none" stroke="black" d="M652.14,-303.97C604.09,-255.4 466.25,-116.1 410.17,-59.42"/>
<polygon fill="black" stroke="black" points="412.65,-56.95 403.12,-52.31 407.67,-61.88 412.65,-56.95"/>
<g id="a_edge43&#45;headlabel"><a xlink:href="dir_000002_000023.html" target="_top" xlink:title="1">
<text text-anchor="middle" x="417.19" y="-55.01" font-family="Helvetica,sans-Serif" font-size="10.00">1</text>
</a>
</g>
</g>
<!-- dir_4bb30ed846ea1df1fc4d16874a455d91&#45;&gt;dir_e4cd57caa88bf1f4e1bf9521bc47c3c0 -->
<g id="edge44" class="edge">
<title>dir_4bb30ed846ea1df1fc4d16874a455d91&#45;&gt;dir_e4cd57caa88bf1f4e1bf9521bc47c3c0</title>
<path fill="none" stroke="black" d="M615.71,-305.71C612.78,-305.08 609.86,-304.5 607,-304 410.26,-269.44 355.25,-305.23 159,-268 152.71,-266.81 146.13,-265.17 139.77,-263.38"/>
<polygon fill="black" stroke="black" points="140.63,-259.99 130.05,-260.49 138.64,-266.7 140.63,-259.99"/>
<g id="a_edge44&#45;headlabel"><a xlink:href="dir_000002_000010.html" target="_top" xlink:title="15">
<text text-anchor="middle" x="144.89" y="-255.79" font-family="Helvetica,sans-Serif" font-size="10.00">15</text>
</a>
</g>
</g>
<!-- dir_4bb30ed846ea1df1fc4d16874a455d91&#45;&gt;dir_ebb19deee3cd40f4ac122fef25c04ca8 -->
<g id="edge45" class="edge">
<title>dir_4bb30ed846ea1df1fc4d16874a455d91&#45;&gt;dir_ebb19deee3cd40f4ac122fef25c04ca8</title>
<path fill="none" stroke="black" d="M615.69,-305.82C612.76,-305.16 609.85,-304.55 607,-304 471.03,-277.8 431.15,-293.76 296.18,-269.11"/>
<polygon fill="black" stroke="black" points="296.77,-265.66 286.3,-267.27 295.49,-272.54 296.77,-265.66"/>
<g id="a_edge45&#45;headlabel"><a xlink:href="dir_000002_000012.html" target="_top" xlink:title="3">
<text text-anchor="middle" x="300.82" y="-261.03" font-family="Helvetica,sans-Serif" font-size="10.00">3</text>
</a>
</g>
</g>
<!-- dir_70329d5a297148af2b67b1d844b9f654 -->
<g id="node10" class="node">
<title>dir_70329d5a297148af2b67b1d844b9f654</title>
<g id="a_node10"><a xlink:href="dir_70329d5a297148af2b67b1d844b9f654.html" target="_top" xlink:title="density">
<polygon fill="white" stroke="black" points="356,-340 302,-340 302,-304 356,-304 356,-340"/>
<text text-anchor="middle" x="329" y="-319.5" font-family="Helvetica,sans-Serif" font-size="10.00">density</text>
</a>
</g>
</g>
<!-- dir_70329d5a297148af2b67b1d844b9f654&#45;&gt;dir_3d3615e9a999cab4f3407307569d6ced -->
<g id="edge5" class="edge">
<title>dir_70329d5a297148af2b67b1d844b9f654&#45;&gt;dir_3d3615e9a999cab4f3407307569d6ced</title>
<path fill="none" stroke="black" d="M301.79,-322C289.24,-322 276.7,-322 264.15,-322"/>
<polygon fill="black" stroke="black" points="264.09,-318.5 254.09,-322 264.09,-325.5 264.09,-318.5"/>
<g id="a_edge5&#45;headlabel"><a xlink:href="dir_000022_000019.html" target="_top" xlink:title="4">
<text text-anchor="middle" x="267.69" y="-313.16" font-family="Helvetica,sans-Serif" font-size="10.00">4</text>
</a>
</g>
</g>
<!-- dir_4012ff34c1bb5bd303e44a1c9cef6c8a&#45;&gt;dir_3d3615e9a999cab4f3407307569d6ced -->
<g id="edge28" class="edge">
<title>dir_4012ff34c1bb5bd303e44a1c9cef6c8a&#45;&gt;dir_3d3615e9a999cab4f3407307569d6ced</title>
<path fill="none" stroke="black" d="M482.32,-340.1C474.34,-348.47 463.72,-357.54 452,-362 420.22,-374.08 331.91,-370.53 299,-362 285.78,-358.58 272.41,-352.14 260.84,-345.42"/>
<polygon fill="black" stroke="black" points="262.34,-342.23 251.98,-340.02 258.69,-348.21 262.34,-342.23"/>
<g id="a_edge28&#45;headlabel"><a xlink:href="dir_000003_000019.html" target="_top" xlink:title="22">
<text text-anchor="middle" x="266.88" y="-339.18" font-family="Helvetica,sans-Serif" font-size="10.00">22</text>
</a>
</g>
</g>
<!-- dir_4012ff34c1bb5bd303e44a1c9cef6c8a&#45;&gt;dir_e4cd57caa88bf1f4e1bf9521bc47c3c0 -->
<g id="edge30" class="edge">
<title>dir_4012ff34c1bb5bd303e44a1c9cef6c8a&#45;&gt;dir_e4cd57caa88bf1f4e1bf9521bc47c3c0</title>
<path fill="none" stroke="black" d="M469.84,-307.06C466.9,-305.89 463.92,-304.84 461,-304 331.09,-266.66 291.3,-295.74 159,-268 152.74,-266.69 146.16,-264.99 139.81,-263.18"/>
<polygon fill="black" stroke="black" points="140.68,-259.78 130.09,-260.28 138.67,-266.49 140.68,-259.78"/>
<g id="a_edge30&#45;headlabel"><a xlink:href="dir_000003_000010.html" target="_top" xlink:title="13">
<text text-anchor="middle" x="144.93" y="-255.59" font-family="Helvetica,sans-Serif" font-size="10.00">13</text>
</a>
</g>
</g>
<!-- dir_4012ff34c1bb5bd303e44a1c9cef6c8a&#45;&gt;dir_ebb19deee3cd40f4ac122fef25c04ca8 -->
<g id="edge31" class="edge">
<title>dir_4012ff34c1bb5bd303e44a1c9cef6c8a&#45;&gt;dir_ebb19deee3cd40f4ac122fef25c04ca8</title>
<path fill="none" stroke="black" d="M469.76,-307.33C466.84,-306.11 463.88,-304.97 461,-304 390.55,-280.31 367.5,-285.59 296.23,-269.42"/>
<polygon fill="black" stroke="black" points="296.87,-265.98 286.33,-267.11 295.27,-272.79 296.87,-265.98"/>
<g id="a_edge31&#45;headlabel"><a xlink:href="dir_000003_000012.html" target="_top" xlink:title="1">
<text text-anchor="middle" x="301.01" y="-261.53" font-family="Helvetica,sans-Serif" font-size="10.00">1</text>
</a>
</g>
</g>
<!-- dir_4012ff34c1bb5bd303e44a1c9cef6c8a&#45;&gt;dir_0c368f76a33d967d5b838b5681461de6 -->
<g id="edge32" class="edge">
<title>dir_4012ff34c1bb5bd303e44a1c9cef6c8a&#45;&gt;dir_0c368f76a33d967d5b838b5681461de6</title>
<path fill="none" stroke="black" d="M488.1,-303.85C468.74,-266.52 422.67,-177.69 399.62,-133.26"/>
<polygon fill="black" stroke="black" points="402.65,-131.5 394.94,-124.23 396.44,-134.72 402.65,-131.5"/>
<g id="a_edge32&#45;headlabel"><a xlink:href="dir_000003_000001.html" target="_top" xlink:title="4">
<text text-anchor="middle" x="406.83" y="-130.88" font-family="Helvetica,sans-Serif" font-size="10.00">4</text>
</a>
</g>
</g>
<!-- dir_4012ff34c1bb5bd303e44a1c9cef6c8a&#45;&gt;dir_bfcf7e25e8a41bb3b30f8e11e2280479 -->
<g id="edge29" class="edge">
<title>dir_4012ff34c1bb5bd303e44a1c9cef6c8a&#45;&gt;dir_bfcf7e25e8a41bb3b30f8e11e2280479</title>
<path fill="none" stroke="black" d="M469.99,-307.92C466.98,-306.56 463.93,-305.22 461,-304 420.82,-287.25 406.65,-287.22 367.58,-270.37"/>
<polygon fill="black" stroke="black" points="368.83,-267.1 358.27,-266.25 365.99,-273.5 368.83,-267.1"/>
<g id="a_edge29&#45;headlabel"><a xlink:href="dir_000003_000028.html" target="_top" xlink:title="1">
<text text-anchor="middle" x="373.27" y="-263.46" font-family="Helvetica,sans-Serif" font-size="10.00">1</text>
</a>
</g>
</g>
<!-- dir_ce0741f9b73f67c263a459724eeecf8b -->
<g id="node12" class="node">
<title>dir_ce0741f9b73f67c263a459724eeecf8b</title>
<g id="a_node12"><a xlink:href="dir_ce0741f9b73f67c263a459724eeecf8b.html" target="_top" xlink:title="levelset">
<polygon fill="white" stroke="black" points="598,-340 542,-340 542,-304 598,-304 598,-340"/>
<text text-anchor="middle" x="570" y="-319.5" font-family="Helvetica,sans-Serif" font-size="10.00">levelset</text>
</a>
</g>
</g>
<!-- dir_ce0741f9b73f67c263a459724eeecf8b&#45;&gt;dir_f2c65bfcbdc19ebacbfc0bbbfb0d01b6 -->
<g id="edge14" class="edge">
<title>dir_ce0741f9b73f67c263a459724eeecf8b&#45;&gt;dir_f2c65bfcbdc19ebacbfc0bbbfb0d01b6</title>
<path fill="none" stroke="black" d="M543.52,-303.86C512.72,-284.09 460.18,-250.85 414,-224 398.89,-215.22 381.96,-205.94 367.36,-198.11"/>
<polygon fill="black" stroke="black" points="368.61,-194.81 358.14,-193.19 365.31,-200.99 368.61,-194.81"/>
<g id="a_edge14&#45;headlabel"><a xlink:href="dir_000037_000015.html" target="_top" xlink:title="1">
<text text-anchor="middle" x="373.12" y="-191.5" font-family="Helvetica,sans-Serif" font-size="10.00">1</text>
</a>
</g>
</g>
<!-- dir_9f8434f21d2c2598f33c85a8b98c6d56&#45;&gt;dir_3d3615e9a999cab4f3407307569d6ced -->
<g id="edge33" class="edge">
<title>dir_9f8434f21d2c2598f33c85a8b98c6d56&#45;&gt;dir_3d3615e9a999cab4f3407307569d6ced</title>
<path fill="none" stroke="black" d="M752.32,-340.1C744.34,-348.47 733.72,-357.54 722,-362 678.07,-378.7 344.5,-373.79 299,-362 285.78,-358.58 272.41,-352.14 260.84,-345.42"/>
<polygon fill="black" stroke="black" points="262.34,-342.23 251.98,-340.02 258.69,-348.21 262.34,-342.23"/>
<g id="a_edge33&#45;headlabel"><a xlink:href="dir_000046_000019.html" target="_top" xlink:title="6">
<text text-anchor="middle" x="266.88" y="-339.18" font-family="Helvetica,sans-Serif" font-size="10.00">6</text>
</a>
</g>
</g>
<!-- dir_9f8434f21d2c2598f33c85a8b98c6d56&#45;&gt;dir_9ff815a534beac751fa88e427dbab695 -->
<g id="edge34" class="edge">
<title>dir_9f8434f21d2c2598f33c85a8b98c6d56&#45;&gt;dir_9ff815a534beac751fa88e427dbab695</title>
<path fill="none" stroke="black" d="M759.15,-303.53C754.7,-293.29 749.2,-280.04 745,-268 728.82,-221.64 713.96,-166.37 705.73,-134.13"/>
<polygon fill="black" stroke="black" points="709.05,-132.96 703.2,-124.12 702.26,-134.68 709.05,-132.96"/>
<g id="a_edge34&#45;headlabel"><a xlink:href="dir_000046_000033.html" target="_top" xlink:title="1">
<text text-anchor="middle" x="712.68" y="-133.25" font-family="Helvetica,sans-Serif" font-size="10.00">1</text>
</a>
</g>
</g>
<!-- dir_c96908905c9887b0bdc2167e5354d30c -->
<g id="node14" class="node">
<title>dir_c96908905c9887b0bdc2167e5354d30c</title>
<g id="a_node14"><a xlink:href="dir_c96908905c9887b0bdc2167e5354d30c.html" target="_top" xlink:title="temperature">
<polygon fill="white" stroke="black" points="451.5,-340 374.5,-340 374.5,-304 451.5,-304 451.5,-340"/>
<text text-anchor="middle" x="413" y="-319.5" font-family="Helvetica,sans-Serif" font-size="10.00">temperature</text>
</a>
</g>
</g>
<!-- dir_c96908905c9887b0bdc2167e5354d30c&#45;&gt;dir_3d3615e9a999cab4f3407307569d6ced -->
<g id="edge15" class="edge">
<title>dir_c96908905c9887b0bdc2167e5354d30c&#45;&gt;dir_3d3615e9a999cab4f3407307569d6ced</title>
<path fill="none" stroke="black" d="M393.54,-340.17C383.22,-348.57 369.83,-357.63 356,-362 331.84,-369.63 323.52,-368.35 299,-362 285.78,-358.58 272.41,-352.14 260.84,-345.42"/>
<polygon fill="black" stroke="black" points="262.34,-342.23 251.98,-340.02 258.69,-348.21 262.34,-342.23"/>
<g id="a_edge15&#45;headlabel"><a xlink:href="dir_000048_000019.html" target="_top" xlink:title="4">
<text text-anchor="middle" x="266.88" y="-339.18" font-family="Helvetica,sans-Serif" font-size="10.00">4</text>
</a>
</g>
</g>
<!-- dir_be932497d8c26b6aa8596ee64638838f&#45;&gt;dir_3d3615e9a999cab4f3407307569d6ced -->
<g id="edge6" class="edge">
<title>dir_be932497d8c26b6aa8596ee64638838f&#45;&gt;dir_3d3615e9a999cab4f3407307569d6ced</title>
<path fill="none" stroke="black" d="M824.32,-340.1C816.34,-348.47 805.72,-357.54 794,-362 742.59,-381.55 352.24,-375.8 299,-362 285.78,-358.58 272.41,-352.14 260.84,-345.42"/>
<polygon fill="black" stroke="black" points="262.34,-342.23 251.98,-340.02 258.69,-348.21 262.34,-342.23"/>
<g id="a_edge6&#45;headlabel"><a xlink:href="dir_000035_000019.html" target="_top" xlink:title="6">
<text text-anchor="middle" x="266.88" y="-339.18" font-family="Helvetica,sans-Serif" font-size="10.00">6</text>
</a>
</g>
</g>
<!-- dir_be932497d8c26b6aa8596ee64638838f&#45;&gt;dir_9ff815a534beac751fa88e427dbab695 -->
<g id="edge7" class="edge">
<title>dir_be932497d8c26b6aa8596ee64638838f&#45;&gt;dir_9ff815a534beac751fa88e427dbab695</title>
<path fill="none" stroke="black" d="M833.11,-303.68C826.1,-283.87 813.5,-250.74 799,-224 782.55,-193.65 777.44,-186.23 755,-160 746.43,-149.99 736.18,-139.84 726.79,-131.14"/>
<polygon fill="black" stroke="black" points="728.93,-128.35 719.17,-124.21 724.22,-133.52 728.93,-128.35"/>
<g id="a_edge7&#45;headlabel"><a xlink:href="dir_000035_000033.html" target="_top" xlink:title="2">
<text text-anchor="middle" x="733.5" y="-126.17" font-family="Helvetica,sans-Serif" font-size="10.00">2</text>
</a>
</g>
</g>
<!-- dir_bfcf7e25e8a41bb3b30f8e11e2280479&#45;&gt;dir_3d3615e9a999cab4f3407307569d6ced -->
<g id="edge36" class="edge">
<title>dir_bfcf7e25e8a41bb3b30f8e11e2280479&#45;&gt;dir_3d3615e9a999cab4f3407307569d6ced</title>
<path fill="none" stroke="black" d="M305.46,-268.19C292.1,-277.18 275.56,-288.32 261.12,-298.04"/>
<polygon fill="black" stroke="black" points="258.78,-295.39 252.44,-303.88 262.69,-301.2 258.78,-295.39"/>
<g id="a_edge36&#45;headlabel"><a xlink:href="dir_000028_000019.html" target="_top" xlink:title="1">
<text text-anchor="middle" x="260.18" y="-288.53" font-family="Helvetica,sans-Serif" font-size="10.00">1</text>
</a>
</g>
</g>
<!-- dir_bfcf7e25e8a41bb3b30f8e11e2280479&#45;&gt;dir_ebb19deee3cd40f4ac122fef25c04ca8 -->
<g id="edge37" class="edge">
<title>dir_bfcf7e25e8a41bb3b30f8e11e2280479&#45;&gt;dir_ebb19deee3cd40f4ac122fef25c04ca8</title>
<path fill="none" stroke="black" d="M303.77,-250C301.31,-250 298.86,-250 296.4,-250"/>
<polygon fill="black" stroke="black" points="296.31,-246.5 286.31,-250 296.31,-253.5 296.31,-246.5"/>
<g id="a_edge37&#45;headlabel"><a xlink:href="dir_000028_000012.html" target="_top" xlink:title="1">
<text text-anchor="middle" x="299.91" y="-241.16" font-family="Helvetica,sans-Serif" font-size="10.00">1</text>
</a>
</g>
</g>
<!-- dir_bfcf7e25e8a41bb3b30f8e11e2280479&#45;&gt;dir_f2c65bfcbdc19ebacbfc0bbbfb0d01b6 -->
<g id="edge38" class="edge">
<title>dir_bfcf7e25e8a41bb3b30f8e11e2280479&#45;&gt;dir_f2c65bfcbdc19ebacbfc0bbbfb0d01b6</title>
<path fill="none" stroke="black" d="M325.08,-231.7C324.29,-223.98 324.06,-214.71 324.4,-206.11"/>
<polygon fill="black" stroke="black" points="327.9,-206.32 325.1,-196.1 320.92,-205.84 327.9,-206.32"/>
<g id="a_edge38&#45;headlabel"><a xlink:href="dir_000028_000015.html" target="_top" xlink:title="1">
<text text-anchor="middle" x="330.48" y="-207.61" font-family="Helvetica,sans-Serif" font-size="10.00">1</text>
</a>
</g>
</g>
</g>
</svg>
        <g id="navigator" transform="translate(0 0)" fill="#404254">
                <rect fill="#f2f5e9" fill-opacity="0.5" stroke="#606060" stroke-width=".5" x="0" y="0" width="60" height="60"/>
                <use id="zoomplus" xlink:href="#zoomPlus" x="17" y="9" onmousedown="handleZoom(evt,'in')"/>
                <use id="zoomminus" xlink:href="#zoomMin" x="42" y="9" onmousedown="handleZoom(evt,'out')"/>
                <use id="reset" xlink:href="#resetDef" x="30" y="36" onmousedown="handleReset()"/>
                <g id="arrowUp" xlink:href="#dirArrow" transform="translate(30 24)" onmousedown="handlePan(0,-1)">
                  <use xlink:href="#rim" fill="#404040">
                        <set attributeName="fill" to="#808080" begin="arrowUp.mouseover" end="arrowUp.mouseout"/>
                  </use>
                  <path fill="none" stroke="white" stroke-width="1.5" d="M0,-3.0v7 M-2.5,-0.5L0,-3.0L2.5,-0.5"/>
                </g>
                <g id="arrowRight" xlink:href="#dirArrow" transform="rotate(90) translate(36 -43)" onmousedown="handlePan(1,0)">
                  <use xlink:href="#rim" fill="#404040">
                        <set attributeName="fill" to="#808080" begin="arrowRight.mouseover" end="arrowRight.mouseout"/>
                  </use>
                  <path fill="none" stroke="white" stroke-width="1.5" d="M0,-3.0v7 M-2.5,-0.5L0,-3.0L2.5,-0.5"/>
                </g>
                <g id="arrowDown" xlink:href="#dirArrow" transform="rotate(180) translate(-30 -48)" onmousedown="handlePan(0,1)">
                  <use xlink:href="#rim" fill="#404040">
                        <set attributeName="fill" to="#808080" begin="arrowDown.mouseover" end="arrowDown.mouseout"/>
                  </use>
                  <path fill="none" stroke="white" stroke-width="1.5" d="M0,-3.0v7 M-2.5,-0.5L0,-3.0L2.5,-0.5"/>
                </g>
                <g id="arrowLeft" xlink:href="#dirArrow" transform="rotate(270) translate(-36 17)" onmousedown="handlePan(-1,0)">
                  <use xlink:href="#rim" fill="#404040">
                        <set attributeName="fill" to="#808080" begin="arrowLeft.mouseover" end="arrowLeft.mouseout"/>
                  </use>
                  <path fill="none" stroke="white" stroke-width="1.5" d="M0,-3.0v7 M-2.5,-0.5L0,-3.0L2.5,-0.5"/>
                </g>
        </g>
        <svg viewBox="0 0 15 15" width="100%" height="30px" preserveAspectRatio="xMaxYMin meet">
         <g id="arrow_out" transform="scale(0.3 0.3)">
          <a xlink:href="dir_4bb30ed846ea1df1fc4d16874a455d91_dep_org.svg" target="_base">
           <rect id="button" ry="5" rx="5" y="6" x="6" height="38" width="38"
                fill="#f2f5e9" fill-opacity="0.5" stroke="#606060" stroke-width="1.0"/>
           <path id="arrow"
             d="M 11.500037,31.436501 C 11.940474,20.09759 22.043105,11.32322 32.158766,21.979434 L 37.068811,17.246167 C 37.068811,17.246167 37.088388,32 37.088388,32 L 22.160133,31.978069 C 22.160133,31.978069 26.997745,27.140456 26.997745,27.140456 C 18.528582,18.264221 13.291696,25.230495 11.500037,31.436501 z"
             style="fill:#404040;"/>
          </a>
         </g>
        </svg>
</svg>
