<?xml version="1.0" encoding="UTF-8" standalone="no"?>
<!DOCTYPE svg PUBLIC "-//W3C//DTD SVG 1.1//EN"
 "http://www.w3.org/Graphics/SVG/1.1/DTD/svg11.dtd">
<!-- Generated by graphviz version 2.43.0 (0)
 -->
<!-- Title: field_ops.H Pages: 1 -->
<!--zoomable 263 -->
<svg id="main" version="1.1" xmlns="http://www.w3.org/2000/svg" xmlns:xlink="http://www.w3.org/1999/xlink" xml:space="preserve" onload="init(evt)">
<style type="text/css"><![CDATA[
.edge:hover path { stroke: red; }
.edge:hover polygon { stroke: red; fill: red; }
]]></style>
<script type="text/javascript"><![CDATA[
var edges = document.getElementsByTagName('g');
if (edges && edges.length) {
  for (var i=0;i<edges.length;i++) {
    if (edges[i].id.substr(0,4)=='edge') {
      edges[i].setAttribute('class','edge');
    }
  }
}
]]></script>
        <defs>
                <circle id="rim" cx="0" cy="0" r="7"/>
                <circle id="rim2" cx="0" cy="0" r="3.5"/>
                <g id="zoomPlus">
                        <use xlink:href="#rim" fill="#404040">
                                <set attributeName="fill" to="#808080" begin="zoomplus.mouseover" end="zoomplus.mouseout"/>
                        </use>
                        <path d="M-4,0h8M0,-4v8" fill="none" stroke="white" stroke-width="1.5" pointer-events="none"/>
                </g>
                <g id="zoomMin">
                        <use xlink:href="#rim" fill="#404040">
                                <set attributeName="fill" to="#808080" begin="zoomminus.mouseover" end="zoomminus.mouseout"/>
                        </use>
                        <path d="M-4,0h8" fill="none" stroke="white" stroke-width="1.5" pointer-events="none"/>
                </g>
                <g id="dirArrow">
                        <path fill="none" stroke="white" stroke-width="1.5" d="M0,-3.0v7 M-2.5,-0.5L0,-3.0L2.5,-0.5"/>
                </g>
               <g id="resetDef">
                       <use xlink:href="#rim2" fill="#404040">
                               <set attributeName="fill" to="#808080" begin="reset.mouseover" end="reset.mouseout"/>
                       </use>
               </g>
        </defs>

<script type="text/javascript">
var viewWidth = 1985;
var viewHeight = 263;
var sectionId = 'dynsection-1';
</script>
<script xlink:href="svgpan.js"/>
<svg id="graph" class="graph">
<g id="viewport">
<title>field_ops.H</title>
<polygon fill="white" stroke="transparent" points="-4,4 -4,-259 1981,-259 1981,4 -4,4"/>
<!-- Node1 -->
<g id="node1" class="node">
<title>Node1</title>
<g id="a_node1"><a xlink:title=" ">
<polygon fill="#bfbfbf" stroke="black" points="911,-235.5 911,-254.5 982,-254.5 982,-235.5 911,-235.5"/>
<text text-anchor="middle" x="946.5" y="-242.5" font-family="Helvetica,sans-Serif" font-size="10.00">field_ops.H</text>
</a>
</g>
</g>
<!-- Node2 -->
<g id="node2" class="node">
<title>Node2</title>
<g id="a_node2"><a xlink:href="_s_d_r_8_h.html" target="_top" xlink:title=" ">
<polygon fill="white" stroke="black" points="87,-112.5 87,-131.5 134,-131.5 134,-112.5 87,-112.5"/>
<text text-anchor="middle" x="110.5" y="-119.5" font-family="Helvetica,sans-Serif" font-size="10.00">SDR.H</text>
</a>
</g>
</g>
<!-- Node1&#45;&gt;Node2 -->
<g id="edge1" class="edge">
<title>Node1&#45;&gt;Node2</title>
<path fill="none" stroke="midnightblue" d="M900.55,-242.97C732.48,-239 159.39,-223.69 129.5,-199 109.37,-182.37 108.75,-147.93 109.69,-131.76"/>
<polygon fill="midnightblue" stroke="midnightblue" points="900.71,-246.47 910.79,-243.21 900.88,-239.47 900.71,-246.47"/>
</g>
<!-- Node4 -->
<g id="node4" class="node">
<title>Node4</title>
<g id="a_node4"><a xlink:href="sdr__ops_8_h.html" target="_top" xlink:title=" ">
<polygon fill="white" stroke="black" points="0,-56.5 0,-75.5 65,-75.5 65,-56.5 0,-56.5"/>
<text text-anchor="middle" x="32.5" y="-63.5" font-family="Helvetica,sans-Serif" font-size="10.00">sdr_ops.H</text>
</a>
</g>
</g>
<!-- Node1&#45;&gt;Node4 -->
<g id="edge10" class="edge">
<title>Node1&#45;&gt;Node4</title>
<path fill="none" stroke="midnightblue" d="M900.42,-244.07C734.83,-243.97 176.06,-240.52 108.5,-199 61.41,-170.06 40.55,-100.39 34.48,-75.79"/>
<polygon fill="midnightblue" stroke="midnightblue" points="900.75,-247.57 910.75,-244.07 900.75,-240.57 900.75,-247.57"/>
</g>
<!-- Node8 -->
<g id="node8" class="node">
<title>Node8</title>
<g id="a_node8"><a xlink:href="_t_k_e_8_h.html" target="_top" xlink:title=" ">
<polygon fill="white" stroke="black" points="502.5,-112.5 502.5,-131.5 548.5,-131.5 548.5,-112.5 502.5,-112.5"/>
<text text-anchor="middle" x="525.5" y="-119.5" font-family="Helvetica,sans-Serif" font-size="10.00">TKE.H</text>
</a>
</g>
</g>
<!-- Node1&#45;&gt;Node8 -->
<g id="edge11" class="edge">
<title>Node1&#45;&gt;Node8</title>
<path fill="none" stroke="midnightblue" d="M900.48,-244.38C757.97,-245.1 331.04,-243.48 289.5,-199 280.1,-188.93 280.72,-178.62 289.5,-168 296.33,-159.74 444.27,-135.75 502.37,-126.6"/>
<polygon fill="midnightblue" stroke="midnightblue" points="900.65,-247.88 910.63,-244.33 900.61,-240.88 900.65,-247.88"/>
</g>
<!-- Node10 -->
<g id="node10" class="node">
<title>Node10</title>
<g id="a_node10"><a xlink:href="tke__ops_8_h.html" target="_top" xlink:title=" ">
<polygon fill="white" stroke="black" points="702,-56.5 702,-75.5 767,-75.5 767,-56.5 702,-56.5"/>
<text text-anchor="middle" x="734.5" y="-63.5" font-family="Helvetica,sans-Serif" font-size="10.00">tke_ops.H</text>
</a>
</g>
</g>
<!-- Node1&#45;&gt;Node10 -->
<g id="edge19" class="edge">
<title>Node1&#45;&gt;Node10</title>
<path fill="none" stroke="midnightblue" d="M992.33,-243.35C1167.46,-240.66 1785.97,-229.04 1814.5,-199 1823.99,-189.01 1823.78,-178.19 1814.5,-168 1742.14,-88.56 940.26,-70.49 767.27,-67.5"/>
<polygon fill="midnightblue" stroke="midnightblue" points="992.11,-239.86 982.17,-243.51 992.22,-246.85 992.11,-239.86"/>
</g>
<!-- Node12 -->
<g id="node12" class="node">
<title>Node12</title>
<g id="a_node12"><a xlink:href="bluff__body__ops_8cpp.html" target="_top" xlink:title=" ">
<polygon fill="white" stroke="black" points="298.5,-174 298.5,-193 408.5,-193 408.5,-174 298.5,-174"/>
<text text-anchor="middle" x="353.5" y="-181" font-family="Helvetica,sans-Serif" font-size="10.00">bluff_body_ops.cpp</text>
</a>
</g>
</g>
<!-- Node1&#45;&gt;Node12 -->
<g id="edge20" class="edge">
<title>Node1&#45;&gt;Node12</title>
<path fill="none" stroke="midnightblue" d="M900.6,-242.23C808.52,-238.2 594.88,-226.5 417.5,-199 407.59,-197.46 396.93,-195.27 387.21,-193.05"/>
<polygon fill="midnightblue" stroke="midnightblue" points="900.55,-245.73 910.69,-242.66 900.85,-238.74 900.55,-245.73"/>
</g>
<!-- Node13 -->
<g id="node13" class="node">
<title>Node13</title>
<g id="a_node13"><a xlink:href="incflo__advance_8cpp.html" target="_top" xlink:title=" ">
<polygon fill="white" stroke="black" points="426.5,-174 426.5,-193 536.5,-193 536.5,-174 426.5,-174"/>
<text text-anchor="middle" x="481.5" y="-181" font-family="Helvetica,sans-Serif" font-size="10.00">incflo_advance.cpp</text>
</a>
</g>
</g>
<!-- Node1&#45;&gt;Node13 -->
<g id="edge21" class="edge">
<title>Node1&#45;&gt;Node13</title>
<path fill="none" stroke="midnightblue" d="M900.74,-240.46C826.2,-234.34 674.04,-220.34 546.5,-199 536.69,-197.36 526.14,-195.18 516.45,-193.02"/>
<polygon fill="midnightblue" stroke="midnightblue" points="900.49,-243.95 910.74,-241.27 901.05,-236.98 900.49,-243.95"/>
</g>
<!-- Node14 -->
<g id="node14" class="node">
<title>Node14</title>
<g id="a_node14"><a xlink:href="hos__waves__ops_8_h.html" target="_top" xlink:title=" ">
<polygon fill="white" stroke="black" points="138.5,-174 138.5,-193 242.5,-193 242.5,-174 138.5,-174"/>
<text text-anchor="middle" x="190.5" y="-181" font-family="Helvetica,sans-Serif" font-size="10.00">hos_waves_ops.H</text>
</a>
</g>
</g>
<!-- Node1&#45;&gt;Node14 -->
<g id="edge22" class="edge">
<title>Node1&#45;&gt;Node14</title>
<path fill="none" stroke="midnightblue" d="M900.57,-243.4C789.45,-241.42 497.44,-233.12 256.5,-199 246.05,-197.52 234.78,-195.29 224.58,-193.02"/>
<polygon fill="midnightblue" stroke="midnightblue" points="900.7,-246.9 910.76,-243.57 900.82,-239.9 900.7,-246.9"/>
</g>
<!-- Node16 -->
<g id="node16" class="node">
<title>Node16</title>
<g id="a_node16"><a xlink:href="relaxation__zones__ops_8cpp.html" target="_top" xlink:title=" ">
<polygon fill="white" stroke="black" points="674,-174 674,-193 817,-193 817,-174 674,-174"/>
<text text-anchor="middle" x="745.5" y="-181" font-family="Helvetica,sans-Serif" font-size="10.00">relaxation_zones_ops.cpp</text>
</a>
</g>
</g>
<!-- Node1&#45;&gt;Node16 -->
<g id="edge24" class="edge">
<title>Node1&#45;&gt;Node16</title>
<path fill="none" stroke="midnightblue" d="M907.75,-232.53C868.68,-220.96 809.3,-203.38 774.24,-193.01"/>
<polygon fill="midnightblue" stroke="midnightblue" points="907.12,-235.99 917.7,-235.48 909.11,-229.28 907.12,-235.99"/>
</g>
<!-- Node17 -->
<g id="node17" class="node">
<title>Node17</title>
<g id="a_node17"><a xlink:href="_tioga_interface_8cpp.html" target="_top" xlink:title=" ">
<polygon fill="white" stroke="black" points="835,-174 835,-193 942,-193 942,-174 835,-174"/>
<text text-anchor="middle" x="888.5" y="-181" font-family="Helvetica,sans-Serif" font-size="10.00">TiogaInterface.cpp</text>
</a>
</g>
</g>
<!-- Node1&#45;&gt;Node17 -->
<g id="edge25" class="edge">
<title>Node1&#45;&gt;Node17</title>
<path fill="none" stroke="midnightblue" d="M930.9,-228C919.92,-216.74 905.66,-202.1 896.79,-193.01"/>
<polygon fill="midnightblue" stroke="midnightblue" points="928.7,-230.76 938.19,-235.48 933.72,-225.87 928.7,-230.76"/>
</g>
<!-- Node18 -->
<g id="node18" class="node">
<title>Node18</title>
<g id="a_node18"><a xlink:href="_dam_break_8cpp.html" target="_top" xlink:title=" ">
<polygon fill="white" stroke="black" points="960,-174 960,-193 1049,-193 1049,-174 960,-174"/>
<text text-anchor="middle" x="1004.5" y="-181" font-family="Helvetica,sans-Serif" font-size="10.00">DamBreak.cpp</text>
</a>
</g>
</g>
<!-- Node1&#45;&gt;Node18 -->
<g id="edge26" class="edge">
<title>Node1&#45;&gt;Node18</title>
<path fill="none" stroke="midnightblue" d="M962.1,-228C973.08,-216.74 987.34,-202.1 996.21,-193.01"/>
<polygon fill="midnightblue" stroke="midnightblue" points="959.28,-225.87 954.81,-235.48 964.3,-230.76 959.28,-225.87"/>
</g>
<!-- Node19 -->
<g id="node19" class="node">
<title>Node19</title>
<g id="a_node19"><a xlink:href="_multi_phase_8cpp.html" target="_top" xlink:title=" ">
<polygon fill="white" stroke="black" points="1067,-174 1067,-193 1158,-193 1158,-174 1067,-174"/>
<text text-anchor="middle" x="1112.5" y="-181" font-family="Helvetica,sans-Serif" font-size="10.00">MultiPhase.cpp</text>
</a>
</g>
</g>
<!-- Node1&#45;&gt;Node19 -->
<g id="edge27" class="edge">
<title>Node1&#45;&gt;Node19</title>
<path fill="none" stroke="midnightblue" d="M979.75,-232.08C1012.02,-220.52 1060.18,-203.25 1088.76,-193.01"/>
<polygon fill="midnightblue" stroke="midnightblue" points="978.52,-228.81 970.28,-235.48 980.88,-235.4 978.52,-228.81"/>
</g>
<!-- Node20 -->
<g id="node20" class="node">
<title>Node20</title>
<g id="a_node20"><a xlink:href="_sloshing_tank_8cpp.html" target="_top" xlink:title=" ">
<polygon fill="white" stroke="black" points="1176,-174 1176,-193 1277,-193 1277,-174 1176,-174"/>
<text text-anchor="middle" x="1226.5" y="-181" font-family="Helvetica,sans-Serif" font-size="10.00">SloshingTank.cpp</text>
</a>
</g>
</g>
<!-- Node1&#45;&gt;Node20 -->
<g id="edge28" class="edge">
<title>Node1&#45;&gt;Node20</title>
<path fill="none" stroke="midnightblue" d="M992.17,-235.25C1036.94,-226.55 1107.07,-212.57 1167.5,-199 1175.73,-197.15 1184.58,-195.04 1192.86,-193.01"/>
<polygon fill="midnightblue" stroke="midnightblue" points="991.34,-231.85 982.19,-237.19 992.67,-238.72 991.34,-231.85"/>
</g>
<!-- Node21 -->
<g id="node21" class="node">
<title>Node21</title>
<g id="a_node21"><a xlink:href="_zalesak_disk_8cpp.html" target="_top" xlink:title=" ">
<polygon fill="white" stroke="black" points="1295.5,-174 1295.5,-193 1393.5,-193 1393.5,-174 1295.5,-174"/>
<text text-anchor="middle" x="1344.5" y="-181" font-family="Helvetica,sans-Serif" font-size="10.00">ZalesakDisk.cpp</text>
</a>
</g>
</g>
<!-- Node1&#45;&gt;Node21 -->
<g id="edge29" class="edge">
<title>Node1&#45;&gt;Node21</title>
<path fill="none" stroke="midnightblue" d="M992.46,-239.59C1058.05,-232.92 1182.12,-218.89 1286.5,-199 1295.17,-197.35 1304.47,-195.2 1313.04,-193.06"/>
<polygon fill="midnightblue" stroke="midnightblue" points="992.05,-236.11 982.45,-240.6 992.75,-243.08 992.05,-236.11"/>
</g>
<!-- Node22 -->
<g id="node22" class="node">
<title>Node22</title>
<g id="a_node22"><a xlink:href="_zalesak_disk_scalar_vel_8cpp.html" target="_top" xlink:title=" ">
<polygon fill="white" stroke="black" points="1412,-174 1412,-193 1555,-193 1555,-174 1412,-174"/>
<text text-anchor="middle" x="1483.5" y="-181" font-family="Helvetica,sans-Serif" font-size="10.00">ZalesakDiskScalarVel.cpp</text>
</a>
</g>
</g>
<!-- Node1&#45;&gt;Node22 -->
<g id="edge30" class="edge">
<title>Node1&#45;&gt;Node22</title>
<path fill="none" stroke="midnightblue" d="M992.1,-240.7C1074.35,-234.47 1252.88,-219.74 1402.5,-199 1414.53,-197.33 1427.5,-195.17 1439.46,-193.03"/>
<polygon fill="midnightblue" stroke="midnightblue" points="991.8,-237.21 982.09,-241.45 992.32,-244.19 991.8,-237.21"/>
</g>
<!-- Node23 -->
<g id="node23" class="node">
<title>Node23</title>
<g id="a_node23"><a xlink:href="incflo__apply__nodal__projection_8cpp.html" target="_top" xlink:title=" ">
<polygon fill="white" stroke="black" points="1573,-168.5 1573,-198.5 1680,-198.5 1680,-168.5 1573,-168.5"/>
<text text-anchor="start" x="1581" y="-186.5" font-family="Helvetica,sans-Serif" font-size="10.00">incflo_apply_nodal</text>
<text text-anchor="middle" x="1626.5" y="-175.5" font-family="Helvetica,sans-Serif" font-size="10.00">_projection.cpp</text>
</a>
</g>
</g>
<!-- Node1&#45;&gt;Node23 -->
<g id="edge31" class="edge">
<title>Node1&#45;&gt;Node23</title>
<path fill="none" stroke="midnightblue" d="M992.29,-243.12C1095.17,-240.61 1352.18,-231.35 1564.5,-199 1567.23,-198.58 1570.02,-198.11 1572.83,-197.6"/>
<polygon fill="midnightblue" stroke="midnightblue" points="992.16,-239.62 982.25,-243.36 992.33,-246.62 992.16,-239.62"/>
</g>
<!-- Node24 -->
<g id="node24" class="node">
<title>Node24</title>
<g id="a_node24"><a xlink:href="_laminar_model_8cpp.html" target="_top" xlink:title=" ">
<polygon fill="white" stroke="black" points="1698,-174 1698,-193 1805,-193 1805,-174 1698,-174"/>
<text text-anchor="middle" x="1751.5" y="-181" font-family="Helvetica,sans-Serif" font-size="10.00">LaminarModel.cpp</text>
</a>
</g>
</g>
<!-- Node1&#45;&gt;Node24 -->
<g id="edge32" class="edge">
<title>Node1&#45;&gt;Node24</title>
<path fill="none" stroke="midnightblue" d="M992.31,-243.91C1109.17,-243.11 1427.6,-237.28 1689.5,-199 1699.34,-197.56 1709.93,-195.34 1719.52,-193.07"/>
<polygon fill="midnightblue" stroke="midnightblue" points="992.27,-240.41 982.29,-243.97 992.31,-247.41 992.27,-240.41"/>
</g>
<!-- Node25 -->
<g id="node25" class="node">
<title>Node25</title>
<g id="a_node25"><a xlink:href="_turb_model_base_8_h.html" target="_top" xlink:title=" ">
<polygon fill="white" stroke="black" points="555,-174 555,-193 656,-193 656,-174 555,-174"/>
<text text-anchor="middle" x="605.5" y="-181" font-family="Helvetica,sans-Serif" font-size="10.00">TurbModelBase.H</text>
</a>
</g>
</g>
<!-- Node1&#45;&gt;Node25 -->
<g id="edge33" class="edge">
<title>Node1&#45;&gt;Node25</title>
<path fill="none" stroke="midnightblue" d="M900.94,-237.82C845.19,-230.01 748.04,-215.56 665.5,-199 656.78,-197.25 647.41,-195.11 638.72,-193.02"/>
<polygon fill="midnightblue" stroke="midnightblue" points="900.47,-241.29 910.85,-239.2 901.43,-234.36 900.47,-241.29"/>
</g>
<!-- Node31 -->
<g id="node31" class="node">
<title>Node31</title>
<g id="a_node31"><a xlink:href="_derived_qty_defs_8cpp.html" target="_top" xlink:title=" ">
<polygon fill="white" stroke="black" points="1862,-174 1862,-193 1977,-193 1977,-174 1862,-174"/>
<text text-anchor="middle" x="1919.5" y="-181" font-family="Helvetica,sans-Serif" font-size="10.00">DerivedQtyDefs.cpp</text>
</a>
</g>
</g>
<!-- Node1&#45;&gt;Node31 -->
<g id="edge43" class="edge">
<title>Node1&#45;&gt;Node31</title>
<path fill="none" stroke="midnightblue" d="M992.51,-244.11C1125.53,-243.92 1521.8,-239.7 1847.5,-199 1859.01,-197.56 1871.44,-195.31 1882.67,-193.01"/>
<polygon fill="midnightblue" stroke="midnightblue" points="992.29,-240.61 982.29,-244.12 992.3,-247.61 992.29,-240.61"/>
</g>
<!-- Node3 -->
<g id="node3" class="node">
<title>Node3</title>
<g id="a_node3"><a xlink:href="_s_d_r_8cpp.html" target="_top" xlink:title=" ">
<polygon fill="white" stroke="black" points="35,-0.5 35,-19.5 92,-19.5 92,-0.5 35,-0.5"/>
<text text-anchor="middle" x="63.5" y="-7.5" font-family="Helvetica,sans-Serif" font-size="10.00">SDR.cpp</text>
</a>
</g>
</g>
<!-- Node2&#45;&gt;Node3 -->
<g id="edge2" class="edge">
<title>Node2&#45;&gt;Node3</title>
<path fill="none" stroke="midnightblue" d="M102.81,-103C92.55,-79 74.81,-37.47 67.17,-19.59"/>
<polygon fill="midnightblue" stroke="midnightblue" points="99.66,-104.55 106.81,-112.37 106.1,-101.8 99.66,-104.55"/>
</g>
<!-- Node2&#45;&gt;Node4 -->
<g id="edge3" class="edge">
<title>Node2&#45;&gt;Node4</title>
<path fill="none" stroke="midnightblue" d="M89.73,-106.62C75.48,-96.76 57.04,-83.99 45,-75.65"/>
<polygon fill="midnightblue" stroke="midnightblue" points="87.75,-109.51 97.97,-112.32 91.74,-103.75 87.75,-109.51"/>
</g>
<!-- Node5 -->
<g id="node5" class="node">
<title>Node5</title>
<g id="a_node5"><a xlink:href="_k_omega_s_s_t_8cpp.html" target="_top" xlink:title=" ">
<polygon fill="white" stroke="black" points="410,-0.5 410,-19.5 505,-19.5 505,-0.5 410,-0.5"/>
<text text-anchor="middle" x="457.5" y="-7.5" font-family="Helvetica,sans-Serif" font-size="10.00">KOmegaSST.cpp</text>
</a>
</g>
</g>
<!-- Node2&#45;&gt;Node5 -->
<g id="edge5" class="edge">
<title>Node2&#45;&gt;Node5</title>
<path fill="none" stroke="midnightblue" d="M125.21,-104.52C139.73,-89.36 163.36,-67.54 188.5,-56 227.07,-38.3 343.51,-23.32 409.86,-15.94"/>
<polygon fill="midnightblue" stroke="midnightblue" points="122.36,-102.44 118.12,-112.15 127.49,-107.2 122.36,-102.44"/>
</g>
<!-- Node6 -->
<g id="node6" class="node">
<title>Node6</title>
<g id="a_node6"><a xlink:href="_k_omega_s_s_t_i_8_h.html" target="_top" xlink:title=" ">
<polygon fill="white" stroke="black" points="332,-56.5 332,-75.5 421,-75.5 421,-56.5 332,-56.5"/>
<text text-anchor="middle" x="376.5" y="-63.5" font-family="Helvetica,sans-Serif" font-size="10.00">KOmegaSSTI.H</text>
</a>
</g>
</g>
<!-- Node2&#45;&gt;Node6 -->
<g id="edge6" class="edge">
<title>Node2&#45;&gt;Node6</title>
<path fill="none" stroke="midnightblue" d="M144.26,-111.97C215.28,-95.63 286.66,-82.51 331.62,-74.63"/>
<polygon fill="midnightblue" stroke="midnightblue" points="143.19,-108.62 134.24,-114.3 144.77,-115.44 143.19,-108.62"/>
</g>
<!-- Node7 -->
<g id="node7" class="node">
<title>Node7</title>
<g id="a_node7"><a xlink:href="_k_omega_s_s_t_i_d_d_e_s_8cpp.html" target="_top" xlink:title=" ">
<polygon fill="white" stroke="black" points="213.5,-0.5 213.5,-19.5 339.5,-19.5 339.5,-0.5 213.5,-0.5"/>
<text text-anchor="middle" x="276.5" y="-7.5" font-family="Helvetica,sans-Serif" font-size="10.00">KOmegaSSTIDDES.cpp</text>
</a>
</g>
</g>
<!-- Node2&#45;&gt;Node7 -->
<g id="edge9" class="edge">
<title>Node2&#45;&gt;Node7</title>
<path fill="none" stroke="midnightblue" d="M118.97,-103.15C126.67,-88.64 139.3,-68.59 155.5,-56 179.04,-37.71 210.78,-26.28 235.84,-19.51"/>
<polygon fill="midnightblue" stroke="midnightblue" points="115.81,-101.64 114.44,-112.14 122.07,-104.79 115.81,-101.64"/>
</g>
<!-- Node4&#45;&gt;Node3 -->
<g id="edge4" class="edge">
<title>Node4&#45;&gt;Node3</title>
<path fill="none" stroke="midnightblue" d="M42.68,-47.27C47.97,-38.05 54.22,-27.17 58.48,-19.75"/>
<polygon fill="midnightblue" stroke="midnightblue" points="39.56,-45.67 37.62,-56.08 45.63,-49.15 39.56,-45.67"/>
</g>
<!-- Node6&#45;&gt;Node5 -->
<g id="edge7" class="edge">
<title>Node6&#45;&gt;Node5</title>
<path fill="none" stroke="midnightblue" d="M398.07,-50.62C412.86,-40.76 432.01,-27.99 444.52,-19.65"/>
<polygon fill="midnightblue" stroke="midnightblue" points="395.89,-47.86 389.51,-56.32 399.78,-53.69 395.89,-47.86"/>
</g>
<!-- Node6&#45;&gt;Node7 -->
<g id="edge8" class="edge">
<title>Node6&#45;&gt;Node7</title>
<path fill="none" stroke="midnightblue" d="M351.41,-51.45C332.95,-41.48 308.4,-28.23 292.53,-19.65"/>
<polygon fill="midnightblue" stroke="midnightblue" points="349.97,-54.65 360.43,-56.32 353.3,-48.49 349.97,-54.65"/>
</g>
<!-- Node8&#45;&gt;Node5 -->
<g id="edge16" class="edge">
<title>Node8&#45;&gt;Node5</title>
<path fill="none" stroke="midnightblue" d="M514.77,-103.64C500,-79.74 473.96,-37.63 462.81,-19.59"/>
<polygon fill="midnightblue" stroke="midnightblue" points="511.93,-105.7 520.16,-112.37 517.88,-102.02 511.93,-105.7"/>
</g>
<!-- Node8&#45;&gt;Node6 -->
<g id="edge17" class="edge">
<title>Node8&#45;&gt;Node6</title>
<path fill="none" stroke="midnightblue" d="M492.47,-109.03C464.48,-98.89 425.02,-84.59 400.11,-75.56"/>
<polygon fill="midnightblue" stroke="midnightblue" points="491.62,-112.45 502.22,-112.56 494.01,-105.86 491.62,-112.45"/>
</g>
<!-- Node8&#45;&gt;Node7 -->
<g id="edge18" class="edge">
<title>Node8&#45;&gt;Node7</title>
<path fill="none" stroke="midnightblue" d="M507.28,-105.93C488.9,-91.37 459.22,-69.6 430.5,-56 394.37,-38.9 350.36,-26.83 318.65,-19.52"/>
<polygon fill="midnightblue" stroke="midnightblue" points="505.36,-108.87 515.34,-112.42 509.75,-103.42 505.36,-108.87"/>
</g>
<!-- Node9 -->
<g id="node9" class="node">
<title>Node9</title>
<g id="a_node9"><a xlink:href="_t_k_e_8cpp.html" target="_top" xlink:title=" ">
<polygon fill="white" stroke="black" points="565.5,-0.5 565.5,-19.5 621.5,-19.5 621.5,-0.5 565.5,-0.5"/>
<text text-anchor="middle" x="593.5" y="-7.5" font-family="Helvetica,sans-Serif" font-size="10.00">TKE.cpp</text>
</a>
</g>
</g>
<!-- Node8&#45;&gt;Node9 -->
<g id="edge12" class="edge">
<title>Node8&#45;&gt;Node9</title>
<path fill="none" stroke="midnightblue" d="M536.23,-103.64C551,-79.74 577.04,-37.63 588.19,-19.59"/>
<polygon fill="midnightblue" stroke="midnightblue" points="533.12,-102.02 530.84,-112.37 539.07,-105.7 533.12,-102.02"/>
</g>
<!-- Node8&#45;&gt;Node10 -->
<g id="edge13" class="edge">
<title>Node8&#45;&gt;Node10</title>
<path fill="none" stroke="midnightblue" d="M558.54,-112.46C597.82,-102.31 662.95,-85.49 702,-75.4"/>
<polygon fill="midnightblue" stroke="midnightblue" points="557.47,-109.12 548.67,-115.01 559.22,-115.9 557.47,-109.12"/>
</g>
<!-- Node11 -->
<g id="node11" class="node">
<title>Node11</title>
<g id="a_node11"><a xlink:href="_one_eq_ksgs_8cpp.html" target="_top" xlink:title=" ">
<polygon fill="white" stroke="black" points="591.5,-56.5 591.5,-75.5 683.5,-75.5 683.5,-56.5 591.5,-56.5"/>
<text text-anchor="middle" x="637.5" y="-63.5" font-family="Helvetica,sans-Serif" font-size="10.00">OneEqKsgs.cpp</text>
</a>
</g>
</g>
<!-- Node8&#45;&gt;Node11 -->
<g id="edge15" class="edge">
<title>Node8&#45;&gt;Node11</title>
<path fill="none" stroke="midnightblue" d="M552.75,-107.86C573.52,-97.85 601.52,-84.35 619.55,-75.65"/>
<polygon fill="midnightblue" stroke="midnightblue" points="550.98,-104.83 543.49,-112.32 554.02,-111.13 550.98,-104.83"/>
</g>
<!-- Node10&#45;&gt;Node9 -->
<g id="edge14" class="edge">
<title>Node10&#45;&gt;Node9</title>
<path fill="none" stroke="midnightblue" d="M702.57,-52.77C676.09,-42.63 639.11,-28.47 615.74,-19.52"/>
<polygon fill="midnightblue" stroke="midnightblue" points="701.57,-56.14 712.16,-56.44 704.07,-49.6 701.57,-56.14"/>
</g>
<!-- Node15 -->
<g id="node15" class="node">
<title>Node15</title>
<g id="a_node15"><a xlink:href="_h_o_s_waves_8cpp.html" target="_top" xlink:title=" ">
<polygon fill="white" stroke="black" points="152.5,-112.5 152.5,-131.5 242.5,-131.5 242.5,-112.5 152.5,-112.5"/>
<text text-anchor="middle" x="197.5" y="-119.5" font-family="Helvetica,sans-Serif" font-size="10.00">HOSWaves.cpp</text>
</a>
</g>
</g>
<!-- Node14&#45;&gt;Node15 -->
<g id="edge23" class="edge">
<title>Node14&#45;&gt;Node15</title>
<path fill="none" stroke="midnightblue" d="M192.7,-163.82C193.97,-153 195.51,-139.9 196.5,-131.51"/>
<polygon fill="midnightblue" stroke="midnightblue" points="189.2,-163.63 191.5,-173.98 196.15,-164.45 189.2,-163.63"/>
</g>
<!-- Node26 -->
<g id="node26" class="node">
<title>Node26</title>
<g id="a_node26"><a xlink:href="_one_eq_ksgs_8_h.html" target="_top" xlink:title=" ">
<polygon fill="white" stroke="black" points="581.5,-112.5 581.5,-131.5 663.5,-131.5 663.5,-112.5 581.5,-112.5"/>
<text text-anchor="middle" x="622.5" y="-119.5" font-family="Helvetica,sans-Serif" font-size="10.00">OneEqKsgs.H</text>
</a>
</g>
</g>
<!-- Node25&#45;&gt;Node26 -->
<g id="edge34" class="edge">
<title>Node25&#45;&gt;Node26</title>
<path fill="none" stroke="midnightblue" d="M610.74,-164.16C613.85,-153.27 617.65,-139.99 620.07,-131.51"/>
<polygon fill="midnightblue" stroke="midnightblue" points="607.32,-163.4 607.94,-173.98 614.05,-165.32 607.32,-163.4"/>
</g>
<!-- Node27 -->
<g id="node27" class="node">
<title>Node27</title>
<g id="a_node27"><a xlink:href="_smagorinsky_8_h.html" target="_top" xlink:title=" ">
<polygon fill="white" stroke="black" points="1862,-112.5 1862,-131.5 1951,-131.5 1951,-112.5 1862,-112.5"/>
<text text-anchor="middle" x="1906.5" y="-119.5" font-family="Helvetica,sans-Serif" font-size="10.00">Smagorinsky.H</text>
</a>
</g>
</g>
<!-- Node25&#45;&gt;Node27 -->
<g id="edge36" class="edge">
<title>Node25&#45;&gt;Node27</title>
<path fill="none" stroke="midnightblue" d="M645.83,-171.58C652.37,-170.15 659.09,-168.88 665.5,-168 903.64,-135.25 1668.57,-125.41 1861.82,-123.42"/>
<polygon fill="midnightblue" stroke="midnightblue" points="644.74,-168.24 635.8,-173.93 646.33,-175.06 644.74,-168.24"/>
</g>
<!-- Node29 -->
<g id="node29" class="node">
<title>Node29</title>
<g id="a_node29"><a xlink:href="_k_omega_s_s_t_8_h.html" target="_top" xlink:title=" ">
<polygon fill="white" stroke="black" points="365.5,-112.5 365.5,-131.5 451.5,-131.5 451.5,-112.5 365.5,-112.5"/>
<text text-anchor="middle" x="408.5" y="-119.5" font-family="Helvetica,sans-Serif" font-size="10.00">KOmegaSST.H</text>
</a>
</g>
</g>
<!-- Node25&#45;&gt;Node29 -->
<g id="edge38" class="edge">
<title>Node25&#45;&gt;Node29</title>
<path fill="none" stroke="midnightblue" d="M567.52,-171.03C529.23,-159.46 471.03,-141.88 436.67,-131.51"/>
<polygon fill="midnightblue" stroke="midnightblue" points="566.69,-174.43 577.27,-173.98 568.71,-167.73 566.69,-174.43"/>
</g>
<!-- Node26&#45;&gt;Node11 -->
<g id="edge35" class="edge">
<title>Node26&#45;&gt;Node11</title>
<path fill="none" stroke="midnightblue" d="M627.67,-102.4C630.18,-93.36 633.07,-82.94 635.07,-75.75"/>
<polygon fill="midnightblue" stroke="midnightblue" points="624.28,-101.51 624.98,-112.08 631.03,-103.38 624.28,-101.51"/>
</g>
<!-- Node28 -->
<g id="node28" class="node">
<title>Node28</title>
<g id="a_node28"><a xlink:href="_smagorinsky_8cpp.html" target="_top" xlink:title=" ">
<polygon fill="white" stroke="black" points="1857.5,-56.5 1857.5,-75.5 1955.5,-75.5 1955.5,-56.5 1857.5,-56.5"/>
<text text-anchor="middle" x="1906.5" y="-63.5" font-family="Helvetica,sans-Serif" font-size="10.00">Smagorinsky.cpp</text>
</a>
</g>
</g>
<!-- Node27&#45;&gt;Node28 -->
<g id="edge37" class="edge">
<title>Node27&#45;&gt;Node28</title>
<path fill="none" stroke="midnightblue" d="M1906.5,-101.8C1906.5,-92.91 1906.5,-82.78 1906.5,-75.75"/>
<polygon fill="midnightblue" stroke="midnightblue" points="1903,-102.08 1906.5,-112.08 1910,-102.08 1903,-102.08"/>
</g>
<!-- Node29&#45;&gt;Node5 -->
<g id="edge39" class="edge">
<title>Node29&#45;&gt;Node5</title>
<path fill="none" stroke="midnightblue" d="M417.41,-103.42C421.51,-95.15 426.38,-85.13 430.5,-76 439.45,-56.18 449.01,-32.5 454,-19.9"/>
<polygon fill="midnightblue" stroke="midnightblue" points="414.23,-101.94 412.87,-112.45 420.49,-105.08 414.23,-101.94"/>
</g>
<!-- Node29&#45;&gt;Node6 -->
<g id="edge40" class="edge">
<title>Node29&#45;&gt;Node6</title>
<path fill="none" stroke="midnightblue" d="M398,-103.27C392.53,-94.05 386.08,-83.17 381.69,-75.75"/>
<polygon fill="midnightblue" stroke="midnightblue" points="395.11,-105.26 403.22,-112.08 401.13,-101.7 395.11,-105.26"/>
</g>
<!-- Node30 -->
<g id="node30" class="node">
<title>Node30</title>
<g id="a_node30"><a xlink:href="_k_omega_s_s_t_i_d_d_e_s_8_h.html" target="_top" xlink:title=" ">
<polygon fill="white" stroke="black" points="197.5,-56.5 197.5,-75.5 313.5,-75.5 313.5,-56.5 197.5,-56.5"/>
<text text-anchor="middle" x="255.5" y="-63.5" font-family="Helvetica,sans-Serif" font-size="10.00">KOmegaSSTIDDES.H</text>
</a>
</g>
</g>
<!-- Node29&#45;&gt;Node30 -->
<g id="edge41" class="edge">
<title>Node29&#45;&gt;Node30</title>
<path fill="none" stroke="midnightblue" d="M374.61,-109.04C345.82,-98.88 305.21,-84.55 279.63,-75.52"/>
<polygon fill="midnightblue" stroke="midnightblue" points="373.66,-112.42 384.26,-112.44 375.99,-105.81 373.66,-112.42"/>
</g>
<!-- Node30&#45;&gt;Node7 -->
<g id="edge42" class="edge">
<title>Node30&#45;&gt;Node7</title>
<path fill="none" stroke="midnightblue" d="M262.62,-46.69C266.16,-37.59 270.27,-27.01 273.1,-19.75"/>
<polygon fill="midnightblue" stroke="midnightblue" points="259.33,-45.49 258.97,-56.08 265.85,-48.03 259.33,-45.49"/>
</g>
</g>
</svg>
        <g id="navigator" transform="translate(0 0)" fill="#404254">
                <rect fill="#f2f5e9" fill-opacity="0.5" stroke="#606060" stroke-width=".5" x="0" y="0" width="60" height="60"/>
                <use id="zoomplus" xlink:href="#zoomPlus" x="17" y="9" onmousedown="handleZoom(evt,'in')"/>
                <use id="zoomminus" xlink:href="#zoomMin" x="42" y="9" onmousedown="handleZoom(evt,'out')"/>
                <use id="reset" xlink:href="#resetDef" x="30" y="36" onmousedown="handleReset()"/>
                <g id="arrowUp" xlink:href="#dirArrow" transform="translate(30 24)" onmousedown="handlePan(0,-1)">
                  <use xlink:href="#rim" fill="#404040">
                        <set attributeName="fill" to="#808080" begin="arrowUp.mouseover" end="arrowUp.mouseout"/>
                  </use>
                  <path fill="none" stroke="white" stroke-width="1.5" d="M0,-3.0v7 M-2.5,-0.5L0,-3.0L2.5,-0.5"/>
                </g>
                <g id="arrowRight" xlink:href="#dirArrow" transform="rotate(90) translate(36 -43)" onmousedown="handlePan(1,0)">
                  <use xlink:href="#rim" fill="#404040">
                        <set attributeName="fill" to="#808080" begin="arrowRight.mouseover" end="arrowRight.mouseout"/>
                  </use>
                  <path fill="none" stroke="white" stroke-width="1.5" d="M0,-3.0v7 M-2.5,-0.5L0,-3.0L2.5,-0.5"/>
                </g>
                <g id="arrowDown" xlink:href="#dirArrow" transform="rotate(180) translate(-30 -48)" onmousedown="handlePan(0,1)">
                  <use xlink:href="#rim" fill="#404040">
                        <set attributeName="fill" to="#808080" begin="arrowDown.mouseover" end="arrowDown.mouseout"/>
                  </use>
                  <path fill="none" stroke="white" stroke-width="1.5" d="M0,-3.0v7 M-2.5,-0.5L0,-3.0L2.5,-0.5"/>
                </g>
                <g id="arrowLeft" xlink:href="#dirArrow" transform="rotate(270) translate(-36 17)" onmousedown="handlePan(-1,0)">
                  <use xlink:href="#rim" fill="#404040">
                        <set attributeName="fill" to="#808080" begin="arrowLeft.mouseover" end="arrowLeft.mouseout"/>
                  </use>
                  <path fill="none" stroke="white" stroke-width="1.5" d="M0,-3.0v7 M-2.5,-0.5L0,-3.0L2.5,-0.5"/>
                </g>
        </g>
        <svg viewBox="0 0 15 15" width="100%" height="30px" preserveAspectRatio="xMaxYMin meet">
         <g id="arrow_out" transform="scale(0.3 0.3)">
          <a xlink:href="field__ops_8_h__dep__incl_org.svg" target="_base">
           <rect id="button" ry="5" rx="5" y="6" x="6" height="38" width="38"
                fill="#f2f5e9" fill-opacity="0.5" stroke="#606060" stroke-width="1.0"/>
           <path id="arrow"
             d="M 11.500037,31.436501 C 11.940474,20.09759 22.043105,11.32322 32.158766,21.979434 L 37.068811,17.246167 C 37.068811,17.246167 37.088388,32 37.088388,32 L 22.160133,31.978069 C 22.160133,31.978069 26.997745,27.140456 26.997745,27.140456 C 18.528582,18.264221 13.291696,25.230495 11.500037,31.436501 z"
             style="fill:#404040;"/>
          </a>
         </g>
        </svg>
</svg>
