<?xml version="1.0" encoding="UTF-8" standalone="no"?>
<!DOCTYPE svg PUBLIC "-//W3C//DTD SVG 1.1//EN"
 "http://www.w3.org/Graphics/SVG/1.1/DTD/svg11.dtd">
<!-- Generated by graphviz version 2.43.0 (0)
 -->
<!-- Title: helics.H Pages: 1 -->
<!--zoomable 196 -->
<svg id="main" version="1.1" xmlns="http://www.w3.org/2000/svg" xmlns:xlink="http://www.w3.org/1999/xlink" xml:space="preserve" onload="init(evt)">
<style type="text/css"><![CDATA[
.edge:hover path { stroke: red; }
.edge:hover polygon { stroke: red; fill: red; }
]]></style>
<script type="text/javascript"><![CDATA[
var edges = document.getElementsByTagName('g');
if (edges && edges.length) {
  for (var i=0;i<edges.length;i++) {
    if (edges[i].id.substr(0,4)=='edge') {
      edges[i].setAttribute('class','edge');
    }
  }
}
]]></script>
        <defs>
                <circle id="rim" cx="0" cy="0" r="7"/>
                <circle id="rim2" cx="0" cy="0" r="3.5"/>
                <g id="zoomPlus">
                        <use xlink:href="#rim" fill="#404040">
                                <set attributeName="fill" to="#808080" begin="zoomplus.mouseover" end="zoomplus.mouseout"/>
                        </use>
                        <path d="M-4,0h8M0,-4v8" fill="none" stroke="white" stroke-width="1.5" pointer-events="none"/>
                </g>
                <g id="zoomMin">
                        <use xlink:href="#rim" fill="#404040">
                                <set attributeName="fill" to="#808080" begin="zoomminus.mouseover" end="zoomminus.mouseout"/>
                        </use>
                        <path d="M-4,0h8" fill="none" stroke="white" stroke-width="1.5" pointer-events="none"/>
                </g>
                <g id="dirArrow">
                        <path fill="none" stroke="white" stroke-width="1.5" d="M0,-3.0v7 M-2.5,-0.5L0,-3.0L2.5,-0.5"/>
                </g>
               <g id="resetDef">
                       <use xlink:href="#rim2" fill="#404040">
                               <set attributeName="fill" to="#808080" begin="reset.mouseover" end="reset.mouseout"/>
                       </use>
               </g>
        </defs>

<script type="text/javascript">
var viewWidth = 5041;
var viewHeight = 196;
var sectionId = 'dynsection-1';
</script>
<script xlink:href="svgpan.js"/>
<svg id="graph" class="graph">
<g id="viewport">
<title>helics.H</title>
<polygon fill="white" stroke="transparent" points="-4,4 -4,-192 5036.5,-192 5036.5,4 -4,4"/>
<!-- Node1 -->
<g id="node1" class="node">
<title>Node1</title>
<g id="a_node1"><a xlink:title=" ">
<polygon fill="#bfbfbf" stroke="black" points="2559,-168.5 2559,-187.5 2615,-187.5 2615,-168.5 2559,-168.5"/>
<text text-anchor="middle" x="2587" y="-175.5" font-family="Helvetica,sans-Serif" font-size="10.00">helics.H</text>
</a>
</g>
</g>
<!-- Node2 -->
<g id="node2" class="node">
<title>Node2</title>
<g id="a_node2"><a xlink:href="_c_f_d_sim_8_h.html" target="_top" xlink:title=" ">
<polygon fill="white" stroke="red" points="2554,-112.5 2554,-131.5 2620,-131.5 2620,-112.5 2554,-112.5"/>
<text text-anchor="middle" x="2587" y="-119.5" font-family="Helvetica,sans-Serif" font-size="10.00">CFDSim.H</text>
</a>
</g>
</g>
<!-- Node1&#45;&gt;Node2 -->
<g id="edge1" class="edge">
<title>Node1&#45;&gt;Node2</title>
<path fill="none" stroke="midnightblue" d="M2580.53,-158.1C2579.9,-149.14 2580.34,-138.86 2581.87,-131.75"/>
<polygon fill="midnightblue" stroke="midnightblue" points="2577.07,-158.62 2581.83,-168.08 2584.01,-157.71 2577.07,-158.62"/>
</g>
<!-- Node151 -->
<g id="node50" class="node">
<title>Node151</title>
<g id="a_node50"><a xlink:href="helics_8cpp.html" target="_top" xlink:title=" ">
<polygon fill="white" stroke="black" points="2638.5,-112.5 2638.5,-131.5 2703.5,-131.5 2703.5,-112.5 2638.5,-112.5"/>
<text text-anchor="middle" x="2671" y="-119.5" font-family="Helvetica,sans-Serif" font-size="10.00">helics.cpp</text>
</a>
</g>
</g>
<!-- Node1&#45;&gt;Node151 -->
<g id="edge56" class="edge">
<title>Node1&#45;&gt;Node151</title>
<path fill="none" stroke="midnightblue" d="M2608.93,-162.9C2624.34,-153 2644.45,-140.07 2657.54,-131.65"/>
<polygon fill="midnightblue" stroke="midnightblue" points="2607.02,-159.97 2600.5,-168.32 2610.8,-165.86 2607.02,-159.97"/>
</g>
<!-- Node2&#45;&gt;Node1 -->
<g id="edge22" class="edge">
<title>Node2&#45;&gt;Node1</title>
<path fill="none" stroke="midnightblue" d="M2593.46,-141.69C2594.11,-150.64 2593.68,-160.93 2592.17,-168.08"/>
<polygon fill="midnightblue" stroke="midnightblue" points="2596.92,-141.2 2592.13,-131.75 2589.98,-142.13 2596.92,-141.2"/>
</g>
<!-- Node3 -->
<g id="node3" class="node">
<title>Node3</title>
<g id="a_node3"><a xlink:href="_c_f_d_sim_8cpp.html" target="_top" xlink:title=" ">
<polygon fill="white" stroke="black" points="0,-56.5 0,-75.5 76,-75.5 76,-56.5 0,-56.5"/>
<text text-anchor="middle" x="38" y="-63.5" font-family="Helvetica,sans-Serif" font-size="10.00">CFDSim.cpp</text>
</a>
</g>
</g>
<!-- Node2&#45;&gt;Node3 -->
<g id="edge2" class="edge">
<title>Node2&#45;&gt;Node3</title>
<path fill="none" stroke="midnightblue" d="M2543.25,-120.67C2230.43,-118.21 338.56,-102.36 85,-76 82.11,-75.7 79.13,-75.31 76.14,-74.87"/>
<polygon fill="midnightblue" stroke="midnightblue" points="2543.68,-124.17 2553.71,-120.75 2543.74,-117.17 2543.68,-124.17"/>
</g>
<!-- Node4 -->
<g id="node4" class="node">
<title>Node4</title>
<g id="a_node4"><a xlink:href="_mesh_map_8cpp.html" target="_top" xlink:title=" ">
<polygon fill="white" stroke="black" points="94,-56.5 94,-75.5 178,-75.5 178,-56.5 94,-56.5"/>
<text text-anchor="middle" x="136" y="-63.5" font-family="Helvetica,sans-Serif" font-size="10.00">MeshMap.cpp</text>
</a>
</g>
</g>
<!-- Node2&#45;&gt;Node4 -->
<g id="edge3" class="edge">
<title>Node2&#45;&gt;Node4</title>
<path fill="none" stroke="midnightblue" d="M2543.63,-121.11C2260.32,-121.7 669.99,-122.86 187,-76 184.14,-75.72 181.19,-75.37 178.23,-74.98"/>
<polygon fill="midnightblue" stroke="midnightblue" points="2543.91,-124.61 2553.91,-121.09 2543.9,-117.61 2543.91,-124.61"/>
</g>
<!-- Node5 -->
<g id="node5" class="node">
<title>Node5</title>
<g id="a_node5"><a xlink:href="_a_b_l_forcing_8cpp.html" target="_top" xlink:title=" ">
<polygon fill="white" stroke="black" points="196.5,-56.5 196.5,-75.5 287.5,-75.5 287.5,-56.5 196.5,-56.5"/>
<text text-anchor="middle" x="242" y="-63.5" font-family="Helvetica,sans-Serif" font-size="10.00">ABLForcing.cpp</text>
</a>
</g>
</g>
<!-- Node2&#45;&gt;Node5 -->
<g id="edge4" class="edge">
<title>Node2&#45;&gt;Node5</title>
<path fill="none" stroke="midnightblue" d="M2543.48,-120.99C2267.42,-120.82 756.9,-117.93 297,-76 293.92,-75.72 290.74,-75.37 287.55,-74.97"/>
<polygon fill="midnightblue" stroke="midnightblue" points="2543.88,-124.49 2553.88,-121 2543.88,-117.49 2543.88,-124.49"/>
</g>
<!-- Node6 -->
<g id="node6" class="node">
<title>Node6</title>
<g id="a_node6"><a xlink:href="_a_b_l_mean_boussinesq_8cpp.html" target="_top" xlink:title=" ">
<polygon fill="white" stroke="black" points="306,-56.5 306,-75.5 444,-75.5 444,-56.5 306,-56.5"/>
<text text-anchor="middle" x="375" y="-63.5" font-family="Helvetica,sans-Serif" font-size="10.00">ABLMeanBoussinesq.cpp</text>
</a>
</g>
</g>
<!-- Node2&#45;&gt;Node6 -->
<g id="edge5" class="edge">
<title>Node2&#45;&gt;Node6</title>
<path fill="none" stroke="midnightblue" d="M2543.58,-120.64C2279,-118.37 880.79,-105.13 453,-76 450.14,-75.81 447.23,-75.58 444.29,-75.34"/>
<polygon fill="midnightblue" stroke="midnightblue" points="2543.89,-124.14 2553.92,-120.73 2543.95,-117.14 2543.89,-124.14"/>
</g>
<!-- Node7 -->
<g id="node7" class="node">
<title>Node7</title>
<g id="a_node7"><a xlink:href="_actuator_forcing_8cpp.html" target="_top" xlink:title=" ">
<polygon fill="white" stroke="black" points="462.5,-56.5 462.5,-75.5 575.5,-75.5 575.5,-56.5 462.5,-56.5"/>
<text text-anchor="middle" x="519" y="-63.5" font-family="Helvetica,sans-Serif" font-size="10.00">ActuatorForcing.cpp</text>
</a>
</g>
</g>
<!-- Node2&#45;&gt;Node7 -->
<g id="edge6" class="edge">
<title>Node2&#45;&gt;Node7</title>
<path fill="none" stroke="midnightblue" d="M2543.47,-120.69C2288.32,-118.79 984.53,-107.63 585,-76 582,-75.76 578.93,-75.48 575.84,-75.17"/>
<polygon fill="midnightblue" stroke="midnightblue" points="2543.78,-124.19 2553.8,-120.77 2543.83,-117.19 2543.78,-124.19"/>
</g>
<!-- Node8 -->
<g id="node8" class="node">
<title>Node8</title>
<g id="a_node8"><a xlink:href="_body_force_8cpp.html" target="_top" xlink:title=" ">
<polygon fill="white" stroke="black" points="594,-56.5 594,-75.5 682,-75.5 682,-56.5 594,-56.5"/>
<text text-anchor="middle" x="638" y="-63.5" font-family="Helvetica,sans-Serif" font-size="10.00">BodyForce.cpp</text>
</a>
</g>
</g>
<!-- Node2&#45;&gt;Node8 -->
<g id="edge7" class="edge">
<title>Node2&#45;&gt;Node8</title>
<path fill="none" stroke="midnightblue" d="M2543.79,-120.82C2297.43,-119.69 1067.82,-112.27 691,-76 688.12,-75.72 685.16,-75.38 682.18,-74.99"/>
<polygon fill="midnightblue" stroke="midnightblue" points="2543.78,-124.32 2553.8,-120.87 2543.81,-117.32 2543.78,-124.32"/>
</g>
<!-- Node9 -->
<g id="node9" class="node">
<title>Node9</title>
<g id="a_node9"><a xlink:href="_boussinesq_buoyancy_8cpp.html" target="_top" xlink:title=" ">
<polygon fill="white" stroke="black" points="700.5,-56.5 700.5,-75.5 839.5,-75.5 839.5,-56.5 700.5,-56.5"/>
<text text-anchor="middle" x="770" y="-63.5" font-family="Helvetica,sans-Serif" font-size="10.00">BoussinesqBuoyancy.cpp</text>
</a>
</g>
</g>
<!-- Node2&#45;&gt;Node9 -->
<g id="edge8" class="edge">
<title>Node2&#45;&gt;Node9</title>
<path fill="none" stroke="midnightblue" d="M2543.6,-121.3C2347.25,-122.35 1522.47,-123.54 848,-76 845.28,-75.81 842.51,-75.59 839.71,-75.36"/>
<polygon fill="midnightblue" stroke="midnightblue" points="2543.81,-124.8 2553.79,-121.24 2543.77,-117.8 2543.81,-124.8"/>
</g>
<!-- Node10 -->
<g id="node10" class="node">
<title>Node10</title>
<g id="a_node10"><a xlink:href="_coriolis_forcing_8cpp.html" target="_top" xlink:title=" ">
<polygon fill="white" stroke="black" points="857.5,-56.5 857.5,-75.5 966.5,-75.5 966.5,-56.5 857.5,-56.5"/>
<text text-anchor="middle" x="912" y="-63.5" font-family="Helvetica,sans-Serif" font-size="10.00">CoriolisForcing.cpp</text>
</a>
</g>
</g>
<!-- Node2&#45;&gt;Node10 -->
<g id="edge9" class="edge">
<title>Node2&#45;&gt;Node10</title>
<path fill="none" stroke="midnightblue" d="M2543.71,-120.46C2319.94,-117.57 1292.51,-103.02 975,-76 972.25,-75.77 969.43,-75.49 966.59,-75.19"/>
<polygon fill="midnightblue" stroke="midnightblue" points="2543.71,-123.96 2553.76,-120.59 2543.8,-116.96 2543.71,-123.96"/>
</g>
<!-- Node11 -->
<g id="node11" class="node">
<title>Node11</title>
<g id="a_node11"><a xlink:href="_density_buoyancy_8cpp.html" target="_top" xlink:title=" ">
<polygon fill="white" stroke="black" points="984.5,-56.5 984.5,-75.5 1105.5,-75.5 1105.5,-56.5 984.5,-56.5"/>
<text text-anchor="middle" x="1045" y="-63.5" font-family="Helvetica,sans-Serif" font-size="10.00">DensityBuoyancy.cpp</text>
</a>
</g>
</g>
<!-- Node2&#45;&gt;Node11 -->
<g id="edge10" class="edge">
<title>Node2&#45;&gt;Node11</title>
<path fill="none" stroke="midnightblue" d="M2543.5,-121.24C2365.78,-121.91 1677.57,-121.25 1114,-76 1111.23,-75.78 1108.4,-75.52 1105.55,-75.24"/>
<polygon fill="midnightblue" stroke="midnightblue" points="2543.76,-124.74 2553.75,-121.2 2543.73,-117.74 2543.76,-124.74"/>
</g>
<!-- Node12 -->
<g id="node12" class="node">
<title>Node12</title>
<g id="a_node12"><a xlink:href="_geostrophic_forcing_8cpp.html" target="_top" xlink:title=" ">
<polygon fill="white" stroke="black" points="1123.5,-56.5 1123.5,-75.5 1254.5,-75.5 1254.5,-56.5 1123.5,-56.5"/>
<text text-anchor="middle" x="1189" y="-63.5" font-family="Helvetica,sans-Serif" font-size="10.00">GeostrophicForcing.cpp</text>
</a>
</g>
</g>
<!-- Node2&#45;&gt;Node12 -->
<g id="edge11" class="edge">
<title>Node2&#45;&gt;Node12</title>
<path fill="none" stroke="midnightblue" d="M2543.68,-120.87C2377.63,-120.09 1765.98,-114.58 1264,-76 1260.99,-75.77 1257.92,-75.51 1254.82,-75.22"/>
<polygon fill="midnightblue" stroke="midnightblue" points="2543.95,-124.37 2553.96,-120.91 2543.98,-117.37 2543.95,-124.37"/>
</g>
<!-- Node13 -->
<g id="node13" class="node">
<title>Node13</title>
<g id="a_node13"><a xlink:href="_gravity_forcing_8cpp.html" target="_top" xlink:title=" ">
<polygon fill="white" stroke="black" points="1273,-56.5 1273,-75.5 1381,-75.5 1381,-56.5 1273,-56.5"/>
<text text-anchor="middle" x="1327" y="-63.5" font-family="Helvetica,sans-Serif" font-size="10.00">GravityForcing.cpp</text>
</a>
</g>
</g>
<!-- Node2&#45;&gt;Node13 -->
<g id="edge12" class="edge">
<title>Node2&#45;&gt;Node13</title>
<path fill="none" stroke="midnightblue" d="M2543.45,-121C2387.08,-120.66 1839.48,-116.44 1390,-76 1387.14,-75.74 1384.21,-75.44 1381.25,-75.12"/>
<polygon fill="midnightblue" stroke="midnightblue" points="2543.59,-124.5 2553.6,-121.02 2543.6,-117.5 2543.59,-124.5"/>
</g>
<!-- Node14 -->
<g id="node14" class="node">
<title>Node14</title>
<g id="a_node14"><a xlink:href="_hurricane_forcing_8cpp.html" target="_top" xlink:title=" ">
<polygon fill="white" stroke="black" points="1399.5,-56.5 1399.5,-75.5 1518.5,-75.5 1518.5,-56.5 1399.5,-56.5"/>
<text text-anchor="middle" x="1459" y="-63.5" font-family="Helvetica,sans-Serif" font-size="10.00">HurricaneForcing.cpp</text>
</a>
</g>
</g>
<!-- Node2&#45;&gt;Node14 -->
<g id="edge13" class="edge">
<title>Node2&#45;&gt;Node14</title>
<path fill="none" stroke="midnightblue" d="M2543.8,-120.51C2399.56,-118.61 1921.5,-109.96 1528,-76 1524.99,-75.74 1521.91,-75.45 1518.8,-75.12"/>
<polygon fill="midnightblue" stroke="midnightblue" points="2543.95,-124.02 2553.99,-120.65 2544.04,-117.02 2543.95,-124.02"/>
</g>
<!-- Node15 -->
<g id="node15" class="node">
<title>Node15</title>
<g id="a_node15"><a xlink:href="_synth_turb_forcing_8cpp.html" target="_top" xlink:title=" ">
<polygon fill="white" stroke="black" points="1537,-56.5 1537,-75.5 1657,-75.5 1657,-56.5 1537,-56.5"/>
<text text-anchor="middle" x="1597" y="-63.5" font-family="Helvetica,sans-Serif" font-size="10.00">SynthTurbForcing.cpp</text>
</a>
</g>
</g>
<!-- Node2&#45;&gt;Node15 -->
<g id="edge14" class="edge">
<title>Node2&#45;&gt;Node15</title>
<path fill="none" stroke="midnightblue" d="M2543.59,-119.98C2412.02,-116.64 2006.18,-104.58 1671,-76 1666.49,-75.62 1661.82,-75.17 1657.14,-74.68"/>
<polygon fill="midnightblue" stroke="midnightblue" points="2543.58,-123.48 2553.67,-120.23 2543.76,-116.48 2543.58,-123.48"/>
</g>
<!-- Node16 -->
<g id="node16" class="node">
<title>Node16</title>
<g id="a_node16"><a xlink:href="_p_d_e_8_h.html" target="_top" xlink:title=" ">
<polygon fill="white" stroke="red" points="1741.5,-0.5 1741.5,-19.5 1788.5,-19.5 1788.5,-0.5 1741.5,-0.5"/>
<text text-anchor="middle" x="1765" y="-7.5" font-family="Helvetica,sans-Serif" font-size="10.00">PDE.H</text>
</a>
</g>
</g>
<!-- Node2&#45;&gt;Node16 -->
<g id="edge15" class="edge">
<title>Node2&#45;&gt;Node16</title>
<path fill="none" stroke="midnightblue" d="M2543.89,-120.43C2370.67,-117.95 1733.23,-106.75 1704,-76 1684.92,-55.92 1722.34,-32.14 1746.58,-19.65"/>
<polygon fill="midnightblue" stroke="midnightblue" points="2543.87,-123.93 2553.92,-120.58 2543.97,-116.93 2543.87,-123.93"/>
</g>
<!-- Node48 -->
<g id="node17" class="node">
<title>Node48</title>
<g id="a_node17"><a xlink:href="_p_d_e_base_8cpp.html" target="_top" xlink:title=" ">
<polygon fill="white" stroke="black" points="1713,-56.5 1713,-75.5 1793,-75.5 1793,-56.5 1713,-56.5"/>
<text text-anchor="middle" x="1753" y="-63.5" font-family="Helvetica,sans-Serif" font-size="10.00">PDEBase.cpp</text>
</a>
</g>
</g>
<!-- Node2&#45;&gt;Node48 -->
<g id="edge16" class="edge">
<title>Node2&#45;&gt;Node48</title>
<path fill="none" stroke="midnightblue" d="M2543.83,-120.41C2425.05,-118.37 2083.55,-109.79 1802,-76 1799.08,-75.65 1796.07,-75.23 1793.05,-74.78"/>
<polygon fill="midnightblue" stroke="midnightblue" points="2543.91,-123.91 2553.97,-120.57 2544.02,-116.91 2543.91,-123.91"/>
</g>
<!-- Node49 -->
<g id="node18" class="node">
<title>Node49</title>
<g id="a_node18"><a xlink:href="_p_d_e_ops_8_h.html" target="_top" xlink:title=" ">
<polygon fill="white" stroke="red" points="1811.5,-56.5 1811.5,-75.5 1876.5,-75.5 1876.5,-56.5 1811.5,-56.5"/>
<text text-anchor="middle" x="1844" y="-63.5" font-family="Helvetica,sans-Serif" font-size="10.00">PDEOps.H</text>
</a>
</g>
</g>
<!-- Node2&#45;&gt;Node49 -->
<g id="edge17" class="edge">
<title>Node2&#45;&gt;Node49</title>
<path fill="none" stroke="midnightblue" d="M2543.93,-120.43C2433.86,-118.51 2133.51,-110.27 1886,-76 1883.05,-75.59 1879.99,-75.09 1876.93,-74.54"/>
<polygon fill="midnightblue" stroke="midnightblue" points="2543.92,-123.93 2553.98,-120.6 2544.04,-116.93 2543.92,-123.93"/>
</g>
<!-- Node59 -->
<g id="node19" class="node">
<title>Node59</title>
<g id="a_node19"><a xlink:href="_s_d_r_src_8cpp.html" target="_top" xlink:title=" ">
<polygon fill="white" stroke="black" points="1895,-56.5 1895,-75.5 1967,-75.5 1967,-56.5 1895,-56.5"/>
<text text-anchor="middle" x="1931" y="-63.5" font-family="Helvetica,sans-Serif" font-size="10.00">SDRSrc.cpp</text>
</a>
</g>
</g>
<!-- Node2&#45;&gt;Node59 -->
<g id="edge19" class="edge">
<title>Node2&#45;&gt;Node59</title>
<path fill="none" stroke="midnightblue" d="M2543.68,-119.65C2443.41,-116.13 2187.72,-104.86 1976,-76 1973.16,-75.61 1970.23,-75.16 1967.28,-74.66"/>
<polygon fill="midnightblue" stroke="midnightblue" points="2543.62,-123.15 2553.73,-120 2543.86,-116.16 2543.62,-123.15"/>
</g>
<!-- Node60 -->
<g id="node20" class="node">
<title>Node60</title>
<g id="a_node20"><a xlink:href="_ksgs_m84_src_8cpp.html" target="_top" xlink:title=" ">
<polygon fill="white" stroke="black" points="1985,-56.5 1985,-75.5 2081,-75.5 2081,-56.5 1985,-56.5"/>
<text text-anchor="middle" x="2033" y="-63.5" font-family="Helvetica,sans-Serif" font-size="10.00">KsgsM84Src.cpp</text>
</a>
</g>
</g>
<!-- Node2&#45;&gt;Node60 -->
<g id="edge20" class="edge">
<title>Node2&#45;&gt;Node60</title>
<path fill="none" stroke="midnightblue" d="M2543.54,-118.04C2457.02,-111.93 2257.14,-96.74 2090,-76 2087.12,-75.64 2084.16,-75.25 2081.17,-74.84"/>
<polygon fill="midnightblue" stroke="midnightblue" points="2543.55,-121.55 2553.77,-118.76 2544.04,-114.56 2543.55,-121.55"/>
</g>
<!-- Node61 -->
<g id="node21" class="node">
<title>Node61</title>
<g id="a_node21"><a xlink:href="_kw_s_s_t_src_8cpp.html" target="_top" xlink:title=" ">
<polygon fill="white" stroke="black" points="2099.5,-56.5 2099.5,-75.5 2184.5,-75.5 2184.5,-56.5 2099.5,-56.5"/>
<text text-anchor="middle" x="2142" y="-63.5" font-family="Helvetica,sans-Serif" font-size="10.00">KwSSTSrc.cpp</text>
</a>
</g>
</g>
<!-- Node2&#45;&gt;Node61 -->
<g id="edge21" class="edge">
<title>Node2&#45;&gt;Node61</title>
<path fill="none" stroke="midnightblue" d="M2543.83,-116.94C2471.22,-109.91 2320.12,-94.46 2193,-76 2190.24,-75.6 2187.4,-75.16 2184.55,-74.71"/>
<polygon fill="midnightblue" stroke="midnightblue" points="2543.67,-120.44 2553.96,-117.91 2544.34,-113.47 2543.67,-120.44"/>
</g>
<!-- Node62 -->
<g id="node22" class="node">
<title>Node62</title>
<g id="a_node22"><a xlink:href="_i_b_8cpp.html" target="_top" xlink:title=" ">
<polygon fill="white" stroke="black" points="2202.5,-56.5 2202.5,-75.5 2249.5,-75.5 2249.5,-56.5 2202.5,-56.5"/>
<text text-anchor="middle" x="2226" y="-63.5" font-family="Helvetica,sans-Serif" font-size="10.00">IB.cpp</text>
</a>
</g>
</g>
<!-- Node2&#45;&gt;Node62 -->
<g id="edge23" class="edge">
<title>Node2&#45;&gt;Node62</title>
<path fill="none" stroke="midnightblue" d="M2543.72,-116.87C2480.68,-110.45 2360.09,-96.63 2259,-76 2255.97,-75.38 2252.82,-74.64 2249.7,-73.86"/>
<polygon fill="midnightblue" stroke="midnightblue" points="2543.4,-120.36 2553.7,-117.88 2544.1,-113.39 2543.4,-120.36"/>
</g>
<!-- Node63 -->
<g id="node23" class="node">
<title>Node63</title>
<g id="a_node23"><a xlink:href="_i_b_ops_8_h.html" target="_top" xlink:title=" ">
<polygon fill="white" stroke="red" points="2268,-56.5 2268,-75.5 2324,-75.5 2324,-56.5 2268,-56.5"/>
<text text-anchor="middle" x="2296" y="-63.5" font-family="Helvetica,sans-Serif" font-size="10.00">IBOps.H</text>
</a>
</g>
</g>
<!-- Node2&#45;&gt;Node63 -->
<g id="edge24" class="edge">
<title>Node2&#45;&gt;Node63</title>
<path fill="none" stroke="midnightblue" d="M2544.06,-114.24C2493.42,-106.08 2406.81,-91.5 2333,-76 2330.15,-75.4 2327.19,-74.74 2324.24,-74.06"/>
<polygon fill="midnightblue" stroke="midnightblue" points="2543.56,-117.71 2553.99,-115.84 2544.67,-110.8 2543.56,-117.71"/>
</g>
<!-- Node73 -->
<g id="node24" class="node">
<title>Node73</title>
<g id="a_node24"><a xlink:href="incflo_8_h.html" target="_top" xlink:title=" ">
<polygon fill="white" stroke="red" points="2342.5,-56.5 2342.5,-75.5 2395.5,-75.5 2395.5,-56.5 2342.5,-56.5"/>
<text text-anchor="middle" x="2369" y="-63.5" font-family="Helvetica,sans-Serif" font-size="10.00">incflo.H</text>
</a>
</g>
</g>
<!-- Node2&#45;&gt;Node73 -->
<g id="edge25" class="edge">
<title>Node2&#45;&gt;Node73</title>
<path fill="none" stroke="midnightblue" d="M2543.87,-110.37C2506.99,-101.27 2452.5,-87.81 2405,-76 2402,-75.25 2398.86,-74.47 2395.73,-73.69"/>
<polygon fill="midnightblue" stroke="midnightblue" points="2543.24,-113.82 2553.78,-112.81 2544.91,-107.02 2543.24,-113.82"/>
</g>
<!-- Node85 -->
<g id="node25" class="node">
<title>Node85</title>
<g id="a_node25"><a xlink:href="_ocean_waves_8cpp.html" target="_top" xlink:title=" ">
<polygon fill="white" stroke="black" points="2414,-56.5 2414,-75.5 2514,-75.5 2514,-56.5 2414,-56.5"/>
<text text-anchor="middle" x="2464" y="-63.5" font-family="Helvetica,sans-Serif" font-size="10.00">OceanWaves.cpp</text>
</a>
</g>
</g>
<!-- Node2&#45;&gt;Node85 -->
<g id="edge26" class="edge">
<title>Node2&#45;&gt;Node85</title>
<path fill="none" stroke="midnightblue" d="M2558.23,-108.37C2535.19,-98.26 2503.52,-84.35 2483.4,-75.52"/>
<polygon fill="midnightblue" stroke="midnightblue" points="2556.95,-111.63 2567.51,-112.44 2559.76,-105.22 2556.95,-111.63"/>
</g>
<!-- Node86 -->
<g id="node26" class="node">
<title>Node86</title>
<g id="a_node26"><a xlink:href="_ocean_waves_ops_8_h.html" target="_top" xlink:title=" ">
<polygon fill="white" stroke="red" points="2532.5,-56.5 2532.5,-75.5 2641.5,-75.5 2641.5,-56.5 2532.5,-56.5"/>
<text text-anchor="middle" x="2587" y="-63.5" font-family="Helvetica,sans-Serif" font-size="10.00">OceanWavesOps.H</text>
</a>
</g>
</g>
<!-- Node2&#45;&gt;Node86 -->
<g id="edge27" class="edge">
<title>Node2&#45;&gt;Node86</title>
<path fill="none" stroke="midnightblue" d="M2587,-101.8C2587,-92.91 2587,-82.78 2587,-75.75"/>
<polygon fill="midnightblue" stroke="midnightblue" points="2583.5,-102.08 2587,-112.08 2590.5,-102.08 2583.5,-102.08"/>
</g>
<!-- Node94 -->
<g id="node27" class="node">
<title>Node94</title>
<g id="a_node27"><a xlink:href="_tioga_interface_8cpp.html" target="_top" xlink:title=" ">
<polygon fill="white" stroke="black" points="2659.5,-56.5 2659.5,-75.5 2766.5,-75.5 2766.5,-56.5 2659.5,-56.5"/>
<text text-anchor="middle" x="2713" y="-63.5" font-family="Helvetica,sans-Serif" font-size="10.00">TiogaInterface.cpp</text>
</a>
</g>
</g>
<!-- Node2&#45;&gt;Node94 -->
<g id="edge28" class="edge">
<title>Node2&#45;&gt;Node94</title>
<path fill="none" stroke="midnightblue" d="M2616.16,-108.5C2639.78,-98.38 2672.43,-84.39 2693.13,-75.52"/>
<polygon fill="midnightblue" stroke="midnightblue" points="2614.78,-105.29 2606.97,-112.44 2617.54,-111.72 2614.78,-105.29"/>
</g>
<!-- Node95 -->
<g id="node28" class="node">
<title>Node95</title>
<g id="a_node28"><a xlink:href="_boussinesq_bubble_8cpp.html" target="_top" xlink:title=" ">
<polygon fill="white" stroke="black" points="2785,-56.5 2785,-75.5 2911,-75.5 2911,-56.5 2785,-56.5"/>
<text text-anchor="middle" x="2848" y="-63.5" font-family="Helvetica,sans-Serif" font-size="10.00">BoussinesqBubble.cpp</text>
</a>
</g>
</g>
<!-- Node2&#45;&gt;Node95 -->
<g id="edge29" class="edge">
<title>Node2&#45;&gt;Node95</title>
<path fill="none" stroke="midnightblue" d="M2629.93,-111.82C2697.17,-97.73 2763.96,-84.07 2805.99,-75.52"/>
<polygon fill="midnightblue" stroke="midnightblue" points="2629.08,-108.42 2620.01,-113.9 2630.52,-115.27 2629.08,-108.42"/>
</g>
<!-- Node96 -->
<g id="node29" class="node">
<title>Node96</title>
<g id="a_node29"><a xlink:href="_channel_flow_8cpp.html" target="_top" xlink:title=" ">
<polygon fill="white" stroke="black" points="2890.5,-0.5 2890.5,-19.5 2989.5,-19.5 2989.5,-0.5 2890.5,-0.5"/>
<text text-anchor="middle" x="2940" y="-7.5" font-family="Helvetica,sans-Serif" font-size="10.00">ChannelFlow.cpp</text>
</a>
</g>
</g>
<!-- Node2&#45;&gt;Node96 -->
<g id="edge30" class="edge">
<title>Node2&#45;&gt;Node96</title>
<path fill="none" stroke="midnightblue" d="M2630.37,-112.12C2708.21,-102.49 2872.21,-116.06 2920,-76 2936.83,-61.89 2939.76,-33.97 2940.11,-19.76"/>
<polygon fill="midnightblue" stroke="midnightblue" points="2629.81,-108.66 2620.42,-113.56 2630.82,-115.59 2629.81,-108.66"/>
</g>
<!-- Node97 -->
<g id="node30" class="node">
<title>Node97</title>
<g id="a_node30"><a xlink:href="_channel_flow_8_h.html" target="_top" xlink:title=" ">
<polygon fill="white" stroke="black" points="2967.5,-56.5 2967.5,-75.5 3056.5,-75.5 3056.5,-56.5 2967.5,-56.5"/>
<text text-anchor="middle" x="3012" y="-63.5" font-family="Helvetica,sans-Serif" font-size="10.00">ChannelFlow.H</text>
</a>
</g>
</g>
<!-- Node2&#45;&gt;Node97 -->
<g id="edge31" class="edge">
<title>Node2&#45;&gt;Node97</title>
<path fill="none" stroke="midnightblue" d="M2630.46,-111.9C2773.75,-89.05 2812.58,-94.5 2953,-76 2957.62,-75.39 2962.44,-74.72 2967.25,-74.02"/>
<polygon fill="midnightblue" stroke="midnightblue" points="2629.73,-108.48 2620.41,-113.52 2630.84,-115.39 2629.73,-108.48"/>
</g>
<!-- Node98 -->
<g id="node31" class="node">
<title>Node98</title>
<g id="a_node31"><a xlink:href="_convecting_taylor_vortex_8cpp.html" target="_top" xlink:title=" ">
<polygon fill="white" stroke="black" points="3037,-0.5 3037,-19.5 3189,-19.5 3189,-0.5 3037,-0.5"/>
<text text-anchor="middle" x="3113" y="-7.5" font-family="Helvetica,sans-Serif" font-size="10.00">ConvectingTaylorVortex.cpp</text>
</a>
</g>
</g>
<!-- Node2&#45;&gt;Node98 -->
<g id="edge33" class="edge">
<title>Node2&#45;&gt;Node98</title>
<path fill="none" stroke="midnightblue" d="M2630.32,-112.13C2740.45,-99.27 2982.66,-121.9 3065,-76 3088.04,-63.16 3103.12,-34.12 3109.51,-19.6"/>
<polygon fill="midnightblue" stroke="midnightblue" points="2629.86,-108.66 2620.4,-113.44 2630.77,-115.6 2629.86,-108.66"/>
</g>
<!-- Node99 -->
<g id="node32" class="node">
<title>Node99</title>
<g id="a_node32"><a xlink:href="_convecting_taylor_vortex_8_h.html" target="_top" xlink:title=" ">
<polygon fill="white" stroke="red" points="3113.5,-56.5 3113.5,-75.5 3256.5,-75.5 3256.5,-56.5 3113.5,-56.5"/>
<text text-anchor="middle" x="3185" y="-63.5" font-family="Helvetica,sans-Serif" font-size="10.00">ConvectingTaylorVortex.H</text>
</a>
</g>
</g>
<!-- Node2&#45;&gt;Node99 -->
<g id="edge34" class="edge">
<title>Node2&#45;&gt;Node99</title>
<path fill="none" stroke="midnightblue" d="M2630.4,-111.98C2838.07,-82.38 2893.61,-94.61 3099,-76 3103.63,-75.58 3108.41,-75.13 3113.22,-74.66"/>
<polygon fill="midnightblue" stroke="midnightblue" points="2629.8,-108.53 2620.4,-113.42 2630.79,-115.46 2629.8,-108.53"/>
</g>
<!-- Node100 -->
<g id="node33" class="node">
<title>Node100</title>
<g id="a_node33"><a xlink:href="_ekman_spiral_8cpp.html" target="_top" xlink:title=" ">
<polygon fill="white" stroke="black" points="3272,-0.5 3272,-19.5 3370,-19.5 3370,-0.5 3272,-0.5"/>
<text text-anchor="middle" x="3321" y="-7.5" font-family="Helvetica,sans-Serif" font-size="10.00">EkmanSpiral.cpp</text>
</a>
</g>
</g>
<!-- Node2&#45;&gt;Node100 -->
<g id="edge36" class="edge">
<title>Node2&#45;&gt;Node100</title>
<path fill="none" stroke="midnightblue" d="M2630.75,-112.09C2785.74,-95.1 3140.89,-137.2 3265,-76 3290.12,-63.62 3308.54,-34.37 3316.56,-19.7"/>
<polygon fill="midnightblue" stroke="midnightblue" points="2629.89,-108.67 2620.39,-113.36 2630.74,-115.62 2629.89,-108.67"/>
</g>
<!-- Node101 -->
<g id="node34" class="node">
<title>Node101</title>
<g id="a_node34"><a xlink:href="_ekman_spiral_8_h.html" target="_top" xlink:title=" ">
<polygon fill="white" stroke="black" points="3313.5,-56.5 3313.5,-75.5 3402.5,-75.5 3402.5,-56.5 3313.5,-56.5"/>
<text text-anchor="middle" x="3358" y="-63.5" font-family="Helvetica,sans-Serif" font-size="10.00">EkmanSpiral.H</text>
</a>
</g>
</g>
<!-- Node2&#45;&gt;Node101 -->
<g id="edge37" class="edge">
<title>Node2&#45;&gt;Node101</title>
<path fill="none" stroke="midnightblue" d="M2630.55,-112.01C2926.37,-73.39 3005.69,-106.18 3299,-76 3303.64,-75.52 3308.47,-74.94 3313.28,-74.29"/>
<polygon fill="midnightblue" stroke="midnightblue" points="2629.84,-108.57 2620.39,-113.35 2630.76,-115.51 2629.84,-108.57"/>
</g>
<!-- Node102 -->
<g id="node35" class="node">
<title>Node102</title>
<g id="a_node35"><a xlink:href="_free_stream_8cpp.html" target="_top" xlink:title=" ">
<polygon fill="white" stroke="black" points="3420.5,-56.5 3420.5,-75.5 3513.5,-75.5 3513.5,-56.5 3420.5,-56.5"/>
<text text-anchor="middle" x="3467" y="-63.5" font-family="Helvetica,sans-Serif" font-size="10.00">FreeStream.cpp</text>
</a>
</g>
</g>
<!-- Node2&#45;&gt;Node102 -->
<g id="edge39" class="edge">
<title>Node2&#45;&gt;Node102</title>
<path fill="none" stroke="midnightblue" d="M2630.42,-112.04C2975.81,-68.23 3068.2,-111.32 3411,-76 3414.04,-75.69 3417.16,-75.32 3420.3,-74.91"/>
<polygon fill="midnightblue" stroke="midnightblue" points="2629.86,-108.58 2620.38,-113.33 2630.75,-115.52 2629.86,-108.58"/>
</g>
<!-- Node103 -->
<g id="node36" class="node">
<title>Node103</title>
<g id="a_node36"><a xlink:href="_hybrid_r_a_n_s_l_e_s_a_b_l_8cpp.html" target="_top" xlink:title=" ">
<polygon fill="white" stroke="black" points="3507.5,-0.5 3507.5,-19.5 3640.5,-19.5 3640.5,-0.5 3507.5,-0.5"/>
<text text-anchor="middle" x="3574" y="-7.5" font-family="Helvetica,sans-Serif" font-size="10.00">HybridRANSLESABL.cpp</text>
</a>
</g>
</g>
<!-- Node2&#45;&gt;Node103 -->
<g id="edge40" class="edge">
<title>Node2&#45;&gt;Node103</title>
<path fill="none" stroke="midnightblue" d="M2630.49,-112.26C2765.66,-100.66 3435.81,-119.59 3522,-76 3546.25,-63.74 3562.92,-34.43 3570.07,-19.73"/>
<polygon fill="midnightblue" stroke="midnightblue" points="2629.97,-108.79 2620.38,-113.31 2630.69,-115.75 2629.97,-108.79"/>
</g>
<!-- Node104 -->
<g id="node37" class="node">
<title>Node104</title>
<g id="a_node37"><a xlink:href="_hybrid_r_a_n_s_l_e_s_a_b_l_8_h.html" target="_top" xlink:title=" ">
<polygon fill="white" stroke="black" points="3570.5,-56.5 3570.5,-75.5 3693.5,-75.5 3693.5,-56.5 3570.5,-56.5"/>
<text text-anchor="middle" x="3632" y="-63.5" font-family="Helvetica,sans-Serif" font-size="10.00">HybridRANSLESABL.H</text>
</a>
</g>
</g>
<!-- Node2&#45;&gt;Node104 -->
<g id="edge41" class="edge">
<title>Node2&#45;&gt;Node104</title>
<path fill="none" stroke="midnightblue" d="M2630.42,-112.05C3039.84,-61.38 3148.27,-108.01 3556,-76 3560.64,-75.64 3565.43,-75.2 3570.24,-74.73"/>
<polygon fill="midnightblue" stroke="midnightblue" points="2629.87,-108.59 2620.38,-113.3 2630.74,-115.54 2629.87,-108.59"/>
</g>
<!-- Node105 -->
<g id="node38" class="node">
<title>Node105</title>
<g id="a_node38"><a xlink:href="_m_m_s_8cpp.html" target="_top" xlink:title=" ">
<polygon fill="white" stroke="black" points="3718.5,-0.5 3718.5,-19.5 3779.5,-19.5 3779.5,-0.5 3718.5,-0.5"/>
<text text-anchor="middle" x="3749" y="-7.5" font-family="Helvetica,sans-Serif" font-size="10.00">MMS.cpp</text>
</a>
</g>
</g>
<!-- Node2&#45;&gt;Node105 -->
<g id="edge43" class="edge">
<title>Node2&#45;&gt;Node105</title>
<path fill="none" stroke="midnightblue" d="M2630.48,-112.26C2786.8,-99.02 3599.17,-130.74 3702,-76 3725.11,-63.7 3739.62,-34.41 3745.7,-19.72"/>
<polygon fill="midnightblue" stroke="midnightblue" points="2629.97,-108.79 2620.38,-113.29 2630.68,-115.75 2629.97,-108.79"/>
</g>
<!-- Node106 -->
<g id="node39" class="node">
<title>Node106</title>
<g id="a_node39"><a xlink:href="_m_m_s_8_h.html" target="_top" xlink:title=" ">
<polygon fill="white" stroke="black" points="3750.5,-56.5 3750.5,-75.5 3801.5,-75.5 3801.5,-56.5 3750.5,-56.5"/>
<text text-anchor="middle" x="3776" y="-63.5" font-family="Helvetica,sans-Serif" font-size="10.00">MMS.H</text>
</a>
</g>
</g>
<!-- Node2&#45;&gt;Node106 -->
<g id="edge44" class="edge">
<title>Node2&#45;&gt;Node106</title>
<path fill="none" stroke="midnightblue" d="M2630.53,-112.05C3119.41,-53.36 3251.04,-137.88 3736,-76 3740.66,-75.41 3745.58,-74.52 3750.31,-73.53"/>
<polygon fill="midnightblue" stroke="midnightblue" points="2629.88,-108.6 2620.38,-113.29 2630.73,-115.55 2629.88,-108.6"/>
</g>
<!-- Node107 -->
<g id="node40" class="node">
<title>Node107</title>
<g id="a_node40"><a xlink:href="_m_m_s_forcing_8cpp.html" target="_top" xlink:title=" ">
<polygon fill="white" stroke="black" points="3820,-56.5 3820,-75.5 3916,-75.5 3916,-56.5 3820,-56.5"/>
<text text-anchor="middle" x="3868" y="-63.5" font-family="Helvetica,sans-Serif" font-size="10.00">MMSForcing.cpp</text>
</a>
</g>
</g>
<!-- Node2&#45;&gt;Node107 -->
<g id="edge46" class="edge">
<title>Node2&#45;&gt;Node107</title>
<path fill="none" stroke="midnightblue" d="M2630.43,-112.07C3152.5,-49.64 3291.04,-124.77 3811,-76 3813.89,-75.73 3816.86,-75.4 3819.85,-75.04"/>
<polygon fill="midnightblue" stroke="midnightblue" points="2629.89,-108.61 2620.38,-113.28 2630.73,-115.56 2629.89,-108.61"/>
</g>
<!-- Node108 -->
<g id="node41" class="node">
<title>Node108</title>
<g id="a_node41"><a xlink:href="_breaking_waves_8cpp.html" target="_top" xlink:title=" ">
<polygon fill="white" stroke="black" points="3934.5,-56.5 3934.5,-75.5 4047.5,-75.5 4047.5,-56.5 3934.5,-56.5"/>
<text text-anchor="middle" x="3991" y="-63.5" font-family="Helvetica,sans-Serif" font-size="10.00">BreakingWaves.cpp</text>
</a>
</g>
</g>
<!-- Node2&#45;&gt;Node108 -->
<g id="edge47" class="edge">
<title>Node2&#45;&gt;Node108</title>
<path fill="none" stroke="midnightblue" d="M2630.54,-112.06C3202.88,-44.27 3354.06,-122.72 3925,-76 3928,-75.75 3931.07,-75.47 3934.16,-75.15"/>
<polygon fill="midnightblue" stroke="midnightblue" points="2629.89,-108.61 2620.38,-113.27 2630.72,-115.56 2629.89,-108.61"/>
</g>
<!-- Node109 -->
<g id="node42" class="node">
<title>Node109</title>
<g id="a_node42"><a xlink:href="_dam_break_8cpp.html" target="_top" xlink:title=" ">
<polygon fill="white" stroke="black" points="4065.5,-56.5 4065.5,-75.5 4154.5,-75.5 4154.5,-56.5 4065.5,-56.5"/>
<text text-anchor="middle" x="4110" y="-63.5" font-family="Helvetica,sans-Serif" font-size="10.00">DamBreak.cpp</text>
</a>
</g>
</g>
<!-- Node2&#45;&gt;Node109 -->
<g id="edge48" class="edge">
<title>Node2&#45;&gt;Node109</title>
<path fill="none" stroke="midnightblue" d="M2630.63,-112.05C3261.24,-38.24 3428.49,-136.97 4057,-76 4059.69,-75.74 4062.46,-75.42 4065.24,-75.06"/>
<polygon fill="midnightblue" stroke="midnightblue" points="2629.9,-108.61 2620.38,-113.26 2630.72,-115.57 2629.9,-108.61"/>
</g>
<!-- Node55 -->
<g id="node43" class="node">
<title>Node55</title>
<g id="a_node43"><a xlink:href="_multi_phase_8cpp.html" target="_top" xlink:title=" ">
<polygon fill="white" stroke="black" points="4172.5,-56.5 4172.5,-75.5 4263.5,-75.5 4263.5,-56.5 4172.5,-56.5"/>
<text text-anchor="middle" x="4218" y="-63.5" font-family="Helvetica,sans-Serif" font-size="10.00">MultiPhase.cpp</text>
</a>
</g>
</g>
<!-- Node2&#45;&gt;Node55 -->
<g id="edge49" class="edge">
<title>Node2&#45;&gt;Node55</title>
<path fill="none" stroke="midnightblue" d="M2630.39,-112.08C3308.47,-33.21 3487.94,-139.94 4164,-76 4166.74,-75.74 4169.56,-75.42 4172.39,-75.07"/>
<polygon fill="midnightblue" stroke="midnightblue" points="2629.9,-108.62 2620.38,-113.26 2630.72,-115.57 2629.9,-108.62"/>
</g>
<!-- Node110 -->
<g id="node44" class="node">
<title>Node110</title>
<g id="a_node44"><a xlink:href="_rain_drop_8cpp.html" target="_top" xlink:title=" ">
<polygon fill="white" stroke="black" points="4282,-56.5 4282,-75.5 4364,-75.5 4364,-56.5 4282,-56.5"/>
<text text-anchor="middle" x="4323" y="-63.5" font-family="Helvetica,sans-Serif" font-size="10.00">RainDrop.cpp</text>
</a>
</g>
</g>
<!-- Node2&#45;&gt;Node110 -->
<g id="edge50" class="edge">
<title>Node2&#45;&gt;Node110</title>
<path fill="none" stroke="midnightblue" d="M2630.56,-112.07C3356.67,-28.18 3549.18,-148.62 4273,-76 4275.9,-75.71 4278.88,-75.34 4281.87,-74.93"/>
<polygon fill="midnightblue" stroke="midnightblue" points="2629.9,-108.62 2620.38,-113.25 2630.71,-115.57 2629.9,-108.62"/>
</g>
<!-- Node111 -->
<g id="node45" class="node">
<title>Node111</title>
<g id="a_node45"><a xlink:href="_sloshing_tank_8cpp.html" target="_top" xlink:title=" ">
<polygon fill="white" stroke="black" points="4382.5,-56.5 4382.5,-75.5 4483.5,-75.5 4483.5,-56.5 4382.5,-56.5"/>
<text text-anchor="middle" x="4433" y="-63.5" font-family="Helvetica,sans-Serif" font-size="10.00">SloshingTank.cpp</text>
</a>
</g>
</g>
<!-- Node2&#45;&gt;Node111 -->
<g id="edge51" class="edge">
<title>Node2&#45;&gt;Node111</title>
<path fill="none" stroke="midnightblue" d="M2630.32,-112.1C3400.81,-23.39 3603.81,-141.36 4373,-76 4376.04,-75.74 4379.17,-75.43 4382.31,-75.07"/>
<polygon fill="midnightblue" stroke="midnightblue" points="2629.91,-108.62 2620.38,-113.25 2630.71,-115.57 2629.91,-108.62"/>
</g>
<!-- Node112 -->
<g id="node46" class="node">
<title>Node112</title>
<g id="a_node46"><a xlink:href="_vortex_patch_8cpp.html" target="_top" xlink:title=" ">
<polygon fill="white" stroke="black" points="4501.5,-56.5 4501.5,-75.5 4596.5,-75.5 4596.5,-56.5 4501.5,-56.5"/>
<text text-anchor="middle" x="4549" y="-63.5" font-family="Helvetica,sans-Serif" font-size="10.00">VortexPatch.cpp</text>
</a>
</g>
</g>
<!-- Node2&#45;&gt;Node112 -->
<g id="edge52" class="edge">
<title>Node2&#45;&gt;Node112</title>
<path fill="none" stroke="midnightblue" d="M2630.4,-112.09C3453.85,-17.82 3671.03,-149.62 4493,-76 4495.75,-75.75 4498.56,-75.45 4501.4,-75.12"/>
<polygon fill="midnightblue" stroke="midnightblue" points="2629.91,-108.62 2620.37,-113.24 2630.71,-115.58 2629.91,-108.62"/>
</g>
<!-- Node113 -->
<g id="node47" class="node">
<title>Node113</title>
<g id="a_node47"><a xlink:href="_vortex_patch_scalar_vel_8cpp.html" target="_top" xlink:title=" ">
<polygon fill="white" stroke="black" points="4615,-56.5 4615,-75.5 4755,-75.5 4755,-56.5 4615,-56.5"/>
<text text-anchor="middle" x="4685" y="-63.5" font-family="Helvetica,sans-Serif" font-size="10.00">VortexPatchScalarVel.cpp</text>
</a>
</g>
</g>
<!-- Node2&#45;&gt;Node113 -->
<g id="edge53" class="edge">
<title>Node2&#45;&gt;Node113</title>
<path fill="none" stroke="midnightblue" d="M2630.59,-112.09C3082.16,-62.38 4170.86,-104.68 4606,-76 4608.89,-75.81 4611.84,-75.59 4614.82,-75.35"/>
<polygon fill="midnightblue" stroke="midnightblue" points="2629.92,-108.64 2620.37,-113.24 2630.7,-115.6 2629.92,-108.64"/>
</g>
<!-- Node114 -->
<g id="node48" class="node">
<title>Node114</title>
<g id="a_node48"><a xlink:href="_zalesak_disk_8cpp.html" target="_top" xlink:title=" ">
<polygon fill="white" stroke="black" points="4773,-56.5 4773,-75.5 4871,-75.5 4871,-56.5 4773,-56.5"/>
<text text-anchor="middle" x="4822" y="-63.5" font-family="Helvetica,sans-Serif" font-size="10.00">ZalesakDisk.cpp</text>
</a>
</g>
</g>
<!-- Node2&#45;&gt;Node114 -->
<g id="edge54" class="edge">
<title>Node2&#45;&gt;Node114</title>
<path fill="none" stroke="midnightblue" d="M2630.32,-112.12C3116.68,-58.83 4294.45,-116.2 4764,-76 4766.84,-75.76 4769.76,-75.46 4772.69,-75.12"/>
<polygon fill="midnightblue" stroke="midnightblue" points="2629.92,-108.64 2620.37,-113.24 2630.7,-115.6 2629.92,-108.64"/>
</g>
<!-- Node115 -->
<g id="node49" class="node">
<title>Node115</title>
<g id="a_node49"><a xlink:href="_zalesak_disk_scalar_vel_8cpp.html" target="_top" xlink:title=" ">
<polygon fill="white" stroke="black" points="4889.5,-56.5 4889.5,-75.5 5032.5,-75.5 5032.5,-56.5 4889.5,-56.5"/>
<text text-anchor="middle" x="4961" y="-63.5" font-family="Helvetica,sans-Serif" font-size="10.00">ZalesakDiskScalarVel.cpp</text>
</a>
</g>
</g>
<!-- Node2&#45;&gt;Node115 -->
<g id="edge55" class="edge">
<title>Node2&#45;&gt;Node115</title>
<path fill="none" stroke="midnightblue" d="M2630.47,-112.1C3142.57,-56 4384.01,-107.45 4880,-76 4883.11,-75.8 4886.28,-75.57 4889.48,-75.32"/>
<polygon fill="midnightblue" stroke="midnightblue" points="2629.92,-108.64 2620.37,-113.23 2630.7,-115.6 2629.92,-108.64"/>
</g>
<!-- Node49&#45;&gt;Node16 -->
<g id="edge18" class="edge">
<title>Node49&#45;&gt;Node16</title>
<path fill="none" stroke="midnightblue" d="M1822.97,-50.62C1808.53,-40.76 1789.86,-27.99 1777.66,-19.65"/>
<polygon fill="midnightblue" stroke="midnightblue" points="1821.08,-53.57 1831.31,-56.32 1825.03,-47.79 1821.08,-53.57"/>
</g>
<!-- Node97&#45;&gt;Node96 -->
<g id="edge32" class="edge">
<title>Node97&#45;&gt;Node96</title>
<path fill="none" stroke="midnightblue" d="M2992.13,-50.1C2979.18,-40.38 2962.7,-28.03 2951.78,-19.83"/>
<polygon fill="midnightblue" stroke="midnightblue" points="2990.33,-53.12 3000.43,-56.32 2994.53,-47.52 2990.33,-53.12"/>
</g>
<!-- Node99&#45;&gt;Node98 -->
<g id="edge35" class="edge">
<title>Node99&#45;&gt;Node98</title>
<path fill="none" stroke="midnightblue" d="M3165.13,-50.1C3152.18,-40.38 3135.7,-28.03 3124.78,-19.83"/>
<polygon fill="midnightblue" stroke="midnightblue" points="3163.33,-53.12 3173.43,-56.32 3167.53,-47.52 3163.33,-53.12"/>
</g>
<!-- Node101&#45;&gt;Node100 -->
<g id="edge38" class="edge">
<title>Node101&#45;&gt;Node100</title>
<path fill="none" stroke="midnightblue" d="M3346.05,-47.57C3339.69,-38.27 3332.13,-27.25 3327,-19.75"/>
<polygon fill="midnightblue" stroke="midnightblue" points="3343.35,-49.81 3351.89,-56.08 3349.13,-45.86 3343.35,-49.81"/>
</g>
<!-- Node104&#45;&gt;Node103 -->
<g id="edge42" class="edge">
<title>Node104&#45;&gt;Node103</title>
<path fill="none" stroke="midnightblue" d="M3615.09,-49.25C3604.8,-39.67 3592.03,-27.79 3583.49,-19.83"/>
<polygon fill="midnightblue" stroke="midnightblue" points="3612.98,-52.07 3622.68,-56.32 3617.75,-46.95 3612.98,-52.07"/>
</g>
<!-- Node106&#45;&gt;Node105 -->
<g id="edge45" class="edge">
<title>Node106&#45;&gt;Node105</title>
<path fill="none" stroke="midnightblue" d="M3766.99,-46.98C3762.41,-37.82 3757.05,-27.09 3753.38,-19.75"/>
<polygon fill="midnightblue" stroke="midnightblue" points="3763.94,-48.7 3771.54,-56.08 3770.2,-45.57 3763.94,-48.7"/>
</g>
</g>
</svg>
        <g id="navigator" transform="translate(0 0)" fill="#404254">
                <rect fill="#f2f5e9" fill-opacity="0.5" stroke="#606060" stroke-width=".5" x="0" y="0" width="60" height="60"/>
                <use id="zoomplus" xlink:href="#zoomPlus" x="17" y="9" onmousedown="handleZoom(evt,'in')"/>
                <use id="zoomminus" xlink:href="#zoomMin" x="42" y="9" onmousedown="handleZoom(evt,'out')"/>
                <use id="reset" xlink:href="#resetDef" x="30" y="36" onmousedown="handleReset()"/>
                <g id="arrowUp" xlink:href="#dirArrow" transform="translate(30 24)" onmousedown="handlePan(0,-1)">
                  <use xlink:href="#rim" fill="#404040">
                        <set attributeName="fill" to="#808080" begin="arrowUp.mouseover" end="arrowUp.mouseout"/>
                  </use>
                  <path fill="none" stroke="white" stroke-width="1.5" d="M0,-3.0v7 M-2.5,-0.5L0,-3.0L2.5,-0.5"/>
                </g>
                <g id="arrowRight" xlink:href="#dirArrow" transform="rotate(90) translate(36 -43)" onmousedown="handlePan(1,0)">
                  <use xlink:href="#rim" fill="#404040">
                        <set attributeName="fill" to="#808080" begin="arrowRight.mouseover" end="arrowRight.mouseout"/>
                  </use>
                  <path fill="none" stroke="white" stroke-width="1.5" d="M0,-3.0v7 M-2.5,-0.5L0,-3.0L2.5,-0.5"/>
                </g>
                <g id="arrowDown" xlink:href="#dirArrow" transform="rotate(180) translate(-30 -48)" onmousedown="handlePan(0,1)">
                  <use xlink:href="#rim" fill="#404040">
                        <set attributeName="fill" to="#808080" begin="arrowDown.mouseover" end="arrowDown.mouseout"/>
                  </use>
                  <path fill="none" stroke="white" stroke-width="1.5" d="M0,-3.0v7 M-2.5,-0.5L0,-3.0L2.5,-0.5"/>
                </g>
                <g id="arrowLeft" xlink:href="#dirArrow" transform="rotate(270) translate(-36 17)" onmousedown="handlePan(-1,0)">
                  <use xlink:href="#rim" fill="#404040">
                        <set attributeName="fill" to="#808080" begin="arrowLeft.mouseover" end="arrowLeft.mouseout"/>
                  </use>
                  <path fill="none" stroke="white" stroke-width="1.5" d="M0,-3.0v7 M-2.5,-0.5L0,-3.0L2.5,-0.5"/>
                </g>
        </g>
        <svg viewBox="0 0 15 15" width="100%" height="30px" preserveAspectRatio="xMaxYMin meet">
         <g id="arrow_out" transform="scale(0.3 0.3)">
          <a xlink:href="helics_8_h__dep__incl_org.svg" target="_base">
           <rect id="button" ry="5" rx="5" y="6" x="6" height="38" width="38"
                fill="#f2f5e9" fill-opacity="0.5" stroke="#606060" stroke-width="1.0"/>
           <path id="arrow"
             d="M 11.500037,31.436501 C 11.940474,20.09759 22.043105,11.32322 32.158766,21.979434 L 37.068811,17.246167 C 37.068811,17.246167 37.088388,32 37.088388,32 L 22.160133,31.978069 C 22.160133,31.978069 26.997745,27.140456 26.997745,27.140456 C 18.528582,18.264221 13.291696,25.230495 11.500037,31.436501 z"
             style="fill:#404040;"/>
          </a>
         </g>
        </svg>
</svg>
