<?xml version="1.0" encoding="UTF-8" standalone="no"?>
<!DOCTYPE svg PUBLIC "-//W3C//DTD SVG 1.1//EN"
 "http://www.w3.org/Graphics/SVG/1.1/DTD/svg11.dtd">
<!-- Generated by graphviz version 2.43.0 (0)
 -->
<!-- Title: icns.H Pages: 1 -->
<!--zoomable 140 -->
<svg id="main" version="1.1" xmlns="http://www.w3.org/2000/svg" xmlns:xlink="http://www.w3.org/1999/xlink" xml:space="preserve" onload="init(evt)">
<style type="text/css"><![CDATA[
.edge:hover path { stroke: red; }
.edge:hover polygon { stroke: red; fill: red; }
]]></style>
<script type="text/javascript"><![CDATA[
var edges = document.getElementsByTagName('g');
if (edges && edges.length) {
  for (var i=0;i<edges.length;i++) {
    if (edges[i].id.substr(0,4)=='edge') {
      edges[i].setAttribute('class','edge');
    }
  }
}
]]></script>
        <defs>
                <circle id="rim" cx="0" cy="0" r="7"/>
                <circle id="rim2" cx="0" cy="0" r="3.5"/>
                <g id="zoomPlus">
                        <use xlink:href="#rim" fill="#404040">
                                <set attributeName="fill" to="#808080" begin="zoomplus.mouseover" end="zoomplus.mouseout"/>
                        </use>
                        <path d="M-4,0h8M0,-4v8" fill="none" stroke="white" stroke-width="1.5" pointer-events="none"/>
                </g>
                <g id="zoomMin">
                        <use xlink:href="#rim" fill="#404040">
                                <set attributeName="fill" to="#808080" begin="zoomminus.mouseover" end="zoomminus.mouseout"/>
                        </use>
                        <path d="M-4,0h8" fill="none" stroke="white" stroke-width="1.5" pointer-events="none"/>
                </g>
                <g id="dirArrow">
                        <path fill="none" stroke="white" stroke-width="1.5" d="M0,-3.0v7 M-2.5,-0.5L0,-3.0L2.5,-0.5"/>
                </g>
               <g id="resetDef">
                       <use xlink:href="#rim2" fill="#404040">
                               <set attributeName="fill" to="#808080" begin="reset.mouseover" end="reset.mouseout"/>
                       </use>
               </g>
        </defs>

<script type="text/javascript">
var viewWidth = 554;
var viewHeight = 140;
var sectionId = 'dynsection-1';
</script>
<script xlink:href="svgpan.js"/>
<svg id="graph" class="graph">
<g id="viewport">
<title>icns.H</title>
<polygon fill="white" stroke="transparent" points="-4,4 -4,-136 549.64,-136 549.64,4 -4,4"/>
<!-- Node1 -->
<g id="node1" class="node">
<title>Node1</title>
<g id="a_node1"><a xlink:title=" ">
<polygon fill="#bfbfbf" stroke="black" points="183.64,-112.5 183.64,-131.5 230.64,-131.5 230.64,-112.5 183.64,-112.5"/>
<text text-anchor="middle" x="207.14" y="-119.5" font-family="Helvetica,sans-Serif" font-size="10.00">icns.H</text>
</a>
</g>
</g>
<!-- Node2 -->
<g id="node2" class="node">
<title>Node2</title>
<g id="a_node2"><a xlink:href="icns_8cpp.html" target="_top" xlink:title=" ">
<polygon fill="white" stroke="black" points="129.14,-0.5 129.14,-19.5 185.14,-19.5 185.14,-0.5 129.14,-0.5"/>
<text text-anchor="middle" x="157.14" y="-7.5" font-family="Helvetica,sans-Serif" font-size="10.00">icns.cpp</text>
</a>
</g>
</g>
<!-- Node1&#45;&gt;Node2 -->
<g id="edge1" class="edge">
<title>Node1&#45;&gt;Node2</title>
<path fill="none" stroke="midnightblue" d="M173.29,-118.38C121.79,-113.61 27.57,-101.55 7.14,-76 -27.26,-33.01 76.62,-17.85 128.95,-13.03"/>
<polygon fill="midnightblue" stroke="midnightblue" points="173.02,-121.87 183.29,-119.26 173.63,-114.89 173.02,-121.87"/>
</g>
<!-- Node3 -->
<g id="node3" class="node">
<title>Node3</title>
<g id="a_node3"><a xlink:href="icns__advection_8_h.html" target="_top" xlink:title=" ">
<polygon fill="white" stroke="black" points="310.14,-56.5 310.14,-75.5 410.14,-75.5 410.14,-56.5 310.14,-56.5"/>
<text text-anchor="middle" x="360.14" y="-63.5" font-family="Helvetica,sans-Serif" font-size="10.00">icns_advection.H</text>
</a>
</g>
</g>
<!-- Node1&#45;&gt;Node3 -->
<g id="edge2" class="edge">
<title>Node1&#45;&gt;Node3</title>
<path fill="none" stroke="midnightblue" d="M240.35,-109.28C269.19,-99.1 310.25,-84.61 336.03,-75.51"/>
<polygon fill="midnightblue" stroke="midnightblue" points="238.97,-106.05 230.71,-112.68 241.3,-112.65 238.97,-106.05"/>
</g>
<!-- Node5 -->
<g id="node5" class="node">
<title>Node5</title>
<g id="a_node5"><a xlink:href="icns__bcop_8_h.html" target="_top" xlink:title=" ">
<polygon fill="white" stroke="black" points="16.64,-56.5 16.64,-75.5 91.64,-75.5 91.64,-56.5 16.64,-56.5"/>
<text text-anchor="middle" x="54.14" y="-63.5" font-family="Helvetica,sans-Serif" font-size="10.00">icns_bcop.H</text>
</a>
</g>
</g>
<!-- Node1&#45;&gt;Node5 -->
<g id="edge5" class="edge">
<title>Node1&#45;&gt;Node5</title>
<path fill="none" stroke="midnightblue" d="M173.92,-109.28C145.09,-99.1 104.02,-84.61 78.24,-75.51"/>
<polygon fill="midnightblue" stroke="midnightblue" points="172.97,-112.65 183.57,-112.68 175.3,-106.05 172.97,-112.65"/>
</g>
<!-- Node6 -->
<g id="node6" class="node">
<title>Node6</title>
<g id="a_node6"><a xlink:href="icns__diffusion_8_h.html" target="_top" xlink:title=" ">
<polygon fill="white" stroke="black" points="110.14,-56.5 110.14,-75.5 204.14,-75.5 204.14,-56.5 110.14,-56.5"/>
<text text-anchor="middle" x="157.14" y="-63.5" font-family="Helvetica,sans-Serif" font-size="10.00">icns_diffusion.H</text>
</a>
</g>
</g>
<!-- Node1&#45;&gt;Node6 -->
<g id="edge7" class="edge">
<title>Node1&#45;&gt;Node6</title>
<path fill="none" stroke="midnightblue" d="M192.06,-104.72C183.25,-95.2 172.47,-83.56 165.24,-75.75"/>
<polygon fill="midnightblue" stroke="midnightblue" points="189.52,-107.12 198.88,-112.08 194.65,-102.37 189.52,-107.12"/>
</g>
<!-- Node7 -->
<g id="node7" class="node">
<title>Node7</title>
<g id="a_node7"><a xlink:href="icns__ops_8_h.html" target="_top" xlink:title=" ">
<polygon fill="white" stroke="black" points="222.64,-56.5 222.64,-75.5 291.64,-75.5 291.64,-56.5 222.64,-56.5"/>
<text text-anchor="middle" x="257.14" y="-63.5" font-family="Helvetica,sans-Serif" font-size="10.00">icns_ops.H</text>
</a>
</g>
</g>
<!-- Node1&#45;&gt;Node7 -->
<g id="edge9" class="edge">
<title>Node1&#45;&gt;Node7</title>
<path fill="none" stroke="midnightblue" d="M222.21,-104.72C231.03,-95.2 241.8,-83.56 249.03,-75.75"/>
<polygon fill="midnightblue" stroke="midnightblue" points="219.62,-102.37 215.39,-112.08 224.76,-107.12 219.62,-102.37"/>
</g>
<!-- Node8 -->
<g id="node8" class="node">
<title>Node8</title>
<g id="a_node8"><a xlink:href="_power_law_profile_8cpp.html" target="_top" xlink:title=" ">
<polygon fill="white" stroke="black" points="428.64,-56.5 428.64,-75.5 545.64,-75.5 545.64,-56.5 428.64,-56.5"/>
<text text-anchor="middle" x="487.14" y="-63.5" font-family="Helvetica,sans-Serif" font-size="10.00">PowerLawProfile.cpp</text>
</a>
</g>
</g>
<!-- Node1&#45;&gt;Node8 -->
<g id="edge11" class="edge">
<title>Node1&#45;&gt;Node8</title>
<path fill="none" stroke="midnightblue" d="M241.1,-114.45C291.7,-104.69 386.92,-86.33 442.9,-75.53"/>
<polygon fill="midnightblue" stroke="midnightblue" points="240.17,-111.07 231.01,-116.4 241.49,-117.94 240.17,-111.07"/>
</g>
<!-- Node3&#45;&gt;Node2 -->
<g id="edge3" class="edge">
<title>Node3&#45;&gt;Node2</title>
<path fill="none" stroke="midnightblue" d="M318.29,-53.87C278.48,-43.28 219.71,-27.64 185.23,-18.47"/>
<polygon fill="midnightblue" stroke="midnightblue" points="317.41,-57.26 327.97,-56.44 319.21,-50.49 317.41,-57.26"/>
</g>
<!-- Node4 -->
<g id="node4" class="node">
<title>Node4</title>
<g id="a_node4"><a xlink:href="icns__advection_8cpp.html" target="_top" xlink:title=" ">
<polygon fill="white" stroke="black" points="305.14,-0.5 305.14,-19.5 415.14,-19.5 415.14,-0.5 305.14,-0.5"/>
<text text-anchor="middle" x="360.14" y="-7.5" font-family="Helvetica,sans-Serif" font-size="10.00">icns_advection.cpp</text>
</a>
</g>
</g>
<!-- Node3&#45;&gt;Node4 -->
<g id="edge4" class="edge">
<title>Node3&#45;&gt;Node4</title>
<path fill="none" stroke="midnightblue" d="M360.14,-45.8C360.14,-36.91 360.14,-26.78 360.14,-19.75"/>
<polygon fill="midnightblue" stroke="midnightblue" points="356.64,-46.08 360.14,-56.08 363.64,-46.08 356.64,-46.08"/>
</g>
<!-- Node5&#45;&gt;Node2 -->
<g id="edge6" class="edge">
<title>Node5&#45;&gt;Node2</title>
<path fill="none" stroke="midnightblue" d="M79.72,-51.59C98.76,-41.61 124.2,-28.27 140.63,-19.65"/>
<polygon fill="midnightblue" stroke="midnightblue" points="77.92,-48.58 70.69,-56.32 81.17,-54.78 77.92,-48.58"/>
</g>
<!-- Node6&#45;&gt;Node2 -->
<g id="edge8" class="edge">
<title>Node6&#45;&gt;Node2</title>
<path fill="none" stroke="midnightblue" d="M157.14,-45.8C157.14,-36.91 157.14,-26.78 157.14,-19.75"/>
<polygon fill="midnightblue" stroke="midnightblue" points="153.64,-46.08 157.14,-56.08 160.64,-46.08 153.64,-46.08"/>
</g>
<!-- Node7&#45;&gt;Node2 -->
<g id="edge10" class="edge">
<title>Node7&#45;&gt;Node2</title>
<path fill="none" stroke="midnightblue" d="M232.05,-51.45C213.59,-41.48 189.04,-28.23 173.16,-19.65"/>
<polygon fill="midnightblue" stroke="midnightblue" points="230.61,-54.65 241.07,-56.32 233.93,-48.49 230.61,-54.65"/>
</g>
</g>
</svg>
        <g id="navigator" transform="translate(0 0)" fill="#404254">
                <rect fill="#f2f5e9" fill-opacity="0.5" stroke="#606060" stroke-width=".5" x="0" y="0" width="60" height="60"/>
                <use id="zoomplus" xlink:href="#zoomPlus" x="17" y="9" onmousedown="handleZoom(evt,'in')"/>
                <use id="zoomminus" xlink:href="#zoomMin" x="42" y="9" onmousedown="handleZoom(evt,'out')"/>
                <use id="reset" xlink:href="#resetDef" x="30" y="36" onmousedown="handleReset()"/>
                <g id="arrowUp" xlink:href="#dirArrow" transform="translate(30 24)" onmousedown="handlePan(0,-1)">
                  <use xlink:href="#rim" fill="#404040">
                        <set attributeName="fill" to="#808080" begin="arrowUp.mouseover" end="arrowUp.mouseout"/>
                  </use>
                  <path fill="none" stroke="white" stroke-width="1.5" d="M0,-3.0v7 M-2.5,-0.5L0,-3.0L2.5,-0.5"/>
                </g>
                <g id="arrowRight" xlink:href="#dirArrow" transform="rotate(90) translate(36 -43)" onmousedown="handlePan(1,0)">
                  <use xlink:href="#rim" fill="#404040">
                        <set attributeName="fill" to="#808080" begin="arrowRight.mouseover" end="arrowRight.mouseout"/>
                  </use>
                  <path fill="none" stroke="white" stroke-width="1.5" d="M0,-3.0v7 M-2.5,-0.5L0,-3.0L2.5,-0.5"/>
                </g>
                <g id="arrowDown" xlink:href="#dirArrow" transform="rotate(180) translate(-30 -48)" onmousedown="handlePan(0,1)">
                  <use xlink:href="#rim" fill="#404040">
                        <set attributeName="fill" to="#808080" begin="arrowDown.mouseover" end="arrowDown.mouseout"/>
                  </use>
                  <path fill="none" stroke="white" stroke-width="1.5" d="M0,-3.0v7 M-2.5,-0.5L0,-3.0L2.5,-0.5"/>
                </g>
                <g id="arrowLeft" xlink:href="#dirArrow" transform="rotate(270) translate(-36 17)" onmousedown="handlePan(-1,0)">
                  <use xlink:href="#rim" fill="#404040">
                        <set attributeName="fill" to="#808080" begin="arrowLeft.mouseover" end="arrowLeft.mouseout"/>
                  </use>
                  <path fill="none" stroke="white" stroke-width="1.5" d="M0,-3.0v7 M-2.5,-0.5L0,-3.0L2.5,-0.5"/>
                </g>
        </g>
        <svg viewBox="0 0 15 15" width="100%" height="30px" preserveAspectRatio="xMaxYMin meet">
         <g id="arrow_out" transform="scale(0.3 0.3)">
          <a xlink:href="icns_8_h__dep__incl_org.svg" target="_base">
           <rect id="button" ry="5" rx="5" y="6" x="6" height="38" width="38"
                fill="#f2f5e9" fill-opacity="0.5" stroke="#606060" stroke-width="1.0"/>
           <path id="arrow"
             d="M 11.500037,31.436501 C 11.940474,20.09759 22.043105,11.32322 32.158766,21.979434 L 37.068811,17.246167 C 37.068811,17.246167 37.088388,32 37.088388,32 L 22.160133,31.978069 C 22.160133,31.978069 26.997745,27.140456 26.997745,27.140456 C 18.528582,18.264221 13.291696,25.230495 11.500037,31.436501 z"
             style="fill:#404040;"/>
          </a>
         </g>
        </svg>
</svg>
