<?xml version="1.0" encoding="UTF-8" standalone="no"?>
<!DOCTYPE svg PUBLIC "-//W3C//DTD SVG 1.1//EN"
 "http://www.w3.org/Graphics/SVG/1.1/DTD/svg11.dtd">
<!-- Generated by graphviz version 2.43.0 (0)
 -->
<!-- Title: icns.H Pages: 1 -->
<svg width="554pt" height="140pt"
 viewBox="0.00 0.00 553.64 140.00" xmlns="http://www.w3.org/2000/svg" xmlns:xlink="http://www.w3.org/1999/xlink">
<g id="graph0" class="graph" transform="scale(1 1) rotate(0) translate(4 136)">
<title>icns.H</title>
<polygon fill="white" stroke="transparent" points="-4,4 -4,-136 549.64,-136 549.64,4 -4,4"/>
<!-- Node1 -->
<g id="node1" class="node">
<title>Node1</title>
<g id="a_node1"><a xlink:title=" ">
<polygon fill="#bfbfbf" stroke="black" points="183.64,-112.5 183.64,-131.5 230.64,-131.5 230.64,-112.5 183.64,-112.5"/>
<text text-anchor="middle" x="207.14" y="-119.5" font-family="Helvetica,sans-Serif" font-size="10.00">icns.H</text>
</a>
</g>
</g>
<!-- Node2 -->
<g id="node2" class="node">
<title>Node2</title>
<g id="a_node2"><a xlink:href="icns_8cpp.html" target="_top" xlink:title=" ">
<polygon fill="white" stroke="black" points="129.14,-0.5 129.14,-19.5 185.14,-19.5 185.14,-0.5 129.14,-0.5"/>
<text text-anchor="middle" x="157.14" y="-7.5" font-family="Helvetica,sans-Serif" font-size="10.00">icns.cpp</text>
</a>
</g>
</g>
<!-- Node1&#45;&gt;Node2 -->
<g id="edge1" class="edge">
<title>Node1&#45;&gt;Node2</title>
<path fill="none" stroke="midnightblue" d="M173.29,-118.38C121.79,-113.61 27.57,-101.55 7.14,-76 -27.26,-33.01 76.62,-17.85 128.95,-13.03"/>
<polygon fill="midnightblue" stroke="midnightblue" points="173.02,-121.87 183.29,-119.26 173.63,-114.89 173.02,-121.87"/>
</g>
<!-- Node3 -->
<g id="node3" class="node">
<title>Node3</title>
<g id="a_node3"><a xlink:href="icns__advection_8_h.html" target="_top" xlink:title=" ">
<polygon fill="white" stroke="black" points="310.14,-56.5 310.14,-75.5 410.14,-75.5 410.14,-56.5 310.14,-56.5"/>
<text text-anchor="middle" x="360.14" y="-63.5" font-family="Helvetica,sans-Serif" font-size="10.00">icns_advection.H</text>
</a>
</g>
</g>
<!-- Node1&#45;&gt;Node3 -->
<g id="edge2" class="edge">
<title>Node1&#45;&gt;Node3</title>
<path fill="none" stroke="midnightblue" d="M240.35,-109.28C269.19,-99.1 310.25,-84.61 336.03,-75.51"/>
<polygon fill="midnightblue" stroke="midnightblue" points="238.97,-106.05 230.71,-112.68 241.3,-112.65 238.97,-106.05"/>
</g>
<!-- Node5 -->
<g id="node5" class="node">
<title>Node5</title>
<g id="a_node5"><a xlink:href="icns__bcop_8_h.html" target="_top" xlink:title=" ">
<polygon fill="white" stroke="black" points="16.64,-56.5 16.64,-75.5 91.64,-75.5 91.64,-56.5 16.64,-56.5"/>
<text text-anchor="middle" x="54.14" y="-63.5" font-family="Helvetica,sans-Serif" font-size="10.00">icns_bcop.H</text>
</a>
</g>
</g>
<!-- Node1&#45;&gt;Node5 -->
<g id="edge5" class="edge">
<title>Node1&#45;&gt;Node5</title>
<path fill="none" stroke="midnightblue" d="M173.92,-109.28C145.09,-99.1 104.02,-84.61 78.24,-75.51"/>
<polygon fill="midnightblue" stroke="midnightblue" points="172.97,-112.65 183.57,-112.68 175.3,-106.05 172.97,-112.65"/>
</g>
<!-- Node6 -->
<g id="node6" class="node">
<title>Node6</title>
<g id="a_node6"><a xlink:href="icns__diffusion_8_h.html" target="_top" xlink:title=" ">
<polygon fill="white" stroke="black" points="110.14,-56.5 110.14,-75.5 204.14,-75.5 204.14,-56.5 110.14,-56.5"/>
<text text-anchor="middle" x="157.14" y="-63.5" font-family="Helvetica,sans-Serif" font-size="10.00">icns_diffusion.H</text>
</a>
</g>
</g>
<!-- Node1&#45;&gt;Node6 -->
<g id="edge7" class="edge">
<title>Node1&#45;&gt;Node6</title>
<path fill="none" stroke="midnightblue" d="M192.06,-104.72C183.25,-95.2 172.47,-83.56 165.24,-75.75"/>
<polygon fill="midnightblue" stroke="midnightblue" points="189.52,-107.12 198.88,-112.08 194.65,-102.37 189.52,-107.12"/>
</g>
<!-- Node7 -->
<g id="node7" class="node">
<title>Node7</title>
<g id="a_node7"><a xlink:href="icns__ops_8_h.html" target="_top" xlink:title=" ">
<polygon fill="white" stroke="black" points="222.64,-56.5 222.64,-75.5 291.64,-75.5 291.64,-56.5 222.64,-56.5"/>
<text text-anchor="middle" x="257.14" y="-63.5" font-family="Helvetica,sans-Serif" font-size="10.00">icns_ops.H</text>
</a>
</g>
</g>
<!-- Node1&#45;&gt;Node7 -->
<g id="edge9" class="edge">
<title>Node1&#45;&gt;Node7</title>
<path fill="none" stroke="midnightblue" d="M222.21,-104.72C231.03,-95.2 241.8,-83.56 249.03,-75.75"/>
<polygon fill="midnightblue" stroke="midnightblue" points="219.62,-102.37 215.39,-112.08 224.76,-107.12 219.62,-102.37"/>
</g>
<!-- Node8 -->
<g id="node8" class="node">
<title>Node8</title>
<g id="a_node8"><a xlink:href="_power_law_profile_8cpp.html" target="_top" xlink:title=" ">
<polygon fill="white" stroke="black" points="428.64,-56.5 428.64,-75.5 545.64,-75.5 545.64,-56.5 428.64,-56.5"/>
<text text-anchor="middle" x="487.14" y="-63.5" font-family="Helvetica,sans-Serif" font-size="10.00">PowerLawProfile.cpp</text>
</a>
</g>
</g>
<!-- Node1&#45;&gt;Node8 -->
<g id="edge11" class="edge">
<title>Node1&#45;&gt;Node8</title>
<path fill="none" stroke="midnightblue" d="M241.1,-114.45C291.7,-104.69 386.92,-86.33 442.9,-75.53"/>
<polygon fill="midnightblue" stroke="midnightblue" points="240.17,-111.07 231.01,-116.4 241.49,-117.94 240.17,-111.07"/>
</g>
<!-- Node3&#45;&gt;Node2 -->
<g id="edge3" class="edge">
<title>Node3&#45;&gt;Node2</title>
<path fill="none" stroke="midnightblue" d="M318.29,-53.87C278.48,-43.28 219.71,-27.64 185.23,-18.47"/>
<polygon fill="midnightblue" stroke="midnightblue" points="317.41,-57.26 327.97,-56.44 319.21,-50.49 317.41,-57.26"/>
</g>
<!-- Node4 -->
<g id="node4" class="node">
<title>Node4</title>
<g id="a_node4"><a xlink:href="icns__advection_8cpp.html" target="_top" xlink:title=" ">
<polygon fill="white" stroke="black" points="305.14,-0.5 305.14,-19.5 415.14,-19.5 415.14,-0.5 305.14,-0.5"/>
<text text-anchor="middle" x="360.14" y="-7.5" font-family="Helvetica,sans-Serif" font-size="10.00">icns_advection.cpp</text>
</a>
</g>
</g>
<!-- Node3&#45;&gt;Node4 -->
<g id="edge4" class="edge">
<title>Node3&#45;&gt;Node4</title>
<path fill="none" stroke="midnightblue" d="M360.14,-45.8C360.14,-36.91 360.14,-26.78 360.14,-19.75"/>
<polygon fill="midnightblue" stroke="midnightblue" points="356.64,-46.08 360.14,-56.08 363.64,-46.08 356.64,-46.08"/>
</g>
<!-- Node5&#45;&gt;Node2 -->
<g id="edge6" class="edge">
<title>Node5&#45;&gt;Node2</title>
<path fill="none" stroke="midnightblue" d="M79.72,-51.59C98.76,-41.61 124.2,-28.27 140.63,-19.65"/>
<polygon fill="midnightblue" stroke="midnightblue" points="77.92,-48.58 70.69,-56.32 81.17,-54.78 77.92,-48.58"/>
</g>
<!-- Node6&#45;&gt;Node2 -->
<g id="edge8" class="edge">
<title>Node6&#45;&gt;Node2</title>
<path fill="none" stroke="midnightblue" d="M157.14,-45.8C157.14,-36.91 157.14,-26.78 157.14,-19.75"/>
<polygon fill="midnightblue" stroke="midnightblue" points="153.64,-46.08 157.14,-56.08 160.64,-46.08 153.64,-46.08"/>
</g>
<!-- Node7&#45;&gt;Node2 -->
<g id="edge10" class="edge">
<title>Node7&#45;&gt;Node2</title>
<path fill="none" stroke="midnightblue" d="M232.05,-51.45C213.59,-41.48 189.04,-28.23 173.16,-19.65"/>
<polygon fill="midnightblue" stroke="midnightblue" points="230.61,-54.65 241.07,-56.32 233.93,-48.49 230.61,-54.65"/>
</g>
</g>
</svg>
