<?xml version="1.0" encoding="UTF-8" standalone="no"?>
<!DOCTYPE svg PUBLIC "-//W3C//DTD SVG 1.1//EN"
 "http://www.w3.org/Graphics/SVG/1.1/DTD/svg11.dtd">
<!-- Generated by graphviz version 2.43.0 (0)
 -->
<!-- Title: Graphical Class Hierarchy Pages: 1 -->
<svg width="317pt" height="1008pt"
 viewBox="0.00 0.00 317.00 1007.50" xmlns="http://www.w3.org/2000/svg" xmlns:xlink="http://www.w3.org/1999/xlink">
<g id="graph0" class="graph" transform="scale(1 1) rotate(0) translate(4 1003.5)">
<title>Graphical Class Hierarchy</title>
<polygon fill="white" stroke="transparent" points="-4,4 -4,-1003.5 313,-1003.5 313,4 -4,4"/>
<!-- Node354 -->
<g id="node1" class="node">
<title>Node354</title>
<g id="a_node1"><a xlink:title=" ">
<polygon fill="white" stroke="#bfbfbf" points="0,-524 0,-543 100,-543 100,-524 0,-524"/>
<text text-anchor="middle" x="50" y="-531" font-family="Helvetica,sans-Serif" font-size="10.00">Physics::Register</text>
</a>
</g>
</g>
<!-- Node0 -->
<g id="node2" class="node">
<title>Node0</title>
<g id="a_node2"><a xlink:href="classamr__wind_1_1_a_b_l.html" target="_top" xlink:title="Atmospheric Boundary Layer physics.">
<polygon fill="white" stroke="black" points="178,-980 178,-999 267,-999 267,-980 178,-980"/>
<text text-anchor="middle" x="222.5" y="-987" font-family="Helvetica,sans-Serif" font-size="10.00">amr_wind::ABL</text>
</a>
</g>
</g>
<!-- Node354&#45;&gt;Node0 -->
<g id="edge1" class="edge">
<title>Node354&#45;&gt;Node0</title>
<path fill="none" stroke="midnightblue" d="M52.07,-553.68C56.59,-631.34 76.76,-909.67 136,-970.5 146.82,-981.61 162.59,-986.89 177.65,-989.21"/>
<polygon fill="midnightblue" stroke="midnightblue" points="55.54,-553.15 51.49,-543.36 48.56,-553.54 55.54,-553.15"/>
</g>
<!-- Node356 -->
<g id="node3" class="node">
<title>Node356</title>
<g id="a_node3"><a xlink:href="classamr__wind_1_1_boussinesq_bubble.html" target="_top" xlink:title="Boussinesq Bubble physics.">
<polygon fill="white" stroke="black" points="142.5,-942 142.5,-961 302.5,-961 302.5,-942 142.5,-942"/>
<text text-anchor="middle" x="222.5" y="-949" font-family="Helvetica,sans-Serif" font-size="10.00">amr_wind::BoussinesqBubble</text>
</a>
</g>
</g>
<!-- Node354&#45;&gt;Node356 -->
<g id="edge2" class="edge">
<title>Node354&#45;&gt;Node356</title>
<path fill="none" stroke="midnightblue" d="M52.44,-553.32C58.16,-626.15 81.57,-877.59 136,-932.5 139.75,-936.28 144.07,-939.38 148.73,-941.92"/>
<polygon fill="midnightblue" stroke="midnightblue" points="55.93,-552.93 51.68,-543.22 48.95,-553.46 55.93,-552.93"/>
</g>
<!-- Node357 -->
<g id="node4" class="node">
<title>Node357</title>
<g id="a_node4"><a xlink:href="classamr__wind_1_1_breaking_waves.html" target="_top" xlink:title="Numerical Wave Basin physics.">
<polygon fill="white" stroke="black" points="149.5,-904 149.5,-923 295.5,-923 295.5,-904 149.5,-904"/>
<text text-anchor="middle" x="222.5" y="-911" font-family="Helvetica,sans-Serif" font-size="10.00">amr_wind::BreakingWaves</text>
</a>
</g>
</g>
<!-- Node354&#45;&gt;Node357 -->
<g id="edge3" class="edge">
<title>Node354&#45;&gt;Node357</title>
<path fill="none" stroke="midnightblue" d="M52.95,-553.6C60.02,-622.22 86.52,-845.64 136,-894.5 139.9,-898.35 144.39,-901.49 149.23,-904.04"/>
<polygon fill="midnightblue" stroke="midnightblue" points="56.4,-552.91 51.92,-543.31 49.44,-553.61 56.4,-552.91"/>
</g>
<!-- Node358 -->
<g id="node5" class="node">
<title>Node358</title>
<g id="a_node5"><a xlink:href="classamr__wind_1_1_dam_break.html" target="_top" xlink:title=" ">
<polygon fill="white" stroke="black" points="161.5,-866 161.5,-885 283.5,-885 283.5,-866 161.5,-866"/>
<text text-anchor="middle" x="222.5" y="-873" font-family="Helvetica,sans-Serif" font-size="10.00">amr_wind::DamBreak</text>
</a>
</g>
</g>
<!-- Node354&#45;&gt;Node358 -->
<g id="edge4" class="edge">
<title>Node354&#45;&gt;Node358</title>
<path fill="none" stroke="midnightblue" d="M53.54,-553.52C62.01,-617.23 91.35,-813.54 136,-856.5 143.01,-863.25 151.86,-867.81 161.19,-870.85"/>
<polygon fill="midnightblue" stroke="midnightblue" points="56.96,-552.7 52.2,-543.24 50.02,-553.61 56.96,-552.7"/>
</g>
<!-- Node359 -->
<g id="node6" class="node">
<title>Node359</title>
<g id="a_node6"><a xlink:href="classamr__wind_1_1_ekman_spiral.html" target="_top" xlink:title="Ekman Spiral physics.">
<polygon fill="white" stroke="black" points="156.5,-828 156.5,-847 288.5,-847 288.5,-828 156.5,-828"/>
<text text-anchor="middle" x="222.5" y="-835" font-family="Helvetica,sans-Serif" font-size="10.00">amr_wind::EkmanSpiral</text>
</a>
</g>
</g>
<!-- Node354&#45;&gt;Node359 -->
<g id="edge5" class="edge">
<title>Node354&#45;&gt;Node359</title>
<path fill="none" stroke="midnightblue" d="M50.55,-553.28C50.53,-605.11 58.01,-745.88 136,-818.5 141.79,-823.89 148.75,-827.87 156.17,-830.8"/>
<polygon fill="midnightblue" stroke="midnightblue" points="54.05,-553.15 50.66,-543.11 47.05,-553.07 54.05,-553.15"/>
</g>
<!-- Node360 -->
<g id="node7" class="node">
<title>Node360</title>
<g id="a_node7"><a xlink:href="classamr__wind_1_1_free_stream.html" target="_top" xlink:title="Freestream physics.">
<polygon fill="white" stroke="black" points="159,-790 159,-809 286,-809 286,-790 159,-790"/>
<text text-anchor="middle" x="222.5" y="-797" font-family="Helvetica,sans-Serif" font-size="10.00">amr_wind::FreeStream</text>
</a>
</g>
</g>
<!-- Node354&#45;&gt;Node360 -->
<g id="edge6" class="edge">
<title>Node354&#45;&gt;Node360</title>
<path fill="none" stroke="midnightblue" d="M51.6,-553.14C54.15,-600.05 67.41,-719.24 136,-780.5 142.58,-786.37 150.56,-790.56 158.98,-793.53"/>
<polygon fill="midnightblue" stroke="midnightblue" points="55.09,-552.93 51.16,-543.09 48.1,-553.23 55.09,-552.93"/>
</g>
<!-- Node361 -->
<g id="node8" class="node">
<title>Node361</title>
<g id="a_node8"><a xlink:href="classamr__wind_1_1_multi_phase.html" target="_top" xlink:title=" ">
<polygon fill="white" stroke="black" points="160,-752 160,-771 285,-771 285,-752 160,-752"/>
<text text-anchor="middle" x="222.5" y="-759" font-family="Helvetica,sans-Serif" font-size="10.00">amr_wind::MultiPhase</text>
</a>
</g>
</g>
<!-- Node354&#45;&gt;Node361 -->
<g id="edge7" class="edge">
<title>Node354&#45;&gt;Node361</title>
<path fill="none" stroke="midnightblue" d="M53,-553.2C58.34,-594.93 76.8,-692.48 136,-742.5 142.85,-748.29 151.09,-752.42 159.7,-755.35"/>
<polygon fill="midnightblue" stroke="midnightblue" points="56.47,-552.74 51.84,-543.21 49.52,-553.55 56.47,-552.74"/>
</g>
<!-- Node362 -->
<g id="node9" class="node">
<title>Node362</title>
<g id="a_node9"><a xlink:href="classamr__wind_1_1_rain_drop.html" target="_top" xlink:title=" ">
<polygon fill="white" stroke="black" points="164.5,-714 164.5,-733 280.5,-733 280.5,-714 164.5,-714"/>
<text text-anchor="middle" x="222.5" y="-721" font-family="Helvetica,sans-Serif" font-size="10.00">amr_wind::RainDrop</text>
</a>
</g>
</g>
<!-- Node354&#45;&gt;Node362 -->
<g id="edge8" class="edge">
<title>Node354&#45;&gt;Node362</title>
<path fill="none" stroke="midnightblue" d="M54.97,-553.26C63.29,-589.26 86.06,-665.41 136,-704.5 144.14,-710.87 153.99,-715.2 164.07,-718.12"/>
<polygon fill="midnightblue" stroke="midnightblue" points="58.31,-552.11 52.76,-543.08 51.47,-553.59 58.31,-552.11"/>
</g>
<!-- Node363 -->
<g id="node10" class="node">
<title>Node363</title>
<g id="a_node10"><a xlink:href="classamr__wind_1_1_rayleigh_taylor.html" target="_top" xlink:title="Rayleigh Taylor physics.">
<polygon fill="white" stroke="black" points="151,-676 151,-695 294,-695 294,-676 151,-676"/>
<text text-anchor="middle" x="222.5" y="-683" font-family="Helvetica,sans-Serif" font-size="10.00">amr_wind::RayleighTaylor</text>
</a>
</g>
</g>
<!-- Node354&#45;&gt;Node363 -->
<g id="edge9" class="edge">
<title>Node354&#45;&gt;Node363</title>
<path fill="none" stroke="midnightblue" d="M57.68,-552.54C69,-581.86 94.8,-637.68 136,-666.5 141.48,-670.33 147.61,-673.41 153.99,-675.88"/>
<polygon fill="midnightblue" stroke="midnightblue" points="60.92,-551.2 54.17,-543.04 54.35,-553.63 60.92,-551.2"/>
</g>
<!-- Node364 -->
<g id="node11" class="node">
<title>Node364</title>
<g id="a_node11"><a xlink:href="classamr__wind_1_1_scalar_advection.html" target="_top" xlink:title="Scalar Advection physics.">
<polygon fill="white" stroke="black" points="148,-638 148,-657 297,-657 297,-638 148,-638"/>
<text text-anchor="middle" x="222.5" y="-645" font-family="Helvetica,sans-Serif" font-size="10.00">amr_wind::ScalarAdvection</text>
</a>
</g>
</g>
<!-- Node354&#45;&gt;Node364 -->
<g id="edge10" class="edge">
<title>Node354&#45;&gt;Node364</title>
<path fill="none" stroke="midnightblue" d="M62.16,-551.74C76.47,-573.52 103.39,-609.41 136,-628.5 142.56,-632.34 149.82,-635.41 157.26,-637.85"/>
<polygon fill="midnightblue" stroke="midnightblue" points="64.97,-549.65 56.65,-543.1 59.07,-553.41 64.97,-549.65"/>
</g>
<!-- Node365 -->
<g id="node12" class="node">
<title>Node365</title>
<g id="a_node12"><a xlink:href="classamr__wind_1_1_sloshing_tank.html" target="_top" xlink:title=" ">
<polygon fill="white" stroke="black" points="155.5,-600 155.5,-619 289.5,-619 289.5,-600 155.5,-600"/>
<text text-anchor="middle" x="222.5" y="-607" font-family="Helvetica,sans-Serif" font-size="10.00">amr_wind::SloshingTank</text>
</a>
</g>
</g>
<!-- Node354&#45;&gt;Node365 -->
<g id="edge11" class="edge">
<title>Node354&#45;&gt;Node365</title>
<path fill="none" stroke="midnightblue" d="M70.55,-549.72C87.03,-562.6 111.75,-580.11 136,-590.5 144.95,-594.33 154.76,-597.44 164.46,-599.93"/>
<polygon fill="midnightblue" stroke="midnightblue" points="72.29,-546.63 62.29,-543.11 67.92,-552.09 72.29,-546.63"/>
</g>
<!-- Node366 -->
<g id="node13" class="node">
<title>Node366</title>
<g id="a_node13"><a xlink:href="classamr__wind_1_1_synthetic_turbulence.html" target="_top" xlink:title=" ">
<polygon fill="white" stroke="black" points="138,-562 138,-581 307,-581 307,-562 138,-562"/>
<text text-anchor="middle" x="222.5" y="-569" font-family="Helvetica,sans-Serif" font-size="10.00">amr_wind::SyntheticTurbulence</text>
</a>
</g>
</g>
<!-- Node354&#45;&gt;Node366 -->
<g id="edge12" class="edge">
<title>Node354&#45;&gt;Node366</title>
<path fill="none" stroke="midnightblue" d="M103.83,-545.32C114.48,-547.7 125.6,-550.18 136,-552.5 149.8,-555.58 164.86,-558.92 178.44,-561.94"/>
<polygon fill="midnightblue" stroke="midnightblue" points="104.33,-541.84 93.8,-543.08 102.8,-548.68 104.33,-541.84"/>
</g>
<!-- Node367 -->
<g id="node14" class="node">
<title>Node367</title>
<g id="a_node14"><a xlink:href="classamr__wind_1_1_taylor_green_vortex.html" target="_top" xlink:title="Taylor Green Vortex physics.">
<polygon fill="white" stroke="black" points="142,-524 142,-543 303,-543 303,-524 142,-524"/>
<text text-anchor="middle" x="222.5" y="-531" font-family="Helvetica,sans-Serif" font-size="10.00">amr_wind::TaylorGreenVortex</text>
</a>
</g>
</g>
<!-- Node354&#45;&gt;Node367 -->
<g id="edge13" class="edge">
<title>Node354&#45;&gt;Node367</title>
<path fill="none" stroke="midnightblue" d="M110.6,-533.5C120.68,-533.5 131.29,-533.5 141.78,-533.5"/>
<polygon fill="midnightblue" stroke="midnightblue" points="110.32,-530 100.32,-533.5 110.32,-537 110.32,-530"/>
</g>
<!-- Node368 -->
<g id="node15" class="node">
<title>Node368</title>
<g id="a_node15"><a xlink:href="classamr__wind_1_1_vortex_patch.html" target="_top" xlink:title=" ">
<polygon fill="white" stroke="black" points="158.5,-486 158.5,-505 286.5,-505 286.5,-486 158.5,-486"/>
<text text-anchor="middle" x="222.5" y="-493" font-family="Helvetica,sans-Serif" font-size="10.00">amr_wind::VortexPatch</text>
</a>
</g>
</g>
<!-- Node354&#45;&gt;Node368 -->
<g id="edge14" class="edge">
<title>Node354&#45;&gt;Node368</title>
<path fill="none" stroke="midnightblue" d="M103.83,-521.68C114.48,-519.3 125.6,-516.82 136,-514.5 149.8,-511.42 164.86,-508.08 178.44,-505.06"/>
<polygon fill="midnightblue" stroke="midnightblue" points="102.8,-518.32 93.8,-523.92 104.33,-525.16 102.8,-518.32"/>
</g>
<!-- Node369 -->
<g id="node16" class="node">
<title>Node369</title>
<g id="a_node16"><a xlink:href="classamr__wind_1_1_vortex_patch_scalar_vel.html" target="_top" xlink:title=" ">
<polygon fill="white" stroke="black" points="136,-448 136,-467 309,-467 309,-448 136,-448"/>
<text text-anchor="middle" x="222.5" y="-455" font-family="Helvetica,sans-Serif" font-size="10.00">amr_wind::VortexPatchScalarVel</text>
</a>
</g>
</g>
<!-- Node354&#45;&gt;Node369 -->
<g id="edge15" class="edge">
<title>Node354&#45;&gt;Node369</title>
<path fill="none" stroke="midnightblue" d="M70.55,-517.28C87.03,-504.4 111.75,-486.89 136,-476.5 144.95,-472.67 154.76,-469.56 164.46,-467.07"/>
<polygon fill="midnightblue" stroke="midnightblue" points="67.92,-514.91 62.29,-523.89 72.29,-520.37 67.92,-514.91"/>
</g>
<!-- Node370 -->
<g id="node17" class="node">
<title>Node370</title>
<g id="a_node17"><a xlink:href="classamr__wind_1_1_vortex_ring.html" target="_top" xlink:title="Vortex ring physics.">
<polygon fill="white" stroke="black" points="160.5,-410 160.5,-429 284.5,-429 284.5,-410 160.5,-410"/>
<text text-anchor="middle" x="222.5" y="-417" font-family="Helvetica,sans-Serif" font-size="10.00">amr_wind::VortexRing</text>
</a>
</g>
</g>
<!-- Node354&#45;&gt;Node370 -->
<g id="edge16" class="edge">
<title>Node354&#45;&gt;Node370</title>
<path fill="none" stroke="midnightblue" d="M62.16,-515.26C76.47,-493.48 103.39,-457.59 136,-438.5 143.48,-434.12 151.87,-430.75 160.39,-428.15"/>
<polygon fill="midnightblue" stroke="midnightblue" points="59.07,-513.59 56.65,-523.9 64.97,-517.35 59.07,-513.59"/>
</g>
<!-- Node371 -->
<g id="node18" class="node">
<title>Node371</title>
<g id="a_node18"><a xlink:href="classamr__wind_1_1_zalesak_disk.html" target="_top" xlink:title=" ">
<polygon fill="white" stroke="black" points="157,-372 157,-391 288,-391 288,-372 157,-372"/>
<text text-anchor="middle" x="222.5" y="-379" font-family="Helvetica,sans-Serif" font-size="10.00">amr_wind::ZalesakDisk</text>
</a>
</g>
</g>
<!-- Node354&#45;&gt;Node371 -->
<g id="edge17" class="edge">
<title>Node354&#45;&gt;Node371</title>
<path fill="none" stroke="midnightblue" d="M57.68,-514.46C69,-485.14 94.8,-429.32 136,-400.5 142.23,-396.14 149.29,-392.76 156.61,-390.14"/>
<polygon fill="midnightblue" stroke="midnightblue" points="54.35,-513.37 54.17,-523.96 60.92,-515.8 54.35,-513.37"/>
</g>
<!-- Node372 -->
<g id="node19" class="node">
<title>Node372</title>
<g id="a_node19"><a xlink:href="classamr__wind_1_1actuator_1_1_actuator.html" target="_top" xlink:title="Actuator line/disk modeling for wind turbines.">
<polygon fill="white" stroke="black" points="167,-322.5 167,-352.5 278,-352.5 278,-322.5 167,-322.5"/>
<text text-anchor="start" x="175" y="-340.5" font-family="Helvetica,sans-Serif" font-size="10.00">amr_wind::actuator</text>
<text text-anchor="middle" x="222.5" y="-329.5" font-family="Helvetica,sans-Serif" font-size="10.00">::Actuator</text>
</a>
</g>
</g>
<!-- Node354&#45;&gt;Node372 -->
<g id="edge18" class="edge">
<title>Node354&#45;&gt;Node372</title>
<path fill="none" stroke="midnightblue" d="M55.35,-513.55C64.18,-477.85 87.6,-403.02 136,-362.5 144.78,-355.15 155.62,-349.97 166.61,-346.3"/>
<polygon fill="midnightblue" stroke="midnightblue" points="51.85,-513.13 52.98,-523.67 58.67,-514.73 51.85,-513.13"/>
</g>
<!-- Node373 -->
<g id="node20" class="node">
<title>Node373</title>
<g id="a_node20"><a xlink:href="classamr__wind_1_1channel__flow_1_1_channel_flow.html" target="_top" xlink:title="Channel Flow physics.">
<polygon fill="white" stroke="black" points="155.5,-273.5 155.5,-303.5 289.5,-303.5 289.5,-273.5 155.5,-273.5"/>
<text text-anchor="start" x="163.5" y="-291.5" font-family="Helvetica,sans-Serif" font-size="10.00">amr_wind::channel_flow</text>
<text text-anchor="middle" x="222.5" y="-280.5" font-family="Helvetica,sans-Serif" font-size="10.00">::ChannelFlow</text>
</a>
</g>
</g>
<!-- Node354&#45;&gt;Node373 -->
<g id="edge19" class="edge">
<title>Node354&#45;&gt;Node373</title>
<path fill="none" stroke="midnightblue" d="M52.83,-513.97C57.89,-471.2 75.95,-368.7 136,-313.5 141.58,-308.37 148.16,-304.29 155.14,-301.04"/>
<polygon fill="midnightblue" stroke="midnightblue" points="49.35,-513.61 51.76,-523.92 56.31,-514.35 49.35,-513.61"/>
</g>
<!-- Node374 -->
<g id="node21" class="node">
<title>Node374</title>
<g id="a_node21"><a xlink:href="classamr__wind_1_1ctv_1_1_convecting_taylor_vortex.html" target="_top" xlink:title="Convecting Taylor Vortex physics.">
<polygon fill="white" stroke="black" points="149.5,-224.5 149.5,-254.5 295.5,-254.5 295.5,-224.5 149.5,-224.5"/>
<text text-anchor="start" x="157.5" y="-242.5" font-family="Helvetica,sans-Serif" font-size="10.00">amr_wind::ctv::Convecting</text>
<text text-anchor="middle" x="222.5" y="-231.5" font-family="Helvetica,sans-Serif" font-size="10.00">TaylorVortex</text>
</a>
</g>
</g>
<!-- Node354&#45;&gt;Node374 -->
<g id="edge20" class="edge">
<title>Node354&#45;&gt;Node374</title>
<path fill="none" stroke="midnightblue" d="M51.24,-513.77C52.95,-464.42 64.39,-334.58 136,-264.5 139.98,-260.61 144.53,-257.31 149.41,-254.53"/>
<polygon fill="midnightblue" stroke="midnightblue" points="47.74,-513.69 51,-523.77 54.74,-513.86 47.74,-513.69"/>
</g>
<!-- Node375 -->
<g id="node22" class="node">
<title>Node375</title>
<g id="a_node22"><a xlink:href="classamr__wind_1_1hybrid__rans__les__abl_1_1_hybrid_r_a_n_s_l_e_s_a_b_l.html" target="_top" xlink:title="Hybrid RANS/LES with ABL.">
<polygon fill="white" stroke="black" points="143.5,-175.5 143.5,-205.5 301.5,-205.5 301.5,-175.5 143.5,-175.5"/>
<text text-anchor="start" x="151.5" y="-193.5" font-family="Helvetica,sans-Serif" font-size="10.00">amr_wind::hybrid_rans</text>
<text text-anchor="middle" x="222.5" y="-182.5" font-family="Helvetica,sans-Serif" font-size="10.00">_les_abl::HybridRANSLESABL</text>
</a>
</g>
</g>
<!-- Node354&#45;&gt;Node375 -->
<g id="edge21" class="edge">
<title>Node354&#45;&gt;Node375</title>
<path fill="none" stroke="midnightblue" d="M53.7,-513.9C62.67,-451.53 93.33,-259.18 136,-215.5 139.78,-211.63 144.13,-208.35 148.81,-205.57"/>
<polygon fill="midnightblue" stroke="midnightblue" points="50.21,-513.58 52.28,-523.97 57.14,-514.56 50.21,-513.58"/>
</g>
<!-- Node376 -->
<g id="node23" class="node">
<title>Node376</title>
<g id="a_node23"><a xlink:href="classamr__wind_1_1ib_1_1_i_b.html" target="_top" xlink:title="Immersed boundary modeling for non&#45;blade wind components and complex terrain.">
<polygon fill="white" stroke="black" points="175,-137 175,-156 270,-156 270,-137 175,-137"/>
<text text-anchor="middle" x="222.5" y="-144" font-family="Helvetica,sans-Serif" font-size="10.00">amr_wind::ib::IB</text>
</a>
</g>
</g>
<!-- Node354&#45;&gt;Node376 -->
<g id="edge22" class="edge">
<title>Node354&#45;&gt;Node376</title>
<path fill="none" stroke="midnightblue" d="M52.88,-513.54C59.78,-444.4 86,-216.61 136,-166.5 146.23,-156.25 160.64,-150.85 174.72,-148.12"/>
<polygon fill="midnightblue" stroke="midnightblue" points="49.36,-513.59 51.87,-523.88 56.32,-514.27 49.36,-513.59"/>
</g>
<!-- Node377 -->
<g id="node24" class="node">
<title>Node377</title>
<g id="a_node24"><a xlink:href="classamr__wind_1_1mms_1_1_m_m_s.html" target="_top" xlink:title="Method of manufactured solutions physics.">
<polygon fill="white" stroke="black" points="160,-99 160,-118 285,-118 285,-99 160,-99"/>
<text text-anchor="middle" x="222.5" y="-106" font-family="Helvetica,sans-Serif" font-size="10.00">amr_wind::mms::MMS</text>
</a>
</g>
</g>
<!-- Node354&#45;&gt;Node377 -->
<g id="edge23" class="edge">
<title>Node354&#45;&gt;Node377</title>
<path fill="none" stroke="midnightblue" d="M52.36,-513.82C57.82,-440.36 80.64,-183.55 136,-127.5 142.52,-120.9 150.78,-116.37 159.6,-113.29"/>
<polygon fill="midnightblue" stroke="midnightblue" points="48.85,-513.75 51.63,-523.98 55.83,-514.25 48.85,-513.75"/>
</g>
<!-- Node378 -->
<g id="node25" class="node">
<title>Node378</title>
<g id="a_node25"><a xlink:href="classamr__wind_1_1ocean__waves_1_1_ocean_waves.html" target="_top" xlink:title="ocean waves modeling">
<polygon fill="white" stroke="black" points="154,-49.5 154,-79.5 291,-79.5 291,-49.5 154,-49.5"/>
<text text-anchor="start" x="162" y="-67.5" font-family="Helvetica,sans-Serif" font-size="10.00">amr_wind::ocean_waves</text>
<text text-anchor="middle" x="222.5" y="-56.5" font-family="Helvetica,sans-Serif" font-size="10.00">::OceanWaves</text>
</a>
</g>
</g>
<!-- Node354&#45;&gt;Node378 -->
<g id="edge24" class="edge">
<title>Node354&#45;&gt;Node378</title>
<path fill="none" stroke="midnightblue" d="M52.11,-513.63C56.86,-435.88 77.88,-153.44 136,-89.5 140.99,-84.01 147.12,-79.69 153.78,-76.31"/>
<polygon fill="midnightblue" stroke="midnightblue" points="48.6,-513.74 51.51,-523.93 55.59,-514.15 48.6,-513.74"/>
</g>
<!-- Node379 -->
<g id="node26" class="node">
<title>Node379</title>
<g id="a_node26"><a xlink:href="classamr__wind_1_1zds_1_1_zalesak_disk_scalar_vel.html" target="_top" xlink:title=" ">
<polygon fill="white" stroke="black" points="145.5,-0.5 145.5,-30.5 299.5,-30.5 299.5,-0.5 145.5,-0.5"/>
<text text-anchor="start" x="153.5" y="-18.5" font-family="Helvetica,sans-Serif" font-size="10.00">amr_wind::zds::ZalesakDisk</text>
<text text-anchor="middle" x="222.5" y="-7.5" font-family="Helvetica,sans-Serif" font-size="10.00">ScalarVel</text>
</a>
</g>
</g>
<!-- Node354&#45;&gt;Node379 -->
<g id="edge25" class="edge">
<title>Node354&#45;&gt;Node379</title>
<path fill="none" stroke="midnightblue" d="M51.7,-513.59C55.02,-430.51 71.8,-112.45 136,-40.5 139.4,-36.69 143.34,-33.45 147.63,-30.69"/>
<polygon fill="midnightblue" stroke="midnightblue" points="48.2,-513.58 51.32,-523.7 55.19,-513.84 48.2,-513.58"/>
</g>
</g>
</svg>
