<?xml version="1.0" encoding="UTF-8" standalone="no"?>
<!DOCTYPE svg PUBLIC "-//W3C//DTD SVG 1.1//EN"
 "http://www.w3.org/Graphics/SVG/1.1/DTD/svg11.dtd">
<!-- Generated by graphviz version 2.43.0 (0)
 -->
<!-- Title: Graphical Class Hierarchy Pages: 1 -->
<svg width="322pt" height="578pt"
 viewBox="0.00 0.00 322.00 578.00" xmlns="http://www.w3.org/2000/svg" xmlns:xlink="http://www.w3.org/1999/xlink">
<g id="graph0" class="graph" transform="scale(1 1) rotate(0) translate(4 574)">
<title>Graphical Class Hierarchy</title>
<polygon fill="white" stroke="transparent" points="-4,4 -4,-574 318,-574 318,4 -4,4"/>
<!-- Node335 -->
<g id="node1" class="node">
<title>Node335</title>
<g id="a_node1"><a xlink:title=" ">
<polygon fill="white" stroke="#bfbfbf" points="0,-275 0,-294 152,-294 152,-275 0,-275"/>
<text text-anchor="middle" x="76" y="-282" font-family="Helvetica,sans-Serif" font-size="10.00">MomentumSource::Register</text>
</a>
</g>
</g>
<!-- Node0 -->
<g id="node2" class="node">
<title>Node0</title>
<g id="a_node2"><a xlink:href="classamr__wind_1_1pde_1_1icns_1_1_a_b_l_forcing.html" target="_top" xlink:title="Forcing term to drive the ABL profile to a desired state.">
<polygon fill="white" stroke="black" points="194,-539.5 194,-569.5 308,-569.5 308,-539.5 194,-539.5"/>
<text text-anchor="start" x="202" y="-557.5" font-family="Helvetica,sans-Serif" font-size="10.00">amr_wind::pde::icns</text>
<text text-anchor="middle" x="251" y="-546.5" font-family="Helvetica,sans-Serif" font-size="10.00">::ABLForcing</text>
</a>
</g>
</g>
<!-- Node335&#45;&gt;Node0 -->
<g id="edge1" class="edge">
<title>Node335&#45;&gt;Node0</title>
<path fill="none" stroke="midnightblue" d="M80.57,-304.11C89.93,-350.01 119.31,-465.46 188,-530.5 191.6,-533.91 195.75,-536.86 200.14,-539.39"/>
<polygon fill="midnightblue" stroke="midnightblue" points="83.96,-303.16 78.62,-294.01 77.08,-304.49 83.96,-303.16"/>
</g>
<!-- Node337 -->
<g id="node3" class="node">
<title>Node337</title>
<g id="a_node3"><a xlink:href="classamr__wind_1_1pde_1_1icns_1_1_a_b_l_mean_boussinesq.html" target="_top" xlink:title="Boussinesq bouyancy source term.">
<polygon fill="white" stroke="black" points="189,-490.5 189,-520.5 313,-520.5 313,-490.5 189,-490.5"/>
<text text-anchor="start" x="197" y="-508.5" font-family="Helvetica,sans-Serif" font-size="10.00">amr_wind::pde::icns</text>
<text text-anchor="middle" x="251" y="-497.5" font-family="Helvetica,sans-Serif" font-size="10.00">::ABLMeanBoussinesq</text>
</a>
</g>
</g>
<!-- Node335&#45;&gt;Node337 -->
<g id="edge2" class="edge">
<title>Node335&#45;&gt;Node337</title>
<path fill="none" stroke="midnightblue" d="M82.92,-303.83C95.8,-342.77 129.94,-431.24 188,-481.5 191.93,-484.9 196.39,-487.85 201.08,-490.39"/>
<polygon fill="midnightblue" stroke="midnightblue" points="86.23,-302.69 79.85,-294.23 79.57,-304.82 86.23,-302.69"/>
</g>
<!-- Node338 -->
<g id="node4" class="node">
<title>Node338</title>
<g id="a_node4"><a xlink:href="classamr__wind_1_1pde_1_1icns_1_1_actuator_forcing.html" target="_top" xlink:title="Body forces introduced by turbines modeled as actuators in flow field.">
<polygon fill="white" stroke="black" points="194,-441.5 194,-471.5 308,-471.5 308,-441.5 194,-441.5"/>
<text text-anchor="start" x="202" y="-459.5" font-family="Helvetica,sans-Serif" font-size="10.00">amr_wind::pde::icns</text>
<text text-anchor="middle" x="251" y="-448.5" font-family="Helvetica,sans-Serif" font-size="10.00">::ActuatorForcing</text>
</a>
</g>
</g>
<!-- Node335&#45;&gt;Node338 -->
<g id="edge3" class="edge">
<title>Node335&#45;&gt;Node338</title>
<path fill="none" stroke="midnightblue" d="M86.47,-303.16C103.05,-334.12 140.18,-396.27 188,-432.5 192.51,-435.92 197.56,-438.9 202.79,-441.5"/>
<polygon fill="midnightblue" stroke="midnightblue" points="89.56,-301.52 81.82,-294.28 83.35,-304.76 89.56,-301.52"/>
</g>
<!-- Node339 -->
<g id="node5" class="node">
<title>Node339</title>
<g id="a_node5"><a xlink:href="classamr__wind_1_1pde_1_1icns_1_1_body_force.html" target="_top" xlink:title="Apply a user&#45;defined body force as a source term.">
<polygon fill="white" stroke="black" points="194,-392.5 194,-422.5 308,-422.5 308,-392.5 194,-392.5"/>
<text text-anchor="start" x="202" y="-410.5" font-family="Helvetica,sans-Serif" font-size="10.00">amr_wind::pde::icns</text>
<text text-anchor="middle" x="251" y="-399.5" font-family="Helvetica,sans-Serif" font-size="10.00">::BodyForce</text>
</a>
</g>
</g>
<!-- Node335&#45;&gt;Node339 -->
<g id="edge4" class="edge">
<title>Node335&#45;&gt;Node339</title>
<path fill="none" stroke="midnightblue" d="M92.45,-301.66C112.63,-323.22 149.91,-360.21 188,-383.5 193.42,-386.81 199.37,-389.81 205.37,-392.47"/>
<polygon fill="midnightblue" stroke="midnightblue" points="94.94,-299.19 85.59,-294.21 89.79,-303.93 94.94,-299.19"/>
</g>
<!-- Node340 -->
<g id="node6" class="node">
<title>Node340</title>
<g id="a_node6"><a xlink:href="classamr__wind_1_1pde_1_1icns_1_1_boussinesq_buoyancy.html" target="_top" xlink:title="Boussinesq bouyancy source term.">
<polygon fill="white" stroke="black" points="188,-343.5 188,-373.5 314,-373.5 314,-343.5 188,-343.5"/>
<text text-anchor="start" x="196" y="-361.5" font-family="Helvetica,sans-Serif" font-size="10.00">amr_wind::pde::icns</text>
<text text-anchor="middle" x="251" y="-350.5" font-family="Helvetica,sans-Serif" font-size="10.00">::BoussinesqBuoyancy</text>
</a>
</g>
</g>
<!-- Node335&#45;&gt;Node340 -->
<g id="edge5" class="edge">
<title>Node335&#45;&gt;Node340</title>
<path fill="none" stroke="midnightblue" d="M106.56,-298.34C128.81,-308.63 160.15,-322.85 188,-334.5 195.13,-337.48 202.78,-340.55 210.18,-343.45"/>
<polygon fill="midnightblue" stroke="midnightblue" points="107.86,-295.08 97.31,-294.05 104.91,-301.43 107.86,-295.08"/>
</g>
<!-- Node341 -->
<g id="node7" class="node">
<title>Node341</title>
<g id="a_node7"><a xlink:href="classamr__wind_1_1pde_1_1icns_1_1_coriolis_forcing.html" target="_top" xlink:title="Account for Coriolis forcing due to earth&#39;s rotation.">
<polygon fill="white" stroke="black" points="194,-294.5 194,-324.5 308,-324.5 308,-294.5 194,-294.5"/>
<text text-anchor="start" x="202" y="-312.5" font-family="Helvetica,sans-Serif" font-size="10.00">amr_wind::pde::icns</text>
<text text-anchor="middle" x="251" y="-301.5" font-family="Helvetica,sans-Serif" font-size="10.00">::CoriolisForcing</text>
</a>
</g>
</g>
<!-- Node335&#45;&gt;Node341 -->
<g id="edge6" class="edge">
<title>Node335&#45;&gt;Node341</title>
<path fill="none" stroke="midnightblue" d="M152.85,-295.46C166.64,-297.45 180.79,-299.5 193.88,-301.39"/>
<polygon fill="midnightblue" stroke="midnightblue" points="153.3,-291.99 142.9,-294.02 152.29,-298.92 153.3,-291.99"/>
</g>
<!-- Node342 -->
<g id="node8" class="node">
<title>Node342</title>
<g id="a_node8"><a xlink:href="classamr__wind_1_1pde_1_1icns_1_1_density_buoyancy.html" target="_top" xlink:title="Buoyancy term from density variations.">
<polygon fill="white" stroke="black" points="194,-245.5 194,-275.5 308,-275.5 308,-245.5 194,-245.5"/>
<text text-anchor="start" x="202" y="-263.5" font-family="Helvetica,sans-Serif" font-size="10.00">amr_wind::pde::icns</text>
<text text-anchor="middle" x="251" y="-252.5" font-family="Helvetica,sans-Serif" font-size="10.00">::DensityBuoyancy</text>
</a>
</g>
</g>
<!-- Node335&#45;&gt;Node342 -->
<g id="edge7" class="edge">
<title>Node335&#45;&gt;Node342</title>
<path fill="none" stroke="midnightblue" d="M156.04,-273.54C168.8,-271.76 181.78,-269.96 193.86,-268.29"/>
<polygon fill="midnightblue" stroke="midnightblue" points="155.3,-270.1 145.87,-274.95 156.26,-277.04 155.3,-270.1"/>
</g>
<!-- Node343 -->
<g id="node9" class="node">
<title>Node343</title>
<g id="a_node9"><a xlink:href="classamr__wind_1_1pde_1_1icns_1_1_geostrophic_forcing.html" target="_top" xlink:title="Apply source term equivalent to drive the flow to match given geostrophic wind.">
<polygon fill="white" stroke="black" points="193,-196.5 193,-226.5 309,-226.5 309,-196.5 193,-196.5"/>
<text text-anchor="start" x="201" y="-214.5" font-family="Helvetica,sans-Serif" font-size="10.00">amr_wind::pde::icns</text>
<text text-anchor="middle" x="251" y="-203.5" font-family="Helvetica,sans-Serif" font-size="10.00">::GeostrophicForcing</text>
</a>
</g>
</g>
<!-- Node335&#45;&gt;Node343 -->
<g id="edge8" class="edge">
<title>Node335&#45;&gt;Node343</title>
<path fill="none" stroke="midnightblue" d="M107.89,-270.9C130.12,-261.17 160.83,-247.85 188,-236.5 195.82,-233.23 204.22,-229.8 212.23,-226.55"/>
<polygon fill="midnightblue" stroke="midnightblue" points="106.38,-267.74 98.63,-274.96 109.19,-274.15 106.38,-267.74"/>
</g>
<!-- Node344 -->
<g id="node10" class="node">
<title>Node344</title>
<g id="a_node10"><a xlink:href="classamr__wind_1_1pde_1_1icns_1_1_gravity_forcing.html" target="_top" xlink:title="Gravity Forcing term.">
<polygon fill="white" stroke="black" points="194,-147.5 194,-177.5 308,-177.5 308,-147.5 194,-147.5"/>
<text text-anchor="start" x="202" y="-165.5" font-family="Helvetica,sans-Serif" font-size="10.00">amr_wind::pde::icns</text>
<text text-anchor="middle" x="251" y="-154.5" font-family="Helvetica,sans-Serif" font-size="10.00">::GravityForcing</text>
</a>
</g>
</g>
<!-- Node335&#45;&gt;Node344 -->
<g id="edge9" class="edge">
<title>Node335&#45;&gt;Node344</title>
<path fill="none" stroke="midnightblue" d="M92.89,-267.47C113.27,-246.41 150.48,-210.54 188,-187.5 193.93,-183.86 200.49,-180.55 207.06,-177.62"/>
<polygon fill="midnightblue" stroke="midnightblue" points="90.3,-265.11 85.93,-274.76 95.37,-269.94 90.3,-265.11"/>
</g>
<!-- Node345 -->
<g id="node11" class="node">
<title>Node345</title>
<g id="a_node11"><a xlink:href="classamr__wind_1_1pde_1_1icns_1_1_hurricane_forcing.html" target="_top" xlink:title="Idealized Hurricane forcing source term Apply mesoscale tendency source term to drive the flow and ma...">
<polygon fill="white" stroke="black" points="194,-98.5 194,-128.5 308,-128.5 308,-98.5 194,-98.5"/>
<text text-anchor="start" x="202" y="-116.5" font-family="Helvetica,sans-Serif" font-size="10.00">amr_wind::pde::icns</text>
<text text-anchor="middle" x="251" y="-105.5" font-family="Helvetica,sans-Serif" font-size="10.00">::HurricaneForcing</text>
</a>
</g>
</g>
<!-- Node335&#45;&gt;Node345 -->
<g id="edge10" class="edge">
<title>Node335&#45;&gt;Node345</title>
<path fill="none" stroke="midnightblue" d="M86.81,-265.77C103.67,-235.21 140.93,-174.43 188,-138.5 192.98,-134.7 198.62,-131.39 204.42,-128.53"/>
<polygon fill="midnightblue" stroke="midnightblue" points="83.55,-264.43 81.89,-274.9 89.71,-267.76 83.55,-264.43"/>
</g>
<!-- Node346 -->
<g id="node12" class="node">
<title>Node346</title>
<g id="a_node12"><a xlink:href="classamr__wind_1_1pde_1_1icns_1_1_synth_turb_forcing.html" target="_top" xlink:title="Synthetic turbulence momentum source term.">
<polygon fill="white" stroke="black" points="194,-49.5 194,-79.5 308,-79.5 308,-49.5 194,-49.5"/>
<text text-anchor="start" x="202" y="-67.5" font-family="Helvetica,sans-Serif" font-size="10.00">amr_wind::pde::icns</text>
<text text-anchor="middle" x="251" y="-56.5" font-family="Helvetica,sans-Serif" font-size="10.00">::SynthTurbForcing</text>
</a>
</g>
</g>
<!-- Node335&#45;&gt;Node346 -->
<g id="edge11" class="edge">
<title>Node335&#45;&gt;Node346</title>
<path fill="none" stroke="midnightblue" d="M83.21,-264.94C96.42,-226.26 130.87,-139.43 188,-89.5 192.37,-85.68 197.4,-82.4 202.66,-79.59"/>
<polygon fill="midnightblue" stroke="midnightblue" points="79.73,-264.31 79.91,-274.91 86.38,-266.51 79.73,-264.31"/>
</g>
<!-- Node347 -->
<g id="node13" class="node">
<title>Node347</title>
<g id="a_node13"><a xlink:href="classamr__wind_1_1pde_1_1icns_1_1mms_1_1_m_m_s_forcing.html" target="_top" xlink:title=" ">
<polygon fill="white" stroke="black" points="194,-0.5 194,-30.5 308,-30.5 308,-0.5 194,-0.5"/>
<text text-anchor="start" x="202" y="-18.5" font-family="Helvetica,sans-Serif" font-size="10.00">amr_wind::pde::icns</text>
<text text-anchor="middle" x="251" y="-7.5" font-family="Helvetica,sans-Serif" font-size="10.00">::mms::MMSForcing</text>
</a>
</g>
</g>
<!-- Node335&#45;&gt;Node347 -->
<g id="edge12" class="edge">
<title>Node335&#45;&gt;Node347</title>
<path fill="none" stroke="midnightblue" d="M80.76,-264.78C90.42,-219.16 120.3,-105.31 188,-40.5 192.02,-36.65 196.72,-33.36 201.69,-30.56"/>
<polygon fill="midnightblue" stroke="midnightblue" points="77.32,-264.11 78.77,-274.6 84.18,-265.5 77.32,-264.11"/>
</g>
</g>
</svg>
