<?xml version="1.0" encoding="UTF-8" standalone="no"?>
<!DOCTYPE svg PUBLIC "-//W3C//DTD SVG 1.1//EN"
 "http://www.w3.org/Graphics/SVG/1.1/DTD/svg11.dtd">
<!-- Generated by graphviz version 2.43.0 (0)
 -->
<!-- Title: trig_ops.H Pages: 1 -->
<!--zoomable 375 -->
<svg id="main" version="1.1" xmlns="http://www.w3.org/2000/svg" xmlns:xlink="http://www.w3.org/1999/xlink" xml:space="preserve" onload="init(evt)">
<style type="text/css"><![CDATA[
.edge:hover path { stroke: red; }
.edge:hover polygon { stroke: red; fill: red; }
]]></style>
<script type="text/javascript"><![CDATA[
var edges = document.getElementsByTagName('g');
if (edges && edges.length) {
  for (var i=0;i<edges.length;i++) {
    if (edges[i].id.substr(0,4)=='edge') {
      edges[i].setAttribute('class','edge');
    }
  }
}
]]></script>
        <defs>
                <circle id="rim" cx="0" cy="0" r="7"/>
                <circle id="rim2" cx="0" cy="0" r="3.5"/>
                <g id="zoomPlus">
                        <use xlink:href="#rim" fill="#404040">
                                <set attributeName="fill" to="#808080" begin="zoomplus.mouseover" end="zoomplus.mouseout"/>
                        </use>
                        <path d="M-4,0h8M0,-4v8" fill="none" stroke="white" stroke-width="1.5" pointer-events="none"/>
                </g>
                <g id="zoomMin">
                        <use xlink:href="#rim" fill="#404040">
                                <set attributeName="fill" to="#808080" begin="zoomminus.mouseover" end="zoomminus.mouseout"/>
                        </use>
                        <path d="M-4,0h8" fill="none" stroke="white" stroke-width="1.5" pointer-events="none"/>
                </g>
                <g id="dirArrow">
                        <path fill="none" stroke="white" stroke-width="1.5" d="M0,-3.0v7 M-2.5,-0.5L0,-3.0L2.5,-0.5"/>
                </g>
               <g id="resetDef">
                       <use xlink:href="#rim2" fill="#404040">
                               <set attributeName="fill" to="#808080" begin="reset.mouseover" end="reset.mouseout"/>
                       </use>
               </g>
        </defs>

<script type="text/javascript">
var viewWidth = 3161;
var viewHeight = 375;
var sectionId = 'dynsection-1';
</script>
<script xlink:href="svgpan.js"/>
<svg id="graph" class="graph">
<g id="viewport">
<title>trig_ops.H</title>
<polygon fill="white" stroke="transparent" points="-4,4 -4,-371 3156.5,-371 3156.5,4 -4,4"/>
<!-- Node1 -->
<g id="node1" class="node">
<title>Node1</title>
<g id="a_node1"><a xlink:title="Trigonometric utilities.">
<polygon fill="#bfbfbf" stroke="black" points="1530.5,-347.5 1530.5,-366.5 1596.5,-366.5 1596.5,-347.5 1530.5,-347.5"/>
<text text-anchor="middle" x="1563.5" y="-354.5" font-family="Helvetica,sans-Serif" font-size="10.00">trig_ops.H</text>
</a>
</g>
</g>
<!-- Node2 -->
<g id="node2" class="node">
<title>Node2</title>
<g id="a_node2"><a xlink:href="tensor_i_8_h.html" target="_top" xlink:title=" ">
<polygon fill="white" stroke="black" points="191,-291.5 191,-310.5 252,-310.5 252,-291.5 191,-291.5"/>
<text text-anchor="middle" x="221.5" y="-298.5" font-family="Helvetica,sans-Serif" font-size="10.00">tensorI.H</text>
</a>
</g>
</g>
<!-- Node1&#45;&gt;Node2 -->
<g id="edge1" class="edge">
<title>Node1&#45;&gt;Node2</title>
<path fill="none" stroke="midnightblue" d="M1519.89,-355.31C1359.68,-352.6 788.48,-341.27 318.5,-311 296.22,-309.56 271.13,-307.22 252.05,-305.28"/>
<polygon fill="midnightblue" stroke="midnightblue" points="1520.22,-358.82 1530.28,-355.49 1520.34,-351.82 1520.22,-358.82"/>
</g>
<!-- Node75 -->
<g id="node8" class="node">
<title>Node75</title>
<g id="a_node8"><a xlink:href="_a_b_l_modulated_power_law_8_h.html" target="_top" xlink:title=" ">
<polygon fill="white" stroke="black" points="220.5,-123.5 220.5,-142.5 366.5,-142.5 366.5,-123.5 220.5,-123.5"/>
<text text-anchor="middle" x="293.5" y="-130.5" font-family="Helvetica,sans-Serif" font-size="10.00">ABLModulatedPowerLaw.H</text>
</a>
</g>
</g>
<!-- Node1&#45;&gt;Node75 -->
<g id="edge46" class="edge">
<title>Node1&#45;&gt;Node75</title>
<path fill="none" stroke="midnightblue" d="M1520.17,-355.58C1312.97,-353.4 431.22,-342.33 382.5,-311 320.01,-270.82 299.61,-172.43 294.76,-142.67"/>
<polygon fill="midnightblue" stroke="midnightblue" points="1520.32,-359.08 1530.36,-355.68 1520.39,-352.08 1520.32,-359.08"/>
</g>
<!-- Node77 -->
<g id="node10" class="node">
<title>Node77</title>
<g id="a_node10"><a xlink:href="_a_b_l_forcing_8cpp.html" target="_top" xlink:title=" ">
<polygon fill="white" stroke="black" points="293,-6 293,-25 384,-25 384,-6 293,-6"/>
<text text-anchor="middle" x="338.5" y="-13" font-family="Helvetica,sans-Serif" font-size="10.00">ABLForcing.cpp</text>
</a>
</g>
</g>
<!-- Node1&#45;&gt;Node77 -->
<g id="edge24" class="edge">
<title>Node1&#45;&gt;Node77</title>
<path fill="none" stroke="midnightblue" d="M1520.36,-355.47C1333.5,-353.02 598.93,-341.5 500.5,-311 448.43,-294.87 396.5,-300.51 396.5,-246 396.5,-246 396.5,-246 396.5,-132 396.5,-87.8 362.15,-43.23 346.32,-25.03"/>
<polygon fill="midnightblue" stroke="midnightblue" points="1520.32,-358.97 1530.36,-355.6 1520.41,-351.97 1520.32,-358.97"/>
</g>
<!-- Node79 -->
<g id="node12" class="node">
<title>Node79</title>
<g id="a_node12"><a xlink:href="_hurricane_forcing_8cpp.html" target="_top" xlink:title=" ">
<polygon fill="white" stroke="black" points="575,-6 575,-25 694,-25 694,-6 575,-6"/>
<text text-anchor="middle" x="634.5" y="-13" font-family="Helvetica,sans-Serif" font-size="10.00">HurricaneForcing.cpp</text>
</a>
</g>
</g>
<!-- Node1&#45;&gt;Node79 -->
<g id="edge32" class="edge">
<title>Node1&#45;&gt;Node79</title>
<path fill="none" stroke="midnightblue" d="M1520.41,-355.94C1326.64,-355.13 545.5,-345.66 545.5,-246 545.5,-246 545.5,-246 545.5,-132 545.5,-101.9 547.13,-91.58 564.5,-67 577.9,-48.03 600.74,-33.52 616.67,-25.02"/>
<polygon fill="midnightblue" stroke="midnightblue" points="1520.48,-359.44 1530.5,-355.98 1520.51,-352.44 1520.48,-359.44"/>
</g>
<!-- Node80 -->
<g id="node13" class="node">
<title>Node80</title>
<g id="a_node13"><a xlink:href="helics_8cpp.html" target="_top" xlink:title=" ">
<polygon fill="white" stroke="black" points="1281,-6 1281,-25 1346,-25 1346,-6 1281,-6"/>
<text text-anchor="middle" x="1313.5" y="-13" font-family="Helvetica,sans-Serif" font-size="10.00">helics.cpp</text>
</a>
</g>
</g>
<!-- Node1&#45;&gt;Node80 -->
<g id="edge33" class="edge">
<title>Node1&#45;&gt;Node80</title>
<path fill="none" stroke="midnightblue" d="M1520.31,-354.97C1403.3,-351.79 1086.48,-340.51 1050.5,-311 1027.23,-291.91 1031.5,-276.1 1031.5,-246 1031.5,-246 1031.5,-246 1031.5,-132 1031.5,-118.11 1221.26,-49.29 1289.46,-25"/>
<polygon fill="midnightblue" stroke="midnightblue" points="1520.26,-358.47 1530.35,-355.23 1520.45,-351.47 1520.26,-358.47"/>
</g>
<!-- Node85 -->
<g id="node18" class="node">
<title>Node85</title>
<g id="a_node18"><a xlink:href="_a_b_l_wall_function_8cpp.html" target="_top" xlink:title=" ">
<polygon fill="white" stroke="black" points="1146,-6 1146,-25 1263,-25 1263,-6 1146,-6"/>
<text text-anchor="middle" x="1204.5" y="-13" font-family="Helvetica,sans-Serif" font-size="10.00">ABLWallFunction.cpp</text>
</a>
</g>
</g>
<!-- Node1&#45;&gt;Node85 -->
<g id="edge47" class="edge">
<title>Node1&#45;&gt;Node85</title>
<path fill="none" stroke="midnightblue" d="M1519.92,-354.6C1400.19,-350.45 1072.4,-336.82 1031.5,-311 1003.2,-293.14 993.5,-279.46 993.5,-246 993.5,-246 993.5,-246 993.5,-132 993.5,-90.55 1120.36,-43.94 1177.35,-25.09"/>
<polygon fill="midnightblue" stroke="midnightblue" points="1520.06,-358.11 1530.18,-354.95 1520.3,-351.11 1520.06,-358.11"/>
</g>
<!-- Node108 -->
<g id="node22" class="node">
<title>Node108</title>
<g id="a_node22"><a xlink:href="_a_b_l_forcing_8_h.html" target="_top" xlink:title=" ">
<polygon fill="white" stroke="black" points="429,-67.5 429,-86.5 510,-86.5 510,-67.5 429,-67.5"/>
<text text-anchor="middle" x="469.5" y="-74.5" font-family="Helvetica,sans-Serif" font-size="10.00">ABLForcing.H</text>
</a>
</g>
</g>
<!-- Node1&#45;&gt;Node108 -->
<g id="edge25" class="edge">
<title>Node1&#45;&gt;Node108</title>
<path fill="none" stroke="midnightblue" d="M1520.32,-356.41C1335.73,-357.85 618.44,-360.2 531.5,-311 501.35,-293.94 488.5,-280.64 488.5,-246 488.5,-246 488.5,-246 488.5,-188 488.5,-149.82 477.25,-105.26 472.06,-86.75"/>
<polygon fill="midnightblue" stroke="midnightblue" points="1520.48,-359.91 1530.46,-356.33 1520.43,-352.91 1520.48,-359.91"/>
</g>
<!-- Node110 -->
<g id="node24" class="node">
<title>Node110</title>
<g id="a_node24"><a xlink:href="_body_force_8cpp.html" target="_top" xlink:title=" ">
<polygon fill="white" stroke="black" points="1059.5,-291.5 1059.5,-310.5 1147.5,-310.5 1147.5,-291.5 1059.5,-291.5"/>
<text text-anchor="middle" x="1103.5" y="-298.5" font-family="Helvetica,sans-Serif" font-size="10.00">BodyForce.cpp</text>
</a>
</g>
</g>
<!-- Node1&#45;&gt;Node110 -->
<g id="edge29" class="edge">
<title>Node1&#45;&gt;Node110</title>
<path fill="none" stroke="midnightblue" d="M1520.06,-352.03C1445.52,-345.04 1288.52,-329.49 1156.5,-311 1153.63,-310.6 1150.69,-310.16 1147.72,-309.71"/>
<polygon fill="midnightblue" stroke="midnightblue" points="1520.16,-355.56 1530.45,-353 1520.81,-348.59 1520.16,-355.56"/>
</g>
<!-- Node111 -->
<g id="node25" class="node">
<title>Node111</title>
<g id="a_node25"><a xlink:href="_coriolis_forcing_8cpp.html" target="_top" xlink:title=" ">
<polygon fill="white" stroke="black" points="1166,-291.5 1166,-310.5 1275,-310.5 1275,-291.5 1166,-291.5"/>
<text text-anchor="middle" x="1220.5" y="-298.5" font-family="Helvetica,sans-Serif" font-size="10.00">CoriolisForcing.cpp</text>
</a>
</g>
</g>
<!-- Node1&#45;&gt;Node111 -->
<g id="edge30" class="edge">
<title>Node1&#45;&gt;Node111</title>
<path fill="none" stroke="midnightblue" d="M1520.4,-349.21C1458.05,-339.4 1342.74,-321.25 1274.71,-310.53"/>
<polygon fill="midnightblue" stroke="midnightblue" points="1519.88,-352.68 1530.3,-350.77 1520.97,-345.76 1519.88,-352.68"/>
</g>
<!-- Node112 -->
<g id="node26" class="node">
<title>Node112</title>
<g id="a_node26"><a xlink:href="_geostrophic_forcing_8cpp.html" target="_top" xlink:title=" ">
<polygon fill="white" stroke="black" points="1293,-291.5 1293,-310.5 1424,-310.5 1424,-291.5 1293,-291.5"/>
<text text-anchor="middle" x="1358.5" y="-298.5" font-family="Helvetica,sans-Serif" font-size="10.00">GeostrophicForcing.cpp</text>
</a>
</g>
</g>
<!-- Node1&#45;&gt;Node112 -->
<g id="edge31" class="edge">
<title>Node1&#45;&gt;Node112</title>
<path fill="none" stroke="midnightblue" d="M1521.09,-344.83C1482.39,-334.63 1426.01,-319.78 1390.83,-310.52"/>
<polygon fill="midnightblue" stroke="midnightblue" points="1520.46,-348.28 1531.02,-347.44 1522.24,-341.51 1520.46,-348.28"/>
</g>
<!-- Node113 -->
<g id="node27" class="node">
<title>Node113</title>
<g id="a_node27"><a xlink:href="_channel_flow_8cpp.html" target="_top" xlink:title=" ">
<polygon fill="white" stroke="black" points="1442,-291.5 1442,-310.5 1541,-310.5 1541,-291.5 1442,-291.5"/>
<text text-anchor="middle" x="1491.5" y="-298.5" font-family="Helvetica,sans-Serif" font-size="10.00">ChannelFlow.cpp</text>
</a>
</g>
</g>
<!-- Node1&#45;&gt;Node113 -->
<g id="edge34" class="edge">
<title>Node1&#45;&gt;Node113</title>
<path fill="none" stroke="midnightblue" d="M1543.63,-341.1C1530.68,-331.38 1514.2,-319.03 1503.28,-310.83"/>
<polygon fill="midnightblue" stroke="midnightblue" points="1541.83,-344.12 1551.93,-347.32 1546.03,-338.52 1541.83,-344.12"/>
</g>
<!-- Node114 -->
<g id="node28" class="node">
<title>Node114</title>
<g id="a_node28"><a xlink:href="_convecting_taylor_vortex_8cpp.html" target="_top" xlink:title=" ">
<polygon fill="white" stroke="black" points="1559.5,-291.5 1559.5,-310.5 1711.5,-310.5 1711.5,-291.5 1559.5,-291.5"/>
<text text-anchor="middle" x="1635.5" y="-298.5" font-family="Helvetica,sans-Serif" font-size="10.00">ConvectingTaylorVortex.cpp</text>
</a>
</g>
</g>
<!-- Node1&#45;&gt;Node114 -->
<g id="edge35" class="edge">
<title>Node1&#45;&gt;Node114</title>
<path fill="none" stroke="midnightblue" d="M1583.37,-341.1C1596.32,-331.38 1612.8,-319.03 1623.72,-310.83"/>
<polygon fill="midnightblue" stroke="midnightblue" points="1580.97,-338.52 1575.07,-347.32 1585.17,-344.12 1580.97,-338.52"/>
</g>
<!-- Node115 -->
<g id="node29" class="node">
<title>Node115</title>
<g id="a_node29"><a xlink:href="_ekman_spiral_8cpp.html" target="_top" xlink:title=" ">
<polygon fill="white" stroke="black" points="1729.5,-291.5 1729.5,-310.5 1827.5,-310.5 1827.5,-291.5 1729.5,-291.5"/>
<text text-anchor="middle" x="1778.5" y="-298.5" font-family="Helvetica,sans-Serif" font-size="10.00">EkmanSpiral.cpp</text>
</a>
</g>
</g>
<!-- Node1&#45;&gt;Node115 -->
<g id="edge36" class="edge">
<title>Node1&#45;&gt;Node115</title>
<path fill="none" stroke="midnightblue" d="M1606.51,-345.2C1647.15,-334.99 1707.29,-319.88 1744.63,-310.51"/>
<polygon fill="midnightblue" stroke="midnightblue" points="1605.47,-341.85 1596.62,-347.68 1607.17,-348.64 1605.47,-341.85"/>
</g>
<!-- Node116 -->
<g id="node30" class="node">
<title>Node116</title>
<g id="a_node30"><a xlink:href="_free_stream_8cpp.html" target="_top" xlink:title=" ">
<polygon fill="white" stroke="black" points="1846,-291.5 1846,-310.5 1939,-310.5 1939,-291.5 1846,-291.5"/>
<text text-anchor="middle" x="1892.5" y="-298.5" font-family="Helvetica,sans-Serif" font-size="10.00">FreeStream.cpp</text>
</a>
</g>
</g>
<!-- Node1&#45;&gt;Node116 -->
<g id="edge37" class="edge">
<title>Node1&#45;&gt;Node116</title>
<path fill="none" stroke="midnightblue" d="M1606.76,-348.9C1668.66,-338.74 1782.06,-320.13 1845.81,-309.66"/>
<polygon fill="midnightblue" stroke="midnightblue" points="1605.85,-345.5 1596.55,-350.58 1606.99,-352.41 1605.85,-345.5"/>
</g>
<!-- Node117 -->
<g id="node31" class="node">
<title>Node117</title>
<g id="a_node31"><a xlink:href="_breaking_waves_8cpp.html" target="_top" xlink:title=" ">
<polygon fill="white" stroke="black" points="1957,-291.5 1957,-310.5 2070,-310.5 2070,-291.5 1957,-291.5"/>
<text text-anchor="middle" x="2013.5" y="-298.5" font-family="Helvetica,sans-Serif" font-size="10.00">BreakingWaves.cpp</text>
</a>
</g>
</g>
<!-- Node1&#45;&gt;Node117 -->
<g id="edge38" class="edge">
<title>Node1&#45;&gt;Node117</title>
<path fill="none" stroke="midnightblue" d="M1607.02,-351.17C1678.25,-343.21 1824.15,-326.64 1947.5,-311 1950.6,-310.61 1953.78,-310.2 1956.98,-309.78"/>
<polygon fill="midnightblue" stroke="midnightblue" points="1606.21,-347.74 1596.66,-352.33 1606.98,-354.7 1606.21,-347.74"/>
</g>
<!-- Node118 -->
<g id="node32" class="node">
<title>Node118</title>
<g id="a_node32"><a xlink:href="_scalar_advection_8_h.html" target="_top" xlink:title=" ">
<polygon fill="white" stroke="black" points="2088.5,-291.5 2088.5,-310.5 2194.5,-310.5 2194.5,-291.5 2088.5,-291.5"/>
<text text-anchor="middle" x="2141.5" y="-298.5" font-family="Helvetica,sans-Serif" font-size="10.00">ScalarAdvection.H</text>
</a>
</g>
</g>
<!-- Node1&#45;&gt;Node118 -->
<g id="edge39" class="edge">
<title>Node1&#45;&gt;Node118</title>
<path fill="none" stroke="midnightblue" d="M1606.92,-353.01C1695.66,-346.73 1904.14,-331.06 2078.5,-311 2081.68,-310.63 2084.95,-310.24 2088.25,-309.82"/>
<polygon fill="midnightblue" stroke="midnightblue" points="1606.43,-349.54 1596.7,-353.73 1606.92,-356.52 1606.43,-349.54"/>
</g>
<!-- Node66 -->
<g id="node34" class="node">
<title>Node66</title>
<g id="a_node34"><a xlink:href="_synthetic_turbulence_8cpp.html" target="_top" xlink:title=" ">
<polygon fill="white" stroke="black" points="2213,-291.5 2213,-310.5 2348,-310.5 2348,-291.5 2213,-291.5"/>
<text text-anchor="middle" x="2280.5" y="-298.5" font-family="Helvetica,sans-Serif" font-size="10.00">SyntheticTurbulence.cpp</text>
</a>
</g>
</g>
<!-- Node1&#45;&gt;Node66 -->
<g id="edge41" class="edge">
<title>Node1&#45;&gt;Node66</title>
<path fill="none" stroke="midnightblue" d="M1606.55,-353.66C1709.71,-347.91 1979.14,-331.99 2203.5,-311 2206.58,-310.71 2209.73,-310.4 2212.91,-310.08"/>
<polygon fill="midnightblue" stroke="midnightblue" points="1606.31,-350.17 1596.52,-354.22 1606.7,-357.16 1606.31,-350.17"/>
</g>
<!-- Node120 -->
<g id="node35" class="node">
<title>Node120</title>
<g id="a_node35"><a xlink:href="_taylor_green_vortex_8cpp.html" target="_top" xlink:title=" ">
<polygon fill="white" stroke="black" points="2366,-291.5 2366,-310.5 2493,-310.5 2493,-291.5 2366,-291.5"/>
<text text-anchor="middle" x="2429.5" y="-298.5" font-family="Helvetica,sans-Serif" font-size="10.00">TaylorGreenVortex.cpp</text>
</a>
</g>
</g>
<!-- Node1&#45;&gt;Node120 -->
<g id="edge42" class="edge">
<title>Node1&#45;&gt;Node120</title>
<path fill="none" stroke="midnightblue" d="M1607.02,-354.54C1726.76,-350.3 2071.2,-336.65 2356.5,-311 2359.55,-310.73 2362.67,-310.42 2365.83,-310.1"/>
<polygon fill="midnightblue" stroke="midnightblue" points="1606.67,-351.05 1596.8,-354.9 1606.91,-358.05 1606.67,-351.05"/>
</g>
<!-- Node121 -->
<g id="node36" class="node">
<title>Node121</title>
<g id="a_node36"><a xlink:href="_vortex_ring_8cpp.html" target="_top" xlink:title=" ">
<polygon fill="white" stroke="black" points="2511.5,-291.5 2511.5,-310.5 2601.5,-310.5 2601.5,-291.5 2511.5,-291.5"/>
<text text-anchor="middle" x="2556.5" y="-298.5" font-family="Helvetica,sans-Serif" font-size="10.00">VortexRing.cpp</text>
</a>
</g>
</g>
<!-- Node1&#45;&gt;Node121 -->
<g id="edge43" class="edge">
<title>Node1&#45;&gt;Node121</title>
<path fill="none" stroke="midnightblue" d="M1607.09,-355.68C1741,-354.31 2158.15,-347.21 2501.5,-311 2504.68,-310.67 2507.95,-310.27 2511.23,-309.83"/>
<polygon fill="midnightblue" stroke="midnightblue" points="1606.8,-352.18 1596.84,-355.78 1606.87,-359.18 1606.8,-352.18"/>
</g>
<!-- Node122 -->
<g id="node37" class="node">
<title>Node122</title>
<g id="a_node37"><a xlink:href="_a_b_l_field_init_8cpp.html" target="_top" xlink:title=" ">
<polygon fill="white" stroke="black" points="2620,-291.5 2620,-310.5 2715,-310.5 2715,-291.5 2620,-291.5"/>
<text text-anchor="middle" x="2667.5" y="-298.5" font-family="Helvetica,sans-Serif" font-size="10.00">ABLFieldInit.cpp</text>
</a>
</g>
</g>
<!-- Node1&#45;&gt;Node122 -->
<g id="edge44" class="edge">
<title>Node1&#45;&gt;Node122</title>
<path fill="none" stroke="midnightblue" d="M1606.74,-355.9C1750.05,-355.19 2222.39,-349.85 2610.5,-311 2613.59,-310.69 2616.77,-310.32 2619.97,-309.92"/>
<polygon fill="midnightblue" stroke="midnightblue" points="1606.59,-352.4 1596.6,-355.94 1606.62,-359.4 1606.59,-352.4"/>
</g>
<!-- Node123 -->
<g id="node38" class="node">
<title>Node123</title>
<g id="a_node38"><a xlink:href="_a_b_l_field_init_file_8cpp.html" target="_top" xlink:title=" ">
<polygon fill="white" stroke="black" points="2733.5,-291.5 2733.5,-310.5 2845.5,-310.5 2845.5,-291.5 2733.5,-291.5"/>
<text text-anchor="middle" x="2789.5" y="-298.5" font-family="Helvetica,sans-Serif" font-size="10.00">ABLFieldInitFile.cpp</text>
</a>
</g>
</g>
<!-- Node1&#45;&gt;Node123 -->
<g id="edge45" class="edge">
<title>Node1&#45;&gt;Node123</title>
<path fill="none" stroke="midnightblue" d="M1607.19,-355.83C1760.65,-354.89 2289.21,-348.95 2723.5,-311 2726.73,-310.72 2730.04,-310.39 2733.37,-310.03"/>
<polygon fill="midnightblue" stroke="midnightblue" points="1606.77,-352.33 1596.79,-355.89 1606.81,-359.33 1606.77,-352.33"/>
</g>
<!-- Node39 -->
<g id="node39" class="node">
<title>Node39</title>
<g id="a_node39"><a xlink:href="_joukowsky__ops_8_h.html" target="_top" xlink:title=" ">
<polygon fill="white" stroke="black" points="2984,-291.5 2984,-310.5 3085,-310.5 3085,-291.5 2984,-291.5"/>
<text text-anchor="middle" x="3034.5" y="-298.5" font-family="Helvetica,sans-Serif" font-size="10.00">Joukowsky_ops.H</text>
</a>
</g>
</g>
<!-- Node1&#45;&gt;Node39 -->
<g id="edge48" class="edge">
<title>Node1&#45;&gt;Node39</title>
<path fill="none" stroke="midnightblue" d="M1606.88,-356.46C1779.84,-357.92 2436.86,-359.73 2974.5,-311 2977.54,-310.72 2980.67,-310.4 2983.81,-310.03"/>
<polygon fill="midnightblue" stroke="midnightblue" points="1606.69,-352.96 1596.66,-356.37 1606.63,-359.96 1606.69,-352.96"/>
</g>
<!-- Node40 -->
<g id="node42" class="node">
<title>Node40</title>
<g id="a_node42"><a xlink:href="uniform__ct__ops_8_h.html" target="_top" xlink:title=" ">
<polygon fill="white" stroke="black" points="2863.5,-291.5 2863.5,-310.5 2965.5,-310.5 2965.5,-291.5 2863.5,-291.5"/>
<text text-anchor="middle" x="2914.5" y="-298.5" font-family="Helvetica,sans-Serif" font-size="10.00">uniform_ct_ops.H</text>
</a>
</g>
</g>
<!-- Node1&#45;&gt;Node40 -->
<g id="edge51" class="edge">
<title>Node1&#45;&gt;Node40</title>
<path fill="none" stroke="midnightblue" d="M1606.63,-356.28C1769.98,-356.95 2366.1,-355.99 2854.5,-311 2857.44,-310.73 2860.45,-310.41 2863.48,-310.06"/>
<polygon fill="midnightblue" stroke="midnightblue" points="1606.52,-352.78 1596.51,-356.23 1606.49,-359.78 1606.52,-352.78"/>
</g>
<!-- Node124 -->
<g id="node44" class="node">
<title>Node124</title>
<g id="a_node44"><a xlink:href="_m_o_data_8_h.html" target="_top" xlink:title=" ">
<polygon fill="white" stroke="black" points="844,-235.5 844,-254.5 911,-254.5 911,-235.5 844,-235.5"/>
<text text-anchor="middle" x="877.5" y="-242.5" font-family="Helvetica,sans-Serif" font-size="10.00">MOData.H</text>
</a>
</g>
</g>
<!-- Node1&#45;&gt;Node124 -->
<g id="edge54" class="edge">
<title>Node1&#45;&gt;Node124</title>
<path fill="none" stroke="midnightblue" d="M1520.14,-355.38C1402.57,-353.26 1079.8,-344.48 979.5,-311 942.05,-298.5 904.6,-269.31 887.34,-254.68"/>
<polygon fill="midnightblue" stroke="midnightblue" points="1520.15,-358.88 1530.21,-355.55 1520.28,-351.88 1520.15,-358.88"/>
</g>
<!-- Node3 -->
<g id="node3" class="node">
<title>Node3</title>
<g id="a_node3"><a xlink:href="tensor_8_h.html" target="_top" xlink:title=" ">
<polygon fill="white" stroke="black" points="193,-235.5 193,-254.5 250,-254.5 250,-235.5 193,-235.5"/>
<text text-anchor="middle" x="221.5" y="-242.5" font-family="Helvetica,sans-Serif" font-size="10.00">tensor.H</text>
</a>
</g>
</g>
<!-- Node2&#45;&gt;Node3 -->
<g id="edge2" class="edge">
<title>Node2&#45;&gt;Node3</title>
<path fill="none" stroke="midnightblue" d="M215.03,-281.1C214.4,-272.14 214.84,-261.86 216.37,-254.75"/>
<polygon fill="midnightblue" stroke="midnightblue" points="211.57,-281.62 216.33,-291.08 218.51,-280.71 211.57,-281.62"/>
</g>
<!-- Node3&#45;&gt;Node2 -->
<g id="edge3" class="edge">
<title>Node3&#45;&gt;Node2</title>
<path fill="none" stroke="midnightblue" d="M227.96,-264.69C228.61,-273.64 228.18,-283.93 226.67,-291.08"/>
<polygon fill="midnightblue" stroke="midnightblue" points="231.42,-264.2 226.63,-254.75 224.48,-265.13 231.42,-264.2"/>
</g>
<!-- Node4 -->
<g id="node4" class="node">
<title>Node4</title>
<g id="a_node4"><a xlink:href="vector__space_8_h.html" target="_top" xlink:title=" ">
<polygon fill="white" stroke="red" points="146.5,-179.5 146.5,-198.5 238.5,-198.5 238.5,-179.5 146.5,-179.5"/>
<text text-anchor="middle" x="192.5" y="-186.5" font-family="Helvetica,sans-Serif" font-size="10.00">vector_space.H</text>
</a>
</g>
</g>
<!-- Node3&#45;&gt;Node4 -->
<g id="edge4" class="edge">
<title>Node3&#45;&gt;Node4</title>
<path fill="none" stroke="midnightblue" d="M211.82,-225.98C206.9,-216.82 201.14,-206.09 197.2,-198.75"/>
<polygon fill="midnightblue" stroke="midnightblue" points="208.9,-227.93 216.71,-235.08 215.06,-224.62 208.9,-227.93"/>
</g>
<!-- Node5 -->
<g id="node5" class="node">
<title>Node5</title>
<g id="a_node5"><a xlink:href="_multi_parser_8_h.html" target="_top" xlink:title=" ">
<polygon fill="white" stroke="red" points="0,-123.5 0,-142.5 81,-142.5 81,-123.5 0,-123.5"/>
<text text-anchor="middle" x="40.5" y="-130.5" font-family="Helvetica,sans-Serif" font-size="10.00">MultiParser.H</text>
</a>
</g>
</g>
<!-- Node4&#45;&gt;Node5 -->
<g id="edge5" class="edge">
<title>Node4&#45;&gt;Node5</title>
<path fill="none" stroke="midnightblue" d="M158.83,-176.04C130.23,-165.88 89.89,-151.55 64.47,-142.52"/>
<polygon fill="midnightblue" stroke="midnightblue" points="157.82,-179.39 168.42,-179.44 160.16,-172.8 157.82,-179.39"/>
</g>
<!-- Node53 -->
<g id="node6" class="node">
<title>Node53</title>
<g id="a_node6"><a xlink:href="_bluff_body_8_h.html" target="_top" xlink:title=" ">
<polygon fill="white" stroke="red" points="94,-67.5 94,-86.5 167,-86.5 167,-67.5 94,-67.5"/>
<text text-anchor="middle" x="130.5" y="-74.5" font-family="Helvetica,sans-Serif" font-size="10.00">BluffBody.H</text>
</a>
</g>
</g>
<!-- Node4&#45;&gt;Node53 -->
<g id="edge6" class="edge">
<title>Node4&#45;&gt;Node53</title>
<path fill="none" stroke="midnightblue" d="M189.04,-169.05C186.03,-155.57 180.82,-137.37 172.5,-123 164.15,-108.57 150.38,-95.02 140.9,-86.63"/>
<polygon fill="midnightblue" stroke="midnightblue" points="185.66,-169.97 191.07,-179.08 192.52,-168.58 185.66,-169.97"/>
</g>
<!-- Node57 -->
<g id="node7" class="node">
<title>Node57</title>
<g id="a_node7"><a xlink:href="_i_b_types_8_h.html" target="_top" xlink:title=" ">
<polygon fill="white" stroke="red" points="99,-123.5 99,-142.5 164,-142.5 164,-123.5 99,-123.5"/>
<text text-anchor="middle" x="131.5" y="-130.5" font-family="Helvetica,sans-Serif" font-size="10.00">IBTypes.H</text>
</a>
</g>
</g>
<!-- Node4&#45;&gt;Node57 -->
<g id="edge7" class="edge">
<title>Node4&#45;&gt;Node57</title>
<path fill="none" stroke="midnightblue" d="M175.03,-172.54C164.16,-162.91 150.56,-150.87 141.48,-142.83"/>
<polygon fill="midnightblue" stroke="midnightblue" points="172.89,-175.32 182.7,-179.32 177.53,-170.07 172.89,-175.32"/>
</g>
<!-- Node4&#45;&gt;Node75 -->
<g id="edge9" class="edge">
<title>Node4&#45;&gt;Node75</title>
<path fill="none" stroke="midnightblue" d="M217.58,-174.59C236.26,-164.61 261.2,-151.27 277.31,-142.65"/>
<polygon fill="midnightblue" stroke="midnightblue" points="215.9,-171.52 208.73,-179.32 219.2,-177.7 215.9,-171.52"/>
</g>
<!-- Node57&#45;&gt;Node53 -->
<g id="edge8" class="edge">
<title>Node57&#45;&gt;Node53</title>
<path fill="none" stroke="midnightblue" d="M131.14,-112.8C130.98,-103.91 130.79,-93.78 130.66,-86.75"/>
<polygon fill="midnightblue" stroke="midnightblue" points="127.65,-113.15 131.33,-123.08 134.65,-113.02 127.65,-113.15"/>
</g>
<!-- Node76 -->
<g id="node9" class="node">
<title>Node76</title>
<g id="a_node9"><a xlink:href="_a_b_l_8_h.html" target="_top" xlink:title=" ">
<polygon fill="white" stroke="black" points="795.5,-67.5 795.5,-86.5 841.5,-86.5 841.5,-67.5 795.5,-67.5"/>
<text text-anchor="middle" x="818.5" y="-74.5" font-family="Helvetica,sans-Serif" font-size="10.00">ABL.H</text>
</a>
</g>
</g>
<!-- Node75&#45;&gt;Node76 -->
<g id="edge10" class="edge">
<title>Node75&#45;&gt;Node76</title>
<path fill="none" stroke="midnightblue" d="M376.91,-123.42C500.01,-110.76 723.51,-87.77 795.5,-80.37"/>
<polygon fill="midnightblue" stroke="midnightblue" points="376.36,-119.96 366.78,-124.46 377.08,-126.92 376.36,-119.96"/>
</g>
<!-- Node86 -->
<g id="node19" class="node">
<title>Node86</title>
<g id="a_node19"><a xlink:href="_a_b_l_fill_m_p_l_8_h.html" target="_top" xlink:title=" ">
<polygon fill="white" stroke="black" points="185.5,-67.5 185.5,-86.5 265.5,-86.5 265.5,-67.5 185.5,-67.5"/>
<text text-anchor="middle" x="225.5" y="-74.5" font-family="Helvetica,sans-Serif" font-size="10.00">ABLFillMPL.H</text>
</a>
</g>
</g>
<!-- Node75&#45;&gt;Node86 -->
<g id="edge20" class="edge">
<title>Node75&#45;&gt;Node86</title>
<path fill="none" stroke="midnightblue" d="M274.74,-117.1C262.5,-107.38 246.94,-95.03 236.62,-86.83"/>
<polygon fill="midnightblue" stroke="midnightblue" points="272.57,-119.85 282.57,-123.32 276.92,-114.36 272.57,-119.85"/>
</g>
<!-- Node88 -->
<g id="node21" class="node">
<title>Node88</title>
<g id="a_node21"><a xlink:href="_a_b_l_modulated_power_law_8cpp.html" target="_top" xlink:title=" ">
<polygon fill="white" stroke="black" points="118.5,-6 118.5,-25 274.5,-25 274.5,-6 118.5,-6"/>
<text text-anchor="middle" x="196.5" y="-13" font-family="Helvetica,sans-Serif" font-size="10.00">ABLModulatedPowerLaw.cpp</text>
</a>
</g>
</g>
<!-- Node75&#45;&gt;Node88 -->
<g id="edge23" class="edge">
<title>Node75&#45;&gt;Node88</title>
<path fill="none" stroke="midnightblue" d="M291.5,-112.83C289.24,-98.97 284.49,-80.41 274.5,-67 259.95,-47.47 235.42,-33.41 217.76,-25.16"/>
<polygon fill="midnightblue" stroke="midnightblue" points="288.08,-113.69 292.86,-123.15 295.02,-112.77 288.08,-113.69"/>
</g>
<!-- Node76&#45;&gt;Node77 -->
<g id="edge11" class="edge">
<title>Node76&#45;&gt;Node77</title>
<path fill="none" stroke="midnightblue" d="M785.02,-74.19C712.93,-69.92 537.88,-57.52 393.5,-31 384.95,-29.43 375.78,-27.23 367.43,-25.01"/>
<polygon fill="midnightblue" stroke="midnightblue" points="785.1,-77.7 795.29,-74.79 785.51,-70.72 785.1,-77.7"/>
</g>
<!-- Node78 -->
<g id="node11" class="node">
<title>Node78</title>
<g id="a_node11"><a xlink:href="_a_b_l_mean_boussinesq_8cpp.html" target="_top" xlink:title=" ">
<polygon fill="white" stroke="black" points="989.5,-6 989.5,-25 1127.5,-25 1127.5,-6 989.5,-6"/>
<text text-anchor="middle" x="1058.5" y="-13" font-family="Helvetica,sans-Serif" font-size="10.00">ABLMeanBoussinesq.cpp</text>
</a>
</g>
</g>
<!-- Node76&#45;&gt;Node78 -->
<g id="edge12" class="edge">
<title>Node76&#45;&gt;Node78</title>
<path fill="none" stroke="midnightblue" d="M851.42,-67.84C896.73,-56.6 977.96,-36.47 1024.06,-25.04"/>
<polygon fill="midnightblue" stroke="midnightblue" points="850.38,-64.49 841.51,-70.29 852.06,-71.29 850.38,-64.49"/>
</g>
<!-- Node76&#45;&gt;Node79 -->
<g id="edge13" class="edge">
<title>Node76&#45;&gt;Node79</title>
<path fill="none" stroke="midnightblue" d="M785.27,-65.25C749.6,-53.72 693.65,-35.63 660.88,-25.03"/>
<polygon fill="midnightblue" stroke="midnightblue" points="784.6,-68.72 795.2,-68.46 786.76,-62.06 784.6,-68.72"/>
</g>
<!-- Node76&#45;&gt;Node80 -->
<g id="edge14" class="edge">
<title>Node76&#45;&gt;Node80</title>
<path fill="none" stroke="midnightblue" d="M852.25,-75.33C928.07,-73.24 1117.35,-64.78 1271.5,-31 1278.28,-29.51 1285.49,-27.28 1291.98,-25.01"/>
<polygon fill="midnightblue" stroke="midnightblue" points="851.81,-71.84 841.9,-75.59 851.99,-78.84 851.81,-71.84"/>
</g>
<!-- Node81 -->
<g id="node14" class="node">
<title>Node81</title>
<g id="a_node14"><a xlink:href="incflo_8cpp.html" target="_top" xlink:title=" ">
<polygon fill="white" stroke="black" points="712,-6 712,-25 775,-25 775,-6 712,-6"/>
<text text-anchor="middle" x="743.5" y="-13" font-family="Helvetica,sans-Serif" font-size="10.00">incflo.cpp</text>
</a>
</g>
</g>
<!-- Node76&#45;&gt;Node81 -->
<g id="edge15" class="edge">
<title>Node76&#45;&gt;Node81</title>
<path fill="none" stroke="midnightblue" d="M799.56,-60.97C785.21,-49.59 766.02,-34.37 754.23,-25.01"/>
<polygon fill="midnightblue" stroke="midnightblue" points="797.74,-64 807.75,-67.48 802.1,-58.52 797.74,-64"/>
</g>
<!-- Node82 -->
<g id="node15" class="node">
<title>Node82</title>
<g id="a_node15"><a xlink:href="incflo__apply__nodal__projection_8cpp.html" target="_top" xlink:title=" ">
<polygon fill="white" stroke="black" points="793,-0.5 793,-30.5 900,-30.5 900,-0.5 793,-0.5"/>
<text text-anchor="start" x="801" y="-18.5" font-family="Helvetica,sans-Serif" font-size="10.00">incflo_apply_nodal</text>
<text text-anchor="middle" x="846.5" y="-7.5" font-family="Helvetica,sans-Serif" font-size="10.00">_projection.cpp</text>
</a>
</g>
</g>
<!-- Node76&#45;&gt;Node82 -->
<g id="edge16" class="edge">
<title>Node76&#45;&gt;Node82</title>
<path fill="none" stroke="midnightblue" d="M826.79,-58.39C830.97,-49.5 835.98,-38.86 839.9,-30.52"/>
<polygon fill="midnightblue" stroke="midnightblue" points="823.6,-56.94 822.51,-67.48 829.94,-59.92 823.6,-56.94"/>
</g>
<!-- Node83 -->
<g id="node16" class="node">
<title>Node83</title>
<g id="a_node16"><a xlink:href="init_8cpp.html" target="_top" xlink:title=" ">
<polygon fill="white" stroke="black" points="918,-6 918,-25 971,-25 971,-6 918,-6"/>
<text text-anchor="middle" x="944.5" y="-13" font-family="Helvetica,sans-Serif" font-size="10.00">init.cpp</text>
</a>
</g>
</g>
<!-- Node76&#45;&gt;Node83 -->
<g id="edge17" class="edge">
<title>Node76&#45;&gt;Node83</title>
<path fill="none" stroke="midnightblue" d="M845.66,-63.17C870.11,-51.63 905.35,-34.99 926.48,-25.01"/>
<polygon fill="midnightblue" stroke="midnightblue" points="844.1,-60.04 836.55,-67.48 847.09,-66.37 844.1,-60.04"/>
</g>
<!-- Node84 -->
<g id="node17" class="node">
<title>Node84</title>
<g id="a_node17"><a xlink:href="_a_b_l_8cpp.html" target="_top" xlink:title=" ">
<polygon fill="white" stroke="black" points="500.5,-6 500.5,-25 556.5,-25 556.5,-6 500.5,-6"/>
<text text-anchor="middle" x="528.5" y="-13" font-family="Helvetica,sans-Serif" font-size="10.00">ABL.cpp</text>
</a>
</g>
</g>
<!-- Node76&#45;&gt;Node84 -->
<g id="edge18" class="edge">
<title>Node76&#45;&gt;Node84</title>
<path fill="none" stroke="midnightblue" d="M785.5,-72.24C736.75,-66.22 642.91,-52.82 565.5,-31 559.79,-29.39 553.74,-27.23 548.22,-25.06"/>
<polygon fill="midnightblue" stroke="midnightblue" points="785.13,-75.73 795.48,-73.45 785.97,-68.78 785.13,-75.73"/>
</g>
<!-- Node76&#45;&gt;Node85 -->
<g id="edge19" class="edge">
<title>Node76&#45;&gt;Node85</title>
<path fill="none" stroke="midnightblue" d="M851.78,-72.06C909.8,-65.03 1033.13,-49.31 1136.5,-31 1146.37,-29.25 1156.98,-27.11 1166.82,-25.02"/>
<polygon fill="midnightblue" stroke="midnightblue" points="851.24,-68.6 841.73,-73.27 852.08,-75.55 851.24,-68.6"/>
</g>
<!-- Node87 -->
<g id="node20" class="node">
<title>Node87</title>
<g id="a_node20"><a xlink:href="_a_b_l_fill_m_p_l_8cpp.html" target="_top" xlink:title=" ">
<polygon fill="white" stroke="black" points="10.5,-6 10.5,-25 100.5,-25 100.5,-6 10.5,-6"/>
<text text-anchor="middle" x="55.5" y="-13" font-family="Helvetica,sans-Serif" font-size="10.00">ABLFillMPL.cpp</text>
</a>
</g>
</g>
<!-- Node86&#45;&gt;Node87 -->
<g id="edge21" class="edge">
<title>Node86&#45;&gt;Node87</title>
<path fill="none" stroke="midnightblue" d="M191.45,-64.08C158.41,-52.52 109.08,-35.25 79.81,-25.01"/>
<polygon fill="midnightblue" stroke="midnightblue" points="190.55,-67.48 201.14,-67.48 192.86,-60.87 190.55,-67.48"/>
</g>
<!-- Node86&#45;&gt;Node88 -->
<g id="edge22" class="edge">
<title>Node86&#45;&gt;Node88</title>
<path fill="none" stroke="midnightblue" d="M216.89,-58.33C211.53,-47.33 204.87,-33.66 200.65,-25.01"/>
<polygon fill="midnightblue" stroke="midnightblue" points="213.82,-60.02 221.35,-67.48 220.11,-56.95 213.82,-60.02"/>
</g>
<!-- Node108&#45;&gt;Node77 -->
<g id="edge26" class="edge">
<title>Node108&#45;&gt;Node77</title>
<path fill="none" stroke="midnightblue" d="M441.6,-63.33C416.17,-51.78 379.3,-35.03 357.23,-25.01"/>
<polygon fill="midnightblue" stroke="midnightblue" points="440.18,-66.53 450.73,-67.48 443.07,-60.15 440.18,-66.53"/>
</g>
<!-- Node108&#45;&gt;Node84 -->
<g id="edge27" class="edge">
<title>Node108&#45;&gt;Node84</title>
<path fill="none" stroke="midnightblue" d="M485.04,-60.32C496.25,-49.02 510.96,-34.19 520.06,-25.01"/>
<polygon fill="midnightblue" stroke="midnightblue" points="482.51,-57.91 477.95,-67.48 487.48,-62.84 482.51,-57.91"/>
</g>
<!-- Node109 -->
<g id="node23" class="node">
<title>Node109</title>
<g id="a_node23"><a xlink:href="_a_b_l_stats_8cpp.html" target="_top" xlink:title=" ">
<polygon fill="white" stroke="black" points="402.5,-6 402.5,-25 482.5,-25 482.5,-6 402.5,-6"/>
<text text-anchor="middle" x="442.5" y="-13" font-family="Helvetica,sans-Serif" font-size="10.00">ABLStats.cpp</text>
</a>
</g>
</g>
<!-- Node108&#45;&gt;Node109 -->
<g id="edge28" class="edge">
<title>Node108&#45;&gt;Node109</title>
<path fill="none" stroke="midnightblue" d="M461.48,-58.33C456.49,-47.33 450.29,-33.66 446.36,-25.01"/>
<polygon fill="midnightblue" stroke="midnightblue" points="458.31,-59.82 465.63,-67.48 464.69,-56.92 458.31,-59.82"/>
</g>
<!-- Node119 -->
<g id="node33" class="node">
<title>Node119</title>
<g id="a_node33"><a xlink:href="_scalar_advection_8cpp.html" target="_top" xlink:title=" ">
<polygon fill="white" stroke="black" points="2083.5,-235.5 2083.5,-254.5 2199.5,-254.5 2199.5,-235.5 2083.5,-235.5"/>
<text text-anchor="middle" x="2141.5" y="-242.5" font-family="Helvetica,sans-Serif" font-size="10.00">ScalarAdvection.cpp</text>
</a>
</g>
</g>
<!-- Node118&#45;&gt;Node119 -->
<g id="edge40" class="edge">
<title>Node118&#45;&gt;Node119</title>
<path fill="none" stroke="midnightblue" d="M2141.5,-280.8C2141.5,-271.91 2141.5,-261.78 2141.5,-254.75"/>
<polygon fill="midnightblue" stroke="midnightblue" points="2138,-281.08 2141.5,-291.08 2145,-281.08 2138,-281.08"/>
</g>
<!-- Node31 -->
<g id="node40" class="node">
<title>Node31</title>
<g id="a_node40"><a xlink:href="_actuator_disk_8cpp.html" target="_top" xlink:title=" ">
<polygon fill="white" stroke="black" points="2924.5,-235.5 2924.5,-254.5 3024.5,-254.5 3024.5,-235.5 2924.5,-235.5"/>
<text text-anchor="middle" x="2974.5" y="-242.5" font-family="Helvetica,sans-Serif" font-size="10.00">ActuatorDisk.cpp</text>
</a>
</g>
</g>
<!-- Node39&#45;&gt;Node31 -->
<g id="edge49" class="edge">
<title>Node39&#45;&gt;Node31</title>
<path fill="none" stroke="midnightblue" d="M3017.32,-284.54C3006.62,-274.91 2993.24,-262.87 2984.32,-254.83"/>
<polygon fill="midnightblue" stroke="midnightblue" points="3015.09,-287.24 3024.86,-291.32 3019.77,-282.03 3015.09,-287.24"/>
</g>
<!-- Node38 -->
<g id="node41" class="node">
<title>Node38</title>
<g id="a_node41"><a xlink:href="_joukowsky__ops_8cpp.html" target="_top" xlink:title=" ">
<polygon fill="white" stroke="black" points="3042.5,-235.5 3042.5,-254.5 3152.5,-254.5 3152.5,-235.5 3042.5,-235.5"/>
<text text-anchor="middle" x="3097.5" y="-242.5" font-family="Helvetica,sans-Serif" font-size="10.00">Joukowsky_ops.cpp</text>
</a>
</g>
</g>
<!-- Node39&#45;&gt;Node38 -->
<g id="edge50" class="edge">
<title>Node39&#45;&gt;Node38</title>
<path fill="none" stroke="midnightblue" d="M3052.54,-284.54C3063.77,-274.91 3077.82,-262.87 3087.19,-254.83"/>
<polygon fill="midnightblue" stroke="midnightblue" points="3049.94,-282.16 3044.62,-291.32 3054.49,-287.47 3049.94,-282.16"/>
</g>
<!-- Node40&#45;&gt;Node31 -->
<g id="edge52" class="edge">
<title>Node40&#45;&gt;Node31</title>
<path fill="none" stroke="midnightblue" d="M2931.68,-284.54C2942.38,-274.91 2955.76,-262.87 2964.68,-254.83"/>
<polygon fill="midnightblue" stroke="midnightblue" points="2929.23,-282.03 2924.14,-291.32 2933.91,-287.24 2929.23,-282.03"/>
</g>
<!-- Node41 -->
<g id="node43" class="node">
<title>Node41</title>
<g id="a_node43"><a xlink:href="uniform__ct__ops_8cpp.html" target="_top" xlink:title=" ">
<polygon fill="white" stroke="black" points="2794.5,-235.5 2794.5,-254.5 2906.5,-254.5 2906.5,-235.5 2794.5,-235.5"/>
<text text-anchor="middle" x="2850.5" y="-242.5" font-family="Helvetica,sans-Serif" font-size="10.00">uniform_ct_ops.cpp</text>
</a>
</g>
</g>
<!-- Node40&#45;&gt;Node41 -->
<g id="edge53" class="edge">
<title>Node40&#45;&gt;Node41</title>
<path fill="none" stroke="midnightblue" d="M2896.51,-284.82C2885.04,-275.15 2870.59,-262.95 2860.97,-254.83"/>
<polygon fill="midnightblue" stroke="midnightblue" points="2894.32,-287.55 2904.22,-291.32 2898.83,-282.2 2894.32,-287.55"/>
</g>
<!-- Node125 -->
<g id="node45" class="node">
<title>Node125</title>
<g id="a_node45"><a xlink:href="_a_b_l_wall_function_8_h.html" target="_top" xlink:title=" ">
<polygon fill="white" stroke="black" points="660,-179.5 660,-198.5 767,-198.5 767,-179.5 660,-179.5"/>
<text text-anchor="middle" x="713.5" y="-186.5" font-family="Helvetica,sans-Serif" font-size="10.00">ABLWallFunction.H</text>
</a>
</g>
</g>
<!-- Node124&#45;&gt;Node125 -->
<g id="edge55" class="edge">
<title>Node124&#45;&gt;Node125</title>
<path fill="none" stroke="midnightblue" d="M841.98,-232.3C811.08,-222.13 767.03,-207.62 739.36,-198.52"/>
<polygon fill="midnightblue" stroke="midnightblue" points="840.92,-235.64 851.51,-235.44 843.11,-228.99 840.92,-235.64"/>
</g>
<!-- Node129 -->
<g id="node49" class="node">
<title>Node129</title>
<g id="a_node49"><a xlink:href="_m_o_data_8cpp.html" target="_top" xlink:title=" ">
<polygon fill="white" stroke="black" points="888,-179.5 888,-198.5 965,-198.5 965,-179.5 888,-179.5"/>
<text text-anchor="middle" x="926.5" y="-186.5" font-family="Helvetica,sans-Serif" font-size="10.00">MOData.cpp</text>
</a>
</g>
</g>
<!-- Node124&#45;&gt;Node129 -->
<g id="edge64" class="edge">
<title>Node124&#45;&gt;Node129</title>
<path fill="none" stroke="midnightblue" d="M892.53,-227.43C901.12,-217.97 911.54,-206.48 918.56,-198.75"/>
<polygon fill="midnightblue" stroke="midnightblue" points="889.72,-225.33 885.59,-235.08 894.9,-230.03 889.72,-225.33"/>
</g>
<!-- Node130 -->
<g id="node50" class="node">
<title>Node130</title>
<g id="a_node50"><a xlink:href="_shear_stress_8_h.html" target="_top" xlink:title=" ">
<polygon fill="white" stroke="black" points="785,-179.5 785,-198.5 870,-198.5 870,-179.5 785,-179.5"/>
<text text-anchor="middle" x="827.5" y="-186.5" font-family="Helvetica,sans-Serif" font-size="10.00">ShearStress.H</text>
</a>
</g>
</g>
<!-- Node124&#45;&gt;Node130 -->
<g id="edge65" class="edge">
<title>Node124&#45;&gt;Node130</title>
<path fill="none" stroke="midnightblue" d="M862.42,-227.72C853.61,-218.2 842.83,-206.56 835.6,-198.75"/>
<polygon fill="midnightblue" stroke="midnightblue" points="859.88,-230.12 869.24,-235.08 865.02,-225.37 859.88,-230.12"/>
</g>
<!-- Node125&#45;&gt;Node76 -->
<g id="edge57" class="edge">
<title>Node125&#45;&gt;Node76</title>
<path fill="none" stroke="midnightblue" d="M772.49,-177.34C808.5,-169.49 849.66,-157.66 860.5,-143 874.88,-123.56 848.27,-99.32 831.21,-86.64"/>
<polygon fill="midnightblue" stroke="midnightblue" points="771.56,-173.96 762.5,-179.44 773,-180.81 771.56,-173.96"/>
</g>
<!-- Node125&#45;&gt;Node85 -->
<g id="edge63" class="edge">
<title>Node125&#45;&gt;Node85</title>
<path fill="none" stroke="midnightblue" d="M777.35,-177.98C808.9,-171.21 846.7,-160.25 877.5,-143 920.57,-118.87 914.63,-89.65 958.5,-67 1030.22,-29.98 1057.47,-47.42 1136.5,-31 1145.72,-29.08 1155.63,-26.99 1164.96,-25"/>
<polygon fill="midnightblue" stroke="midnightblue" points="776.44,-174.6 767.35,-180.04 777.85,-181.45 776.44,-174.6"/>
</g>
<!-- Node126 -->
<g id="node46" class="node">
<title>Node126</title>
<g id="a_node46"><a xlink:href="_boussinesq_bubble_8cpp.html" target="_top" xlink:title=" ">
<polygon fill="white" stroke="black" points="725.5,-123.5 725.5,-142.5 851.5,-142.5 851.5,-123.5 725.5,-123.5"/>
<text text-anchor="middle" x="788.5" y="-130.5" font-family="Helvetica,sans-Serif" font-size="10.00">BoussinesqBubble.cpp</text>
</a>
</g>
</g>
<!-- Node125&#45;&gt;Node126 -->
<g id="edge56" class="edge">
<title>Node125&#45;&gt;Node126</title>
<path fill="none" stroke="midnightblue" d="M733.81,-173.38C747.36,-163.62 764.74,-151.11 776.23,-142.83"/>
<polygon fill="midnightblue" stroke="midnightblue" points="731.62,-170.64 725.55,-179.32 735.71,-176.32 731.62,-170.64"/>
</g>
<!-- Node127 -->
<g id="node47" class="node">
<title>Node127</title>
<g id="a_node47"><a xlink:href="_a_b_l_stats_8_h.html" target="_top" xlink:title=" ">
<polygon fill="white" stroke="black" points="574,-67.5 574,-86.5 645,-86.5 645,-67.5 574,-67.5"/>
<text text-anchor="middle" x="609.5" y="-74.5" font-family="Helvetica,sans-Serif" font-size="10.00">ABLStats.H</text>
</a>
</g>
</g>
<!-- Node125&#45;&gt;Node127 -->
<g id="edge58" class="edge">
<title>Node125&#45;&gt;Node127</title>
<path fill="none" stroke="midnightblue" d="M650.33,-176.51C631.81,-169.89 613.58,-159.45 602.5,-143 590.96,-125.87 599.37,-100.24 605.19,-86.86"/>
<polygon fill="midnightblue" stroke="midnightblue" points="649.41,-179.89 660,-179.64 651.56,-173.23 649.41,-179.89"/>
</g>
<!-- Node128 -->
<g id="node48" class="node">
<title>Node128</title>
<g id="a_node48"><a xlink:href="_a_b_l_stats_base_8_h.html" target="_top" xlink:title=" ">
<polygon fill="white" stroke="black" points="612,-123.5 612,-142.5 707,-142.5 707,-123.5 612,-123.5"/>
<text text-anchor="middle" x="659.5" y="-130.5" font-family="Helvetica,sans-Serif" font-size="10.00">ABLStatsBase.H</text>
</a>
</g>
</g>
<!-- Node125&#45;&gt;Node128 -->
<g id="edge60" class="edge">
<title>Node125&#45;&gt;Node128</title>
<path fill="none" stroke="midnightblue" d="M697.5,-172C687.93,-162.43 676.14,-150.64 668.25,-142.75"/>
<polygon fill="midnightblue" stroke="midnightblue" points="695.04,-174.49 704.58,-179.08 699.99,-169.54 695.04,-174.49"/>
</g>
<!-- Node127&#45;&gt;Node109 -->
<g id="edge59" class="edge">
<title>Node127&#45;&gt;Node109</title>
<path fill="none" stroke="midnightblue" d="M576.05,-64.08C543.59,-52.52 495.13,-35.25 466.38,-25.01"/>
<polygon fill="midnightblue" stroke="midnightblue" points="574.98,-67.42 585.57,-67.48 577.33,-60.82 574.98,-67.42"/>
</g>
<!-- Node128&#45;&gt;Node76 -->
<g id="edge61" class="edge">
<title>Node128&#45;&gt;Node76</title>
<path fill="none" stroke="midnightblue" d="M694.17,-120.23C724.9,-109.79 768.91,-94.84 795.49,-85.82"/>
<polygon fill="midnightblue" stroke="midnightblue" points="693.04,-116.91 684.69,-123.44 695.29,-123.54 693.04,-116.91"/>
</g>
<!-- Node128&#45;&gt;Node127 -->
<g id="edge62" class="edge">
<title>Node128&#45;&gt;Node127</title>
<path fill="none" stroke="midnightblue" d="M644.42,-115.72C635.61,-106.2 624.83,-94.56 617.6,-86.75"/>
<polygon fill="midnightblue" stroke="midnightblue" points="641.88,-118.12 651.24,-123.08 647.02,-113.37 641.88,-118.12"/>
</g>
<!-- Node130&#45;&gt;Node85 -->
<g id="edge66" class="edge">
<title>Node130&#45;&gt;Node85</title>
<path fill="none" stroke="midnightblue" d="M869.9,-176.14C890.15,-168.94 913.77,-158.17 931.5,-143 961.85,-117.02 946.85,-90.02 979.5,-67 983.31,-64.31 1100.99,-38.74 1164.6,-25.05"/>
<polygon fill="midnightblue" stroke="midnightblue" points="868.63,-172.87 860.27,-179.38 870.87,-179.51 868.63,-172.87"/>
</g>
</g>
</svg>
        <g id="navigator" transform="translate(0 0)" fill="#404254">
                <rect fill="#f2f5e9" fill-opacity="0.5" stroke="#606060" stroke-width=".5" x="0" y="0" width="60" height="60"/>
                <use id="zoomplus" xlink:href="#zoomPlus" x="17" y="9" onmousedown="handleZoom(evt,'in')"/>
                <use id="zoomminus" xlink:href="#zoomMin" x="42" y="9" onmousedown="handleZoom(evt,'out')"/>
                <use id="reset" xlink:href="#resetDef" x="30" y="36" onmousedown="handleReset()"/>
                <g id="arrowUp" xlink:href="#dirArrow" transform="translate(30 24)" onmousedown="handlePan(0,-1)">
                  <use xlink:href="#rim" fill="#404040">
                        <set attributeName="fill" to="#808080" begin="arrowUp.mouseover" end="arrowUp.mouseout"/>
                  </use>
                  <path fill="none" stroke="white" stroke-width="1.5" d="M0,-3.0v7 M-2.5,-0.5L0,-3.0L2.5,-0.5"/>
                </g>
                <g id="arrowRight" xlink:href="#dirArrow" transform="rotate(90) translate(36 -43)" onmousedown="handlePan(1,0)">
                  <use xlink:href="#rim" fill="#404040">
                        <set attributeName="fill" to="#808080" begin="arrowRight.mouseover" end="arrowRight.mouseout"/>
                  </use>
                  <path fill="none" stroke="white" stroke-width="1.5" d="M0,-3.0v7 M-2.5,-0.5L0,-3.0L2.5,-0.5"/>
                </g>
                <g id="arrowDown" xlink:href="#dirArrow" transform="rotate(180) translate(-30 -48)" onmousedown="handlePan(0,1)">
                  <use xlink:href="#rim" fill="#404040">
                        <set attributeName="fill" to="#808080" begin="arrowDown.mouseover" end="arrowDown.mouseout"/>
                  </use>
                  <path fill="none" stroke="white" stroke-width="1.5" d="M0,-3.0v7 M-2.5,-0.5L0,-3.0L2.5,-0.5"/>
                </g>
                <g id="arrowLeft" xlink:href="#dirArrow" transform="rotate(270) translate(-36 17)" onmousedown="handlePan(-1,0)">
                  <use xlink:href="#rim" fill="#404040">
                        <set attributeName="fill" to="#808080" begin="arrowLeft.mouseover" end="arrowLeft.mouseout"/>
                  </use>
                  <path fill="none" stroke="white" stroke-width="1.5" d="M0,-3.0v7 M-2.5,-0.5L0,-3.0L2.5,-0.5"/>
                </g>
        </g>
        <svg viewBox="0 0 15 15" width="100%" height="30px" preserveAspectRatio="xMaxYMin meet">
         <g id="arrow_out" transform="scale(0.3 0.3)">
          <a xlink:href="trig__ops_8_h__dep__incl_org.svg" target="_base">
           <rect id="button" ry="5" rx="5" y="6" x="6" height="38" width="38"
                fill="#f2f5e9" fill-opacity="0.5" stroke="#606060" stroke-width="1.0"/>
           <path id="arrow"
             d="M 11.500037,31.436501 C 11.940474,20.09759 22.043105,11.32322 32.158766,21.979434 L 37.068811,17.246167 C 37.068811,17.246167 37.088388,32 37.088388,32 L 22.160133,31.978069 C 22.160133,31.978069 26.997745,27.140456 26.997745,27.140456 C 18.528582,18.264221 13.291696,25.230495 11.500037,31.436501 z"
             style="fill:#404040;"/>
          </a>
         </g>
        </svg>
</svg>
