<?xml version="1.0" encoding="UTF-8" standalone="no"?>
<!DOCTYPE svg PUBLIC "-//W3C//DTD SVG 1.1//EN"
 "http://www.w3.org/Graphics/SVG/1.1/DTD/svg11.dtd">
<!-- Generated by graphviz version 2.43.0 (0)
 -->
<!-- Title: velocity_bcs.H Pages: 1 -->
<!--zoomable 341 -->
<svg id="main" version="1.1" xmlns="http://www.w3.org/2000/svg" xmlns:xlink="http://www.w3.org/1999/xlink" xml:space="preserve" onload="init(evt)">
<style type="text/css"><![CDATA[
.edge:hover path { stroke: red; }
.edge:hover polygon { stroke: red; fill: red; }
]]></style>
<script type="text/javascript"><![CDATA[
var edges = document.getElementsByTagName('g');
if (edges && edges.length) {
  for (var i=0;i<edges.length;i++) {
    if (edges[i].id.substr(0,4)=='edge') {
      edges[i].setAttribute('class','edge');
    }
  }
}
]]></script>
        <defs>
                <circle id="rim" cx="0" cy="0" r="7"/>
                <circle id="rim2" cx="0" cy="0" r="3.5"/>
                <g id="zoomPlus">
                        <use xlink:href="#rim" fill="#404040">
                                <set attributeName="fill" to="#808080" begin="zoomplus.mouseover" end="zoomplus.mouseout"/>
                        </use>
                        <path d="M-4,0h8M0,-4v8" fill="none" stroke="white" stroke-width="1.5" pointer-events="none"/>
                </g>
                <g id="zoomMin">
                        <use xlink:href="#rim" fill="#404040">
                                <set attributeName="fill" to="#808080" begin="zoomminus.mouseover" end="zoomminus.mouseout"/>
                        </use>
                        <path d="M-4,0h8" fill="none" stroke="white" stroke-width="1.5" pointer-events="none"/>
                </g>
                <g id="dirArrow">
                        <path fill="none" stroke="white" stroke-width="1.5" d="M0,-3.0v7 M-2.5,-0.5L0,-3.0L2.5,-0.5"/>
                </g>
               <g id="resetDef">
                       <use xlink:href="#rim2" fill="#404040">
                               <set attributeName="fill" to="#808080" begin="reset.mouseover" end="reset.mouseout"/>
                       </use>
               </g>
        </defs>

<script type="text/javascript">
var viewWidth = 2397;
var viewHeight = 341;
var sectionId = 'dynsection-0';
</script>
<script xlink:href="svgpan.js"/>
<svg id="graph" class="graph">
<g id="viewport">
<title>velocity_bcs.H</title>
<polygon fill="white" stroke="transparent" points="-4,4 -4,-337 2393.46,-337 2393.46,4 -4,4"/>
<!-- Node1 -->
<g id="node1" class="node">
<title>Node1</title>
<g id="a_node1"><a xlink:title=" ">
<polygon fill="#bfbfbf" stroke="black" points="1687.96,-313.5 1687.96,-332.5 1775.96,-332.5 1775.96,-313.5 1687.96,-313.5"/>
<text text-anchor="middle" x="1731.96" y="-320.5" font-family="Helvetica,sans-Serif" font-size="10.00">velocity_bcs.H</text>
</a>
</g>
</g>
<!-- Node2 -->
<g id="node2" class="node">
<title>Node2</title>
<g id="a_node2"><a xlink:href="_field_b_c_ops_8_h.html" target="_top" xlink:title=" ">
<polygon fill="white" stroke="black" points="1592.96,-185 1592.96,-204 1748.96,-204 1748.96,-185 1592.96,-185"/>
<text text-anchor="middle" x="1670.96" y="-192" font-family="Helvetica,sans-Serif" font-size="10.00">amr&#45;wind/core/FieldBCOps.H</text>
</a>
</g>
</g>
<!-- Node1&#45;&gt;Node2 -->
<g id="edge1" class="edge">
<title>Node1&#45;&gt;Node2</title>
<path fill="none" stroke="midnightblue" d="M1727.77,-313.31C1717.89,-292.81 1692.97,-241.15 1679.66,-213.54"/>
<polygon fill="midnightblue" stroke="midnightblue" points="1682.68,-211.74 1675.18,-204.26 1676.38,-214.78 1682.68,-211.74"/>
</g>
<!-- Node18 -->
<g id="node18" class="node">
<title>Node18</title>
<g id="a_node18"><a xlink:href="_field_fill_patch_ops_8_h.html" target="_top" xlink:title=" ">
<polygon fill="white" stroke="black" points="1423.96,-246.5 1423.96,-276.5 1577.96,-276.5 1577.96,-246.5 1423.96,-246.5"/>
<text text-anchor="start" x="1431.96" y="-264.5" font-family="Helvetica,sans-Serif" font-size="10.00">amr&#45;wind/core/FieldFillPatch</text>
<text text-anchor="middle" x="1500.96" y="-253.5" font-family="Helvetica,sans-Serif" font-size="10.00">Ops.H</text>
</a>
</g>
</g>
<!-- Node1&#45;&gt;Node18 -->
<g id="edge22" class="edge">
<title>Node1&#45;&gt;Node18</title>
<path fill="none" stroke="midnightblue" d="M1698.87,-313.48C1664.14,-304.53 1608.69,-290.25 1565.31,-279.07"/>
<polygon fill="midnightblue" stroke="midnightblue" points="1565.96,-275.63 1555.4,-276.52 1564.22,-282.41 1565.96,-275.63"/>
</g>
<!-- Node19 -->
<g id="node19" class="node">
<title>Node19</title>
<g id="a_node19"><a xlink:href="_sim_time_8_h.html" target="_top" xlink:title=" ">
<polygon fill="white" stroke="black" points="1804.96,-185 1804.96,-204 1948.96,-204 1948.96,-185 1804.96,-185"/>
<text text-anchor="middle" x="1876.96" y="-192" font-family="Helvetica,sans-Serif" font-size="10.00">amr&#45;wind/core/SimTime.H</text>
</a>
</g>
</g>
<!-- Node1&#45;&gt;Node19 -->
<g id="edge68" class="edge">
<title>Node1&#45;&gt;Node19</title>
<path fill="none" stroke="midnightblue" d="M1741.93,-313.31C1766.14,-292.18 1828.33,-237.93 1859.13,-211.06"/>
<polygon fill="midnightblue" stroke="midnightblue" points="1861.69,-213.47 1866.93,-204.26 1857.09,-208.19 1861.69,-213.47"/>
</g>
<!-- Node27 -->
<g id="node27" class="node">
<title>Node27</title>
<g id="a_node27"><a xlink:href="_field_repo_8_h.html" target="_top" xlink:title=" ">
<polygon fill="white" stroke="black" points="614.46,-185 614.46,-204 763.46,-204 763.46,-185 614.46,-185"/>
<text text-anchor="middle" x="688.96" y="-192" font-family="Helvetica,sans-Serif" font-size="10.00">amr&#45;wind/core/FieldRepo.H</text>
</a>
</g>
</g>
<!-- Node1&#45;&gt;Node27 -->
<g id="edge39" class="edge">
<title>Node1&#45;&gt;Node27</title>
<path fill="none" stroke="midnightblue" d="M1687.81,-316.65C1527.86,-297.25 977.2,-230.46 769.29,-205.24"/>
<polygon fill="midnightblue" stroke="midnightblue" points="769.41,-201.73 759.06,-204 768.57,-208.68 769.41,-201.73"/>
</g>
<!-- Node33 -->
<g id="node33" class="node">
<title>Node33</title>
<g id="a_node33"><a xlink:href="_linear_profile_8_h.html" target="_top" xlink:title=" ">
<polygon fill="white" stroke="black" points="2262.46,-179.5 2262.46,-209.5 2389.46,-209.5 2389.46,-179.5 2262.46,-179.5"/>
<text text-anchor="start" x="2270.46" y="-197.5" font-family="Helvetica,sans-Serif" font-size="10.00">amr&#45;wind/physics/udfs</text>
<text text-anchor="middle" x="2325.96" y="-186.5" font-family="Helvetica,sans-Serif" font-size="10.00">/LinearProfile.H</text>
</a>
</g>
</g>
<!-- Node1&#45;&gt;Node33 -->
<g id="edge69" class="edge">
<title>Node1&#45;&gt;Node33</title>
<path fill="none" stroke="midnightblue" d="M1776.09,-313.85C1822.82,-305.12 1898.71,-290.67 1963.96,-277 2065.88,-255.65 2183.42,-228.77 2256.22,-211.85"/>
<polygon fill="midnightblue" stroke="midnightblue" points="2257.24,-215.21 2266.19,-209.53 2255.66,-208.39 2257.24,-215.21"/>
</g>
<!-- Node34 -->
<g id="node34" class="node">
<title>Node34</title>
<g id="a_node34"><a xlink:href="_power_law_profile_8_h.html" target="_top" xlink:title=" ">
<polygon fill="white" stroke="black" points="2117.46,-179.5 2117.46,-209.5 2244.46,-209.5 2244.46,-179.5 2117.46,-179.5"/>
<text text-anchor="start" x="2125.46" y="-197.5" font-family="Helvetica,sans-Serif" font-size="10.00">amr&#45;wind/physics/udfs</text>
<text text-anchor="middle" x="2180.96" y="-186.5" font-family="Helvetica,sans-Serif" font-size="10.00">/PowerLawProfile.H</text>
</a>
</g>
</g>
<!-- Node1&#45;&gt;Node34 -->
<g id="edge72" class="edge">
<title>Node1&#45;&gt;Node34</title>
<path fill="none" stroke="midnightblue" d="M1762.47,-313.4C1836.13,-292.65 2024.74,-239.51 2121.6,-212.23"/>
<polygon fill="midnightblue" stroke="midnightblue" points="2122.57,-215.59 2131.24,-209.51 2120.67,-208.85 2122.57,-215.59"/>
</g>
<!-- Node3 -->
<g id="node3" class="node">
<title>Node3</title>
<g id="a_node3"><a xlink:href="_field_desc_types_8_h.html" target="_top" xlink:title=" ">
<polygon fill="white" stroke="black" points="569.96,-0.5 569.96,-19.5 745.96,-19.5 745.96,-0.5 569.96,-0.5"/>
<text text-anchor="middle" x="657.96" y="-7.5" font-family="Helvetica,sans-Serif" font-size="10.00">amr&#45;wind/core/FieldDescTypes.H</text>
</a>
</g>
</g>
<!-- Node2&#45;&gt;Node3 -->
<g id="edge2" class="edge">
<title>Node2&#45;&gt;Node3</title>
<path fill="none" stroke="midnightblue" d="M1679.13,-184.94C1688.69,-174.9 1705,-157.77 1718.96,-143 1733,-128.15 1774.43,-95 1781.96,-76 1785.24,-67.74 1788.12,-62.41 1781.96,-56 1777.54,-51.4 1029.85,-24.27 756.54,-14.5"/>
<polygon fill="midnightblue" stroke="midnightblue" points="756.35,-10.99 746.23,-14.13 756.1,-17.99 756.35,-10.99"/>
</g>
<!-- Node4 -->
<g id="node4" class="node">
<title>Node4</title>
<g id="a_node4"><a xlink:href="_field_8_h.html" target="_top" xlink:title=" ">
<polygon fill="white" stroke="black" points="1412.96,-118 1412.96,-137 1536.96,-137 1536.96,-118 1412.96,-118"/>
<text text-anchor="middle" x="1474.96" y="-125" font-family="Helvetica,sans-Serif" font-size="10.00">amr&#45;wind/core/Field.H</text>
</a>
</g>
</g>
<!-- Node2&#45;&gt;Node4 -->
<g id="edge3" class="edge">
<title>Node2&#45;&gt;Node4</title>
<path fill="none" stroke="midnightblue" d="M1644.94,-184.87C1610.43,-173.42 1549.38,-153.18 1510.61,-140.32"/>
<polygon fill="midnightblue" stroke="midnightblue" points="1511.38,-136.89 1500.79,-137.06 1509.18,-143.53 1511.38,-136.89"/>
</g>
<!-- Node11 -->
<g id="node11" class="node">
<title>Node11</title>
<g id="a_node11"><a xlink:title=" ">
<polygon fill="white" stroke="#bfbfbf" points="2036.46,-56.5 2036.46,-75.5 2123.46,-75.5 2123.46,-56.5 2036.46,-56.5"/>
<text text-anchor="middle" x="2079.96" y="-63.5" font-family="Helvetica,sans-Serif" font-size="10.00">AMReX_Gpu.H</text>
</a>
</g>
</g>
<!-- Node2&#45;&gt;Node11 -->
<g id="edge18" class="edge">
<title>Node2&#45;&gt;Node11</title>
<path fill="none" stroke="midnightblue" d="M1685.68,-184.87C1702.25,-175.06 1729.87,-158.4 1752.96,-143 1772.56,-129.93 1774.18,-120.98 1795.96,-112 1871.94,-80.69 1967.64,-71.04 2026.28,-68.14"/>
<polygon fill="midnightblue" stroke="midnightblue" points="2026.59,-71.63 2036.43,-67.69 2026.28,-64.64 2026.59,-71.63"/>
</g>
<!-- Node15 -->
<g id="node15" class="node">
<title>Node15</title>
<g id="a_node15"><a xlink:title=" ">
<polygon fill="white" stroke="#bfbfbf" points="1593.46,-118 1593.46,-137 1710.46,-137 1710.46,-118 1593.46,-118"/>
<text text-anchor="middle" x="1651.96" y="-125" font-family="Helvetica,sans-Serif" font-size="10.00">AMReX_FArrayBox.H</text>
</a>
</g>
</g>
<!-- Node2&#45;&gt;Node15 -->
<g id="edge19" class="edge">
<title>Node2&#45;&gt;Node15</title>
<path fill="none" stroke="midnightblue" d="M1668.4,-184.73C1665.58,-175.09 1660.97,-159.3 1657.34,-146.91"/>
<polygon fill="midnightblue" stroke="midnightblue" points="1660.65,-145.74 1654.48,-137.13 1653.93,-147.71 1660.65,-145.74"/>
</g>
<!-- Node16 -->
<g id="node16" class="node">
<title>Node16</title>
<g id="a_node16"><a xlink:title=" ">
<polygon fill="white" stroke="#bfbfbf" points="2239.46,-118 2239.46,-137 2354.46,-137 2354.46,-118 2239.46,-118"/>
<text text-anchor="middle" x="2296.96" y="-125" font-family="Helvetica,sans-Serif" font-size="10.00">AMReX_Geometry.H</text>
</a>
</g>
</g>
<!-- Node2&#45;&gt;Node16 -->
<g id="edge20" class="edge">
<title>Node2&#45;&gt;Node16</title>
<path fill="none" stroke="midnightblue" d="M1741.66,-184.99C1759.38,-182.94 1778.36,-180.82 1795.96,-179 1971.75,-160.82 2016.38,-163.09 2191.96,-143 2203.96,-141.63 2216.71,-140 2229.03,-138.35"/>
<polygon fill="midnightblue" stroke="midnightblue" points="2229.82,-141.78 2239.26,-136.96 2228.88,-134.84 2229.82,-141.78"/>
</g>
<!-- Node17 -->
<g id="node17" class="node">
<title>Node17</title>
<g id="a_node17"><a xlink:title=" ">
<polygon fill="white" stroke="#bfbfbf" points="724.46,-56.5 724.46,-75.5 855.46,-75.5 855.46,-56.5 724.46,-56.5"/>
<text text-anchor="middle" x="789.96" y="-63.5" font-family="Helvetica,sans-Serif" font-size="10.00">AMReX_PhysBCFunct.H</text>
</a>
</g>
</g>
<!-- Node2&#45;&gt;Node17 -->
<g id="edge21" class="edge">
<title>Node2&#45;&gt;Node17</title>
<path fill="none" stroke="midnightblue" d="M1592.82,-188.41C1427.3,-177.48 1054.27,-152.03 1027.96,-143 1004.3,-134.87 1003.94,-121.91 980.96,-112 942.5,-95.41 896.93,-84.38 859.95,-77.39"/>
<polygon fill="midnightblue" stroke="midnightblue" points="860.23,-73.88 849.76,-75.52 858.97,-80.77 860.23,-73.88"/>
</g>
<!-- Node4&#45;&gt;Node3 -->
<g id="edge12" class="edge">
<title>Node4&#45;&gt;Node3</title>
<path fill="none" stroke="midnightblue" d="M1452.14,-117.97C1426.4,-108.23 1383.4,-91.65 1346.96,-76 1327.6,-67.68 1324.37,-61.26 1303.96,-56 1203.33,-30.04 911.13,-18.11 756.54,-13.48"/>
<polygon fill="midnightblue" stroke="midnightblue" points="756.21,-9.97 746.11,-13.17 756,-16.97 756.21,-9.97"/>
</g>
<!-- Node5 -->
<g id="node5" class="node">
<title>Node5</title>
<g id="a_node5"><a xlink:title=" ">
<polygon fill="white" stroke="#bfbfbf" points="241.96,-0.5 241.96,-19.5 285.96,-19.5 285.96,-0.5 241.96,-0.5"/>
<text text-anchor="middle" x="263.96" y="-7.5" font-family="Helvetica,sans-Serif" font-size="10.00">string</text>
</a>
</g>
</g>
<!-- Node4&#45;&gt;Node5 -->
<g id="edge4" class="edge">
<title>Node4&#45;&gt;Node5</title>
<path fill="none" stroke="midnightblue" d="M1435.58,-117.93C1400.25,-109.53 1347.43,-95.2 1303.96,-76 1288.28,-69.07 1287.39,-60.94 1270.96,-56 1076.52,2.48 560.55,-33.68 357.96,-20 337.32,-18.61 314.18,-16.4 296.02,-14.52"/>
<polygon fill="midnightblue" stroke="midnightblue" points="296.28,-11.03 285.97,-13.46 295.54,-17.99 296.28,-11.03"/>
</g>
<!-- Node6 -->
<g id="node6" class="node">
<title>Node6</title>
<g id="a_node6"><a xlink:title=" ">
<polygon fill="white" stroke="#bfbfbf" points="1632.96,-56.5 1632.96,-75.5 1690.96,-75.5 1690.96,-56.5 1632.96,-56.5"/>
<text text-anchor="middle" x="1661.96" y="-63.5" font-family="Helvetica,sans-Serif" font-size="10.00">memory</text>
</a>
</g>
</g>
<!-- Node4&#45;&gt;Node6 -->
<g id="edge5" class="edge">
<title>Node4&#45;&gt;Node6</title>
<path fill="none" stroke="midnightblue" d="M1501.76,-117.98C1534.25,-107.64 1589.17,-90.16 1625.5,-78.6"/>
<polygon fill="midnightblue" stroke="midnightblue" points="1626.75,-81.88 1635.22,-75.51 1624.63,-75.21 1626.75,-81.88"/>
</g>
<!-- Node7 -->
<g id="node7" class="node">
<title>Node7</title>
<g id="a_node7"><a xlink:title=" ">
<polygon fill="white" stroke="#bfbfbf" points="950.46,-56.5 950.46,-75.5 1043.46,-75.5 1043.46,-56.5 950.46,-56.5"/>
<text text-anchor="middle" x="996.96" y="-63.5" font-family="Helvetica,sans-Serif" font-size="10.00">unordered_map</text>
</a>
</g>
</g>
<!-- Node4&#45;&gt;Node7 -->
<g id="edge6" class="edge">
<title>Node4&#45;&gt;Node7</title>
<path fill="none" stroke="midnightblue" d="M1412.96,-118.78C1319.56,-107.16 1144.11,-85.32 1053.82,-74.08"/>
<polygon fill="midnightblue" stroke="midnightblue" points="1054.13,-70.59 1043.77,-72.83 1053.27,-77.54 1054.13,-70.59"/>
</g>
<!-- Node8 -->
<g id="node8" class="node">
<title>Node8</title>
<g id="a_node8"><a xlink:title=" ">
<polygon fill="white" stroke="#bfbfbf" points="1708.96,-56.5 1708.96,-75.5 1772.96,-75.5 1772.96,-56.5 1708.96,-56.5"/>
<text text-anchor="middle" x="1740.96" y="-63.5" font-family="Helvetica,sans-Serif" font-size="10.00">algorithm</text>
</a>
</g>
</g>
<!-- Node4&#45;&gt;Node8 -->
<g id="edge7" class="edge">
<title>Node4&#45;&gt;Node8</title>
<path fill="none" stroke="midnightblue" d="M1513.07,-117.98C1562.26,-106.97 1647.58,-87.89 1698.71,-76.45"/>
<polygon fill="midnightblue" stroke="midnightblue" points="1699.77,-79.8 1708.76,-74.2 1698.24,-72.97 1699.77,-79.8"/>
</g>
<!-- Node9 -->
<g id="node9" class="node">
<title>Node9</title>
<g id="a_node9"><a xlink:title=" ">
<polygon fill="white" stroke="#bfbfbf" points="942.46,-0.5 942.46,-19.5 1051.46,-19.5 1051.46,-0.5 942.46,-0.5"/>
<text text-anchor="middle" x="996.96" y="-7.5" font-family="Helvetica,sans-Serif" font-size="10.00">AMReX_MultiFab.H</text>
</a>
</g>
</g>
<!-- Node4&#45;&gt;Node9 -->
<g id="edge8" class="edge">
<title>Node4&#45;&gt;Node9</title>
<path fill="none" stroke="midnightblue" d="M1518.32,-117.96C1528.98,-115.94 1540.37,-113.83 1550.96,-112 1655.05,-93.96 1854.49,-132.81 1781.96,-56 1757.37,-29.96 1245.34,-16.37 1061.75,-12.32"/>
<polygon fill="midnightblue" stroke="midnightblue" points="1061.77,-8.82 1051.7,-12.1 1061.62,-15.82 1061.77,-8.82"/>
</g>
<!-- Node10 -->
<g id="node10" class="node">
<title>Node10</title>
<g id="a_node10"><a xlink:title=" ">
<polygon fill="white" stroke="#bfbfbf" points="1356.46,-56.5 1356.46,-75.5 1455.46,-75.5 1455.46,-56.5 1356.46,-56.5"/>
<text text-anchor="middle" x="1405.96" y="-63.5" font-family="Helvetica,sans-Serif" font-size="10.00">AMReX_BCRec.H</text>
</a>
</g>
</g>
<!-- Node4&#45;&gt;Node10 -->
<g id="edge9" class="edge">
<title>Node4&#45;&gt;Node10</title>
<path fill="none" stroke="midnightblue" d="M1465.08,-117.98C1454.32,-108.7 1436.89,-93.67 1423.74,-82.33"/>
<polygon fill="midnightblue" stroke="midnightblue" points="1425.69,-79.39 1415.83,-75.51 1421.12,-84.69 1425.69,-79.39"/>
</g>
<!-- Node4&#45;&gt;Node11 -->
<g id="edge10" class="edge">
<title>Node4&#45;&gt;Node11</title>
<path fill="none" stroke="midnightblue" d="M1535.44,-118C1551.22,-115.9 1568.22,-113.76 1583.96,-112 1744.69,-94.03 1935.33,-78.3 2026.37,-71.12"/>
<polygon fill="midnightblue" stroke="midnightblue" points="2026.75,-74.61 2036.44,-70.33 2026.2,-67.63 2026.75,-74.61"/>
</g>
<!-- Node12 -->
<g id="node12" class="node">
<title>Node12</title>
<g id="a_node12"><a xlink:href="incflo__enums_8_h.html" target="_top" xlink:title=" ">
<polygon fill="white" stroke="black" points="1473.46,-56.5 1473.46,-75.5 1614.46,-75.5 1614.46,-56.5 1473.46,-56.5"/>
<text text-anchor="middle" x="1543.96" y="-63.5" font-family="Helvetica,sans-Serif" font-size="10.00">amr&#45;wind/incflo_enums.H</text>
</a>
</g>
</g>
<!-- Node4&#45;&gt;Node12 -->
<g id="edge11" class="edge">
<title>Node4&#45;&gt;Node12</title>
<path fill="none" stroke="midnightblue" d="M1484.85,-117.98C1495.61,-108.7 1513.03,-93.67 1526.18,-82.33"/>
<polygon fill="midnightblue" stroke="midnightblue" points="1528.81,-84.69 1534.09,-75.51 1524.24,-79.39 1528.81,-84.69"/>
</g>
<!-- Node13 -->
<g id="node13" class="node">
<title>Node13</title>
<g id="a_node13"><a xlink:href="_view_field_8_h.html" target="_top" xlink:title=" ">
<polygon fill="white" stroke="black" points="443.96,-56.5 443.96,-75.5 591.96,-75.5 591.96,-56.5 443.96,-56.5"/>
<text text-anchor="middle" x="517.96" y="-63.5" font-family="Helvetica,sans-Serif" font-size="10.00">amr&#45;wind/core/ViewField.H</text>
</a>
</g>
</g>
<!-- Node4&#45;&gt;Node13 -->
<g id="edge13" class="edge">
<title>Node4&#45;&gt;Node13</title>
<path fill="none" stroke="midnightblue" d="M1412.91,-122.64C1246.77,-112.31 791.65,-84.02 602.32,-72.25"/>
<polygon fill="midnightblue" stroke="midnightblue" points="602.35,-68.74 592.15,-71.61 601.91,-75.73 602.35,-68.74"/>
</g>
<!-- Node13&#45;&gt;Node3 -->
<g id="edge15" class="edge">
<title>Node13&#45;&gt;Node3</title>
<path fill="none" stroke="midnightblue" d="M540.15,-56.44C563.39,-47.48 600.11,-33.31 626.38,-23.18"/>
<polygon fill="midnightblue" stroke="midnightblue" points="627.81,-26.38 635.88,-19.52 625.29,-19.85 627.81,-26.38"/>
</g>
<!-- Node13&#45;&gt;Node5 -->
<g id="edge14" class="edge">
<title>Node13&#45;&gt;Node5</title>
<path fill="none" stroke="midnightblue" d="M477.72,-56.44C427.49,-45.77 342.6,-27.72 296.35,-17.89"/>
<polygon fill="midnightblue" stroke="midnightblue" points="296.79,-14.4 286.28,-15.75 295.34,-21.25 296.79,-14.4"/>
</g>
<!-- Node13&#45;&gt;Node9 -->
<g id="edge16" class="edge">
<title>Node13&#45;&gt;Node9</title>
<path fill="none" stroke="midnightblue" d="M592.02,-56.65C685.1,-46.16 843.39,-28.31 931.98,-18.33"/>
<polygon fill="midnightblue" stroke="midnightblue" points="932.62,-21.78 942.17,-17.18 931.84,-14.82 932.62,-21.78"/>
</g>
<!-- Node14 -->
<g id="node14" class="node">
<title>Node14</title>
<g id="a_node14"><a xlink:title=" ">
<polygon fill="white" stroke="#bfbfbf" points="366.96,-0.5 366.96,-19.5 464.96,-19.5 464.96,-0.5 366.96,-0.5"/>
<text text-anchor="middle" x="415.96" y="-7.5" font-family="Helvetica,sans-Serif" font-size="10.00">AMReX_Vector.H</text>
</a>
</g>
</g>
<!-- Node13&#45;&gt;Node14 -->
<g id="edge17" class="edge">
<title>Node13&#45;&gt;Node14</title>
<path fill="none" stroke="midnightblue" d="M501.57,-56.32C485.29,-47.7 460.09,-34.36 441.25,-24.39"/>
<polygon fill="midnightblue" stroke="midnightblue" points="442.79,-21.24 432.31,-19.65 439.51,-27.43 442.79,-21.24"/>
</g>
<!-- Node18&#45;&gt;Node2 -->
<g id="edge33" class="edge">
<title>Node18&#45;&gt;Node2</title>
<path fill="none" stroke="midnightblue" d="M1537.85,-246.4C1568.07,-234.84 1610.4,-218.66 1639.15,-207.66"/>
<polygon fill="midnightblue" stroke="midnightblue" points="1640.62,-210.85 1648.71,-204.01 1638.12,-204.31 1640.62,-210.85"/>
</g>
<!-- Node18&#45;&gt;Node3 -->
<g id="edge28" class="edge">
<title>Node18&#45;&gt;Node3</title>
<path fill="none" stroke="midnightblue" d="M1423.84,-247.35C1328.74,-229.78 1163.09,-194.73 1027.96,-143 950.91,-113.5 941.43,-84.4 863.96,-56 819.76,-39.8 767.98,-28.52 727.4,-21.3"/>
<polygon fill="midnightblue" stroke="midnightblue" points="727.78,-17.82 717.33,-19.55 726.58,-24.71 727.78,-17.82"/>
</g>
<!-- Node18&#45;&gt;Node4 -->
<g id="edge23" class="edge">
<title>Node18&#45;&gt;Node4</title>
<path fill="none" stroke="midnightblue" d="M1498.18,-246.37C1493.46,-222.4 1483.87,-173.75 1478.62,-147.06"/>
<polygon fill="midnightblue" stroke="midnightblue" points="1482.02,-146.23 1476.66,-137.1 1475.15,-147.59 1482.02,-146.23"/>
</g>
<!-- Node18&#45;&gt;Node9 -->
<g id="edge35" class="edge">
<title>Node18&#45;&gt;Node9</title>
<path fill="none" stroke="midnightblue" d="M1504.44,-246.26C1512.62,-216.06 1536.1,-145.6 1583.96,-112 1666.19,-54.28 1871.99,-128.99 1802.96,-56 1777.62,-29.2 1248.9,-16.05 1061.84,-12.22"/>
<polygon fill="midnightblue" stroke="midnightblue" points="1061.67,-8.72 1051.6,-12.01 1061.53,-15.71 1061.67,-8.72"/>
</g>
<!-- Node18&#45;&gt;Node17 -->
<g id="edge37" class="edge">
<title>Node18&#45;&gt;Node17</title>
<path fill="none" stroke="midnightblue" d="M1423.69,-247.17C1321.2,-228.56 1135.25,-191.53 980.96,-143 946.16,-132.05 938.84,-125.54 904.96,-112 876.74,-100.72 844.51,-88.14 821.37,-79.15"/>
<polygon fill="midnightblue" stroke="midnightblue" points="822.63,-75.89 812.05,-75.53 820.1,-82.41 822.63,-75.89"/>
</g>
<!-- Node18&#45;&gt;Node19 -->
<g id="edge24" class="edge">
<title>Node18&#45;&gt;Node19</title>
<path fill="none" stroke="midnightblue" d="M1578.41,-247.11C1649.43,-234.83 1753.08,-216.92 1817.7,-205.75"/>
<polygon fill="midnightblue" stroke="midnightblue" points="1818.46,-209.17 1827.72,-204.01 1817.27,-202.27 1818.46,-209.17"/>
</g>
<!-- Node20 -->
<g id="node20" class="node">
<title>Node20</title>
<g id="a_node20"><a xlink:title=" ">
<polygon fill="white" stroke="#bfbfbf" points="1804.96,-118 1804.96,-137 1896.96,-137 1896.96,-118 1804.96,-118"/>
<text text-anchor="middle" x="1850.96" y="-125" font-family="Helvetica,sans-Serif" font-size="10.00">AMReX_REAL.H</text>
</a>
</g>
</g>
<!-- Node18&#45;&gt;Node20 -->
<g id="edge36" class="edge">
<title>Node18&#45;&gt;Node20</title>
<path fill="none" stroke="midnightblue" d="M1577.97,-255.91C1630.86,-250.28 1701.44,-237.78 1757.96,-210 1766.7,-205.7 1809.79,-166.54 1834.13,-144.1"/>
<polygon fill="midnightblue" stroke="midnightblue" points="1836.62,-146.57 1841.59,-137.21 1831.87,-141.43 1836.62,-146.57"/>
</g>
<!-- Node23 -->
<g id="node23" class="node">
<title>Node23</title>
<g id="a_node23"><a xlink:href="_field_utils_8_h.html" target="_top" xlink:title=" ">
<polygon fill="white" stroke="black" points="1036.96,-118 1036.96,-137 1182.96,-137 1182.96,-118 1036.96,-118"/>
<text text-anchor="middle" x="1109.96" y="-125" font-family="Helvetica,sans-Serif" font-size="10.00">amr&#45;wind/core/FieldUtils.H</text>
</a>
</g>
</g>
<!-- Node18&#45;&gt;Node23 -->
<g id="edge29" class="edge">
<title>Node18&#45;&gt;Node23</title>
<path fill="none" stroke="midnightblue" d="M1495.14,-246.29C1486.65,-227.53 1469,-195.01 1442.96,-179 1402.28,-153.98 1277.92,-140.33 1193.24,-133.72"/>
<polygon fill="midnightblue" stroke="midnightblue" points="1193.36,-130.22 1183.12,-132.95 1192.83,-137.2 1193.36,-130.22"/>
</g>
<!-- Node25 -->
<g id="node25" class="node">
<title>Node25</title>
<g id="a_node25"><a xlink:title=" ">
<polygon fill="white" stroke="#bfbfbf" points="785.96,-118 785.96,-137 895.96,-137 895.96,-118 785.96,-118"/>
<text text-anchor="middle" x="840.96" y="-125" font-family="Helvetica,sans-Serif" font-size="10.00">AMReX_AmrCore.H</text>
</a>
</g>
</g>
<!-- Node18&#45;&gt;Node25 -->
<g id="edge34" class="edge">
<title>Node18&#45;&gt;Node25</title>
<path fill="none" stroke="midnightblue" d="M1423.88,-257.19C1274.13,-250.28 954.57,-233.04 909.96,-210 882.47,-195.8 861.5,-165.47 850.23,-146.08"/>
<polygon fill="midnightblue" stroke="midnightblue" points="853.15,-144.13 845.24,-137.08 847.03,-147.53 853.15,-144.13"/>
</g>
<!-- Node26 -->
<g id="node26" class="node">
<title>Node26</title>
<g id="a_node26"><a xlink:title=" ">
<polygon fill="white" stroke="#bfbfbf" points="1309.46,-185 1309.46,-204 1434.46,-204 1434.46,-185 1309.46,-185"/>
<text text-anchor="middle" x="1371.96" y="-192" font-family="Helvetica,sans-Serif" font-size="10.00">AMReX_FillPatchUtil.H</text>
</a>
</g>
</g>
<!-- Node18&#45;&gt;Node26 -->
<g id="edge38" class="edge">
<title>Node18&#45;&gt;Node26</title>
<path fill="none" stroke="midnightblue" d="M1472.97,-246.4C1450.64,-235.14 1419.6,-219.5 1397.84,-208.54"/>
<polygon fill="midnightblue" stroke="midnightblue" points="1399.35,-205.38 1388.85,-204.01 1396.2,-211.63 1399.35,-205.38"/>
</g>
<!-- Node19&#45;&gt;Node20 -->
<g id="edge25" class="edge">
<title>Node19&#45;&gt;Node20</title>
<path fill="none" stroke="midnightblue" d="M1873.46,-184.73C1869.56,-174.99 1863.15,-158.98 1858.18,-146.53"/>
<polygon fill="midnightblue" stroke="midnightblue" points="1861.38,-145.11 1854.41,-137.13 1854.88,-147.71 1861.38,-145.11"/>
</g>
<!-- Node21 -->
<g id="node21" class="node">
<title>Node21</title>
<g id="a_node21"><a xlink:title=" ">
<polygon fill="white" stroke="#bfbfbf" points="1914.96,-118 1914.96,-137 2048.96,-137 2048.96,-118 1914.96,-118"/>
<text text-anchor="middle" x="1981.96" y="-125" font-family="Helvetica,sans-Serif" font-size="10.00">AMReX_GpuQualifiers.H</text>
</a>
</g>
</g>
<!-- Node19&#45;&gt;Node21 -->
<g id="edge26" class="edge">
<title>Node19&#45;&gt;Node21</title>
<path fill="none" stroke="midnightblue" d="M1891.12,-184.73C1908.68,-173.87 1938.81,-155.22 1959.52,-142.39"/>
<polygon fill="midnightblue" stroke="midnightblue" points="1961.37,-145.37 1968.03,-137.13 1957.68,-139.41 1961.37,-145.37"/>
</g>
<!-- Node22 -->
<g id="node22" class="node">
<title>Node22</title>
<g id="a_node22"><a xlink:title=" ">
<polygon fill="white" stroke="#bfbfbf" points="2066.96,-118 2066.96,-137 2182.96,-137 2182.96,-118 2066.96,-118"/>
<text text-anchor="middle" x="2124.96" y="-125" font-family="Helvetica,sans-Serif" font-size="10.00">AMReX_Extension.H</text>
</a>
</g>
</g>
<!-- Node19&#45;&gt;Node22 -->
<g id="edge27" class="edge">
<title>Node19&#45;&gt;Node22</title>
<path fill="none" stroke="midnightblue" d="M1909.64,-184.94C1953.97,-173.32 2033.24,-152.54 2082.24,-139.7"/>
<polygon fill="midnightblue" stroke="midnightblue" points="2083.43,-143 2092.21,-137.08 2081.65,-136.23 2083.43,-143"/>
</g>
<!-- Node23&#45;&gt;Node3 -->
<g id="edge30" class="edge">
<title>Node23&#45;&gt;Node3</title>
<path fill="none" stroke="midnightblue" d="M1105.66,-117.73C1097.55,-102.25 1078.42,-70.39 1051.96,-56 1002.62,-29.17 856.15,-18.26 756.39,-13.88"/>
<polygon fill="midnightblue" stroke="midnightblue" points="756.42,-10.38 746.28,-13.45 756.12,-17.37 756.42,-10.38"/>
</g>
<!-- Node23&#45;&gt;Node9 -->
<g id="edge31" class="edge">
<title>Node23&#45;&gt;Node9</title>
<path fill="none" stroke="midnightblue" d="M1109.1,-117.64C1107.26,-103.14 1101.74,-74.15 1085.96,-56 1072.83,-40.89 1053.42,-30.25 1036.07,-23.13"/>
<polygon fill="midnightblue" stroke="midnightblue" points="1037.28,-19.85 1026.69,-19.52 1034.77,-26.38 1037.28,-19.85"/>
</g>
<!-- Node24 -->
<g id="node24" class="node">
<title>Node24</title>
<g id="a_node24"><a xlink:title=" ">
<polygon fill="white" stroke="#bfbfbf" points="1137.96,-56.5 1137.96,-75.5 1261.96,-75.5 1261.96,-56.5 1137.96,-56.5"/>
<text text-anchor="middle" x="1199.96" y="-63.5" font-family="Helvetica,sans-Serif" font-size="10.00">AMReX_Interpolater.H</text>
</a>
</g>
</g>
<!-- Node23&#45;&gt;Node24 -->
<g id="edge32" class="edge">
<title>Node23&#45;&gt;Node24</title>
<path fill="none" stroke="midnightblue" d="M1122.86,-117.98C1137.43,-108.34 1161.36,-92.52 1178.71,-81.05"/>
<polygon fill="midnightblue" stroke="midnightblue" points="1180.68,-83.94 1187.09,-75.51 1176.82,-78.1 1180.68,-83.94"/>
</g>
<!-- Node27&#45;&gt;Node3 -->
<g id="edge42" class="edge">
<title>Node27&#45;&gt;Node3</title>
<path fill="none" stroke="midnightblue" d="M687.47,-184.7C682.69,-156.57 667.72,-68.46 661.13,-29.66"/>
<polygon fill="midnightblue" stroke="midnightblue" points="664.57,-28.99 659.44,-19.71 657.67,-30.16 664.57,-28.99"/>
</g>
<!-- Node27&#45;&gt;Node4 -->
<g id="edge44" class="edge">
<title>Node27&#45;&gt;Node4</title>
<path fill="none" stroke="midnightblue" d="M763.62,-187.33C914.33,-174.86 1253.26,-146.83 1402.3,-134.51"/>
<polygon fill="midnightblue" stroke="midnightblue" points="1403.02,-137.96 1412.7,-133.65 1402.45,-130.98 1403.02,-137.96"/>
</g>
<!-- Node27&#45;&gt;Node5 -->
<g id="edge40" class="edge">
<title>Node27&#45;&gt;Node5</title>
<path fill="none" stroke="midnightblue" d="M614.3,-193.56C445.83,-192.93 47.61,-186.77 6.96,-143 -1.72,-133.65 -3.57,-70.4 8.96,-56 37.62,-23.05 169.62,-14.2 231.62,-11.84"/>
<polygon fill="midnightblue" stroke="midnightblue" points="231.77,-15.34 241.65,-11.49 231.53,-8.34 231.77,-15.34"/>
</g>
<!-- Node27&#45;&gt;Node7 -->
<g id="edge41" class="edge">
<title>Node27&#45;&gt;Node7</title>
<path fill="none" stroke="midnightblue" d="M695.42,-184.98C708.69,-168.13 740.84,-130.55 776.96,-112 804.88,-97.67 884.68,-83.56 940.07,-75.07"/>
<polygon fill="midnightblue" stroke="midnightblue" points="940.75,-78.51 950.11,-73.55 939.7,-71.59 940.75,-78.51"/>
</g>
<!-- Node27&#45;&gt;Node9 -->
<g id="edge66" class="edge">
<title>Node27&#45;&gt;Node9</title>
<path fill="none" stroke="midnightblue" d="M691.27,-184.89C696.2,-168.21 709.35,-131.43 733.96,-112 781.02,-74.85 807.9,-97.25 863.96,-76 903.34,-61.07 946.81,-38.62 972.99,-24.39"/>
<polygon fill="midnightblue" stroke="midnightblue" points="974.73,-27.43 981.81,-19.55 971.36,-21.29 974.73,-27.43"/>
</g>
<!-- Node27&#45;&gt;Node23 -->
<g id="edge43" class="edge">
<title>Node27&#45;&gt;Node23</title>
<path fill="none" stroke="midnightblue" d="M744.43,-184.94C821.92,-172.97 962.29,-151.3 1044.7,-138.58"/>
<polygon fill="midnightblue" stroke="midnightblue" points="1045.35,-142.02 1054.7,-137.03 1044.29,-135.1 1045.35,-142.02"/>
</g>
<!-- Node27&#45;&gt;Node25 -->
<g id="edge65" class="edge">
<title>Node27&#45;&gt;Node25</title>
<path fill="none" stroke="midnightblue" d="M709.15,-184.87C735.27,-173.7 780.99,-154.15 811.12,-141.26"/>
<polygon fill="midnightblue" stroke="midnightblue" points="812.88,-144.32 820.69,-137.17 810.12,-137.88 812.88,-144.32"/>
</g>
<!-- Node28 -->
<g id="node28" class="node">
<title>Node28</title>
<g id="a_node28"><a xlink:href="_int_field_8_h.html" target="_top" xlink:title=" ">
<polygon fill="white" stroke="black" points="16.46,-118 16.46,-137 153.46,-137 153.46,-118 16.46,-118"/>
<text text-anchor="middle" x="84.96" y="-125" font-family="Helvetica,sans-Serif" font-size="10.00">amr&#45;wind/core/IntField.H</text>
</a>
</g>
</g>
<!-- Node27&#45;&gt;Node28 -->
<g id="edge45" class="edge">
<title>Node27&#45;&gt;Node28</title>
<path fill="none" stroke="midnightblue" d="M614.1,-187.2C515.06,-178.6 335.14,-162.07 181.96,-143 171.22,-141.66 159.84,-140.1 148.79,-138.5"/>
<polygon fill="midnightblue" stroke="midnightblue" points="149.17,-135.02 138.77,-137.02 148.16,-141.94 149.17,-135.02"/>
</g>
<!-- Node29 -->
<g id="node29" class="node">
<title>Node29</title>
<g id="a_node29"><a xlink:title=" ">
<polygon fill="white" stroke="#bfbfbf" points="59.96,-56.5 59.96,-75.5 171.96,-75.5 171.96,-56.5 59.96,-56.5"/>
<text text-anchor="middle" x="115.96" y="-63.5" font-family="Helvetica,sans-Serif" font-size="10.00">AMReX_iMultiFab.H</text>
</a>
</g>
</g>
<!-- Node27&#45;&gt;Node29 -->
<g id="edge67" class="edge">
<title>Node27&#45;&gt;Node29</title>
<path fill="none" stroke="midnightblue" d="M614.17,-190.04C500.92,-184.03 291.76,-169.66 221.96,-143 186.24,-129.35 151.52,-100.64 132.03,-82.68"/>
<polygon fill="midnightblue" stroke="midnightblue" points="134.32,-80.03 124.64,-75.71 129.51,-85.12 134.32,-80.03"/>
</g>
<!-- Node30 -->
<g id="node30" class="node">
<title>Node30</title>
<g id="a_node30"><a xlink:href="_scratch_field_8_h.html" target="_top" xlink:title=" ">
<polygon fill="white" stroke="black" points="453.96,-118 453.96,-137 613.96,-137 613.96,-118 453.96,-118"/>
<text text-anchor="middle" x="533.96" y="-125" font-family="Helvetica,sans-Serif" font-size="10.00">amr&#45;wind/core/ScratchField.H</text>
</a>
</g>
</g>
<!-- Node27&#45;&gt;Node30 -->
<g id="edge49" class="edge">
<title>Node27&#45;&gt;Node30</title>
<path fill="none" stroke="midnightblue" d="M668.38,-184.87C641.63,-173.65 594.71,-153.98 563.99,-141.09"/>
<polygon fill="midnightblue" stroke="midnightblue" points="565.21,-137.81 554.63,-137.17 562.5,-144.26 565.21,-137.81"/>
</g>
<!-- Node32 -->
<g id="node32" class="node">
<title>Node32</title>
<g id="a_node32"><a xlink:href="_int_scratch_field_8_h.html" target="_top" xlink:title=" ">
<polygon fill="white" stroke="black" points="231.46,-112.5 231.46,-142.5 370.46,-142.5 370.46,-112.5 231.46,-112.5"/>
<text text-anchor="start" x="239.46" y="-130.5" font-family="Helvetica,sans-Serif" font-size="10.00">amr&#45;wind/core/IntScratch</text>
<text text-anchor="middle" x="300.96" y="-119.5" font-family="Helvetica,sans-Serif" font-size="10.00">Field.H</text>
</a>
</g>
</g>
<!-- Node27&#45;&gt;Node32 -->
<g id="edge57" class="edge">
<title>Node27&#45;&gt;Node32</title>
<path fill="none" stroke="midnightblue" d="M637.84,-184.94C572.26,-173.95 457.8,-154.77 380.72,-141.86"/>
<polygon fill="midnightblue" stroke="midnightblue" points="381.01,-138.36 370.57,-140.16 379.86,-145.27 381.01,-138.36"/>
</g>
<!-- Node28&#45;&gt;Node3 -->
<g id="edge47" class="edge">
<title>Node28&#45;&gt;Node3</title>
<path fill="none" stroke="midnightblue" d="M74.87,-117.72C59.51,-103.35 33.76,-74.52 50.96,-56 59.51,-46.8 390.13,-26.45 559.74,-16.58"/>
<polygon fill="midnightblue" stroke="midnightblue" points="560.15,-20.06 569.93,-15.99 559.75,-13.07 560.15,-20.06"/>
</g>
<!-- Node28&#45;&gt;Node5 -->
<g id="edge46" class="edge">
<title>Node28&#45;&gt;Node5</title>
<path fill="none" stroke="midnightblue" d="M66.04,-117.94C39.99,-105 -1.61,-79.47 17.96,-56 44.84,-23.75 171.5,-14.55 231.84,-11.97"/>
<polygon fill="midnightblue" stroke="midnightblue" points="232.1,-15.46 241.96,-11.58 231.83,-8.47 232.1,-15.46"/>
</g>
<!-- Node28&#45;&gt;Node29 -->
<g id="edge48" class="edge">
<title>Node28&#45;&gt;Node29</title>
<path fill="none" stroke="midnightblue" d="M89.4,-117.98C93.92,-109.32 101.04,-95.65 106.77,-84.65"/>
<polygon fill="midnightblue" stroke="midnightblue" points="110.01,-85.99 111.53,-75.51 103.8,-82.76 110.01,-85.99"/>
</g>
<!-- Node30&#45;&gt;Node3 -->
<g id="edge52" class="edge">
<title>Node30&#45;&gt;Node3</title>
<path fill="none" stroke="midnightblue" d="M546.92,-117.92C560.88,-108.41 583.46,-92.25 600.96,-76 617.2,-60.92 633.67,-41.61 644.7,-27.97"/>
<polygon fill="midnightblue" stroke="midnightblue" points="647.62,-29.93 651.11,-19.92 642.14,-25.57 647.62,-29.93"/>
</g>
<!-- Node30&#45;&gt;Node5 -->
<g id="edge50" class="edge">
<title>Node30&#45;&gt;Node5</title>
<path fill="none" stroke="midnightblue" d="M513.67,-117.82C466.35,-97.58 348.54,-47.18 293.36,-23.57"/>
<polygon fill="midnightblue" stroke="midnightblue" points="294.69,-20.34 284.12,-19.62 291.94,-26.78 294.69,-20.34"/>
</g>
<!-- Node30&#45;&gt;Node9 -->
<g id="edge54" class="edge">
<title>Node30&#45;&gt;Node9</title>
<path fill="none" stroke="midnightblue" d="M552.03,-117.97C584.11,-103.16 653.45,-72.68 714.96,-56 788.2,-36.14 874.67,-23.94 932.37,-17.34"/>
<polygon fill="midnightblue" stroke="midnightblue" points="932.89,-20.81 942.44,-16.21 932.11,-13.85 932.89,-20.81"/>
</g>
<!-- Node30&#45;&gt;Node13 -->
<g id="edge53" class="edge">
<title>Node30&#45;&gt;Node13</title>
<path fill="none" stroke="midnightblue" d="M531.67,-117.98C529.39,-109.49 525.82,-96.2 522.89,-85.32"/>
<polygon fill="midnightblue" stroke="midnightblue" points="526.23,-84.26 520.25,-75.51 519.47,-86.07 526.23,-84.26"/>
</g>
<!-- Node30&#45;&gt;Node14 -->
<g id="edge55" class="edge">
<title>Node30&#45;&gt;Node14</title>
<path fill="none" stroke="midnightblue" d="M502.95,-117.93C480.99,-110.33 452.44,-97.1 434.96,-76 424.07,-62.85 419.42,-43.71 417.44,-29.6"/>
<polygon fill="midnightblue" stroke="midnightblue" points="420.91,-29.14 416.35,-19.58 413.95,-29.9 420.91,-29.14"/>
</g>
<!-- Node30&#45;&gt;Node17 -->
<g id="edge56" class="edge">
<title>Node30&#45;&gt;Node17</title>
<path fill="none" stroke="midnightblue" d="M570.64,-117.98C616.17,-107.39 693.86,-89.34 743.51,-77.8"/>
<polygon fill="midnightblue" stroke="midnightblue" points="744.4,-81.18 753.35,-75.51 742.82,-74.36 744.4,-81.18"/>
</g>
<!-- Node31 -->
<g id="node31" class="node">
<title>Node31</title>
<g id="a_node31"><a xlink:title=" ">
<polygon fill="white" stroke="#bfbfbf" points="304.46,-56.5 304.46,-75.5 349.46,-75.5 349.46,-56.5 304.46,-56.5"/>
<text text-anchor="middle" x="326.96" y="-63.5" font-family="Helvetica,sans-Serif" font-size="10.00">utility</text>
</a>
</g>
</g>
<!-- Node30&#45;&gt;Node31 -->
<g id="edge51" class="edge">
<title>Node30&#45;&gt;Node31</title>
<path fill="none" stroke="midnightblue" d="M504.3,-117.98C465.84,-106.92 398.99,-87.7 359.27,-76.29"/>
<polygon fill="midnightblue" stroke="midnightblue" points="360.13,-72.89 349.56,-73.49 358.2,-79.62 360.13,-72.89"/>
</g>
<!-- Node32&#45;&gt;Node3 -->
<g id="edge60" class="edge">
<title>Node32&#45;&gt;Node3</title>
<path fill="none" stroke="midnightblue" d="M294.37,-112.44C288.07,-96.69 281.38,-71.37 294.96,-56 312.31,-36.37 458.1,-23.35 559.55,-16.57"/>
<polygon fill="midnightblue" stroke="midnightblue" points="559.79,-20.07 569.53,-15.92 559.33,-13.08 559.79,-20.07"/>
</g>
<!-- Node32&#45;&gt;Node5 -->
<g id="edge58" class="edge">
<title>Node32&#45;&gt;Node5</title>
<path fill="none" stroke="midnightblue" d="M264.97,-112.35C249.41,-104.22 232.77,-92.32 223.96,-76 214.51,-58.49 229.91,-39.15 244.26,-26.16"/>
<polygon fill="midnightblue" stroke="midnightblue" points="246.59,-28.78 251.96,-19.65 242.07,-23.43 246.59,-28.78"/>
</g>
<!-- Node32&#45;&gt;Node13 -->
<g id="edge61" class="edge">
<title>Node32&#45;&gt;Node13</title>
<path fill="none" stroke="midnightblue" d="M352.11,-112.47C390.2,-102.03 441.53,-87.96 476.94,-78.25"/>
<polygon fill="midnightblue" stroke="midnightblue" points="478.22,-81.53 486.94,-75.51 476.37,-74.78 478.22,-81.53"/>
</g>
<!-- Node32&#45;&gt;Node14 -->
<g id="edge63" class="edge">
<title>Node32&#45;&gt;Node14</title>
<path fill="none" stroke="midnightblue" d="M283.55,-112.3C267.6,-97.55 248.37,-74.13 261.96,-56 273.62,-40.45 318.32,-28.48 356.58,-20.81"/>
<polygon fill="midnightblue" stroke="midnightblue" points="357.5,-24.2 366.65,-18.86 356.17,-17.33 357.5,-24.2"/>
</g>
<!-- Node32&#45;&gt;Node17 -->
<g id="edge64" class="edge">
<title>Node32&#45;&gt;Node17</title>
<path fill="none" stroke="midnightblue" d="M370.5,-118.04C461.46,-106.97 620.24,-87.65 714.18,-76.22"/>
<polygon fill="midnightblue" stroke="midnightblue" points="714.68,-79.69 724.18,-75 713.83,-72.74 714.68,-79.69"/>
</g>
<!-- Node32&#45;&gt;Node29 -->
<g id="edge62" class="edge">
<title>Node32&#45;&gt;Node29</title>
<path fill="none" stroke="midnightblue" d="M257.12,-112.4C225.15,-102.12 182.35,-88.35 152.28,-78.68"/>
<polygon fill="midnightblue" stroke="midnightblue" points="153.2,-75.3 142.61,-75.57 151.06,-81.96 153.2,-75.3"/>
</g>
<!-- Node32&#45;&gt;Node31 -->
<g id="edge59" class="edge">
<title>Node32&#45;&gt;Node31</title>
<path fill="none" stroke="midnightblue" d="M307.12,-112.4C310.71,-104.2 315.26,-93.78 319.1,-84.99"/>
<polygon fill="midnightblue" stroke="midnightblue" points="322.38,-86.22 323.18,-75.66 315.97,-83.42 322.38,-86.22"/>
</g>
<!-- Node33&#45;&gt;Node11 -->
<g id="edge71" class="edge">
<title>Node33&#45;&gt;Node11</title>
<path fill="none" stroke="midnightblue" d="M2341.48,-179.23C2358.52,-161.84 2381.3,-132.3 2363.96,-112 2334.93,-78.01 2207.55,-69.55 2133.62,-67.54"/>
<polygon fill="midnightblue" stroke="midnightblue" points="2133.64,-64.04 2123.55,-67.3 2133.47,-71.04 2133.64,-64.04"/>
</g>
<!-- Node33&#45;&gt;Node16 -->
<g id="edge70" class="edge">
<title>Node33&#45;&gt;Node16</title>
<path fill="none" stroke="midnightblue" d="M2319.67,-179.4C2315.37,-169.76 2309.64,-156.91 2305.01,-146.54"/>
<polygon fill="midnightblue" stroke="midnightblue" points="2308.11,-144.9 2300.84,-137.19 2301.72,-147.75 2308.11,-144.9"/>
</g>
<!-- Node34&#45;&gt;Node11 -->
<g id="edge74" class="edge">
<title>Node34&#45;&gt;Node11</title>
<path fill="none" stroke="midnightblue" d="M2188.32,-179.2C2196.13,-161.8 2205.63,-132.23 2191.96,-112 2178.73,-92.43 2155.44,-81.37 2133.5,-75.12"/>
<polygon fill="midnightblue" stroke="midnightblue" points="2134.12,-71.66 2123.56,-72.57 2132.38,-78.44 2134.12,-71.66"/>
</g>
<!-- Node34&#45;&gt;Node16 -->
<g id="edge73" class="edge">
<title>Node34&#45;&gt;Node16</title>
<path fill="none" stroke="midnightblue" d="M2206.13,-179.4C2225.95,-168.29 2253.38,-152.92 2272.9,-141.98"/>
<polygon fill="midnightblue" stroke="midnightblue" points="2274.77,-144.95 2281.78,-137.01 2271.35,-138.84 2274.77,-144.95"/>
</g>
</g>
</svg>
        <g id="navigator" transform="translate(0 0)" fill="#404254">
                <rect fill="#f2f5e9" fill-opacity="0.5" stroke="#606060" stroke-width=".5" x="0" y="0" width="60" height="60"/>
                <use id="zoomplus" xlink:href="#zoomPlus" x="17" y="9" onmousedown="handleZoom(evt,'in')"/>
                <use id="zoomminus" xlink:href="#zoomMin" x="42" y="9" onmousedown="handleZoom(evt,'out')"/>
                <use id="reset" xlink:href="#resetDef" x="30" y="36" onmousedown="handleReset()"/>
                <g id="arrowUp" xlink:href="#dirArrow" transform="translate(30 24)" onmousedown="handlePan(0,-1)">
                  <use xlink:href="#rim" fill="#404040">
                        <set attributeName="fill" to="#808080" begin="arrowUp.mouseover" end="arrowUp.mouseout"/>
                  </use>
                  <path fill="none" stroke="white" stroke-width="1.5" d="M0,-3.0v7 M-2.5,-0.5L0,-3.0L2.5,-0.5"/>
                </g>
                <g id="arrowRight" xlink:href="#dirArrow" transform="rotate(90) translate(36 -43)" onmousedown="handlePan(1,0)">
                  <use xlink:href="#rim" fill="#404040">
                        <set attributeName="fill" to="#808080" begin="arrowRight.mouseover" end="arrowRight.mouseout"/>
                  </use>
                  <path fill="none" stroke="white" stroke-width="1.5" d="M0,-3.0v7 M-2.5,-0.5L0,-3.0L2.5,-0.5"/>
                </g>
                <g id="arrowDown" xlink:href="#dirArrow" transform="rotate(180) translate(-30 -48)" onmousedown="handlePan(0,1)">
                  <use xlink:href="#rim" fill="#404040">
                        <set attributeName="fill" to="#808080" begin="arrowDown.mouseover" end="arrowDown.mouseout"/>
                  </use>
                  <path fill="none" stroke="white" stroke-width="1.5" d="M0,-3.0v7 M-2.5,-0.5L0,-3.0L2.5,-0.5"/>
                </g>
                <g id="arrowLeft" xlink:href="#dirArrow" transform="rotate(270) translate(-36 17)" onmousedown="handlePan(-1,0)">
                  <use xlink:href="#rim" fill="#404040">
                        <set attributeName="fill" to="#808080" begin="arrowLeft.mouseover" end="arrowLeft.mouseout"/>
                  </use>
                  <path fill="none" stroke="white" stroke-width="1.5" d="M0,-3.0v7 M-2.5,-0.5L0,-3.0L2.5,-0.5"/>
                </g>
        </g>
        <svg viewBox="0 0 15 15" width="100%" height="30px" preserveAspectRatio="xMaxYMin meet">
         <g id="arrow_out" transform="scale(0.3 0.3)">
          <a xlink:href="velocity__bcs_8_h__incl_org.svg" target="_base">
           <rect id="button" ry="5" rx="5" y="6" x="6" height="38" width="38"
                fill="#f2f5e9" fill-opacity="0.5" stroke="#606060" stroke-width="1.0"/>
           <path id="arrow"
             d="M 11.500037,31.436501 C 11.940474,20.09759 22.043105,11.32322 32.158766,21.979434 L 37.068811,17.246167 C 37.068811,17.246167 37.088388,32 37.088388,32 L 22.160133,31.978069 C 22.160133,31.978069 26.997745,27.140456 26.997745,27.140456 C 18.528582,18.264221 13.291696,25.230495 11.500037,31.436501 z"
             style="fill:#404040;"/>
          </a>
         </g>
        </svg>
</svg>
